G04*
G04 #@! TF.GenerationSoftware,Altium Limited,Altium Designer,21.8.1 (53)*
G04*
G04 Layer_Color=8388736*
%FSLAX25Y25*%
%MOIN*%
G70*
G04*
G04 #@! TF.SameCoordinates,C3BC6F45-041D-44BD-81EA-7FCEF9ED4BC6*
G04*
G04*
G04 #@! TF.FilePolarity,Negative*
G04*
G01*
G75*
%ADD21R,0.01100X0.05350*%
%ADD25R,0.05350X0.01100*%
%ADD28R,0.08280X0.08280*%
%ADD29R,0.06115X0.02375*%
%ADD30R,0.04737X0.04540*%
%ADD31R,0.04540X0.04737*%
%ADD32R,0.04343X0.03950*%
%ADD33R,0.03950X0.04343*%
%ADD34R,0.03950X0.03950*%
%ADD35R,0.07493X0.06706*%
%ADD36R,0.03950X0.03950*%
%ADD37C,0.02965*%
%ADD38C,0.06194*%
%ADD39R,0.06194X0.06194*%
%ADD40R,0.06194X0.06194*%
G36*
X18288Y134518D02*
X5877D01*
Y143386D01*
X18288D01*
Y134518D01*
D02*
G37*
G36*
X26950Y127038D02*
X20050D01*
Y130787D01*
X26950D01*
Y127038D01*
D02*
G37*
G36*
Y122116D02*
X20050D01*
Y125866D01*
X26950D01*
Y122116D01*
D02*
G37*
G36*
Y117195D02*
X20050D01*
Y120945D01*
X26950D01*
Y117195D01*
D02*
G37*
G36*
Y112274D02*
X20050D01*
Y116024D01*
X26950D01*
Y112274D01*
D02*
G37*
G36*
Y107353D02*
X20050D01*
Y111102D01*
X26950D01*
Y107353D01*
D02*
G37*
G36*
Y102431D02*
X20050D01*
Y106181D01*
X26950D01*
Y102431D01*
D02*
G37*
G36*
Y97510D02*
X20050D01*
Y101260D01*
X26950D01*
Y97510D01*
D02*
G37*
G36*
Y92589D02*
X20050D01*
Y96339D01*
X26950D01*
Y92589D01*
D02*
G37*
G36*
Y87668D02*
X20050D01*
Y91417D01*
X26950D01*
Y87668D01*
D02*
G37*
G36*
X289874Y84309D02*
X277463D01*
Y93176D01*
X289874D01*
Y84309D01*
D02*
G37*
G36*
X26950Y82746D02*
X20050D01*
Y86496D01*
X26950D01*
Y82746D01*
D02*
G37*
G36*
Y77825D02*
X20050D01*
Y81575D01*
X26950D01*
Y77825D01*
D02*
G37*
G36*
X275701Y76828D02*
X268802D01*
Y80578D01*
X275701D01*
Y76828D01*
D02*
G37*
G36*
X26950Y72904D02*
X20050D01*
Y76653D01*
X26950D01*
Y72904D01*
D02*
G37*
G36*
X275701Y71907D02*
X268802D01*
Y75657D01*
X275701D01*
Y71907D01*
D02*
G37*
G36*
X26950Y67983D02*
X20050D01*
Y71732D01*
X26950D01*
Y67983D01*
D02*
G37*
G36*
X275701Y66986D02*
X268802D01*
Y70735D01*
X275701D01*
Y66986D01*
D02*
G37*
G36*
X26950Y63061D02*
X20050D01*
Y66811D01*
X26950D01*
Y63061D01*
D02*
G37*
G36*
X275701Y62065D02*
X268802D01*
Y65814D01*
X275701D01*
Y62065D01*
D02*
G37*
G36*
Y57143D02*
X268802D01*
Y60893D01*
X275701D01*
Y57143D01*
D02*
G37*
G36*
Y52222D02*
X268802D01*
Y55972D01*
X275701D01*
Y52222D01*
D02*
G37*
G36*
X18288Y50463D02*
X5877D01*
Y59331D01*
X18288D01*
Y50463D01*
D02*
G37*
G36*
X289874Y39624D02*
X277463D01*
Y48491D01*
X289874D01*
Y39624D01*
D02*
G37*
D21*
X141590Y139760D02*
D03*
X127810Y54910D02*
D03*
X149464D02*
D03*
X169149D02*
D03*
X194739D02*
D03*
X175054Y139760D02*
D03*
X157338D02*
D03*
X131747D02*
D03*
X127810D02*
D03*
X129779D02*
D03*
X133716D02*
D03*
X135684D02*
D03*
X137653D02*
D03*
X139621D02*
D03*
X143558D02*
D03*
X145527D02*
D03*
X147495D02*
D03*
X149464D02*
D03*
X151432D02*
D03*
X153401D02*
D03*
X155369D02*
D03*
X159306D02*
D03*
X161275D02*
D03*
X163243D02*
D03*
X165212D02*
D03*
X167180D02*
D03*
X169149D02*
D03*
X171117D02*
D03*
X173086D02*
D03*
X177023D02*
D03*
X178991D02*
D03*
X180960D02*
D03*
X182928D02*
D03*
X184897D02*
D03*
X186865D02*
D03*
X188834D02*
D03*
X190802D02*
D03*
X192771D02*
D03*
X194739D02*
D03*
X196708D02*
D03*
Y54910D02*
D03*
X192771D02*
D03*
X190802D02*
D03*
X188834D02*
D03*
X186865D02*
D03*
X184897D02*
D03*
X182928D02*
D03*
X180960D02*
D03*
X178991D02*
D03*
X177023D02*
D03*
X175054D02*
D03*
X173086D02*
D03*
X171117D02*
D03*
X167180D02*
D03*
X165212D02*
D03*
X163243D02*
D03*
X161275D02*
D03*
X159306D02*
D03*
X157338D02*
D03*
X155369D02*
D03*
X153401D02*
D03*
X151432D02*
D03*
X147495D02*
D03*
X145527D02*
D03*
X143558D02*
D03*
X141590D02*
D03*
X139621D02*
D03*
X137653D02*
D03*
X135684D02*
D03*
X133716D02*
D03*
X131747D02*
D03*
X129779D02*
D03*
D25*
X119834Y102257D02*
D03*
X204684Y82572D02*
D03*
Y104225D02*
D03*
Y129816D02*
D03*
Y131784D02*
D03*
Y127847D02*
D03*
Y125879D02*
D03*
Y123910D02*
D03*
Y121942D02*
D03*
Y119973D02*
D03*
Y118005D02*
D03*
Y116036D02*
D03*
Y114068D02*
D03*
Y112099D02*
D03*
Y110131D02*
D03*
Y108162D02*
D03*
Y106194D02*
D03*
Y102257D02*
D03*
Y100288D02*
D03*
Y98320D02*
D03*
Y96351D02*
D03*
Y94383D02*
D03*
Y92414D02*
D03*
Y90446D02*
D03*
Y88477D02*
D03*
Y86509D02*
D03*
Y84540D02*
D03*
Y80603D02*
D03*
Y78635D02*
D03*
Y76666D02*
D03*
Y74698D02*
D03*
Y72729D02*
D03*
Y70761D02*
D03*
Y68792D02*
D03*
Y66824D02*
D03*
Y64855D02*
D03*
Y62887D02*
D03*
X119834D02*
D03*
Y64855D02*
D03*
Y66824D02*
D03*
Y68792D02*
D03*
Y70761D02*
D03*
Y72729D02*
D03*
Y74698D02*
D03*
Y76666D02*
D03*
Y78635D02*
D03*
Y80603D02*
D03*
Y82572D02*
D03*
Y84540D02*
D03*
Y86509D02*
D03*
Y88477D02*
D03*
Y90446D02*
D03*
Y92414D02*
D03*
Y94383D02*
D03*
Y96351D02*
D03*
Y98320D02*
D03*
Y100288D02*
D03*
Y104225D02*
D03*
Y106194D02*
D03*
Y108162D02*
D03*
Y110131D02*
D03*
Y112099D02*
D03*
Y114068D02*
D03*
Y116036D02*
D03*
Y118005D02*
D03*
Y119973D02*
D03*
Y121942D02*
D03*
Y123910D02*
D03*
Y125879D02*
D03*
Y127847D02*
D03*
Y129816D02*
D03*
Y131784D02*
D03*
D28*
X289900Y163651D02*
D03*
Y152824D02*
D03*
Y143376D02*
D03*
Y132549D02*
D03*
D29*
X279368Y153218D02*
D03*
Y150659D02*
D03*
Y148100D02*
D03*
Y145541D02*
D03*
Y142982D02*
D03*
D30*
X213440Y58556D02*
D03*
Y53438D02*
D03*
X110100Y108141D02*
D03*
X174700Y155059D02*
D03*
X128795Y154028D02*
D03*
X101900Y80441D02*
D03*
X127810Y39658D02*
D03*
X98283Y22926D02*
D03*
X72692Y91036D02*
D03*
X55960Y36705D02*
D03*
X150448Y39658D02*
D03*
X173700Y39941D02*
D03*
X207535Y29028D02*
D03*
X154800Y155359D02*
D03*
X140605Y172729D02*
D03*
X106157Y147926D02*
D03*
X234600Y121259D02*
D03*
X75645Y155516D02*
D03*
X107141Y46745D02*
D03*
X102220Y58359D02*
D03*
X62850Y122532D02*
D03*
X64818Y140249D02*
D03*
Y135131D02*
D03*
X62850Y117414D02*
D03*
X102220Y63477D02*
D03*
X107141Y41627D02*
D03*
X75645Y160634D02*
D03*
X234600Y116141D02*
D03*
X106157Y153044D02*
D03*
X140605Y167611D02*
D03*
X154800Y150241D02*
D03*
X207535Y23910D02*
D03*
X173700Y45059D02*
D03*
X150448Y44776D02*
D03*
X55960Y41824D02*
D03*
X72692Y85918D02*
D03*
X98283Y28044D02*
D03*
X127810Y44776D02*
D03*
X101900Y85559D02*
D03*
X128795Y148910D02*
D03*
X174700Y149941D02*
D03*
X110100Y113259D02*
D03*
D31*
X214741Y77100D02*
D03*
X219859D02*
D03*
X105566Y121942D02*
D03*
X105341Y99700D02*
D03*
X69346Y59934D02*
D03*
X219359Y132100D02*
D03*
X218959Y106600D02*
D03*
X144149Y10221D02*
D03*
X139031D02*
D03*
X213841Y106600D02*
D03*
X214241Y132100D02*
D03*
X64228Y59934D02*
D03*
X110459Y99700D02*
D03*
X110684Y121942D02*
D03*
D32*
X54976Y155319D02*
D03*
X75645Y131981D02*
D03*
X44149Y141430D02*
D03*
X42180Y122729D02*
D03*
X116900Y8244D02*
D03*
X43165Y76863D02*
D03*
X85487Y47926D02*
D03*
X79582Y57178D02*
D03*
X76629Y22729D02*
D03*
X185881Y30209D02*
D03*
X118100Y173756D02*
D03*
Y168244D02*
D03*
X185881Y24698D02*
D03*
X76629Y28241D02*
D03*
X79582Y62690D02*
D03*
X85487Y42414D02*
D03*
X43165Y82375D02*
D03*
X54976Y81391D02*
D03*
Y75879D02*
D03*
X116900Y13756D02*
D03*
X42180Y117217D02*
D03*
X44149Y135918D02*
D03*
X75645Y137493D02*
D03*
X54976Y160831D02*
D03*
D33*
X50156Y90500D02*
D03*
X256956Y125500D02*
D03*
X57731Y135721D02*
D03*
X52220D02*
D03*
X94149Y62887D02*
D03*
X88637D02*
D03*
X99070Y42217D02*
D03*
X93558D02*
D03*
X68558Y161028D02*
D03*
X63046D02*
D03*
X99070Y152453D02*
D03*
X93558D02*
D03*
X127044Y167400D02*
D03*
X132556D02*
D03*
X210291Y151469D02*
D03*
X204779D02*
D03*
X227556Y90100D02*
D03*
X222044D02*
D03*
X226056Y98000D02*
D03*
X220544D02*
D03*
X247256Y117000D02*
D03*
X241744D02*
D03*
X251444Y125500D02*
D03*
X194149Y24501D02*
D03*
X199661D02*
D03*
X50251Y50091D02*
D03*
X55763D02*
D03*
X84700Y28438D02*
D03*
X90212D02*
D03*
X44644Y90500D02*
D03*
X124857Y13174D02*
D03*
X130369D02*
D03*
X50251Y117020D02*
D03*
X55763D02*
D03*
D34*
X235100Y83252D02*
D03*
X236200Y103848D02*
D03*
Y97352D02*
D03*
X235100Y89748D02*
D03*
D35*
X92456Y77257D02*
D03*
X82456D02*
D03*
X92456Y85918D02*
D03*
X82456D02*
D03*
D36*
X210783Y159343D02*
D03*
X204287D02*
D03*
D37*
X281435Y155974D02*
D03*
Y140226D02*
D03*
D38*
X195724Y180013D02*
D03*
X249400Y61300D02*
D03*
Y91300D02*
D03*
Y81300D02*
D03*
Y71300D02*
D03*
Y51300D02*
D03*
X205724Y180013D02*
D03*
X185724D02*
D03*
X175724D02*
D03*
X165724D02*
D03*
D39*
X249400Y41300D02*
D03*
D40*
X215724Y180013D02*
D03*
M02*
