G04*
G04 #@! TF.GenerationSoftware,Altium Limited,Altium Designer,21.8.1 (53)*
G04*
G04 Layer_Color=65535*
%FSLAX25Y25*%
%MOIN*%
G70*
G04*
G04 #@! TF.SameCoordinates,C3BC6F45-041D-44BD-81EA-7FCEF9ED4BC6*
G04*
G04*
G04 #@! TF.FilePolarity,Positive*
G04*
G01*
G75*
%ADD10C,0.00787*%
%ADD11C,0.00500*%
%ADD12C,0.00600*%
%ADD13C,0.00800*%
%ADD14C,0.00300*%
G36*
X116159Y75448D02*
X115159D01*
Y73948D01*
X116159D01*
Y75448D01*
D02*
G37*
G36*
X134466Y51235D02*
X132966D01*
Y50235D01*
X134466D01*
Y51235D01*
D02*
G37*
G36*
X154151D02*
X152651D01*
Y50235D01*
X154151D01*
Y51235D01*
D02*
G37*
G36*
X116159Y95133D02*
X115159D01*
Y93633D01*
X116159D01*
Y95133D01*
D02*
G37*
G36*
Y114818D02*
X115159D01*
Y113318D01*
X116159D01*
Y114818D01*
D02*
G37*
G36*
X136434Y143435D02*
X134934D01*
Y144435D01*
X136434D01*
Y143435D01*
D02*
G37*
G36*
X156119D02*
X154619D01*
Y144435D01*
X156119D01*
Y143435D01*
D02*
G37*
G36*
X173836Y51235D02*
X172336D01*
Y50235D01*
X173836D01*
Y51235D01*
D02*
G37*
G36*
X193521D02*
X192021D01*
Y50235D01*
X193521D01*
Y51235D01*
D02*
G37*
G36*
X208359Y77416D02*
X209359D01*
Y75916D01*
X208359D01*
Y77416D01*
D02*
G37*
G36*
Y97101D02*
X209359D01*
Y95601D01*
X208359D01*
Y97101D01*
D02*
G37*
G36*
X175804Y143435D02*
X174304D01*
Y144435D01*
X175804D01*
Y143435D01*
D02*
G37*
G36*
X195489D02*
X193989D01*
Y144435D01*
X195489D01*
Y143435D01*
D02*
G37*
G36*
X208359Y116786D02*
X209359D01*
Y115286D01*
X208359D01*
Y116786D01*
D02*
G37*
D10*
X277302Y139832D02*
G03*
X277302Y139832I-394J0D01*
G01*
X82850Y71745D02*
G03*
X82850Y71745I-394J0D01*
G01*
X249794Y33741D02*
G03*
X249794Y33741I-394J0D01*
G01*
X223676Y180013D02*
G03*
X223676Y180013I-394J0D01*
G01*
X49464Y132768D02*
X60487D01*
Y138674D01*
X49464D02*
X60487D01*
X49464Y132768D02*
Y138674D01*
X85881Y59934D02*
X96905D01*
Y65839D01*
X85881D02*
X96905D01*
X85881Y59934D02*
Y65839D01*
X90802Y39265D02*
X101826D01*
Y45170D01*
X90802D02*
X101826D01*
X90802Y39265D02*
Y45170D01*
X60290Y158075D02*
X71314D01*
Y163980D01*
X60290D02*
X71314D01*
X60290Y158075D02*
Y163980D01*
X254400Y36300D02*
Y96300D01*
X244400Y36300D02*
Y96300D01*
X254400D01*
X244400Y36300D02*
X254400D01*
X220724Y175013D02*
Y185013D01*
X160724Y175013D02*
Y185013D01*
Y175013D02*
X220724D01*
X160724Y185013D02*
X220724D01*
X90802Y149501D02*
X101826D01*
Y155406D01*
X90802D02*
X101826D01*
X90802Y149501D02*
Y155406D01*
X115147Y165488D02*
Y176512D01*
Y165488D02*
X121053D01*
Y176512D01*
X115147D02*
X121053D01*
X124288Y164447D02*
Y170353D01*
X135312D01*
Y164447D02*
Y170353D01*
X124288Y164447D02*
X135312D01*
X202023Y148516D02*
X213047D01*
Y154422D01*
X202023D02*
X213047D01*
X202023Y148516D02*
Y154422D01*
X230312Y87147D02*
Y93053D01*
X219288Y87147D02*
X230312D01*
X219288D02*
Y93053D01*
X230312D01*
X228812Y95047D02*
Y100953D01*
X217788Y95047D02*
X228812D01*
X217788D02*
Y100953D01*
X228812D01*
X250012Y114047D02*
Y119953D01*
X238988Y114047D02*
X250012D01*
X238988D02*
Y119953D01*
X250012D01*
X248688Y128453D02*
X259712D01*
X248688Y122547D02*
Y128453D01*
Y122547D02*
X259712D01*
Y128453D01*
X182928Y21942D02*
Y32965D01*
Y21942D02*
X188834D01*
Y32965D01*
X182928D02*
X188834D01*
X191393Y21548D02*
Y27454D01*
X202416D01*
Y21548D02*
Y27454D01*
X191393Y21548D02*
X202416D01*
X47495Y47139D02*
Y53044D01*
X58519D01*
Y47139D02*
Y53044D01*
X47495Y47139D02*
X58519D01*
X79582Y19973D02*
Y30997D01*
X73676D02*
X79582D01*
X73676Y19973D02*
Y30997D01*
Y19973D02*
X79582D01*
X81944Y25485D02*
Y31391D01*
X92968D01*
Y25485D02*
Y31391D01*
X81944Y25485D02*
X92968D01*
X82535Y54422D02*
Y65446D01*
X76629D02*
X82535D01*
X76629Y54422D02*
Y65446D01*
Y54422D02*
X82535D01*
Y39658D02*
Y50682D01*
Y39658D02*
X88440D01*
Y50682D01*
X82535D02*
X88440D01*
X46117Y74107D02*
Y85131D01*
X40212D02*
X46117D01*
X40212Y74107D02*
Y85131D01*
Y74107D02*
X46117D01*
X52023Y84146D02*
X57928D01*
Y73123D02*
Y84146D01*
X52023Y73123D02*
X57928D01*
X52023D02*
Y84146D01*
X41888Y93453D02*
X52912D01*
X41888Y87547D02*
Y93453D01*
Y87547D02*
X52912D01*
Y93453D01*
X119853Y5488D02*
Y16512D01*
X113947D02*
X119853D01*
X113947Y5488D02*
Y16512D01*
Y5488D02*
X119853D01*
X122101Y10221D02*
Y16127D01*
X133125D01*
Y10221D02*
Y16127D01*
X122101Y10221D02*
X133125D01*
X39228Y114461D02*
Y125485D01*
Y114461D02*
X45133D01*
Y125485D01*
X39228D02*
X45133D01*
X47495Y114068D02*
Y119973D01*
X58519D01*
Y114068D02*
Y119973D01*
X47495Y114068D02*
X58519D01*
X41196Y133162D02*
Y144186D01*
Y133162D02*
X47102D01*
Y144186D01*
X41196D02*
X47102D01*
X72692Y129225D02*
X78598D01*
X72692D02*
Y140249D01*
X78598D01*
Y129225D02*
Y140249D01*
X57928Y152563D02*
Y163587D01*
X52023D02*
X57928D01*
X52023Y152563D02*
Y163587D01*
Y152563D02*
X57928D01*
D11*
X290952Y91302D02*
X291936D01*
X290952Y41498D02*
X291936D01*
X263570Y52621D02*
X265539Y53802D01*
X263570Y54983D02*
X265539Y53802D01*
X263570Y52621D02*
Y54983D01*
X271464Y91302D02*
X276582D01*
X271464Y41498D02*
X276582D01*
X291936D02*
Y91302D01*
X271464Y41498D02*
Y51262D01*
Y81538D02*
Y91302D01*
X278679Y164045D02*
X284900D01*
X278679Y155265D02*
Y164045D01*
Y132155D02*
Y140935D01*
Y132155D02*
X284900D01*
X294900Y164045D02*
X295609D01*
Y132155D02*
Y164045D01*
X294900Y132155D02*
X295609D01*
X237972Y100167D02*
Y101033D01*
X234428Y100167D02*
Y101033D01*
X207102Y161115D02*
X207968D01*
X207102Y157572D02*
X207968D01*
X77613Y75288D02*
Y87887D01*
X97298Y75288D02*
Y87887D01*
X86787Y75288D02*
X88125D01*
X86787Y87887D02*
X88125D01*
X3815Y52338D02*
X4799D01*
X3815Y141511D02*
X4799D01*
X30398Y129523D02*
X32366Y130704D01*
X30398Y129523D02*
X32366Y128342D01*
Y130704D01*
X19169Y52338D02*
X24287D01*
X19169Y141511D02*
X24287D01*
X3815Y52338D02*
Y141511D01*
X24287Y131747D02*
Y141511D01*
Y52338D02*
Y62102D01*
X236872Y86067D02*
Y86933D01*
X233328Y86067D02*
Y86933D01*
D12*
X202509Y133644D02*
Y137585D01*
X198568Y57085D02*
X202509D01*
X122009D02*
Y61027D01*
Y133644D02*
Y137585D01*
X198568D02*
X202509D01*
Y57085D02*
Y61027D01*
X122009Y57085D02*
X125950D01*
X122009Y137585D02*
X125950D01*
X237799Y109300D02*
X234800D01*
X235800D01*
X237799Y107301D01*
X236299Y108800D01*
X234800Y107301D01*
X217300Y157201D02*
Y161200D01*
Y159867D01*
X214634Y157201D01*
X216634Y159201D01*
X214634Y161200D01*
X233901Y77800D02*
X236900D01*
X235900D01*
X233901Y79799D01*
X235401Y78300D01*
X236900Y79799D01*
D13*
X243400Y172099D02*
Y168766D01*
X244066Y168100D01*
X245399D01*
X246066Y168766D01*
Y172099D01*
X250064Y171432D02*
X249398Y172099D01*
X248065D01*
X247399Y171432D01*
Y170766D01*
X248065Y170099D01*
X249398D01*
X250064Y169433D01*
Y168766D01*
X249398Y168100D01*
X248065D01*
X247399Y168766D01*
X251397Y172099D02*
Y168100D01*
X253397D01*
X254063Y168766D01*
Y169433D01*
X253397Y170099D01*
X251397D01*
X253397D01*
X254063Y170766D01*
Y171432D01*
X253397Y172099D01*
X251397D01*
X262061Y171432D02*
X261394Y172099D01*
X260061D01*
X259395Y171432D01*
Y168766D01*
X260061Y168100D01*
X261394D01*
X262061Y168766D01*
X265393Y172099D02*
X264060D01*
X263394Y171432D01*
Y168766D01*
X264060Y168100D01*
X265393D01*
X266059Y168766D01*
Y171432D01*
X265393Y172099D01*
X267392Y168100D02*
Y172099D01*
X270058Y168100D01*
Y172099D01*
X232966Y187032D02*
X232299Y187699D01*
X230966D01*
X230300Y187032D01*
Y186366D01*
X230966Y185699D01*
X232299D01*
X232966Y185033D01*
Y184367D01*
X232299Y183700D01*
X230966D01*
X230300Y184367D01*
X234299Y187699D02*
Y183700D01*
X235632Y185033D01*
X236965Y183700D01*
Y187699D01*
X238297D02*
Y183700D01*
X240297D01*
X240963Y184367D01*
Y187032D01*
X240297Y187699D01*
X238297D01*
X248961Y187032D02*
X248294Y187699D01*
X246961D01*
X246295Y187032D01*
Y184367D01*
X246961Y183700D01*
X248294D01*
X248961Y184367D01*
X252293Y187699D02*
X250960D01*
X250294Y187032D01*
Y184367D01*
X250960Y183700D01*
X252293D01*
X252959Y184367D01*
Y187032D01*
X252293Y187699D01*
X254292Y183700D02*
Y187699D01*
X256958Y183700D01*
Y187699D01*
X4999Y166999D02*
X3666D01*
X3000Y166332D01*
Y163666D01*
X3666Y163000D01*
X4999D01*
X5666Y163666D01*
Y166332D01*
X4999Y166999D01*
X6999D02*
Y163000D01*
X8998D01*
X9664Y163666D01*
Y164333D01*
X8998Y164999D01*
X6999D01*
X8998D01*
X9664Y165666D01*
Y166332D01*
X8998Y166999D01*
X6999D01*
X13663Y166332D02*
X12997Y166999D01*
X11664D01*
X10997Y166332D01*
Y163666D01*
X11664Y163000D01*
X12997D01*
X13663Y163666D01*
X21661Y166332D02*
X20994Y166999D01*
X19661D01*
X18995Y166332D01*
Y163666D01*
X19661Y163000D01*
X20994D01*
X21661Y163666D01*
X24993Y166999D02*
X23660D01*
X22994Y166332D01*
Y163666D01*
X23660Y163000D01*
X24993D01*
X25659Y163666D01*
Y166332D01*
X24993Y166999D01*
X26992Y163000D02*
Y166999D01*
X29658Y163000D01*
Y166999D01*
X247266Y28932D02*
X246599Y29599D01*
X245266D01*
X244600Y28932D01*
Y26266D01*
X245266Y25600D01*
X246599D01*
X247266Y26266D01*
X250598Y29599D02*
X249265D01*
X248599Y28932D01*
Y26266D01*
X249265Y25600D01*
X250598D01*
X251265Y26266D01*
Y28932D01*
X250598Y29599D01*
X252597Y25600D02*
Y29599D01*
X255263Y25600D01*
Y29599D01*
X263261Y25600D02*
X260595D01*
X263261Y28266D01*
Y28932D01*
X262594Y29599D01*
X261261D01*
X260595Y28932D01*
X278034Y127299D02*
X276701D01*
X277367D01*
Y123967D01*
X276701Y123301D01*
X276034D01*
X275368Y123967D01*
X282032Y127299D02*
X279366D01*
Y125300D01*
X280699Y125967D01*
X281366D01*
X282032Y125300D01*
Y123967D01*
X281366Y123301D01*
X280033D01*
X279366Y123967D01*
X114534Y145999D02*
Y142667D01*
X115201Y142001D01*
X116534D01*
X117200Y142667D01*
Y145999D01*
X118533Y142001D02*
X119866D01*
X119199D01*
Y145999D01*
X118533Y145333D01*
X81534Y94599D02*
Y93933D01*
X82867Y92600D01*
X84200Y93933D01*
Y94599D01*
X82867Y92600D02*
Y90601D01*
X85533D02*
X86866D01*
X86199D01*
Y94599D01*
X85533Y93933D01*
X180599Y21968D02*
X176601D01*
Y23968D01*
X177267Y24634D01*
X178600D01*
X179266Y23968D01*
Y21968D01*
Y23301D02*
X180599Y24634D01*
X177267Y25967D02*
X176601Y26634D01*
Y27966D01*
X177267Y28633D01*
X177934D01*
X178600Y27966D01*
Y27300D01*
Y27966D01*
X179266Y28633D01*
X179933D01*
X180599Y27966D01*
Y26634D01*
X179933Y25967D01*
X177267Y29966D02*
X176601Y30632D01*
Y31965D01*
X177267Y32632D01*
X177934D01*
X178600Y31965D01*
Y31299D01*
Y31965D01*
X179266Y32632D01*
X179933D01*
X180599Y31965D01*
Y30632D01*
X179933Y29966D01*
X192168Y15401D02*
Y19399D01*
X194168D01*
X194834Y18733D01*
Y17400D01*
X194168Y16734D01*
X192168D01*
X193501D02*
X194834Y15401D01*
X196167Y18733D02*
X196834Y19399D01*
X198167D01*
X198833Y18733D01*
Y18067D01*
X198167Y17400D01*
X197500D01*
X198167D01*
X198833Y16734D01*
Y16067D01*
X198167Y15401D01*
X196834D01*
X196167Y16067D01*
X202832Y15401D02*
X200166D01*
X202832Y18067D01*
Y18733D01*
X202165Y19399D01*
X200832D01*
X200166Y18733D01*
X101468Y12901D02*
Y16899D01*
X103468D01*
X104134Y16233D01*
Y14900D01*
X103468Y14233D01*
X101468D01*
X102801D02*
X104134Y12901D01*
X105467Y16233D02*
X106133Y16899D01*
X107466D01*
X108133Y16233D01*
Y15566D01*
X107466Y14900D01*
X106800D01*
X107466D01*
X108133Y14233D01*
Y13567D01*
X107466Y12901D01*
X106133D01*
X105467Y13567D01*
X109466Y16233D02*
X110132Y16899D01*
X111465D01*
X112132Y16233D01*
Y13567D01*
X111465Y12901D01*
X110132D01*
X109466Y13567D01*
Y16233D01*
X201968Y142401D02*
Y146399D01*
X203968D01*
X204634Y145733D01*
Y144400D01*
X203968Y143734D01*
X201968D01*
X203301D02*
X204634Y142401D01*
X208633D02*
X205967D01*
X208633Y145066D01*
Y145733D01*
X207966Y146399D01*
X206634D01*
X205967Y145733D01*
X209966Y143067D02*
X210632Y142401D01*
X211965D01*
X212632Y143067D01*
Y145733D01*
X211965Y146399D01*
X210632D01*
X209966Y145733D01*
Y145066D01*
X210632Y144400D01*
X212632D01*
X122668Y4401D02*
Y8399D01*
X124668D01*
X125334Y7733D01*
Y6400D01*
X124668Y5734D01*
X122668D01*
X124001D02*
X125334Y4401D01*
X129333D02*
X126667D01*
X129333Y7067D01*
Y7733D01*
X128666Y8399D01*
X127333D01*
X126667Y7733D01*
X130666D02*
X131332Y8399D01*
X132665D01*
X133332Y7733D01*
Y7067D01*
X132665Y6400D01*
X133332Y5734D01*
Y5067D01*
X132665Y4401D01*
X131332D01*
X130666Y5067D01*
Y5734D01*
X131332Y6400D01*
X130666Y7067D01*
Y7733D01*
X131332Y6400D02*
X132665D01*
X69468Y13801D02*
Y17799D01*
X71468D01*
X72134Y17133D01*
Y15800D01*
X71468Y15134D01*
X69468D01*
X70801D02*
X72134Y13801D01*
X76133D02*
X73467D01*
X76133Y16466D01*
Y17133D01*
X75466Y17799D01*
X74134D01*
X73467Y17133D01*
X77466Y17799D02*
X80132D01*
Y17133D01*
X77466Y14467D01*
Y13801D01*
X85999Y12868D02*
X82001D01*
Y14868D01*
X82667Y15534D01*
X84000D01*
X84666Y14868D01*
Y12868D01*
Y14201D02*
X85999Y15534D01*
Y19533D02*
Y16867D01*
X83334Y19533D01*
X82667D01*
X82001Y18867D01*
Y17534D01*
X82667Y16867D01*
X82001Y23532D02*
X82667Y22199D01*
X84000Y20866D01*
X85333D01*
X85999Y21532D01*
Y22865D01*
X85333Y23532D01*
X84666D01*
X84000Y22865D01*
Y20866D01*
X38299Y74268D02*
X34301D01*
Y76268D01*
X34967Y76934D01*
X36300D01*
X36966Y76268D01*
Y74268D01*
Y75601D02*
X38299Y76934D01*
Y80933D02*
Y78267D01*
X35634Y80933D01*
X34967D01*
X34301Y80266D01*
Y78934D01*
X34967Y78267D01*
X34301Y84932D02*
Y82266D01*
X36300D01*
X35634Y83599D01*
Y84265D01*
X36300Y84932D01*
X37633D01*
X38299Y84265D01*
Y82932D01*
X37633Y82266D01*
X48368Y55001D02*
Y58999D01*
X50368D01*
X51034Y58333D01*
Y57000D01*
X50368Y56334D01*
X48368D01*
X49701D02*
X51034Y55001D01*
X55033D02*
X52367D01*
X55033Y57666D01*
Y58333D01*
X54366Y58999D01*
X53034D01*
X52367Y58333D01*
X58365Y55001D02*
Y58999D01*
X56366Y57000D01*
X59032D01*
X50268Y95301D02*
Y99299D01*
X52268D01*
X52934Y98633D01*
Y97300D01*
X52268Y96634D01*
X50268D01*
X51601D02*
X52934Y95301D01*
X56933D02*
X54267D01*
X56933Y97966D01*
Y98633D01*
X56266Y99299D01*
X54934D01*
X54267Y98633D01*
X58266D02*
X58932Y99299D01*
X60265D01*
X60932Y98633D01*
Y97966D01*
X60265Y97300D01*
X59599D01*
X60265D01*
X60932Y96634D01*
Y95967D01*
X60265Y95301D01*
X58932D01*
X58266Y95967D01*
X50068Y67301D02*
Y71299D01*
X52068D01*
X52734Y70633D01*
Y69300D01*
X52068Y68634D01*
X50068D01*
X51401D02*
X52734Y67301D01*
X56733D02*
X54067D01*
X56733Y69966D01*
Y70633D01*
X56066Y71299D01*
X54734D01*
X54067Y70633D01*
X60732Y67301D02*
X58066D01*
X60732Y69966D01*
Y70633D01*
X60065Y71299D01*
X58732D01*
X58066Y70633D01*
X112735Y178701D02*
Y182699D01*
X114734D01*
X115401Y182033D01*
Y180700D01*
X114734Y180034D01*
X112735D01*
X114068D02*
X115401Y178701D01*
X119399D02*
X116734D01*
X119399Y181367D01*
Y182033D01*
X118733Y182699D01*
X117400D01*
X116734Y182033D01*
X120732Y178701D02*
X122065D01*
X121399D01*
Y182699D01*
X120732Y182033D01*
X128999Y172368D02*
X125001D01*
Y174368D01*
X125667Y175034D01*
X127000D01*
X127666Y174368D01*
Y172368D01*
Y173701D02*
X128999Y175034D01*
Y179033D02*
Y176367D01*
X126333Y179033D01*
X125667D01*
X125001Y178366D01*
Y177033D01*
X125667Y176367D01*
Y180366D02*
X125001Y181032D01*
Y182365D01*
X125667Y183032D01*
X128333D01*
X128999Y182365D01*
Y181032D01*
X128333Y180366D01*
X125667D01*
X80802Y133101D02*
Y137099D01*
X82801D01*
X83467Y136433D01*
Y135100D01*
X82801Y134433D01*
X80802D01*
X82134D02*
X83467Y133101D01*
X84800D02*
X86133D01*
X85467D01*
Y137099D01*
X84800Y136433D01*
X88133Y133767D02*
X88799Y133101D01*
X90132D01*
X90798Y133767D01*
Y136433D01*
X90132Y137099D01*
X88799D01*
X88133Y136433D01*
Y135766D01*
X88799Y135100D01*
X90798D01*
X217802Y81301D02*
Y85299D01*
X219801D01*
X220467Y84633D01*
Y83300D01*
X219801Y82634D01*
X217802D01*
X219134D02*
X220467Y81301D01*
X221800D02*
X223133D01*
X222467D01*
Y85299D01*
X221800Y84633D01*
X225133D02*
X225799Y85299D01*
X227132D01*
X227798Y84633D01*
Y83966D01*
X227132Y83300D01*
X227798Y82634D01*
Y81967D01*
X227132Y81301D01*
X225799D01*
X225133Y81967D01*
Y82634D01*
X225799Y83300D01*
X225133Y83966D01*
Y84633D01*
X225799Y83300D02*
X227132D01*
X90802Y143301D02*
Y147299D01*
X92801D01*
X93467Y146633D01*
Y145300D01*
X92801Y144633D01*
X90802D01*
X92134D02*
X93467Y143301D01*
X94800D02*
X96133D01*
X95467D01*
Y147299D01*
X94800Y146633D01*
X98133Y147299D02*
X100798D01*
Y146633D01*
X98133Y143967D01*
Y143301D01*
X222602Y102901D02*
Y106899D01*
X224601D01*
X225267Y106233D01*
Y104900D01*
X224601Y104234D01*
X222602D01*
X223935D02*
X225267Y102901D01*
X226600D02*
X227933D01*
X227267D01*
Y106899D01*
X226600Y106233D01*
X232598Y106899D02*
X231265Y106233D01*
X229933Y104900D01*
Y103567D01*
X230599Y102901D01*
X231932D01*
X232598Y103567D01*
Y104234D01*
X231932Y104900D01*
X229933D01*
X261702Y123501D02*
Y127499D01*
X263701D01*
X264367Y126833D01*
Y125500D01*
X263701Y124834D01*
X261702D01*
X263035D02*
X264367Y123501D01*
X265700D02*
X267033D01*
X266367D01*
Y127499D01*
X265700Y126833D01*
X271698Y127499D02*
X269033D01*
Y125500D01*
X270366Y126166D01*
X271032D01*
X271698Y125500D01*
Y124167D01*
X271032Y123501D01*
X269699D01*
X269033Y124167D01*
X252102Y114901D02*
Y118899D01*
X254101D01*
X254767Y118233D01*
Y116900D01*
X254101Y116234D01*
X252102D01*
X253434D02*
X254767Y114901D01*
X256100D02*
X257433D01*
X256767D01*
Y118899D01*
X256100Y118233D01*
X262098Y114901D02*
X259433D01*
X262098Y117567D01*
Y118233D01*
X261432Y118899D01*
X260099D01*
X259433Y118233D01*
X70702Y39501D02*
Y43499D01*
X72701D01*
X73367Y42833D01*
Y41500D01*
X72701Y40834D01*
X70702D01*
X72035D02*
X73367Y39501D01*
X74700D02*
X76033D01*
X75367D01*
Y43499D01*
X74700Y42833D01*
X78033D02*
X78699Y43499D01*
X80032D01*
X80698Y42833D01*
Y40167D01*
X80032Y39501D01*
X78699D01*
X78033Y40167D01*
Y42833D01*
X94868Y33301D02*
Y37299D01*
X96867D01*
X97534Y36633D01*
Y35300D01*
X96867Y34634D01*
X94868D01*
X96201D02*
X97534Y33301D01*
X98866Y33967D02*
X99533Y33301D01*
X100866D01*
X101532Y33967D01*
Y36633D01*
X100866Y37299D01*
X99533D01*
X98866Y36633D01*
Y35966D01*
X99533Y35300D01*
X101532D01*
X73568Y48601D02*
Y52599D01*
X75567D01*
X76234Y51933D01*
Y50600D01*
X75567Y49934D01*
X73568D01*
X74901D02*
X76234Y48601D01*
X77566Y51933D02*
X78233Y52599D01*
X79566D01*
X80232Y51933D01*
Y51266D01*
X79566Y50600D01*
X80232Y49934D01*
Y49267D01*
X79566Y48601D01*
X78233D01*
X77566Y49267D01*
Y49934D01*
X78233Y50600D01*
X77566Y51266D01*
Y51933D01*
X78233Y50600D02*
X79566D01*
X86768Y67701D02*
Y71699D01*
X88767D01*
X89434Y71033D01*
Y69700D01*
X88767Y69034D01*
X86768D01*
X88101D02*
X89434Y67701D01*
X90767Y71699D02*
X93432D01*
Y71033D01*
X90767Y68367D01*
Y67701D01*
X38968Y108501D02*
Y112499D01*
X40967D01*
X41634Y111833D01*
Y110500D01*
X40967Y109834D01*
X38968D01*
X40301D02*
X41634Y108501D01*
X45632Y112499D02*
X44299Y111833D01*
X42966Y110500D01*
Y109167D01*
X43633Y108501D01*
X44966D01*
X45632Y109167D01*
Y109834D01*
X44966Y110500D01*
X42966D01*
X50068Y108101D02*
Y112099D01*
X52067D01*
X52734Y111433D01*
Y110100D01*
X52067Y109433D01*
X50068D01*
X51401D02*
X52734Y108101D01*
X56732Y112099D02*
X54066D01*
Y110100D01*
X55399Y110766D01*
X56066D01*
X56732Y110100D01*
Y108767D01*
X56066Y108101D01*
X54733D01*
X54066Y108767D01*
X39399Y136268D02*
X35401D01*
Y138267D01*
X36067Y138934D01*
X37400D01*
X38066Y138267D01*
Y136268D01*
Y137601D02*
X39399Y138934D01*
Y142266D02*
X35401D01*
X37400Y140267D01*
Y142932D01*
X52068Y140501D02*
Y144499D01*
X54067D01*
X54734Y143833D01*
Y142500D01*
X54067Y141833D01*
X52068D01*
X53401D02*
X54734Y140501D01*
X56067Y143833D02*
X56733Y144499D01*
X58066D01*
X58732Y143833D01*
Y143166D01*
X58066Y142500D01*
X57399D01*
X58066D01*
X58732Y141833D01*
Y141167D01*
X58066Y140501D01*
X56733D01*
X56067Y141167D01*
X50868Y165401D02*
Y169399D01*
X52867D01*
X53534Y168733D01*
Y167400D01*
X52867Y166734D01*
X50868D01*
X52201D02*
X53534Y165401D01*
X57532D02*
X54866D01*
X57532Y168067D01*
Y168733D01*
X56866Y169399D01*
X55533D01*
X54866Y168733D01*
X61934Y165901D02*
Y169899D01*
X63934D01*
X64600Y169233D01*
Y167900D01*
X63934Y167234D01*
X61934D01*
X63267D02*
X64600Y165901D01*
X65933D02*
X67266D01*
X66599D01*
Y169899D01*
X65933Y169233D01*
X151833Y188099D02*
X150501D01*
X151167D01*
Y184767D01*
X150501Y184101D01*
X149834D01*
X149168Y184767D01*
X155166Y184101D02*
Y188099D01*
X153166Y186100D01*
X155832D01*
X249323Y103633D02*
X247990D01*
X248657D01*
Y100301D01*
X247990Y99634D01*
X247324D01*
X246657Y100301D01*
X250656Y102967D02*
X251323Y103633D01*
X252656D01*
X253322Y102967D01*
Y102300D01*
X252656Y101634D01*
X251989D01*
X252656D01*
X253322Y100967D01*
Y100301D01*
X252656Y99634D01*
X251323D01*
X250656Y100301D01*
X270934Y101099D02*
X269601D01*
X270267D01*
Y97767D01*
X269601Y97101D01*
X268934D01*
X268268Y97767D01*
X274932Y97101D02*
X272267D01*
X274932Y99766D01*
Y100433D01*
X274266Y101099D01*
X272933D01*
X272267Y100433D01*
X24200Y153799D02*
X22867D01*
X23534D01*
Y150467D01*
X22867Y149801D01*
X22201D01*
X21534Y150467D01*
X25533Y149801D02*
X26866D01*
X26199D01*
Y153799D01*
X25533Y153133D01*
X199268Y166699D02*
Y162701D01*
X201267D01*
X201934Y163367D01*
Y166033D01*
X201267Y166699D01*
X199268D01*
X205932D02*
X204599Y166033D01*
X203267Y164700D01*
Y163367D01*
X203933Y162701D01*
X205266D01*
X205932Y163367D01*
Y164033D01*
X205266Y164700D01*
X203267D01*
X242599Y89632D02*
X238601D01*
Y87633D01*
X239267Y86966D01*
X241933D01*
X242599Y87633D01*
Y89632D01*
Y82968D02*
Y85633D01*
X240600D01*
X241266Y84301D01*
Y83634D01*
X240600Y82968D01*
X239267D01*
X238601Y83634D01*
Y84967D01*
X239267Y85633D01*
X244199Y104432D02*
X240201D01*
Y102433D01*
X240867Y101766D01*
X243533D01*
X244199Y102433D01*
Y104432D01*
X240201Y98434D02*
X244199D01*
X242200Y100434D01*
Y97768D01*
X102134Y76133D02*
X101468Y76799D01*
X100135D01*
X99468Y76133D01*
Y73467D01*
X100135Y72801D01*
X101468D01*
X102134Y73467D01*
X103467Y76133D02*
X104133Y76799D01*
X105466D01*
X106133Y76133D01*
Y75466D01*
X105466Y74800D01*
X104800D01*
X105466D01*
X106133Y74134D01*
Y73467D01*
X105466Y72801D01*
X104133D01*
X103467Y73467D01*
X110132Y76799D02*
X108799Y76133D01*
X107466Y74800D01*
Y73467D01*
X108132Y72801D01*
X109465D01*
X110132Y73467D01*
Y74134D01*
X109465Y74800D01*
X107466D01*
X65934Y98333D02*
X65268Y98999D01*
X63935D01*
X63268Y98333D01*
Y95667D01*
X63935Y95001D01*
X65268D01*
X65934Y95667D01*
X67267Y98333D02*
X67934Y98999D01*
X69266D01*
X69933Y98333D01*
Y97666D01*
X69266Y97000D01*
X68600D01*
X69266D01*
X69933Y96334D01*
Y95667D01*
X69266Y95001D01*
X67934D01*
X67267Y95667D01*
X73932Y98999D02*
X71266D01*
Y97000D01*
X72599Y97666D01*
X73265D01*
X73932Y97000D01*
Y95667D01*
X73265Y95001D01*
X71932D01*
X71266Y95667D01*
X98434Y115133D02*
X97768Y115799D01*
X96435D01*
X95768Y115133D01*
Y112467D01*
X96435Y111801D01*
X97768D01*
X98434Y112467D01*
X99767Y115133D02*
X100434Y115799D01*
X101766D01*
X102433Y115133D01*
Y114467D01*
X101766Y113800D01*
X101100D01*
X101766D01*
X102433Y113134D01*
Y112467D01*
X101766Y111801D01*
X100434D01*
X99767Y112467D01*
X105765Y111801D02*
Y115799D01*
X103766Y113800D01*
X106432D01*
X128134Y161233D02*
X127468Y161899D01*
X126135D01*
X125468Y161233D01*
Y158567D01*
X126135Y157901D01*
X127468D01*
X128134Y158567D01*
X129467Y161233D02*
X130133Y161899D01*
X131466D01*
X132133Y161233D01*
Y160566D01*
X131466Y159900D01*
X130800D01*
X131466D01*
X132133Y159233D01*
Y158567D01*
X131466Y157901D01*
X130133D01*
X129467Y158567D01*
X133466Y161233D02*
X134132Y161899D01*
X135465D01*
X136132Y161233D01*
Y160566D01*
X135465Y159900D01*
X134799D01*
X135465D01*
X136132Y159233D01*
Y158567D01*
X135465Y157901D01*
X134132D01*
X133466Y158567D01*
X151134Y162633D02*
X150468Y163299D01*
X149135D01*
X148468Y162633D01*
Y159967D01*
X149135Y159301D01*
X150468D01*
X151134Y159967D01*
X152467Y162633D02*
X153133Y163299D01*
X154466D01*
X155133Y162633D01*
Y161967D01*
X154466Y161300D01*
X153800D01*
X154466D01*
X155133Y160634D01*
Y159967D01*
X154466Y159301D01*
X153133D01*
X152467Y159967D01*
X159132Y159301D02*
X156466D01*
X159132Y161967D01*
Y162633D01*
X158465Y163299D01*
X157132D01*
X156466Y162633D01*
X174001Y163033D02*
X173334Y163699D01*
X172001D01*
X171335Y163033D01*
Y160367D01*
X172001Y159701D01*
X173334D01*
X174001Y160367D01*
X175333Y163033D02*
X176000Y163699D01*
X177333D01*
X177999Y163033D01*
Y162366D01*
X177333Y161700D01*
X176666D01*
X177333D01*
X177999Y161033D01*
Y160367D01*
X177333Y159701D01*
X176000D01*
X175333Y160367D01*
X179332Y159701D02*
X180665D01*
X179999D01*
Y163699D01*
X179332Y163033D01*
X216234Y127333D02*
X215568Y127999D01*
X214235D01*
X213568Y127333D01*
Y124667D01*
X214235Y124001D01*
X215568D01*
X216234Y124667D01*
X220233Y124001D02*
X217567D01*
X220233Y126666D01*
Y127333D01*
X219566Y127999D01*
X218234D01*
X217567Y127333D01*
X221566Y124667D02*
X222232Y124001D01*
X223565D01*
X224232Y124667D01*
Y127333D01*
X223565Y127999D01*
X222232D01*
X221566Y127333D01*
Y126666D01*
X222232Y126000D01*
X224232D01*
X220634Y115133D02*
X219968Y115799D01*
X218635D01*
X217968Y115133D01*
Y112467D01*
X218635Y111801D01*
X219968D01*
X220634Y112467D01*
X224633Y111801D02*
X221967D01*
X224633Y114467D01*
Y115133D01*
X223966Y115799D01*
X222634D01*
X221967Y115133D01*
X225966D02*
X226632Y115799D01*
X227965D01*
X228632Y115133D01*
Y114467D01*
X227965Y113800D01*
X228632Y113134D01*
Y112467D01*
X227965Y111801D01*
X226632D01*
X225966Y112467D01*
Y113134D01*
X226632Y113800D01*
X225966Y114467D01*
Y115133D01*
X226632Y113800D02*
X227965D01*
X214834Y72433D02*
X214168Y73099D01*
X212835D01*
X212168Y72433D01*
Y69767D01*
X212835Y69101D01*
X214168D01*
X214834Y69767D01*
X218833Y69101D02*
X216167D01*
X218833Y71766D01*
Y72433D01*
X218166Y73099D01*
X216834D01*
X216167Y72433D01*
X220166Y73099D02*
X222832D01*
Y72433D01*
X220166Y69767D01*
Y69101D01*
X220534Y52733D02*
X219868Y53399D01*
X218535D01*
X217868Y52733D01*
Y50067D01*
X218535Y49401D01*
X219868D01*
X220534Y50067D01*
X224533Y49401D02*
X221867D01*
X224533Y52066D01*
Y52733D01*
X223866Y53399D01*
X222534D01*
X221867Y52733D01*
X228532Y53399D02*
X227199Y52733D01*
X225866Y51400D01*
Y50067D01*
X226532Y49401D01*
X227865D01*
X228532Y50067D01*
Y50734D01*
X227865Y51400D01*
X225866D01*
X181034Y40433D02*
X180368Y41099D01*
X179035D01*
X178368Y40433D01*
Y37767D01*
X179035Y37101D01*
X180368D01*
X181034Y37767D01*
X185033Y37101D02*
X182367D01*
X185033Y39766D01*
Y40433D01*
X184367Y41099D01*
X183034D01*
X182367Y40433D01*
X189032Y41099D02*
X186366D01*
Y39100D01*
X187699Y39766D01*
X188365D01*
X189032Y39100D01*
Y37767D01*
X188365Y37101D01*
X187032D01*
X186366Y37767D01*
X148367Y27834D02*
X147701Y27168D01*
Y25835D01*
X148367Y25168D01*
X151033D01*
X151699Y25835D01*
Y27168D01*
X151033Y27834D01*
X151699Y31833D02*
Y29167D01*
X149033Y31833D01*
X148367D01*
X147701Y31166D01*
Y29834D01*
X148367Y29167D01*
X151699Y35165D02*
X147701D01*
X149700Y33166D01*
Y35832D01*
X125934Y34633D02*
X125268Y35299D01*
X123935D01*
X123268Y34633D01*
Y31967D01*
X123935Y31301D01*
X125268D01*
X125934Y31967D01*
X129933Y31301D02*
X127267D01*
X129933Y33966D01*
Y34633D01*
X129267Y35299D01*
X127934D01*
X127267Y34633D01*
X131266D02*
X131932Y35299D01*
X133265D01*
X133932Y34633D01*
Y33966D01*
X133265Y33300D01*
X132599D01*
X133265D01*
X133932Y32634D01*
Y31967D01*
X133265Y31301D01*
X131932D01*
X131266Y31967D01*
X98434Y95133D02*
X97768Y95799D01*
X96435D01*
X95768Y95133D01*
Y92467D01*
X96435Y91801D01*
X97768D01*
X98434Y92467D01*
X102433Y91801D02*
X99767D01*
X102433Y94466D01*
Y95133D01*
X101766Y95799D01*
X100434D01*
X99767Y95133D01*
X106432Y91801D02*
X103766D01*
X106432Y94466D01*
Y95133D01*
X105765Y95799D01*
X104432D01*
X103766Y95133D01*
X100201Y129633D02*
X99534Y130299D01*
X98201D01*
X97535Y129633D01*
Y126967D01*
X98201Y126301D01*
X99534D01*
X100201Y126967D01*
X104199Y126301D02*
X101534D01*
X104199Y128966D01*
Y129633D01*
X103533Y130299D01*
X102200D01*
X101534Y129633D01*
X105532Y126301D02*
X106865D01*
X106199D01*
Y130299D01*
X105532Y129633D01*
X215733Y28833D02*
X216399Y29499D01*
Y30832D01*
X215733Y31498D01*
X213067D01*
X212401Y30832D01*
Y29499D01*
X213067Y28833D01*
X212401Y27500D02*
Y26167D01*
Y26833D01*
X216399D01*
X215733Y27500D01*
X213067Y24167D02*
X212401Y23501D01*
Y22168D01*
X213067Y21502D01*
X215733D01*
X216399Y22168D01*
Y23501D01*
X215733Y24167D01*
X215066D01*
X214400Y23501D01*
Y21502D01*
X139767Y5933D02*
X139101Y6599D01*
X137768D01*
X137102Y5933D01*
Y3267D01*
X137768Y2601D01*
X139101D01*
X139767Y3267D01*
X141100Y2601D02*
X142433D01*
X141767D01*
Y6599D01*
X141100Y5933D01*
X144433D02*
X145099Y6599D01*
X146432D01*
X147098Y5933D01*
Y5266D01*
X146432Y4600D01*
X147098Y3934D01*
Y3267D01*
X146432Y2601D01*
X145099D01*
X144433Y3267D01*
Y3934D01*
X145099Y4600D01*
X144433Y5266D01*
Y5933D01*
X145099Y4600D02*
X146432D01*
X105567Y24733D02*
X104901Y25399D01*
X103568D01*
X102902Y24733D01*
Y22067D01*
X103568Y21401D01*
X104901D01*
X105567Y22067D01*
X106900Y21401D02*
X108233D01*
X107567D01*
Y25399D01*
X106900Y24733D01*
X110233Y25399D02*
X112898D01*
Y24733D01*
X110233Y22067D01*
Y21401D01*
X44567Y40533D02*
X43901Y41199D01*
X42568D01*
X41902Y40533D01*
Y37867D01*
X42568Y37201D01*
X43901D01*
X44567Y37867D01*
X45900Y37201D02*
X47233D01*
X46567D01*
Y41199D01*
X45900Y40533D01*
X51898Y41199D02*
X50565Y40533D01*
X49233Y39200D01*
Y37867D01*
X49899Y37201D01*
X51232D01*
X51898Y37867D01*
Y38534D01*
X51232Y39200D01*
X49233D01*
X65467Y67833D02*
X64801Y68499D01*
X63468D01*
X62802Y67833D01*
Y65167D01*
X63468Y64501D01*
X64801D01*
X65467Y65167D01*
X66800Y64501D02*
X68133D01*
X67467D01*
Y68499D01*
X66800Y67833D01*
X72798Y68499D02*
X70133D01*
Y66500D01*
X71465Y67166D01*
X72132D01*
X72798Y66500D01*
Y65167D01*
X72132Y64501D01*
X70799D01*
X70133Y65167D01*
X140467Y179733D02*
X139801Y180399D01*
X138468D01*
X137802Y179733D01*
Y177067D01*
X138468Y176401D01*
X139801D01*
X140467Y177067D01*
X141800Y176401D02*
X143133D01*
X142467D01*
Y180399D01*
X141800Y179733D01*
X147132Y176401D02*
Y180399D01*
X145133Y178400D01*
X147798D01*
X103767Y161033D02*
X103101Y161699D01*
X101768D01*
X101102Y161033D01*
Y158367D01*
X101768Y157701D01*
X103101D01*
X103767Y158367D01*
X105100Y157701D02*
X106433D01*
X105767D01*
Y161699D01*
X105100Y161033D01*
X108433D02*
X109099Y161699D01*
X110432D01*
X111098Y161033D01*
Y160366D01*
X110432Y159700D01*
X109766D01*
X110432D01*
X111098Y159034D01*
Y158367D01*
X110432Y157701D01*
X109099D01*
X108433Y158367D01*
X232334Y128833D02*
X231667Y129499D01*
X230334D01*
X229668Y128833D01*
Y126167D01*
X230334Y125501D01*
X231667D01*
X232334Y126167D01*
X233667Y125501D02*
X235000D01*
X234333D01*
Y129499D01*
X233667Y128833D01*
X236999Y125501D02*
X238332D01*
X237666D01*
Y129499D01*
X236999Y128833D01*
X108534Y37333D02*
X107867Y37999D01*
X106534D01*
X105868Y37333D01*
Y34667D01*
X106534Y34001D01*
X107867D01*
X108534Y34667D01*
X109866D02*
X110533Y34001D01*
X111866D01*
X112532Y34667D01*
Y37333D01*
X111866Y37999D01*
X110533D01*
X109866Y37333D01*
Y36666D01*
X110533Y36000D01*
X112532D01*
X108633Y61833D02*
X107967Y62499D01*
X106634D01*
X105968Y61833D01*
Y59167D01*
X106634Y58501D01*
X107967D01*
X108633Y59167D01*
X109967Y62499D02*
X112632D01*
Y61833D01*
X109967Y59167D01*
Y58501D01*
X63534Y112933D02*
X62867Y113599D01*
X61534D01*
X60868Y112933D01*
Y110267D01*
X61534Y109601D01*
X62867D01*
X63534Y110267D01*
X67532Y113599D02*
X64867D01*
Y111600D01*
X66199Y112267D01*
X66866D01*
X67532Y111600D01*
Y110267D01*
X66866Y109601D01*
X65533D01*
X64867Y110267D01*
X71234Y145433D02*
X70567Y146099D01*
X69234D01*
X68568Y145433D01*
Y142767D01*
X69234Y142101D01*
X70567D01*
X71234Y142767D01*
X74566Y142101D02*
Y146099D01*
X72566Y144100D01*
X75232D01*
X76100Y167933D02*
X75434Y168599D01*
X74101D01*
X73434Y167933D01*
Y165267D01*
X74101Y164601D01*
X75434D01*
X76100Y165267D01*
X77433Y164601D02*
X78766D01*
X78099D01*
Y168599D01*
X77433Y167933D01*
D14*
X113409Y135934D02*
X116741Y132602D01*
X113409D02*
X116741Y135934D01*
X113409Y134268D02*
X116741D01*
X115075Y132602D02*
Y135934D01*
M02*
