G04*
G04 #@! TF.GenerationSoftware,Altium Limited,Altium Designer,21.8.1 (53)*
G04*
G04 Layer_Physical_Order=2*
G04 Layer_Color=32768*
%FSLAX25Y25*%
%MOIN*%
G70*
G04*
G04 #@! TF.SameCoordinates,C3BC6F45-041D-44BD-81EA-7FCEF9ED4BC6*
G04*
G04*
G04 #@! TF.FilePolarity,Negative*
G04*
G01*
G75*
%ADD51C,0.04000*%
%ADD52C,0.06165*%
G04:AMPARAMS|DCode=53|XSize=100.157mil|YSize=100.157mil|CornerRadius=0mil|HoleSize=0mil|Usage=FLASHONLY|Rotation=0.000|XOffset=0mil|YOffset=0mil|HoleType=Round|Shape=Relief|Width=10mil|Gap=10mil|Entries=4|*
%AMTHD53*
7,0,0,0.10016,0.08016,0.01000,45*
%
%ADD53THD53*%
%ADD54C,0.08016*%
G04:AMPARAMS|DCode=55|XSize=69.843mil|YSize=69.843mil|CornerRadius=0mil|HoleSize=0mil|Usage=FLASHONLY|Rotation=0.000|XOffset=0mil|YOffset=0mil|HoleType=Round|Shape=Relief|Width=10mil|Gap=10mil|Entries=4|*
%AMTHD55*
7,0,0,0.06984,0.04984,0.01000,45*
%
%ADD55THD55*%
G04:AMPARAMS|DCode=56|XSize=71mil|YSize=71mil|CornerRadius=0mil|HoleSize=0mil|Usage=FLASHONLY|Rotation=0.000|XOffset=0mil|YOffset=0mil|HoleType=Round|Shape=Relief|Width=10mil|Gap=10mil|Entries=4|*
%AMTHD56*
7,0,0,0.07100,0.05100,0.01000,45*
%
%ADD56THD56*%
%ADD57C,0.05100*%
%ADD58C,0.04984*%
D51*
X0Y0D02*
Y192913D01*
X295276D01*
Y0D02*
Y192913D01*
X0Y0D02*
X295276D01*
D52*
X281435Y155974D02*
D03*
Y140226D02*
D03*
D53*
X195724Y180013D02*
D03*
X249400Y61300D02*
D03*
D54*
Y91300D02*
D03*
Y81300D02*
D03*
Y71300D02*
D03*
Y51300D02*
D03*
Y41300D02*
D03*
X215724Y180013D02*
D03*
X205724D02*
D03*
X185724D02*
D03*
X175724D02*
D03*
X165724D02*
D03*
D55*
X284626Y173071D02*
D03*
X277126Y158071D02*
D03*
Y128071D02*
D03*
X284626Y113071D02*
D03*
X277126Y98071D02*
D03*
X284626Y53071D02*
D03*
Y23071D02*
D03*
X277126Y8071D02*
D03*
X269626Y173071D02*
D03*
X262126Y158071D02*
D03*
X269626Y143071D02*
D03*
X262126Y128071D02*
D03*
X269626Y113071D02*
D03*
X262126Y98071D02*
D03*
X269626Y83071D02*
D03*
X262126Y38071D02*
D03*
X269626Y23071D02*
D03*
X262126Y8071D02*
D03*
X254626Y173071D02*
D03*
X247126Y158071D02*
D03*
X254626Y143071D02*
D03*
X247126Y128071D02*
D03*
X254626Y113071D02*
D03*
X247126Y98071D02*
D03*
X254626Y23071D02*
D03*
X247126Y8071D02*
D03*
X239626Y173071D02*
D03*
X232126Y158071D02*
D03*
X239626Y113071D02*
D03*
Y83071D02*
D03*
X232126Y68071D02*
D03*
Y38071D02*
D03*
X239626Y23071D02*
D03*
X232126Y8071D02*
D03*
X224626Y113071D02*
D03*
Y83071D02*
D03*
Y23071D02*
D03*
X217126Y8071D02*
D03*
X209626Y143071D02*
D03*
Y113071D02*
D03*
X202126Y8071D02*
D03*
X187126Y128071D02*
D03*
X194626Y113071D02*
D03*
X187126Y98071D02*
D03*
X194626Y83071D02*
D03*
X187126Y68071D02*
D03*
Y8071D02*
D03*
X172126Y128071D02*
D03*
X179626Y113071D02*
D03*
X172126Y98071D02*
D03*
X179626Y83071D02*
D03*
X172126Y68071D02*
D03*
Y8071D02*
D03*
X157126Y128071D02*
D03*
X164626Y113071D02*
D03*
X157126Y98071D02*
D03*
X164626Y83071D02*
D03*
X157126Y68071D02*
D03*
Y8071D02*
D03*
X142126Y128071D02*
D03*
X149626Y113071D02*
D03*
X142126Y98071D02*
D03*
X149626Y83071D02*
D03*
X142126Y68071D02*
D03*
X127126Y158071D02*
D03*
Y128071D02*
D03*
X134626Y113071D02*
D03*
X127126Y98071D02*
D03*
X134626Y83071D02*
D03*
X127126Y68071D02*
D03*
Y8071D02*
D03*
X112126Y158071D02*
D03*
X119626Y143071D02*
D03*
Y53071D02*
D03*
X112126Y8071D02*
D03*
X97126Y158071D02*
D03*
Y128071D02*
D03*
X104626Y113071D02*
D03*
X97126Y98071D02*
D03*
Y38071D02*
D03*
X104626Y23071D02*
D03*
X97126Y8071D02*
D03*
X89626Y53071D02*
D03*
X82126Y38071D02*
D03*
Y8071D02*
D03*
X74626Y173071D02*
D03*
Y143071D02*
D03*
X67126Y38071D02*
D03*
Y8071D02*
D03*
X59626Y173071D02*
D03*
Y143071D02*
D03*
X52126Y128071D02*
D03*
X59626Y113071D02*
D03*
Y53071D02*
D03*
Y23071D02*
D03*
X52126Y8071D02*
D03*
X44626Y173071D02*
D03*
X37126Y158071D02*
D03*
X44626Y113071D02*
D03*
X37126Y8071D02*
D03*
X29626Y173071D02*
D03*
X22126Y158071D02*
D03*
X29626Y143071D02*
D03*
Y53071D02*
D03*
X22126Y38071D02*
D03*
X29626Y23071D02*
D03*
X22126Y8071D02*
D03*
X14626Y173071D02*
D03*
X7126Y158071D02*
D03*
Y128071D02*
D03*
X14626Y113071D02*
D03*
X7126Y98071D02*
D03*
X14626Y83071D02*
D03*
X7126Y68071D02*
D03*
Y38071D02*
D03*
X14626Y23071D02*
D03*
X7126Y8071D02*
D03*
D56*
X109400Y72200D02*
D03*
X56900Y90600D02*
D03*
X200906Y32994D02*
D03*
X236600Y72300D02*
D03*
X242700Y125300D02*
D03*
X221400Y139700D02*
D03*
X227600Y108700D02*
D03*
X227000Y74500D02*
D03*
X213440Y47139D02*
D03*
X121700Y154300D02*
D03*
X168197Y39941D02*
D03*
X120921Y39658D02*
D03*
X15606Y43202D02*
D03*
X148895Y156737D02*
D03*
X45133Y69776D02*
D03*
X34306Y60918D02*
D03*
X285896Y100936D02*
D03*
X256956Y133177D02*
D03*
X285896Y33023D02*
D03*
X112195Y173953D02*
D03*
X64818Y146548D02*
D03*
X44149Y148516D02*
D03*
X15192Y151047D02*
D03*
X69739Y22532D02*
D03*
X193700Y32500D02*
D03*
X240875Y108932D02*
D03*
X194000Y166500D02*
D03*
X109300Y53500D02*
D03*
X209500Y166700D02*
D03*
X259600Y66400D02*
D03*
X109300Y8400D02*
D03*
X91200Y21100D02*
D03*
X69400Y53100D02*
D03*
X143500Y38100D02*
D03*
X181600Y155500D02*
D03*
X133700Y174800D02*
D03*
X106000Y141100D02*
D03*
X151300Y11900D02*
D03*
X100600Y51000D02*
D03*
X92900Y49600D02*
D03*
X63000Y37200D02*
D03*
X86900Y55200D02*
D03*
X98200Y101700D02*
D03*
X103000Y108000D02*
D03*
X98600Y122000D02*
D03*
X77400Y97300D02*
D03*
X48700Y127800D02*
D03*
X74600Y148700D02*
D03*
X54900Y148000D02*
D03*
X76400Y124600D02*
D03*
X55800Y124900D02*
D03*
D57*
X109300Y79600D02*
D03*
X156000Y30700D02*
D03*
X161900Y29300D02*
D03*
X215300Y85500D02*
D03*
X268700Y138100D02*
D03*
X248800Y132200D02*
D03*
X235700Y63600D02*
D03*
X220300Y57800D02*
D03*
X73100Y118400D02*
D03*
X69800Y102800D02*
D03*
X84500Y99400D02*
D03*
X109900Y85200D02*
D03*
Y92800D02*
D03*
X39000Y98400D02*
D03*
X163300Y157800D02*
D03*
X167800Y149900D02*
D03*
X137300Y44300D02*
D03*
X143600Y45700D02*
D03*
X158100Y44400D02*
D03*
X161900Y38800D02*
D03*
X134400Y25400D02*
D03*
X181100Y44900D02*
D03*
X141000Y156800D02*
D03*
X159100Y166300D02*
D03*
X214300Y113400D02*
D03*
X109400Y129400D02*
D03*
X138637Y16127D02*
D03*
X221400Y147900D02*
D03*
X37259Y68792D02*
D03*
X52023Y104225D02*
D03*
X64818Y128832D02*
D03*
X71800Y76758D02*
D03*
X47400Y97400D02*
D03*
X90409Y167217D02*
D03*
X146511Y171154D02*
D03*
X153401D02*
D03*
X133830Y40135D02*
D03*
X36275Y54028D02*
D03*
X116000Y45800D02*
D03*
D58*
X146100Y150800D02*
D03*
X136300Y148800D02*
D03*
M02*
