G04*
G04 #@! TF.GenerationSoftware,Altium Limited,Altium Designer,21.8.1 (53)*
G04*
G04 Layer_Color=32896*
%FSLAX25Y25*%
%MOIN*%
G70*
G04*
G04 #@! TF.SameCoordinates,C3BC6F45-041D-44BD-81EA-7FCEF9ED4BC6*
G04*
G04*
G04 #@! TF.FilePolarity,Positive*
G04*
G01*
G75*
G36*
X140347Y98728D02*
X140366D01*
Y98690D01*
X140386D01*
Y98651D01*
X140405D01*
Y98613D01*
X140424D01*
Y98574D01*
X140443D01*
Y98536D01*
X140463D01*
Y98497D01*
X140482D01*
Y98459D01*
X140501D01*
Y98421D01*
X140520D01*
Y98382D01*
X140539D01*
Y98344D01*
X140559D01*
Y98325D01*
X140578D01*
Y98286D01*
X140597D01*
Y98248D01*
X140616D01*
Y98209D01*
X140636D01*
Y98171D01*
X140655D01*
Y98132D01*
X140674D01*
Y98094D01*
X140693D01*
Y98055D01*
X140712D01*
Y98017D01*
X140732D01*
Y97979D01*
X140751D01*
Y97940D01*
X140770D01*
Y97902D01*
X140789D01*
Y97883D01*
X140808D01*
Y97844D01*
X140828D01*
Y97806D01*
X140847D01*
Y97767D01*
X140866D01*
Y97729D01*
X140885D01*
Y97690D01*
X140904D01*
Y97652D01*
X140924D01*
Y97614D01*
X140943D01*
Y97575D01*
X140962D01*
Y97537D01*
X140981D01*
Y97498D01*
X141001D01*
Y97460D01*
X141020D01*
Y97421D01*
X141039D01*
Y97402D01*
X141058D01*
Y97364D01*
X141077D01*
Y97325D01*
X141097D01*
Y97287D01*
X141116D01*
Y97248D01*
X141135D01*
Y97210D01*
X141154D01*
Y97172D01*
X141174D01*
Y97133D01*
X141193D01*
Y97095D01*
X141212D01*
Y97056D01*
X141231D01*
Y97018D01*
X141250D01*
Y96979D01*
X141270D01*
Y96941D01*
X141289D01*
Y96922D01*
X141308D01*
Y96883D01*
X141327D01*
Y96845D01*
X141347D01*
Y96806D01*
X141366D01*
Y96768D01*
X141385D01*
Y96730D01*
X141404D01*
Y96691D01*
X141423D01*
Y96653D01*
X141443D01*
Y96614D01*
X141462D01*
Y96576D01*
X141481D01*
Y96537D01*
X141500D01*
Y96499D01*
X141519D01*
Y96460D01*
X141539D01*
Y96422D01*
X141558D01*
Y96403D01*
X141577D01*
Y96364D01*
X141596D01*
Y96326D01*
X141615D01*
Y96288D01*
X141635D01*
Y96249D01*
X141654D01*
Y96211D01*
X141673D01*
Y96172D01*
X141692D01*
Y96134D01*
X141712D01*
Y96095D01*
X141731D01*
Y96057D01*
X141750D01*
Y96019D01*
X141769D01*
Y95980D01*
X141788D01*
Y95942D01*
X141808D01*
Y95922D01*
X141827D01*
Y95884D01*
X141846D01*
Y95846D01*
X141865D01*
Y95807D01*
X141885D01*
Y95769D01*
X141904D01*
Y95730D01*
X141923D01*
Y95692D01*
X141942D01*
Y95653D01*
X141961D01*
Y95615D01*
X141981D01*
Y95577D01*
X142000D01*
Y95538D01*
X142019D01*
Y95500D01*
X142038D01*
Y95461D01*
X142058D01*
Y95442D01*
X142077D01*
Y95404D01*
X142096D01*
Y95365D01*
X142115D01*
Y95327D01*
X142134D01*
Y95288D01*
X142154D01*
Y95250D01*
X142173D01*
Y95211D01*
X142192D01*
Y95173D01*
X142211D01*
Y95135D01*
X142230D01*
Y95096D01*
X142250D01*
Y95058D01*
X142269D01*
Y95019D01*
X142288D01*
Y95000D01*
X142307D01*
Y94962D01*
X142326D01*
Y94923D01*
X142346D01*
Y94885D01*
X142365D01*
Y94846D01*
X142384D01*
Y94808D01*
X142403D01*
Y94770D01*
X142423D01*
Y94731D01*
X142442D01*
Y94693D01*
X142461D01*
Y94654D01*
X142480D01*
Y94616D01*
X142499D01*
Y94577D01*
X142519D01*
Y94539D01*
X142538D01*
Y94520D01*
X142557D01*
Y94481D01*
X142576D01*
Y94443D01*
X142596D01*
Y94404D01*
X142615D01*
Y94366D01*
X142634D01*
Y94327D01*
X142653D01*
Y94289D01*
X142672D01*
Y94251D01*
X142692D01*
Y94212D01*
X142711D01*
Y94174D01*
X142730D01*
Y94135D01*
X142749D01*
Y94097D01*
X142769D01*
Y94059D01*
X142788D01*
Y94039D01*
X142807D01*
Y94001D01*
X142826D01*
Y93962D01*
X142845D01*
Y93924D01*
X142865D01*
Y93885D01*
X142884D01*
Y93847D01*
X142903D01*
Y93809D01*
X142922D01*
Y93770D01*
X142941D01*
Y93732D01*
X142961D01*
Y93693D01*
X142980D01*
Y93655D01*
X142999D01*
Y93616D01*
X143018D01*
Y93578D01*
X143038D01*
Y93559D01*
X143057D01*
Y93520D01*
X143076D01*
Y93482D01*
X143095D01*
Y93444D01*
X143114D01*
Y93405D01*
X143134D01*
Y93367D01*
X143153D01*
Y93328D01*
X143172D01*
Y93290D01*
X143191D01*
Y93251D01*
X143210D01*
Y93213D01*
X143230D01*
Y93194D01*
X143210D01*
Y93174D01*
X143191D01*
Y93136D01*
X143172D01*
Y93098D01*
X143153D01*
Y93078D01*
X143134D01*
Y93040D01*
X143114D01*
Y93002D01*
X143095D01*
Y92982D01*
X143076D01*
Y92944D01*
X143057D01*
Y92905D01*
X143038D01*
Y92886D01*
X143018D01*
Y92848D01*
X142999D01*
Y92829D01*
X142980D01*
Y92790D01*
X142961D01*
Y92752D01*
X142941D01*
Y92733D01*
X142922D01*
Y92694D01*
X142903D01*
Y92656D01*
X142884D01*
Y92636D01*
X142865D01*
Y92598D01*
X142845D01*
Y92560D01*
X142826D01*
Y92540D01*
X142807D01*
Y92502D01*
X142788D01*
Y92463D01*
X142769D01*
Y92444D01*
X142749D01*
Y92406D01*
X142730D01*
Y92367D01*
X142711D01*
Y92348D01*
X142692D01*
Y92310D01*
X142672D01*
Y92271D01*
X142653D01*
Y92252D01*
X142634D01*
Y92214D01*
X142615D01*
Y92175D01*
X142596D01*
Y92156D01*
X142576D01*
Y92118D01*
X142557D01*
Y92098D01*
X142538D01*
Y92060D01*
X142519D01*
Y92022D01*
X142499D01*
Y92002D01*
X142480D01*
Y91964D01*
X142461D01*
Y91925D01*
X142442D01*
Y91906D01*
X142423D01*
Y91868D01*
X142403D01*
Y91829D01*
X142384D01*
Y91810D01*
X142365D01*
Y91772D01*
X142346D01*
Y91733D01*
X142326D01*
Y91714D01*
X142307D01*
Y91676D01*
X142288D01*
Y91637D01*
X142269D01*
Y91618D01*
X142250D01*
Y91580D01*
X142230D01*
Y91541D01*
X142211D01*
Y91522D01*
X142192D01*
Y91483D01*
X142173D01*
Y91464D01*
X142154D01*
Y91426D01*
X142134D01*
Y91387D01*
X142115D01*
Y91368D01*
X142096D01*
Y91330D01*
X142077D01*
Y91291D01*
X142058D01*
Y91272D01*
X142038D01*
Y91234D01*
X142019D01*
Y91195D01*
X142000D01*
Y91176D01*
X141981D01*
Y91137D01*
X141961D01*
Y91099D01*
X141942D01*
Y91080D01*
X141923D01*
Y91041D01*
X141904D01*
Y91003D01*
X141885D01*
Y90984D01*
X141865D01*
Y90945D01*
X141846D01*
Y90926D01*
X141827D01*
Y90888D01*
X141808D01*
Y90849D01*
X141788D01*
Y90830D01*
X141769D01*
Y90792D01*
X141750D01*
Y90753D01*
X141731D01*
Y90734D01*
X141712D01*
Y90696D01*
X141692D01*
Y90657D01*
X141673D01*
Y90638D01*
X141654D01*
Y90600D01*
X141635D01*
Y90561D01*
X141615D01*
Y90542D01*
X141596D01*
Y90503D01*
X141577D01*
Y90465D01*
X141558D01*
Y90446D01*
X141539D01*
Y90407D01*
X141519D01*
Y90388D01*
X141500D01*
Y90350D01*
X141481D01*
Y90311D01*
X141462D01*
Y90292D01*
X141443D01*
Y90254D01*
X141423D01*
Y90215D01*
X141404D01*
Y90196D01*
X141385D01*
Y90158D01*
X141366D01*
Y90119D01*
X141347D01*
Y90100D01*
X141327D01*
Y90061D01*
X141308D01*
Y90023D01*
X141289D01*
Y90004D01*
X141270D01*
Y89965D01*
X141250D01*
Y89927D01*
X141231D01*
Y89908D01*
X141212D01*
Y89869D01*
X141193D01*
Y89831D01*
X141174D01*
Y89812D01*
X141154D01*
Y89773D01*
X141135D01*
Y89754D01*
X141116D01*
Y89715D01*
X141097D01*
Y89677D01*
X141077D01*
Y89658D01*
X141058D01*
Y89619D01*
X141039D01*
Y89581D01*
X141020D01*
Y89562D01*
X141001D01*
Y89523D01*
X140981D01*
Y89485D01*
X140962D01*
Y89466D01*
X140943D01*
Y89427D01*
X140924D01*
Y89389D01*
X140904D01*
Y89370D01*
X140885D01*
Y89331D01*
X140866D01*
Y89293D01*
X140847D01*
Y89274D01*
X140828D01*
Y89235D01*
X140808D01*
Y89197D01*
X140789D01*
Y89177D01*
X140770D01*
Y89139D01*
X140751D01*
Y89120D01*
X140732D01*
Y89081D01*
X140712D01*
Y89043D01*
X140693D01*
Y89024D01*
X140674D01*
Y88985D01*
X140655D01*
Y88947D01*
X140636D01*
Y88928D01*
X140616D01*
Y88889D01*
X140597D01*
Y88851D01*
X140578D01*
Y88832D01*
X140559D01*
Y88793D01*
X140539D01*
Y88755D01*
X140520D01*
Y88735D01*
X140501D01*
Y88697D01*
X140482D01*
Y88659D01*
X140463D01*
Y88639D01*
X140443D01*
Y88601D01*
X140424D01*
Y88582D01*
X140405D01*
Y88543D01*
X140386D01*
Y88505D01*
X140366D01*
Y88486D01*
X140347D01*
Y88447D01*
X140328D01*
Y88409D01*
X140309D01*
Y88389D01*
X140290D01*
Y88351D01*
X140270D01*
Y88313D01*
X140251D01*
Y88293D01*
X140232D01*
Y88255D01*
X140213D01*
Y88217D01*
X140193D01*
Y88197D01*
X140174D01*
Y88159D01*
X140155D01*
Y88121D01*
X140136D01*
Y88101D01*
X140117D01*
Y88063D01*
X140097D01*
Y88044D01*
X140078D01*
Y88005D01*
X140059D01*
Y87967D01*
X140040D01*
Y87948D01*
X133814D01*
Y87986D01*
X133833D01*
Y88024D01*
X133852D01*
Y88044D01*
X133871D01*
Y88082D01*
X133890D01*
Y88121D01*
X133910D01*
Y88140D01*
X133929D01*
Y88178D01*
X133948D01*
Y88217D01*
X133967D01*
Y88236D01*
X133986D01*
Y88274D01*
X134006D01*
Y88313D01*
X134025D01*
Y88332D01*
X134044D01*
Y88370D01*
X134063D01*
Y88389D01*
X134083D01*
Y88428D01*
X134102D01*
Y88466D01*
X134121D01*
Y88486D01*
X134140D01*
Y88524D01*
X134160D01*
Y88563D01*
X134179D01*
Y88582D01*
X134198D01*
Y88620D01*
X134217D01*
Y88659D01*
X134236D01*
Y88678D01*
X134256D01*
Y88716D01*
X134275D01*
Y88755D01*
X134294D01*
Y88774D01*
X134313D01*
Y88812D01*
X134332D01*
Y88851D01*
X134352D01*
Y88870D01*
X134371D01*
Y88908D01*
X134390D01*
Y88947D01*
X134409D01*
Y88966D01*
X134429D01*
Y89004D01*
X134448D01*
Y89043D01*
X134467D01*
Y89062D01*
X134486D01*
Y89100D01*
X134505D01*
Y89120D01*
X134525D01*
Y89158D01*
X134544D01*
Y89197D01*
X134563D01*
Y89216D01*
X134582D01*
Y89254D01*
X134601D01*
Y89293D01*
X134621D01*
Y89312D01*
X134640D01*
Y89350D01*
X134659D01*
Y89389D01*
X134678D01*
Y89408D01*
X134697D01*
Y89447D01*
X134717D01*
Y89485D01*
X134736D01*
Y89504D01*
X134755D01*
Y89543D01*
X134774D01*
Y89581D01*
X134794D01*
Y89600D01*
X134813D01*
Y89639D01*
X134832D01*
Y89677D01*
X134851D01*
Y89696D01*
X134871D01*
Y89735D01*
X134890D01*
Y89754D01*
X134909D01*
Y89792D01*
X134928D01*
Y89831D01*
X134947D01*
Y89850D01*
X134967D01*
Y89888D01*
X134986D01*
Y89927D01*
X135005D01*
Y89946D01*
X135024D01*
Y89985D01*
X135043D01*
Y90023D01*
X135063D01*
Y90042D01*
X135082D01*
Y90081D01*
X135101D01*
Y90119D01*
X135120D01*
Y90138D01*
X135140D01*
Y90177D01*
X135159D01*
Y90215D01*
X135178D01*
Y90234D01*
X135197D01*
Y90273D01*
X135216D01*
Y90311D01*
X135236D01*
Y90330D01*
X135255D01*
Y90369D01*
X135274D01*
Y90407D01*
X135293D01*
Y90426D01*
X135312D01*
Y90465D01*
X135332D01*
Y90484D01*
X135351D01*
Y90523D01*
X135370D01*
Y90561D01*
X135389D01*
Y90580D01*
X135408D01*
Y90619D01*
X135428D01*
Y90657D01*
X135447D01*
Y90676D01*
X135466D01*
Y90715D01*
X135485D01*
Y90753D01*
X135505D01*
Y90772D01*
X135524D01*
Y90811D01*
X135543D01*
Y90849D01*
X135562D01*
Y90869D01*
X135582D01*
Y90907D01*
X135601D01*
Y90945D01*
X135620D01*
Y90965D01*
X135639D01*
Y91003D01*
X135658D01*
Y91022D01*
X135678D01*
Y91061D01*
X135697D01*
Y91099D01*
X135716D01*
Y91118D01*
X135735D01*
Y91157D01*
X135754D01*
Y91195D01*
X135774D01*
Y91214D01*
X135793D01*
Y91253D01*
X135812D01*
Y91291D01*
X135831D01*
Y91311D01*
X135851D01*
Y91349D01*
X135870D01*
Y91387D01*
X135889D01*
Y91407D01*
X135908D01*
Y91445D01*
X135927D01*
Y91483D01*
X135947D01*
Y91503D01*
X135966D01*
Y91541D01*
X135985D01*
Y91580D01*
X136004D01*
Y91599D01*
X136023D01*
Y91637D01*
X136043D01*
Y91656D01*
X136062D01*
Y91695D01*
X136081D01*
Y91733D01*
X136100D01*
Y91752D01*
X136120D01*
Y91791D01*
X136139D01*
Y91829D01*
X136158D01*
Y91848D01*
X136177D01*
Y91887D01*
X136196D01*
Y91925D01*
X136216D01*
Y91945D01*
X136235D01*
Y91983D01*
X136254D01*
Y92022D01*
X136273D01*
Y92041D01*
X136293D01*
Y92079D01*
X136312D01*
Y92118D01*
X136331D01*
Y92137D01*
X136350D01*
Y92175D01*
X136369D01*
Y92194D01*
X136389D01*
Y92233D01*
X136408D01*
Y92271D01*
X136427D01*
Y92291D01*
X136446D01*
Y92329D01*
X136466D01*
Y92367D01*
X136485D01*
Y92387D01*
X136504D01*
Y92425D01*
X136523D01*
Y92463D01*
X136542D01*
Y92483D01*
X136562D01*
Y92521D01*
X136581D01*
Y92560D01*
X136600D01*
Y92579D01*
X136619D01*
Y92617D01*
X136638D01*
Y92656D01*
X136658D01*
Y92675D01*
X136677D01*
Y92713D01*
X136696D01*
Y92752D01*
X136715D01*
Y92771D01*
X136734D01*
Y92809D01*
X136754D01*
Y92848D01*
X136773D01*
Y92867D01*
X136792D01*
Y92905D01*
X136811D01*
Y92925D01*
X136831D01*
Y92963D01*
X136850D01*
Y93002D01*
X136869D01*
Y93021D01*
X136888D01*
Y93059D01*
X136907D01*
Y93098D01*
X136927D01*
Y93117D01*
X136946D01*
Y93155D01*
X136965D01*
Y93194D01*
X136984D01*
Y93213D01*
X136965D01*
Y93251D01*
X136946D01*
Y93290D01*
X136927D01*
Y93328D01*
X136907D01*
Y93367D01*
X136888D01*
Y93405D01*
X136869D01*
Y93444D01*
X136850D01*
Y93482D01*
X136831D01*
Y93501D01*
X136811D01*
Y93540D01*
X136792D01*
Y93578D01*
X136773D01*
Y93616D01*
X136754D01*
Y93655D01*
X136734D01*
Y93693D01*
X136715D01*
Y93732D01*
X136696D01*
Y93770D01*
X136677D01*
Y93809D01*
X136658D01*
Y93847D01*
X136638D01*
Y93885D01*
X136619D01*
Y93905D01*
X136600D01*
Y93943D01*
X136581D01*
Y93982D01*
X136562D01*
Y94020D01*
X136542D01*
Y94059D01*
X136523D01*
Y94097D01*
X136504D01*
Y94135D01*
X136485D01*
Y94174D01*
X136466D01*
Y94212D01*
X136446D01*
Y94251D01*
X136427D01*
Y94289D01*
X136408D01*
Y94327D01*
X136389D01*
Y94366D01*
X136369D01*
Y94385D01*
X136350D01*
Y94424D01*
X136331D01*
Y94462D01*
X136312D01*
Y94500D01*
X136293D01*
Y94539D01*
X136273D01*
Y94577D01*
X136254D01*
Y94616D01*
X136235D01*
Y94654D01*
X136216D01*
Y94693D01*
X136196D01*
Y94731D01*
X136177D01*
Y94770D01*
X136158D01*
Y94808D01*
X136139D01*
Y94846D01*
X136120D01*
Y94866D01*
X136100D01*
Y94904D01*
X136081D01*
Y94942D01*
X136062D01*
Y94981D01*
X136043D01*
Y95019D01*
X136023D01*
Y95058D01*
X136004D01*
Y95096D01*
X135985D01*
Y95135D01*
X135966D01*
Y95173D01*
X135947D01*
Y95211D01*
X135927D01*
Y95250D01*
X135908D01*
Y95288D01*
X135889D01*
Y95327D01*
X135870D01*
Y95365D01*
X135851D01*
Y95404D01*
X135831D01*
Y95423D01*
X135812D01*
Y95461D01*
X135793D01*
Y95500D01*
X135774D01*
Y95538D01*
X135754D01*
Y95577D01*
X135735D01*
Y95615D01*
X135716D01*
Y95653D01*
X135697D01*
Y95692D01*
X135678D01*
Y95730D01*
X135658D01*
Y95769D01*
X135639D01*
Y95807D01*
X135620D01*
Y95846D01*
X135601D01*
Y95884D01*
X135582D01*
Y95903D01*
X135562D01*
Y95942D01*
X135543D01*
Y95980D01*
X135524D01*
Y96019D01*
X135505D01*
Y96057D01*
X135485D01*
Y96095D01*
X135466D01*
Y96134D01*
X135447D01*
Y96172D01*
X135428D01*
Y96211D01*
X135408D01*
Y96249D01*
X135389D01*
Y96288D01*
X135370D01*
Y96326D01*
X135351D01*
Y96364D01*
X135332D01*
Y96384D01*
X135312D01*
Y96422D01*
X135293D01*
Y96460D01*
X135274D01*
Y96499D01*
X135255D01*
Y96537D01*
X135236D01*
Y96576D01*
X135216D01*
Y96614D01*
X135197D01*
Y96653D01*
X135178D01*
Y96691D01*
X135159D01*
Y96730D01*
X135140D01*
Y96768D01*
X135120D01*
Y96806D01*
X135101D01*
Y96845D01*
X135082D01*
Y96864D01*
X135063D01*
Y96903D01*
X135043D01*
Y96941D01*
X135024D01*
Y96979D01*
X135005D01*
Y97018D01*
X134986D01*
Y97056D01*
X134967D01*
Y97095D01*
X134947D01*
Y97133D01*
X134928D01*
Y97172D01*
X134909D01*
Y97210D01*
X134890D01*
Y97248D01*
X134871D01*
Y97287D01*
X134851D01*
Y97325D01*
X134832D01*
Y97364D01*
X134813D01*
Y97402D01*
X134794D01*
Y97421D01*
X134774D01*
Y97460D01*
X134755D01*
Y97498D01*
X134736D01*
Y97537D01*
X134717D01*
Y97575D01*
X134697D01*
Y97614D01*
X134678D01*
Y97652D01*
X134659D01*
Y97690D01*
X134640D01*
Y97729D01*
X134621D01*
Y97767D01*
X134601D01*
Y97806D01*
X134582D01*
Y97844D01*
X134563D01*
Y97883D01*
X134544D01*
Y97902D01*
X134525D01*
Y97940D01*
X134505D01*
Y97979D01*
X134486D01*
Y98017D01*
X134467D01*
Y98055D01*
X134448D01*
Y98094D01*
X134429D01*
Y98132D01*
X134409D01*
Y98171D01*
X134390D01*
Y98209D01*
X134371D01*
Y98248D01*
X134352D01*
Y98286D01*
X134332D01*
Y98325D01*
X134313D01*
Y98363D01*
X134294D01*
Y98382D01*
X134275D01*
Y98421D01*
X134256D01*
Y98459D01*
X134236D01*
Y98497D01*
X134217D01*
Y98536D01*
X134198D01*
Y98574D01*
X134179D01*
Y98613D01*
X134160D01*
Y98651D01*
X134140D01*
Y98690D01*
X134121D01*
Y98747D01*
X140347D01*
Y98728D01*
D02*
G37*
G36*
X133429Y98786D02*
X133448D01*
Y98747D01*
X133468D01*
Y98728D01*
X133487D01*
Y98690D01*
X133506D01*
Y98651D01*
X133525D01*
Y98613D01*
X133545D01*
Y98574D01*
X133564D01*
Y98536D01*
X133583D01*
Y98497D01*
X133602D01*
Y98459D01*
X133621D01*
Y98421D01*
X133641D01*
Y98382D01*
X133660D01*
Y98344D01*
X133679D01*
Y98305D01*
X133698D01*
Y98267D01*
X133718D01*
Y98229D01*
X133737D01*
Y98190D01*
X133756D01*
Y98152D01*
X133775D01*
Y98113D01*
X133794D01*
Y98075D01*
X133814D01*
Y98036D01*
X133833D01*
Y97998D01*
X133852D01*
Y97979D01*
X133871D01*
Y97940D01*
X133890D01*
Y97902D01*
X133910D01*
Y97863D01*
X133929D01*
Y97825D01*
X133948D01*
Y97786D01*
X133967D01*
Y97748D01*
X133986D01*
Y97729D01*
Y97710D01*
X134006D01*
Y97671D01*
X134025D01*
Y97633D01*
X134044D01*
Y97594D01*
X134063D01*
Y97556D01*
X134083D01*
Y97517D01*
X134102D01*
Y97479D01*
X134121D01*
Y97441D01*
X134140D01*
Y97402D01*
X134160D01*
Y97364D01*
X134179D01*
Y97325D01*
X134198D01*
Y97306D01*
X134217D01*
Y97268D01*
X134236D01*
Y97229D01*
X134256D01*
Y97191D01*
X134275D01*
Y97152D01*
X134294D01*
Y97114D01*
X134313D01*
Y97075D01*
X134332D01*
Y97037D01*
X134352D01*
Y96999D01*
X134371D01*
Y96960D01*
X134390D01*
Y96922D01*
X134409D01*
Y96883D01*
X134429D01*
Y96845D01*
X134448D01*
Y96806D01*
X134467D01*
Y96768D01*
X134486D01*
Y96730D01*
X134505D01*
Y96691D01*
X134525D01*
Y96653D01*
X134544D01*
Y96614D01*
X134563D01*
Y96576D01*
X134582D01*
Y96537D01*
X134601D01*
Y96499D01*
X134621D01*
Y96480D01*
X134640D01*
Y96441D01*
X134659D01*
Y96403D01*
X134678D01*
Y96364D01*
X134697D01*
Y96326D01*
X134717D01*
Y96288D01*
X134736D01*
Y96249D01*
X134755D01*
Y96211D01*
X134774D01*
Y96172D01*
X134794D01*
Y96134D01*
X134813D01*
Y96095D01*
X134832D01*
Y96057D01*
X134851D01*
Y96019D01*
X134871D01*
Y95980D01*
X134890D01*
Y95942D01*
X134909D01*
Y95903D01*
X134928D01*
Y95865D01*
X134947D01*
Y95826D01*
X134967D01*
Y95788D01*
X134986D01*
Y95749D01*
X135005D01*
Y95711D01*
X135024D01*
Y95692D01*
X135043D01*
Y95653D01*
X135063D01*
Y95615D01*
X135082D01*
Y95577D01*
X135101D01*
Y95538D01*
X135120D01*
Y95500D01*
X135140D01*
Y95461D01*
X135159D01*
Y95423D01*
X135178D01*
Y95384D01*
X135197D01*
Y95346D01*
X135216D01*
Y95307D01*
X135236D01*
Y95269D01*
X135255D01*
Y95231D01*
X135274D01*
Y95192D01*
X135293D01*
Y95154D01*
X135312D01*
Y95115D01*
X135332D01*
Y95077D01*
X135351D01*
Y95038D01*
X135370D01*
Y95000D01*
X135389D01*
Y94981D01*
X135408D01*
Y94942D01*
X135428D01*
Y94904D01*
X135447D01*
Y94866D01*
X135466D01*
Y94827D01*
X135485D01*
Y94789D01*
X135505D01*
Y94750D01*
X135524D01*
Y94712D01*
X135543D01*
Y94673D01*
X135562D01*
Y94635D01*
X135582D01*
Y94596D01*
X135601D01*
Y94558D01*
X135620D01*
Y94520D01*
X135639D01*
Y94481D01*
X135658D01*
Y94443D01*
X135678D01*
Y94404D01*
X135697D01*
Y94366D01*
X135716D01*
Y94327D01*
X135735D01*
Y94289D01*
X135754D01*
Y94251D01*
X135774D01*
Y94212D01*
X135793D01*
Y94193D01*
X135812D01*
Y94155D01*
X135831D01*
Y94116D01*
X135851D01*
Y94078D01*
X135870D01*
Y94039D01*
X135889D01*
Y94001D01*
X135908D01*
Y93962D01*
X135927D01*
Y93924D01*
X135947D01*
Y93885D01*
X135966D01*
Y93847D01*
X135985D01*
Y93809D01*
X136004D01*
Y93770D01*
X136023D01*
Y93732D01*
X136043D01*
Y93693D01*
X136062D01*
Y93655D01*
X136081D01*
Y93616D01*
X136100D01*
Y93578D01*
X136120D01*
Y93540D01*
X136139D01*
Y93501D01*
X136158D01*
Y93463D01*
X136177D01*
Y93424D01*
X136196D01*
Y93405D01*
X136216D01*
Y93367D01*
X136235D01*
Y93328D01*
X136254D01*
Y93290D01*
X136273D01*
Y93232D01*
X136254D01*
Y93194D01*
X136235D01*
Y93155D01*
X136216D01*
Y93136D01*
X136196D01*
Y93098D01*
X136177D01*
Y93059D01*
X136158D01*
Y93040D01*
X136139D01*
Y93002D01*
X136120D01*
Y92963D01*
X136100D01*
Y92944D01*
X136081D01*
Y92905D01*
X136062D01*
Y92867D01*
X136043D01*
Y92848D01*
X136023D01*
Y92809D01*
X136004D01*
Y92790D01*
X135985D01*
Y92752D01*
X135966D01*
Y92713D01*
X135947D01*
Y92694D01*
X135927D01*
Y92656D01*
X135908D01*
Y92617D01*
X135889D01*
Y92598D01*
X135870D01*
Y92560D01*
X135851D01*
Y92521D01*
X135831D01*
Y92502D01*
X135812D01*
Y92463D01*
X135793D01*
Y92425D01*
X135774D01*
Y92406D01*
X135754D01*
Y92367D01*
X135735D01*
Y92329D01*
X135716D01*
Y92310D01*
X135697D01*
Y92271D01*
X135678D01*
Y92252D01*
X135658D01*
Y92214D01*
X135639D01*
Y92175D01*
X135620D01*
Y92156D01*
X135601D01*
Y92118D01*
X135582D01*
Y92079D01*
X135562D01*
Y92060D01*
X135543D01*
Y92022D01*
X135524D01*
Y91983D01*
X135505D01*
Y91964D01*
X135485D01*
Y91925D01*
X135466D01*
Y91887D01*
X135447D01*
Y91868D01*
X135428D01*
Y91829D01*
X135408D01*
Y91791D01*
X135389D01*
Y91772D01*
X135370D01*
Y91733D01*
X135351D01*
Y91695D01*
X135332D01*
Y91676D01*
X135312D01*
Y91637D01*
X135293D01*
Y91618D01*
X135274D01*
Y91580D01*
X135255D01*
Y91541D01*
X135236D01*
Y91522D01*
X135216D01*
Y91483D01*
X135197D01*
Y91445D01*
X135178D01*
Y91426D01*
X135159D01*
Y91387D01*
X135140D01*
Y91349D01*
X135120D01*
Y91330D01*
X135101D01*
Y91291D01*
X135082D01*
Y91253D01*
X135063D01*
Y91234D01*
X135043D01*
Y91195D01*
X135024D01*
Y91157D01*
X135005D01*
Y91137D01*
X134986D01*
Y91099D01*
X134967D01*
Y91061D01*
X134947D01*
Y91041D01*
X134928D01*
Y91003D01*
X134909D01*
Y90984D01*
X134890D01*
Y90945D01*
X134871D01*
Y90907D01*
X134851D01*
Y90888D01*
X134832D01*
Y90849D01*
X134813D01*
Y90811D01*
X134794D01*
Y90792D01*
X134774D01*
Y90753D01*
X134755D01*
Y90715D01*
X134736D01*
Y90696D01*
X134717D01*
Y90657D01*
X134697D01*
Y90619D01*
X134678D01*
Y90600D01*
X134659D01*
Y90561D01*
X134640D01*
Y90523D01*
X134621D01*
Y90503D01*
X134601D01*
Y90465D01*
X134582D01*
Y90446D01*
X134563D01*
Y90407D01*
X134544D01*
Y90369D01*
X134525D01*
Y90350D01*
X134505D01*
Y90311D01*
X134486D01*
Y90273D01*
X134467D01*
Y90254D01*
X134448D01*
Y90215D01*
X134429D01*
Y90177D01*
X134409D01*
Y90158D01*
X134390D01*
Y90119D01*
X134371D01*
Y90081D01*
X134352D01*
Y90061D01*
X134332D01*
Y90023D01*
X134313D01*
Y89985D01*
X134294D01*
Y89965D01*
X134275D01*
Y89927D01*
X134256D01*
Y89908D01*
X134236D01*
Y89869D01*
X134217D01*
Y89831D01*
X134198D01*
Y89812D01*
X134179D01*
Y89773D01*
X134160D01*
Y89735D01*
X134140D01*
Y89715D01*
X134121D01*
Y89677D01*
X134102D01*
Y89639D01*
X134083D01*
Y89619D01*
X134063D01*
Y89581D01*
X134044D01*
Y89543D01*
X134025D01*
Y89523D01*
X134006D01*
Y89485D01*
X133986D01*
Y89447D01*
X133967D01*
Y89427D01*
X133948D01*
Y89389D01*
X133929D01*
Y89370D01*
X133910D01*
Y89331D01*
X133890D01*
Y89293D01*
X133871D01*
Y89274D01*
X133852D01*
Y89235D01*
X133833D01*
Y89197D01*
X133814D01*
Y89177D01*
X133794D01*
Y89139D01*
X133775D01*
Y89100D01*
X133756D01*
Y89081D01*
X133737D01*
Y89043D01*
X133718D01*
Y89004D01*
X133698D01*
Y88985D01*
X133679D01*
Y88947D01*
X133660D01*
Y88908D01*
X133641D01*
Y88889D01*
X133621D01*
Y88851D01*
X133602D01*
Y88832D01*
X133583D01*
Y88793D01*
X133564D01*
Y88755D01*
X133545D01*
Y88735D01*
X133525D01*
Y88697D01*
X133506D01*
Y88659D01*
X133487D01*
Y88639D01*
X133468D01*
Y88601D01*
X133448D01*
Y88563D01*
X133429D01*
Y88543D01*
X133410D01*
Y88505D01*
X133391D01*
Y88466D01*
X133372D01*
Y88447D01*
X133352D01*
Y88409D01*
X133333D01*
Y88370D01*
X133314D01*
Y88351D01*
X133295D01*
Y88313D01*
X133275D01*
Y88293D01*
X133256D01*
Y88255D01*
X133237D01*
Y88217D01*
X133218D01*
Y88197D01*
X133199D01*
Y88159D01*
X133179D01*
Y88121D01*
X133160D01*
Y88101D01*
X133141D01*
Y88063D01*
X133122D01*
Y88024D01*
X133103D01*
Y88005D01*
X133083D01*
Y87967D01*
X133064D01*
Y87928D01*
X133045D01*
Y87909D01*
X133026D01*
Y87871D01*
X133007D01*
Y87852D01*
X132987D01*
Y87832D01*
X131258D01*
Y87813D01*
X128452D01*
Y87794D01*
X126742D01*
Y87832D01*
X126761D01*
Y87852D01*
X126780D01*
Y87890D01*
X126799D01*
Y87928D01*
X126819D01*
Y87948D01*
X126838D01*
Y87986D01*
X126857D01*
Y88024D01*
X126876D01*
Y88044D01*
X126896D01*
Y88082D01*
X126915D01*
Y88101D01*
X126934D01*
Y88140D01*
X126953D01*
Y88178D01*
X126972D01*
Y88197D01*
X126992D01*
Y88236D01*
X127011D01*
Y88274D01*
X127030D01*
Y88293D01*
X127049D01*
Y88332D01*
X127068D01*
Y88370D01*
X127088D01*
Y88389D01*
X127107D01*
Y88428D01*
X127126D01*
Y88466D01*
X127145D01*
Y88486D01*
X127165D01*
Y88524D01*
X127184D01*
Y88563D01*
X127203D01*
Y88582D01*
X127222D01*
Y88620D01*
X127242D01*
Y88659D01*
X127261D01*
Y88678D01*
X127280D01*
Y88716D01*
X127299D01*
Y88755D01*
X127318D01*
Y88774D01*
X127338D01*
Y88812D01*
X127357D01*
Y88832D01*
X127376D01*
Y88870D01*
X127395D01*
Y88908D01*
X127414D01*
Y88928D01*
X127434D01*
Y88966D01*
X127453D01*
Y89004D01*
X127472D01*
Y89024D01*
X127491D01*
Y89062D01*
X127510D01*
Y89100D01*
X127530D01*
Y89120D01*
X127549D01*
Y89158D01*
X127568D01*
Y89197D01*
X127587D01*
Y89216D01*
X127607D01*
Y89254D01*
X127626D01*
Y89293D01*
X127645D01*
Y89312D01*
X127664D01*
Y89350D01*
X127683D01*
Y89389D01*
X127703D01*
Y89408D01*
X127722D01*
Y89447D01*
X127741D01*
Y89485D01*
X127760D01*
Y89504D01*
X127779D01*
Y89543D01*
X127799D01*
Y89562D01*
X127818D01*
Y89600D01*
X127837D01*
Y89639D01*
X127856D01*
Y89658D01*
X127876D01*
Y89696D01*
X127895D01*
Y89735D01*
X127914D01*
Y89754D01*
X127933D01*
Y89792D01*
X127953D01*
Y89831D01*
X127972D01*
Y89850D01*
X127991D01*
Y89888D01*
X128010D01*
Y89927D01*
X128029D01*
Y89946D01*
X128049D01*
Y89985D01*
X128068D01*
Y90023D01*
X128087D01*
Y90042D01*
X128106D01*
Y90081D01*
X128125D01*
Y90119D01*
X128145D01*
Y90138D01*
X128164D01*
Y90177D01*
X128183D01*
Y90215D01*
X128202D01*
Y90234D01*
X128221D01*
Y90273D01*
X128241D01*
Y90292D01*
X128260D01*
Y90330D01*
X128279D01*
Y90369D01*
X128298D01*
Y90388D01*
X128318D01*
Y90426D01*
X128337D01*
Y90465D01*
X128356D01*
Y90484D01*
X128375D01*
Y90523D01*
X128394D01*
Y90561D01*
X128414D01*
Y90580D01*
X128433D01*
Y90619D01*
X128452D01*
Y90657D01*
X128471D01*
Y90676D01*
X128490D01*
Y90715D01*
X128510D01*
Y90753D01*
X128529D01*
Y90772D01*
X128548D01*
Y90811D01*
X128567D01*
Y90849D01*
X128587D01*
Y90869D01*
X128606D01*
Y90907D01*
X128625D01*
Y90945D01*
X128644D01*
Y90965D01*
X128664D01*
Y91003D01*
X128683D01*
Y91022D01*
X128702D01*
Y91061D01*
X128721D01*
Y91099D01*
X128740D01*
Y91118D01*
X128760D01*
Y91157D01*
X128779D01*
Y91195D01*
X128798D01*
Y91214D01*
X128817D01*
Y91253D01*
X128836D01*
Y91291D01*
X128856D01*
Y91311D01*
X128875D01*
Y91349D01*
X128894D01*
Y91387D01*
X128913D01*
Y91407D01*
X128932D01*
Y91445D01*
X128952D01*
Y91483D01*
X128971D01*
Y91503D01*
X128990D01*
Y91541D01*
X129009D01*
Y91560D01*
X129029D01*
Y91599D01*
X129048D01*
Y91637D01*
X129067D01*
Y91656D01*
X129086D01*
Y91695D01*
X129105D01*
Y91733D01*
X129125D01*
Y91752D01*
X129144D01*
Y91791D01*
X129163D01*
Y91829D01*
X129182D01*
Y91848D01*
X129202D01*
Y91887D01*
X129221D01*
Y91925D01*
X129240D01*
Y91945D01*
X129259D01*
Y91983D01*
X129278D01*
Y92022D01*
X129298D01*
Y92041D01*
X129317D01*
Y92079D01*
X129336D01*
Y92098D01*
X129355D01*
Y92137D01*
X129375D01*
Y92175D01*
X129394D01*
Y92194D01*
X129413D01*
Y92233D01*
X129432D01*
Y92271D01*
X129451D01*
Y92291D01*
X129471D01*
Y92329D01*
X129490D01*
Y92367D01*
X129509D01*
Y92387D01*
X129528D01*
Y92425D01*
X129548D01*
Y92463D01*
X129567D01*
Y92483D01*
X129586D01*
Y92521D01*
X129605D01*
Y92560D01*
X129624D01*
Y92579D01*
X129643D01*
Y92617D01*
X129663D01*
Y92656D01*
X129682D01*
Y92675D01*
X129701D01*
Y92713D01*
X129720D01*
Y92733D01*
X129740D01*
Y92771D01*
X129759D01*
Y92809D01*
X129778D01*
Y92829D01*
X129797D01*
Y92867D01*
X129816D01*
Y92905D01*
X129836D01*
Y92925D01*
X129855D01*
Y92963D01*
X129874D01*
Y93002D01*
X129893D01*
Y93021D01*
X129913D01*
Y93059D01*
X129932D01*
Y93098D01*
X129951D01*
Y93117D01*
X129970D01*
Y93155D01*
X129989D01*
Y93194D01*
X130009D01*
Y93232D01*
X129989D01*
Y93271D01*
X129970D01*
Y93309D01*
X129951D01*
Y93347D01*
X129932D01*
Y93386D01*
X129913D01*
Y93405D01*
X129893D01*
Y93444D01*
X129874D01*
Y93482D01*
X129855D01*
Y93520D01*
X129836D01*
Y93559D01*
X129816D01*
Y93597D01*
X129797D01*
Y93636D01*
X129778D01*
Y93674D01*
X129759D01*
Y93713D01*
X129740D01*
Y93751D01*
X129720D01*
Y93789D01*
X129701D01*
Y93828D01*
X129682D01*
Y93866D01*
X129663D01*
Y93905D01*
X129643D01*
Y93943D01*
X129624D01*
Y93982D01*
X129605D01*
Y94020D01*
X129586D01*
Y94059D01*
X129567D01*
Y94097D01*
X129548D01*
Y94135D01*
X129528D01*
Y94174D01*
X129509D01*
Y94193D01*
X129490D01*
Y94231D01*
X129471D01*
Y94270D01*
X129451D01*
Y94308D01*
X129432D01*
Y94347D01*
X129413D01*
Y94385D01*
X129394D01*
Y94424D01*
X129375D01*
Y94462D01*
X129355D01*
Y94500D01*
X129336D01*
Y94539D01*
X129317D01*
Y94577D01*
X129298D01*
Y94616D01*
X129278D01*
Y94654D01*
X129259D01*
Y94693D01*
X129240D01*
Y94731D01*
X129221D01*
Y94770D01*
X129202D01*
Y94808D01*
X129182D01*
Y94846D01*
X129163D01*
Y94885D01*
X129144D01*
Y94923D01*
X129125D01*
Y94962D01*
X129105D01*
Y94981D01*
X129086D01*
Y95019D01*
X129067D01*
Y95058D01*
X129048D01*
Y95096D01*
X129029D01*
Y95135D01*
X129009D01*
Y95173D01*
X128990D01*
Y95211D01*
X128971D01*
Y95250D01*
X128952D01*
Y95288D01*
X128932D01*
Y95327D01*
X128913D01*
Y95365D01*
X128894D01*
Y95404D01*
X128875D01*
Y95442D01*
X128856D01*
Y95481D01*
X128836D01*
Y95519D01*
X128817D01*
Y95557D01*
X128798D01*
Y95596D01*
X128779D01*
Y95634D01*
X128760D01*
Y95673D01*
X128740D01*
Y95711D01*
X128721D01*
Y95749D01*
X128702D01*
Y95788D01*
X128683D01*
Y95826D01*
X128664D01*
Y95865D01*
X128644D01*
Y95884D01*
X128625D01*
Y95922D01*
X128606D01*
Y95961D01*
X128587D01*
Y95999D01*
X128567D01*
Y96038D01*
X128548D01*
Y96076D01*
X128529D01*
Y96115D01*
X128510D01*
Y96153D01*
X128490D01*
Y96192D01*
X128471D01*
Y96230D01*
X128452D01*
Y96268D01*
X128433D01*
Y96307D01*
X128414D01*
Y96345D01*
X128394D01*
Y96384D01*
X128375D01*
Y96422D01*
X128356D01*
Y96460D01*
X128337D01*
Y96499D01*
X128318D01*
Y96537D01*
X128298D01*
Y96576D01*
X128279D01*
Y96614D01*
X128260D01*
Y96653D01*
X128241D01*
Y96672D01*
X128221D01*
Y96710D01*
X128202D01*
Y96749D01*
X128183D01*
Y96787D01*
X128164D01*
Y96826D01*
X128145D01*
Y96864D01*
X128125D01*
Y96903D01*
X128106D01*
Y96941D01*
X128087D01*
Y96979D01*
X128068D01*
Y97018D01*
X128049D01*
Y97056D01*
X128029D01*
Y97095D01*
X128010D01*
Y97133D01*
X127991D01*
Y97172D01*
X127972D01*
Y97210D01*
X127953D01*
Y97248D01*
X127933D01*
Y97287D01*
X127914D01*
Y97325D01*
X127895D01*
Y97364D01*
X127876D01*
Y97402D01*
X127856D01*
Y97441D01*
X127837D01*
Y97460D01*
X127818D01*
Y97498D01*
X127799D01*
Y97537D01*
X127779D01*
Y97575D01*
X127760D01*
Y97614D01*
X127741D01*
Y97652D01*
X127722D01*
Y97690D01*
X127703D01*
Y97729D01*
X127683D01*
Y97767D01*
X127664D01*
Y97806D01*
X127645D01*
Y97844D01*
X127626D01*
Y97883D01*
X127607D01*
Y97921D01*
X127587D01*
Y97959D01*
X127568D01*
Y97998D01*
X127549D01*
Y98036D01*
X127530D01*
Y98075D01*
X127510D01*
Y98113D01*
X127491D01*
Y98152D01*
X127472D01*
Y98190D01*
X127453D01*
Y98229D01*
X127434D01*
Y98267D01*
X127414D01*
Y98305D01*
X127395D01*
Y98344D01*
X127376D01*
Y98363D01*
X127357D01*
Y98401D01*
X127338D01*
Y98440D01*
X127318D01*
Y98478D01*
X127299D01*
Y98517D01*
X127280D01*
Y98555D01*
X127261D01*
Y98594D01*
X127242D01*
Y98632D01*
X127222D01*
Y98671D01*
X127203D01*
Y98709D01*
X127184D01*
Y98747D01*
X127165D01*
Y98786D01*
X129105D01*
Y98805D01*
X131757D01*
Y98824D01*
X133429D01*
Y98786D01*
D02*
G37*
G36*
X126434Y98805D02*
X126454D01*
Y98766D01*
X126473D01*
Y98728D01*
X126492D01*
Y98690D01*
X126511D01*
Y98651D01*
X126530D01*
Y98613D01*
X126550D01*
Y98594D01*
X126569D01*
Y98555D01*
X126588D01*
Y98517D01*
X126607D01*
Y98478D01*
X126627D01*
Y98440D01*
X126646D01*
Y98401D01*
X126665D01*
Y98363D01*
X126684D01*
Y98325D01*
X126703D01*
Y98286D01*
X126723D01*
Y98248D01*
X126742D01*
Y98209D01*
X126761D01*
Y98171D01*
X126780D01*
Y98132D01*
X126799D01*
Y98094D01*
X126819D01*
Y98055D01*
X126838D01*
Y98017D01*
X126857D01*
Y97979D01*
X126876D01*
Y97940D01*
X126896D01*
Y97902D01*
X126915D01*
Y97863D01*
X126934D01*
Y97825D01*
X126953D01*
Y97806D01*
X126972D01*
Y97767D01*
X126992D01*
Y97729D01*
X127011D01*
Y97690D01*
X127030D01*
Y97652D01*
X127049D01*
Y97614D01*
X127068D01*
Y97575D01*
X127088D01*
Y97537D01*
X127107D01*
Y97498D01*
X127126D01*
Y97460D01*
X127145D01*
Y97421D01*
X127165D01*
Y97383D01*
X127184D01*
Y97344D01*
X127203D01*
Y97306D01*
X127222D01*
Y97268D01*
X127242D01*
Y97229D01*
X127261D01*
Y97191D01*
X127280D01*
Y97172D01*
X127299D01*
Y97133D01*
X127318D01*
Y97095D01*
X127338D01*
Y97056D01*
X127357D01*
Y97018D01*
X127376D01*
Y96979D01*
X127395D01*
Y96941D01*
X127414D01*
Y96903D01*
X127434D01*
Y96864D01*
X127453D01*
Y96826D01*
X127472D01*
Y96787D01*
X127491D01*
Y96749D01*
X127510D01*
Y96710D01*
X127530D01*
Y96672D01*
X127549D01*
Y96633D01*
X127568D01*
Y96595D01*
X127587D01*
Y96557D01*
X127607D01*
Y96518D01*
X127626D01*
Y96480D01*
X127645D01*
Y96441D01*
X127664D01*
Y96403D01*
X127683D01*
Y96364D01*
X127703D01*
Y96345D01*
X127722D01*
Y96307D01*
X127741D01*
Y96268D01*
X127760D01*
Y96230D01*
X127779D01*
Y96192D01*
X127799D01*
Y96153D01*
X127818D01*
Y96115D01*
X127837D01*
Y96076D01*
X127856D01*
Y96038D01*
X127876D01*
Y95999D01*
X127895D01*
Y95961D01*
X127914D01*
Y95922D01*
X127933D01*
Y95884D01*
X127953D01*
Y95846D01*
X127972D01*
Y95807D01*
X127991D01*
Y95769D01*
X128010D01*
Y95730D01*
X128029D01*
Y95692D01*
X128049D01*
Y95653D01*
X128068D01*
Y95615D01*
X128087D01*
Y95577D01*
X128106D01*
Y95557D01*
X128125D01*
Y95519D01*
X128145D01*
Y95481D01*
X128164D01*
Y95442D01*
X128183D01*
Y95404D01*
X128202D01*
Y95365D01*
X128221D01*
Y95327D01*
X128241D01*
Y95288D01*
X128260D01*
Y95250D01*
X128279D01*
Y95211D01*
X128298D01*
Y95173D01*
X128318D01*
Y95135D01*
X128337D01*
Y95096D01*
X128356D01*
Y95058D01*
X128375D01*
Y95019D01*
X128394D01*
Y94981D01*
X128414D01*
Y94942D01*
X128433D01*
Y94904D01*
X128452D01*
Y94866D01*
X128471D01*
Y94846D01*
X128490D01*
Y94808D01*
X128510D01*
Y94770D01*
X128529D01*
Y94731D01*
X128548D01*
Y94693D01*
X128567D01*
Y94654D01*
X128587D01*
Y94616D01*
X128606D01*
Y94577D01*
X128625D01*
Y94539D01*
X128644D01*
Y94500D01*
X128664D01*
Y94462D01*
X128683D01*
Y94424D01*
X128702D01*
Y94385D01*
X128721D01*
Y94347D01*
X128740D01*
Y94308D01*
X128760D01*
Y94270D01*
X128779D01*
Y94231D01*
X128798D01*
Y94193D01*
X128817D01*
Y94155D01*
X128836D01*
Y94116D01*
X128856D01*
Y94078D01*
X128875D01*
Y94039D01*
X128894D01*
Y94020D01*
X128913D01*
Y93982D01*
X128932D01*
Y93943D01*
X128952D01*
Y93905D01*
X128971D01*
Y93866D01*
X128990D01*
Y93828D01*
X129009D01*
Y93789D01*
X129029D01*
Y93751D01*
X129048D01*
Y93713D01*
X129067D01*
Y93674D01*
X129086D01*
Y93636D01*
X129105D01*
Y93597D01*
X129125D01*
Y93559D01*
X129144D01*
Y93520D01*
X129163D01*
Y93482D01*
X129182D01*
Y93444D01*
X129202D01*
Y93405D01*
X129221D01*
Y93367D01*
X129240D01*
Y93328D01*
X129259D01*
Y93290D01*
X129278D01*
Y93251D01*
X129298D01*
Y93232D01*
X129278D01*
Y93194D01*
X129259D01*
Y93155D01*
X129240D01*
Y93136D01*
X129221D01*
Y93098D01*
X129202D01*
Y93059D01*
X129182D01*
Y93040D01*
X129163D01*
Y93002D01*
X129144D01*
Y92963D01*
X129125D01*
Y92944D01*
X129105D01*
Y92905D01*
X129086D01*
Y92886D01*
X129067D01*
Y92848D01*
X129048D01*
Y92809D01*
X129029D01*
Y92790D01*
X129009D01*
Y92752D01*
X128990D01*
Y92713D01*
X128971D01*
Y92694D01*
X128952D01*
Y92656D01*
X128932D01*
Y92617D01*
X128913D01*
Y92598D01*
X128894D01*
Y92560D01*
X128875D01*
Y92521D01*
X128856D01*
Y92502D01*
X128836D01*
Y92463D01*
X128817D01*
Y92444D01*
X128798D01*
Y92406D01*
X128779D01*
Y92367D01*
X128760D01*
Y92348D01*
X128740D01*
Y92310D01*
X128721D01*
Y92271D01*
X128702D01*
Y92252D01*
X128683D01*
Y92214D01*
X128664D01*
Y92175D01*
X128644D01*
Y92156D01*
X128625D01*
Y92118D01*
X128606D01*
Y92079D01*
X128587D01*
Y92060D01*
X128567D01*
Y92022D01*
X128548D01*
Y91983D01*
X128529D01*
Y91964D01*
X128510D01*
Y91925D01*
X128490D01*
Y91887D01*
X128471D01*
Y91868D01*
X128452D01*
Y91829D01*
X128433D01*
Y91810D01*
X128414D01*
Y91772D01*
X128394D01*
Y91733D01*
X128375D01*
Y91714D01*
X128356D01*
Y91676D01*
X128337D01*
Y91637D01*
X128318D01*
Y91618D01*
X128298D01*
Y91580D01*
X128279D01*
Y91541D01*
X128260D01*
Y91522D01*
X128241D01*
Y91483D01*
X128221D01*
Y91445D01*
X128202D01*
Y91426D01*
X128183D01*
Y91387D01*
X128164D01*
Y91349D01*
X128145D01*
Y91330D01*
X128125D01*
Y91291D01*
X128106D01*
Y91253D01*
X128087D01*
Y91234D01*
X128068D01*
Y91195D01*
X128049D01*
Y91176D01*
X128029D01*
Y91137D01*
X128010D01*
Y91099D01*
X127991D01*
Y91080D01*
X127972D01*
Y91041D01*
X127953D01*
Y91003D01*
X127933D01*
Y90984D01*
X127914D01*
Y90945D01*
X127895D01*
Y90907D01*
X127876D01*
Y90888D01*
X127856D01*
Y90849D01*
X127837D01*
Y90811D01*
X127818D01*
Y90792D01*
X127799D01*
Y90753D01*
X127779D01*
Y90715D01*
X127760D01*
Y90696D01*
X127741D01*
Y90657D01*
X127722D01*
Y90638D01*
X127703D01*
Y90600D01*
X127683D01*
Y90561D01*
X127664D01*
Y90542D01*
X127645D01*
Y90503D01*
X127626D01*
Y90465D01*
X127607D01*
Y90446D01*
X127587D01*
Y90407D01*
X127568D01*
Y90369D01*
X127549D01*
Y90350D01*
X127530D01*
Y90311D01*
X127510D01*
Y90273D01*
X127491D01*
Y90254D01*
X127472D01*
Y90215D01*
X127453D01*
Y90177D01*
X127434D01*
Y90158D01*
X127414D01*
Y90119D01*
X127395D01*
Y90100D01*
X127376D01*
Y90061D01*
X127357D01*
Y90023D01*
X127338D01*
Y90004D01*
X127318D01*
Y89965D01*
X127299D01*
Y89927D01*
X127280D01*
Y89908D01*
X127261D01*
Y89869D01*
X127242D01*
Y89831D01*
X127222D01*
Y89812D01*
X127203D01*
Y89773D01*
X127184D01*
Y89735D01*
X127165D01*
Y89715D01*
X127145D01*
Y89677D01*
X127126D01*
Y89639D01*
X127107D01*
Y89619D01*
X127088D01*
Y89581D01*
X127068D01*
Y89562D01*
X127049D01*
Y89523D01*
X127030D01*
Y89485D01*
X127011D01*
Y89466D01*
X126992D01*
Y89427D01*
X126972D01*
Y89389D01*
X126953D01*
Y89370D01*
X126934D01*
Y89331D01*
X126915D01*
Y89293D01*
X126896D01*
Y89274D01*
X126876D01*
Y89235D01*
X126857D01*
Y89197D01*
X126838D01*
Y89177D01*
X126819D01*
Y89139D01*
X126799D01*
Y89100D01*
X126780D01*
Y89081D01*
X126761D01*
Y89043D01*
X126742D01*
Y89004D01*
X126723D01*
Y88985D01*
X126703D01*
Y88947D01*
X126684D01*
Y88928D01*
X126665D01*
Y88889D01*
X126646D01*
Y88851D01*
X126627D01*
Y88832D01*
X126607D01*
Y88793D01*
X126588D01*
Y88755D01*
X126569D01*
Y88735D01*
X126550D01*
Y88697D01*
X126530D01*
Y88659D01*
X126511D01*
Y88639D01*
X126492D01*
Y88601D01*
X126473D01*
Y88563D01*
X126454D01*
Y88543D01*
X126434D01*
Y88505D01*
X126415D01*
Y88486D01*
X126396D01*
Y88447D01*
X126377D01*
Y88409D01*
X126357D01*
Y88389D01*
X126338D01*
Y88351D01*
X126319D01*
Y88313D01*
X126300D01*
Y88293D01*
X126281D01*
Y88255D01*
X126261D01*
Y88217D01*
X126242D01*
Y88197D01*
X126223D01*
Y88159D01*
X126204D01*
Y88121D01*
X126184D01*
Y88101D01*
X126165D01*
Y88063D01*
X126146D01*
Y88024D01*
X126127D01*
Y88005D01*
X126108D01*
Y87967D01*
X126089D01*
Y87948D01*
X126069D01*
Y87909D01*
X126050D01*
Y87871D01*
X126031D01*
Y87852D01*
X126012D01*
Y87832D01*
X125493D01*
Y87813D01*
X122841D01*
Y87794D01*
X119862D01*
Y87775D01*
X119766D01*
Y87794D01*
X119747D01*
Y87813D01*
X119728D01*
Y87852D01*
X119709D01*
Y87890D01*
X119689D01*
Y87928D01*
X119670D01*
Y87967D01*
X119651D01*
Y88005D01*
X119632D01*
Y88044D01*
X119612D01*
Y88063D01*
X119593D01*
Y88101D01*
X119574D01*
Y88140D01*
X119555D01*
Y88178D01*
X119536D01*
Y88217D01*
X119516D01*
Y88255D01*
X119497D01*
Y88293D01*
X119478D01*
Y88332D01*
X119459D01*
Y88370D01*
X119439D01*
Y88409D01*
X119420D01*
Y88447D01*
X119401D01*
Y88486D01*
X119382D01*
Y88524D01*
X119363D01*
Y88563D01*
X119343D01*
Y88601D01*
X119324D01*
Y88639D01*
X119305D01*
Y88678D01*
X119286D01*
Y88716D01*
X119266D01*
Y88755D01*
X119247D01*
Y88793D01*
X119228D01*
Y88832D01*
X119209D01*
Y88851D01*
X119190D01*
Y88889D01*
X119170D01*
Y88928D01*
X119151D01*
Y88966D01*
X119132D01*
Y89004D01*
X119113D01*
Y89043D01*
X119094D01*
Y89081D01*
X119074D01*
Y89120D01*
X119055D01*
Y89158D01*
X119036D01*
Y89197D01*
X119017D01*
Y89235D01*
X118998D01*
Y89274D01*
X118978D01*
Y89312D01*
X118959D01*
Y89350D01*
X118940D01*
Y89389D01*
X118921D01*
Y89427D01*
X118901D01*
Y89466D01*
X118882D01*
Y89504D01*
X118863D01*
Y89543D01*
X118844D01*
Y89581D01*
X118825D01*
Y89619D01*
X118805D01*
Y89639D01*
X118786D01*
Y89677D01*
X118767D01*
Y89715D01*
X118748D01*
Y89754D01*
X118728D01*
Y89792D01*
X118709D01*
Y89831D01*
X118690D01*
Y89869D01*
X118671D01*
Y89908D01*
X118652D01*
Y89946D01*
X118632D01*
Y89985D01*
X118613D01*
Y90023D01*
X118594D01*
Y90061D01*
X118575D01*
Y90100D01*
X118555D01*
Y90138D01*
X118536D01*
Y90177D01*
X118517D01*
Y90215D01*
X118498D01*
Y90254D01*
X118479D01*
Y90292D01*
X118459D01*
Y90330D01*
X118440D01*
Y90369D01*
X118421D01*
Y90407D01*
X118402D01*
Y90426D01*
X118383D01*
Y90465D01*
X118363D01*
Y90503D01*
X118344D01*
Y90542D01*
X118325D01*
Y90580D01*
X118306D01*
Y90619D01*
X118287D01*
Y90657D01*
X118267D01*
Y90696D01*
X118248D01*
Y90734D01*
X118229D01*
Y90772D01*
X118210D01*
Y90811D01*
X118190D01*
Y90849D01*
X118171D01*
Y90888D01*
X118152D01*
Y90926D01*
X118133D01*
Y90965D01*
X118114D01*
Y91003D01*
X118094D01*
Y91041D01*
X118075D01*
Y91080D01*
X118056D01*
Y91118D01*
X118037D01*
Y91157D01*
X118017D01*
Y91195D01*
X117998D01*
Y91214D01*
X117979D01*
Y91253D01*
X117960D01*
Y91291D01*
X117941D01*
Y91330D01*
X117921D01*
Y91368D01*
X117902D01*
Y91407D01*
X117883D01*
Y91445D01*
X117864D01*
Y91483D01*
X117844D01*
Y91522D01*
X117825D01*
Y91560D01*
X117806D01*
Y91599D01*
X117787D01*
Y91637D01*
X117768D01*
Y91676D01*
X117748D01*
Y91714D01*
X117729D01*
Y91752D01*
X117710D01*
Y91791D01*
X117691D01*
Y91829D01*
X117672D01*
Y91868D01*
X117652D01*
Y91906D01*
X117633D01*
Y91945D01*
X117614D01*
Y91983D01*
X117595D01*
Y92002D01*
X117576D01*
Y92041D01*
X117556D01*
Y92079D01*
X117537D01*
Y92118D01*
X117518D01*
Y92156D01*
X117499D01*
Y92194D01*
X117479D01*
Y92233D01*
X117460D01*
Y92271D01*
X117441D01*
Y92310D01*
X117422D01*
Y92348D01*
X117403D01*
Y92387D01*
X117383D01*
Y92425D01*
X117364D01*
Y92463D01*
X117345D01*
Y92502D01*
X117326D01*
Y92540D01*
X117306D01*
Y92579D01*
X117287D01*
Y92617D01*
X117268D01*
Y92656D01*
X117249D01*
Y92694D01*
X117230D01*
Y92733D01*
X117210D01*
Y92752D01*
X117191D01*
Y92790D01*
X117172D01*
Y92829D01*
X117153D01*
Y92867D01*
X117133D01*
Y92905D01*
X117114D01*
Y92944D01*
X117095D01*
Y92982D01*
X117076D01*
Y93021D01*
X117057D01*
Y93059D01*
X117037D01*
Y93098D01*
X117018D01*
Y93136D01*
X116999D01*
Y93174D01*
X116980D01*
Y93213D01*
X116961D01*
Y93251D01*
X116941D01*
Y93290D01*
X116922D01*
Y93328D01*
X116903D01*
Y93386D01*
X116922D01*
Y93405D01*
X116941D01*
Y93444D01*
X116961D01*
Y93482D01*
X116980D01*
Y93501D01*
X116999D01*
Y93540D01*
X117018D01*
Y93578D01*
X117037D01*
Y93597D01*
X117057D01*
Y93636D01*
X117076D01*
Y93674D01*
X117095D01*
Y93693D01*
X117114D01*
Y93732D01*
X117133D01*
Y93770D01*
X117153D01*
Y93789D01*
X117172D01*
Y93828D01*
X117191D01*
Y93866D01*
X117210D01*
Y93885D01*
X117230D01*
Y93924D01*
X117249D01*
Y93943D01*
X117268D01*
Y93982D01*
X117287D01*
Y94020D01*
X117306D01*
Y94039D01*
X117326D01*
Y94078D01*
X117345D01*
Y94116D01*
X117364D01*
Y94135D01*
X117383D01*
Y94174D01*
X117403D01*
Y94212D01*
X117422D01*
Y94231D01*
X117441D01*
Y94270D01*
X117460D01*
Y94308D01*
X117479D01*
Y94327D01*
X117499D01*
Y94366D01*
X117518D01*
Y94404D01*
X117537D01*
Y94424D01*
X117556D01*
Y94462D01*
X117576D01*
Y94500D01*
X117595D01*
Y94520D01*
X117614D01*
Y94558D01*
X117633D01*
Y94577D01*
X117652D01*
Y94616D01*
X117672D01*
Y94654D01*
X117691D01*
Y94673D01*
X117710D01*
Y94712D01*
X117729D01*
Y94750D01*
X117748D01*
Y94770D01*
X117768D01*
Y94808D01*
X117787D01*
Y94846D01*
X117806D01*
Y94866D01*
X117825D01*
Y94904D01*
X117844D01*
Y94942D01*
X117864D01*
Y94962D01*
X117883D01*
Y95000D01*
X117902D01*
Y95038D01*
X117921D01*
Y95058D01*
X117941D01*
Y95096D01*
X117960D01*
Y95135D01*
X117979D01*
Y95154D01*
X117998D01*
Y95192D01*
X118017D01*
Y95211D01*
X118037D01*
Y95250D01*
X118056D01*
Y95288D01*
X118075D01*
Y95307D01*
X118094D01*
Y95346D01*
X118114D01*
Y95384D01*
X118133D01*
Y95404D01*
X118152D01*
Y95442D01*
X118171D01*
Y95481D01*
X118190D01*
Y95500D01*
X118210D01*
Y95538D01*
X118229D01*
Y95577D01*
X118248D01*
Y95596D01*
X118267D01*
Y95634D01*
X118287D01*
Y95673D01*
X118306D01*
Y95692D01*
X118325D01*
Y95730D01*
X118344D01*
Y95769D01*
X118363D01*
Y95788D01*
X118383D01*
Y95826D01*
X118402D01*
Y95846D01*
X118421D01*
Y95884D01*
X118440D01*
Y95922D01*
X118459D01*
Y95942D01*
X118479D01*
Y95980D01*
X118498D01*
Y96019D01*
X118517D01*
Y96038D01*
X118536D01*
Y96076D01*
X118555D01*
Y96115D01*
X118575D01*
Y96134D01*
X118594D01*
Y96172D01*
X118613D01*
Y96211D01*
X118632D01*
Y96230D01*
X118652D01*
Y96268D01*
X118671D01*
Y96307D01*
X118690D01*
Y96326D01*
X118709D01*
Y96364D01*
X118728D01*
Y96403D01*
X118748D01*
Y96422D01*
X118767D01*
Y96460D01*
X118786D01*
Y96480D01*
X118805D01*
Y96518D01*
X118825D01*
Y96557D01*
X118844D01*
Y96576D01*
X118863D01*
Y96614D01*
X118882D01*
Y96653D01*
X118901D01*
Y96672D01*
X118921D01*
Y96710D01*
X118940D01*
Y96749D01*
X118959D01*
Y96768D01*
X118978D01*
Y96806D01*
X118998D01*
Y96845D01*
X119017D01*
Y96864D01*
X119036D01*
Y96903D01*
X119055D01*
Y96941D01*
X119074D01*
Y96960D01*
X119094D01*
Y96999D01*
X119113D01*
Y97018D01*
X119132D01*
Y97056D01*
X119151D01*
Y97095D01*
X119170D01*
Y97114D01*
X119190D01*
Y97152D01*
X119209D01*
Y97191D01*
X119228D01*
Y97210D01*
X119247D01*
Y97248D01*
X119266D01*
Y97287D01*
X119286D01*
Y97306D01*
X119305D01*
Y97344D01*
X119324D01*
Y97383D01*
X119343D01*
Y97402D01*
X119363D01*
Y97441D01*
X119382D01*
Y97479D01*
X119401D01*
Y97498D01*
X119420D01*
Y97537D01*
X119439D01*
Y97556D01*
X119459D01*
Y97594D01*
X119478D01*
Y97633D01*
X119497D01*
Y97652D01*
X119516D01*
Y97690D01*
X119536D01*
Y97729D01*
X119555D01*
Y97748D01*
X119574D01*
Y97786D01*
X119593D01*
Y97825D01*
X119612D01*
Y97844D01*
X119632D01*
Y97883D01*
X119651D01*
Y97921D01*
X119670D01*
Y97940D01*
X119689D01*
Y97979D01*
X119709D01*
Y98017D01*
X119728D01*
Y98036D01*
X119747D01*
Y98075D01*
X119766D01*
Y98113D01*
X119785D01*
Y98132D01*
X119805D01*
Y98171D01*
X119824D01*
Y98190D01*
X119843D01*
Y98229D01*
X119862D01*
Y98267D01*
X119881D01*
Y98286D01*
X119901D01*
Y98325D01*
X119920D01*
Y98363D01*
X119939D01*
Y98382D01*
X119958D01*
Y98421D01*
X119978D01*
Y98459D01*
X119997D01*
Y98478D01*
X120016D01*
Y98517D01*
X120035D01*
Y98555D01*
X120054D01*
Y98574D01*
X120074D01*
Y98613D01*
X120093D01*
Y98632D01*
X120112D01*
Y98671D01*
X120131D01*
Y98709D01*
X120150D01*
Y98728D01*
X120170D01*
Y98766D01*
X120804D01*
Y98786D01*
X123437D01*
Y98805D01*
X126396D01*
Y98824D01*
X126434D01*
Y98805D01*
D02*
G37*
G36*
X150993Y94251D02*
X151685D01*
Y94231D01*
X152223D01*
Y94212D01*
X152684D01*
Y94193D01*
X153088D01*
Y94174D01*
X153453D01*
Y94155D01*
X153799D01*
Y94135D01*
X154106D01*
Y94116D01*
X154395D01*
Y94097D01*
X154644D01*
Y94078D01*
X154894D01*
Y94059D01*
X155144D01*
Y94039D01*
X155375D01*
Y94020D01*
X155624D01*
Y94001D01*
X155836D01*
Y93982D01*
X156067D01*
Y93962D01*
X156297D01*
Y93943D01*
X156508D01*
Y93924D01*
X156701D01*
Y93905D01*
X156893D01*
Y93885D01*
X157066D01*
Y93866D01*
X157239D01*
Y93847D01*
X157431D01*
Y93828D01*
X157604D01*
Y93809D01*
X157777D01*
Y93789D01*
X157950D01*
Y93770D01*
X158123D01*
Y93751D01*
X158276D01*
Y93732D01*
X158430D01*
Y93713D01*
X158584D01*
Y93693D01*
X158738D01*
Y93674D01*
X158891D01*
Y93655D01*
X159045D01*
Y93636D01*
X159199D01*
Y93616D01*
X159333D01*
Y93597D01*
X159468D01*
Y93578D01*
X159602D01*
Y93559D01*
X159737D01*
Y93540D01*
X159871D01*
Y93520D01*
X160006D01*
Y93501D01*
X160160D01*
Y93482D01*
X160294D01*
Y93463D01*
X160429D01*
Y93444D01*
X160544D01*
Y93424D01*
X160679D01*
Y93405D01*
X160794D01*
Y93386D01*
X160909D01*
Y93367D01*
X161044D01*
Y93347D01*
X161159D01*
Y93328D01*
X161274D01*
Y93309D01*
X161390D01*
Y93290D01*
X161505D01*
Y93271D01*
X161620D01*
Y93251D01*
X161735D01*
Y93232D01*
X161851D01*
Y93213D01*
X161966D01*
Y93194D01*
X162101D01*
Y93174D01*
X162216D01*
Y93155D01*
X162331D01*
Y93136D01*
X162427D01*
Y93117D01*
X162542D01*
Y93098D01*
X162639D01*
Y93078D01*
X162754D01*
Y93059D01*
X162850D01*
Y93040D01*
X162965D01*
Y93021D01*
X163061D01*
Y93002D01*
X163177D01*
Y92982D01*
X163273D01*
Y92963D01*
X163369D01*
Y92944D01*
X163484D01*
Y92925D01*
X163580D01*
Y92905D01*
X163676D01*
Y92886D01*
X163772D01*
Y92867D01*
X163868D01*
Y92848D01*
X163964D01*
Y92829D01*
X164061D01*
Y92809D01*
X164176D01*
Y92790D01*
X164272D01*
Y92771D01*
X164368D01*
Y92752D01*
X164464D01*
Y92733D01*
X164560D01*
Y92713D01*
X164656D01*
Y92694D01*
X164752D01*
Y92675D01*
X164848D01*
Y92656D01*
X164945D01*
Y92636D01*
X165021D01*
Y92617D01*
X165118D01*
Y92598D01*
X165214D01*
Y92579D01*
X165290D01*
Y92560D01*
X165386D01*
Y92540D01*
X165483D01*
Y92521D01*
X165559D01*
Y92502D01*
X165656D01*
Y92483D01*
X165732D01*
Y92463D01*
X165829D01*
Y92444D01*
X165905D01*
Y92425D01*
X166001D01*
Y92406D01*
X166078D01*
Y92387D01*
X166174D01*
Y92367D01*
X166251D01*
Y92348D01*
X166328D01*
Y92329D01*
X166424D01*
Y92310D01*
X166520D01*
Y92291D01*
X166597D01*
Y92271D01*
X166693D01*
Y92252D01*
X166770D01*
Y92233D01*
X166847D01*
Y92214D01*
X166943D01*
Y92194D01*
X167020D01*
Y92175D01*
X167097D01*
Y92156D01*
X167174D01*
Y92137D01*
X167251D01*
Y92118D01*
X167347D01*
Y92098D01*
X167423D01*
Y92079D01*
X167500D01*
Y92060D01*
X167577D01*
Y92041D01*
X167673D01*
Y92022D01*
X167750D01*
Y92002D01*
X167827D01*
Y91983D01*
X167904D01*
Y91964D01*
X167981D01*
Y91945D01*
X168058D01*
Y91925D01*
X168115D01*
Y91906D01*
X168192D01*
Y91887D01*
X168269D01*
Y91868D01*
X168346D01*
Y91848D01*
X168423D01*
Y91829D01*
X168500D01*
Y91810D01*
X168577D01*
Y91791D01*
X168653D01*
Y91772D01*
X168730D01*
Y91752D01*
X168807D01*
Y91733D01*
X168865D01*
Y91714D01*
X168942D01*
Y91695D01*
X169018D01*
Y91676D01*
X169095D01*
Y91656D01*
X169172D01*
Y91637D01*
X169249D01*
Y91618D01*
X169307D01*
Y91599D01*
X169384D01*
Y91580D01*
X169460D01*
Y91560D01*
X169537D01*
Y91541D01*
X169614D01*
Y91522D01*
X169691D01*
Y91503D01*
X169749D01*
Y91483D01*
X169826D01*
Y91464D01*
X169903D01*
Y91445D01*
X169960D01*
Y91426D01*
X170037D01*
Y91407D01*
X170095D01*
Y91387D01*
X170171D01*
Y91368D01*
X170229D01*
Y91349D01*
X170306D01*
Y91330D01*
X170383D01*
Y91311D01*
X170440D01*
Y91291D01*
X170517D01*
Y91272D01*
X170575D01*
Y91253D01*
X170652D01*
Y91234D01*
X170710D01*
Y91214D01*
X170786D01*
Y91195D01*
X170844D01*
Y91176D01*
X170921D01*
Y91157D01*
X170979D01*
Y91137D01*
X171055D01*
Y91118D01*
X171113D01*
Y91099D01*
X171190D01*
Y91080D01*
X171248D01*
Y91061D01*
X171325D01*
Y91041D01*
X171382D01*
Y91022D01*
X171459D01*
Y91003D01*
X171517D01*
Y90984D01*
X171574D01*
Y90965D01*
X171632D01*
Y90945D01*
X171709D01*
Y90926D01*
X171766D01*
Y90907D01*
X171824D01*
Y90888D01*
X171901D01*
Y90869D01*
X171959D01*
Y90849D01*
X172016D01*
Y90830D01*
X172093D01*
Y90811D01*
X172151D01*
Y90792D01*
X172208D01*
Y90772D01*
X172266D01*
Y90753D01*
X172343D01*
Y90734D01*
X172401D01*
Y90715D01*
X172458D01*
Y90696D01*
X172535D01*
Y90676D01*
X172593D01*
Y90657D01*
X172650D01*
Y90638D01*
X172708D01*
Y90619D01*
X172785D01*
Y90600D01*
X172843D01*
Y90580D01*
X172900D01*
Y90561D01*
X172958D01*
Y90542D01*
X173016D01*
Y90523D01*
X173092D01*
Y90503D01*
X173150D01*
Y90484D01*
X173208D01*
Y90465D01*
X173265D01*
Y90446D01*
X173323D01*
Y90426D01*
X173400D01*
Y90407D01*
X173458D01*
Y90388D01*
X173515D01*
Y90369D01*
X173573D01*
Y90350D01*
X173630D01*
Y90330D01*
X173688D01*
Y90311D01*
X173746D01*
Y90292D01*
X173803D01*
Y90273D01*
X173880D01*
Y90254D01*
X173938D01*
Y90234D01*
X173996D01*
Y90215D01*
X174053D01*
Y90196D01*
X174111D01*
Y90177D01*
X174169D01*
Y90158D01*
X174226D01*
Y90138D01*
X174284D01*
Y90119D01*
X174341D01*
Y90100D01*
X174399D01*
Y90081D01*
X174457D01*
Y90061D01*
X174514D01*
Y90042D01*
X174572D01*
Y90023D01*
X174630D01*
Y90004D01*
X174687D01*
Y89985D01*
X174745D01*
Y89965D01*
X174803D01*
Y89946D01*
X174860D01*
Y89927D01*
X174918D01*
Y89908D01*
X174976D01*
Y89888D01*
X175033D01*
Y89869D01*
X175091D01*
Y89850D01*
X175129D01*
Y89831D01*
X175187D01*
Y89812D01*
X175245D01*
Y89792D01*
X175302D01*
Y89773D01*
X175360D01*
Y89754D01*
X175418D01*
Y89735D01*
X175475D01*
Y89715D01*
X175533D01*
Y89696D01*
X175591D01*
Y89677D01*
X175629D01*
Y89658D01*
X175687D01*
Y89639D01*
X175744D01*
Y89619D01*
X175802D01*
Y89600D01*
X175860D01*
Y89581D01*
X175917D01*
Y89562D01*
X175956D01*
Y89543D01*
X176013D01*
Y89523D01*
X176071D01*
Y89504D01*
X176129D01*
Y89485D01*
X176186D01*
Y89466D01*
X176244D01*
Y89447D01*
X176282D01*
Y89427D01*
X176340D01*
Y89408D01*
X176398D01*
Y89389D01*
X176455D01*
Y89370D01*
X176513D01*
Y89350D01*
X176551D01*
Y89331D01*
X176609D01*
Y89312D01*
X176667D01*
Y89293D01*
X176724D01*
Y89274D01*
X176782D01*
Y89254D01*
X176821D01*
Y89235D01*
X176878D01*
Y89216D01*
X176936D01*
Y89197D01*
X176993D01*
Y89177D01*
X177032D01*
Y89158D01*
X177090D01*
Y89139D01*
X177147D01*
Y89120D01*
X177186D01*
Y89100D01*
X177243D01*
Y89081D01*
X177301D01*
Y89062D01*
X177339D01*
Y89043D01*
X177397D01*
Y89024D01*
X177455D01*
Y89004D01*
X177493D01*
Y88985D01*
X177551D01*
Y88966D01*
X177608D01*
Y88947D01*
X177647D01*
Y88928D01*
X177704D01*
Y88908D01*
X177762D01*
Y88889D01*
X177801D01*
Y88870D01*
X177858D01*
Y88851D01*
X177916D01*
Y88832D01*
X177954D01*
Y88812D01*
X178012D01*
Y88793D01*
X178069D01*
Y88774D01*
X178108D01*
Y88755D01*
X178166D01*
Y88735D01*
X178223D01*
Y88716D01*
X178262D01*
Y88697D01*
X178319D01*
Y88678D01*
X178377D01*
Y88659D01*
X178415D01*
Y88639D01*
X178473D01*
Y88620D01*
X178512D01*
Y88601D01*
X178569D01*
Y88582D01*
X178627D01*
Y88563D01*
X178665D01*
Y88543D01*
X178723D01*
Y88524D01*
X178761D01*
Y88505D01*
X178819D01*
Y88486D01*
X178857D01*
Y88466D01*
X178915D01*
Y88447D01*
X178954D01*
Y88428D01*
X179011D01*
Y88409D01*
X179050D01*
Y88389D01*
X179107D01*
Y88370D01*
X179146D01*
Y88351D01*
X179203D01*
Y88332D01*
X179242D01*
Y88313D01*
X179299D01*
Y88293D01*
X179338D01*
Y88274D01*
X179395D01*
Y88255D01*
X179434D01*
Y88236D01*
X179492D01*
Y88217D01*
X179530D01*
Y88197D01*
X179588D01*
Y88178D01*
X179626D01*
Y88159D01*
X179684D01*
Y88140D01*
X179722D01*
Y88121D01*
X179761D01*
Y88101D01*
X179818D01*
Y88082D01*
X179857D01*
Y88063D01*
X179914D01*
Y88044D01*
X179953D01*
Y88024D01*
X180010D01*
Y88005D01*
X180049D01*
Y87986D01*
X180087D01*
Y87967D01*
X180145D01*
Y87948D01*
X180183D01*
Y87928D01*
X180241D01*
Y87909D01*
X180280D01*
Y87890D01*
X180318D01*
Y87871D01*
X180376D01*
Y87852D01*
X180414D01*
Y87832D01*
X180472D01*
Y87813D01*
X180510D01*
Y87794D01*
X180549D01*
Y87775D01*
X180606D01*
Y87755D01*
X180645D01*
Y87736D01*
X180702D01*
Y87717D01*
X180741D01*
Y87698D01*
X180779D01*
Y87678D01*
X180837D01*
Y87659D01*
X180875D01*
Y87640D01*
X180914D01*
Y87621D01*
X180971D01*
Y87602D01*
X181010D01*
Y87582D01*
X181067D01*
Y87563D01*
X181106D01*
Y87544D01*
X181144D01*
Y87525D01*
X181202D01*
Y87506D01*
X181240D01*
Y87486D01*
X181279D01*
Y87467D01*
X181336D01*
Y87448D01*
X181375D01*
Y87429D01*
X181432D01*
Y87410D01*
X181471D01*
Y87390D01*
X181509D01*
Y87371D01*
X181567D01*
Y87352D01*
X181605D01*
Y87333D01*
X181644D01*
Y87313D01*
X181702D01*
Y87294D01*
X181740D01*
Y87275D01*
X181798D01*
Y87256D01*
X181836D01*
Y87236D01*
X181874D01*
Y87217D01*
X181932D01*
Y87198D01*
X181971D01*
Y87179D01*
X182009D01*
Y87160D01*
X182067D01*
Y87140D01*
X182105D01*
Y87121D01*
X182143D01*
Y87102D01*
X182201D01*
Y87083D01*
X182240D01*
Y87064D01*
X182278D01*
Y87044D01*
X182336D01*
Y87025D01*
X182374D01*
Y87006D01*
X182413D01*
Y86987D01*
X182470D01*
Y86967D01*
X182509D01*
Y86948D01*
X182547D01*
Y86929D01*
X182605D01*
Y86910D01*
X182643D01*
Y86891D01*
X182682D01*
Y86871D01*
X182720D01*
Y86852D01*
X182778D01*
Y86833D01*
X182816D01*
Y86814D01*
X182854D01*
Y86795D01*
X182912D01*
Y86775D01*
X182951D01*
Y86756D01*
X182989D01*
Y86737D01*
X183027D01*
Y86718D01*
X183066D01*
Y86699D01*
X183124D01*
Y86679D01*
X183162D01*
Y86660D01*
X183200D01*
Y86641D01*
X183239D01*
Y86622D01*
X183277D01*
Y86602D01*
X183335D01*
Y86583D01*
X183373D01*
Y86564D01*
X183412D01*
Y86545D01*
X183450D01*
Y86525D01*
X183489D01*
Y86506D01*
X183546D01*
Y86487D01*
X183585D01*
Y86468D01*
X183623D01*
Y86449D01*
X183662D01*
Y86429D01*
X183700D01*
Y86410D01*
X183758D01*
Y86391D01*
X183796D01*
Y86372D01*
X183835D01*
Y86353D01*
X183873D01*
Y86333D01*
X183911D01*
Y86314D01*
X183950D01*
Y86295D01*
X184008D01*
Y86276D01*
X184046D01*
Y86256D01*
X184084D01*
Y86237D01*
X184123D01*
Y86218D01*
X184161D01*
Y86199D01*
X184219D01*
Y86180D01*
X184257D01*
Y86160D01*
X184296D01*
Y86141D01*
X184334D01*
Y86122D01*
X184373D01*
Y86103D01*
X184411D01*
Y86084D01*
X184450D01*
Y86064D01*
X184507D01*
Y86045D01*
X184546D01*
Y86026D01*
X184584D01*
Y86007D01*
X184622D01*
Y85988D01*
X184661D01*
Y85968D01*
X184699D01*
Y85949D01*
X184738D01*
Y85930D01*
X184776D01*
Y85911D01*
X184815D01*
Y85891D01*
X184872D01*
Y85872D01*
X184911D01*
Y85853D01*
X184949D01*
Y85834D01*
X184987D01*
Y85814D01*
X185026D01*
Y85795D01*
X185064D01*
Y85776D01*
X185103D01*
Y85757D01*
X185141D01*
Y85738D01*
X185199D01*
Y85718D01*
X185237D01*
Y85699D01*
X185276D01*
Y85680D01*
X185314D01*
Y85661D01*
X185353D01*
Y85641D01*
X185391D01*
Y85622D01*
X185430D01*
Y85603D01*
X185468D01*
Y85584D01*
X185506D01*
Y85565D01*
X185545D01*
Y85545D01*
X185602D01*
Y85526D01*
X185641D01*
Y85507D01*
X185679D01*
Y85488D01*
X185718D01*
Y85469D01*
X185756D01*
Y85449D01*
X185795D01*
Y85430D01*
X185833D01*
Y85411D01*
X185872D01*
Y85392D01*
X185910D01*
Y85373D01*
X185948D01*
Y85353D01*
X185987D01*
Y85334D01*
X186025D01*
Y85315D01*
X186064D01*
Y85296D01*
X186102D01*
Y85276D01*
X186121D01*
Y85238D01*
X186102D01*
Y85200D01*
X186083D01*
Y85161D01*
X186064D01*
Y85123D01*
X186045D01*
Y85084D01*
X186025D01*
Y85046D01*
X186006D01*
Y85007D01*
X185987D01*
Y84969D01*
X185968D01*
Y84930D01*
X185948D01*
Y84911D01*
X185929D01*
Y84873D01*
X185910D01*
Y84834D01*
X185891D01*
Y84796D01*
X185872D01*
Y84777D01*
X185852D01*
Y84738D01*
X185833D01*
Y84700D01*
X185814D01*
Y84681D01*
X185795D01*
Y84642D01*
X185775D01*
Y84623D01*
X185756D01*
Y84585D01*
X185737D01*
Y84546D01*
X185718D01*
Y84527D01*
X185699D01*
Y84488D01*
X185679D01*
Y84469D01*
X185660D01*
Y84431D01*
X185641D01*
Y84412D01*
X185622D01*
Y84373D01*
X185564D01*
Y84392D01*
X185526D01*
Y84412D01*
X185487D01*
Y84431D01*
X185449D01*
Y84450D01*
X185410D01*
Y84469D01*
X185372D01*
Y84488D01*
X185314D01*
Y84508D01*
X185276D01*
Y84527D01*
X185237D01*
Y84546D01*
X185199D01*
Y84565D01*
X185161D01*
Y84585D01*
X185103D01*
Y84604D01*
X185064D01*
Y84623D01*
X185026D01*
Y84642D01*
X184987D01*
Y84662D01*
X184930D01*
Y84681D01*
X184891D01*
Y84700D01*
X184853D01*
Y84719D01*
X184815D01*
Y84738D01*
X184776D01*
Y84758D01*
X184719D01*
Y84777D01*
X184680D01*
Y84796D01*
X184642D01*
Y84815D01*
X184603D01*
Y84834D01*
X184546D01*
Y84854D01*
X184507D01*
Y84873D01*
X184469D01*
Y84892D01*
X184430D01*
Y84911D01*
X184373D01*
Y84930D01*
X184334D01*
Y84950D01*
X184296D01*
Y84969D01*
X184238D01*
Y84988D01*
X184200D01*
Y85007D01*
X184161D01*
Y85027D01*
X184123D01*
Y85046D01*
X184065D01*
Y85065D01*
X184027D01*
Y85084D01*
X183988D01*
Y85103D01*
X183931D01*
Y85123D01*
X183892D01*
Y85142D01*
X183854D01*
Y85161D01*
X183815D01*
Y85180D01*
X183758D01*
Y85200D01*
X183719D01*
Y85219D01*
X183681D01*
Y85238D01*
X183623D01*
Y85257D01*
X183585D01*
Y85276D01*
X183527D01*
Y85296D01*
X183489D01*
Y85315D01*
X183450D01*
Y85334D01*
X183393D01*
Y85353D01*
X183354D01*
Y85373D01*
X183316D01*
Y85392D01*
X183258D01*
Y85411D01*
X183220D01*
Y85430D01*
X183181D01*
Y85449D01*
X183124D01*
Y85469D01*
X183085D01*
Y85488D01*
X183047D01*
Y85507D01*
X182989D01*
Y85526D01*
X182951D01*
Y85545D01*
X182893D01*
Y85565D01*
X182854D01*
Y85584D01*
X182816D01*
Y85603D01*
X182758D01*
Y85622D01*
X182720D01*
Y85641D01*
X182662D01*
Y85661D01*
X182624D01*
Y85680D01*
X182586D01*
Y85699D01*
X182528D01*
Y85718D01*
X182489D01*
Y85738D01*
X182432D01*
Y85757D01*
X182393D01*
Y85776D01*
X182355D01*
Y85795D01*
X182297D01*
Y85814D01*
X182259D01*
Y85834D01*
X182201D01*
Y85853D01*
X182163D01*
Y85872D01*
X182105D01*
Y85891D01*
X182067D01*
Y85911D01*
X182028D01*
Y85930D01*
X181971D01*
Y85949D01*
X181932D01*
Y85968D01*
X181874D01*
Y85988D01*
X181836D01*
Y86007D01*
X181778D01*
Y86026D01*
X181740D01*
Y86045D01*
X181682D01*
Y86064D01*
X181644D01*
Y86084D01*
X181605D01*
Y86103D01*
X181548D01*
Y86122D01*
X181509D01*
Y86141D01*
X181452D01*
Y86160D01*
X181413D01*
Y86180D01*
X181356D01*
Y86199D01*
X181317D01*
Y86218D01*
X181260D01*
Y86237D01*
X181221D01*
Y86256D01*
X181163D01*
Y86276D01*
X181125D01*
Y86295D01*
X181067D01*
Y86314D01*
X181029D01*
Y86333D01*
X180971D01*
Y86353D01*
X180933D01*
Y86372D01*
X180875D01*
Y86391D01*
X180837D01*
Y86410D01*
X180779D01*
Y86429D01*
X180721D01*
Y86449D01*
X180683D01*
Y86468D01*
X180625D01*
Y86487D01*
X180587D01*
Y86506D01*
X180529D01*
Y86525D01*
X180491D01*
Y86545D01*
X180433D01*
Y86564D01*
X180395D01*
Y86583D01*
X180337D01*
Y86602D01*
X180280D01*
Y86622D01*
X180241D01*
Y86641D01*
X180183D01*
Y86660D01*
X180145D01*
Y86679D01*
X180087D01*
Y86699D01*
X180049D01*
Y86718D01*
X179991D01*
Y86737D01*
X179934D01*
Y86756D01*
X179895D01*
Y86775D01*
X179838D01*
Y86795D01*
X179780D01*
Y86814D01*
X179741D01*
Y86833D01*
X179684D01*
Y86852D01*
X179645D01*
Y86871D01*
X179588D01*
Y86891D01*
X179530D01*
Y86910D01*
X179492D01*
Y86929D01*
X179434D01*
Y86948D01*
X179376D01*
Y86967D01*
X179338D01*
Y86987D01*
X179280D01*
Y87006D01*
X179223D01*
Y87025D01*
X179165D01*
Y87044D01*
X179127D01*
Y87064D01*
X179069D01*
Y87083D01*
X179011D01*
Y87102D01*
X178973D01*
Y87121D01*
X178915D01*
Y87140D01*
X178857D01*
Y87160D01*
X178800D01*
Y87179D01*
X178761D01*
Y87198D01*
X178704D01*
Y87217D01*
X178646D01*
Y87236D01*
X178588D01*
Y87256D01*
X178550D01*
Y87275D01*
X178492D01*
Y87294D01*
X178435D01*
Y87313D01*
X178377D01*
Y87333D01*
X178339D01*
Y87352D01*
X178281D01*
Y87371D01*
X178223D01*
Y87390D01*
X178166D01*
Y87410D01*
X178108D01*
Y87429D01*
X178069D01*
Y87448D01*
X178012D01*
Y87467D01*
X177954D01*
Y87486D01*
X177897D01*
Y87506D01*
X177858D01*
Y87525D01*
X177801D01*
Y87544D01*
X177743D01*
Y87563D01*
X177685D01*
Y87582D01*
X177628D01*
Y87602D01*
X177570D01*
Y87621D01*
X177532D01*
Y87640D01*
X177474D01*
Y87659D01*
X177416D01*
Y87678D01*
X177358D01*
Y87698D01*
X177301D01*
Y87717D01*
X177243D01*
Y87736D01*
X177186D01*
Y87755D01*
X177147D01*
Y87775D01*
X177090D01*
Y87794D01*
X177032D01*
Y87813D01*
X176974D01*
Y87832D01*
X176917D01*
Y87852D01*
X176859D01*
Y87871D01*
X176801D01*
Y87890D01*
X176744D01*
Y87909D01*
X176686D01*
Y87928D01*
X176628D01*
Y87948D01*
X176571D01*
Y87967D01*
X176513D01*
Y87986D01*
X176455D01*
Y88005D01*
X176398D01*
Y88024D01*
X176340D01*
Y88044D01*
X176282D01*
Y88063D01*
X176225D01*
Y88082D01*
X176167D01*
Y88101D01*
X176109D01*
Y88121D01*
X176052D01*
Y88140D01*
X175994D01*
Y88159D01*
X175936D01*
Y88178D01*
X175879D01*
Y88197D01*
X175821D01*
Y88217D01*
X175763D01*
Y88236D01*
X175706D01*
Y88255D01*
X175648D01*
Y88274D01*
X175591D01*
Y88293D01*
X175533D01*
Y88313D01*
X175456D01*
Y88332D01*
X175398D01*
Y88351D01*
X175341D01*
Y88370D01*
X175283D01*
Y88389D01*
X175225D01*
Y88409D01*
X175168D01*
Y88428D01*
X175110D01*
Y88447D01*
X175052D01*
Y88466D01*
X174976D01*
Y88486D01*
X174918D01*
Y88505D01*
X174860D01*
Y88524D01*
X174803D01*
Y88543D01*
X174745D01*
Y88563D01*
X174687D01*
Y88582D01*
X174610D01*
Y88601D01*
X174553D01*
Y88620D01*
X174495D01*
Y88639D01*
X174438D01*
Y88659D01*
X174361D01*
Y88678D01*
X174303D01*
Y88697D01*
X174245D01*
Y88716D01*
X174188D01*
Y88735D01*
X174111D01*
Y88755D01*
X174053D01*
Y88774D01*
X173996D01*
Y88793D01*
X173938D01*
Y88812D01*
X173861D01*
Y88832D01*
X173803D01*
Y88851D01*
X173746D01*
Y88870D01*
X173669D01*
Y88889D01*
X173611D01*
Y88908D01*
X173534D01*
Y88928D01*
X173477D01*
Y88947D01*
X173419D01*
Y88966D01*
X173342D01*
Y88985D01*
X173285D01*
Y89004D01*
X173208D01*
Y89024D01*
X173150D01*
Y89043D01*
X173092D01*
Y89062D01*
X173016D01*
Y89081D01*
X172958D01*
Y89100D01*
X172881D01*
Y89120D01*
X172823D01*
Y89139D01*
X172747D01*
Y89158D01*
X172689D01*
Y89177D01*
X172612D01*
Y89197D01*
X172554D01*
Y89216D01*
X172477D01*
Y89235D01*
X172420D01*
Y89254D01*
X172343D01*
Y89274D01*
X172266D01*
Y89293D01*
X172208D01*
Y89312D01*
X172132D01*
Y89331D01*
X172074D01*
Y89350D01*
X171997D01*
Y89370D01*
X171939D01*
Y89389D01*
X171863D01*
Y89408D01*
X171786D01*
Y89427D01*
X171728D01*
Y89447D01*
X171651D01*
Y89466D01*
X171593D01*
Y89485D01*
X171517D01*
Y89504D01*
X171459D01*
Y89523D01*
X171382D01*
Y89543D01*
X171305D01*
Y89562D01*
X171228D01*
Y89581D01*
X171151D01*
Y89600D01*
X171094D01*
Y89619D01*
X171017D01*
Y89639D01*
X170940D01*
Y89658D01*
X170863D01*
Y89677D01*
X170806D01*
Y89696D01*
X170729D01*
Y89715D01*
X170652D01*
Y89735D01*
X170575D01*
Y89754D01*
X170498D01*
Y89773D01*
X170421D01*
Y89792D01*
X170344D01*
Y89812D01*
X170268D01*
Y89831D01*
X170191D01*
Y89850D01*
X170114D01*
Y89869D01*
X170037D01*
Y89888D01*
X169960D01*
Y89908D01*
X169903D01*
Y89927D01*
X169826D01*
Y89946D01*
X169749D01*
Y89965D01*
X169672D01*
Y89985D01*
X169595D01*
Y90004D01*
X169499D01*
Y90023D01*
X169422D01*
Y90042D01*
X169345D01*
Y90061D01*
X169268D01*
Y90081D01*
X169191D01*
Y90100D01*
X169115D01*
Y90119D01*
X169038D01*
Y90138D01*
X168942D01*
Y90158D01*
X168865D01*
Y90177D01*
X168788D01*
Y90196D01*
X168711D01*
Y90215D01*
X168634D01*
Y90234D01*
X168557D01*
Y90254D01*
X168461D01*
Y90273D01*
X168384D01*
Y90292D01*
X168288D01*
Y90311D01*
X168211D01*
Y90330D01*
X168134D01*
Y90350D01*
X168038D01*
Y90369D01*
X167962D01*
Y90388D01*
X167866D01*
Y90407D01*
X167789D01*
Y90426D01*
X167712D01*
Y90446D01*
X167616D01*
Y90465D01*
X167539D01*
Y90484D01*
X167443D01*
Y90503D01*
X167366D01*
Y90523D01*
X167270D01*
Y90542D01*
X167174D01*
Y90561D01*
X167078D01*
Y90580D01*
X167001D01*
Y90600D01*
X166905D01*
Y90619D01*
X166809D01*
Y90638D01*
X166712D01*
Y90657D01*
X166636D01*
Y90676D01*
X166540D01*
Y90696D01*
X166444D01*
Y90715D01*
X166347D01*
Y90734D01*
X166251D01*
Y90753D01*
X166174D01*
Y90772D01*
X166078D01*
Y90792D01*
X165982D01*
Y90811D01*
X165867D01*
Y90830D01*
X165771D01*
Y90849D01*
X165675D01*
Y90869D01*
X165579D01*
Y90888D01*
X165483D01*
Y90907D01*
X165386D01*
Y90926D01*
X165290D01*
Y90945D01*
X165175D01*
Y90965D01*
X165079D01*
Y90984D01*
X164983D01*
Y91003D01*
X164868D01*
Y91022D01*
X164772D01*
Y91041D01*
X164675D01*
Y91061D01*
X164560D01*
Y91080D01*
X164464D01*
Y91099D01*
X164349D01*
Y91118D01*
X164234D01*
Y91137D01*
X164137D01*
Y91157D01*
X164022D01*
Y91176D01*
X163907D01*
Y91195D01*
X163792D01*
Y91214D01*
X163696D01*
Y91234D01*
X163580D01*
Y91253D01*
X163465D01*
Y91272D01*
X163350D01*
Y91291D01*
X163234D01*
Y91311D01*
X163119D01*
Y91330D01*
X162985D01*
Y91349D01*
X162869D01*
Y91368D01*
X162754D01*
Y91387D01*
X162619D01*
Y91407D01*
X162485D01*
Y91426D01*
X162350D01*
Y91445D01*
X162216D01*
Y91464D01*
X162101D01*
Y91483D01*
X161966D01*
Y91503D01*
X161831D01*
Y91522D01*
X161697D01*
Y91541D01*
X161562D01*
Y91560D01*
X161428D01*
Y91580D01*
X161293D01*
Y91599D01*
X161159D01*
Y91618D01*
X161024D01*
Y91637D01*
X160871D01*
Y91656D01*
X160736D01*
Y91676D01*
X160582D01*
Y91695D01*
X160448D01*
Y91714D01*
X160275D01*
Y91733D01*
X160121D01*
Y91752D01*
X159948D01*
Y91772D01*
X159794D01*
Y91791D01*
X159622D01*
Y91810D01*
X159468D01*
Y91829D01*
X159295D01*
Y91848D01*
X159122D01*
Y91868D01*
X158930D01*
Y91887D01*
X158738D01*
Y91906D01*
X158545D01*
Y91925D01*
X158353D01*
Y91945D01*
X158180D01*
Y91964D01*
X157969D01*
Y91983D01*
X157757D01*
Y92002D01*
X157527D01*
Y92022D01*
X157296D01*
Y92041D01*
X157085D01*
Y92060D01*
X156854D01*
Y92079D01*
X156605D01*
Y92098D01*
X156335D01*
Y92118D01*
X155990D01*
Y92137D01*
X155682D01*
Y92156D01*
X155355D01*
Y92175D01*
X155009D01*
Y92194D01*
X154664D01*
Y92214D01*
X154222D01*
Y92233D01*
X153741D01*
Y92252D01*
X153184D01*
Y92271D01*
X152146D01*
Y92291D01*
X150340D01*
Y92271D01*
X149302D01*
Y92252D01*
X148668D01*
Y92233D01*
X148053D01*
Y92252D01*
X147995D01*
Y92271D01*
X147938D01*
Y92291D01*
X147899D01*
Y92310D01*
X147842D01*
Y92329D01*
X147803D01*
Y92348D01*
X147746D01*
Y92367D01*
X147707D01*
Y92387D01*
X147669D01*
Y92406D01*
X147650D01*
Y92425D01*
X147611D01*
Y92444D01*
X147592D01*
Y92463D01*
X147573D01*
Y92483D01*
X147534D01*
Y92502D01*
X147515D01*
Y92521D01*
X147496D01*
Y92540D01*
X147477D01*
Y92560D01*
X147457D01*
Y92579D01*
X147438D01*
Y92617D01*
X147419D01*
Y92636D01*
X147400D01*
Y92656D01*
X147380D01*
Y92694D01*
X147361D01*
Y92713D01*
X147342D01*
Y92752D01*
X147323D01*
Y92790D01*
X147304D01*
Y92829D01*
X147284D01*
Y92886D01*
X147265D01*
Y92944D01*
X147246D01*
Y93002D01*
X147227D01*
Y93098D01*
X147208D01*
Y93386D01*
X147227D01*
Y93482D01*
X147246D01*
Y93559D01*
X147265D01*
Y93597D01*
X147284D01*
Y93655D01*
X147304D01*
Y93693D01*
X147323D01*
Y93732D01*
X147342D01*
Y93770D01*
X147361D01*
Y93809D01*
X147380D01*
Y93828D01*
X147400D01*
Y93847D01*
X147419D01*
Y93885D01*
X147438D01*
Y93905D01*
X147457D01*
Y93924D01*
X147477D01*
Y93943D01*
X147496D01*
Y93962D01*
X147515D01*
Y93982D01*
X147534D01*
Y94001D01*
X147554D01*
Y94020D01*
X147573D01*
Y94039D01*
X147592D01*
Y94059D01*
X147611D01*
Y94078D01*
X147650D01*
Y94097D01*
X147669D01*
Y94116D01*
X147707D01*
Y94135D01*
X147746D01*
Y94155D01*
X147784D01*
Y94174D01*
X147822D01*
Y94193D01*
X147880D01*
Y94212D01*
X147938D01*
Y94231D01*
X147995D01*
Y94251D01*
X148111D01*
Y94270D01*
X150993D01*
Y94251D01*
D02*
G37*
G36*
X212852Y85027D02*
X213025D01*
Y85007D01*
X213140D01*
Y84988D01*
X213198D01*
Y84969D01*
X213236D01*
Y84950D01*
X213275D01*
Y84930D01*
X213313D01*
Y84911D01*
X213351D01*
Y84892D01*
X213390D01*
Y84873D01*
X213409D01*
Y84854D01*
X213428D01*
Y84834D01*
X213447D01*
Y84815D01*
X213467D01*
Y84796D01*
X213486D01*
Y84777D01*
X213505D01*
Y84758D01*
X213524D01*
Y84738D01*
X213544D01*
Y84700D01*
X213563D01*
Y84681D01*
X213582D01*
Y84642D01*
X213601D01*
Y84604D01*
X213620D01*
Y84565D01*
X213640D01*
Y84508D01*
X213659D01*
Y84469D01*
X213678D01*
Y84412D01*
X213697D01*
Y84354D01*
X213717D01*
Y84277D01*
X213736D01*
Y84219D01*
X213755D01*
Y84123D01*
X213774D01*
Y84027D01*
X213793D01*
Y83912D01*
X213812D01*
Y83816D01*
X213832D01*
Y83701D01*
X213851D01*
Y83566D01*
X213870D01*
Y83451D01*
X213889D01*
Y83316D01*
X213909D01*
Y83201D01*
X213928D01*
Y83066D01*
X213947D01*
Y82932D01*
X213966D01*
Y82797D01*
X213985D01*
Y82682D01*
X214005D01*
Y82548D01*
X214024D01*
Y82413D01*
X214043D01*
Y82279D01*
X214062D01*
Y82144D01*
X214082D01*
Y82125D01*
X214447D01*
Y82106D01*
X214600D01*
Y82086D01*
X214697D01*
Y82067D01*
X214754D01*
Y82048D01*
X214831D01*
Y82029D01*
X214869D01*
Y82010D01*
X214927D01*
Y81990D01*
X214966D01*
Y81971D01*
X215004D01*
Y81952D01*
X215042D01*
Y81933D01*
X215062D01*
Y81914D01*
X215100D01*
Y81894D01*
X215119D01*
Y81875D01*
X215139D01*
Y81856D01*
X215158D01*
Y81837D01*
X215177D01*
Y81817D01*
X215196D01*
Y81798D01*
X215215D01*
Y81779D01*
X215235D01*
Y81741D01*
X215254D01*
Y81721D01*
X215273D01*
Y81683D01*
X215292D01*
Y81644D01*
X215311D01*
Y81606D01*
X215331D01*
Y81568D01*
X215350D01*
Y81529D01*
X215369D01*
Y81472D01*
X215388D01*
Y81433D01*
X215407D01*
Y81375D01*
X215427D01*
Y81299D01*
X215446D01*
Y81241D01*
X215465D01*
Y81183D01*
X215484D01*
Y81106D01*
X215504D01*
Y81029D01*
X215523D01*
Y80933D01*
X215542D01*
Y80837D01*
X215561D01*
Y80741D01*
X215581D01*
Y80645D01*
X215600D01*
Y80568D01*
X215619D01*
Y80472D01*
X215638D01*
Y80357D01*
X215657D01*
Y80299D01*
X214331D01*
Y80165D01*
X214351D01*
Y80030D01*
X214370D01*
Y79896D01*
X214389D01*
Y79761D01*
X214408D01*
Y79627D01*
X214427D01*
Y79492D01*
X214447D01*
Y79358D01*
X214466D01*
Y79223D01*
X214485D01*
Y79089D01*
X214504D01*
Y78973D01*
X214524D01*
Y78839D01*
X214543D01*
Y78704D01*
X214562D01*
Y78570D01*
X214581D01*
Y78512D01*
X214793D01*
Y78493D01*
X214946D01*
Y78474D01*
X215042D01*
Y78455D01*
X215119D01*
Y78435D01*
X215177D01*
Y78416D01*
X215235D01*
Y78397D01*
X215292D01*
Y78378D01*
X215350D01*
Y78358D01*
X215369D01*
Y78339D01*
X215407D01*
Y78320D01*
X215446D01*
Y78301D01*
X215484D01*
Y78282D01*
X215504D01*
Y78262D01*
X215523D01*
Y78243D01*
X215542D01*
Y78224D01*
X215561D01*
Y78205D01*
X215581D01*
Y78185D01*
X215600D01*
Y78166D01*
X215619D01*
Y78147D01*
X215638D01*
Y78109D01*
X215657D01*
Y78089D01*
X215677D01*
Y78051D01*
X215696D01*
Y78013D01*
X215715D01*
Y77974D01*
X215734D01*
Y77936D01*
X215753D01*
Y77878D01*
X215773D01*
Y77820D01*
X215792D01*
Y77763D01*
X215811D01*
Y77705D01*
X215830D01*
Y77647D01*
X215849D01*
Y77571D01*
X215869D01*
Y77474D01*
X215888D01*
Y77398D01*
X215907D01*
Y77302D01*
X215926D01*
Y77205D01*
X215946D01*
Y77109D01*
X215965D01*
Y77013D01*
X215984D01*
Y76917D01*
X216003D01*
Y76821D01*
X216022D01*
Y76706D01*
X216042D01*
Y76687D01*
X214831D01*
Y76610D01*
X214850D01*
Y76475D01*
X214869D01*
Y76360D01*
X214889D01*
Y76225D01*
X214908D01*
Y76091D01*
X214927D01*
Y75976D01*
X214946D01*
Y75841D01*
X214966D01*
Y75706D01*
X214985D01*
Y75572D01*
X215004D01*
Y75418D01*
X215023D01*
Y75284D01*
X215042D01*
Y75149D01*
X215062D01*
Y74995D01*
X215081D01*
Y74861D01*
X215100D01*
Y74707D01*
X215119D01*
Y74573D01*
X215139D01*
Y74419D01*
X215158D01*
Y74284D01*
X215177D01*
Y74150D01*
X215196D01*
Y73996D01*
X215215D01*
Y73900D01*
X214889D01*
Y73919D01*
X214331D01*
Y73939D01*
X214120D01*
Y73958D01*
X213985D01*
Y73977D01*
X213909D01*
Y73996D01*
X213832D01*
Y74015D01*
X213774D01*
Y74035D01*
X213736D01*
Y74054D01*
X213697D01*
Y74073D01*
X213659D01*
Y74092D01*
X213640D01*
Y74111D01*
X213601D01*
Y74131D01*
X213582D01*
Y74150D01*
X213563D01*
Y74169D01*
X213544D01*
Y74188D01*
X213524D01*
Y74208D01*
X213505D01*
Y74227D01*
X213486D01*
Y74246D01*
X213467D01*
Y74265D01*
X213447D01*
Y74304D01*
X213428D01*
Y74342D01*
X213409D01*
Y74381D01*
X213390D01*
Y74419D01*
X213371D01*
Y74477D01*
X213351D01*
Y74515D01*
X213332D01*
Y74573D01*
X213313D01*
Y74630D01*
X213294D01*
Y74707D01*
X213275D01*
Y74784D01*
X213255D01*
Y74880D01*
X213236D01*
Y74976D01*
X213217D01*
Y75092D01*
X213198D01*
Y75207D01*
X213178D01*
Y75341D01*
X213159D01*
Y75476D01*
X213140D01*
Y75611D01*
X213121D01*
Y75745D01*
X213102D01*
Y75880D01*
X213082D01*
Y75995D01*
X213063D01*
Y76129D01*
X213044D01*
Y76245D01*
X213025D01*
Y76379D01*
X213005D01*
Y76494D01*
X212986D01*
Y76629D01*
X212967D01*
Y76687D01*
X211141D01*
Y76629D01*
X211161D01*
Y76494D01*
X211180D01*
Y76360D01*
X211199D01*
Y76245D01*
X211218D01*
Y76110D01*
X211238D01*
Y75976D01*
X211257D01*
Y75860D01*
X211276D01*
Y75726D01*
X211295D01*
Y75572D01*
X211314D01*
Y75437D01*
X211334D01*
Y75303D01*
X211353D01*
Y75149D01*
X211372D01*
Y75015D01*
X211391D01*
Y74861D01*
X211410D01*
Y74726D01*
X211430D01*
Y74573D01*
X211449D01*
Y74438D01*
X211468D01*
Y74304D01*
X211487D01*
Y74150D01*
X211507D01*
Y74015D01*
X211526D01*
Y73900D01*
X211218D01*
Y73919D01*
X210661D01*
Y73939D01*
X210430D01*
Y73958D01*
X210277D01*
Y73977D01*
X210219D01*
Y73996D01*
X210142D01*
Y74015D01*
X210104D01*
Y74035D01*
X210046D01*
Y74054D01*
X210008D01*
Y74073D01*
X209988D01*
Y74092D01*
X209950D01*
Y74111D01*
X209912D01*
Y74131D01*
X209892D01*
Y74150D01*
X209873D01*
Y74169D01*
X209854D01*
Y74188D01*
X209835D01*
Y74208D01*
X209816D01*
Y74227D01*
X209796D01*
Y74246D01*
X209777D01*
Y74265D01*
X209758D01*
Y74304D01*
X209739D01*
Y74342D01*
X209719D01*
Y74381D01*
X209700D01*
Y74419D01*
X209681D01*
Y74477D01*
X209662D01*
Y74515D01*
X209643D01*
Y74573D01*
X209623D01*
Y74630D01*
X209604D01*
Y74707D01*
X209585D01*
Y74784D01*
X209566D01*
Y74880D01*
X209546D01*
Y74976D01*
X209527D01*
Y75092D01*
X209508D01*
Y75207D01*
X209489D01*
Y75341D01*
X209470D01*
Y75476D01*
X209450D01*
Y75611D01*
X209431D01*
Y75745D01*
X209412D01*
Y75880D01*
X209393D01*
Y75995D01*
X209373D01*
Y76129D01*
X209354D01*
Y76264D01*
X209335D01*
Y76379D01*
X209316D01*
Y76514D01*
X209297D01*
Y76648D01*
X209277D01*
Y76706D01*
X209066D01*
Y76725D01*
X208874D01*
Y76744D01*
X208759D01*
Y76763D01*
X208643D01*
Y76783D01*
X208566D01*
Y76802D01*
X208509D01*
Y76821D01*
X208451D01*
Y76840D01*
X208393D01*
Y76859D01*
X208355D01*
Y76879D01*
X208297D01*
Y76898D01*
X208278D01*
Y76917D01*
X208240D01*
Y76936D01*
X208221D01*
Y76956D01*
X208201D01*
Y76975D01*
X208163D01*
Y76994D01*
X208144D01*
Y77033D01*
X208124D01*
Y77052D01*
X208105D01*
Y77071D01*
X208086D01*
Y77090D01*
X208067D01*
Y77129D01*
X208048D01*
Y77148D01*
X208028D01*
Y77186D01*
X208009D01*
Y77225D01*
X207990D01*
Y77263D01*
X207971D01*
Y77302D01*
X207951D01*
Y77340D01*
X207932D01*
Y77398D01*
X207913D01*
Y77436D01*
X207894D01*
Y77513D01*
X207875D01*
Y77571D01*
X207855D01*
Y77647D01*
X207836D01*
Y77724D01*
X207817D01*
Y77820D01*
X207798D01*
Y77897D01*
X207779D01*
Y77993D01*
X207759D01*
Y78089D01*
X207740D01*
Y78185D01*
X207721D01*
Y78282D01*
X207702D01*
Y78378D01*
X207682D01*
Y78493D01*
X207663D01*
Y78531D01*
X209028D01*
Y78608D01*
X209008D01*
Y78743D01*
X208989D01*
Y78877D01*
X208970D01*
Y79012D01*
X208951D01*
Y79146D01*
X208931D01*
Y79281D01*
X208912D01*
Y79415D01*
X208893D01*
Y79550D01*
X208874D01*
Y79684D01*
X208855D01*
Y79819D01*
X208835D01*
Y79953D01*
X208816D01*
Y80088D01*
X208797D01*
Y80203D01*
X208778D01*
Y80318D01*
X208739D01*
Y80338D01*
X208528D01*
Y80357D01*
X208393D01*
Y80376D01*
X208297D01*
Y80395D01*
X208201D01*
Y80415D01*
X208124D01*
Y80434D01*
X208067D01*
Y80453D01*
X208009D01*
Y80472D01*
X207971D01*
Y80492D01*
X207932D01*
Y80511D01*
X207894D01*
Y80530D01*
X207875D01*
Y80549D01*
X207836D01*
Y80568D01*
X207817D01*
Y80588D01*
X207798D01*
Y80607D01*
X207779D01*
Y80626D01*
X207759D01*
Y80645D01*
X207740D01*
Y80664D01*
X207721D01*
Y80684D01*
X207702D01*
Y80722D01*
X207682D01*
Y80741D01*
X207663D01*
Y80780D01*
X207644D01*
Y80799D01*
X207625D01*
Y80837D01*
X207606D01*
Y80876D01*
X207586D01*
Y80914D01*
X207567D01*
Y80953D01*
X207548D01*
Y81010D01*
X207529D01*
Y81068D01*
X207509D01*
Y81126D01*
X207490D01*
Y81203D01*
X207471D01*
Y81260D01*
X207452D01*
Y81337D01*
X207433D01*
Y81433D01*
X207413D01*
Y81510D01*
X207394D01*
Y81606D01*
X207375D01*
Y81702D01*
X207356D01*
Y81779D01*
X207336D01*
Y81875D01*
X207317D01*
Y81971D01*
X207298D01*
Y82086D01*
X207279D01*
Y82144D01*
X208528D01*
Y82183D01*
X208509D01*
Y82317D01*
X208489D01*
Y82452D01*
X208470D01*
Y82586D01*
X208451D01*
Y82721D01*
X208432D01*
Y82855D01*
X208413D01*
Y82990D01*
X208393D01*
Y83124D01*
X208374D01*
Y83240D01*
X208355D01*
Y83393D01*
X208336D01*
Y83528D01*
X208317D01*
Y83662D01*
X208297D01*
Y83797D01*
X208278D01*
Y83931D01*
X208259D01*
Y84066D01*
X208240D01*
Y84200D01*
X208221D01*
Y84335D01*
X208201D01*
Y84469D01*
X208182D01*
Y84604D01*
X208163D01*
Y84738D01*
X208144D01*
Y84892D01*
X208124D01*
Y85027D01*
X208105D01*
Y85046D01*
X209162D01*
Y85027D01*
X209335D01*
Y85007D01*
X209450D01*
Y84988D01*
X209508D01*
Y84969D01*
X209546D01*
Y84950D01*
X209585D01*
Y84930D01*
X209643D01*
Y84911D01*
X209662D01*
Y84892D01*
X209700D01*
Y84873D01*
X209719D01*
Y84854D01*
X209739D01*
Y84834D01*
X209758D01*
Y84815D01*
X209777D01*
Y84796D01*
X209796D01*
Y84777D01*
X209816D01*
Y84758D01*
X209835D01*
Y84738D01*
X209854D01*
Y84700D01*
X209873D01*
Y84681D01*
X209892D01*
Y84642D01*
X209912D01*
Y84604D01*
X209931D01*
Y84565D01*
X209950D01*
Y84508D01*
X209969D01*
Y84469D01*
X209988D01*
Y84412D01*
X210008D01*
Y84354D01*
X210027D01*
Y84296D01*
X210046D01*
Y84219D01*
X210065D01*
Y84143D01*
X210085D01*
Y84027D01*
X210104D01*
Y83931D01*
X210123D01*
Y83816D01*
X210142D01*
Y83701D01*
X210161D01*
Y83585D01*
X210181D01*
Y83451D01*
X210200D01*
Y83336D01*
X210219D01*
Y83201D01*
X210238D01*
Y83086D01*
X210258D01*
Y82951D01*
X210277D01*
Y82817D01*
X210296D01*
Y82682D01*
X210315D01*
Y82548D01*
X210334D01*
Y82413D01*
X210353D01*
Y82279D01*
X210373D01*
Y82163D01*
X210392D01*
Y82144D01*
X212218D01*
Y82183D01*
X212198D01*
Y82317D01*
X212179D01*
Y82452D01*
X212160D01*
Y82567D01*
X212141D01*
Y82701D01*
X212122D01*
Y82836D01*
X212102D01*
Y82970D01*
X212083D01*
Y83105D01*
X212064D01*
Y83240D01*
X212045D01*
Y83374D01*
X212025D01*
Y83508D01*
X212006D01*
Y83643D01*
X211987D01*
Y83777D01*
X211968D01*
Y83912D01*
X211948D01*
Y84047D01*
X211929D01*
Y84200D01*
X211910D01*
Y84335D01*
X211891D01*
Y84469D01*
X211872D01*
Y84604D01*
X211852D01*
Y84738D01*
X211833D01*
Y84873D01*
X211814D01*
Y85007D01*
X211795D01*
Y85046D01*
X212852D01*
Y85027D01*
D02*
G37*
G36*
X166174Y81375D02*
X166194D01*
Y81241D01*
X166213D01*
Y81106D01*
X166232D01*
Y80972D01*
X166251D01*
Y80837D01*
X166270D01*
Y80703D01*
X166290D01*
Y80568D01*
X166309D01*
Y80434D01*
X166328D01*
Y80299D01*
X166347D01*
Y80165D01*
X166367D01*
Y80030D01*
X166386D01*
Y79896D01*
X166405D01*
Y79761D01*
X166424D01*
Y79627D01*
X166444D01*
Y79492D01*
X166463D01*
Y79358D01*
X166482D01*
Y79223D01*
X166501D01*
Y79069D01*
X166520D01*
Y78935D01*
X166540D01*
Y78800D01*
X166559D01*
Y78666D01*
X166578D01*
Y78531D01*
X166597D01*
Y78378D01*
X166616D01*
Y78243D01*
X166636D01*
Y78109D01*
X166655D01*
Y77974D01*
X166674D01*
Y77840D01*
X166693D01*
Y77686D01*
X166712D01*
Y77551D01*
X166732D01*
Y77417D01*
X166751D01*
Y77282D01*
X166770D01*
Y77148D01*
X166789D01*
Y76994D01*
X166809D01*
Y76859D01*
X166828D01*
Y76725D01*
X166847D01*
Y76571D01*
X166866D01*
Y76418D01*
X166885D01*
Y76264D01*
X166905D01*
Y76091D01*
X166924D01*
Y75822D01*
X166943D01*
Y75495D01*
X166924D01*
Y75399D01*
X166905D01*
Y75341D01*
X166885D01*
Y75284D01*
X166866D01*
Y75245D01*
X166847D01*
Y75226D01*
X166828D01*
Y75207D01*
X166809D01*
Y75169D01*
X166770D01*
Y75149D01*
X166751D01*
Y75130D01*
X166712D01*
Y75111D01*
X166693D01*
Y75092D01*
X166655D01*
Y75072D01*
X166597D01*
Y75053D01*
X166540D01*
Y75034D01*
X166482D01*
Y75015D01*
X166386D01*
Y74995D01*
X166232D01*
Y74976D01*
X165713D01*
Y74957D01*
X162370D01*
Y74919D01*
X162389D01*
Y74784D01*
X162408D01*
Y74650D01*
X162427D01*
Y74554D01*
X162446D01*
Y74457D01*
X162466D01*
Y74381D01*
X162485D01*
Y74323D01*
X162504D01*
Y74284D01*
X162523D01*
Y74265D01*
X162542D01*
Y74246D01*
X162562D01*
Y74227D01*
X162581D01*
Y74208D01*
X162619D01*
Y74188D01*
X162658D01*
Y74169D01*
X162715D01*
Y74150D01*
X162850D01*
Y74131D01*
X166059D01*
Y74111D01*
X166290D01*
Y74092D01*
X166405D01*
Y74073D01*
X166520D01*
Y74054D01*
X166597D01*
Y74035D01*
X166655D01*
Y74015D01*
X166712D01*
Y73996D01*
X166751D01*
Y73977D01*
X166789D01*
Y73958D01*
X166828D01*
Y73939D01*
X166866D01*
Y73919D01*
X166885D01*
Y73900D01*
X166905D01*
Y73881D01*
X166924D01*
Y73862D01*
X166943D01*
Y73843D01*
X166962D01*
Y73823D01*
X166981D01*
Y73804D01*
X167001D01*
Y73785D01*
X167020D01*
Y73746D01*
X167039D01*
Y73727D01*
X167058D01*
Y73689D01*
X167078D01*
Y73650D01*
X167097D01*
Y73612D01*
X167116D01*
Y73573D01*
X167135D01*
Y73535D01*
X167155D01*
Y73497D01*
X167174D01*
Y73439D01*
X167193D01*
Y73381D01*
X167212D01*
Y73324D01*
X167231D01*
Y73266D01*
X167251D01*
Y73170D01*
X167270D01*
Y73093D01*
X167289D01*
Y73016D01*
X167308D01*
Y72939D01*
X167327D01*
Y72843D01*
X167347D01*
Y72747D01*
X167366D01*
Y72670D01*
X167385D01*
Y72574D01*
X167404D01*
Y72478D01*
X167423D01*
Y72382D01*
X167443D01*
Y72286D01*
X161947D01*
Y72305D01*
X161659D01*
Y72324D01*
X161562D01*
Y72344D01*
X161466D01*
Y72363D01*
X161390D01*
Y72382D01*
X161332D01*
Y72401D01*
X161274D01*
Y72421D01*
X161236D01*
Y72440D01*
X161197D01*
Y72459D01*
X161178D01*
Y72478D01*
X161140D01*
Y72497D01*
X161120D01*
Y72517D01*
X161082D01*
Y72536D01*
X161063D01*
Y72555D01*
X161044D01*
Y72593D01*
X161024D01*
Y72613D01*
X161005D01*
Y72632D01*
X160986D01*
Y72670D01*
X160967D01*
Y72689D01*
X160948D01*
Y72728D01*
X160928D01*
Y72766D01*
X160909D01*
Y72805D01*
X160890D01*
Y72862D01*
X160871D01*
Y72901D01*
X160851D01*
Y72959D01*
X160832D01*
Y73035D01*
X160813D01*
Y73112D01*
X160794D01*
Y73189D01*
X160775D01*
Y73266D01*
X160755D01*
Y73362D01*
X160736D01*
Y73477D01*
X160717D01*
Y73612D01*
X160698D01*
Y73746D01*
X160679D01*
Y73881D01*
X160659D01*
Y74035D01*
X160640D01*
Y74169D01*
X160621D01*
Y74304D01*
X160602D01*
Y74438D01*
X160582D01*
Y74592D01*
X160563D01*
Y74726D01*
X160544D01*
Y74861D01*
X160525D01*
Y74995D01*
X160505D01*
Y75130D01*
X160486D01*
Y75265D01*
X160467D01*
Y75399D01*
X160448D01*
Y75534D01*
X160429D01*
Y75668D01*
X160409D01*
Y75803D01*
X160390D01*
Y75937D01*
X160371D01*
Y76072D01*
X160352D01*
Y76206D01*
X160333D01*
Y76341D01*
X160313D01*
Y76475D01*
X160294D01*
Y76610D01*
X160275D01*
Y76744D01*
X160256D01*
Y76879D01*
X160237D01*
Y77013D01*
X160217D01*
Y77148D01*
X160198D01*
Y77302D01*
X160179D01*
Y77436D01*
X160160D01*
Y77571D01*
X160140D01*
Y77705D01*
X160121D01*
Y77840D01*
X160102D01*
Y77993D01*
X160083D01*
Y78128D01*
X160064D01*
Y78262D01*
X160044D01*
Y78397D01*
X160025D01*
Y78531D01*
X160006D01*
Y78685D01*
X159987D01*
Y78820D01*
X159967D01*
Y78954D01*
X159948D01*
Y79089D01*
X159929D01*
Y79223D01*
X159910D01*
Y79377D01*
X159891D01*
Y79511D01*
X159871D01*
Y79646D01*
X159852D01*
Y79781D01*
X159833D01*
Y79915D01*
X159814D01*
Y80069D01*
X159794D01*
Y80222D01*
X159775D01*
Y80395D01*
X159756D01*
Y80933D01*
X159775D01*
Y81010D01*
X159794D01*
Y81068D01*
X159814D01*
Y81087D01*
X159833D01*
Y81126D01*
X159852D01*
Y81164D01*
X159871D01*
Y81183D01*
X159891D01*
Y81203D01*
X159910D01*
Y81222D01*
X159929D01*
Y81241D01*
X159948D01*
Y81260D01*
X159987D01*
Y81279D01*
X160006D01*
Y81299D01*
X160064D01*
Y81318D01*
X160102D01*
Y81337D01*
X160140D01*
Y81356D01*
X160217D01*
Y81375D01*
X160333D01*
Y81395D01*
X160544D01*
Y81414D01*
X161466D01*
Y81337D01*
X161486D01*
Y81203D01*
X161505D01*
Y81068D01*
X161524D01*
Y80933D01*
X161543D01*
Y80799D01*
X161562D01*
Y80664D01*
X161582D01*
Y80530D01*
X161601D01*
Y80395D01*
X161620D01*
Y80261D01*
X161639D01*
Y80126D01*
X161659D01*
Y79992D01*
X161678D01*
Y79877D01*
X161697D01*
Y79723D01*
X161716D01*
Y79607D01*
X161735D01*
Y79454D01*
X161755D01*
Y79319D01*
X161774D01*
Y79185D01*
X161793D01*
Y79050D01*
X161812D01*
Y78896D01*
X161831D01*
Y78762D01*
X161851D01*
Y78628D01*
X161870D01*
Y78493D01*
X161889D01*
Y78358D01*
X161908D01*
Y78205D01*
X161927D01*
Y78070D01*
X161947D01*
Y77936D01*
X161966D01*
Y77801D01*
X161985D01*
Y77647D01*
X162004D01*
Y77513D01*
X162024D01*
Y77378D01*
X162043D01*
Y77244D01*
X162062D01*
Y77129D01*
X162081D01*
Y77033D01*
X162101D01*
Y76975D01*
X162120D01*
Y76936D01*
X162139D01*
Y76898D01*
X162158D01*
Y76879D01*
X162177D01*
Y76859D01*
X162197D01*
Y76840D01*
X162235D01*
Y76821D01*
X162273D01*
Y76802D01*
X162485D01*
Y76783D01*
X164964D01*
Y76840D01*
X164945D01*
Y76975D01*
X164925D01*
Y77109D01*
X164906D01*
Y77263D01*
X164887D01*
Y77398D01*
X164868D01*
Y77532D01*
X164848D01*
Y77667D01*
X164829D01*
Y77820D01*
X164810D01*
Y77955D01*
X164791D01*
Y78089D01*
X164772D01*
Y78224D01*
X164752D01*
Y78358D01*
X164733D01*
Y78512D01*
X164714D01*
Y78647D01*
X164695D01*
Y78781D01*
X164675D01*
Y78916D01*
X164656D01*
Y79050D01*
X164637D01*
Y79204D01*
X164618D01*
Y79339D01*
X164599D01*
Y79473D01*
X164579D01*
Y79607D01*
X164560D01*
Y79781D01*
X164541D01*
Y79915D01*
X164522D01*
Y80069D01*
X164503D01*
Y80242D01*
X164483D01*
Y80415D01*
X164464D01*
Y80972D01*
X164483D01*
Y81049D01*
X164503D01*
Y81106D01*
X164522D01*
Y81145D01*
X164541D01*
Y81164D01*
X164560D01*
Y81183D01*
X164579D01*
Y81203D01*
X164599D01*
Y81222D01*
X164618D01*
Y81241D01*
X164637D01*
Y81260D01*
X164656D01*
Y81279D01*
X164695D01*
Y81299D01*
X164733D01*
Y81318D01*
X164772D01*
Y81337D01*
X164829D01*
Y81356D01*
X164887D01*
Y81375D01*
X164983D01*
Y81395D01*
X165118D01*
Y81414D01*
X166174D01*
Y81375D01*
D02*
G37*
G36*
X157181Y84066D02*
X157162D01*
Y84047D01*
X157143D01*
Y84027D01*
X157123D01*
Y84008D01*
X157104D01*
Y83989D01*
X157066D01*
Y83970D01*
X157046D01*
Y83951D01*
X157027D01*
Y83931D01*
X156989D01*
Y83912D01*
X156970D01*
Y83893D01*
X156950D01*
Y83874D01*
X156931D01*
Y83854D01*
X156912D01*
Y83835D01*
X156893D01*
Y83816D01*
X156874D01*
Y83797D01*
X156854D01*
Y83777D01*
X156835D01*
Y83758D01*
X156816D01*
Y83739D01*
X156797D01*
Y83701D01*
X156778D01*
Y83662D01*
X156758D01*
Y83259D01*
X156778D01*
Y83124D01*
X156797D01*
Y82990D01*
X156816D01*
Y82855D01*
X156835D01*
Y82721D01*
X156854D01*
Y82567D01*
X156874D01*
Y82432D01*
X156893D01*
Y82298D01*
X156912D01*
Y82163D01*
X156931D01*
Y82029D01*
X156950D01*
Y81894D01*
X156970D01*
Y81760D01*
X156989D01*
Y81606D01*
X157008D01*
Y81472D01*
X157027D01*
Y81414D01*
X158007D01*
Y81395D01*
X158180D01*
Y81375D01*
X158276D01*
Y81356D01*
X158372D01*
Y81337D01*
X158430D01*
Y81318D01*
X158488D01*
Y81299D01*
X158526D01*
Y81279D01*
X158584D01*
Y81260D01*
X158603D01*
Y81241D01*
X158642D01*
Y81222D01*
X158661D01*
Y81203D01*
X158680D01*
Y81183D01*
X158699D01*
Y81164D01*
X158718D01*
Y81145D01*
X158738D01*
Y81126D01*
X158757D01*
Y81087D01*
X158776D01*
Y81068D01*
X158795D01*
Y81029D01*
X158814D01*
Y81010D01*
X158834D01*
Y80972D01*
X158853D01*
Y80933D01*
X158872D01*
Y80876D01*
X158891D01*
Y80837D01*
X158911D01*
Y80780D01*
X158930D01*
Y80722D01*
X158949D01*
Y80645D01*
X158968D01*
Y80568D01*
X158987D01*
Y80453D01*
X159007D01*
Y80318D01*
X159026D01*
Y80203D01*
X159045D01*
Y80088D01*
X159064D01*
Y79953D01*
X159083D01*
Y79838D01*
X159103D01*
Y79704D01*
X159122D01*
Y79588D01*
X157296D01*
Y79454D01*
X157316D01*
Y79300D01*
X157335D01*
Y79166D01*
X157354D01*
Y79012D01*
X157373D01*
Y78877D01*
X157392D01*
Y78743D01*
X157412D01*
Y78608D01*
X157431D01*
Y78474D01*
X157450D01*
Y78339D01*
X157469D01*
Y78205D01*
X157489D01*
Y78070D01*
X157508D01*
Y77936D01*
X157527D01*
Y77801D01*
X157546D01*
Y77667D01*
X157565D01*
Y77532D01*
X157585D01*
Y77398D01*
X157604D01*
Y77244D01*
X157623D01*
Y77109D01*
X157642D01*
Y76975D01*
X157661D01*
Y76821D01*
X157681D01*
Y76706D01*
X157700D01*
Y76591D01*
X157719D01*
Y76475D01*
X157738D01*
Y76360D01*
X157757D01*
Y76245D01*
X157777D01*
Y76110D01*
X157796D01*
Y75995D01*
X157815D01*
Y75880D01*
X157834D01*
Y75514D01*
X157815D01*
Y75399D01*
X157796D01*
Y75322D01*
X157777D01*
Y75284D01*
X157757D01*
Y75245D01*
X157738D01*
Y75226D01*
X157719D01*
Y75207D01*
X157700D01*
Y75188D01*
X157681D01*
Y75169D01*
X157661D01*
Y75149D01*
X157642D01*
Y75130D01*
X157604D01*
Y75111D01*
X157565D01*
Y75092D01*
X157527D01*
Y75072D01*
X157469D01*
Y75053D01*
X157412D01*
Y75034D01*
X157335D01*
Y75015D01*
X157220D01*
Y74995D01*
X156950D01*
Y74976D01*
X154222D01*
Y74995D01*
X153953D01*
Y75015D01*
X153818D01*
Y75034D01*
X153741D01*
Y75053D01*
X153664D01*
Y75072D01*
X153626D01*
Y75092D01*
X153568D01*
Y75111D01*
X153530D01*
Y75130D01*
X153491D01*
Y75149D01*
X153472D01*
Y75169D01*
X153434D01*
Y75188D01*
X153415D01*
Y75207D01*
X153395D01*
Y75226D01*
X153376D01*
Y75245D01*
X153357D01*
Y75265D01*
X153338D01*
Y75303D01*
X153319D01*
Y75322D01*
X153299D01*
Y75341D01*
X153280D01*
Y75380D01*
X153261D01*
Y75418D01*
X153242D01*
Y75457D01*
X153222D01*
Y75495D01*
X153203D01*
Y75534D01*
X153184D01*
Y75591D01*
X153165D01*
Y75649D01*
X153146D01*
Y75726D01*
X153126D01*
Y75822D01*
X153107D01*
Y75899D01*
X153088D01*
Y76014D01*
X153069D01*
Y76129D01*
X153049D01*
Y76245D01*
X153030D01*
Y76379D01*
X153011D01*
Y76494D01*
X152992D01*
Y76629D01*
X152973D01*
Y76763D01*
X152953D01*
Y76821D01*
X155817D01*
Y76859D01*
X155797D01*
Y76994D01*
X155778D01*
Y77129D01*
X155759D01*
Y77263D01*
X155740D01*
Y77398D01*
X155721D01*
Y77532D01*
X155701D01*
Y77686D01*
X155682D01*
Y77820D01*
X155663D01*
Y77955D01*
X155644D01*
Y78089D01*
X155624D01*
Y78224D01*
X155605D01*
Y78358D01*
X155586D01*
Y78493D01*
X155567D01*
Y78628D01*
X155548D01*
Y78762D01*
X155528D01*
Y78896D01*
X155509D01*
Y79031D01*
X155490D01*
Y79166D01*
X155471D01*
Y79319D01*
X155452D01*
Y79454D01*
X155432D01*
Y79588D01*
X153511D01*
Y79607D01*
X153261D01*
Y79627D01*
X153165D01*
Y79646D01*
X153088D01*
Y79665D01*
X153011D01*
Y79684D01*
X152973D01*
Y79704D01*
X152934D01*
Y79723D01*
X152876D01*
Y79742D01*
X152857D01*
Y79761D01*
X152819D01*
Y79781D01*
X152800D01*
Y79800D01*
X152780D01*
Y79819D01*
X152761D01*
Y79838D01*
X152742D01*
Y79857D01*
X152723D01*
Y79877D01*
X152703D01*
Y79896D01*
X152684D01*
Y79915D01*
X152665D01*
Y79934D01*
X152646D01*
Y79973D01*
X152627D01*
Y80011D01*
X152608D01*
Y80030D01*
X152588D01*
Y80069D01*
X152569D01*
Y80126D01*
X152550D01*
Y80165D01*
X152531D01*
Y80222D01*
X152511D01*
Y80299D01*
X152492D01*
Y80376D01*
X152473D01*
Y80453D01*
X152454D01*
Y80549D01*
X152435D01*
Y80645D01*
X152415D01*
Y80761D01*
X152396D01*
Y80876D01*
X152377D01*
Y80991D01*
X152358D01*
Y81126D01*
X152338D01*
Y81260D01*
X152319D01*
Y81395D01*
X152300D01*
Y81414D01*
X155163D01*
Y81491D01*
X155144D01*
Y81625D01*
X155125D01*
Y81760D01*
X155106D01*
Y81914D01*
X155086D01*
Y82048D01*
X155067D01*
Y82183D01*
X155048D01*
Y82317D01*
X155029D01*
Y82471D01*
X155009D01*
Y82644D01*
X154990D01*
Y82817D01*
X154971D01*
Y83028D01*
X154952D01*
Y83585D01*
X154971D01*
Y83681D01*
X154990D01*
Y83739D01*
X155009D01*
Y83777D01*
X155029D01*
Y83816D01*
X155048D01*
Y83854D01*
X155067D01*
Y83874D01*
X155086D01*
Y83893D01*
X155125D01*
Y83912D01*
X155144D01*
Y83931D01*
X155183D01*
Y83951D01*
X155221D01*
Y83970D01*
X155259D01*
Y83989D01*
X155317D01*
Y84008D01*
X155394D01*
Y84027D01*
X155490D01*
Y84047D01*
X155586D01*
Y84066D01*
X155797D01*
Y84085D01*
X157181D01*
Y84066D01*
D02*
G37*
G36*
X150647Y81395D02*
X150839D01*
Y81375D01*
X150936D01*
Y81356D01*
X151013D01*
Y81337D01*
X151070D01*
Y81318D01*
X151109D01*
Y81299D01*
X151147D01*
Y81279D01*
X151185D01*
Y81260D01*
X151205D01*
Y81241D01*
X151243D01*
Y81222D01*
X151262D01*
Y81203D01*
X151281D01*
Y81183D01*
X151301D01*
Y81164D01*
X151320D01*
Y81145D01*
X151339D01*
Y81126D01*
X151358D01*
Y81106D01*
X151378D01*
Y81068D01*
X151397D01*
Y81049D01*
X151416D01*
Y81010D01*
X151435D01*
Y80972D01*
X151454D01*
Y80933D01*
X151474D01*
Y80895D01*
X151493D01*
Y80837D01*
X151512D01*
Y80799D01*
X151531D01*
Y80741D01*
X151550D01*
Y80664D01*
X151570D01*
Y80607D01*
X151589D01*
Y80530D01*
X151608D01*
Y80434D01*
X151627D01*
Y80338D01*
X151647D01*
Y80242D01*
X151666D01*
Y80126D01*
X151685D01*
Y79992D01*
X151704D01*
Y79857D01*
X151724D01*
Y79723D01*
X151743D01*
Y79588D01*
X151762D01*
Y79435D01*
X151781D01*
Y79281D01*
X151800D01*
Y79146D01*
X151820D01*
Y79012D01*
X151839D01*
Y78858D01*
X151858D01*
Y78724D01*
X151877D01*
Y78570D01*
X151896D01*
Y78435D01*
X151916D01*
Y78301D01*
X151935D01*
Y78166D01*
X151954D01*
Y78013D01*
X151973D01*
Y77878D01*
X151992D01*
Y77744D01*
X152012D01*
Y77590D01*
X152031D01*
Y77455D01*
X152050D01*
Y77340D01*
X152069D01*
Y77205D01*
X152089D01*
Y77071D01*
X152108D01*
Y76956D01*
X152127D01*
Y76840D01*
X152146D01*
Y76706D01*
X152165D01*
Y76552D01*
X152185D01*
Y76418D01*
X152204D01*
Y76264D01*
X152223D01*
Y76091D01*
X152242D01*
Y75918D01*
X152262D01*
Y75553D01*
X152242D01*
Y75437D01*
X152223D01*
Y75361D01*
X152204D01*
Y75322D01*
X152185D01*
Y75265D01*
X152165D01*
Y75245D01*
X152146D01*
Y75207D01*
X152108D01*
Y75188D01*
X152089D01*
Y75169D01*
X152069D01*
Y75149D01*
X152050D01*
Y75130D01*
X152012D01*
Y75111D01*
X151973D01*
Y75092D01*
X151935D01*
Y75072D01*
X151877D01*
Y75053D01*
X151820D01*
Y75034D01*
X151762D01*
Y75015D01*
X151589D01*
Y74995D01*
X151262D01*
Y74976D01*
X146900D01*
Y74995D01*
X146593D01*
Y75015D01*
X146439D01*
Y75034D01*
X146362D01*
Y75053D01*
X146285D01*
Y75072D01*
X146247D01*
Y75092D01*
X146208D01*
Y75111D01*
X146170D01*
Y75130D01*
X146131D01*
Y75149D01*
X146093D01*
Y75169D01*
X146055D01*
Y75188D01*
X146035D01*
Y75207D01*
X146016D01*
Y75226D01*
X145997D01*
Y75245D01*
X145978D01*
Y75265D01*
X145958D01*
Y75284D01*
X145939D01*
Y75303D01*
X145920D01*
Y75341D01*
X145901D01*
Y75380D01*
X145882D01*
Y75418D01*
X145862D01*
Y75457D01*
X145843D01*
Y75495D01*
X145824D01*
Y75534D01*
X145805D01*
Y75591D01*
X145785D01*
Y75649D01*
X145766D01*
Y75726D01*
X145747D01*
Y75803D01*
X145728D01*
Y75880D01*
X145709D01*
Y75976D01*
X145689D01*
Y76072D01*
X145670D01*
Y76187D01*
X145651D01*
Y76302D01*
X145632D01*
Y76418D01*
X145613D01*
Y76552D01*
X145593D01*
Y76687D01*
X145574D01*
Y76821D01*
X145555D01*
Y76956D01*
X145536D01*
Y77090D01*
X145517D01*
Y77244D01*
X145497D01*
Y77378D01*
X145478D01*
Y77513D01*
X145459D01*
Y77647D01*
X145440D01*
Y77782D01*
X145420D01*
Y77916D01*
X145401D01*
Y78051D01*
X145382D01*
Y78185D01*
X145363D01*
Y78339D01*
X145344D01*
Y78474D01*
X145324D01*
Y78608D01*
X145305D01*
Y78743D01*
X145286D01*
Y78877D01*
X145267D01*
Y79012D01*
X145247D01*
Y79146D01*
X145228D01*
Y79281D01*
X145209D01*
Y79435D01*
X145190D01*
Y79569D01*
X145171D01*
Y79684D01*
X145151D01*
Y79819D01*
X145132D01*
Y79953D01*
X145113D01*
Y80088D01*
X145094D01*
Y80242D01*
X145074D01*
Y80453D01*
X145055D01*
Y80837D01*
X145074D01*
Y80972D01*
X145094D01*
Y81049D01*
X145113D01*
Y81087D01*
X145132D01*
Y81126D01*
X145151D01*
Y81164D01*
X145171D01*
Y81183D01*
X145190D01*
Y81203D01*
X145209D01*
Y81222D01*
X145228D01*
Y81241D01*
X145247D01*
Y81260D01*
X145286D01*
Y81279D01*
X145305D01*
Y81299D01*
X145344D01*
Y81318D01*
X145382D01*
Y81337D01*
X145440D01*
Y81356D01*
X145555D01*
Y81375D01*
X145689D01*
Y81395D01*
X145939D01*
Y81414D01*
X150647D01*
Y81395D01*
D02*
G37*
G36*
X143153D02*
X143345D01*
Y81375D01*
X143480D01*
Y81356D01*
X143556D01*
Y81337D01*
X143614D01*
Y81318D01*
X143672D01*
Y81299D01*
X143710D01*
Y81279D01*
X143749D01*
Y81260D01*
X143787D01*
Y81241D01*
X143806D01*
Y81222D01*
X143825D01*
Y81203D01*
X143845D01*
Y81183D01*
X143883D01*
Y81145D01*
X143902D01*
Y81126D01*
X143921D01*
Y81106D01*
X143941D01*
Y81087D01*
X143960D01*
Y81049D01*
X143979D01*
Y81029D01*
X143998D01*
Y80991D01*
X144018D01*
Y80953D01*
X144037D01*
Y80914D01*
X144056D01*
Y80876D01*
X144075D01*
Y80818D01*
X144095D01*
Y80761D01*
X144114D01*
Y80684D01*
X144133D01*
Y80607D01*
X144152D01*
Y80530D01*
X144171D01*
Y80434D01*
X144191D01*
Y80338D01*
X144210D01*
Y80242D01*
X144229D01*
Y80126D01*
X144248D01*
Y80011D01*
X144267D01*
Y79877D01*
X144287D01*
Y79742D01*
X144306D01*
Y79607D01*
X144325D01*
Y79473D01*
X144344D01*
Y79339D01*
X144363D01*
Y79204D01*
X144383D01*
Y79069D01*
X144402D01*
Y78935D01*
X144421D01*
Y78800D01*
X144440D01*
Y78685D01*
X144460D01*
Y78551D01*
X144479D01*
Y78435D01*
X144498D01*
Y78301D01*
X144517D01*
Y78185D01*
X144536D01*
Y77763D01*
X144517D01*
Y77667D01*
X144498D01*
Y77628D01*
X144479D01*
Y77571D01*
X144460D01*
Y77532D01*
X144440D01*
Y77513D01*
X144421D01*
Y77494D01*
X144402D01*
Y77474D01*
X144383D01*
Y77455D01*
X144363D01*
Y77436D01*
X144325D01*
Y77417D01*
X144287D01*
Y77398D01*
X144248D01*
Y77378D01*
X144210D01*
Y77359D01*
X144152D01*
Y77340D01*
X144075D01*
Y77321D01*
X143979D01*
Y77302D01*
X143768D01*
Y77282D01*
X143172D01*
Y77263D01*
X139925D01*
Y77244D01*
X139944D01*
Y77109D01*
X139963D01*
Y76994D01*
X139982D01*
Y76936D01*
X140001D01*
Y76898D01*
X140021D01*
Y76879D01*
X140040D01*
Y76859D01*
X140059D01*
Y76840D01*
X140097D01*
Y76821D01*
X140251D01*
Y76802D01*
X144709D01*
Y76725D01*
X144729D01*
Y76591D01*
X144748D01*
Y76437D01*
X144767D01*
Y76283D01*
X144786D01*
Y76110D01*
X144806D01*
Y75918D01*
X144825D01*
Y75495D01*
X144806D01*
Y75399D01*
X144786D01*
Y75322D01*
X144767D01*
Y75284D01*
X144748D01*
Y75245D01*
X144729D01*
Y75226D01*
X144709D01*
Y75207D01*
X144690D01*
Y75188D01*
X144671D01*
Y75169D01*
X144652D01*
Y75149D01*
X144613D01*
Y75130D01*
X144594D01*
Y75111D01*
X144556D01*
Y75092D01*
X144517D01*
Y75072D01*
X144479D01*
Y75053D01*
X144421D01*
Y75034D01*
X144383D01*
Y75015D01*
X144210D01*
Y74995D01*
X143864D01*
Y74976D01*
X139482D01*
Y74995D01*
X139137D01*
Y75015D01*
X138964D01*
Y75034D01*
X138906D01*
Y75053D01*
X138848D01*
Y75072D01*
X138810D01*
Y75092D01*
X138771D01*
Y75111D01*
X138733D01*
Y75130D01*
X138695D01*
Y75149D01*
X138656D01*
Y75169D01*
X138637D01*
Y75188D01*
X138599D01*
Y75207D01*
X138579D01*
Y75226D01*
X138560D01*
Y75245D01*
X138541D01*
Y75265D01*
X138522D01*
Y75284D01*
X138502D01*
Y75322D01*
X138483D01*
Y75361D01*
X138464D01*
Y75380D01*
X138445D01*
Y75418D01*
X138426D01*
Y75476D01*
X138406D01*
Y75514D01*
X138387D01*
Y75572D01*
X138368D01*
Y75630D01*
X138349D01*
Y75687D01*
X138330D01*
Y75764D01*
X138310D01*
Y75841D01*
X138291D01*
Y75937D01*
X138272D01*
Y76033D01*
X138253D01*
Y76129D01*
X138233D01*
Y76225D01*
X138214D01*
Y76341D01*
X138195D01*
Y76475D01*
X138176D01*
Y76591D01*
X138156D01*
Y76725D01*
X138137D01*
Y76859D01*
X138118D01*
Y77013D01*
X138099D01*
Y77148D01*
X138080D01*
Y77282D01*
X138060D01*
Y77436D01*
X138041D01*
Y77590D01*
X138022D01*
Y77763D01*
X138003D01*
Y77936D01*
X137984D01*
Y78128D01*
X137964D01*
Y78531D01*
X137984D01*
Y78647D01*
X138003D01*
Y78724D01*
X138022D01*
Y78762D01*
X138041D01*
Y78800D01*
X138060D01*
Y78839D01*
X138080D01*
Y78877D01*
X138099D01*
Y78896D01*
X138118D01*
Y78916D01*
X138137D01*
Y78935D01*
X138176D01*
Y78954D01*
X138195D01*
Y78973D01*
X138233D01*
Y78993D01*
X138272D01*
Y79012D01*
X138310D01*
Y79031D01*
X138387D01*
Y79050D01*
X138464D01*
Y79069D01*
X138560D01*
Y79089D01*
X138714D01*
Y79108D01*
X139117D01*
Y79127D01*
X142519D01*
Y79204D01*
X142499D01*
Y79358D01*
X142480D01*
Y79435D01*
X142461D01*
Y79473D01*
X142442D01*
Y79492D01*
X142423D01*
Y79511D01*
X142403D01*
Y79531D01*
X142384D01*
Y79550D01*
X142307D01*
Y79569D01*
X138944D01*
Y79588D01*
X138656D01*
Y79607D01*
X138483D01*
Y79627D01*
X138387D01*
Y79646D01*
X138291D01*
Y79665D01*
X138233D01*
Y79684D01*
X138176D01*
Y79704D01*
X138118D01*
Y79723D01*
X138080D01*
Y79742D01*
X138060D01*
Y79761D01*
X138022D01*
Y79781D01*
X138003D01*
Y79800D01*
X137984D01*
Y79819D01*
X137964D01*
Y79838D01*
X137945D01*
Y79857D01*
X137926D01*
Y79877D01*
X137907D01*
Y79896D01*
X137888D01*
Y79915D01*
X137868D01*
Y79934D01*
X137849D01*
Y79973D01*
X137830D01*
Y79992D01*
X137811D01*
Y80030D01*
X137791D01*
Y80069D01*
X137772D01*
Y80107D01*
X137753D01*
Y80165D01*
X137734D01*
Y80222D01*
X137715D01*
Y80280D01*
X137695D01*
Y80357D01*
X137676D01*
Y80434D01*
X137657D01*
Y80511D01*
X137638D01*
Y80607D01*
X137619D01*
Y80703D01*
X137599D01*
Y80818D01*
X137580D01*
Y80933D01*
X137561D01*
Y81049D01*
X137542D01*
Y81183D01*
X137522D01*
Y81318D01*
X137503D01*
Y81414D01*
X143153D01*
Y81395D01*
D02*
G37*
G36*
X113386D02*
X113598D01*
Y81375D01*
X113751D01*
Y81356D01*
X113847D01*
Y81337D01*
X113905D01*
Y81318D01*
X113963D01*
Y81299D01*
X114001D01*
Y81279D01*
X114059D01*
Y81260D01*
X114078D01*
Y81241D01*
X114117D01*
Y81222D01*
X114155D01*
Y81203D01*
X114174D01*
Y81183D01*
X114193D01*
Y81164D01*
X114213D01*
Y81145D01*
X114232D01*
Y81126D01*
X114251D01*
Y81106D01*
X114270D01*
Y81087D01*
X114289D01*
Y81068D01*
X114309D01*
Y81029D01*
X114328D01*
Y80991D01*
X114347D01*
Y80953D01*
X114366D01*
Y80914D01*
X114385D01*
Y80876D01*
X114405D01*
Y80818D01*
X114424D01*
Y80761D01*
X114443D01*
Y80684D01*
X114462D01*
Y80626D01*
X114482D01*
Y80530D01*
X114501D01*
Y80415D01*
X114520D01*
Y80318D01*
X114539D01*
Y80203D01*
X114558D01*
Y80088D01*
X114578D01*
Y79973D01*
X114597D01*
Y79877D01*
X114616D01*
Y79742D01*
X114635D01*
Y79627D01*
X114655D01*
Y79492D01*
X114674D01*
Y79358D01*
X114693D01*
Y79223D01*
X114712D01*
Y79089D01*
X114731D01*
Y78954D01*
X114751D01*
Y78820D01*
X114770D01*
Y78666D01*
X114789D01*
Y78531D01*
X114808D01*
Y78397D01*
X114828D01*
Y78262D01*
X114847D01*
Y78128D01*
X114866D01*
Y77993D01*
X114885D01*
Y77859D01*
X114904D01*
Y77724D01*
X114924D01*
Y77571D01*
X114943D01*
Y77436D01*
X114962D01*
Y77302D01*
X114981D01*
Y77167D01*
X115000D01*
Y77033D01*
X115020D01*
Y76898D01*
X115039D01*
Y76744D01*
X115058D01*
Y76591D01*
X115077D01*
Y76437D01*
X115096D01*
Y76283D01*
X115116D01*
Y76110D01*
X115135D01*
Y75937D01*
X115154D01*
Y75476D01*
X115135D01*
Y75399D01*
X115116D01*
Y75341D01*
X115096D01*
Y75303D01*
X115077D01*
Y75265D01*
X115058D01*
Y75245D01*
X115039D01*
Y75207D01*
X115020D01*
Y75188D01*
X114981D01*
Y75169D01*
X114962D01*
Y75149D01*
X114943D01*
Y75130D01*
X114904D01*
Y75111D01*
X114885D01*
Y75092D01*
X114828D01*
Y75072D01*
X114789D01*
Y75053D01*
X114731D01*
Y75034D01*
X114693D01*
Y75015D01*
X114520D01*
Y74995D01*
X114232D01*
Y74976D01*
X108736D01*
Y75899D01*
X108755D01*
Y76110D01*
X108774D01*
Y76245D01*
X108793D01*
Y76341D01*
X108813D01*
Y76398D01*
X108832D01*
Y76437D01*
X108851D01*
Y76475D01*
X108870D01*
Y76514D01*
X108889D01*
Y76533D01*
X108909D01*
Y76552D01*
X108928D01*
Y76591D01*
X108947D01*
Y76610D01*
X108966D01*
Y76629D01*
X109005D01*
Y76648D01*
X109024D01*
Y76667D01*
X109063D01*
Y76687D01*
X109101D01*
Y76706D01*
X109139D01*
Y76725D01*
X109197D01*
Y76744D01*
X109274D01*
Y76763D01*
X109408D01*
Y76783D01*
X109639D01*
Y76802D01*
X113175D01*
Y76917D01*
X113156D01*
Y77052D01*
X113136D01*
Y77167D01*
X113117D01*
Y77205D01*
X113098D01*
Y77225D01*
X113079D01*
Y77244D01*
X113040D01*
Y77263D01*
X109870D01*
Y77282D01*
X109332D01*
Y77302D01*
X109120D01*
Y77321D01*
X109024D01*
Y77340D01*
X108928D01*
Y77359D01*
X108851D01*
Y77378D01*
X108813D01*
Y77398D01*
X108755D01*
Y77417D01*
X108717D01*
Y77436D01*
X108678D01*
Y77455D01*
X108659D01*
Y77474D01*
X108621D01*
Y77494D01*
X108601D01*
Y77513D01*
X108582D01*
Y77532D01*
X108563D01*
Y77551D01*
X108544D01*
Y77571D01*
X108524D01*
Y77609D01*
X108505D01*
Y77628D01*
X108486D01*
Y77667D01*
X108467D01*
Y77705D01*
X108448D01*
Y77744D01*
X108428D01*
Y77782D01*
X108409D01*
Y77820D01*
X108390D01*
Y77878D01*
X108371D01*
Y77936D01*
X108352D01*
Y78013D01*
X108332D01*
Y78089D01*
X108313D01*
Y78166D01*
X108294D01*
Y78243D01*
X108275D01*
Y78358D01*
X108255D01*
Y78474D01*
X108236D01*
Y78589D01*
X108217D01*
Y78724D01*
X108198D01*
Y78858D01*
X108178D01*
Y79012D01*
X108159D01*
Y79146D01*
X108140D01*
Y79262D01*
X108121D01*
Y79396D01*
X108102D01*
Y79511D01*
X108082D01*
Y79665D01*
X108063D01*
Y79800D01*
X108044D01*
Y79953D01*
X108025D01*
Y80107D01*
X108006D01*
Y80242D01*
X107986D01*
Y80415D01*
X107967D01*
Y80914D01*
X107986D01*
Y81010D01*
X108006D01*
Y81068D01*
X108025D01*
Y81106D01*
X108044D01*
Y81145D01*
X108063D01*
Y81164D01*
X108082D01*
Y81203D01*
X108102D01*
Y81222D01*
X108140D01*
Y81241D01*
X108159D01*
Y81260D01*
X108178D01*
Y81279D01*
X108217D01*
Y81299D01*
X108275D01*
Y81318D01*
X108313D01*
Y81337D01*
X108390D01*
Y81356D01*
X108467D01*
Y81375D01*
X108563D01*
Y81395D01*
X108736D01*
Y81414D01*
X113386D01*
Y81395D01*
D02*
G37*
G36*
X204838D02*
X205338D01*
Y81375D01*
X205549D01*
Y81356D01*
X205684D01*
Y81337D01*
X205780D01*
Y81318D01*
X205838D01*
Y81299D01*
X205895D01*
Y81279D01*
X205934D01*
Y81260D01*
X205972D01*
Y81241D01*
X206011D01*
Y81222D01*
X206030D01*
Y81203D01*
X206068D01*
Y81183D01*
X206087D01*
Y81164D01*
X206107D01*
Y81145D01*
X206126D01*
Y81126D01*
X206145D01*
Y81106D01*
X206164D01*
Y81068D01*
X206184D01*
Y81049D01*
X206203D01*
Y81010D01*
X206222D01*
Y80991D01*
X206241D01*
Y80953D01*
X206260D01*
Y80914D01*
X206280D01*
Y80857D01*
X206299D01*
Y80818D01*
X206318D01*
Y80761D01*
X206337D01*
Y80684D01*
X206357D01*
Y80607D01*
X206376D01*
Y80492D01*
X206395D01*
Y80376D01*
X206414D01*
Y80242D01*
X206433D01*
Y80126D01*
X206453D01*
Y79992D01*
X206472D01*
Y79877D01*
X206491D01*
Y79742D01*
X206510D01*
Y79607D01*
X206529D01*
Y79454D01*
X206549D01*
Y79319D01*
X206568D01*
Y79166D01*
X206587D01*
Y79031D01*
X206606D01*
Y78896D01*
X206626D01*
Y78762D01*
X206645D01*
Y78647D01*
X206664D01*
Y78512D01*
X206683D01*
Y78378D01*
X206702D01*
Y78243D01*
X206722D01*
Y78109D01*
X206741D01*
Y77955D01*
X206760D01*
Y77801D01*
X206779D01*
Y77647D01*
X206799D01*
Y77513D01*
X206818D01*
Y77378D01*
X206837D01*
Y77244D01*
X206856D01*
Y77109D01*
X206875D01*
Y76975D01*
X206894D01*
Y76859D01*
X206914D01*
Y76725D01*
X206933D01*
Y76610D01*
X206952D01*
Y76475D01*
X206971D01*
Y76341D01*
X206991D01*
Y76187D01*
X207010D01*
Y76033D01*
X207029D01*
Y75841D01*
X207048D01*
Y75534D01*
X207029D01*
Y75418D01*
X207010D01*
Y75361D01*
X206991D01*
Y75303D01*
X206971D01*
Y75265D01*
X206952D01*
Y75226D01*
X206933D01*
Y75207D01*
X206914D01*
Y75188D01*
X206894D01*
Y75169D01*
X206875D01*
Y75149D01*
X206856D01*
Y75130D01*
X206818D01*
Y75111D01*
X206799D01*
Y75092D01*
X206760D01*
Y75072D01*
X206722D01*
Y75053D01*
X206664D01*
Y75034D01*
X206606D01*
Y75015D01*
X206491D01*
Y74995D01*
X206203D01*
Y74976D01*
X205857D01*
Y74957D01*
X205838D01*
Y74976D01*
X205492D01*
Y74957D01*
X201764D01*
Y74976D01*
X201379D01*
Y74995D01*
X201264D01*
Y75015D01*
X201168D01*
Y75034D01*
X201091D01*
Y75053D01*
X201033D01*
Y75072D01*
X200976D01*
Y75092D01*
X200937D01*
Y75111D01*
X200899D01*
Y75130D01*
X200861D01*
Y75149D01*
X200841D01*
Y75169D01*
X200803D01*
Y75188D01*
X200784D01*
Y75207D01*
X200764D01*
Y75226D01*
X200745D01*
Y75245D01*
X200726D01*
Y75265D01*
X200707D01*
Y75303D01*
X200688D01*
Y75322D01*
X200668D01*
Y75361D01*
X200649D01*
Y75399D01*
X200630D01*
Y75437D01*
X200611D01*
Y75476D01*
X200591D01*
Y75534D01*
X200572D01*
Y75591D01*
X200553D01*
Y75668D01*
X200534D01*
Y75745D01*
X200515D01*
Y75841D01*
X200495D01*
Y75937D01*
X200476D01*
Y76052D01*
X200457D01*
Y76168D01*
X200438D01*
Y76283D01*
X200418D01*
Y76418D01*
X200399D01*
Y76552D01*
X200380D01*
Y76687D01*
X200361D01*
Y76783D01*
X205050D01*
Y76898D01*
X205030D01*
Y77052D01*
X205011D01*
Y77186D01*
X204992D01*
Y77321D01*
X204973D01*
Y77455D01*
X204954D01*
Y77590D01*
X204934D01*
Y77724D01*
X204915D01*
Y77859D01*
X204896D01*
Y78013D01*
X204877D01*
Y78147D01*
X204858D01*
Y78282D01*
X204838D01*
Y78416D01*
X204819D01*
Y78551D01*
X204800D01*
Y78685D01*
X204781D01*
Y78839D01*
X204762D01*
Y78973D01*
X204742D01*
Y79108D01*
X204723D01*
Y79204D01*
X204704D01*
Y79358D01*
X204685D01*
Y79415D01*
X204665D01*
Y79454D01*
X204646D01*
Y79492D01*
X204627D01*
Y79511D01*
X204608D01*
Y79531D01*
X204569D01*
Y79550D01*
X204473D01*
Y79569D01*
X204166D01*
Y79550D01*
X201802D01*
Y79569D01*
X201168D01*
Y79588D01*
X200707D01*
Y79607D01*
X200611D01*
Y79627D01*
X200515D01*
Y79646D01*
X200457D01*
Y79665D01*
X200399D01*
Y79684D01*
X200342D01*
Y79704D01*
X200303D01*
Y79723D01*
X200265D01*
Y79742D01*
X200226D01*
Y79761D01*
X200207D01*
Y79781D01*
X200169D01*
Y79800D01*
X200149D01*
Y79819D01*
X200130D01*
Y79838D01*
X200111D01*
Y79857D01*
X200092D01*
Y79896D01*
X200073D01*
Y79915D01*
X200053D01*
Y79934D01*
X200034D01*
Y79973D01*
X200015D01*
Y80011D01*
X199996D01*
Y80050D01*
X199977D01*
Y80088D01*
X199957D01*
Y80146D01*
X199938D01*
Y80203D01*
X199919D01*
Y80261D01*
X199900D01*
Y80338D01*
X199881D01*
Y80415D01*
X199861D01*
Y80511D01*
X199842D01*
Y80607D01*
X199823D01*
Y80722D01*
X199804D01*
Y80837D01*
X199784D01*
Y80953D01*
X199765D01*
Y81068D01*
X199746D01*
Y81203D01*
X199727D01*
Y81337D01*
X199707D01*
Y81395D01*
X199727D01*
Y81414D01*
X204838D01*
Y81395D01*
D02*
G37*
G36*
X198900Y80607D02*
X198881D01*
Y80299D01*
X198862D01*
Y80184D01*
X198843D01*
Y80088D01*
X198823D01*
Y80011D01*
X198804D01*
Y79953D01*
X198785D01*
Y79915D01*
X198766D01*
Y79877D01*
X198747D01*
Y79838D01*
X198728D01*
Y79819D01*
X198708D01*
Y79800D01*
X198689D01*
Y79781D01*
X198670D01*
Y79761D01*
X198651D01*
Y79742D01*
X198612D01*
Y79723D01*
X198593D01*
Y79704D01*
X198555D01*
Y79684D01*
X198516D01*
Y79665D01*
X198458D01*
Y79646D01*
X198420D01*
Y79627D01*
X198343D01*
Y79607D01*
X198247D01*
Y79588D01*
X197805D01*
Y79569D01*
X194442D01*
Y79511D01*
X194461D01*
Y79377D01*
X194481D01*
Y79319D01*
Y79300D01*
Y79242D01*
X194500D01*
Y79204D01*
X194519D01*
Y79166D01*
X194557D01*
Y79146D01*
X194577D01*
Y79127D01*
X194673D01*
Y79108D01*
X198093D01*
Y79089D01*
X198401D01*
Y79069D01*
X198612D01*
Y79050D01*
X198708D01*
Y79031D01*
X198766D01*
Y79012D01*
X198823D01*
Y78993D01*
X198862D01*
Y78973D01*
X198900D01*
Y78954D01*
X198939D01*
Y78935D01*
X198977D01*
Y78916D01*
X198996D01*
Y78896D01*
X199016D01*
Y78877D01*
X199035D01*
Y78858D01*
X199054D01*
Y78839D01*
X199073D01*
Y78820D01*
X199093D01*
Y78800D01*
X199112D01*
Y78781D01*
X199131D01*
Y78743D01*
X199150D01*
Y78724D01*
X199169D01*
Y78685D01*
X199189D01*
Y78647D01*
X199208D01*
Y78589D01*
X199227D01*
Y78551D01*
X199246D01*
Y78493D01*
X199266D01*
Y78435D01*
X199285D01*
Y78378D01*
X199304D01*
Y78301D01*
X199323D01*
Y78205D01*
X199342D01*
Y78089D01*
X199362D01*
Y77974D01*
X199381D01*
Y77840D01*
X199400D01*
Y77724D01*
X199419D01*
Y77590D01*
X199439D01*
Y77455D01*
X199458D01*
Y77321D01*
X199477D01*
Y77205D01*
X199496D01*
Y77071D01*
X199515D01*
Y76956D01*
X199535D01*
Y76840D01*
X199554D01*
Y76687D01*
X199573D01*
Y76533D01*
X199592D01*
Y76379D01*
X199611D01*
Y76225D01*
X199631D01*
Y76033D01*
X199650D01*
Y75860D01*
X199669D01*
Y75514D01*
X199650D01*
Y75380D01*
X199631D01*
Y75322D01*
X199611D01*
Y75284D01*
X199592D01*
Y75245D01*
X199573D01*
Y75226D01*
X199554D01*
Y75188D01*
X199535D01*
Y75169D01*
X199496D01*
Y75149D01*
X199477D01*
Y75130D01*
X199458D01*
Y75111D01*
X199419D01*
Y75092D01*
X199381D01*
Y75072D01*
X199323D01*
Y75053D01*
X199285D01*
Y75034D01*
X199208D01*
Y75015D01*
X199093D01*
Y74995D01*
X198823D01*
Y74976D01*
X198093D01*
Y74957D01*
X194673D01*
Y74976D01*
X194192D01*
Y74995D01*
X193962D01*
Y75015D01*
X193846D01*
Y75034D01*
X193770D01*
Y75053D01*
X193712D01*
Y75072D01*
X193654D01*
Y75092D01*
X193616D01*
Y75111D01*
X193577D01*
Y75130D01*
X193539D01*
Y75149D01*
X193500D01*
Y75169D01*
X193462D01*
Y75188D01*
X193443D01*
Y75207D01*
X193424D01*
Y75226D01*
X193404D01*
Y75245D01*
X193385D01*
Y75265D01*
X193366D01*
Y75284D01*
X193347D01*
Y75322D01*
X193328D01*
Y75341D01*
X193308D01*
Y75380D01*
X193289D01*
Y75399D01*
X193270D01*
Y75437D01*
X193251D01*
Y75495D01*
X193231D01*
Y75534D01*
X193212D01*
Y75591D01*
X193193D01*
Y75668D01*
X193174D01*
Y75726D01*
X193155D01*
Y75803D01*
X193135D01*
Y75880D01*
X193116D01*
Y75976D01*
X193097D01*
Y76072D01*
X193078D01*
Y76187D01*
X193059D01*
Y76302D01*
X193039D01*
Y76418D01*
X193020D01*
Y76552D01*
X193001D01*
Y76706D01*
X192982D01*
Y76859D01*
X192963D01*
Y76994D01*
X192943D01*
Y77129D01*
X192924D01*
Y77263D01*
X192905D01*
Y77398D01*
X192886D01*
Y77532D01*
X192866D01*
Y77686D01*
X192847D01*
Y77820D01*
X192828D01*
Y77955D01*
X192809D01*
Y78089D01*
X192789D01*
Y78224D01*
X192770D01*
Y78358D01*
X192751D01*
Y78493D01*
X192732D01*
Y78628D01*
X192713D01*
Y78762D01*
X192693D01*
Y78916D01*
X192674D01*
Y79050D01*
X192655D01*
Y79185D01*
X192636D01*
Y79319D01*
X192617D01*
Y79454D01*
X192597D01*
Y79588D01*
X192578D01*
Y79723D01*
X192559D01*
Y79877D01*
X192540D01*
Y80011D01*
X192520D01*
Y80184D01*
X192501D01*
Y80376D01*
X192482D01*
Y80645D01*
X192463D01*
Y80703D01*
X192482D01*
Y80914D01*
X192501D01*
Y81010D01*
X192520D01*
Y81068D01*
X192540D01*
Y81106D01*
X192559D01*
Y81145D01*
X192578D01*
Y81164D01*
X192597D01*
Y81183D01*
X192617D01*
Y81203D01*
X192636D01*
Y81222D01*
X192655D01*
Y81241D01*
X192674D01*
Y81260D01*
X192713D01*
Y81279D01*
X192732D01*
Y81299D01*
X192789D01*
Y81318D01*
X192828D01*
Y81337D01*
X192905D01*
Y81356D01*
X192982D01*
Y81375D01*
X193116D01*
Y81395D01*
X193270D01*
Y81414D01*
X198900D01*
Y80607D01*
D02*
G37*
G36*
X190003Y84047D02*
X190176D01*
Y84027D01*
X190311D01*
Y84008D01*
X190426D01*
Y83989D01*
X190483D01*
Y83970D01*
X190541D01*
Y83951D01*
X190599D01*
Y83931D01*
X190637D01*
Y83912D01*
X190656D01*
Y83893D01*
X190695D01*
Y83874D01*
X190733D01*
Y83854D01*
X190752D01*
Y83835D01*
X190772D01*
Y83816D01*
X190791D01*
Y83797D01*
X190810D01*
Y83777D01*
X190829D01*
Y83758D01*
X190849D01*
Y83720D01*
X190868D01*
Y83701D01*
X190887D01*
Y83662D01*
X190906D01*
Y83624D01*
X190926D01*
Y83585D01*
X190945D01*
Y83547D01*
X190964D01*
Y83508D01*
X190983D01*
Y83470D01*
X191002D01*
Y83393D01*
X191022D01*
Y83336D01*
X191041D01*
Y83240D01*
X191060D01*
Y83143D01*
X191079D01*
Y83047D01*
X191098D01*
Y82932D01*
X191118D01*
Y82836D01*
X191137D01*
Y82721D01*
X191156D01*
Y82605D01*
X191175D01*
Y82490D01*
X191194D01*
Y82375D01*
X191214D01*
Y82259D01*
X191233D01*
Y82106D01*
X191252D01*
Y81971D01*
X191271D01*
Y81837D01*
X191291D01*
Y81702D01*
X191310D01*
Y81548D01*
X191329D01*
Y81414D01*
X191348D01*
Y81279D01*
X191367D01*
Y81145D01*
X191387D01*
Y80991D01*
X191406D01*
Y80857D01*
X191425D01*
Y80722D01*
X191444D01*
Y80588D01*
X191464D01*
Y80434D01*
X191483D01*
Y80299D01*
X191502D01*
Y80165D01*
X191521D01*
Y80030D01*
X191540D01*
Y79877D01*
X191560D01*
Y79742D01*
X191579D01*
Y79607D01*
X191598D01*
Y79473D01*
X191617D01*
Y79319D01*
X191637D01*
Y79185D01*
X191656D01*
Y79050D01*
X191675D01*
Y78916D01*
X191694D01*
Y78762D01*
X191713D01*
Y78628D01*
X191733D01*
Y78493D01*
X191752D01*
Y78339D01*
X191771D01*
Y78205D01*
X191790D01*
Y78070D01*
X191809D01*
Y77936D01*
X191829D01*
Y77782D01*
X191848D01*
Y77647D01*
X191867D01*
Y77513D01*
X191886D01*
Y77378D01*
X191905D01*
Y77244D01*
X191925D01*
Y77109D01*
X191944D01*
Y76975D01*
X191963D01*
Y76840D01*
X191982D01*
Y76706D01*
X192002D01*
Y76571D01*
X192021D01*
Y76437D01*
X192040D01*
Y76302D01*
X192059D01*
Y76148D01*
X192078D01*
Y76014D01*
X192098D01*
Y75880D01*
X192117D01*
Y75745D01*
X192136D01*
Y75611D01*
X192155D01*
Y75476D01*
X192175D01*
Y75341D01*
X192194D01*
Y75207D01*
X192213D01*
Y75072D01*
X192232D01*
Y74957D01*
X191560D01*
Y74976D01*
X191194D01*
Y74995D01*
X191079D01*
Y75015D01*
X190983D01*
Y75034D01*
X190906D01*
Y75053D01*
X190849D01*
Y75072D01*
X190810D01*
Y75092D01*
X190752D01*
Y75111D01*
X190714D01*
Y75130D01*
X190676D01*
Y75149D01*
X190637D01*
Y75169D01*
X190618D01*
Y75188D01*
X190580D01*
Y75207D01*
X190560D01*
Y75226D01*
X190541D01*
Y75245D01*
X190522D01*
Y75265D01*
X190503D01*
Y75284D01*
X190483D01*
Y75322D01*
X190464D01*
Y75341D01*
X190445D01*
Y75380D01*
X190426D01*
Y75418D01*
X190407D01*
Y75457D01*
X190387D01*
Y75495D01*
X190368D01*
Y75553D01*
X190349D01*
Y75611D01*
X190330D01*
Y75668D01*
X190311D01*
Y75745D01*
X190291D01*
Y75841D01*
X190272D01*
Y75918D01*
X190253D01*
Y75995D01*
X190234D01*
Y76091D01*
X190215D01*
Y76206D01*
X190195D01*
Y76322D01*
X190176D01*
Y76456D01*
X190157D01*
Y76591D01*
X190138D01*
Y76725D01*
X190118D01*
Y76859D01*
X190099D01*
Y76994D01*
X190080D01*
Y77148D01*
X190061D01*
Y77282D01*
X190041D01*
Y77417D01*
X190022D01*
Y77551D01*
X190003D01*
Y77705D01*
X189984D01*
Y77840D01*
X189965D01*
Y77974D01*
X189945D01*
Y78128D01*
X189926D01*
Y78262D01*
X189907D01*
Y78397D01*
X189888D01*
Y78551D01*
X189869D01*
Y78685D01*
X189849D01*
Y78820D01*
X189830D01*
Y78954D01*
X189811D01*
Y79108D01*
X189792D01*
Y79242D01*
X189772D01*
Y79377D01*
X189753D01*
Y79531D01*
X189734D01*
Y79665D01*
X189715D01*
Y79800D01*
X189696D01*
Y79953D01*
X189676D01*
Y80088D01*
X189657D01*
Y80222D01*
X189638D01*
Y80357D01*
X189619D01*
Y80492D01*
X189600D01*
Y80645D01*
X189580D01*
Y80780D01*
X189561D01*
Y80914D01*
X189542D01*
Y81049D01*
X189523D01*
Y81183D01*
X189504D01*
Y81318D01*
X189484D01*
Y81452D01*
X189465D01*
Y81587D01*
X189446D01*
Y81721D01*
X189427D01*
Y81875D01*
X189407D01*
Y82010D01*
X189388D01*
Y82144D01*
X189369D01*
Y82279D01*
X189350D01*
Y82413D01*
X189330D01*
Y82548D01*
X189311D01*
Y82682D01*
X189292D01*
Y82817D01*
X189273D01*
Y82970D01*
X189254D01*
Y83105D01*
X189234D01*
Y83240D01*
X189215D01*
Y83374D01*
X189196D01*
Y83508D01*
X189177D01*
Y83643D01*
X189158D01*
Y83777D01*
X189138D01*
Y83912D01*
X189119D01*
Y84066D01*
X190003D01*
Y84047D01*
D02*
G37*
G36*
X181106Y80626D02*
X181087D01*
Y80299D01*
X181067D01*
Y80184D01*
X181048D01*
Y80088D01*
X181029D01*
Y80011D01*
X181010D01*
Y79953D01*
X180991D01*
Y79915D01*
X180971D01*
Y79877D01*
X180952D01*
Y79838D01*
X180933D01*
Y79819D01*
X180914D01*
Y79800D01*
X180894D01*
Y79781D01*
X180875D01*
Y79761D01*
X180856D01*
Y79742D01*
X180817D01*
Y79723D01*
X180798D01*
Y79704D01*
X180760D01*
Y79684D01*
X180721D01*
Y79665D01*
X180683D01*
Y79646D01*
X180625D01*
Y79627D01*
X180549D01*
Y79607D01*
X180452D01*
Y79588D01*
X180010D01*
Y79569D01*
X176647D01*
Y79511D01*
X176667D01*
Y79377D01*
X176686D01*
Y79242D01*
X176705D01*
Y79204D01*
X176724D01*
Y79166D01*
X176763D01*
Y79146D01*
X176782D01*
Y79127D01*
X176878D01*
Y79108D01*
X180299D01*
Y79089D01*
X180645D01*
Y79069D01*
X180817D01*
Y79050D01*
X180914D01*
Y79031D01*
X180971D01*
Y79012D01*
X181029D01*
Y78993D01*
X181067D01*
Y78973D01*
X181106D01*
Y78954D01*
X181144D01*
Y78935D01*
X181183D01*
Y78916D01*
X181202D01*
Y78896D01*
X181221D01*
Y78877D01*
X181240D01*
Y78858D01*
X181260D01*
Y78839D01*
X181279D01*
Y78820D01*
X181298D01*
Y78800D01*
X181317D01*
Y78781D01*
X181336D01*
Y78743D01*
X181356D01*
Y78724D01*
X181375D01*
Y78685D01*
X181394D01*
Y78647D01*
X181413D01*
Y78589D01*
X181432D01*
Y78551D01*
X181452D01*
Y78493D01*
X181471D01*
Y78435D01*
X181490D01*
Y78378D01*
X181509D01*
Y78301D01*
X181528D01*
Y78205D01*
X181548D01*
Y78089D01*
X181567D01*
Y77974D01*
X181586D01*
Y77859D01*
X181605D01*
Y77724D01*
X181625D01*
Y77590D01*
X181644D01*
Y77455D01*
X181663D01*
Y77321D01*
X181682D01*
Y77205D01*
X181702D01*
Y77071D01*
X181721D01*
Y76956D01*
X181740D01*
Y76840D01*
X181759D01*
Y76687D01*
X181778D01*
Y76533D01*
X181798D01*
Y76379D01*
X181817D01*
Y76225D01*
X181836D01*
Y76052D01*
X181855D01*
Y75860D01*
X181874D01*
Y75514D01*
X181855D01*
Y75380D01*
X181836D01*
Y75322D01*
X181817D01*
Y75284D01*
X181798D01*
Y75245D01*
X181778D01*
Y75226D01*
X181759D01*
Y75188D01*
X181740D01*
Y75169D01*
X181702D01*
Y75149D01*
X181682D01*
Y75130D01*
X181663D01*
Y75111D01*
X181625D01*
Y75092D01*
X181586D01*
Y75072D01*
X181528D01*
Y75053D01*
X181490D01*
Y75034D01*
X181413D01*
Y75015D01*
X181317D01*
Y74995D01*
X181087D01*
Y74976D01*
X180606D01*
Y74957D01*
X176878D01*
Y74976D01*
X176398D01*
Y74995D01*
X176167D01*
Y75015D01*
X176052D01*
Y75034D01*
X175994D01*
Y75053D01*
X175917D01*
Y75072D01*
X175860D01*
Y75092D01*
X175821D01*
Y75111D01*
X175783D01*
Y75130D01*
X175744D01*
Y75149D01*
X175706D01*
Y75169D01*
X175668D01*
Y75188D01*
X175648D01*
Y75207D01*
X175629D01*
Y75226D01*
X175610D01*
Y75245D01*
X175591D01*
Y75265D01*
X175571D01*
Y75284D01*
X175552D01*
Y75322D01*
X175533D01*
Y75341D01*
X175514D01*
Y75380D01*
X175495D01*
Y75399D01*
X175475D01*
Y75437D01*
X175456D01*
Y75476D01*
X175437D01*
Y75534D01*
X175418D01*
Y75591D01*
X175398D01*
Y75649D01*
X175379D01*
Y75726D01*
X175360D01*
Y75803D01*
X175341D01*
Y75880D01*
X175322D01*
Y75976D01*
X175302D01*
Y76072D01*
X175283D01*
Y76187D01*
X175264D01*
Y76302D01*
X175245D01*
Y76418D01*
X175225D01*
Y76552D01*
X175206D01*
Y76706D01*
X175187D01*
Y76840D01*
X175168D01*
Y76994D01*
X175149D01*
Y77129D01*
X175129D01*
Y77263D01*
X175110D01*
Y77398D01*
X175091D01*
Y77532D01*
X175072D01*
Y77667D01*
X175052D01*
Y77801D01*
X175033D01*
Y77955D01*
X175014D01*
Y78089D01*
X174995D01*
Y78224D01*
X174976D01*
Y78358D01*
X174956D01*
Y78493D01*
X174937D01*
Y78628D01*
X174918D01*
Y78762D01*
X174899D01*
Y78896D01*
X174880D01*
Y79031D01*
X174860D01*
Y79166D01*
X174841D01*
Y79319D01*
X174822D01*
Y79454D01*
X174803D01*
Y79588D01*
X174784D01*
Y79723D01*
X174764D01*
Y79877D01*
X174745D01*
Y80011D01*
X174726D01*
Y80165D01*
X174707D01*
Y80376D01*
X174687D01*
Y80626D01*
X174668D01*
Y80722D01*
X174687D01*
Y80933D01*
X174707D01*
Y81010D01*
X174726D01*
Y81068D01*
X174745D01*
Y81106D01*
X174764D01*
Y81145D01*
X174784D01*
Y81164D01*
X174803D01*
Y81183D01*
X174822D01*
Y81203D01*
X174841D01*
Y81222D01*
X174860D01*
Y81241D01*
X174880D01*
Y81260D01*
X174899D01*
Y81279D01*
X174937D01*
Y81299D01*
X174995D01*
Y81318D01*
X175033D01*
Y81337D01*
X175110D01*
Y81356D01*
X175206D01*
Y81375D01*
X175302D01*
Y81395D01*
X175514D01*
Y81414D01*
X181106D01*
Y80626D01*
D02*
G37*
G36*
X172151Y81395D02*
X172650D01*
Y81375D01*
X172862D01*
Y81356D01*
X172996D01*
Y81337D01*
X173054D01*
Y81318D01*
X173112D01*
Y81299D01*
X173169D01*
Y81279D01*
X173208D01*
Y81260D01*
X173246D01*
Y81241D01*
X173265D01*
Y81222D01*
X173304D01*
Y81203D01*
X173323D01*
Y81183D01*
X173342D01*
Y81164D01*
X173362D01*
Y81145D01*
X173381D01*
Y81126D01*
X173400D01*
Y81106D01*
X173419D01*
Y81068D01*
X173438D01*
Y81049D01*
X173458D01*
Y81010D01*
X173477D01*
Y80991D01*
X173496D01*
Y80953D01*
X173515D01*
Y80914D01*
X173534D01*
Y80857D01*
X173554D01*
Y80818D01*
X173573D01*
Y80761D01*
X173592D01*
Y80684D01*
X173611D01*
Y80626D01*
X173630D01*
Y80530D01*
X173650D01*
Y80415D01*
X173669D01*
Y80299D01*
X173688D01*
Y80184D01*
X173707D01*
Y80069D01*
X173727D01*
Y79934D01*
X173746D01*
Y79819D01*
X173765D01*
Y79704D01*
X173784D01*
Y79569D01*
X173803D01*
Y79435D01*
X173823D01*
Y79300D01*
X173842D01*
Y79166D01*
X173861D01*
Y79012D01*
X173880D01*
Y78877D01*
X173899D01*
Y78743D01*
X173919D01*
Y78608D01*
X173938D01*
Y78474D01*
X173957D01*
Y78339D01*
X173976D01*
Y78205D01*
X173996D01*
Y78070D01*
X174015D01*
Y77936D01*
X174034D01*
Y77801D01*
X174053D01*
Y77667D01*
X174073D01*
Y77513D01*
X174092D01*
Y77378D01*
X174111D01*
Y77244D01*
X174130D01*
Y77109D01*
X174149D01*
Y76975D01*
X174169D01*
Y76840D01*
X174188D01*
Y76706D01*
X174207D01*
Y76571D01*
X174226D01*
Y76437D01*
X174245D01*
Y76283D01*
X174265D01*
Y76148D01*
X174284D01*
Y76014D01*
X174303D01*
Y75880D01*
X174322D01*
Y75745D01*
X174341D01*
Y75611D01*
X174361D01*
Y75476D01*
X174380D01*
Y75341D01*
X174399D01*
Y75188D01*
X174418D01*
Y75053D01*
X174438D01*
Y74957D01*
X173842D01*
Y74976D01*
X173419D01*
Y74995D01*
X173227D01*
Y75015D01*
X173112D01*
Y75034D01*
X173054D01*
Y75053D01*
X172996D01*
Y75072D01*
X172958D01*
Y75092D01*
X172919D01*
Y75111D01*
X172881D01*
Y75130D01*
X172843D01*
Y75149D01*
X172823D01*
Y75169D01*
X172804D01*
Y75188D01*
X172766D01*
Y75207D01*
X172747D01*
Y75226D01*
X172727D01*
Y75245D01*
X172708D01*
Y75265D01*
X172689D01*
Y75303D01*
X172670D01*
Y75322D01*
X172650D01*
Y75361D01*
X172631D01*
Y75380D01*
X172612D01*
Y75418D01*
X172593D01*
Y75457D01*
X172574D01*
Y75514D01*
X172554D01*
Y75572D01*
X172535D01*
Y75591D01*
Y75611D01*
Y75630D01*
X172516D01*
Y75706D01*
X172497D01*
Y75783D01*
X172477D01*
Y75860D01*
X172458D01*
Y75976D01*
X172439D01*
Y76072D01*
X172420D01*
Y76187D01*
X172401D01*
Y76322D01*
X172381D01*
Y76456D01*
X172362D01*
Y76571D01*
X172343D01*
Y76725D01*
X172324D01*
Y76859D01*
X172304D01*
Y76994D01*
X172285D01*
Y77129D01*
X172266D01*
Y77282D01*
X172247D01*
Y77417D01*
X172228D01*
Y77551D01*
X172208D01*
Y77686D01*
X172189D01*
Y77840D01*
X172170D01*
Y77974D01*
X172151D01*
Y78109D01*
X172132D01*
Y78243D01*
X172112D01*
Y78378D01*
X172093D01*
Y78531D01*
X172074D01*
Y78666D01*
X172055D01*
Y78800D01*
X172036D01*
Y78935D01*
X172016D01*
Y79089D01*
X171997D01*
Y79185D01*
X171978D01*
Y79281D01*
X171959D01*
Y79358D01*
X171939D01*
Y79415D01*
X171920D01*
Y79454D01*
X171901D01*
Y79473D01*
X171882D01*
Y79492D01*
X171863D01*
Y79511D01*
X171824D01*
Y79531D01*
X171786D01*
Y79550D01*
X171690D01*
Y79569D01*
X168404D01*
Y79588D01*
X168019D01*
Y79607D01*
X167885D01*
Y79627D01*
X167789D01*
Y79646D01*
X167712D01*
Y79665D01*
X167654D01*
Y79684D01*
X167616D01*
Y79704D01*
X167577D01*
Y79723D01*
X167539D01*
Y79742D01*
X167500D01*
Y79761D01*
X167481D01*
Y79781D01*
X167443D01*
Y79800D01*
X167423D01*
Y79819D01*
X167404D01*
Y79838D01*
X167385D01*
Y79857D01*
X167366D01*
Y79877D01*
X167347D01*
Y79915D01*
X167327D01*
Y79934D01*
X167308D01*
Y79973D01*
X167289D01*
Y80011D01*
X167270D01*
Y80050D01*
X167251D01*
Y80088D01*
X167231D01*
Y80126D01*
X167212D01*
Y80184D01*
X167193D01*
Y80242D01*
X167174D01*
Y80299D01*
X167155D01*
Y80376D01*
X167135D01*
Y80453D01*
X167116D01*
Y80568D01*
X167097D01*
Y80664D01*
X167078D01*
Y80780D01*
X167058D01*
Y80914D01*
X167039D01*
Y81029D01*
X167020D01*
Y81164D01*
X167001D01*
Y81299D01*
X166981D01*
Y81414D01*
X172151D01*
Y81395D01*
D02*
G37*
G36*
X129202Y80722D02*
X129182D01*
Y80318D01*
X129163D01*
Y80184D01*
X129144D01*
Y80088D01*
X129125D01*
Y80030D01*
X129105D01*
Y79973D01*
X129086D01*
Y79915D01*
X129067D01*
Y79877D01*
X129048D01*
Y79857D01*
X129029D01*
Y79819D01*
X129009D01*
Y79800D01*
X128990D01*
Y79781D01*
X128971D01*
Y79761D01*
X128952D01*
Y79742D01*
X128913D01*
Y79723D01*
X128894D01*
Y79704D01*
X128856D01*
Y79684D01*
X128817D01*
Y79665D01*
X128760D01*
Y79646D01*
X128702D01*
Y79627D01*
X128644D01*
Y79607D01*
X128548D01*
Y79588D01*
X128106D01*
Y79569D01*
X124743D01*
Y79492D01*
X124762D01*
Y79358D01*
X124782D01*
Y79242D01*
X124801D01*
Y79185D01*
X124820D01*
Y79166D01*
X124839D01*
Y79146D01*
X124878D01*
Y79127D01*
X124974D01*
Y79108D01*
X128394D01*
Y79089D01*
X128702D01*
Y79069D01*
X128913D01*
Y79050D01*
X129009D01*
Y79031D01*
X129067D01*
Y79012D01*
X129125D01*
Y78993D01*
X129163D01*
Y78973D01*
X129202D01*
Y78954D01*
X129240D01*
Y78935D01*
X129278D01*
Y78916D01*
X129298D01*
Y78896D01*
X129317D01*
Y78877D01*
X129336D01*
Y78858D01*
X129355D01*
Y78839D01*
X129375D01*
Y78820D01*
X129394D01*
Y78800D01*
X129413D01*
Y78781D01*
X129432D01*
Y78743D01*
X129451D01*
Y78704D01*
X129471D01*
Y78666D01*
X129490D01*
Y78628D01*
X129509D01*
Y78589D01*
X129528D01*
Y78551D01*
X129548D01*
Y78493D01*
X129567D01*
Y78435D01*
X129586D01*
Y78358D01*
X129605D01*
Y78282D01*
X129624D01*
Y78185D01*
X129643D01*
Y78070D01*
X129663D01*
Y77955D01*
X129682D01*
Y77840D01*
X129701D01*
Y77705D01*
X129720D01*
Y77571D01*
X129740D01*
Y77455D01*
X129759D01*
Y77302D01*
X129778D01*
Y77186D01*
X129797D01*
Y77071D01*
X129816D01*
Y76936D01*
X129836D01*
Y76821D01*
X129855D01*
Y76667D01*
X129874D01*
Y76514D01*
X129893D01*
Y76360D01*
X129913D01*
Y76187D01*
X129932D01*
Y76014D01*
X129951D01*
Y75822D01*
X129970D01*
Y75534D01*
X129951D01*
Y75399D01*
X129932D01*
Y75322D01*
X129913D01*
Y75284D01*
X129893D01*
Y75245D01*
X129874D01*
Y75226D01*
X129855D01*
Y75207D01*
X129836D01*
Y75188D01*
X129816D01*
Y75169D01*
X129797D01*
Y75149D01*
X129778D01*
Y75130D01*
X129740D01*
Y75111D01*
X129720D01*
Y75092D01*
X129663D01*
Y75072D01*
X129624D01*
Y75053D01*
X129586D01*
Y75034D01*
X129509D01*
Y75015D01*
X129394D01*
Y74995D01*
X129105D01*
Y74976D01*
X128760D01*
Y74957D01*
X128740D01*
Y74976D01*
X128394D01*
Y74957D01*
X124974D01*
Y74976D01*
X124474D01*
Y74995D01*
X124263D01*
Y75015D01*
X124148D01*
Y75034D01*
X124051D01*
Y75053D01*
X123994D01*
Y75072D01*
X123955D01*
Y75092D01*
X123898D01*
Y75111D01*
X123859D01*
Y75130D01*
X123840D01*
Y75149D01*
X123802D01*
Y75169D01*
X123763D01*
Y75188D01*
X123744D01*
Y75207D01*
X123725D01*
Y75226D01*
X123706D01*
Y75245D01*
X123686D01*
Y75265D01*
X123667D01*
Y75284D01*
X123648D01*
Y75303D01*
X123629D01*
Y75341D01*
X123609D01*
Y75361D01*
X123590D01*
Y75399D01*
X123571D01*
Y75437D01*
X123552D01*
Y75476D01*
X123533D01*
Y75534D01*
X123513D01*
Y75591D01*
X123494D01*
Y75649D01*
X123475D01*
Y75706D01*
X123456D01*
Y75783D01*
X123437D01*
Y75880D01*
X123417D01*
Y75956D01*
X123398D01*
Y76052D01*
X123379D01*
Y76168D01*
X123360D01*
Y76283D01*
X123340D01*
Y76418D01*
X123321D01*
Y76533D01*
X123302D01*
Y76687D01*
X123283D01*
Y76840D01*
X123264D01*
Y76975D01*
X123244D01*
Y77109D01*
X123225D01*
Y77244D01*
X123206D01*
Y77378D01*
X123187D01*
Y77513D01*
X123168D01*
Y77667D01*
X123148D01*
Y77801D01*
X123129D01*
Y77936D01*
X123110D01*
Y78070D01*
X123091D01*
Y78205D01*
X123071D01*
Y78339D01*
X123052D01*
Y78474D01*
X123033D01*
Y78608D01*
X123014D01*
Y78743D01*
X122995D01*
Y78896D01*
X122975D01*
Y79031D01*
X122956D01*
Y79166D01*
X122937D01*
Y79300D01*
X122918D01*
Y79435D01*
X122898D01*
Y79569D01*
X122879D01*
Y79704D01*
X122860D01*
Y79857D01*
X122841D01*
Y79992D01*
X122822D01*
Y80165D01*
X122802D01*
Y80338D01*
X122783D01*
Y80607D01*
X122764D01*
Y80761D01*
X122783D01*
Y80933D01*
X122802D01*
Y81010D01*
X122822D01*
Y81068D01*
X122841D01*
Y81106D01*
X122860D01*
Y81145D01*
X122879D01*
Y81164D01*
X122898D01*
Y81183D01*
X122918D01*
Y81203D01*
X122937D01*
Y81222D01*
X122956D01*
Y81241D01*
X122975D01*
Y81260D01*
X122995D01*
Y81279D01*
X123033D01*
Y81299D01*
X123071D01*
Y81318D01*
X123129D01*
Y81337D01*
X123206D01*
Y81356D01*
X123283D01*
Y81375D01*
X123417D01*
Y81395D01*
X123571D01*
Y81414D01*
X129202D01*
Y80722D01*
D02*
G37*
G36*
X120573Y81395D02*
X120996D01*
Y81375D01*
X121150D01*
Y81356D01*
X121227D01*
Y81337D01*
X121303D01*
Y81318D01*
X121361D01*
Y81299D01*
X121400D01*
Y81279D01*
X121438D01*
Y81260D01*
X121476D01*
Y81241D01*
X121496D01*
Y81222D01*
X121534D01*
Y81203D01*
X121553D01*
Y81183D01*
X121572D01*
Y81164D01*
X121592D01*
Y81145D01*
X121611D01*
Y81126D01*
X121630D01*
Y81106D01*
X121649D01*
Y81087D01*
X121669D01*
Y81049D01*
X121688D01*
Y81029D01*
X121707D01*
Y80991D01*
X121726D01*
Y80953D01*
X121746D01*
Y80914D01*
X121765D01*
Y80876D01*
X121784D01*
Y80818D01*
X121803D01*
Y80761D01*
X121822D01*
Y80703D01*
X121842D01*
Y80626D01*
X121861D01*
Y80530D01*
X121880D01*
Y80415D01*
X121899D01*
Y80299D01*
X121918D01*
Y80165D01*
X121938D01*
Y80050D01*
X121957D01*
Y79915D01*
X121976D01*
Y79800D01*
X121995D01*
Y79665D01*
X122014D01*
Y79511D01*
X122034D01*
Y79377D01*
X122053D01*
Y79242D01*
X122072D01*
Y79108D01*
X122091D01*
Y78973D01*
X122111D01*
Y78839D01*
X122130D01*
Y78704D01*
X122149D01*
Y78570D01*
X122168D01*
Y78435D01*
X122187D01*
Y78301D01*
X122207D01*
Y78166D01*
X122226D01*
Y78032D01*
X122245D01*
Y77916D01*
X122264D01*
Y77782D01*
X122284D01*
Y77628D01*
X122303D01*
Y77494D01*
X122322D01*
Y77359D01*
X122341D01*
Y77205D01*
X122360D01*
Y77071D01*
X122380D01*
Y76936D01*
X122399D01*
Y76783D01*
X122418D01*
Y76648D01*
X122437D01*
Y76533D01*
X122457D01*
Y76379D01*
X122476D01*
Y76245D01*
X122495D01*
Y76091D01*
X122514D01*
Y75899D01*
X122533D01*
Y75495D01*
X122514D01*
Y75399D01*
X122495D01*
Y75341D01*
X122476D01*
Y75303D01*
X122457D01*
Y75265D01*
X122437D01*
Y75226D01*
X122418D01*
Y75207D01*
X122399D01*
Y75188D01*
X122380D01*
Y75169D01*
X122341D01*
Y75149D01*
X122322D01*
Y75130D01*
X122284D01*
Y75111D01*
X122264D01*
Y75092D01*
X122226D01*
Y75072D01*
X122187D01*
Y75053D01*
X122130D01*
Y75034D01*
X122072D01*
Y75015D01*
X121995D01*
Y74995D01*
X121765D01*
Y74976D01*
X121284D01*
Y74957D01*
X117345D01*
Y74976D01*
X116865D01*
Y74995D01*
X116749D01*
Y75015D01*
X116653D01*
Y75034D01*
X116576D01*
Y75053D01*
X116519D01*
Y75072D01*
X116480D01*
Y75092D01*
X116422D01*
Y75111D01*
X116384D01*
Y75130D01*
X116346D01*
Y75149D01*
X116326D01*
Y75169D01*
X116307D01*
Y75188D01*
X116269D01*
Y75207D01*
X116250D01*
Y75226D01*
X116230D01*
Y75245D01*
X116211D01*
Y75284D01*
X116192D01*
Y75303D01*
X116173D01*
Y75341D01*
X116153D01*
Y75380D01*
X116134D01*
Y75418D01*
X116115D01*
Y75457D01*
X116096D01*
Y75495D01*
X116077D01*
Y75553D01*
X116057D01*
Y75611D01*
X116038D01*
Y75687D01*
X116019D01*
Y75783D01*
X116000D01*
Y75880D01*
X115981D01*
Y75976D01*
X115961D01*
Y76091D01*
X115942D01*
Y76206D01*
X115923D01*
Y76341D01*
X115904D01*
Y76475D01*
X115884D01*
Y76610D01*
X115865D01*
Y76744D01*
X115846D01*
Y76802D01*
X120554D01*
Y76821D01*
X120535D01*
Y76956D01*
X120516D01*
Y77090D01*
X120496D01*
Y77225D01*
X120477D01*
Y77378D01*
X120458D01*
Y77513D01*
X120439D01*
Y77647D01*
X120420D01*
Y77782D01*
X120400D01*
Y77916D01*
X120381D01*
Y78051D01*
X120362D01*
Y78185D01*
X120343D01*
Y78320D01*
X120324D01*
Y78455D01*
X120304D01*
Y78589D01*
X120285D01*
Y78743D01*
X120266D01*
Y78877D01*
X120247D01*
Y79012D01*
X120227D01*
Y79127D01*
X120208D01*
Y79242D01*
X120189D01*
Y79377D01*
X120170D01*
Y79435D01*
X120150D01*
Y79473D01*
X120131D01*
Y79492D01*
X120112D01*
Y79511D01*
X120093D01*
Y79531D01*
X120054D01*
Y79550D01*
X119958D01*
Y79569D01*
X116730D01*
Y79588D01*
X116192D01*
Y79607D01*
X116096D01*
Y79627D01*
X116000D01*
Y79646D01*
X115942D01*
Y79665D01*
X115884D01*
Y79684D01*
X115827D01*
Y79704D01*
X115788D01*
Y79723D01*
X115750D01*
Y79742D01*
X115711D01*
Y79761D01*
X115692D01*
Y79781D01*
X115673D01*
Y79800D01*
X115635D01*
Y79819D01*
X115615D01*
Y79838D01*
X115596D01*
Y79877D01*
X115577D01*
Y79896D01*
X115558D01*
Y79915D01*
X115539D01*
Y79953D01*
X115519D01*
Y79973D01*
X115500D01*
Y80011D01*
X115481D01*
Y80069D01*
X115462D01*
Y80107D01*
X115442D01*
Y80165D01*
X115423D01*
Y80222D01*
X115404D01*
Y80280D01*
X115385D01*
Y80357D01*
X115366D01*
Y80453D01*
X115346D01*
Y80530D01*
X115327D01*
Y80645D01*
X115308D01*
Y80741D01*
X115289D01*
Y80876D01*
X115269D01*
Y80991D01*
X115250D01*
Y81106D01*
X115231D01*
Y81241D01*
X115212D01*
Y81375D01*
X115193D01*
Y81395D01*
X115212D01*
Y81414D01*
X120573D01*
Y81395D01*
D02*
G37*
G36*
X135043D02*
X135678D01*
Y81375D01*
X135927D01*
Y81356D01*
X136062D01*
Y81337D01*
X136139D01*
Y81318D01*
X136196D01*
Y81299D01*
X136254D01*
Y81279D01*
X136293D01*
Y81260D01*
X136331D01*
Y81241D01*
X136369D01*
Y81222D01*
X136389D01*
Y81203D01*
X136427D01*
Y81183D01*
X136446D01*
Y81164D01*
X136466D01*
Y81145D01*
X136485D01*
Y81126D01*
X136504D01*
Y81106D01*
X136523D01*
Y81068D01*
X136542D01*
Y81049D01*
X136562D01*
Y81010D01*
X136581D01*
Y80991D01*
X136600D01*
Y80953D01*
X136619D01*
Y80914D01*
X136638D01*
Y80876D01*
X136658D01*
Y80818D01*
X136677D01*
Y80761D01*
X136696D01*
Y80703D01*
X136715D01*
Y80645D01*
X136734D01*
Y80530D01*
X136754D01*
Y80434D01*
X136773D01*
Y80299D01*
X136792D01*
Y80184D01*
X136811D01*
Y80050D01*
X136831D01*
Y79915D01*
X136850D01*
Y79781D01*
X136869D01*
Y79646D01*
X136888D01*
Y79492D01*
X136907D01*
Y79358D01*
X136927D01*
Y79204D01*
X136946D01*
Y79069D01*
X136965D01*
Y78935D01*
X136984D01*
Y78800D01*
X137004D01*
Y78647D01*
X137023D01*
Y78512D01*
X137042D01*
Y78378D01*
X137061D01*
Y78243D01*
X137080D01*
Y78109D01*
X137100D01*
Y77974D01*
X137119D01*
Y77840D01*
X137138D01*
Y77686D01*
X137157D01*
Y77551D01*
X137177D01*
Y77532D01*
Y77513D01*
Y77417D01*
X137196D01*
Y77282D01*
X137215D01*
Y77148D01*
X137234D01*
Y77013D01*
X137253D01*
Y76879D01*
X137273D01*
Y76725D01*
X137292D01*
Y76591D01*
X137311D01*
Y76456D01*
X137330D01*
Y76322D01*
X137349D01*
Y76187D01*
X137369D01*
Y76052D01*
X137388D01*
Y75899D01*
X137407D01*
Y75764D01*
X137426D01*
Y75630D01*
X137445D01*
Y75495D01*
X137465D01*
Y75361D01*
X137484D01*
Y75226D01*
X137503D01*
Y75072D01*
X137522D01*
Y74938D01*
X137542D01*
Y74803D01*
X137561D01*
Y74669D01*
X137580D01*
Y74534D01*
X137599D01*
Y74400D01*
X137619D01*
Y74246D01*
X137638D01*
Y74111D01*
X137657D01*
Y73977D01*
X137676D01*
Y73843D01*
X137695D01*
Y73708D01*
X137715D01*
Y73573D01*
X137734D01*
Y73420D01*
X137753D01*
Y73285D01*
X137772D01*
Y73151D01*
X137791D01*
Y73016D01*
X137811D01*
Y72882D01*
X137830D01*
Y72747D01*
X137849D01*
Y72593D01*
X137868D01*
Y72459D01*
X137888D01*
Y72324D01*
X137907D01*
Y72305D01*
X137061D01*
Y72324D01*
X136831D01*
Y72344D01*
X136715D01*
Y72363D01*
X136581D01*
Y72382D01*
X136523D01*
Y72401D01*
X136466D01*
Y72421D01*
X136408D01*
Y72440D01*
X136369D01*
Y72459D01*
X136331D01*
Y72478D01*
X136293D01*
Y72497D01*
X136273D01*
Y72517D01*
X136254D01*
Y72536D01*
X136235D01*
Y72555D01*
X136216D01*
Y72574D01*
X136196D01*
Y72593D01*
X136177D01*
Y72613D01*
X136158D01*
Y72651D01*
X136139D01*
Y72670D01*
X136120D01*
Y72709D01*
X136100D01*
Y72747D01*
X136081D01*
Y72766D01*
X136062D01*
Y72824D01*
X136043D01*
Y72862D01*
X136023D01*
Y72920D01*
X136004D01*
Y72997D01*
X135985D01*
Y73074D01*
X135966D01*
Y73151D01*
X135947D01*
Y73228D01*
X135927D01*
Y73324D01*
X135908D01*
Y73439D01*
X135889D01*
Y73535D01*
X135870D01*
Y73650D01*
X135851D01*
Y73766D01*
X135831D01*
Y73900D01*
X135812D01*
Y74035D01*
X135793D01*
Y74169D01*
X135774D01*
Y74304D01*
X135754D01*
Y74438D01*
X135735D01*
Y74573D01*
X135716D01*
Y74707D01*
X135697D01*
Y74842D01*
X135678D01*
Y74957D01*
X132103D01*
Y74976D01*
X131738D01*
Y74995D01*
X131584D01*
Y75015D01*
X131508D01*
Y75034D01*
X131450D01*
Y75053D01*
X131392D01*
Y75072D01*
X131354D01*
Y75092D01*
X131315D01*
Y75111D01*
X131277D01*
Y75130D01*
X131238D01*
Y75149D01*
X131219D01*
Y75169D01*
X131181D01*
Y75188D01*
X131162D01*
Y75207D01*
X131142D01*
Y75226D01*
X131123D01*
Y75245D01*
X131104D01*
Y75265D01*
X131085D01*
Y75303D01*
X131066D01*
Y75322D01*
X131046D01*
Y75361D01*
X131027D01*
Y75380D01*
X131008D01*
Y75418D01*
X130989D01*
Y75457D01*
X130970D01*
Y75514D01*
X130950D01*
Y75553D01*
X130931D01*
Y75611D01*
X130912D01*
Y75687D01*
X130893D01*
Y75764D01*
X130873D01*
Y75841D01*
X130854D01*
Y75918D01*
X130835D01*
Y76033D01*
X130816D01*
Y76148D01*
X130797D01*
Y76264D01*
X130777D01*
Y76398D01*
X130758D01*
Y76552D01*
X130739D01*
Y76687D01*
X130720D01*
Y76840D01*
X130701D01*
Y76975D01*
X130681D01*
Y77109D01*
X130662D01*
Y77263D01*
X130643D01*
Y77398D01*
X130624D01*
Y77532D01*
X130604D01*
Y77667D01*
X130585D01*
Y77801D01*
X130566D01*
Y77955D01*
X130547D01*
Y78089D01*
X130527D01*
Y78224D01*
X130508D01*
Y78358D01*
X130489D01*
Y78493D01*
X130470D01*
Y78628D01*
X130451D01*
Y78781D01*
X130431D01*
Y78916D01*
X130412D01*
Y79050D01*
X130393D01*
Y79185D01*
X130374D01*
Y79319D01*
X130355D01*
Y79473D01*
X130335D01*
Y79607D01*
X130316D01*
Y79723D01*
X130297D01*
Y79857D01*
X130278D01*
Y79992D01*
X130259D01*
Y80126D01*
X130239D01*
Y80261D01*
X130220D01*
Y80453D01*
X130201D01*
Y80857D01*
X130220D01*
Y80972D01*
X130239D01*
Y81029D01*
X130259D01*
Y81087D01*
X130278D01*
Y81106D01*
X130297D01*
Y81145D01*
X130316D01*
Y81164D01*
X130335D01*
Y81183D01*
X130355D01*
Y81222D01*
X130393D01*
Y81241D01*
X130412D01*
Y81260D01*
X130451D01*
Y81279D01*
X130489D01*
Y81299D01*
X130527D01*
Y81318D01*
X130604D01*
Y81337D01*
X130681D01*
Y81356D01*
X130816D01*
Y81375D01*
X130989D01*
Y81395D01*
X131565D01*
Y81414D01*
X135043D01*
Y81395D01*
D02*
G37*
G36*
X187197D02*
X187639D01*
Y81375D01*
X187812D01*
Y81356D01*
X187908D01*
Y81337D01*
X187985D01*
Y81318D01*
X188043D01*
Y81299D01*
X188081D01*
Y81279D01*
X188139D01*
Y81260D01*
X188178D01*
Y81241D01*
X188216D01*
Y81222D01*
X188235D01*
Y81203D01*
X188274D01*
Y81183D01*
X188293D01*
Y81164D01*
X188312D01*
Y81145D01*
X188331D01*
Y81126D01*
X188350D01*
Y81087D01*
X188370D01*
Y81068D01*
X188389D01*
Y81049D01*
X188408D01*
Y81010D01*
X188427D01*
Y80972D01*
X188446D01*
Y80933D01*
X188466D01*
Y80895D01*
X188485D01*
Y80857D01*
X188504D01*
Y80799D01*
X188523D01*
Y80741D01*
X188543D01*
Y80703D01*
X188562D01*
Y80626D01*
X188581D01*
Y80549D01*
X188600D01*
Y80453D01*
X188619D01*
Y80338D01*
X188639D01*
Y80222D01*
X188658D01*
Y80126D01*
X188677D01*
Y80011D01*
X188696D01*
Y79896D01*
X188716D01*
Y79781D01*
X188735D01*
Y79646D01*
X188754D01*
Y79492D01*
X188773D01*
Y79358D01*
X188792D01*
Y79204D01*
X188812D01*
Y79069D01*
X188831D01*
Y78935D01*
X188850D01*
Y78800D01*
X188869D01*
Y78666D01*
X188889D01*
Y78531D01*
X188908D01*
Y78397D01*
X188927D01*
Y78243D01*
X188946D01*
Y78128D01*
X188965D01*
Y77993D01*
X188985D01*
Y77840D01*
X189004D01*
Y77724D01*
X189023D01*
Y77590D01*
X189042D01*
Y77455D01*
X189061D01*
Y77302D01*
X189081D01*
Y77167D01*
X189100D01*
Y77033D01*
X189119D01*
Y76898D01*
X189138D01*
Y76763D01*
X189158D01*
Y76610D01*
X189177D01*
Y76456D01*
X189196D01*
Y76283D01*
X189215D01*
Y76129D01*
X189234D01*
Y75976D01*
X189254D01*
Y75437D01*
X189234D01*
Y75380D01*
X189215D01*
Y75322D01*
X189196D01*
Y75284D01*
X189177D01*
Y75245D01*
X189158D01*
Y75226D01*
X189138D01*
Y75207D01*
X189119D01*
Y75188D01*
X189100D01*
Y75169D01*
X189081D01*
Y75149D01*
X189061D01*
Y75130D01*
X189042D01*
Y75111D01*
X189004D01*
Y75092D01*
X188965D01*
Y75072D01*
X188927D01*
Y75053D01*
X188889D01*
Y75034D01*
X188831D01*
Y75015D01*
X188754D01*
Y74995D01*
X188677D01*
Y74976D01*
X188197D01*
Y74957D01*
X184699D01*
Y74803D01*
X184719D01*
Y74669D01*
X184738D01*
Y74554D01*
X184757D01*
Y74477D01*
X184776D01*
Y74400D01*
X184795D01*
Y74342D01*
X184815D01*
Y74304D01*
X184834D01*
Y74265D01*
X184853D01*
Y74246D01*
X184872D01*
Y74227D01*
X184891D01*
Y74208D01*
X184911D01*
Y74188D01*
X184949D01*
Y74169D01*
X185007D01*
Y74150D01*
X185141D01*
Y74131D01*
X188485D01*
Y74111D01*
X188619D01*
Y74092D01*
X188754D01*
Y74073D01*
X188850D01*
Y74054D01*
X188927D01*
Y74035D01*
X188985D01*
Y74015D01*
X189042D01*
Y73996D01*
X189081D01*
Y73977D01*
X189119D01*
Y73958D01*
X189158D01*
Y73939D01*
X189177D01*
Y73919D01*
X189196D01*
Y73900D01*
X189215D01*
Y73881D01*
X189254D01*
Y73843D01*
X189273D01*
Y73823D01*
X189292D01*
Y73804D01*
X189311D01*
Y73766D01*
X189330D01*
Y73746D01*
X189350D01*
Y73708D01*
X189369D01*
Y73689D01*
X189388D01*
Y73650D01*
X189407D01*
Y73612D01*
X189427D01*
Y73573D01*
X189446D01*
Y73535D01*
X189465D01*
Y73477D01*
X189484D01*
Y73420D01*
X189504D01*
Y73362D01*
X189523D01*
Y73304D01*
X189542D01*
Y73228D01*
X189561D01*
Y73151D01*
X189580D01*
Y73074D01*
X189600D01*
Y72997D01*
X189619D01*
Y72920D01*
X189638D01*
Y72843D01*
X189657D01*
Y72766D01*
X189676D01*
Y72670D01*
X189696D01*
Y72593D01*
X189715D01*
Y72497D01*
X189734D01*
Y72421D01*
X189753D01*
Y72324D01*
X189772D01*
Y72286D01*
X184353D01*
Y72305D01*
X184084D01*
Y72324D01*
X183892D01*
Y72344D01*
X183777D01*
Y72363D01*
X183700D01*
Y72382D01*
X183642D01*
Y72401D01*
X183585D01*
Y72421D01*
X183546D01*
Y72440D01*
X183508D01*
Y72459D01*
X183469D01*
Y72478D01*
X183450D01*
Y72497D01*
X183431D01*
Y72517D01*
X183393D01*
Y72536D01*
X183373D01*
Y72574D01*
X183354D01*
Y72593D01*
X183335D01*
Y72613D01*
X183316D01*
Y72632D01*
X183297D01*
Y72670D01*
X183277D01*
Y72689D01*
X183258D01*
Y72728D01*
X183239D01*
Y72766D01*
X183220D01*
Y72805D01*
X183200D01*
Y72843D01*
X183181D01*
Y72901D01*
X183162D01*
Y72959D01*
X183143D01*
Y73016D01*
X183124D01*
Y73093D01*
X183104D01*
Y73170D01*
X183085D01*
Y73285D01*
X183066D01*
Y73381D01*
X183047D01*
Y73497D01*
X183027D01*
Y73612D01*
X183008D01*
Y73746D01*
X182989D01*
Y73900D01*
X182970D01*
Y74054D01*
X182951D01*
Y74208D01*
X182931D01*
Y74342D01*
X182912D01*
Y74477D01*
X182893D01*
Y74611D01*
X182874D01*
Y74765D01*
X182854D01*
Y74899D01*
X182835D01*
Y75034D01*
X182816D01*
Y75169D01*
X182797D01*
Y75303D01*
X182778D01*
Y75437D01*
X182758D01*
Y75572D01*
X182739D01*
Y75706D01*
X182720D01*
Y75841D01*
X182701D01*
Y75976D01*
X182682D01*
Y76091D01*
X182662D01*
Y76225D01*
X182643D01*
Y76360D01*
X182624D01*
Y76494D01*
X182605D01*
Y76629D01*
X182586D01*
Y76763D01*
X182566D01*
Y76917D01*
X182547D01*
Y77052D01*
X182528D01*
Y77205D01*
X182509D01*
Y77340D01*
X182489D01*
Y77494D01*
X182470D01*
Y77628D01*
X182451D01*
Y77763D01*
X182432D01*
Y77916D01*
X182413D01*
Y78051D01*
X182393D01*
Y78185D01*
X182374D01*
Y78320D01*
X182355D01*
Y78455D01*
X182336D01*
Y78589D01*
X182316D01*
Y78724D01*
X182297D01*
Y78839D01*
X182278D01*
Y78973D01*
X182259D01*
Y79108D01*
X182240D01*
Y79242D01*
X182220D01*
Y79377D01*
X182201D01*
Y79511D01*
X182182D01*
Y79684D01*
X182163D01*
Y79857D01*
X182143D01*
Y80030D01*
X182124D01*
Y80895D01*
X182143D01*
Y80972D01*
X182163D01*
Y81029D01*
X182182D01*
Y81068D01*
X182201D01*
Y81106D01*
X182220D01*
Y81126D01*
X182240D01*
Y81145D01*
X182259D01*
Y81164D01*
X182278D01*
Y81183D01*
X182297D01*
Y81203D01*
X182316D01*
Y81222D01*
X182336D01*
Y81241D01*
X182374D01*
Y81260D01*
X182393D01*
Y81279D01*
X182451D01*
Y81299D01*
X182509D01*
Y81318D01*
X182566D01*
Y81337D01*
X182643D01*
Y81356D01*
X182739D01*
Y81375D01*
X182951D01*
Y81395D01*
X183316D01*
Y81414D01*
X187197D01*
Y81395D01*
D02*
G37*
G36*
X205953Y72536D02*
X205972D01*
Y72517D01*
X205991D01*
Y72497D01*
X206030D01*
Y72478D01*
X206049D01*
Y72459D01*
X206068D01*
Y72440D01*
X206087D01*
Y72421D01*
X206107D01*
Y72401D01*
X206145D01*
Y72382D01*
X206164D01*
Y72363D01*
X206184D01*
Y72344D01*
X206203D01*
Y72324D01*
X206241D01*
Y72305D01*
X206260D01*
Y72286D01*
X206280D01*
Y72267D01*
X206299D01*
Y72247D01*
X206318D01*
Y72228D01*
X206357D01*
Y72209D01*
X206376D01*
Y72190D01*
X206395D01*
Y72171D01*
X206414D01*
Y72151D01*
X206453D01*
Y72132D01*
X206472D01*
Y72113D01*
X206491D01*
Y72094D01*
X206510D01*
Y72075D01*
X206529D01*
Y72055D01*
X206568D01*
Y72036D01*
X206587D01*
Y72017D01*
X206606D01*
Y71998D01*
X206626D01*
Y71978D01*
X206664D01*
Y71959D01*
X206683D01*
Y71940D01*
X206702D01*
Y71921D01*
X206722D01*
Y71902D01*
X206741D01*
Y71882D01*
X206779D01*
Y71863D01*
X206799D01*
Y71844D01*
X206818D01*
Y71825D01*
X206837D01*
Y71806D01*
X206856D01*
Y71786D01*
X206894D01*
Y71767D01*
X206914D01*
Y71748D01*
X206933D01*
Y71729D01*
X206952D01*
Y71710D01*
X206971D01*
Y71690D01*
X207010D01*
Y71671D01*
X207029D01*
Y71652D01*
X207048D01*
Y71633D01*
X207067D01*
Y71613D01*
X207087D01*
Y71594D01*
X207106D01*
Y71575D01*
X207144D01*
Y71556D01*
X207164D01*
Y71536D01*
X207183D01*
Y71517D01*
X207202D01*
Y71498D01*
X207221D01*
Y71479D01*
X207260D01*
Y71460D01*
X207279D01*
Y71440D01*
X207298D01*
Y71421D01*
X207317D01*
Y71402D01*
X207336D01*
Y71383D01*
X207375D01*
Y71364D01*
X207394D01*
Y71344D01*
X207413D01*
Y71325D01*
X207433D01*
Y71306D01*
X207452D01*
Y71287D01*
X207471D01*
Y71267D01*
X207509D01*
Y71248D01*
X207529D01*
Y71229D01*
X207548D01*
Y71210D01*
X207567D01*
Y71191D01*
X207586D01*
Y71171D01*
X207625D01*
Y71152D01*
X207644D01*
Y71133D01*
X207663D01*
Y71114D01*
X207682D01*
Y71095D01*
X207702D01*
Y71075D01*
X207740D01*
Y71056D01*
X207759D01*
Y71037D01*
X207779D01*
Y71018D01*
X207798D01*
Y70999D01*
X207817D01*
Y70979D01*
X207836D01*
Y70960D01*
X207875D01*
Y70941D01*
X207894D01*
Y70922D01*
X207913D01*
Y70902D01*
X207932D01*
Y70883D01*
X207951D01*
Y70864D01*
X207971D01*
Y70845D01*
X208009D01*
Y70825D01*
X208028D01*
Y70806D01*
X208048D01*
Y70787D01*
X208067D01*
Y70768D01*
X208086D01*
Y70749D01*
X208105D01*
Y70729D01*
X208124D01*
Y70710D01*
X208163D01*
Y70691D01*
X208182D01*
Y70672D01*
X208201D01*
Y70653D01*
X208221D01*
Y70633D01*
X208240D01*
Y70614D01*
X208259D01*
Y70595D01*
X208297D01*
Y70576D01*
X208317D01*
Y70556D01*
X208336D01*
Y70537D01*
X208355D01*
Y70518D01*
X208374D01*
Y70499D01*
X208393D01*
Y70480D01*
X208413D01*
Y70460D01*
X208451D01*
Y70441D01*
X208470D01*
Y70422D01*
X208489D01*
Y70403D01*
X208509D01*
Y70384D01*
X208528D01*
Y70364D01*
X208547D01*
Y70345D01*
X208586D01*
Y70326D01*
X208605D01*
Y70307D01*
X208624D01*
Y70287D01*
X208643D01*
Y70268D01*
X208663D01*
Y70249D01*
X208682D01*
Y70230D01*
X208720D01*
Y70211D01*
X208739D01*
Y70191D01*
X208759D01*
Y70172D01*
X208778D01*
Y70153D01*
X208797D01*
Y70134D01*
X208816D01*
Y70114D01*
X208835D01*
Y70095D01*
X208874D01*
Y70076D01*
X208893D01*
Y70057D01*
X208912D01*
Y70038D01*
X208931D01*
Y70018D01*
X208951D01*
Y69999D01*
X208970D01*
Y69980D01*
X208989D01*
Y69961D01*
X209028D01*
Y69942D01*
X209047D01*
Y69922D01*
X209066D01*
Y69903D01*
X209085D01*
Y69884D01*
X209104D01*
Y69865D01*
X209124D01*
Y69845D01*
X209143D01*
Y69826D01*
X209162D01*
Y69807D01*
X209201D01*
Y69788D01*
X209220D01*
Y69769D01*
X209239D01*
Y69749D01*
X209258D01*
Y69730D01*
X209277D01*
Y69711D01*
X209297D01*
Y69692D01*
X209316D01*
Y69673D01*
X209335D01*
Y69653D01*
X209373D01*
Y69634D01*
X209393D01*
Y69615D01*
X209412D01*
Y69596D01*
X209431D01*
Y69576D01*
X209450D01*
Y69557D01*
X209470D01*
Y69538D01*
X209489D01*
Y69519D01*
X209508D01*
Y69499D01*
X209546D01*
Y69480D01*
X209566D01*
Y69461D01*
X209585D01*
Y69442D01*
X209604D01*
Y69423D01*
X209623D01*
Y69403D01*
X209643D01*
Y69384D01*
X209662D01*
Y69365D01*
X209700D01*
Y69346D01*
X209719D01*
Y69327D01*
X209739D01*
Y69307D01*
X209758D01*
Y69288D01*
X209777D01*
Y69269D01*
X209796D01*
Y69250D01*
X209816D01*
Y69231D01*
X209835D01*
Y69211D01*
X209873D01*
Y69192D01*
X209892D01*
Y69173D01*
X209912D01*
Y69154D01*
X209931D01*
Y69134D01*
X209950D01*
Y69115D01*
X209969D01*
Y69096D01*
X209988D01*
Y69077D01*
X210008D01*
Y69058D01*
X210027D01*
Y69038D01*
X210046D01*
Y69019D01*
X210085D01*
Y69000D01*
X210104D01*
Y68981D01*
X210123D01*
Y68962D01*
X210142D01*
Y68942D01*
X210161D01*
Y68923D01*
X210181D01*
Y68904D01*
X210200D01*
Y68885D01*
X210219D01*
Y68865D01*
X210238D01*
Y68846D01*
X210258D01*
Y68827D01*
X210296D01*
Y68808D01*
X210315D01*
Y68788D01*
X210334D01*
Y68769D01*
X210353D01*
Y68750D01*
X210373D01*
Y68731D01*
X210392D01*
Y68712D01*
X210411D01*
Y68692D01*
X210430D01*
Y68673D01*
X210450D01*
Y68654D01*
X210488D01*
Y68635D01*
X210507D01*
Y68616D01*
X210526D01*
Y68596D01*
X210546D01*
Y68577D01*
X210565D01*
Y68558D01*
X210584D01*
Y68539D01*
X210603D01*
Y68520D01*
X210623D01*
Y68500D01*
X210642D01*
Y68481D01*
X210661D01*
Y68462D01*
X210680D01*
Y68443D01*
X210719D01*
Y68423D01*
X210738D01*
Y68404D01*
X210757D01*
Y68385D01*
X210776D01*
Y68366D01*
X210795D01*
Y68347D01*
X210815D01*
Y68327D01*
X210834D01*
Y68308D01*
X210853D01*
Y68289D01*
X210872D01*
Y68270D01*
X210892D01*
Y68251D01*
X210911D01*
Y68231D01*
X210930D01*
Y68212D01*
X210949D01*
Y68193D01*
X210988D01*
Y68174D01*
X211007D01*
Y68154D01*
X211026D01*
Y68135D01*
X211045D01*
Y68116D01*
X211065D01*
Y68097D01*
X211084D01*
Y68077D01*
X211103D01*
Y68058D01*
X211122D01*
Y68039D01*
X211141D01*
Y68020D01*
X211161D01*
Y68001D01*
X211180D01*
Y67981D01*
X211199D01*
Y67962D01*
X211218D01*
Y67943D01*
X211257D01*
Y67924D01*
X211276D01*
Y67905D01*
X211295D01*
Y67885D01*
X211314D01*
Y67866D01*
X211334D01*
Y67847D01*
X211353D01*
Y67828D01*
X211372D01*
Y67809D01*
X211391D01*
Y67789D01*
X211410D01*
Y67770D01*
X211430D01*
Y67751D01*
X211449D01*
Y67732D01*
X211468D01*
Y67712D01*
X211487D01*
Y67693D01*
X211507D01*
Y67674D01*
X211526D01*
Y67655D01*
X211564D01*
Y67636D01*
X211583D01*
Y67616D01*
X211603D01*
Y67597D01*
X211622D01*
Y67578D01*
X211641D01*
Y67559D01*
X211660D01*
Y67539D01*
X211680D01*
Y67520D01*
X211699D01*
Y67501D01*
X211718D01*
Y67482D01*
X211737D01*
Y67463D01*
X211756D01*
Y67443D01*
X211776D01*
Y67424D01*
X211795D01*
Y67405D01*
X211814D01*
Y67386D01*
X211833D01*
Y67366D01*
X211852D01*
Y67347D01*
X211872D01*
Y67328D01*
X211910D01*
Y67309D01*
X211929D01*
Y67290D01*
X211948D01*
Y67270D01*
X211968D01*
Y67251D01*
X211987D01*
Y67232D01*
X212006D01*
Y67213D01*
X212025D01*
Y67194D01*
X212045D01*
Y67174D01*
X212064D01*
Y67155D01*
X212083D01*
Y67136D01*
X212102D01*
Y67117D01*
X212122D01*
Y67098D01*
X212141D01*
Y67078D01*
X212160D01*
Y67059D01*
X212179D01*
Y67040D01*
X212198D01*
Y67021D01*
X212218D01*
Y67001D01*
X212237D01*
Y66982D01*
X212256D01*
Y66963D01*
X212275D01*
Y66944D01*
X212294D01*
Y66925D01*
X212333D01*
Y66905D01*
X212352D01*
Y66886D01*
X212371D01*
Y66867D01*
X212390D01*
Y66848D01*
X212410D01*
Y66828D01*
X212429D01*
Y66809D01*
X212448D01*
Y66790D01*
X212467D01*
Y66771D01*
X212487D01*
Y66752D01*
X212506D01*
Y66732D01*
X212525D01*
Y66713D01*
X212544D01*
Y66694D01*
X212563D01*
Y66675D01*
X212583D01*
Y66655D01*
X212602D01*
Y66636D01*
X212621D01*
Y66617D01*
X212640D01*
Y66598D01*
X212660D01*
Y66579D01*
X212679D01*
Y66559D01*
X212698D01*
Y66540D01*
X212717D01*
Y66521D01*
X212736D01*
Y66502D01*
X212756D01*
Y66483D01*
X212775D01*
Y66463D01*
X212813D01*
Y66444D01*
X212832D01*
Y66425D01*
X212852D01*
Y66406D01*
X212871D01*
Y66386D01*
X212890D01*
Y66367D01*
X212909D01*
Y66348D01*
X212929D01*
Y66329D01*
X212948D01*
Y66310D01*
X212967D01*
Y66290D01*
X212986D01*
Y66271D01*
X213005D01*
Y66252D01*
X213025D01*
Y66233D01*
X213044D01*
Y66214D01*
X213063D01*
Y66194D01*
X213082D01*
Y66175D01*
X213102D01*
Y66156D01*
X213121D01*
Y66137D01*
X213140D01*
Y66117D01*
X213159D01*
Y66098D01*
X213178D01*
Y66079D01*
X213198D01*
Y66060D01*
X213217D01*
Y66040D01*
X213236D01*
Y66021D01*
X213255D01*
Y66002D01*
X213275D01*
Y65983D01*
X213294D01*
Y65964D01*
X213313D01*
Y65944D01*
X213332D01*
Y65925D01*
X213351D01*
Y65906D01*
X213371D01*
Y65887D01*
X213390D01*
Y65868D01*
X213409D01*
Y65848D01*
X213428D01*
Y65829D01*
X213447D01*
Y65810D01*
X213467D01*
Y65791D01*
X213486D01*
Y65772D01*
X213505D01*
Y65752D01*
X213524D01*
Y65733D01*
X213544D01*
Y65714D01*
X213563D01*
Y65695D01*
X213582D01*
Y65675D01*
X213601D01*
Y65656D01*
X213620D01*
Y65637D01*
X213640D01*
Y65618D01*
X213659D01*
Y65599D01*
X213678D01*
Y65579D01*
X213697D01*
Y65560D01*
X213717D01*
Y65541D01*
X213736D01*
Y65522D01*
X213755D01*
Y65503D01*
X213774D01*
Y65483D01*
X213793D01*
Y65464D01*
X213812D01*
Y65445D01*
X213832D01*
Y65426D01*
X213851D01*
Y65406D01*
X213870D01*
Y65387D01*
X213889D01*
Y65368D01*
X213909D01*
Y65349D01*
X213928D01*
Y65329D01*
X213947D01*
Y65310D01*
X213966D01*
Y65291D01*
X213985D01*
Y65272D01*
X214005D01*
Y65253D01*
X214024D01*
Y65233D01*
X214043D01*
Y65214D01*
X214062D01*
Y65195D01*
X214082D01*
Y65176D01*
X214101D01*
Y65157D01*
X214120D01*
Y65137D01*
X214139D01*
Y65118D01*
X214158D01*
Y65099D01*
X214178D01*
Y65080D01*
X214197D01*
Y65061D01*
X214216D01*
Y65041D01*
X214235D01*
Y65022D01*
X214254D01*
Y65003D01*
X214274D01*
Y64984D01*
X214293D01*
Y64964D01*
X214312D01*
Y64945D01*
X214331D01*
Y64907D01*
X214351D01*
Y64887D01*
X214331D01*
Y64849D01*
X214312D01*
Y64830D01*
X214274D01*
Y64811D01*
X214235D01*
Y64830D01*
X214216D01*
Y64849D01*
X214197D01*
Y64868D01*
X214178D01*
Y64887D01*
X214158D01*
Y64907D01*
X214120D01*
Y64926D01*
X214101D01*
Y64945D01*
X214082D01*
Y64964D01*
X214062D01*
Y64984D01*
X214043D01*
Y65003D01*
X214024D01*
Y65022D01*
X214005D01*
Y65041D01*
X213985D01*
Y65061D01*
X213966D01*
Y65080D01*
X213947D01*
Y65099D01*
X213928D01*
Y65118D01*
X213909D01*
Y65137D01*
X213889D01*
Y65157D01*
X213870D01*
Y65176D01*
X213851D01*
Y65195D01*
X213832D01*
Y65214D01*
X213812D01*
Y65233D01*
X213793D01*
Y65253D01*
X213774D01*
Y65272D01*
X213755D01*
Y65291D01*
X213736D01*
Y65310D01*
X213717D01*
Y65329D01*
X213697D01*
Y65349D01*
X213678D01*
Y65368D01*
X213640D01*
Y65387D01*
X213620D01*
Y65406D01*
X213601D01*
Y65426D01*
X213582D01*
Y65445D01*
X213563D01*
Y65464D01*
X213544D01*
Y65483D01*
X213524D01*
Y65503D01*
X213505D01*
Y65522D01*
X213486D01*
Y65541D01*
X213467D01*
Y65560D01*
X213447D01*
Y65579D01*
X213428D01*
Y65599D01*
X213409D01*
Y65618D01*
X213390D01*
Y65637D01*
X213371D01*
Y65656D01*
X213351D01*
Y65675D01*
X213332D01*
Y65695D01*
X213313D01*
Y65714D01*
X213294D01*
Y65733D01*
X213255D01*
Y65752D01*
X213236D01*
Y65772D01*
X213217D01*
Y65791D01*
X213198D01*
Y65810D01*
X213178D01*
Y65829D01*
X213159D01*
Y65848D01*
X213140D01*
Y65868D01*
X213121D01*
Y65887D01*
X213102D01*
Y65906D01*
X213082D01*
Y65925D01*
X213063D01*
Y65944D01*
X213044D01*
Y65964D01*
X213025D01*
Y65983D01*
X212986D01*
Y66002D01*
X212967D01*
Y66021D01*
X212948D01*
Y66040D01*
X212929D01*
Y66060D01*
X212909D01*
Y66079D01*
X212890D01*
Y66098D01*
X212871D01*
Y66117D01*
X212852D01*
Y66137D01*
X212832D01*
Y66156D01*
X212813D01*
Y66175D01*
X212794D01*
Y66194D01*
X212775D01*
Y66214D01*
X212756D01*
Y66233D01*
X212717D01*
Y66252D01*
X212698D01*
Y66271D01*
X212679D01*
Y66290D01*
X212660D01*
Y66310D01*
X212640D01*
Y66329D01*
X212621D01*
Y66348D01*
X212602D01*
Y66367D01*
X212583D01*
Y66386D01*
X212563D01*
Y66406D01*
X212544D01*
Y66425D01*
X212525D01*
Y66444D01*
X212506D01*
Y66463D01*
X212467D01*
Y66483D01*
X212448D01*
Y66502D01*
X212429D01*
Y66521D01*
X212410D01*
Y66540D01*
X212390D01*
Y66559D01*
X212371D01*
Y66579D01*
X212352D01*
Y66598D01*
X212333D01*
Y66617D01*
X212314D01*
Y66636D01*
X212294D01*
Y66655D01*
X212256D01*
Y66675D01*
X212237D01*
Y66694D01*
X212218D01*
Y66713D01*
X212198D01*
Y66732D01*
X212179D01*
Y66752D01*
X212160D01*
Y66771D01*
X212141D01*
Y66790D01*
X212122D01*
Y66809D01*
X212102D01*
Y66828D01*
X212083D01*
Y66848D01*
X212045D01*
Y66867D01*
X212025D01*
Y66886D01*
X212006D01*
Y66905D01*
X211987D01*
Y66925D01*
X211968D01*
Y66944D01*
X211948D01*
Y66963D01*
X211929D01*
Y66982D01*
X211910D01*
Y67001D01*
X211891D01*
Y67021D01*
X211872D01*
Y67040D01*
X211833D01*
Y67059D01*
X211814D01*
Y67078D01*
X211795D01*
Y67098D01*
X211776D01*
Y67117D01*
X211756D01*
Y67136D01*
X211737D01*
Y67155D01*
X211718D01*
Y67174D01*
X211699D01*
Y67194D01*
X211680D01*
Y67213D01*
X211641D01*
Y67232D01*
X211622D01*
Y67251D01*
X211603D01*
Y67270D01*
X211583D01*
Y67290D01*
X211564D01*
Y67309D01*
X211545D01*
Y67328D01*
X211526D01*
Y67347D01*
X211507D01*
Y67366D01*
X211487D01*
Y67386D01*
X211449D01*
Y67405D01*
X211430D01*
Y67424D01*
X211410D01*
Y67443D01*
X211391D01*
Y67463D01*
X211372D01*
Y67482D01*
X211353D01*
Y67501D01*
X211334D01*
Y67520D01*
X211314D01*
Y67539D01*
X211276D01*
Y67559D01*
X211257D01*
Y67578D01*
X211238D01*
Y67597D01*
X211218D01*
Y67616D01*
X211199D01*
Y67636D01*
X211180D01*
Y67655D01*
X211161D01*
Y67674D01*
X211141D01*
Y67693D01*
X211122D01*
Y67712D01*
X211084D01*
Y67732D01*
X211065D01*
Y67751D01*
X211045D01*
Y67770D01*
X211026D01*
Y67789D01*
X211007D01*
Y67809D01*
X210988D01*
Y67828D01*
X210968D01*
Y67847D01*
X210949D01*
Y67866D01*
X210911D01*
Y67885D01*
X210892D01*
Y67905D01*
X210872D01*
Y67924D01*
X210853D01*
Y67943D01*
X210834D01*
Y67962D01*
X210815D01*
Y67981D01*
X210795D01*
Y68001D01*
X210776D01*
Y68020D01*
X210738D01*
Y68039D01*
X210719D01*
Y68058D01*
X210699D01*
Y68077D01*
X210680D01*
Y68097D01*
X210661D01*
Y68116D01*
X210642D01*
Y68135D01*
X210623D01*
Y68154D01*
X210584D01*
Y68174D01*
X210565D01*
Y68193D01*
X210546D01*
Y68212D01*
X210526D01*
Y68231D01*
X210507D01*
Y68251D01*
X210488D01*
Y68270D01*
X210469D01*
Y68289D01*
X210430D01*
Y68308D01*
X210411D01*
Y68327D01*
X210392D01*
Y68347D01*
X210373D01*
Y68366D01*
X210353D01*
Y68385D01*
X210334D01*
Y68404D01*
X210296D01*
Y68423D01*
X210277D01*
Y68443D01*
X210258D01*
Y68462D01*
X210238D01*
Y68481D01*
X210219D01*
Y68500D01*
X210200D01*
Y68520D01*
X210181D01*
Y68539D01*
X210142D01*
Y68558D01*
X210123D01*
Y68577D01*
X210104D01*
Y68596D01*
X210085D01*
Y68616D01*
X210065D01*
Y68635D01*
X210046D01*
Y68654D01*
X210008D01*
Y68673D01*
X209988D01*
Y68692D01*
X209969D01*
Y68712D01*
X209950D01*
Y68731D01*
X209931D01*
Y68750D01*
X209912D01*
Y68769D01*
X209873D01*
Y68788D01*
X209854D01*
Y68808D01*
X209835D01*
Y68827D01*
X209816D01*
Y68846D01*
X209796D01*
Y68865D01*
X209777D01*
Y68885D01*
X209739D01*
Y68904D01*
X209719D01*
Y68923D01*
X209700D01*
Y68942D01*
X209681D01*
Y68962D01*
X209662D01*
Y68981D01*
X209643D01*
Y69000D01*
X209604D01*
Y69019D01*
X209585D01*
Y69038D01*
X209566D01*
Y69058D01*
X209546D01*
Y69077D01*
X209527D01*
Y69096D01*
X209508D01*
Y69115D01*
X209470D01*
Y69134D01*
X209450D01*
Y69154D01*
X209431D01*
Y69173D01*
X209412D01*
Y69192D01*
X209393D01*
Y69211D01*
X209373D01*
Y69231D01*
X209335D01*
Y69250D01*
X209316D01*
Y69269D01*
X209297D01*
Y69288D01*
X209277D01*
Y69307D01*
X209258D01*
Y69327D01*
X209239D01*
Y69346D01*
X209201D01*
Y69365D01*
X209181D01*
Y69384D01*
X209162D01*
Y69403D01*
X209143D01*
Y69423D01*
X209124D01*
Y69442D01*
X209085D01*
Y69461D01*
X209066D01*
Y69480D01*
X209047D01*
Y69499D01*
X209028D01*
Y69519D01*
X209008D01*
Y69538D01*
X208970D01*
Y69557D01*
X208951D01*
Y69576D01*
X208931D01*
Y69596D01*
X208912D01*
Y69615D01*
X208893D01*
Y69634D01*
X208855D01*
Y69653D01*
X208835D01*
Y69673D01*
X208816D01*
Y69692D01*
X208797D01*
Y69711D01*
X208778D01*
Y69730D01*
X208739D01*
Y69749D01*
X208720D01*
Y69769D01*
X208701D01*
Y69788D01*
X208682D01*
Y69807D01*
X208663D01*
Y69826D01*
X208624D01*
Y69845D01*
X208605D01*
Y69865D01*
X208586D01*
Y69884D01*
X208566D01*
Y69903D01*
X208528D01*
Y69922D01*
X208509D01*
Y69942D01*
X208489D01*
Y69961D01*
X208470D01*
Y69980D01*
X208451D01*
Y69999D01*
X208413D01*
Y70018D01*
X208393D01*
Y70038D01*
X208374D01*
Y70057D01*
X208355D01*
Y70076D01*
X208336D01*
Y70095D01*
X208297D01*
Y70114D01*
X208278D01*
Y70134D01*
X208259D01*
Y70153D01*
X208240D01*
Y70172D01*
X208221D01*
Y70191D01*
X208182D01*
Y70211D01*
X208163D01*
Y70230D01*
X208144D01*
Y70249D01*
X208124D01*
Y70268D01*
X208105D01*
Y70287D01*
X208067D01*
Y70307D01*
X208048D01*
Y70326D01*
X208028D01*
Y70345D01*
X208009D01*
Y70364D01*
X207971D01*
Y70384D01*
X207951D01*
Y70403D01*
X207932D01*
Y70422D01*
X207913D01*
Y70441D01*
X207894D01*
Y70460D01*
X207855D01*
Y70480D01*
X207836D01*
Y70499D01*
X207817D01*
Y70518D01*
X207798D01*
Y70537D01*
X207759D01*
Y70556D01*
X207740D01*
Y70576D01*
X207721D01*
Y70595D01*
X207702D01*
Y70614D01*
X207663D01*
Y70633D01*
X207644D01*
Y70653D01*
X207625D01*
Y70672D01*
X207606D01*
Y70691D01*
X207586D01*
Y70710D01*
X207548D01*
Y70729D01*
X207529D01*
Y70749D01*
X207509D01*
Y70768D01*
X207490D01*
Y70787D01*
X207452D01*
Y70806D01*
X207433D01*
Y70825D01*
X207413D01*
Y70845D01*
X207394D01*
Y70864D01*
X207356D01*
Y70883D01*
X207336D01*
Y70902D01*
X207317D01*
Y70922D01*
X207298D01*
Y70941D01*
X207260D01*
Y70960D01*
X207240D01*
Y70979D01*
X207221D01*
Y70999D01*
X207202D01*
Y71018D01*
X207164D01*
Y71037D01*
X207144D01*
Y71056D01*
X207125D01*
Y71075D01*
X207106D01*
Y71095D01*
X207087D01*
Y71114D01*
X207048D01*
Y71133D01*
X207029D01*
Y71152D01*
X207010D01*
Y71171D01*
X206991D01*
Y71191D01*
X206952D01*
Y71210D01*
X206933D01*
Y71229D01*
X206914D01*
Y71248D01*
X206894D01*
Y71267D01*
X206856D01*
Y71287D01*
X206837D01*
Y71306D01*
X206818D01*
Y71325D01*
X206779D01*
Y71344D01*
X206760D01*
Y71364D01*
X206741D01*
Y71383D01*
X206722D01*
Y71402D01*
X206683D01*
Y71421D01*
X206664D01*
Y71440D01*
X206645D01*
Y71460D01*
X206626D01*
Y71479D01*
X206587D01*
Y71498D01*
X206568D01*
Y71517D01*
X206549D01*
Y71536D01*
X206510D01*
Y71556D01*
X206491D01*
Y71575D01*
X206472D01*
Y71594D01*
X206453D01*
Y71613D01*
X206414D01*
Y71633D01*
X206395D01*
Y71652D01*
X206376D01*
Y71671D01*
X206337D01*
Y71690D01*
X206318D01*
Y71710D01*
X206299D01*
Y71729D01*
X206280D01*
Y71748D01*
X206241D01*
Y71767D01*
X206222D01*
Y71786D01*
X206203D01*
Y71806D01*
X206164D01*
Y71825D01*
X206145D01*
Y71844D01*
X206126D01*
Y71863D01*
X206107D01*
Y71882D01*
X206068D01*
Y71902D01*
X206049D01*
Y71921D01*
X206030D01*
Y71940D01*
X205991D01*
Y71959D01*
X205972D01*
Y71978D01*
X205953D01*
Y71998D01*
X205934D01*
Y72017D01*
X205895D01*
Y72036D01*
X205876D01*
Y72055D01*
X205857D01*
Y72075D01*
X205818D01*
Y72094D01*
X205799D01*
Y72132D01*
X205818D01*
Y72209D01*
X205838D01*
Y72286D01*
X205857D01*
Y72344D01*
X205876D01*
Y72401D01*
X205895D01*
Y72478D01*
X205914D01*
Y72536D01*
X205934D01*
Y72555D01*
X205953D01*
Y72536D01*
D02*
G37*
%LPC*%
G36*
X212467Y80299D02*
X210642D01*
Y80165D01*
X210661D01*
Y80050D01*
X210680D01*
Y79915D01*
X210699D01*
Y79781D01*
X210719D01*
Y79646D01*
X210738D01*
Y79511D01*
X210757D01*
Y79377D01*
X210776D01*
Y79242D01*
X210795D01*
Y79108D01*
X210815D01*
Y78973D01*
X210834D01*
Y78839D01*
X210853D01*
Y78704D01*
X210872D01*
Y78589D01*
X210892D01*
Y78531D01*
X212717D01*
Y78628D01*
X212698D01*
Y78743D01*
X212679D01*
Y78877D01*
X212660D01*
Y79012D01*
X212640D01*
Y79146D01*
X212621D01*
Y79281D01*
X212602D01*
Y79415D01*
X212583D01*
Y79531D01*
X212563D01*
Y79665D01*
X212544D01*
Y79800D01*
X212525D01*
Y79934D01*
X212506D01*
Y80069D01*
X212487D01*
Y80203D01*
X212467D01*
Y80299D01*
D02*
G37*
G36*
X149629Y79588D02*
X147035D01*
Y79531D01*
X147054D01*
Y79396D01*
X147073D01*
Y79262D01*
X147092D01*
Y79127D01*
X147111D01*
Y78993D01*
X147131D01*
Y78839D01*
X147150D01*
Y78704D01*
X147169D01*
Y78570D01*
X147188D01*
Y78435D01*
X147208D01*
Y78301D01*
X147227D01*
Y78166D01*
X147246D01*
Y78032D01*
X147265D01*
Y77897D01*
X147284D01*
Y77763D01*
X147304D01*
Y77628D01*
X147323D01*
Y77494D01*
X147342D01*
Y77359D01*
X147361D01*
Y77225D01*
X147380D01*
Y77109D01*
X147400D01*
Y77033D01*
X147419D01*
Y76956D01*
X147438D01*
Y76898D01*
X147457D01*
Y76879D01*
X147477D01*
Y76859D01*
X147496D01*
Y76840D01*
X147554D01*
Y76821D01*
X150282D01*
Y76879D01*
X150263D01*
Y77013D01*
X150244D01*
Y77148D01*
X150225D01*
Y77282D01*
X150205D01*
Y77417D01*
X150186D01*
Y77551D01*
X150167D01*
Y77686D01*
X150148D01*
Y77820D01*
X150128D01*
Y77955D01*
X150109D01*
Y78089D01*
X150090D01*
Y78224D01*
X150071D01*
Y78358D01*
X150052D01*
Y78493D01*
X150032D01*
Y78628D01*
X150013D01*
Y78781D01*
X149994D01*
Y78858D01*
Y78877D01*
Y78916D01*
X149975D01*
Y79050D01*
X149956D01*
Y79166D01*
X149936D01*
Y79300D01*
X149917D01*
Y79377D01*
X149898D01*
Y79435D01*
X149879D01*
Y79473D01*
X149859D01*
Y79492D01*
X149840D01*
Y79511D01*
X149821D01*
Y79531D01*
X149783D01*
Y79550D01*
X149744D01*
Y79569D01*
X149629D01*
Y79588D01*
D02*
G37*
G36*
X112694Y79569D02*
X109947D01*
Y79531D01*
X109966D01*
Y79358D01*
X109985D01*
Y79242D01*
X110004D01*
Y79185D01*
X110023D01*
Y79166D01*
X110062D01*
Y79146D01*
X110100D01*
Y79127D01*
X112848D01*
Y79242D01*
X112829D01*
Y79396D01*
X112810D01*
Y79454D01*
X112791D01*
Y79492D01*
X112771D01*
Y79511D01*
X112752D01*
Y79531D01*
X112733D01*
Y79550D01*
X112694D01*
Y79569D01*
D02*
G37*
G36*
X197555Y77263D02*
X194769D01*
Y77205D01*
X194788D01*
Y77052D01*
X194807D01*
Y76956D01*
X194826D01*
Y76898D01*
X194846D01*
Y76879D01*
X194865D01*
Y76840D01*
X194903D01*
Y76821D01*
X195038D01*
Y76802D01*
X197690D01*
Y76859D01*
X197670D01*
Y76956D01*
X197651D01*
Y77109D01*
X197632D01*
Y77186D01*
X197613D01*
Y77205D01*
X197594D01*
Y77225D01*
X197574D01*
Y77244D01*
X197555D01*
Y77263D01*
D02*
G37*
G36*
X179761D02*
X176974D01*
Y77205D01*
X176993D01*
Y77052D01*
X177013D01*
Y76956D01*
X177032D01*
Y76898D01*
X177051D01*
Y76879D01*
X177070D01*
Y76840D01*
X177109D01*
Y76821D01*
X177243D01*
Y76802D01*
X179895D01*
Y76859D01*
X179876D01*
Y76936D01*
X179857D01*
Y77090D01*
X179838D01*
Y77167D01*
X179818D01*
Y77205D01*
X179799D01*
Y77225D01*
X179780D01*
Y77244D01*
X179761D01*
Y77263D01*
D02*
G37*
G36*
X127856D02*
X125070D01*
Y77186D01*
X125089D01*
Y77033D01*
X125108D01*
Y76956D01*
X125128D01*
Y76898D01*
X125147D01*
Y76879D01*
X125166D01*
Y76840D01*
X125205D01*
Y76821D01*
X125339D01*
Y76802D01*
X127991D01*
Y76840D01*
X127972D01*
Y76936D01*
X127953D01*
Y77090D01*
X127933D01*
Y77167D01*
X127914D01*
Y77205D01*
X127895D01*
Y77225D01*
X127876D01*
Y77244D01*
X127856D01*
Y77263D01*
D02*
G37*
G36*
X134890Y79550D02*
X132199D01*
Y79396D01*
X132219D01*
Y79262D01*
X132238D01*
Y79127D01*
X132257D01*
Y78993D01*
X132276D01*
Y78858D01*
X132295D01*
Y78724D01*
X132315D01*
Y78589D01*
X132334D01*
Y78455D01*
X132353D01*
Y78320D01*
X132372D01*
Y78185D01*
X132392D01*
Y78051D01*
X132411D01*
Y77916D01*
X132430D01*
Y77782D01*
X132449D01*
Y77647D01*
X132468D01*
Y77513D01*
X132488D01*
Y77378D01*
X132507D01*
Y77244D01*
X132526D01*
Y77090D01*
X132545D01*
Y76994D01*
X132564D01*
Y76936D01*
X132584D01*
Y76898D01*
X132603D01*
Y76879D01*
X132622D01*
Y76859D01*
X132641D01*
Y76840D01*
X132680D01*
Y76821D01*
X132737D01*
Y76802D01*
X132949D01*
Y76783D01*
X135408D01*
Y76879D01*
X135389D01*
Y77013D01*
X135370D01*
Y77148D01*
X135351D01*
Y77302D01*
X135332D01*
Y77436D01*
X135312D01*
Y77571D01*
X135293D01*
Y77724D01*
X135274D01*
Y77859D01*
X135255D01*
Y77993D01*
X135236D01*
Y78147D01*
X135216D01*
Y78282D01*
X135197D01*
Y78416D01*
X135178D01*
Y78570D01*
X135159D01*
Y78704D01*
X135140D01*
Y78839D01*
X135120D01*
Y78993D01*
X135101D01*
Y79127D01*
X135082D01*
Y79204D01*
X135063D01*
Y79281D01*
X135043D01*
Y79339D01*
X135024D01*
Y79396D01*
X135005D01*
Y79435D01*
X134986D01*
Y79473D01*
X134967D01*
Y79492D01*
X134947D01*
Y79511D01*
X134928D01*
Y79531D01*
X134890D01*
Y79550D01*
D02*
G37*
G36*
X186794D02*
X184046D01*
Y79473D01*
X184065D01*
Y79339D01*
X184084D01*
Y79204D01*
X184104D01*
Y79069D01*
X184123D01*
Y78916D01*
X184142D01*
Y78781D01*
X184161D01*
Y78647D01*
X184180D01*
Y78512D01*
X184200D01*
Y78378D01*
X184219D01*
Y78243D01*
X184238D01*
Y78109D01*
X184257D01*
Y77974D01*
X184276D01*
Y77820D01*
X184296D01*
Y77686D01*
X184315D01*
Y77551D01*
X184334D01*
Y77417D01*
X184353D01*
Y77282D01*
X184373D01*
Y77167D01*
X184392D01*
Y77052D01*
X184411D01*
Y76975D01*
X184430D01*
Y76936D01*
X184450D01*
Y76898D01*
X184469D01*
Y76859D01*
X184507D01*
Y76840D01*
X184546D01*
Y76821D01*
X184603D01*
Y76802D01*
X184891D01*
Y76783D01*
X187274D01*
Y76879D01*
X187255D01*
Y77013D01*
X187236D01*
Y77167D01*
X187217D01*
Y77321D01*
X187197D01*
Y77455D01*
X187178D01*
Y77609D01*
X187159D01*
Y77744D01*
X187140D01*
Y77897D01*
X187121D01*
Y78032D01*
X187101D01*
Y78166D01*
X187082D01*
Y78301D01*
X187063D01*
Y78435D01*
X187044D01*
Y78570D01*
X187024D01*
Y78724D01*
X187005D01*
Y78858D01*
X186986D01*
Y78993D01*
X186967D01*
Y79108D01*
X186948D01*
Y79223D01*
X186928D01*
Y79358D01*
X186909D01*
Y79415D01*
X186890D01*
Y79454D01*
X186871D01*
Y79492D01*
X186852D01*
Y79511D01*
X186832D01*
Y79531D01*
X186794D01*
Y79550D01*
D02*
G37*
%LPD*%
M02*
