G04*
G04 #@! TF.GenerationSoftware,Altium Limited,Altium Designer,21.8.1 (53)*
G04*
G04 Layer_Physical_Order=3*
G04 Layer_Color=128*
%FSLAX25Y25*%
%MOIN*%
G70*
G04*
G04 #@! TF.SameCoordinates,8B24C30A-C4EC-4A74-8174-4ADAFF134E48*
G04*
G04*
G04 #@! TF.FilePolarity,Negative*
G04*
G01*
G75*
%ADD15C,0.01000*%
%ADD74C,0.04000*%
%ADD75C,0.05969*%
G04:AMPARAMS|DCode=76|XSize=79.685mil|YSize=79.685mil|CornerRadius=0mil|HoleSize=0mil|Usage=FLASHONLY|Rotation=0.000|XOffset=0mil|YOffset=0mil|HoleType=Round|Shape=Relief|Width=10mil|Gap=10mil|Entries=4|*
%AMTHD76*
7,0,0,0.07969,0.05969,0.01000,45*
%
%ADD76THD76*%
%ADD77C,0.08016*%
G04:AMPARAMS|DCode=78|XSize=100.157mil|YSize=100.157mil|CornerRadius=0mil|HoleSize=0mil|Usage=FLASHONLY|Rotation=0.000|XOffset=0mil|YOffset=0mil|HoleType=Round|Shape=Relief|Width=10mil|Gap=10mil|Entries=4|*
%AMTHD78*
7,0,0,0.10016,0.08016,0.01000,45*
%
%ADD78THD78*%
%ADD79C,0.16520*%
%ADD80C,0.04984*%
D15*
X344943Y128121D02*
X377423D01*
X344943Y59055D02*
Y128121D01*
X377559D02*
X377559Y355000D01*
X344943Y59055D02*
X377559D01*
Y0D02*
Y59055D01*
X0Y354724D02*
X159449D01*
X319882Y355000D02*
X377559Y355000D01*
X159449Y322342D02*
X319882D01*
Y354823D01*
X159449Y322342D02*
Y354724D01*
X0Y0D02*
Y354724D01*
Y0D02*
X377559D01*
D74*
X159449Y322342D02*
X319882D01*
X159449D02*
Y354724D01*
X0D02*
X159449D01*
X0Y0D02*
X377559D01*
Y59055D01*
X344943D02*
X377559D01*
X344943D02*
Y128121D01*
X377559D01*
X377559Y355000D01*
X319882Y355000D02*
X377559Y355000D01*
X319882Y322342D02*
Y355000D01*
X0Y0D02*
Y354724D01*
D75*
X80709Y328740D02*
D03*
Y318898D02*
D03*
Y313976D02*
D03*
Y309055D02*
D03*
Y299213D02*
D03*
Y289370D02*
D03*
Y284449D02*
D03*
X142520Y328937D02*
D03*
Y324016D02*
D03*
Y319094D02*
D03*
Y314173D02*
D03*
Y309252D02*
D03*
Y299410D02*
D03*
Y289567D02*
D03*
Y284646D02*
D03*
D76*
X80709Y323819D02*
D03*
Y304134D02*
D03*
Y294291D02*
D03*
X142520Y304331D02*
D03*
Y294488D02*
D03*
D77*
X266535Y5906D02*
D03*
X276535D02*
D03*
X286535D02*
D03*
X306535D02*
D03*
X316535D02*
D03*
X198819D02*
D03*
X218819D02*
D03*
X228819D02*
D03*
X248819D02*
D03*
X40000Y255000D02*
D03*
Y245000D02*
D03*
Y225000D02*
D03*
Y235000D02*
D03*
Y205000D02*
D03*
Y195000D02*
D03*
Y185000D02*
D03*
Y165000D02*
D03*
Y175000D02*
D03*
Y145000D02*
D03*
Y125000D02*
D03*
Y155000D02*
D03*
Y135000D02*
D03*
Y215000D02*
D03*
Y265000D02*
D03*
X50000Y105000D02*
D03*
Y135000D02*
D03*
Y125000D02*
D03*
Y115000D02*
D03*
Y145000D02*
D03*
Y165000D02*
D03*
Y55000D02*
D03*
Y65000D02*
D03*
Y85000D02*
D03*
Y95000D02*
D03*
Y75000D02*
D03*
Y155000D02*
D03*
X40000Y305000D02*
D03*
Y275000D02*
D03*
Y295000D02*
D03*
X50000Y285000D02*
D03*
Y295000D02*
D03*
X40000Y285000D02*
D03*
X50000Y305000D02*
D03*
Y275000D02*
D03*
Y255000D02*
D03*
Y245000D02*
D03*
Y235000D02*
D03*
Y225000D02*
D03*
Y215000D02*
D03*
Y205000D02*
D03*
Y185000D02*
D03*
Y175000D02*
D03*
Y265000D02*
D03*
Y195000D02*
D03*
X40000Y95000D02*
D03*
Y105000D02*
D03*
Y75000D02*
D03*
Y115000D02*
D03*
Y55000D02*
D03*
Y85000D02*
D03*
Y65000D02*
D03*
X20000Y255000D02*
D03*
Y245000D02*
D03*
Y225000D02*
D03*
Y235000D02*
D03*
Y185000D02*
D03*
Y165000D02*
D03*
Y175000D02*
D03*
Y145000D02*
D03*
Y125000D02*
D03*
Y155000D02*
D03*
Y135000D02*
D03*
Y215000D02*
D03*
Y265000D02*
D03*
X30000Y105000D02*
D03*
Y135000D02*
D03*
Y125000D02*
D03*
Y115000D02*
D03*
Y145000D02*
D03*
Y165000D02*
D03*
Y55000D02*
D03*
Y65000D02*
D03*
Y85000D02*
D03*
Y95000D02*
D03*
Y75000D02*
D03*
Y155000D02*
D03*
X20000Y305000D02*
D03*
Y275000D02*
D03*
Y295000D02*
D03*
X30000Y285000D02*
D03*
Y295000D02*
D03*
X20000Y285000D02*
D03*
X30000Y305000D02*
D03*
Y275000D02*
D03*
Y255000D02*
D03*
Y245000D02*
D03*
Y235000D02*
D03*
Y225000D02*
D03*
Y215000D02*
D03*
Y185000D02*
D03*
Y175000D02*
D03*
Y265000D02*
D03*
X20000Y95000D02*
D03*
Y105000D02*
D03*
Y75000D02*
D03*
Y115000D02*
D03*
Y55000D02*
D03*
Y85000D02*
D03*
Y65000D02*
D03*
D78*
X296535Y5906D02*
D03*
X208819D02*
D03*
X238819D02*
D03*
X20000Y205000D02*
D03*
Y195000D02*
D03*
X30000Y205000D02*
D03*
Y195000D02*
D03*
D79*
X357559Y334724D02*
D03*
Y20000D02*
D03*
X20000Y35000D02*
D03*
Y324724D02*
D03*
D80*
X203150Y242060D02*
D03*
X191943Y229890D02*
D03*
X292000Y144400D02*
D03*
X315200Y112400D02*
D03*
X317684Y118898D02*
D03*
X204331Y181890D02*
D03*
X280709Y176622D02*
D03*
X324925Y149606D02*
D03*
X66000Y209500D02*
D03*
X77722Y131870D02*
D03*
X248901Y225901D02*
D03*
X251000Y228000D02*
D03*
X302063Y127559D02*
D03*
X309984Y135827D02*
D03*
X304547Y135039D02*
D03*
X303150Y200000D02*
D03*
X87500Y56500D02*
D03*
X97500Y41016D02*
D03*
X90000Y46000D02*
D03*
X93000Y43500D02*
D03*
X148000Y40963D02*
D03*
X144000Y43500D02*
D03*
X141000Y46102D02*
D03*
X157000Y46500D02*
D03*
X156500Y40500D02*
D03*
X256532Y181646D02*
D03*
X303937Y181102D02*
D03*
X215354Y41732D02*
D03*
X232283D02*
D03*
X105905Y257087D02*
D03*
X108346Y227433D02*
D03*
X111417Y257874D02*
D03*
X324410Y254331D02*
D03*
X328500Y247500D02*
D03*
X332000Y242000D02*
D03*
X259016Y132677D02*
D03*
X258500Y89500D02*
D03*
X312000Y101000D02*
D03*
X309000Y97000D02*
D03*
X113500Y223000D02*
D03*
X267500Y243500D02*
D03*
X61000Y293000D02*
D03*
X216500Y175000D02*
D03*
X174762Y168500D02*
D03*
X293180Y133071D02*
D03*
X149315Y21209D02*
D03*
X200787Y71260D02*
D03*
X222948Y190336D02*
D03*
X240254Y178574D02*
D03*
X244094Y177953D02*
D03*
X293000Y124500D02*
D03*
X167000Y111000D02*
D03*
X184000Y107000D02*
D03*
X106213Y313300D02*
D03*
X101500Y323500D02*
D03*
X101000Y328500D02*
D03*
X106944Y298227D02*
D03*
X104302Y296874D02*
D03*
X98425Y302756D02*
D03*
X274000Y302500D02*
D03*
X198500Y220500D02*
D03*
X243500Y223000D02*
D03*
X223500Y231500D02*
D03*
X261000Y192500D02*
D03*
X273500Y195000D02*
D03*
X358000Y152500D02*
D03*
X99500Y208000D02*
D03*
X87141Y165277D02*
D03*
X89000Y117000D02*
D03*
X118500Y109500D02*
D03*
X127000Y107000D02*
D03*
X128500Y206000D02*
D03*
X146869Y207153D02*
D03*
X87087Y145179D02*
D03*
X71484Y244929D02*
D03*
X67500Y141000D02*
D03*
X162500Y242500D02*
D03*
X215000Y268500D02*
D03*
X201928Y234869D02*
D03*
X237008Y243654D02*
D03*
X229921D02*
D03*
X168504Y237795D02*
D03*
X119307Y227484D02*
D03*
X206299Y121260D02*
D03*
X288461Y193307D02*
D03*
X282677Y296850D02*
D03*
X279921Y189886D02*
D03*
X298819Y187402D02*
D03*
X293307Y184252D02*
D03*
X322441Y139764D02*
D03*
X319685Y135827D02*
D03*
X299213Y196063D02*
D03*
X279134Y184252D02*
D03*
X333858Y235433D02*
D03*
X333392Y217752D02*
D03*
X333465Y224016D02*
D03*
X324621Y259267D02*
D03*
X203977Y109549D02*
D03*
X204331Y115354D02*
D03*
X204724Y193307D02*
D03*
X123583Y189492D02*
D03*
X120472Y187008D02*
D03*
X331445Y271707D02*
D03*
X66142Y249606D02*
D03*
X201575Y138583D02*
D03*
X185827Y127953D02*
D03*
X308268Y139764D02*
D03*
X332799Y160630D02*
D03*
X338976Y155512D02*
D03*
X112205Y157480D02*
D03*
X115354Y161024D02*
D03*
X104331Y169685D02*
D03*
X106815Y164961D02*
D03*
X101181Y146063D02*
D03*
X185827Y153937D02*
D03*
X197638Y147244D02*
D03*
X144488Y87402D02*
D03*
X140157Y91732D02*
D03*
X153937Y86614D02*
D03*
X222441Y130709D02*
D03*
X186614Y133736D02*
D03*
X101181Y136221D02*
D03*
X79528Y66929D02*
D03*
X106299Y105905D02*
D03*
X79755Y79513D02*
D03*
X100787Y105512D02*
D03*
X78740Y92126D02*
D03*
X100394Y110236D02*
D03*
X248819Y238583D02*
D03*
X253521Y202499D02*
D03*
X235433Y206693D02*
D03*
X180217Y197736D02*
D03*
X164961Y194488D02*
D03*
X253937Y215748D02*
D03*
X164379Y205232D02*
D03*
X161990Y206994D02*
D03*
X161024Y209842D02*
D03*
X170079Y252756D02*
D03*
X138976Y257874D02*
D03*
X141732Y254331D02*
D03*
X69291Y156299D02*
D03*
X89633Y154855D02*
D03*
X65944Y158994D02*
D03*
X90945Y158661D02*
D03*
X72441Y129921D02*
D03*
X120472Y129134D02*
D03*
X123622Y131890D02*
D03*
X76378Y281102D02*
D03*
X135827Y283858D02*
D03*
X133465Y279921D02*
D03*
X263083Y189795D02*
D03*
X217323Y163386D02*
D03*
X272441Y168898D02*
D03*
X185138Y173524D02*
D03*
X174803Y164961D02*
D03*
X246142Y211739D02*
D03*
X212992Y211811D02*
D03*
X204331Y187008D02*
D03*
X180315Y50787D02*
D03*
X249213Y46850D02*
D03*
X266535Y77751D02*
D03*
X138756Y65618D02*
D03*
X210236Y35433D02*
D03*
X291732Y171653D02*
D03*
X185827Y77165D02*
D03*
X228346D02*
D03*
Y169685D02*
D03*
X266929Y186614D02*
D03*
X251390Y132862D02*
D03*
X249213Y89764D02*
D03*
X260630Y46850D02*
D03*
X319291Y82284D02*
D03*
X98425Y280709D02*
D03*
X250787Y254724D02*
D03*
X218898Y269291D02*
D03*
X231102Y264173D02*
D03*
X249606Y279134D02*
D03*
X253937Y259055D02*
D03*
X231496Y274016D02*
D03*
X257874Y278346D02*
D03*
X253150Y264173D02*
D03*
X130709Y312992D02*
D03*
X124803Y308661D02*
D03*
X117323Y298031D02*
D03*
X60630Y319291D02*
D03*
X65299Y309101D02*
D03*
X65354Y303543D02*
D03*
X61024Y275197D02*
D03*
Y244882D02*
D03*
X201575Y308268D02*
D03*
X287795Y168110D02*
D03*
Y100000D02*
D03*
X292913Y92126D02*
D03*
X292520Y79921D02*
D03*
X293307Y59842D02*
D03*
X287795Y42126D02*
D03*
X205118Y71653D02*
D03*
X175197D02*
D03*
X82000Y31224D02*
D03*
X250000Y274606D02*
D03*
X170079Y286221D02*
D03*
X196850Y274606D02*
D03*
Y277559D02*
D03*
Y280512D02*
D03*
Y283465D02*
D03*
X170276Y274606D02*
D03*
Y277559D02*
D03*
Y280512D02*
D03*
Y283465D02*
D03*
X196850Y286221D02*
D03*
X101181Y336221D02*
D03*
M02*
