G04*
G04 #@! TF.GenerationSoftware,Altium Limited,Altium Designer,21.8.1 (53)*
G04*
G04 Layer_Color=16711935*
%FSLAX25Y25*%
%MOIN*%
G70*
G04*
G04 #@! TF.SameCoordinates,8B24C30A-C4EC-4A74-8174-4ADAFF134E48*
G04*
G04*
G04 #@! TF.FilePolarity,Negative*
G04*
G01*
G75*
%ADD15C,0.01000*%
%ADD43R,0.03943X0.03550*%
%ADD56C,0.03947*%
%ADD57R,0.03947X0.03947*%
%ADD58C,0.05794*%
%ADD59R,0.05794X0.05794*%
%ADD60R,0.05794X0.05794*%
%ADD61C,0.25400*%
%ADD84R,0.05750X0.02100*%
G04:AMPARAMS|DCode=87|XSize=81.95mil|YSize=24.87mil|CornerRadius=4.61mil|HoleSize=0mil|Usage=FLASHONLY|Rotation=0.000|XOffset=0mil|YOffset=0mil|HoleType=Round|Shape=RoundedRectangle|*
%AMROUNDEDRECTD87*
21,1,0.08195,0.01565,0,0,0.0*
21,1,0.07274,0.02487,0,0,0.0*
1,1,0.00922,0.03637,-0.00783*
1,1,0.00922,-0.03637,-0.00783*
1,1,0.00922,-0.03637,0.00783*
1,1,0.00922,0.03637,0.00783*
%
%ADD87ROUNDEDRECTD87*%
G36*
X255418Y307968D02*
X246550D01*
Y320379D01*
X255418D01*
Y307968D01*
D02*
G37*
G36*
X171363D02*
X162495D01*
Y320379D01*
X171363D01*
Y307968D01*
D02*
G37*
G36*
X316934Y307968D02*
X308066D01*
Y320379D01*
X316934D01*
Y307968D01*
D02*
G37*
G36*
X272249D02*
X263381D01*
Y320379D01*
X272249D01*
Y307968D01*
D02*
G37*
G36*
X242820Y299306D02*
X239070D01*
Y306206D01*
X242820D01*
Y299306D01*
D02*
G37*
G36*
X237898D02*
X234149D01*
Y306206D01*
X237898D01*
Y299306D01*
D02*
G37*
G36*
X232977D02*
X229228D01*
Y306206D01*
X232977D01*
Y299306D01*
D02*
G37*
G36*
X228056D02*
X224306D01*
Y306206D01*
X228056D01*
Y299306D01*
D02*
G37*
G36*
X223135D02*
X219385D01*
Y306206D01*
X223135D01*
Y299306D01*
D02*
G37*
G36*
X218213D02*
X214464D01*
Y306206D01*
X218213D01*
Y299306D01*
D02*
G37*
G36*
X213292D02*
X209542D01*
Y306206D01*
X213292D01*
Y299306D01*
D02*
G37*
G36*
X208371D02*
X204621D01*
Y306206D01*
X208371D01*
Y299306D01*
D02*
G37*
G36*
X203450D02*
X199700D01*
Y306206D01*
X203450D01*
Y299306D01*
D02*
G37*
G36*
X198528D02*
X194779D01*
Y306206D01*
X198528D01*
Y299306D01*
D02*
G37*
G36*
X193607D02*
X189857D01*
Y306206D01*
X193607D01*
Y299306D01*
D02*
G37*
G36*
X188686D02*
X184936D01*
Y306206D01*
X188686D01*
Y299306D01*
D02*
G37*
G36*
X183765D02*
X180015D01*
Y306206D01*
X183765D01*
Y299306D01*
D02*
G37*
G36*
X178843D02*
X175094D01*
Y306206D01*
X178843D01*
Y299306D01*
D02*
G37*
G36*
X304335Y299306D02*
X300586D01*
Y306206D01*
X304335D01*
Y299306D01*
D02*
G37*
G36*
X299414D02*
X295665D01*
Y306206D01*
X299414D01*
Y299306D01*
D02*
G37*
G36*
X294493D02*
X290743D01*
Y306206D01*
X294493D01*
Y299306D01*
D02*
G37*
G36*
X289572D02*
X285822D01*
Y306206D01*
X289572D01*
Y299306D01*
D02*
G37*
G36*
X284650D02*
X280901D01*
Y306206D01*
X284650D01*
Y299306D01*
D02*
G37*
G36*
X279729D02*
X275979D01*
Y306206D01*
X279729D01*
Y299306D01*
D02*
G37*
G36*
X342820Y117318D02*
X330409D01*
Y126186D01*
X342820D01*
Y117318D01*
D02*
G37*
G36*
X328646Y109838D02*
X321747D01*
Y113587D01*
X328646D01*
Y109838D01*
D02*
G37*
G36*
Y104917D02*
X321747D01*
Y108666D01*
X328646D01*
Y104917D01*
D02*
G37*
G36*
Y99995D02*
X321747D01*
Y103745D01*
X328646D01*
Y99995D01*
D02*
G37*
G36*
Y95074D02*
X321747D01*
Y98824D01*
X328646D01*
Y95074D01*
D02*
G37*
G36*
Y90153D02*
X321747D01*
Y93902D01*
X328646D01*
Y90153D01*
D02*
G37*
G36*
Y85232D02*
X321747D01*
Y88981D01*
X328646D01*
Y85232D01*
D02*
G37*
G36*
Y80310D02*
X321747D01*
Y84060D01*
X328646D01*
Y80310D01*
D02*
G37*
G36*
Y75389D02*
X321747D01*
Y79139D01*
X328646D01*
Y75389D01*
D02*
G37*
G36*
X342820Y62791D02*
X330409D01*
Y71658D01*
X342820D01*
Y62791D01*
D02*
G37*
D15*
X344943Y128121D02*
X377423D01*
X344943Y59055D02*
Y128121D01*
X377559D02*
X377559Y355000D01*
X344943Y59055D02*
X377559D01*
Y0D02*
Y59055D01*
X0Y354724D02*
X159449D01*
X319882Y355000D02*
X377559Y355000D01*
X159449Y322342D02*
X319882D01*
Y354823D01*
X159449Y322342D02*
Y354724D01*
X0Y0D02*
Y354724D01*
Y0D02*
X377559D01*
D43*
X126378Y329528D02*
D03*
Y324016D02*
D03*
Y318504D02*
D03*
Y312992D02*
D03*
X132283Y324016D02*
D03*
Y318504D02*
D03*
X259449Y289764D02*
D03*
Y284252D02*
D03*
X253543Y295276D02*
D03*
Y289764D02*
D03*
Y284252D02*
D03*
Y278740D02*
D03*
X209055Y254331D02*
D03*
Y259842D02*
D03*
X214961Y248819D02*
D03*
Y254331D02*
D03*
Y259842D02*
D03*
Y265354D02*
D03*
X214567Y279134D02*
D03*
Y273622D02*
D03*
X208661Y284646D02*
D03*
Y279134D02*
D03*
X214567Y290158D02*
D03*
Y284646D02*
D03*
D56*
X80709Y328740D02*
D03*
Y323819D02*
D03*
Y318898D02*
D03*
Y313976D02*
D03*
Y309055D02*
D03*
Y304134D02*
D03*
Y299213D02*
D03*
Y294291D02*
D03*
Y289370D02*
D03*
X142520Y328937D02*
D03*
Y324016D02*
D03*
Y319094D02*
D03*
Y314173D02*
D03*
Y309252D02*
D03*
Y304331D02*
D03*
Y299410D02*
D03*
Y294488D02*
D03*
Y289567D02*
D03*
D57*
X80709Y284449D02*
D03*
X142520Y284646D02*
D03*
D58*
X266535Y5906D02*
D03*
X276535D02*
D03*
X286535D02*
D03*
X296535D02*
D03*
X306535D02*
D03*
X198819D02*
D03*
X208819D02*
D03*
X218819D02*
D03*
X228819D02*
D03*
X238819D02*
D03*
X40000Y255000D02*
D03*
Y245000D02*
D03*
Y225000D02*
D03*
Y235000D02*
D03*
Y205000D02*
D03*
Y195000D02*
D03*
Y185000D02*
D03*
Y165000D02*
D03*
Y175000D02*
D03*
Y145000D02*
D03*
Y125000D02*
D03*
Y155000D02*
D03*
Y135000D02*
D03*
Y215000D02*
D03*
Y265000D02*
D03*
X50000Y105000D02*
D03*
Y135000D02*
D03*
Y125000D02*
D03*
Y115000D02*
D03*
Y145000D02*
D03*
Y165000D02*
D03*
Y65000D02*
D03*
Y85000D02*
D03*
Y95000D02*
D03*
Y75000D02*
D03*
Y155000D02*
D03*
X40000Y305000D02*
D03*
Y275000D02*
D03*
Y295000D02*
D03*
X50000Y285000D02*
D03*
Y295000D02*
D03*
X40000Y285000D02*
D03*
X50000Y305000D02*
D03*
Y275000D02*
D03*
Y255000D02*
D03*
Y245000D02*
D03*
Y235000D02*
D03*
Y225000D02*
D03*
Y215000D02*
D03*
Y205000D02*
D03*
Y185000D02*
D03*
Y175000D02*
D03*
Y265000D02*
D03*
Y195000D02*
D03*
X40000Y95000D02*
D03*
Y105000D02*
D03*
Y75000D02*
D03*
Y115000D02*
D03*
Y55000D02*
D03*
Y85000D02*
D03*
Y65000D02*
D03*
X20000Y255000D02*
D03*
Y245000D02*
D03*
Y225000D02*
D03*
Y235000D02*
D03*
Y205000D02*
D03*
Y195000D02*
D03*
Y185000D02*
D03*
Y165000D02*
D03*
Y175000D02*
D03*
Y145000D02*
D03*
Y125000D02*
D03*
Y155000D02*
D03*
Y135000D02*
D03*
Y215000D02*
D03*
Y265000D02*
D03*
X30000Y105000D02*
D03*
Y135000D02*
D03*
Y125000D02*
D03*
Y115000D02*
D03*
Y145000D02*
D03*
Y165000D02*
D03*
Y65000D02*
D03*
Y85000D02*
D03*
Y95000D02*
D03*
Y75000D02*
D03*
Y155000D02*
D03*
X20000Y305000D02*
D03*
Y275000D02*
D03*
Y295000D02*
D03*
X30000Y285000D02*
D03*
Y295000D02*
D03*
X20000Y285000D02*
D03*
X30000Y305000D02*
D03*
Y275000D02*
D03*
Y255000D02*
D03*
Y245000D02*
D03*
Y235000D02*
D03*
Y225000D02*
D03*
Y215000D02*
D03*
Y205000D02*
D03*
Y185000D02*
D03*
Y175000D02*
D03*
Y265000D02*
D03*
Y195000D02*
D03*
X20000Y95000D02*
D03*
Y105000D02*
D03*
Y75000D02*
D03*
Y115000D02*
D03*
Y55000D02*
D03*
Y85000D02*
D03*
Y65000D02*
D03*
D59*
X316535Y5906D02*
D03*
X248819D02*
D03*
D60*
X50000Y55000D02*
D03*
X30000D02*
D03*
D61*
X357559Y334724D02*
D03*
Y20000D02*
D03*
X20000Y35000D02*
D03*
Y324724D02*
D03*
D84*
X96755Y308622D02*
D03*
Y313622D02*
D03*
Y318622D02*
D03*
Y323622D02*
D03*
Y328622D02*
D03*
Y333622D02*
D03*
Y338622D02*
D03*
X118205D02*
D03*
Y333622D02*
D03*
Y328622D02*
D03*
Y323622D02*
D03*
Y318622D02*
D03*
Y313622D02*
D03*
Y308622D02*
D03*
D87*
X224252Y254449D02*
D03*
Y259449D02*
D03*
Y264449D02*
D03*
Y269449D02*
D03*
Y274449D02*
D03*
Y279449D02*
D03*
Y284449D02*
D03*
Y289449D02*
D03*
X243661D02*
D03*
Y284449D02*
D03*
Y279449D02*
D03*
Y274449D02*
D03*
Y269449D02*
D03*
Y264449D02*
D03*
Y259449D02*
D03*
Y254449D02*
D03*
M02*
