G04*
G04 #@! TF.GenerationSoftware,Altium Limited,Altium Designer,21.8.1 (53)*
G04*
G04 Layer_Color=128*
%FSLAX25Y25*%
%MOIN*%
G70*
G04*
G04 #@! TF.SameCoordinates,01E290FD-0F91-4D7C-9431-6C0E6AC14D40*
G04*
G04*
G04 #@! TF.FilePolarity,Positive*
G04*
G01*
G75*
%ADD88C,0.00200*%
D88*
X79724Y328740D02*
X81693D01*
X80709Y327756D02*
Y329724D01*
X79724Y323819D02*
X81693D01*
X80709Y322835D02*
Y324803D01*
X79724Y318898D02*
X81693D01*
X80709Y317913D02*
Y319882D01*
X79724Y313976D02*
X81693D01*
X80709Y312992D02*
Y314961D01*
X79724Y309055D02*
X81693D01*
X80709Y308071D02*
Y310039D01*
X79724Y304134D02*
X81693D01*
X80709Y303150D02*
Y305118D01*
X79724Y299213D02*
X81693D01*
X80709Y298228D02*
Y300197D01*
X79724Y294291D02*
X81693D01*
X80709Y293307D02*
Y295276D01*
X79724Y289370D02*
X81693D01*
X80709Y288386D02*
Y290354D01*
X79724Y284449D02*
X81693D01*
X80709Y283465D02*
Y285433D01*
X141535Y328937D02*
X143504D01*
X142520Y327953D02*
Y329921D01*
X141535Y324016D02*
X143504D01*
X142520Y323031D02*
Y325000D01*
X141535Y319094D02*
X143504D01*
X142520Y318110D02*
Y320079D01*
X141535Y314173D02*
X143504D01*
X142520Y313189D02*
Y315158D01*
X141535Y309252D02*
X143504D01*
X142520Y308268D02*
Y310236D01*
X141535Y304331D02*
X143504D01*
X142520Y303346D02*
Y305315D01*
X141535Y299410D02*
X143504D01*
X142520Y298425D02*
Y300394D01*
X141535Y294488D02*
X143504D01*
X142520Y293504D02*
Y295472D01*
X141535Y289567D02*
X143504D01*
X142520Y288583D02*
Y290551D01*
X141535Y284646D02*
X143504D01*
X142520Y283661D02*
Y285630D01*
X264528Y5906D02*
X268543D01*
X266535Y3898D02*
Y7913D01*
X274528Y5906D02*
X278543D01*
X276535Y3898D02*
Y7913D01*
X284528Y5906D02*
X288543D01*
X286535Y3898D02*
Y7913D01*
X294528Y5906D02*
X298543D01*
X296535Y3898D02*
Y7913D01*
X304528Y5906D02*
X308543D01*
X306535Y3898D02*
Y7913D01*
X314528Y5906D02*
X318543D01*
X316535Y3898D02*
Y7913D01*
X196811Y5906D02*
X200827D01*
X198819Y3898D02*
Y7913D01*
X206811Y5906D02*
X210827D01*
X208819Y3898D02*
Y7913D01*
X216811Y5906D02*
X220827D01*
X218819Y3898D02*
Y7913D01*
X226811Y5906D02*
X230827D01*
X228819Y3898D02*
Y7913D01*
X236811Y5906D02*
X240827D01*
X238819Y3898D02*
Y7913D01*
X246811Y5906D02*
X250827D01*
X248819Y3898D02*
Y7913D01*
X37992Y255000D02*
X42008D01*
X40000Y252992D02*
Y257008D01*
X37992Y245000D02*
X42008D01*
X40000Y242992D02*
Y247008D01*
X37992Y225000D02*
X42008D01*
X40000Y222992D02*
Y227008D01*
X37992Y235000D02*
X42008D01*
X40000Y232992D02*
Y237008D01*
X37992Y205000D02*
X42008D01*
X40000Y202992D02*
Y207008D01*
X37992Y195000D02*
X42008D01*
X40000Y192992D02*
Y197008D01*
X37992Y185000D02*
X42008D01*
X40000Y182992D02*
Y187008D01*
X37992Y165000D02*
X42008D01*
X40000Y162992D02*
Y167008D01*
X37992Y175000D02*
X42008D01*
X40000Y172992D02*
Y177008D01*
X37992Y145000D02*
X42008D01*
X40000Y142992D02*
Y147008D01*
X37992Y125000D02*
X42008D01*
X40000Y122992D02*
Y127008D01*
X37992Y155000D02*
X42008D01*
X40000Y152992D02*
Y157008D01*
X37992Y135000D02*
X42008D01*
X40000Y132992D02*
Y137008D01*
X37992Y215000D02*
X42008D01*
X40000Y212992D02*
Y217008D01*
X37992Y265000D02*
X42008D01*
X40000Y262992D02*
Y267008D01*
X47992Y105000D02*
X52008D01*
X50000Y102992D02*
Y107008D01*
X47992Y135000D02*
X52008D01*
X50000Y132992D02*
Y137008D01*
X47992Y125000D02*
X52008D01*
X50000Y122992D02*
Y127008D01*
X47992Y115000D02*
X52008D01*
X50000Y112992D02*
Y117008D01*
X47992Y145000D02*
X52008D01*
X50000Y142992D02*
Y147008D01*
X47992Y165000D02*
X52008D01*
X50000Y162992D02*
Y167008D01*
X47992Y55000D02*
X52008D01*
X50000Y52992D02*
Y57008D01*
X47992Y65000D02*
X52008D01*
X50000Y62992D02*
Y67008D01*
X47992Y85000D02*
X52008D01*
X50000Y82992D02*
Y87008D01*
X47992Y95000D02*
X52008D01*
X50000Y92992D02*
Y97008D01*
X47992Y75000D02*
X52008D01*
X50000Y72992D02*
Y77008D01*
X47992Y155000D02*
X52008D01*
X50000Y152992D02*
Y157008D01*
X37992Y305000D02*
X42008D01*
X40000Y302992D02*
Y307008D01*
X37992Y275000D02*
X42008D01*
X40000Y272992D02*
Y277008D01*
X37992Y295000D02*
X42008D01*
X40000Y292992D02*
Y297008D01*
X47992Y285000D02*
X52008D01*
X50000Y282992D02*
Y287008D01*
X47992Y295000D02*
X52008D01*
X50000Y292992D02*
Y297008D01*
X37992Y285000D02*
X42008D01*
X40000Y282992D02*
Y287008D01*
X47992Y305000D02*
X52008D01*
X50000Y302992D02*
Y307008D01*
X47992Y275000D02*
X52008D01*
X50000Y272992D02*
Y277008D01*
X47992Y255000D02*
X52008D01*
X50000Y252992D02*
Y257008D01*
X47992Y245000D02*
X52008D01*
X50000Y242992D02*
Y247008D01*
X47992Y235000D02*
X52008D01*
X50000Y232992D02*
Y237008D01*
X47992Y225000D02*
X52008D01*
X50000Y222992D02*
Y227008D01*
X47992Y215000D02*
X52008D01*
X50000Y212992D02*
Y217008D01*
X47992Y205000D02*
X52008D01*
X50000Y202992D02*
Y207008D01*
X47992Y185000D02*
X52008D01*
X50000Y182992D02*
Y187008D01*
X47992Y175000D02*
X52008D01*
X50000Y172992D02*
Y177008D01*
X47992Y265000D02*
X52008D01*
X50000Y262992D02*
Y267008D01*
X47992Y195000D02*
X52008D01*
X50000Y192992D02*
Y197008D01*
X37992Y95000D02*
X42008D01*
X40000Y92992D02*
Y97008D01*
X37992Y105000D02*
X42008D01*
X40000Y102992D02*
Y107008D01*
X37992Y75000D02*
X42008D01*
X40000Y72992D02*
Y77008D01*
X37992Y115000D02*
X42008D01*
X40000Y112992D02*
Y117008D01*
X37992Y55000D02*
X42008D01*
X40000Y52992D02*
Y57008D01*
X37992Y85000D02*
X42008D01*
X40000Y82992D02*
Y87008D01*
X37992Y65000D02*
X42008D01*
X40000Y62992D02*
Y67008D01*
X17992Y255000D02*
X22008D01*
X20000Y252992D02*
Y257008D01*
X17992Y245000D02*
X22008D01*
X20000Y242992D02*
Y247008D01*
X17992Y225000D02*
X22008D01*
X20000Y222992D02*
Y227008D01*
X17992Y235000D02*
X22008D01*
X20000Y232992D02*
Y237008D01*
X17992Y205000D02*
X22008D01*
X20000Y202992D02*
Y207008D01*
X17992Y195000D02*
X22008D01*
X20000Y192992D02*
Y197008D01*
X17992Y185000D02*
X22008D01*
X20000Y182992D02*
Y187008D01*
X17992Y165000D02*
X22008D01*
X20000Y162992D02*
Y167008D01*
X17992Y175000D02*
X22008D01*
X20000Y172992D02*
Y177008D01*
X17992Y145000D02*
X22008D01*
X20000Y142992D02*
Y147008D01*
X17992Y125000D02*
X22008D01*
X20000Y122992D02*
Y127008D01*
X17992Y155000D02*
X22008D01*
X20000Y152992D02*
Y157008D01*
X17992Y135000D02*
X22008D01*
X20000Y132992D02*
Y137008D01*
X17992Y215000D02*
X22008D01*
X20000Y212992D02*
Y217008D01*
X17992Y265000D02*
X22008D01*
X20000Y262992D02*
Y267008D01*
X27992Y105000D02*
X32008D01*
X30000Y102992D02*
Y107008D01*
X27992Y135000D02*
X32008D01*
X30000Y132992D02*
Y137008D01*
X27992Y125000D02*
X32008D01*
X30000Y122992D02*
Y127008D01*
X27992Y115000D02*
X32008D01*
X30000Y112992D02*
Y117008D01*
X27992Y145000D02*
X32008D01*
X30000Y142992D02*
Y147008D01*
X27992Y165000D02*
X32008D01*
X30000Y162992D02*
Y167008D01*
X27992Y55000D02*
X32008D01*
X30000Y52992D02*
Y57008D01*
X27992Y65000D02*
X32008D01*
X30000Y62992D02*
Y67008D01*
X27992Y85000D02*
X32008D01*
X30000Y82992D02*
Y87008D01*
X27992Y95000D02*
X32008D01*
X30000Y92992D02*
Y97008D01*
X27992Y75000D02*
X32008D01*
X30000Y72992D02*
Y77008D01*
X27992Y155000D02*
X32008D01*
X30000Y152992D02*
Y157008D01*
X17992Y305000D02*
X22008D01*
X20000Y302992D02*
Y307008D01*
X17992Y275000D02*
X22008D01*
X20000Y272992D02*
Y277008D01*
X17992Y295000D02*
X22008D01*
X20000Y292992D02*
Y297008D01*
X27992Y285000D02*
X32008D01*
X30000Y282992D02*
Y287008D01*
X27992Y295000D02*
X32008D01*
X30000Y292992D02*
Y297008D01*
X17992Y285000D02*
X22008D01*
X20000Y282992D02*
Y287008D01*
X27992Y305000D02*
X32008D01*
X30000Y302992D02*
Y307008D01*
X27992Y275000D02*
X32008D01*
X30000Y272992D02*
Y277008D01*
X27992Y255000D02*
X32008D01*
X30000Y252992D02*
Y257008D01*
X27992Y245000D02*
X32008D01*
X30000Y242992D02*
Y247008D01*
X27992Y235000D02*
X32008D01*
X30000Y232992D02*
Y237008D01*
X27992Y225000D02*
X32008D01*
X30000Y222992D02*
Y227008D01*
X27992Y215000D02*
X32008D01*
X30000Y212992D02*
Y217008D01*
X27992Y205000D02*
X32008D01*
X30000Y202992D02*
Y207008D01*
X27992Y185000D02*
X32008D01*
X30000Y182992D02*
Y187008D01*
X27992Y175000D02*
X32008D01*
X30000Y172992D02*
Y177008D01*
X27992Y265000D02*
X32008D01*
X30000Y262992D02*
Y267008D01*
X27992Y195000D02*
X32008D01*
X30000Y192992D02*
Y197008D01*
X17992Y95000D02*
X22008D01*
X20000Y92992D02*
Y97008D01*
X17992Y105000D02*
X22008D01*
X20000Y102992D02*
Y107008D01*
X17992Y75000D02*
X22008D01*
X20000Y72992D02*
Y77008D01*
X17992Y115000D02*
X22008D01*
X20000Y112992D02*
Y117008D01*
X17992Y55000D02*
X22008D01*
X20000Y52992D02*
Y57008D01*
X17992Y85000D02*
X22008D01*
X20000Y82992D02*
Y87008D01*
X17992Y65000D02*
X22008D01*
X20000Y62992D02*
Y67008D01*
X351299Y334724D02*
X363819D01*
X357559Y328465D02*
Y340984D01*
X351299Y20000D02*
X363819D01*
X357559Y13740D02*
Y26260D01*
X13740Y35000D02*
X26260D01*
X20000Y28740D02*
Y41260D01*
X13740Y324724D02*
X26260D01*
X20000Y318465D02*
Y330984D01*
X362795Y320866D02*
X363779D01*
X363287Y320374D02*
Y321358D01*
X355295Y305866D02*
X356279D01*
X355787Y305374D02*
Y306358D01*
X362795Y290866D02*
X363779D01*
X363287Y290374D02*
Y291358D01*
X362795Y260866D02*
X363779D01*
X363287Y260374D02*
Y261358D01*
X362795Y230866D02*
X363779D01*
X363287Y230374D02*
Y231358D01*
X355295Y215866D02*
X356279D01*
X355787Y215374D02*
Y216358D01*
X362795Y200866D02*
X363779D01*
X363287Y200374D02*
Y201358D01*
X355295Y185866D02*
X356279D01*
X355787Y185374D02*
Y186358D01*
X362795Y170866D02*
X363779D01*
X363287Y170374D02*
Y171358D01*
X362795Y50866D02*
X363779D01*
X363287Y50374D02*
Y51358D01*
X355295Y35866D02*
X356279D01*
X355787Y35374D02*
Y36358D01*
X347795Y320866D02*
X348780D01*
X348287Y320374D02*
Y321358D01*
X340295Y305866D02*
X341280D01*
X340787Y305374D02*
Y306358D01*
X347795Y200866D02*
X348780D01*
X348287Y200374D02*
Y201358D01*
X340295Y185866D02*
X341280D01*
X340787Y185374D02*
Y186358D01*
X347795Y140866D02*
X348780D01*
X348287Y140374D02*
Y141358D01*
X347795Y50866D02*
X348780D01*
X348287Y50374D02*
Y51358D01*
X340295Y35866D02*
X341280D01*
X340787Y35374D02*
Y36358D01*
X340295Y5866D02*
X341280D01*
X340787Y5374D02*
Y6358D01*
X325295Y335866D02*
X326279D01*
X325787Y335374D02*
Y336358D01*
X332795Y320866D02*
X333780D01*
X333287Y320374D02*
Y321358D01*
X325295Y305866D02*
X326279D01*
X325787Y305374D02*
Y306358D01*
X332795Y200866D02*
X333780D01*
X333287Y200374D02*
Y201358D01*
X325295Y185866D02*
X326279D01*
X325787Y185374D02*
Y186358D01*
X325295Y35866D02*
X326279D01*
X325787Y35374D02*
Y36358D01*
X332795Y20866D02*
X333780D01*
X333287Y20374D02*
Y21358D01*
X325295Y5866D02*
X326279D01*
X325787Y5374D02*
Y6358D01*
X310295Y305866D02*
X311280D01*
X310787Y305374D02*
Y306358D01*
X310295Y245866D02*
X311280D01*
X310787Y245374D02*
Y246358D01*
X317795Y110866D02*
X318779D01*
X318287Y110374D02*
Y111358D01*
X310295Y65866D02*
X311280D01*
X310787Y65374D02*
Y66358D01*
X310295Y35866D02*
X311280D01*
X310787Y35374D02*
Y36358D01*
X295295Y275866D02*
X296280D01*
X295787Y275374D02*
Y276358D01*
X295295Y95866D02*
X296280D01*
X295787Y95374D02*
Y96358D01*
X302795Y80866D02*
X303780D01*
X303287Y80374D02*
Y81358D01*
X295295Y65866D02*
X296280D01*
X295787Y65374D02*
Y66358D01*
X302795Y50866D02*
X303780D01*
X303287Y50374D02*
Y51358D01*
X280295Y35866D02*
X281279D01*
X280787Y35374D02*
Y36358D01*
X272795Y290866D02*
X273780D01*
X273287Y290374D02*
Y291358D01*
X265295Y275866D02*
X266280D01*
X265787Y275374D02*
Y276358D01*
X265295Y215866D02*
X266280D01*
X265787Y215374D02*
Y216358D01*
X272795Y80866D02*
X273780D01*
X273287Y80374D02*
Y81358D01*
X265295Y35866D02*
X266280D01*
X265787Y35374D02*
Y36358D01*
X272795Y20866D02*
X273780D01*
X273287Y20374D02*
Y21358D01*
X250295Y95866D02*
X251279D01*
X250787Y95374D02*
Y96358D01*
X250295Y65866D02*
X251279D01*
X250787Y65374D02*
Y66358D01*
X250295Y35866D02*
X251279D01*
X250787Y35374D02*
Y36358D01*
X257795Y20866D02*
X258780D01*
X258287Y20374D02*
Y21358D01*
X242795Y80866D02*
X243779D01*
X243287Y80374D02*
Y81358D01*
X227795Y20866D02*
X228780D01*
X228287Y20374D02*
Y21358D01*
X205295Y275866D02*
X206279D01*
X205787Y275374D02*
Y276358D01*
X212795Y170866D02*
X213779D01*
X213287Y170374D02*
Y171358D01*
X205295Y125866D02*
X206279D01*
X205787Y125374D02*
Y126358D01*
X205295Y95866D02*
X206279D01*
X205787Y95374D02*
Y96358D01*
X197795Y290866D02*
X198779D01*
X198287Y290374D02*
Y291358D01*
X190295Y95866D02*
X191279D01*
X190787Y95374D02*
Y96358D01*
X190295Y5866D02*
X191279D01*
X190787Y5374D02*
Y6358D01*
X182795Y290866D02*
X183780D01*
X183287Y290374D02*
Y291358D01*
X175295Y275866D02*
X176279D01*
X175787Y275374D02*
Y276358D01*
X175295Y95866D02*
X176279D01*
X175787Y95374D02*
Y96358D01*
X182795Y80866D02*
X183780D01*
X183287Y80374D02*
Y81358D01*
X175295Y65866D02*
X176279D01*
X175787Y65374D02*
Y66358D01*
X175295Y5866D02*
X176279D01*
X175787Y5374D02*
Y6358D01*
X160295Y305866D02*
X161279D01*
X160787Y305374D02*
Y306358D01*
X167795Y290866D02*
X168780D01*
X168287Y290374D02*
Y291358D01*
X160295Y275866D02*
X161279D01*
X160787Y275374D02*
Y276358D01*
X160295Y215866D02*
X161279D01*
X160787Y215374D02*
Y216358D01*
X167795Y140866D02*
X168780D01*
X168287Y140374D02*
Y141358D01*
X160295Y125866D02*
X161279D01*
X160787Y125374D02*
Y126358D01*
X160295Y65866D02*
X161279D01*
X160787Y65374D02*
Y66358D01*
X160295Y5866D02*
X161279D01*
X160787Y5374D02*
Y6358D01*
X152795Y320866D02*
X153779D01*
X153287Y320374D02*
Y321358D01*
X152795Y290866D02*
X153779D01*
X153287Y290374D02*
Y291358D01*
X145295Y275866D02*
X146280D01*
X145787Y275374D02*
Y276358D01*
X152795Y260866D02*
X153779D01*
X153287Y260374D02*
Y261358D01*
X145295Y245866D02*
X146280D01*
X145787Y245374D02*
Y246358D01*
X152795Y230866D02*
X153779D01*
X153287Y230374D02*
Y231358D01*
X145295Y215866D02*
X146280D01*
X145787Y215374D02*
Y216358D01*
X152795Y140866D02*
X153779D01*
X153287Y140374D02*
Y141358D01*
X145295Y125866D02*
X146280D01*
X145787Y125374D02*
Y126358D01*
X152795Y80866D02*
X153779D01*
X153287Y80374D02*
Y81358D01*
X145295Y65866D02*
X146280D01*
X145787Y65374D02*
Y66358D01*
X152795Y50866D02*
X153779D01*
X153287Y50374D02*
Y51358D01*
X152795Y20866D02*
X153779D01*
X153287Y20374D02*
Y21358D01*
X145295Y5866D02*
X146280D01*
X145787Y5374D02*
Y6358D01*
X137795Y290866D02*
X138779D01*
X138287Y290374D02*
Y291358D01*
X130295Y215866D02*
X131280D01*
X130787Y215374D02*
Y216358D01*
X137795Y140866D02*
X138779D01*
X138287Y140374D02*
Y141358D01*
X130295Y125866D02*
X131280D01*
X130787Y125374D02*
Y126358D01*
X137795Y110866D02*
X138779D01*
X138287Y110374D02*
Y111358D01*
X130295Y95866D02*
X131280D01*
X130787Y95374D02*
Y96358D01*
X137795Y80866D02*
X138779D01*
X138287Y80374D02*
Y81358D01*
X130295Y65866D02*
X131280D01*
X130787Y65374D02*
Y66358D01*
X130295Y35866D02*
X131280D01*
X130787Y35374D02*
Y36358D01*
X137795Y20866D02*
X138779D01*
X138287Y20374D02*
Y21358D01*
X130295Y5866D02*
X131280D01*
X130787Y5374D02*
Y6358D01*
X122795Y260866D02*
X123779D01*
X123287Y260374D02*
Y261358D01*
X122795Y230866D02*
X123779D01*
X123287Y230374D02*
Y231358D01*
X115295Y125866D02*
X116279D01*
X115787Y125374D02*
Y126358D01*
X122795Y110866D02*
X123779D01*
X123287Y110374D02*
Y111358D01*
X115295Y95866D02*
X116279D01*
X115787Y95374D02*
Y96358D01*
X122795Y80866D02*
X123779D01*
X123287Y80374D02*
Y81358D01*
X122795Y50866D02*
X123779D01*
X123287Y50374D02*
Y51358D01*
X115295Y35866D02*
X116279D01*
X115787Y35374D02*
Y36358D01*
X122795Y20866D02*
X123779D01*
X123287Y20374D02*
Y21358D01*
X115295Y5866D02*
X116279D01*
X115787Y5374D02*
Y6358D01*
X100295Y95866D02*
X101279D01*
X100787Y95374D02*
Y96358D01*
X100295Y65866D02*
X101279D01*
X100787Y65374D02*
Y66358D01*
X100295Y35866D02*
X101279D01*
X100787Y35374D02*
Y36358D01*
X107795Y20866D02*
X108780D01*
X108287Y20374D02*
Y21358D01*
X100295Y5866D02*
X101279D01*
X100787Y5374D02*
Y6358D01*
X85295Y335866D02*
X86279D01*
X85787Y335374D02*
Y336358D01*
X92795Y260866D02*
X93779D01*
X93287Y260374D02*
Y261358D01*
X92795Y230866D02*
X93779D01*
X93287Y230374D02*
Y231358D01*
X85295Y215866D02*
X86279D01*
X85787Y215374D02*
Y216358D01*
X92795Y200866D02*
X93779D01*
X93287Y200374D02*
Y201358D01*
X85295Y185866D02*
X86279D01*
X85787Y185374D02*
Y186358D01*
X85295Y125866D02*
X86279D01*
X85787Y125374D02*
Y126358D01*
X85295Y65866D02*
X86279D01*
X85787Y65374D02*
Y66358D01*
X92795Y20866D02*
X93779D01*
X93287Y20374D02*
Y21358D01*
X85295Y5866D02*
X86279D01*
X85787Y5374D02*
Y6358D01*
X70295Y335866D02*
X71280D01*
X70787Y335374D02*
Y336358D01*
X70295Y305866D02*
X71280D01*
X70787Y305374D02*
Y306358D01*
X70295Y125866D02*
X71280D01*
X70787Y125374D02*
Y126358D01*
X77795Y110866D02*
X78780D01*
X78287Y110374D02*
Y111358D01*
X77795Y50866D02*
X78780D01*
X78287Y50374D02*
Y51358D01*
X70295Y35866D02*
X71280D01*
X70787Y35374D02*
Y36358D01*
X77795Y20866D02*
X78780D01*
X78287Y20374D02*
Y21358D01*
X70295Y5866D02*
X71280D01*
X70787Y5374D02*
Y6358D01*
X55295Y335866D02*
X56279D01*
X55787Y335374D02*
Y336358D01*
X55295Y305866D02*
X56279D01*
X55787Y305374D02*
Y306358D01*
X55295Y245866D02*
X56279D01*
X55787Y245374D02*
Y246358D01*
X62795Y230866D02*
X63779D01*
X63287Y230374D02*
Y231358D01*
X55295Y215866D02*
X56279D01*
X55787Y215374D02*
Y216358D01*
X55295Y185866D02*
X56279D01*
X55787Y185374D02*
Y186358D01*
X62795Y170866D02*
X63779D01*
X63287Y170374D02*
Y171358D01*
X55295Y155866D02*
X56279D01*
X55787Y155374D02*
Y156358D01*
X55295Y125866D02*
X56279D01*
X55787Y125374D02*
Y126358D01*
X62795Y110866D02*
X63779D01*
X63287Y110374D02*
Y111358D01*
X55295Y95866D02*
X56279D01*
X55787Y95374D02*
Y96358D01*
X62795Y80866D02*
X63779D01*
X63287Y80374D02*
Y81358D01*
X55295Y65866D02*
X56279D01*
X55787Y65374D02*
Y66358D01*
X62795Y50866D02*
X63779D01*
X63287Y50374D02*
Y51358D01*
X55295Y35866D02*
X56279D01*
X55787Y35374D02*
Y36358D01*
X62795Y20866D02*
X63779D01*
X63287Y20374D02*
Y21358D01*
X55295Y5866D02*
X56279D01*
X55787Y5374D02*
Y6358D01*
X40295Y335866D02*
X41280D01*
X40787Y335374D02*
Y336358D01*
X47795Y320866D02*
X48779D01*
X48287Y320374D02*
Y321358D01*
X40295Y35866D02*
X41280D01*
X40787Y35374D02*
Y36358D01*
X47795Y20866D02*
X48779D01*
X48287Y20374D02*
Y21358D01*
X40295Y5866D02*
X41280D01*
X40787Y5374D02*
Y6358D01*
X32795Y290866D02*
X33779D01*
X33287Y290374D02*
Y291358D01*
X32795Y260866D02*
X33779D01*
X33287Y260374D02*
Y261358D01*
X32795Y230866D02*
X33779D01*
X33287Y230374D02*
Y231358D01*
X32795Y170866D02*
X33779D01*
X33287Y170374D02*
Y171358D01*
X32795Y140866D02*
X33779D01*
X33287Y140374D02*
Y141358D01*
X32795Y110866D02*
X33779D01*
X33287Y110374D02*
Y111358D01*
X32795Y80866D02*
X33779D01*
X33287Y80374D02*
Y81358D01*
X32795Y20866D02*
X33779D01*
X33287Y20374D02*
Y21358D01*
X25295Y5866D02*
X26280D01*
X25787Y5374D02*
Y6358D01*
X10295Y305866D02*
X11280D01*
X10787Y305374D02*
Y306358D01*
X10295Y245866D02*
X11280D01*
X10787Y245374D02*
Y246358D01*
X10295Y215866D02*
X11280D01*
X10787Y215374D02*
Y216358D01*
X10295Y155866D02*
X11280D01*
X10787Y155374D02*
Y156358D01*
X10295Y125866D02*
X11280D01*
X10787Y125374D02*
Y126358D01*
X10295Y95866D02*
X11280D01*
X10787Y95374D02*
Y96358D01*
X10295Y65866D02*
X11280D01*
X10787Y65374D02*
Y66358D01*
X10295Y5866D02*
X11280D01*
X10787Y5374D02*
Y6358D01*
X285408Y266200D02*
X286392D01*
X285900Y265708D02*
Y266692D01*
X289408Y276500D02*
X290392D01*
X289900Y276008D02*
Y276992D01*
X301408Y264900D02*
X302392D01*
X301900Y264408D02*
Y265392D01*
X303208Y255200D02*
X304192D01*
X303700Y254708D02*
Y255692D01*
X302908Y238400D02*
X303892D01*
X303400Y237908D02*
Y238892D01*
X311808Y240700D02*
X312792D01*
X312300Y240208D02*
Y241192D01*
X319108Y224800D02*
X320092D01*
X319600Y224308D02*
Y225292D01*
X318708Y233600D02*
X319692D01*
X319200Y233108D02*
Y234092D01*
X276908Y254300D02*
X277892D01*
X277400Y253808D02*
Y254792D01*
X199808Y38700D02*
X200792D01*
X200300Y38208D02*
Y39192D01*
X200008Y45900D02*
X200992D01*
X200500Y45408D02*
Y46392D01*
X208808Y146100D02*
X209792D01*
X209300Y145608D02*
Y146592D01*
X121308Y239500D02*
X122292D01*
X121800Y239008D02*
Y239992D01*
X202658Y242060D02*
X203642D01*
X203150Y241568D02*
Y242552D01*
X191451Y229890D02*
X192436D01*
X191943Y229398D02*
Y230382D01*
X228642Y236116D02*
X229626D01*
X229134Y235624D02*
Y236608D01*
X291508Y144400D02*
X292492D01*
X292000Y143908D02*
Y144892D01*
X314708Y112400D02*
X315692D01*
X315200Y111908D02*
Y112892D01*
X317192Y118898D02*
X318176D01*
X317684Y118405D02*
Y119390D01*
X231004Y114516D02*
X231988D01*
X231496Y114024D02*
Y115008D01*
X203839Y181890D02*
X204823D01*
X204331Y181398D02*
Y182382D01*
X280217Y176622D02*
X281201D01*
X280709Y176130D02*
Y177114D01*
X336083Y58661D02*
X337067D01*
X336575Y58169D02*
Y59153D01*
X324433Y149606D02*
X325417D01*
X324925Y149114D02*
Y150098D01*
X68408Y228900D02*
X69392D01*
X68900Y228408D02*
Y229392D01*
X71845Y253013D02*
X72830D01*
X72337Y252521D02*
Y253505D01*
X75808Y262000D02*
X76792D01*
X76300Y261508D02*
Y262492D01*
X65508Y209500D02*
X66492D01*
X66000Y209008D02*
Y209992D01*
X77230Y131870D02*
X78215D01*
X77722Y131378D02*
Y132362D01*
X81792Y153543D02*
X82776D01*
X82284Y153051D02*
Y154035D01*
X81004Y173622D02*
X81988D01*
X81496Y173130D02*
Y174114D01*
X192408Y253200D02*
X193392D01*
X192900Y252708D02*
Y253692D01*
X176808Y253300D02*
X177792D01*
X177300Y252808D02*
Y253792D01*
X184508Y265000D02*
X185492D01*
X185000Y264508D02*
Y265492D01*
X184508Y268500D02*
X185492D01*
X185000Y268008D02*
Y268992D01*
X184508Y272000D02*
X185492D01*
X185000Y271508D02*
Y272492D01*
X184508Y275500D02*
X185492D01*
X185000Y275008D02*
Y275992D01*
X320008Y272500D02*
X320992D01*
X320500Y272008D02*
Y272992D01*
X248409Y225901D02*
X249393D01*
X248901Y225409D02*
Y226393D01*
X250508Y228000D02*
X251492D01*
X251000Y227508D02*
Y228492D01*
X301571Y127559D02*
X302555D01*
X302063Y127067D02*
Y128051D01*
X309492Y135827D02*
X310476D01*
X309984Y135335D02*
Y136319D01*
X304055Y135039D02*
X305039D01*
X304547Y134547D02*
Y135531D01*
X302658Y200000D02*
X303642D01*
X303150Y199508D02*
Y200492D01*
X87008Y56500D02*
X87992D01*
X87500Y56008D02*
Y56992D01*
X97008Y41016D02*
X97992D01*
X97500Y40524D02*
Y41508D01*
X89508Y46000D02*
X90492D01*
X90000Y45508D02*
Y46492D01*
X92508Y43500D02*
X93492D01*
X93000Y43008D02*
Y43992D01*
X133008Y65500D02*
X133992D01*
X133500Y65008D02*
Y65992D01*
X147508Y40963D02*
X148492D01*
X148000Y40471D02*
Y41455D01*
X143508Y43500D02*
X144492D01*
X144000Y43008D02*
Y43992D01*
X140508Y46102D02*
X141492D01*
X141000Y45610D02*
Y46595D01*
X156508Y46500D02*
X157492D01*
X157000Y46008D02*
Y46992D01*
X156008Y40500D02*
X156992D01*
X156500Y40008D02*
Y40992D01*
X256039Y181646D02*
X257024D01*
X256532Y181154D02*
Y182138D01*
X303445Y181102D02*
X304429D01*
X303937Y180610D02*
Y181595D01*
X214862Y41732D02*
X215846D01*
X215354Y41240D02*
Y42224D01*
X231791Y41732D02*
X232776D01*
X232283Y41240D02*
Y42224D01*
X105413Y257087D02*
X106398D01*
X105905Y256594D02*
Y257579D01*
X107854Y227433D02*
X108838D01*
X108346Y226941D02*
Y227925D01*
X110925Y257874D02*
X111909D01*
X111417Y257382D02*
Y258366D01*
X130508Y330000D02*
X131492D01*
X131000Y329508D02*
Y330492D01*
X146632Y320987D02*
X147616D01*
X147124Y320494D02*
Y321479D01*
X323917Y254331D02*
X324902D01*
X324410Y253839D02*
Y254823D01*
X328008Y247500D02*
X328992D01*
X328500Y247008D02*
Y247992D01*
X331508Y242000D02*
X332492D01*
X332000Y241508D02*
Y242492D01*
X258524Y132677D02*
X259508D01*
X259016Y132185D02*
Y133169D01*
X258008Y89500D02*
X258992D01*
X258500Y89008D02*
Y89992D01*
X311508Y101000D02*
X312492D01*
X312000Y100508D02*
Y101492D01*
X308508Y97000D02*
X309492D01*
X309000Y96508D02*
Y97492D01*
X113008Y223000D02*
X113992D01*
X113500Y222508D02*
Y223492D01*
X267008Y243500D02*
X267992D01*
X267500Y243008D02*
Y243992D01*
X60508Y293000D02*
X61492D01*
X61000Y292508D02*
Y293492D01*
X243996Y184130D02*
X244980D01*
X244488Y183638D02*
Y184622D01*
X216008Y175000D02*
X216992D01*
X216500Y174508D02*
Y175492D01*
X174270Y168500D02*
X175254D01*
X174762Y168008D02*
Y168992D01*
X292688Y133071D02*
X293672D01*
X293180Y132579D02*
Y133563D01*
X148823Y21209D02*
X149807D01*
X149315Y20717D02*
Y21701D01*
X200295Y71260D02*
X201279D01*
X200787Y70768D02*
Y71752D01*
X222456Y190336D02*
X223441D01*
X222948Y189844D02*
Y190828D01*
X239762Y178574D02*
X240746D01*
X240254Y178082D02*
Y179066D01*
X243209Y174803D02*
X244193D01*
X243701Y174311D02*
Y175295D01*
X243602Y177953D02*
X244587D01*
X244094Y177461D02*
Y178445D01*
X292508Y128500D02*
X293492D01*
X293000Y128008D02*
Y128992D01*
X292508Y124500D02*
X293492D01*
X293000Y124008D02*
Y124992D01*
X166508Y111000D02*
X167492D01*
X167000Y110508D02*
Y111492D01*
X183508Y107000D02*
X184492D01*
X184000Y106508D02*
Y107492D01*
X112508Y311500D02*
X113492D01*
X113000Y311008D02*
Y311992D01*
X105721Y313300D02*
X106705D01*
X106213Y312808D02*
Y313792D01*
X101008Y323500D02*
X101992D01*
X101500Y323008D02*
Y323992D01*
X100508Y328500D02*
X101492D01*
X101000Y328008D02*
Y328992D01*
X106452Y298227D02*
X107436D01*
X106944Y297735D02*
Y298720D01*
X94390Y295669D02*
X95374D01*
X94882Y295177D02*
Y296161D01*
X90575Y309842D02*
X91559D01*
X91067Y309350D02*
Y310335D01*
X103810Y296874D02*
X104794D01*
X104302Y296382D02*
Y297366D01*
X97933Y302756D02*
X98917D01*
X98425Y302264D02*
Y303248D01*
X273508Y302500D02*
X274492D01*
X274000Y302008D02*
Y302992D01*
X198008Y220500D02*
X198992D01*
X198500Y220008D02*
Y220992D01*
X243008Y223000D02*
X243992D01*
X243500Y222508D02*
Y223492D01*
X223008Y231500D02*
X223992D01*
X223500Y231008D02*
Y231992D01*
X260508Y192500D02*
X261492D01*
X261000Y192008D02*
Y192992D01*
X273008Y195000D02*
X273992D01*
X273500Y194508D02*
Y195492D01*
X357508Y152500D02*
X358492D01*
X358000Y152008D02*
Y152992D01*
X99008Y208000D02*
X99992D01*
X99500Y207508D02*
Y208492D01*
X86649Y165277D02*
X87633D01*
X87141Y164785D02*
Y165769D01*
X88508Y117000D02*
X89492D01*
X89000Y116508D02*
Y117492D01*
X118008Y109500D02*
X118992D01*
X118500Y109008D02*
Y109992D01*
X126508Y107000D02*
X127492D01*
X127000Y106508D02*
Y107492D01*
X128008Y206000D02*
X128992D01*
X128500Y205508D02*
Y206492D01*
X146377Y207153D02*
X147361D01*
X146869Y206661D02*
Y207645D01*
X86595Y145179D02*
X87579D01*
X87087Y144687D02*
Y145671D01*
X90768Y151647D02*
X91753D01*
X91261Y151155D02*
Y152140D01*
X336083Y129921D02*
X337067D01*
X336575Y129429D02*
Y130413D01*
X325024Y121260D02*
X326008D01*
X325516Y120768D02*
Y121752D01*
X325024Y66929D02*
X326008D01*
X325516Y66437D02*
Y67421D01*
X14508Y200000D02*
X15492D01*
X15000Y199508D02*
Y200492D01*
X14508Y210000D02*
X15492D01*
X15000Y209508D02*
Y210492D01*
X24508Y210000D02*
X25492D01*
X25000Y209508D02*
Y210492D01*
X34508Y210000D02*
X35492D01*
X35000Y209508D02*
Y210492D01*
X34508Y200000D02*
X35492D01*
X35000Y199508D02*
Y200492D01*
X24508Y200000D02*
X25492D01*
X25000Y199508D02*
Y200492D01*
X12508Y256000D02*
X13492D01*
X13000Y255508D02*
Y256492D01*
X59008Y211500D02*
X59992D01*
X59500Y211008D02*
Y211992D01*
X70992Y244929D02*
X71976D01*
X71484Y244437D02*
Y245421D01*
X60508Y143500D02*
X61492D01*
X61000Y143008D02*
Y143992D01*
X67008Y141000D02*
X67992D01*
X67500Y140508D02*
Y141492D01*
X193444Y169449D02*
X194428D01*
X193936Y168957D02*
Y169942D01*
X162008Y242500D02*
X162992D01*
X162500Y242008D02*
Y242992D01*
X214508Y268500D02*
X215492D01*
X215000Y268008D02*
Y268992D01*
X201436Y234869D02*
X202420D01*
X201928Y234377D02*
Y235361D01*
X236516Y243654D02*
X237500D01*
X237008Y243162D02*
Y244146D01*
X229429Y243654D02*
X230413D01*
X229921Y243162D02*
Y244146D01*
X172343Y229969D02*
X173327D01*
X172835Y229476D02*
Y230461D01*
X183760Y221925D02*
X184744D01*
X184252Y221433D02*
Y222417D01*
X168012Y237795D02*
X168996D01*
X168504Y237303D02*
Y238287D01*
X118815Y227484D02*
X119799D01*
X119307Y226992D02*
Y227976D01*
X205807Y121260D02*
X206791D01*
X206299Y120768D02*
Y121752D01*
X287968Y193307D02*
X288953D01*
X288461Y192815D02*
Y193799D01*
X282185Y296850D02*
X283169D01*
X282677Y296358D02*
Y297342D01*
X279429Y189886D02*
X280413D01*
X279921Y189394D02*
Y190378D01*
X298327Y187402D02*
X299311D01*
X298819Y186909D02*
Y187894D01*
X292815Y184252D02*
X293799D01*
X293307Y183760D02*
Y184744D01*
X321949Y139764D02*
X322933D01*
X322441Y139272D02*
Y140256D01*
X319193Y135827D02*
X320177D01*
X319685Y135335D02*
Y136319D01*
X298721Y196063D02*
X299705D01*
X299213Y195571D02*
Y196555D01*
X278642Y184252D02*
X279626D01*
X279134Y183760D02*
Y184744D01*
X264075Y220866D02*
X265059D01*
X264567Y220374D02*
Y221358D01*
X333366Y235433D02*
X334350D01*
X333858Y234941D02*
Y235925D01*
X243602Y232677D02*
X244587D01*
X244094Y232185D02*
Y233169D01*
X332900Y217752D02*
X333884D01*
X333392Y217260D02*
Y218244D01*
X332972Y224016D02*
X333957D01*
X333465Y223524D02*
Y224508D01*
X324129Y259267D02*
X325113D01*
X324621Y258775D02*
Y259759D01*
X203485Y109549D02*
X204469D01*
X203977Y109057D02*
Y110042D01*
X203839Y115354D02*
X204823D01*
X204331Y114862D02*
Y115847D01*
X204232Y193307D02*
X205217D01*
X204724Y192815D02*
Y193799D01*
X123091Y189492D02*
X124075D01*
X123583Y189000D02*
Y189984D01*
X119980Y187008D02*
X120965D01*
X120472Y186516D02*
Y187500D01*
X173524Y191975D02*
X174508D01*
X174016Y191483D02*
Y192467D01*
X330953Y271707D02*
X331937D01*
X331445Y271215D02*
Y272199D01*
X65650Y249606D02*
X66634D01*
X66142Y249114D02*
Y250098D01*
X201083Y138583D02*
X202067D01*
X201575Y138091D02*
Y139075D01*
X185335Y127953D02*
X186319D01*
X185827Y127461D02*
Y128445D01*
X307776Y139764D02*
X308760D01*
X308268Y139272D02*
Y140256D01*
X332307Y160630D02*
X333291D01*
X332799Y160138D02*
Y161122D01*
X338484Y155512D02*
X339469D01*
X338976Y155020D02*
Y156004D01*
X111713Y157480D02*
X112697D01*
X112205Y156988D02*
Y157972D01*
X114862Y161024D02*
X115847D01*
X115354Y160531D02*
Y161516D01*
X103839Y169685D02*
X104823D01*
X104331Y169193D02*
Y170177D01*
X106323Y164961D02*
X107307D01*
X106815Y164469D02*
Y165453D01*
X173917Y151969D02*
X174902D01*
X174409Y151476D02*
Y152461D01*
X100689Y146063D02*
X101673D01*
X101181Y145571D02*
Y146555D01*
X195177Y158146D02*
X196161D01*
X195669Y157653D02*
Y158638D01*
X185335Y153937D02*
X186319D01*
X185827Y153445D02*
Y154429D01*
X174311Y173228D02*
X175295D01*
X174803Y172736D02*
Y173721D01*
X197146Y147244D02*
X198130D01*
X197638Y146752D02*
Y147736D01*
X143996Y87402D02*
X144980D01*
X144488Y86910D02*
Y87894D01*
X139665Y91732D02*
X140650D01*
X140157Y91240D02*
Y92224D01*
X153445Y86614D02*
X154429D01*
X153937Y86122D02*
Y87106D01*
X157776Y86614D02*
X158760D01*
X158268Y86122D02*
Y87106D01*
X160925Y25984D02*
X161909D01*
X161417Y25492D02*
Y26476D01*
X221949Y130709D02*
X222933D01*
X222441Y130217D02*
Y131201D01*
X186122Y133736D02*
X187106D01*
X186614Y133244D02*
Y134228D01*
X174705Y126378D02*
X175689D01*
X175197Y125886D02*
Y126870D01*
X100689Y136221D02*
X101673D01*
X101181Y135728D02*
Y136713D01*
X79035Y66929D02*
X80020D01*
X79528Y66437D02*
Y67421D01*
X105807Y105905D02*
X106791D01*
X106299Y105413D02*
Y106398D01*
X79263Y79513D02*
X80247D01*
X79755Y79021D02*
Y80005D01*
X100295Y105512D02*
X101279D01*
X100787Y105020D02*
Y106004D01*
X78248Y92126D02*
X79232D01*
X78740Y91634D02*
Y92618D01*
X99902Y110236D02*
X100886D01*
X100394Y109744D02*
Y110728D01*
X235335Y233858D02*
X236319D01*
X235827Y233366D02*
Y234350D01*
X248327Y238583D02*
X249311D01*
X248819Y238091D02*
Y239075D01*
X253445Y198031D02*
X254429D01*
X253937Y197539D02*
Y198524D01*
X253029Y202499D02*
X254013D01*
X253521Y202007D02*
Y202992D01*
X176276Y207090D02*
X177261D01*
X176769Y206598D02*
Y207582D01*
X234941Y206693D02*
X235925D01*
X235433Y206201D02*
Y207185D01*
X179724Y197736D02*
X180709D01*
X180217Y197244D02*
Y198228D01*
X164469Y194488D02*
X165453D01*
X164961Y193996D02*
Y194980D01*
X253445Y215748D02*
X254429D01*
X253937Y215256D02*
Y216240D01*
X186122Y198425D02*
X187106D01*
X186614Y197933D02*
Y198917D01*
X163887Y205232D02*
X164871D01*
X164379Y204740D02*
Y205724D01*
X161498Y206994D02*
X162482D01*
X161990Y206502D02*
Y207486D01*
X160531Y209842D02*
X161516D01*
X161024Y209350D02*
Y210335D01*
X169587Y252756D02*
X170571D01*
X170079Y252264D02*
Y253248D01*
X138484Y257874D02*
X139469D01*
X138976Y257382D02*
Y258366D01*
X141240Y254331D02*
X142224D01*
X141732Y253839D02*
Y254823D01*
X68799Y156299D02*
X69784D01*
X69291Y155807D02*
Y156791D01*
X89141Y154855D02*
X90125D01*
X89633Y154363D02*
Y155347D01*
X65452Y158994D02*
X66436D01*
X65944Y158502D02*
Y159486D01*
X90453Y158661D02*
X91437D01*
X90945Y158169D02*
Y159153D01*
X90847Y126650D02*
X91831D01*
X91339Y126157D02*
Y127142D01*
X71949Y129921D02*
X72933D01*
X72441Y129429D02*
Y130413D01*
X119980Y129134D02*
X120965D01*
X120472Y128642D02*
Y129626D01*
X123130Y131890D02*
X124114D01*
X123622Y131398D02*
Y132382D01*
X75886Y281102D02*
X76870D01*
X76378Y280610D02*
Y281594D01*
X135335Y283858D02*
X136319D01*
X135827Y283366D02*
Y284350D01*
X132973Y279921D02*
X133957D01*
X133465Y279429D02*
Y280413D01*
X89665Y315354D02*
X90650D01*
X90158Y314862D02*
Y315846D01*
X262591Y189795D02*
X263575D01*
X263083Y189303D02*
Y190287D01*
X277067Y168898D02*
X278051D01*
X277559Y168405D02*
Y169390D01*
X231004Y157874D02*
X231988D01*
X231496Y157382D02*
Y158366D01*
X216831Y163386D02*
X217815D01*
X217323Y162894D02*
Y163878D01*
X271949Y168898D02*
X272933D01*
X272441Y168405D02*
Y169390D01*
X184646Y173524D02*
X185630D01*
X185138Y173031D02*
Y174016D01*
X150295Y217323D02*
X151279D01*
X150787Y216831D02*
Y217815D01*
X152657Y195276D02*
X153642D01*
X153150Y194783D02*
Y195768D01*
X131004Y195276D02*
X131988D01*
X131496Y194783D02*
Y195768D01*
X105020Y195276D02*
X106004D01*
X105512Y194783D02*
Y195768D01*
X98327Y213779D02*
X99311D01*
X98819Y213287D02*
Y214272D01*
X91240Y172835D02*
X92224D01*
X91732Y172343D02*
Y173327D01*
X134941Y122047D02*
X135925D01*
X135433Y121555D02*
Y122539D01*
X161319Y121653D02*
X162303D01*
X161811Y121161D02*
Y122146D01*
X174311Y164961D02*
X175295D01*
X174803Y164469D02*
Y165453D01*
X245650Y211739D02*
X246635D01*
X246142Y211247D02*
Y212231D01*
X212500Y211811D02*
X213484D01*
X212992Y211319D02*
Y212303D01*
X203839Y187008D02*
X204823D01*
X204331Y186516D02*
Y187500D01*
X179823Y50787D02*
X180807D01*
X180315Y50295D02*
Y51279D01*
X248721Y46850D02*
X249705D01*
X249213Y46358D02*
Y47343D01*
X266043Y77751D02*
X267028D01*
X266535Y77259D02*
Y78243D01*
X138264Y65618D02*
X139248D01*
X138756Y65126D02*
Y66110D01*
X209744Y35433D02*
X210728D01*
X210236Y34941D02*
Y35925D01*
X291240Y171653D02*
X292224D01*
X291732Y171161D02*
Y172146D01*
X185335Y77165D02*
X186319D01*
X185827Y76673D02*
Y77658D01*
X227854Y77165D02*
X228839D01*
X228346Y76673D02*
Y77658D01*
X227854Y169685D02*
X228839D01*
X228346Y169193D02*
Y170177D01*
X266437Y186614D02*
X267421D01*
X266929Y186122D02*
Y187106D01*
X250897Y132862D02*
X251882D01*
X251390Y132370D02*
Y133355D01*
X248721Y89764D02*
X249705D01*
X249213Y89272D02*
Y90256D01*
X256988Y44366D02*
X257972D01*
X257480Y43874D02*
Y44858D01*
X260138Y46850D02*
X261122D01*
X260630Y46358D02*
Y47343D01*
X318799Y82284D02*
X319783D01*
X319291Y81791D02*
Y82776D01*
X97933Y280709D02*
X98917D01*
X98425Y280217D02*
Y281201D01*
X124311Y216929D02*
X125295D01*
X124803Y216437D02*
Y217421D01*
X258108Y294300D02*
X259092D01*
X258600Y293808D02*
Y294792D01*
X250295Y254724D02*
X251279D01*
X250787Y254232D02*
Y255217D01*
X218406Y269291D02*
X219390D01*
X218898Y268799D02*
Y269783D01*
X230610Y264173D02*
X231594D01*
X231102Y263681D02*
Y264665D01*
X249114Y279134D02*
X250098D01*
X249606Y278642D02*
Y279626D01*
X253445Y259055D02*
X254429D01*
X253937Y258563D02*
Y259547D01*
X231004Y274016D02*
X231988D01*
X231496Y273524D02*
Y274508D01*
X258957Y259055D02*
X259941D01*
X259449Y258563D02*
Y259547D01*
X257382Y278346D02*
X258366D01*
X257874Y277854D02*
Y278839D01*
X252658Y264173D02*
X253642D01*
X253150Y263681D02*
Y264665D01*
X237992Y307681D02*
X238976D01*
X238484Y307189D02*
Y308173D01*
X223308Y308200D02*
X224292D01*
X223800Y307708D02*
Y308692D01*
X208508Y311000D02*
X209492D01*
X209000Y310508D02*
Y311492D01*
X206594Y289764D02*
X207579D01*
X207087Y289272D02*
Y290256D01*
X230608Y289100D02*
X231592D01*
X231100Y288608D02*
Y289592D01*
X218012Y290158D02*
X218996D01*
X218504Y289665D02*
Y290650D01*
X145571Y311811D02*
X146555D01*
X146063Y311319D02*
Y312303D01*
X129823Y307874D02*
X130807D01*
X130315Y307382D02*
Y308366D01*
X112106Y322047D02*
X113091D01*
X112598Y321555D02*
Y322539D01*
X130217Y312992D02*
X131201D01*
X130709Y312500D02*
Y313484D01*
X124311Y308661D02*
X125295D01*
X124803Y308169D02*
Y309154D01*
X116831Y298031D02*
X117815D01*
X117323Y297539D02*
Y298524D01*
X60138Y319291D02*
X61122D01*
X60630Y318799D02*
Y319783D01*
X64807Y309101D02*
X65791D01*
X65299Y308609D02*
Y309593D01*
X64862Y303543D02*
X65847D01*
X65354Y303051D02*
Y304035D01*
X60532Y275197D02*
X61516D01*
X61024Y274705D02*
Y275689D01*
X60532Y244882D02*
X61516D01*
X61024Y244390D02*
Y245374D01*
X30217Y16535D02*
X31201D01*
X30709Y16043D02*
Y17028D01*
X333760Y13386D02*
X334744D01*
X334252Y12894D02*
Y13878D01*
X267769Y33798D02*
X268754D01*
X268262Y33306D02*
Y34290D01*
X293602Y52362D02*
X294587D01*
X294094Y51870D02*
Y52854D01*
X157776Y314173D02*
X158760D01*
X158268Y313681D02*
Y314665D01*
X166043Y304724D02*
X167027D01*
X166535Y304232D02*
Y305217D01*
X173130Y313779D02*
X174114D01*
X173622Y313287D02*
Y314272D01*
X201083Y308268D02*
X202067D01*
X201575Y307776D02*
Y308760D01*
X195965Y309449D02*
X196949D01*
X196457Y308957D02*
Y309941D01*
X215808Y308500D02*
X216792D01*
X216300Y308008D02*
Y308992D01*
X230610Y309055D02*
X231594D01*
X231102Y308563D02*
Y309547D01*
X242421Y313779D02*
X243406D01*
X242913Y313287D02*
Y314272D01*
X258808Y306200D02*
X259792D01*
X259300Y305708D02*
Y306692D01*
X249902Y304331D02*
X250886D01*
X250394Y303839D02*
Y304823D01*
X266831Y304724D02*
X267815D01*
X267323Y304232D02*
Y305217D01*
X275098Y313779D02*
X276083D01*
X275590Y313287D02*
Y314272D01*
X301870Y309055D02*
X302854D01*
X302362Y308563D02*
Y309547D01*
X304232Y314173D02*
X305217D01*
X304724Y313681D02*
Y314665D01*
X319193Y314173D02*
X320177D01*
X319685Y313681D02*
Y314665D01*
X332972Y340551D02*
X333957D01*
X333465Y340059D02*
Y341043D01*
X369193Y290551D02*
X370177D01*
X369685Y290059D02*
Y291043D01*
X368799Y304724D02*
X369783D01*
X369291Y304232D02*
Y305217D01*
X362894Y287795D02*
X363878D01*
X363386Y287303D02*
Y288287D01*
X367224Y205906D02*
X368209D01*
X367717Y205413D02*
Y206398D01*
X363681Y165354D02*
X364665D01*
X364173Y164862D02*
Y165847D01*
X367224Y197244D02*
X368209D01*
X367717Y196752D02*
Y197736D01*
X368012Y183071D02*
X368996D01*
X368504Y182579D02*
Y183563D01*
X368799Y152756D02*
X369783D01*
X369291Y152264D02*
Y153248D01*
X369193Y136614D02*
X370177D01*
X369685Y136122D02*
Y137106D01*
X287303Y168110D02*
X288287D01*
X287795Y167618D02*
Y168602D01*
X287303Y100000D02*
X288287D01*
X287795Y99508D02*
Y100492D01*
X292421Y92126D02*
X293406D01*
X292913Y91634D02*
Y92618D01*
X292028Y79921D02*
X293012D01*
X292520Y79429D02*
Y80413D01*
X292815Y59842D02*
X293799D01*
X293307Y59350D02*
Y60335D01*
X287303Y42126D02*
X288287D01*
X287795Y41634D02*
Y42618D01*
X231004Y71653D02*
X231988D01*
X231496Y71161D02*
Y72146D01*
X204626Y71653D02*
X205610D01*
X205118Y71161D02*
Y72146D01*
X116043Y25591D02*
X117027D01*
X116535Y25098D02*
Y26083D01*
X184547Y15354D02*
X185531D01*
X185039Y14862D02*
Y15846D01*
X174705Y71653D02*
X175689D01*
X175197Y71161D02*
Y72146D01*
X81508Y31224D02*
X82492D01*
X82000Y30732D02*
Y31716D01*
X249508Y274606D02*
X250492D01*
X250000Y274114D02*
Y275098D01*
X169587Y286221D02*
X170571D01*
X170079Y285728D02*
Y286713D01*
X196358Y274606D02*
X197343D01*
X196850Y274114D02*
Y275098D01*
X196358Y277559D02*
X197343D01*
X196850Y277067D02*
Y278051D01*
X196358Y280512D02*
X197343D01*
X196850Y280020D02*
Y281004D01*
X196358Y283465D02*
X197343D01*
X196850Y282972D02*
Y283957D01*
X169783Y274606D02*
X170768D01*
X170276Y274114D02*
Y275098D01*
X169783Y277559D02*
X170768D01*
X170276Y277067D02*
Y278051D01*
X169783Y280512D02*
X170768D01*
X170276Y280020D02*
Y281004D01*
X169783Y283465D02*
X170768D01*
X170276Y282972D02*
Y283957D01*
X196358Y286221D02*
X197343D01*
X196850Y285728D02*
Y286713D01*
X100689Y336221D02*
X101673D01*
X101181Y335728D02*
Y336713D01*
M02*
