G04*
G04 #@! TF.GenerationSoftware,Altium Limited,Altium Designer,21.8.1 (53)*
G04*
G04 Layer_Color=8388736*
%FSLAX25Y25*%
%MOIN*%
G70*
G04*
G04 #@! TF.SameCoordinates,01E290FD-0F91-4D7C-9431-6C0E6AC14D40*
G04*
G04*
G04 #@! TF.FilePolarity,Negative*
G04*
G01*
G75*
%ADD28R,0.05512X0.01378*%
%ADD38C,0.01973*%
%ADD39R,0.01581X0.03943*%
%ADD40R,0.03550X0.03943*%
%ADD41R,0.13865X0.06266*%
%ADD42R,0.01778X0.05912*%
%ADD43R,0.03943X0.03550*%
%ADD44R,0.02565X0.02565*%
%ADD45R,0.03550X0.03550*%
%ADD46R,0.12008X0.12008*%
%ADD47R,0.03550X0.03550*%
%ADD48R,0.14179X0.02762*%
%ADD49R,0.02762X0.14179*%
%ADD50R,0.01778X0.05715*%
%ADD51R,0.05715X0.01778*%
%ADD52R,0.02565X0.02565*%
%ADD53R,0.06306X0.07093*%
%ADD54R,0.07608X0.02253*%
%ADD55R,0.07487X0.05912*%
%ADD56C,0.03947*%
%ADD57R,0.03947X0.03947*%
%ADD58C,0.05794*%
%ADD59R,0.05794X0.05794*%
%ADD60R,0.05794X0.05794*%
%ADD61C,0.25400*%
G36*
X375300Y293456D02*
X362889D01*
Y302324D01*
X375300D01*
Y293456D01*
D02*
G37*
G36*
X361127Y285976D02*
X354228D01*
Y289725D01*
X361127D01*
Y285976D01*
D02*
G37*
G36*
X144493Y282672D02*
X140547D01*
Y286619D01*
X144493D01*
Y282672D01*
D02*
G37*
G36*
X82682Y282476D02*
X78735D01*
Y286422D01*
X82682D01*
Y282476D01*
D02*
G37*
G36*
X361127Y281054D02*
X354228D01*
Y284804D01*
X361127D01*
Y281054D01*
D02*
G37*
G36*
Y276133D02*
X354228D01*
Y279883D01*
X361127D01*
Y276133D01*
D02*
G37*
G36*
Y271212D02*
X354228D01*
Y274961D01*
X361127D01*
Y271212D01*
D02*
G37*
G36*
Y266290D02*
X354228D01*
Y270040D01*
X361127D01*
Y266290D01*
D02*
G37*
G36*
Y261369D02*
X354228D01*
Y265119D01*
X361127D01*
Y261369D01*
D02*
G37*
G36*
Y256448D02*
X354228D01*
Y260198D01*
X361127D01*
Y256448D01*
D02*
G37*
G36*
Y251527D02*
X354228D01*
Y255276D01*
X361127D01*
Y251527D01*
D02*
G37*
G36*
Y246605D02*
X354228D01*
Y250355D01*
X361127D01*
Y246605D01*
D02*
G37*
G36*
Y241684D02*
X354228D01*
Y245434D01*
X361127D01*
Y241684D01*
D02*
G37*
G36*
Y236763D02*
X354228D01*
Y240513D01*
X361127D01*
Y236763D01*
D02*
G37*
G36*
Y231842D02*
X354228D01*
Y235591D01*
X361127D01*
Y231842D01*
D02*
G37*
G36*
Y226921D02*
X354228D01*
Y230670D01*
X361127D01*
Y226921D01*
D02*
G37*
G36*
Y221999D02*
X354228D01*
Y225749D01*
X361127D01*
Y221999D01*
D02*
G37*
G36*
X375300Y209401D02*
X362889D01*
Y218268D01*
X375300D01*
Y209401D01*
D02*
G37*
G36*
Y186019D02*
X362889D01*
Y194887D01*
X375300D01*
Y186019D01*
D02*
G37*
G36*
X361127Y178539D02*
X354228D01*
Y182288D01*
X361127D01*
Y178539D01*
D02*
G37*
G36*
Y173617D02*
X354228D01*
Y177367D01*
X361127D01*
Y173617D01*
D02*
G37*
G36*
Y168696D02*
X354228D01*
Y172446D01*
X361127D01*
Y168696D01*
D02*
G37*
G36*
Y163775D02*
X354228D01*
Y167524D01*
X361127D01*
Y163775D01*
D02*
G37*
G36*
Y158853D02*
X354228D01*
Y162603D01*
X361127D01*
Y158853D01*
D02*
G37*
G36*
Y153932D02*
X354228D01*
Y157682D01*
X361127D01*
Y153932D01*
D02*
G37*
G36*
X375300Y141334D02*
X362889D01*
Y150202D01*
X375300D01*
Y141334D01*
D02*
G37*
D28*
X173839Y250098D02*
D03*
Y247539D02*
D03*
Y244980D02*
D03*
Y242421D02*
D03*
Y239862D02*
D03*
Y237303D02*
D03*
Y234744D02*
D03*
Y232185D02*
D03*
X196239D02*
D03*
Y234744D02*
D03*
Y237303D02*
D03*
Y239862D02*
D03*
Y242421D02*
D03*
Y244980D02*
D03*
Y247539D02*
D03*
Y250098D02*
D03*
D38*
X81695Y328740D02*
G03*
X81695Y328740I-987J0D01*
G01*
Y323819D02*
G03*
X81695Y323819I-987J0D01*
G01*
Y318898D02*
G03*
X81695Y318898I-987J0D01*
G01*
Y313976D02*
G03*
X81695Y313976I-987J0D01*
G01*
Y309055D02*
G03*
X81695Y309055I-987J0D01*
G01*
Y304134D02*
G03*
X81695Y304134I-987J0D01*
G01*
Y299213D02*
G03*
X81695Y299213I-987J0D01*
G01*
Y294291D02*
G03*
X81695Y294291I-987J0D01*
G01*
Y289370D02*
G03*
X81695Y289370I-987J0D01*
G01*
X143506Y328937D02*
G03*
X143506Y328937I-987J0D01*
G01*
Y324016D02*
G03*
X143506Y324016I-987J0D01*
G01*
Y319094D02*
G03*
X143506Y319094I-987J0D01*
G01*
Y314173D02*
G03*
X143506Y314173I-987J0D01*
G01*
Y309252D02*
G03*
X143506Y309252I-987J0D01*
G01*
Y304331D02*
G03*
X143506Y304331I-987J0D01*
G01*
Y299410D02*
G03*
X143506Y299410I-987J0D01*
G01*
Y294488D02*
G03*
X143506Y294488I-987J0D01*
G01*
Y289567D02*
G03*
X143506Y289567I-987J0D01*
G01*
D39*
X89941Y50717D02*
D03*
Y38000D02*
D03*
X92500Y50717D02*
D03*
Y38000D02*
D03*
X87382D02*
D03*
X95059D02*
D03*
X87382Y50717D02*
D03*
X95059D02*
D03*
X141220Y49858D02*
D03*
Y37142D02*
D03*
X143780Y49858D02*
D03*
Y37142D02*
D03*
X138661D02*
D03*
X146339D02*
D03*
X138661Y49858D02*
D03*
X146339D02*
D03*
D40*
X143913Y25854D02*
D03*
X149425D02*
D03*
X138402D02*
D03*
X132890D02*
D03*
X82000Y26500D02*
D03*
X87512D02*
D03*
X98535D02*
D03*
X93024D02*
D03*
X94244Y61000D02*
D03*
X99756D02*
D03*
X138756Y60500D02*
D03*
X133244D02*
D03*
X220866Y187860D02*
D03*
X226378D02*
D03*
X220866Y194026D02*
D03*
X226378D02*
D03*
X196063Y71653D02*
D03*
X190551D02*
D03*
X179527D02*
D03*
X185039D02*
D03*
X209449D02*
D03*
X214961D02*
D03*
X309449Y82284D02*
D03*
X314961D02*
D03*
X70866Y299213D02*
D03*
X65354D02*
D03*
X70866Y319291D02*
D03*
X65354D02*
D03*
X197638Y121260D02*
D03*
X192126D02*
D03*
X197638Y115354D02*
D03*
X192126D02*
D03*
X197638Y109449D02*
D03*
X192126D02*
D03*
X264173Y198031D02*
D03*
X258661D02*
D03*
X220866Y181693D02*
D03*
X226378D02*
D03*
X220866Y175526D02*
D03*
X226378D02*
D03*
X95669Y309842D02*
D03*
X101181D02*
D03*
X101181Y315748D02*
D03*
X95669D02*
D03*
X206988Y242815D02*
D03*
X212500D02*
D03*
X184252Y225984D02*
D03*
X189764D02*
D03*
X124803Y303937D02*
D03*
X130315D02*
D03*
X343386Y241850D02*
D03*
X337874D02*
D03*
X343386Y247850D02*
D03*
X337874D02*
D03*
X343386Y253850D02*
D03*
X337874D02*
D03*
X343386Y259850D02*
D03*
X337874D02*
D03*
X337874Y265850D02*
D03*
X343386D02*
D03*
X337874Y271850D02*
D03*
X343386D02*
D03*
X343386Y277850D02*
D03*
X337874D02*
D03*
X337874Y283850D02*
D03*
X343386D02*
D03*
X343386Y217850D02*
D03*
X337874D02*
D03*
X343386Y223850D02*
D03*
X337874D02*
D03*
X343386Y229850D02*
D03*
X337874D02*
D03*
X343386Y235850D02*
D03*
X337874D02*
D03*
X337874Y289850D02*
D03*
X343386D02*
D03*
X344571Y181512D02*
D03*
X339059D02*
D03*
X344571Y169512D02*
D03*
X339059D02*
D03*
X344571Y175512D02*
D03*
X339059D02*
D03*
X344571Y163512D02*
D03*
X339059D02*
D03*
X25394Y16732D02*
D03*
X19882D02*
D03*
X13976Y344488D02*
D03*
X19488D02*
D03*
X83465Y121260D02*
D03*
X88976D02*
D03*
X81496Y169291D02*
D03*
X87008D02*
D03*
X81496Y148819D02*
D03*
X87008D02*
D03*
X65354Y289370D02*
D03*
X70866D02*
D03*
X65354Y313386D02*
D03*
X70866D02*
D03*
X195669Y153937D02*
D03*
X190157D02*
D03*
X195669Y173622D02*
D03*
X190157D02*
D03*
X199606Y181496D02*
D03*
X194095D02*
D03*
X199606Y187402D02*
D03*
X194095D02*
D03*
X199606Y193307D02*
D03*
X194095D02*
D03*
X186614Y203150D02*
D03*
X181102D02*
D03*
X195669Y127165D02*
D03*
X190157D02*
D03*
X197638Y136221D02*
D03*
X192126D02*
D03*
X197638Y142126D02*
D03*
X192126D02*
D03*
X69095Y92520D02*
D03*
X74606D02*
D03*
X69095Y79724D02*
D03*
X74606D02*
D03*
X69095Y66929D02*
D03*
X74606D02*
D03*
X253937Y254331D02*
D03*
X259449D02*
D03*
D41*
X185039Y258858D02*
D03*
Y281803D02*
D03*
D42*
X104331Y302658D02*
D03*
X106890D02*
D03*
X109449D02*
D03*
X112008D02*
D03*
X114567D02*
D03*
X112008Y280020D02*
D03*
X114567D02*
D03*
X117126D02*
D03*
X109449D02*
D03*
X106890D02*
D03*
X104331D02*
D03*
X101772D02*
D03*
Y302658D02*
D03*
X117126D02*
D03*
X246549Y221094D02*
D03*
Y243732D02*
D03*
X249108D02*
D03*
X251667D02*
D03*
X254226D02*
D03*
X256785D02*
D03*
X259344D02*
D03*
X256785Y221094D02*
D03*
X259344D02*
D03*
X261903D02*
D03*
Y243732D02*
D03*
X254226Y221094D02*
D03*
X251667D02*
D03*
X249108D02*
D03*
D43*
X8500Y275000D02*
D03*
Y269488D02*
D03*
X161024Y90945D02*
D03*
Y96457D02*
D03*
X150787Y212598D02*
D03*
Y207087D02*
D03*
X166929Y101575D02*
D03*
Y107087D02*
D03*
X287795Y147244D02*
D03*
Y152756D02*
D03*
Y163779D02*
D03*
Y158268D02*
D03*
X246020Y206934D02*
D03*
Y201422D02*
D03*
X240020Y206934D02*
D03*
Y201422D02*
D03*
X94882Y285433D02*
D03*
Y290945D02*
D03*
X158366Y243307D02*
D03*
Y248819D02*
D03*
X213091Y237106D02*
D03*
Y231594D02*
D03*
X195472Y220669D02*
D03*
Y226181D02*
D03*
X218996Y237106D02*
D03*
Y231594D02*
D03*
X201378Y220669D02*
D03*
Y226181D02*
D03*
X207185Y237106D02*
D03*
Y231594D02*
D03*
X287795Y133071D02*
D03*
Y127559D02*
D03*
Y46850D02*
D03*
Y52362D02*
D03*
Y77559D02*
D03*
Y72047D02*
D03*
Y61024D02*
D03*
Y66535D02*
D03*
Y104331D02*
D03*
Y109843D02*
D03*
Y89764D02*
D03*
Y84252D02*
D03*
Y120866D02*
D03*
Y115354D02*
D03*
X106693Y330709D02*
D03*
Y336221D02*
D03*
X105508Y262205D02*
D03*
Y267717D02*
D03*
X111417Y262205D02*
D03*
Y267717D02*
D03*
X103720Y213756D02*
D03*
Y208244D02*
D03*
X339567Y13976D02*
D03*
Y19488D02*
D03*
X338583Y340551D02*
D03*
Y335039D02*
D03*
X178740Y101575D02*
D03*
Y107087D02*
D03*
X113779Y103937D02*
D03*
Y109449D02*
D03*
X131496Y101575D02*
D03*
Y107087D02*
D03*
X113500Y207244D02*
D03*
Y212756D02*
D03*
X119421Y207272D02*
D03*
Y212784D02*
D03*
X125500Y212756D02*
D03*
Y207244D02*
D03*
X172835Y101575D02*
D03*
Y107087D02*
D03*
X61024Y264961D02*
D03*
Y270472D02*
D03*
Y249606D02*
D03*
Y255118D02*
D03*
X233858Y238189D02*
D03*
Y243701D02*
D03*
X240158Y243701D02*
D03*
Y238189D02*
D03*
X253150Y274410D02*
D03*
Y268898D02*
D03*
X240158Y227165D02*
D03*
Y232677D02*
D03*
D44*
X65882Y205382D02*
D03*
Y201839D02*
D03*
X137008Y98622D02*
D03*
Y102165D02*
D03*
X67484Y133953D02*
D03*
Y137496D02*
D03*
D45*
X59382Y208130D02*
D03*
Y201634D02*
D03*
X60984Y133500D02*
D03*
Y139996D02*
D03*
X8500Y262496D02*
D03*
Y256000D02*
D03*
D46*
X185039Y241142D02*
D03*
D47*
X68602Y85630D02*
D03*
X75098D02*
D03*
X68602Y72835D02*
D03*
X75098D02*
D03*
X68602Y99410D02*
D03*
X75098D02*
D03*
D48*
X240816Y148049D02*
D03*
Y153049D02*
D03*
Y158049D02*
D03*
Y163049D02*
D03*
X276249D02*
D03*
Y158049D02*
D03*
Y153049D02*
D03*
Y148049D02*
D03*
Y143049D02*
D03*
Y128049D02*
D03*
Y133049D02*
D03*
Y138049D02*
D03*
X240816Y143049D02*
D03*
Y138049D02*
D03*
Y133049D02*
D03*
Y128049D02*
D03*
Y61949D02*
D03*
Y66949D02*
D03*
Y71949D02*
D03*
Y76949D02*
D03*
X276249D02*
D03*
Y71949D02*
D03*
Y66949D02*
D03*
Y61949D02*
D03*
Y56949D02*
D03*
Y41949D02*
D03*
Y46949D02*
D03*
Y51949D02*
D03*
X240816Y56949D02*
D03*
Y51949D02*
D03*
Y46949D02*
D03*
Y41949D02*
D03*
Y104849D02*
D03*
Y109849D02*
D03*
Y114849D02*
D03*
Y119849D02*
D03*
X276249D02*
D03*
Y114849D02*
D03*
Y109849D02*
D03*
Y104849D02*
D03*
Y99849D02*
D03*
Y84849D02*
D03*
Y89849D02*
D03*
Y94849D02*
D03*
X240816Y99849D02*
D03*
Y94849D02*
D03*
Y89849D02*
D03*
Y84849D02*
D03*
D49*
X195153Y24674D02*
D03*
X190153D02*
D03*
X185153D02*
D03*
X180153D02*
D03*
Y60107D02*
D03*
X185153D02*
D03*
X190153D02*
D03*
X195153D02*
D03*
X200153D02*
D03*
X215153D02*
D03*
X210153D02*
D03*
X205153D02*
D03*
X200153Y24674D02*
D03*
X205153D02*
D03*
X210153D02*
D03*
X215153D02*
D03*
D50*
X103937Y116929D02*
D03*
X105905D02*
D03*
X107874D02*
D03*
X109843D02*
D03*
X111811D02*
D03*
X113779D02*
D03*
X115748D02*
D03*
X117717D02*
D03*
X119685D02*
D03*
X121653D02*
D03*
X123622D02*
D03*
X125591D02*
D03*
X127559D02*
D03*
X129528D02*
D03*
X131496D02*
D03*
X133465D02*
D03*
X135433D02*
D03*
X137402D02*
D03*
X139370D02*
D03*
X141339D02*
D03*
X143307D02*
D03*
X145276D02*
D03*
X147244D02*
D03*
X149213D02*
D03*
X151181D02*
D03*
X153150D02*
D03*
X155118D02*
D03*
X157087D02*
D03*
X159055D02*
D03*
X161024D02*
D03*
X162992D02*
D03*
X164961D02*
D03*
X166929D02*
D03*
X168898D02*
D03*
X170866D02*
D03*
X172835D02*
D03*
Y200591D02*
D03*
X170866D02*
D03*
X168898D02*
D03*
X166929D02*
D03*
X164961D02*
D03*
X162992D02*
D03*
X161024D02*
D03*
X159055D02*
D03*
X157087D02*
D03*
X155118D02*
D03*
X153150D02*
D03*
X151181D02*
D03*
X149213D02*
D03*
X147244D02*
D03*
X145276D02*
D03*
X143307D02*
D03*
X141339D02*
D03*
X139370D02*
D03*
X137402D02*
D03*
X135433D02*
D03*
X133465D02*
D03*
X131496D02*
D03*
X129528D02*
D03*
X127559D02*
D03*
X125591D02*
D03*
X123622D02*
D03*
X121653D02*
D03*
X119685D02*
D03*
X117717D02*
D03*
X115748D02*
D03*
X113779D02*
D03*
X111811D02*
D03*
X109843D02*
D03*
X107874D02*
D03*
X105905D02*
D03*
X103937D02*
D03*
D51*
X180217Y124311D02*
D03*
Y126279D02*
D03*
Y128248D02*
D03*
Y130217D02*
D03*
Y132185D02*
D03*
Y134153D02*
D03*
Y136122D02*
D03*
Y138091D02*
D03*
Y140059D02*
D03*
Y142028D02*
D03*
Y143996D02*
D03*
Y145965D02*
D03*
Y147933D02*
D03*
Y149902D02*
D03*
Y151870D02*
D03*
Y153839D02*
D03*
Y155807D02*
D03*
Y157776D02*
D03*
Y159744D02*
D03*
Y161713D02*
D03*
Y163681D02*
D03*
Y165650D02*
D03*
Y167618D02*
D03*
Y169587D02*
D03*
Y171555D02*
D03*
Y173524D02*
D03*
Y175492D02*
D03*
Y177461D02*
D03*
Y179429D02*
D03*
Y181398D02*
D03*
Y183366D02*
D03*
Y185335D02*
D03*
Y187303D02*
D03*
Y189272D02*
D03*
Y191240D02*
D03*
Y193209D02*
D03*
X96555D02*
D03*
Y191240D02*
D03*
Y189272D02*
D03*
Y187303D02*
D03*
Y185335D02*
D03*
Y183366D02*
D03*
Y181398D02*
D03*
Y179429D02*
D03*
Y177461D02*
D03*
Y175492D02*
D03*
Y173524D02*
D03*
Y171555D02*
D03*
Y169587D02*
D03*
Y167618D02*
D03*
Y165650D02*
D03*
Y163681D02*
D03*
Y161713D02*
D03*
Y159744D02*
D03*
Y157776D02*
D03*
Y155807D02*
D03*
Y153839D02*
D03*
Y151870D02*
D03*
Y149902D02*
D03*
Y147933D02*
D03*
Y145965D02*
D03*
Y143996D02*
D03*
Y142028D02*
D03*
Y140059D02*
D03*
Y138091D02*
D03*
Y136122D02*
D03*
Y134153D02*
D03*
Y132185D02*
D03*
Y130217D02*
D03*
Y128248D02*
D03*
Y126279D02*
D03*
Y124311D02*
D03*
D52*
X144488Y84252D02*
D03*
X148031D02*
D03*
D53*
X153150Y92638D02*
D03*
Y102638D02*
D03*
X144488D02*
D03*
Y92638D02*
D03*
D54*
X272992Y179626D02*
D03*
X249843D02*
D03*
X272992Y192421D02*
D03*
Y189862D02*
D03*
Y187303D02*
D03*
Y184744D02*
D03*
Y182185D02*
D03*
Y177067D02*
D03*
Y174508D02*
D03*
X249843D02*
D03*
Y177067D02*
D03*
Y182185D02*
D03*
Y184744D02*
D03*
Y187303D02*
D03*
Y189862D02*
D03*
Y192421D02*
D03*
D55*
X7874Y195276D02*
D03*
Y185039D02*
D03*
Y164173D02*
D03*
Y174409D02*
D03*
D56*
X80709Y328740D02*
D03*
Y323819D02*
D03*
Y318898D02*
D03*
Y313976D02*
D03*
Y309055D02*
D03*
Y304134D02*
D03*
Y299213D02*
D03*
Y294291D02*
D03*
Y289370D02*
D03*
X142520Y328937D02*
D03*
Y324016D02*
D03*
Y319094D02*
D03*
Y314173D02*
D03*
Y309252D02*
D03*
Y304331D02*
D03*
Y299410D02*
D03*
Y294488D02*
D03*
Y289567D02*
D03*
D57*
X80709Y284449D02*
D03*
X142520Y284646D02*
D03*
D58*
X266535Y5906D02*
D03*
X276535D02*
D03*
X286535D02*
D03*
X296535D02*
D03*
X306535D02*
D03*
X198819D02*
D03*
X208819D02*
D03*
X218819D02*
D03*
X228819D02*
D03*
X238819D02*
D03*
X40000Y255000D02*
D03*
Y245000D02*
D03*
Y225000D02*
D03*
Y235000D02*
D03*
Y205000D02*
D03*
Y195000D02*
D03*
Y185000D02*
D03*
Y165000D02*
D03*
Y175000D02*
D03*
Y145000D02*
D03*
Y125000D02*
D03*
Y155000D02*
D03*
Y135000D02*
D03*
Y215000D02*
D03*
Y265000D02*
D03*
X50000Y105000D02*
D03*
Y135000D02*
D03*
Y125000D02*
D03*
Y115000D02*
D03*
Y145000D02*
D03*
Y165000D02*
D03*
Y65000D02*
D03*
Y85000D02*
D03*
Y95000D02*
D03*
Y75000D02*
D03*
Y155000D02*
D03*
X40000Y305000D02*
D03*
Y275000D02*
D03*
Y295000D02*
D03*
X50000Y285000D02*
D03*
Y295000D02*
D03*
X40000Y285000D02*
D03*
X50000Y305000D02*
D03*
Y275000D02*
D03*
Y255000D02*
D03*
Y245000D02*
D03*
Y235000D02*
D03*
Y225000D02*
D03*
Y215000D02*
D03*
Y205000D02*
D03*
Y185000D02*
D03*
Y175000D02*
D03*
Y265000D02*
D03*
Y195000D02*
D03*
X40000Y95000D02*
D03*
Y105000D02*
D03*
Y75000D02*
D03*
Y115000D02*
D03*
Y55000D02*
D03*
Y85000D02*
D03*
Y65000D02*
D03*
X20000Y255000D02*
D03*
Y245000D02*
D03*
Y225000D02*
D03*
Y235000D02*
D03*
Y205000D02*
D03*
Y195000D02*
D03*
Y185000D02*
D03*
Y165000D02*
D03*
Y175000D02*
D03*
Y145000D02*
D03*
Y125000D02*
D03*
Y155000D02*
D03*
Y135000D02*
D03*
Y215000D02*
D03*
Y265000D02*
D03*
X30000Y105000D02*
D03*
Y135000D02*
D03*
Y125000D02*
D03*
Y115000D02*
D03*
Y145000D02*
D03*
Y165000D02*
D03*
Y65000D02*
D03*
Y85000D02*
D03*
Y95000D02*
D03*
Y75000D02*
D03*
Y155000D02*
D03*
X20000Y305000D02*
D03*
Y275000D02*
D03*
Y295000D02*
D03*
X30000Y285000D02*
D03*
Y295000D02*
D03*
X20000Y285000D02*
D03*
X30000Y305000D02*
D03*
Y275000D02*
D03*
Y255000D02*
D03*
Y245000D02*
D03*
Y235000D02*
D03*
Y225000D02*
D03*
Y215000D02*
D03*
Y205000D02*
D03*
Y185000D02*
D03*
Y175000D02*
D03*
Y265000D02*
D03*
Y195000D02*
D03*
X20000Y95000D02*
D03*
Y105000D02*
D03*
Y75000D02*
D03*
Y115000D02*
D03*
Y55000D02*
D03*
Y85000D02*
D03*
Y65000D02*
D03*
D59*
X316535Y5906D02*
D03*
X248819D02*
D03*
D60*
X50000Y55000D02*
D03*
X30000D02*
D03*
D61*
X357559Y334724D02*
D03*
Y20000D02*
D03*
X20000Y35000D02*
D03*
Y324724D02*
D03*
M02*
