G04*
G04 #@! TF.GenerationSoftware,Altium Limited,Altium Designer,21.8.1 (53)*
G04*
G04 Layer_Color=128*
%FSLAX25Y25*%
%MOIN*%
G70*
G04*
G04 #@! TF.SameCoordinates,1DA8EEA3-8410-44CE-929F-920E368E6BCF*
G04*
G04*
G04 #@! TF.FilePolarity,Positive*
G04*
G01*
G75*
%ADD16C,0.01000*%
%ADD19C,0.00800*%
%ADD118C,0.00200*%
D16*
X377559Y0D02*
Y59055D01*
X63976Y335039D02*
Y354724D01*
X377559Y59055D02*
X377559Y355000D01*
X0Y354724D02*
X63976D01*
X332677Y355000D02*
X377559Y355000D01*
X63976Y335039D02*
X332677Y335615D01*
Y355000D01*
X0Y0D02*
Y354724D01*
D19*
X157480Y0D02*
X377559D01*
X0D02*
X110236D01*
X157480D02*
Y19685D01*
X110236D02*
X157480D01*
X110236Y0D02*
Y19685D01*
D118*
X153387Y88704D02*
X155355D01*
X154371Y87720D02*
Y89688D01*
X153387Y93625D02*
X155355D01*
X154371Y92641D02*
Y94609D01*
X367500Y131791D02*
X371516D01*
X369508Y129783D02*
Y133799D01*
X357500Y131791D02*
X361516D01*
X359508Y129783D02*
Y133799D01*
X347500Y131791D02*
X351516D01*
X349508Y129783D02*
Y133799D01*
X337500Y131791D02*
X341516D01*
X339508Y129783D02*
Y133799D01*
X327500Y131791D02*
X331516D01*
X329508Y129783D02*
Y133799D01*
X317500Y131791D02*
X321516D01*
X319508Y129783D02*
Y133799D01*
X204444Y77048D02*
X209169D01*
X206806Y74686D02*
Y79410D01*
X193460Y87048D02*
X200153D01*
X196806Y83702D02*
Y90395D01*
X213460Y87048D02*
X220153D01*
X216806Y83702D02*
Y90395D01*
X193460Y67048D02*
X200153D01*
X196806Y63702D02*
Y70394D01*
X213460Y67048D02*
X220153D01*
X216806Y63702D02*
Y70394D01*
X334000Y316500D02*
X337000D01*
X335500Y315000D02*
Y318000D01*
X301900Y299500D02*
X304900D01*
X303400Y298000D02*
Y301000D01*
X224016Y18504D02*
X228740D01*
X226378Y16142D02*
Y20866D01*
X213032Y28504D02*
X219724D01*
X216378Y25157D02*
Y31850D01*
X233032Y28504D02*
X239724D01*
X236378Y25157D02*
Y31850D01*
X213032Y8504D02*
X219724D01*
X216378Y5158D02*
Y11850D01*
X233032Y8504D02*
X239724D01*
X236378Y5158D02*
Y11850D01*
X183071Y18504D02*
X187795D01*
X185433Y16142D02*
Y20866D01*
X172087Y28504D02*
X178779D01*
X175433Y25157D02*
Y31850D01*
X192087Y28504D02*
X198779D01*
X195433Y25157D02*
Y31850D01*
X172087Y8504D02*
X178779D01*
X175433Y5158D02*
Y11850D01*
X192087Y8504D02*
X198779D01*
X195433Y5158D02*
Y11850D01*
X263338Y18500D02*
X268062D01*
X265700Y16138D02*
Y20862D01*
X252354Y8500D02*
X259047D01*
X255700Y5153D02*
Y11846D01*
X252354Y28500D02*
X259047D01*
X255700Y25154D02*
Y31846D01*
X272354Y8500D02*
X279047D01*
X275700Y5153D02*
Y11846D01*
X272354Y28500D02*
X279047D01*
X275700Y25154D02*
Y31846D01*
X325638Y18500D02*
X330362D01*
X328000Y16138D02*
Y20862D01*
X314653Y8500D02*
X321346D01*
X318000Y5153D02*
Y11846D01*
X314653Y28500D02*
X321346D01*
X318000Y25154D02*
Y31846D01*
X334653Y8500D02*
X341347D01*
X338000Y5153D02*
Y11846D01*
X334653Y28500D02*
X341347D01*
X338000Y25154D02*
Y31846D01*
X295984Y131791D02*
X300000D01*
X297992Y129783D02*
Y133799D01*
X285984Y131791D02*
X290000D01*
X287992Y129783D02*
Y133799D01*
X275984Y131791D02*
X280000D01*
X277992Y129783D02*
Y133799D01*
X265984Y131791D02*
X270000D01*
X267992Y129783D02*
Y133799D01*
X255984Y131791D02*
X260000D01*
X257992Y129783D02*
Y133799D01*
X245984Y131791D02*
X250000D01*
X247992Y129783D02*
Y133799D01*
X91576Y108192D02*
X93544D01*
X92560Y107208D02*
Y109176D01*
X91576Y103271D02*
X93544D01*
X92560Y102287D02*
Y104255D01*
X91576Y98350D02*
X93544D01*
X92560Y97365D02*
Y99334D01*
X91576Y93428D02*
X93544D01*
X92560Y92444D02*
Y94413D01*
X91576Y88507D02*
X93544D01*
X92560Y87523D02*
Y89491D01*
X91576Y83586D02*
X93544D01*
X92560Y82602D02*
Y84570D01*
X91576Y78665D02*
X93544D01*
X92560Y77680D02*
Y79649D01*
X91576Y73743D02*
X93544D01*
X92560Y72759D02*
Y74727D01*
X91576Y68822D02*
X93544D01*
X92560Y67838D02*
Y69806D01*
X91576Y63901D02*
X93544D01*
X92560Y62916D02*
Y64885D01*
X153387Y108389D02*
X155355D01*
X154371Y107405D02*
Y109373D01*
X153387Y103468D02*
X155355D01*
X154371Y102483D02*
Y104452D01*
X153387Y98546D02*
X155355D01*
X154371Y97562D02*
Y99531D01*
X153387Y83783D02*
X155355D01*
X154371Y82798D02*
Y84767D01*
X153387Y78861D02*
X155355D01*
X154371Y77877D02*
Y79846D01*
X153387Y73940D02*
X155355D01*
X154371Y72956D02*
Y74924D01*
X153387Y69019D02*
X155355D01*
X154371Y68035D02*
Y70003D01*
X153387Y64098D02*
X155355D01*
X154371Y63113D02*
Y65082D01*
X44528Y27905D02*
X48543D01*
X46535Y25898D02*
Y29913D01*
X54528Y27905D02*
X58543D01*
X56535Y25898D02*
Y29913D01*
X64528Y27905D02*
X68543D01*
X66535Y25898D02*
Y29913D01*
X74528Y27905D02*
X78543D01*
X76535Y25898D02*
Y29913D01*
X84528Y27905D02*
X88543D01*
X86535Y25898D02*
Y29913D01*
X94528Y27905D02*
X98543D01*
X96535Y25898D02*
Y29913D01*
X43992Y8000D02*
X48008D01*
X46000Y5992D02*
Y10008D01*
X53992Y8000D02*
X58008D01*
X56000Y5992D02*
Y10008D01*
X63992Y8000D02*
X68008D01*
X66000Y5992D02*
Y10008D01*
X73992Y8000D02*
X78008D01*
X76000Y5992D02*
Y10008D01*
X83992Y8000D02*
X88008D01*
X86000Y5992D02*
Y10008D01*
X93992Y8000D02*
X98008D01*
X96000Y5992D02*
Y10008D01*
X37992Y255000D02*
X42008D01*
X40000Y252992D02*
Y257008D01*
X37992Y245000D02*
X42008D01*
X40000Y242992D02*
Y247008D01*
X37992Y225000D02*
X42008D01*
X40000Y222992D02*
Y227008D01*
X37992Y235000D02*
X42008D01*
X40000Y232992D02*
Y237008D01*
X37992Y205000D02*
X42008D01*
X40000Y202992D02*
Y207008D01*
X37992Y195000D02*
X42008D01*
X40000Y192992D02*
Y197008D01*
X37992Y185000D02*
X42008D01*
X40000Y182992D02*
Y187008D01*
X37992Y165000D02*
X42008D01*
X40000Y162992D02*
Y167008D01*
X37992Y175000D02*
X42008D01*
X40000Y172992D02*
Y177008D01*
X37992Y145000D02*
X42008D01*
X40000Y142992D02*
Y147008D01*
X37992Y125000D02*
X42008D01*
X40000Y122992D02*
Y127008D01*
X37992Y155000D02*
X42008D01*
X40000Y152992D02*
Y157008D01*
X37992Y135000D02*
X42008D01*
X40000Y132992D02*
Y137008D01*
X37992Y215000D02*
X42008D01*
X40000Y212992D02*
Y217008D01*
X37992Y265000D02*
X42008D01*
X40000Y262992D02*
Y267008D01*
X47992Y105000D02*
X52008D01*
X50000Y102992D02*
Y107008D01*
X47992Y135000D02*
X52008D01*
X50000Y132992D02*
Y137008D01*
X47992Y125000D02*
X52008D01*
X50000Y122992D02*
Y127008D01*
X47992Y115000D02*
X52008D01*
X50000Y112992D02*
Y117008D01*
X47992Y145000D02*
X52008D01*
X50000Y142992D02*
Y147008D01*
X47992Y165000D02*
X52008D01*
X50000Y162992D02*
Y167008D01*
X47992Y55000D02*
X52008D01*
X50000Y52992D02*
Y57008D01*
X47992Y65000D02*
X52008D01*
X50000Y62992D02*
Y67008D01*
X47992Y85000D02*
X52008D01*
X50000Y82992D02*
Y87008D01*
X47992Y95000D02*
X52008D01*
X50000Y92992D02*
Y97008D01*
X47992Y75000D02*
X52008D01*
X50000Y72992D02*
Y77008D01*
X47992Y155000D02*
X52008D01*
X50000Y152992D02*
Y157008D01*
X37992Y305000D02*
X42008D01*
X40000Y302992D02*
Y307008D01*
X37992Y275000D02*
X42008D01*
X40000Y272992D02*
Y277008D01*
X37992Y295000D02*
X42008D01*
X40000Y292992D02*
Y297008D01*
X47992Y285000D02*
X52008D01*
X50000Y282992D02*
Y287008D01*
X47992Y295000D02*
X52008D01*
X50000Y292992D02*
Y297008D01*
X37992Y285000D02*
X42008D01*
X40000Y282992D02*
Y287008D01*
X47992Y305000D02*
X52008D01*
X50000Y302992D02*
Y307008D01*
X47992Y275000D02*
X52008D01*
X50000Y272992D02*
Y277008D01*
X47992Y255000D02*
X52008D01*
X50000Y252992D02*
Y257008D01*
X47992Y245000D02*
X52008D01*
X50000Y242992D02*
Y247008D01*
X47992Y235000D02*
X52008D01*
X50000Y232992D02*
Y237008D01*
X47992Y225000D02*
X52008D01*
X50000Y222992D02*
Y227008D01*
X47992Y215000D02*
X52008D01*
X50000Y212992D02*
Y217008D01*
X47992Y205000D02*
X52008D01*
X50000Y202992D02*
Y207008D01*
X47992Y185000D02*
X52008D01*
X50000Y182992D02*
Y187008D01*
X47992Y175000D02*
X52008D01*
X50000Y172992D02*
Y177008D01*
X47992Y265000D02*
X52008D01*
X50000Y262992D02*
Y267008D01*
X47992Y195000D02*
X52008D01*
X50000Y192992D02*
Y197008D01*
X37992Y95000D02*
X42008D01*
X40000Y92992D02*
Y97008D01*
X37992Y105000D02*
X42008D01*
X40000Y102992D02*
Y107008D01*
X37992Y75000D02*
X42008D01*
X40000Y72992D02*
Y77008D01*
X37992Y115000D02*
X42008D01*
X40000Y112992D02*
Y117008D01*
X37992Y55000D02*
X42008D01*
X40000Y52992D02*
Y57008D01*
X37992Y85000D02*
X42008D01*
X40000Y82992D02*
Y87008D01*
X37992Y65000D02*
X42008D01*
X40000Y62992D02*
Y67008D01*
X17992Y255000D02*
X22008D01*
X20000Y252992D02*
Y257008D01*
X17992Y245000D02*
X22008D01*
X20000Y242992D02*
Y247008D01*
X17992Y225000D02*
X22008D01*
X20000Y222992D02*
Y227008D01*
X17992Y235000D02*
X22008D01*
X20000Y232992D02*
Y237008D01*
X17992Y205000D02*
X22008D01*
X20000Y202992D02*
Y207008D01*
X17992Y195000D02*
X22008D01*
X20000Y192992D02*
Y197008D01*
X17992Y185000D02*
X22008D01*
X20000Y182992D02*
Y187008D01*
X17992Y165000D02*
X22008D01*
X20000Y162992D02*
Y167008D01*
X17992Y175000D02*
X22008D01*
X20000Y172992D02*
Y177008D01*
X17992Y145000D02*
X22008D01*
X20000Y142992D02*
Y147008D01*
X17992Y125000D02*
X22008D01*
X20000Y122992D02*
Y127008D01*
X17992Y155000D02*
X22008D01*
X20000Y152992D02*
Y157008D01*
X17992Y135000D02*
X22008D01*
X20000Y132992D02*
Y137008D01*
X17992Y215000D02*
X22008D01*
X20000Y212992D02*
Y217008D01*
X17992Y265000D02*
X22008D01*
X20000Y262992D02*
Y267008D01*
X27992Y105000D02*
X32008D01*
X30000Y102992D02*
Y107008D01*
X27992Y135000D02*
X32008D01*
X30000Y132992D02*
Y137008D01*
X27992Y125000D02*
X32008D01*
X30000Y122992D02*
Y127008D01*
X27992Y115000D02*
X32008D01*
X30000Y112992D02*
Y117008D01*
X27992Y145000D02*
X32008D01*
X30000Y142992D02*
Y147008D01*
X27992Y165000D02*
X32008D01*
X30000Y162992D02*
Y167008D01*
X27992Y55000D02*
X32008D01*
X30000Y52992D02*
Y57008D01*
X27992Y65000D02*
X32008D01*
X30000Y62992D02*
Y67008D01*
X27992Y85000D02*
X32008D01*
X30000Y82992D02*
Y87008D01*
X27992Y95000D02*
X32008D01*
X30000Y92992D02*
Y97008D01*
X27992Y75000D02*
X32008D01*
X30000Y72992D02*
Y77008D01*
X27992Y155000D02*
X32008D01*
X30000Y152992D02*
Y157008D01*
X17992Y305000D02*
X22008D01*
X20000Y302992D02*
Y307008D01*
X17992Y275000D02*
X22008D01*
X20000Y272992D02*
Y277008D01*
X17992Y295000D02*
X22008D01*
X20000Y292992D02*
Y297008D01*
X27992Y285000D02*
X32008D01*
X30000Y282992D02*
Y287008D01*
X27992Y295000D02*
X32008D01*
X30000Y292992D02*
Y297008D01*
X17992Y285000D02*
X22008D01*
X20000Y282992D02*
Y287008D01*
X27992Y305000D02*
X32008D01*
X30000Y302992D02*
Y307008D01*
X27992Y275000D02*
X32008D01*
X30000Y272992D02*
Y277008D01*
X27992Y255000D02*
X32008D01*
X30000Y252992D02*
Y257008D01*
X27992Y245000D02*
X32008D01*
X30000Y242992D02*
Y247008D01*
X27992Y235000D02*
X32008D01*
X30000Y232992D02*
Y237008D01*
X27992Y225000D02*
X32008D01*
X30000Y222992D02*
Y227008D01*
X27992Y215000D02*
X32008D01*
X30000Y212992D02*
Y217008D01*
X27992Y205000D02*
X32008D01*
X30000Y202992D02*
Y207008D01*
X27992Y185000D02*
X32008D01*
X30000Y182992D02*
Y187008D01*
X27992Y175000D02*
X32008D01*
X30000Y172992D02*
Y177008D01*
X27992Y265000D02*
X32008D01*
X30000Y262992D02*
Y267008D01*
X27992Y195000D02*
X32008D01*
X30000Y192992D02*
Y197008D01*
X17992Y95000D02*
X22008D01*
X20000Y92992D02*
Y97008D01*
X17992Y105000D02*
X22008D01*
X20000Y102992D02*
Y107008D01*
X17992Y75000D02*
X22008D01*
X20000Y72992D02*
Y77008D01*
X17992Y115000D02*
X22008D01*
X20000Y112992D02*
Y117008D01*
X17992Y55000D02*
X22008D01*
X20000Y52992D02*
Y57008D01*
X17992Y85000D02*
X22008D01*
X20000Y82992D02*
Y87008D01*
X17992Y65000D02*
X22008D01*
X20000Y62992D02*
Y67008D01*
X351299Y334724D02*
X363819D01*
X357559Y328465D02*
Y340984D01*
X351299Y20000D02*
X363819D01*
X357559Y13740D02*
Y26260D01*
X13740Y35000D02*
X26260D01*
X20000Y28740D02*
Y41260D01*
X13740Y324724D02*
X26260D01*
X20000Y318465D02*
Y330984D01*
X74350Y170472D02*
X75335D01*
X74843Y169980D02*
Y170965D01*
X280263Y272748D02*
X281247D01*
X280755Y272256D02*
Y273240D01*
X280512Y284842D02*
X281496D01*
X281004Y284350D02*
Y285335D01*
X269685Y278642D02*
X270669D01*
X270177Y278150D02*
Y279134D01*
X140295Y225866D02*
X141279D01*
X140787Y225374D02*
Y226358D01*
X140295Y205866D02*
X141279D01*
X140787Y205374D02*
Y206358D01*
X370295Y345866D02*
X371280D01*
X370787Y345374D02*
Y346358D01*
X370295Y325866D02*
X371280D01*
X370787Y325374D02*
Y326358D01*
X370295Y285866D02*
X371280D01*
X370787Y285374D02*
Y286358D01*
X370295Y185866D02*
X371280D01*
X370787Y185374D02*
Y186358D01*
X370295Y145866D02*
X371280D01*
X370787Y145374D02*
Y146358D01*
X360295Y305866D02*
X361280D01*
X360787Y305374D02*
Y306358D01*
X365295Y295866D02*
X366280D01*
X365787Y295374D02*
Y296358D01*
X360295Y225866D02*
X361280D01*
X360787Y225374D02*
Y226358D01*
X360295Y205866D02*
X361280D01*
X360787Y205374D02*
Y206358D01*
X365295Y155866D02*
X366280D01*
X365787Y155374D02*
Y156358D01*
X360295Y145866D02*
X361280D01*
X360787Y145374D02*
Y146358D01*
X365295Y135866D02*
X366280D01*
X365787Y135374D02*
Y136358D01*
X350295Y205866D02*
X351279D01*
X350787Y205374D02*
Y206358D01*
X350295Y165866D02*
X351279D01*
X350787Y165374D02*
Y166358D01*
X355295Y155866D02*
X356279D01*
X355787Y155374D02*
Y156358D01*
X350295Y145866D02*
X351279D01*
X350787Y145374D02*
Y146358D01*
X340295Y325866D02*
X341280D01*
X340787Y325374D02*
Y326358D01*
X345295Y215866D02*
X346280D01*
X345787Y215374D02*
Y216358D01*
X340295Y205866D02*
X341280D01*
X340787Y205374D02*
Y206358D01*
X340295Y165866D02*
X341280D01*
X340787Y165374D02*
Y166358D01*
X345295Y155866D02*
X346280D01*
X345787Y155374D02*
Y156358D01*
X340295Y145866D02*
X341280D01*
X340787Y145374D02*
Y146358D01*
X345295Y135866D02*
X346280D01*
X345787Y135374D02*
Y136358D01*
X330295Y285866D02*
X331279D01*
X330787Y285374D02*
Y286358D01*
X335295Y275866D02*
X336280D01*
X335787Y275374D02*
Y276358D01*
X335295Y195866D02*
X336280D01*
X335787Y195374D02*
Y196358D01*
X335295Y155866D02*
X336280D01*
X335787Y155374D02*
Y156358D01*
X330295Y145866D02*
X331279D01*
X330787Y145374D02*
Y146358D01*
X335295Y135866D02*
X336280D01*
X335787Y135374D02*
Y136358D01*
X325295Y315866D02*
X326279D01*
X325787Y315374D02*
Y316358D01*
X325295Y295866D02*
X326279D01*
X325787Y295374D02*
Y296358D01*
X325295Y255866D02*
X326279D01*
X325787Y255374D02*
Y256358D01*
X320295Y165866D02*
X321280D01*
X320787Y165374D02*
Y166358D01*
X325295Y155866D02*
X326279D01*
X325787Y155374D02*
Y156358D01*
X320295Y145866D02*
X321280D01*
X320787Y145374D02*
Y146358D01*
X325295Y135866D02*
X326279D01*
X325787Y135374D02*
Y136358D01*
X310295Y325866D02*
X311280D01*
X310787Y325374D02*
Y326358D01*
X315295Y295866D02*
X316280D01*
X315787Y295374D02*
Y296358D01*
X310295Y285866D02*
X311280D01*
X310787Y285374D02*
Y286358D01*
X315295Y255866D02*
X316280D01*
X315787Y255374D02*
Y256358D01*
X310295Y205866D02*
X311280D01*
X310787Y205374D02*
Y206358D01*
X315295Y195866D02*
X316280D01*
X315787Y195374D02*
Y196358D01*
X310295Y165866D02*
X311280D01*
X310787Y165374D02*
Y166358D01*
X315295Y155866D02*
X316280D01*
X315787Y155374D02*
Y156358D01*
X310295Y145866D02*
X311280D01*
X310787Y145374D02*
Y146358D01*
X300295Y325866D02*
X301279D01*
X300787Y325374D02*
Y326358D01*
X300295Y245866D02*
X301279D01*
X300787Y245374D02*
Y246358D01*
X305295Y195866D02*
X306279D01*
X305787Y195374D02*
Y196358D01*
X300295Y165866D02*
X301279D01*
X300787Y165374D02*
Y166358D01*
X305295Y155866D02*
X306279D01*
X305787Y155374D02*
Y156358D01*
X300295Y145866D02*
X301279D01*
X300787Y145374D02*
Y146358D01*
X305295Y135866D02*
X306279D01*
X305787Y135374D02*
Y136358D01*
X295295Y235866D02*
X296280D01*
X295787Y235374D02*
Y236358D01*
X290295Y145866D02*
X291280D01*
X290787Y145374D02*
Y146358D01*
X285295Y235866D02*
X286280D01*
X285787Y235374D02*
Y236358D01*
X280295Y205866D02*
X281279D01*
X280787Y205374D02*
Y206358D01*
X280295Y165866D02*
X281279D01*
X280787Y165374D02*
Y166358D01*
X280295Y145866D02*
X281279D01*
X280787Y145374D02*
Y146358D01*
X270295Y325866D02*
X271280D01*
X270787Y325374D02*
Y326358D01*
X270295Y165866D02*
X271280D01*
X270787Y165374D02*
Y166358D01*
X275295Y155866D02*
X276279D01*
X275787Y155374D02*
Y156358D01*
X270295Y145866D02*
X271280D01*
X270787Y145374D02*
Y146358D01*
X260295Y145866D02*
X261280D01*
X260787Y145374D02*
Y146358D01*
X255295Y235866D02*
X256279D01*
X255787Y235374D02*
Y236358D01*
X235295Y275866D02*
X236280D01*
X235787Y275374D02*
Y276358D01*
X230295Y225866D02*
X231279D01*
X230787Y225374D02*
Y226358D01*
X235295Y215866D02*
X236280D01*
X235787Y215374D02*
Y216358D01*
X230295Y145866D02*
X231279D01*
X230787Y145374D02*
Y146358D01*
X225295Y275866D02*
X226279D01*
X225787Y275374D02*
Y276358D01*
X225295Y255866D02*
X226279D01*
X225787Y255374D02*
Y256358D01*
X225295Y195866D02*
X226279D01*
X225787Y195374D02*
Y196358D01*
X225295Y155866D02*
X226279D01*
X225787Y155374D02*
Y156358D01*
X220295Y145866D02*
X221280D01*
X220787Y145374D02*
Y146358D01*
X215295Y295866D02*
X216280D01*
X215787Y295374D02*
Y296358D01*
X210295Y285866D02*
X211280D01*
X210787Y285374D02*
Y286358D01*
X210295Y225866D02*
X211280D01*
X210787Y225374D02*
Y226358D01*
X215295Y195866D02*
X216280D01*
X215787Y195374D02*
Y196358D01*
X210295Y165866D02*
X211280D01*
X210787Y165374D02*
Y166358D01*
X215295Y155866D02*
X216280D01*
X215787Y155374D02*
Y156358D01*
X210295Y145866D02*
X211280D01*
X210787Y145374D02*
Y146358D01*
X205295Y235866D02*
X206279D01*
X205787Y235374D02*
Y236358D01*
X205295Y155866D02*
X206279D01*
X205787Y155374D02*
Y156358D01*
X200295Y145866D02*
X201279D01*
X200787Y145374D02*
Y146358D01*
X190295Y145866D02*
X191279D01*
X190787Y145374D02*
Y146358D01*
X180295Y285866D02*
X181280D01*
X180787Y285374D02*
Y286358D01*
X180295Y265866D02*
X181280D01*
X180787Y265374D02*
Y266358D01*
X180295Y145866D02*
X181280D01*
X180787Y145374D02*
Y146358D01*
X170295Y325866D02*
X171280D01*
X170787Y325374D02*
Y326358D01*
X170295Y285866D02*
X171280D01*
X170787Y285374D02*
Y286358D01*
X170295Y265866D02*
X171280D01*
X170787Y265374D02*
Y266358D01*
X170295Y145866D02*
X171280D01*
X170787Y145374D02*
Y146358D01*
X160295Y325866D02*
X161279D01*
X160787Y325374D02*
Y326358D01*
X165295Y295866D02*
X166279D01*
X165787Y295374D02*
Y296358D01*
X165295Y235866D02*
X166279D01*
X165787Y235374D02*
Y236358D01*
X150295Y325866D02*
X151279D01*
X150787Y325374D02*
Y326358D01*
X155295Y295866D02*
X156280D01*
X155787Y295374D02*
Y296358D01*
X150295Y265866D02*
X151279D01*
X150787Y265374D02*
Y266358D01*
X150295Y245866D02*
X151279D01*
X150787Y245374D02*
Y246358D01*
X155295Y235866D02*
X156280D01*
X155787Y235374D02*
Y236358D01*
X150295Y225866D02*
X151279D01*
X150787Y225374D02*
Y226358D01*
X155295Y215866D02*
X156280D01*
X155787Y215374D02*
Y216358D01*
X150295Y205866D02*
X151279D01*
X150787Y205374D02*
Y206358D01*
X155295Y195866D02*
X156280D01*
X155787Y195374D02*
Y196358D01*
X150295Y145866D02*
X151279D01*
X150787Y145374D02*
Y146358D01*
X145295Y295866D02*
X146280D01*
X145787Y295374D02*
Y296358D01*
X140295Y265866D02*
X141279D01*
X140787Y265374D02*
Y266358D01*
X140295Y245866D02*
X141279D01*
X140787Y245374D02*
Y246358D01*
X145295Y235866D02*
X146280D01*
X145787Y235374D02*
Y236358D01*
X145295Y215866D02*
X146280D01*
X145787Y215374D02*
Y216358D01*
X145295Y75866D02*
X146280D01*
X145787Y75374D02*
Y76358D01*
X140295Y65866D02*
X141279D01*
X140787Y65374D02*
Y66358D01*
X145295Y55866D02*
X146280D01*
X145787Y55374D02*
Y56358D01*
X145295Y35866D02*
X146280D01*
X145787Y35374D02*
Y36358D01*
X140295Y25866D02*
X141279D01*
X140787Y25374D02*
Y26358D01*
X135295Y295866D02*
X136279D01*
X135787Y295374D02*
Y296358D01*
X130295Y265866D02*
X131280D01*
X130787Y265374D02*
Y266358D01*
X130295Y225866D02*
X131280D01*
X130787Y225374D02*
Y226358D01*
X130295Y205866D02*
X131280D01*
X130787Y205374D02*
Y206358D01*
X130295Y145866D02*
X131280D01*
X130787Y145374D02*
Y146358D01*
X135295Y55866D02*
X136279D01*
X135787Y55374D02*
Y56358D01*
X130295Y25866D02*
X131280D01*
X130787Y25374D02*
Y26358D01*
X125295Y295866D02*
X126279D01*
X125787Y295374D02*
Y296358D01*
X120295Y285866D02*
X121280D01*
X120787Y285374D02*
Y286358D01*
X120295Y265866D02*
X121280D01*
X120787Y265374D02*
Y266358D01*
X120295Y245866D02*
X121280D01*
X120787Y245374D02*
Y246358D01*
X120295Y225866D02*
X121280D01*
X120787Y225374D02*
Y226358D01*
X125295Y215866D02*
X126279D01*
X125787Y215374D02*
Y216358D01*
X120295Y205866D02*
X121280D01*
X120787Y205374D02*
Y206358D01*
X125295Y175866D02*
X126279D01*
X125787Y175374D02*
Y176358D01*
X110295Y325866D02*
X111279D01*
X110787Y325374D02*
Y326358D01*
X115295Y295866D02*
X116279D01*
X115787Y295374D02*
Y296358D01*
X110295Y285866D02*
X111279D01*
X110787Y285374D02*
Y286358D01*
X110295Y45866D02*
X111279D01*
X110787Y45374D02*
Y46358D01*
X100295Y325866D02*
X101279D01*
X100787Y325374D02*
Y326358D01*
X100295Y285866D02*
X101279D01*
X100787Y285374D02*
Y286358D01*
X100295Y265866D02*
X101279D01*
X100787Y265374D02*
Y266358D01*
X105295Y55866D02*
X106280D01*
X105787Y55374D02*
Y56358D01*
X105295Y35866D02*
X106280D01*
X105787Y35374D02*
Y36358D01*
X105295Y15866D02*
X106280D01*
X105787Y15374D02*
Y16358D01*
X100295Y5866D02*
X101279D01*
X100787Y5374D02*
Y6358D01*
X90295Y325866D02*
X91280D01*
X90787Y325374D02*
Y326358D01*
X95295Y295866D02*
X96280D01*
X95787Y295374D02*
Y296358D01*
X90295Y285866D02*
X91280D01*
X90787Y285374D02*
Y286358D01*
X90295Y265866D02*
X91280D01*
X90787Y265374D02*
Y266358D01*
X90295Y25866D02*
X91280D01*
X90787Y25374D02*
Y26358D01*
X95295Y15866D02*
X96280D01*
X95787Y15374D02*
Y16358D01*
X90295Y5866D02*
X91280D01*
X90787Y5374D02*
Y6358D01*
X80295Y325866D02*
X81279D01*
X80787Y325374D02*
Y326358D01*
X80295Y305866D02*
X81279D01*
X80787Y305374D02*
Y306358D01*
X85295Y295866D02*
X86279D01*
X85787Y295374D02*
Y296358D01*
X85295Y255866D02*
X86279D01*
X85787Y255374D02*
Y256358D01*
X80295Y185866D02*
X81279D01*
X80787Y185374D02*
Y186358D01*
X80295Y105866D02*
X81279D01*
X80787Y105374D02*
Y106358D01*
X80295Y85866D02*
X81279D01*
X80787Y85374D02*
Y86358D01*
X85295Y55866D02*
X86279D01*
X85787Y55374D02*
Y56358D01*
X80295Y45866D02*
X81279D01*
X80787Y45374D02*
Y46358D01*
X80295Y25866D02*
X81279D01*
X80787Y25374D02*
Y26358D01*
X85295Y15866D02*
X86279D01*
X85787Y15374D02*
Y16358D01*
X80295Y5866D02*
X81279D01*
X80787Y5374D02*
Y6358D01*
X70295Y305866D02*
X71280D01*
X70787Y305374D02*
Y306358D01*
X75295Y275866D02*
X76279D01*
X75787Y275374D02*
Y276358D01*
X70295Y105866D02*
X71280D01*
X70787Y105374D02*
Y106358D01*
X70295Y85866D02*
X71280D01*
X70787Y85374D02*
Y86358D01*
X70295Y65866D02*
X71280D01*
X70787Y65374D02*
Y66358D01*
X75295Y55866D02*
X76279D01*
X75787Y55374D02*
Y56358D01*
X70295Y45866D02*
X71280D01*
X70787Y45374D02*
Y46358D01*
X70295Y25866D02*
X71280D01*
X70787Y25374D02*
Y26358D01*
X75295Y15866D02*
X76279D01*
X75787Y15374D02*
Y16358D01*
X70295Y5866D02*
X71280D01*
X70787Y5374D02*
Y6358D01*
X60295Y345866D02*
X61279D01*
X60787Y345374D02*
Y346358D01*
X65295Y315866D02*
X66280D01*
X65787Y315374D02*
Y316358D01*
X60295Y305866D02*
X61279D01*
X60787Y305374D02*
Y306358D01*
X65295Y295866D02*
X66280D01*
X65787Y295374D02*
Y296358D01*
X60295Y285866D02*
X61279D01*
X60787Y285374D02*
Y286358D01*
X65295Y275866D02*
X66280D01*
X65787Y275374D02*
Y276358D01*
X60295Y125866D02*
X61279D01*
X60787Y125374D02*
Y126358D01*
X65295Y115866D02*
X66280D01*
X65787Y115374D02*
Y116358D01*
X60295Y105866D02*
X61279D01*
X60787Y105374D02*
Y106358D01*
X65295Y95866D02*
X66280D01*
X65787Y95374D02*
Y96358D01*
X60295Y85866D02*
X61279D01*
X60787Y85374D02*
Y86358D01*
X65295Y75866D02*
X66280D01*
X65787Y75374D02*
Y76358D01*
X60295Y65866D02*
X61279D01*
X60787Y65374D02*
Y66358D01*
X65295Y55866D02*
X66280D01*
X65787Y55374D02*
Y56358D01*
X60295Y45866D02*
X61279D01*
X60787Y45374D02*
Y46358D01*
X65295Y35866D02*
X66280D01*
X65787Y35374D02*
Y36358D01*
X60295Y25866D02*
X61279D01*
X60787Y25374D02*
Y26358D01*
X65295Y15866D02*
X66280D01*
X65787Y15374D02*
Y16358D01*
X60295Y5866D02*
X61279D01*
X60787Y5374D02*
Y6358D01*
X50295Y345866D02*
X51279D01*
X50787Y345374D02*
Y346358D01*
X55295Y335866D02*
X56279D01*
X55787Y335374D02*
Y336358D01*
X50295Y325866D02*
X51279D01*
X50787Y325374D02*
Y326358D01*
X55295Y315866D02*
X56279D01*
X55787Y315374D02*
Y316358D01*
X55295Y295866D02*
X56279D01*
X55787Y295374D02*
Y296358D01*
X55295Y275866D02*
X56279D01*
X55787Y275374D02*
Y276358D01*
X55295Y235866D02*
X56279D01*
X55787Y235374D02*
Y236358D01*
X55295Y175866D02*
X56279D01*
X55787Y175374D02*
Y176358D01*
X50295Y45866D02*
X51279D01*
X50787Y45374D02*
Y46358D01*
X50295Y25866D02*
X51279D01*
X50787Y25374D02*
Y26358D01*
X55295Y15866D02*
X56279D01*
X55787Y15374D02*
Y16358D01*
X50295Y5866D02*
X51279D01*
X50787Y5374D02*
Y6358D01*
X40295Y345866D02*
X41280D01*
X40787Y345374D02*
Y346358D01*
X45295Y335866D02*
X46279D01*
X45787Y335374D02*
Y336358D01*
X45295Y315866D02*
X46279D01*
X45787Y315374D02*
Y316358D01*
X40295Y45866D02*
X41280D01*
X40787Y45374D02*
Y46358D01*
X45295Y35866D02*
X46279D01*
X45787Y35374D02*
Y36358D01*
X40295Y25866D02*
X41280D01*
X40787Y25374D02*
Y26358D01*
X45295Y15866D02*
X46279D01*
X45787Y15374D02*
Y16358D01*
X40295Y5866D02*
X41280D01*
X40787Y5374D02*
Y6358D01*
X30295Y345866D02*
X31280D01*
X30787Y345374D02*
Y346358D01*
X35295Y335866D02*
X36279D01*
X35787Y335374D02*
Y336358D01*
X30295Y45866D02*
X31280D01*
X30787Y45374D02*
Y46358D01*
X35295Y35866D02*
X36279D01*
X35787Y35374D02*
Y36358D01*
X35295Y15866D02*
X36279D01*
X35787Y15374D02*
Y16358D01*
X30295Y5866D02*
X31280D01*
X30787Y5374D02*
Y6358D01*
X20295Y345866D02*
X21280D01*
X20787Y345374D02*
Y346358D01*
X25295Y195866D02*
X26280D01*
X25787Y195374D02*
Y196358D01*
X25295Y15866D02*
X26280D01*
X25787Y15374D02*
Y16358D01*
X20295Y5866D02*
X21280D01*
X20787Y5374D02*
Y6358D01*
X10295Y305866D02*
X11280D01*
X10787Y305374D02*
Y306358D01*
X10295Y285866D02*
X11280D01*
X10787Y285374D02*
Y286358D01*
X10295Y245866D02*
X11280D01*
X10787Y245374D02*
Y246358D01*
X10295Y125866D02*
X11280D01*
X10787Y125374D02*
Y126358D01*
X10295Y105866D02*
X11280D01*
X10787Y105374D02*
Y106358D01*
X10295Y85866D02*
X11280D01*
X10787Y85374D02*
Y86358D01*
X10295Y65866D02*
X11280D01*
X10787Y65374D02*
Y66358D01*
X10295Y5866D02*
X11280D01*
X10787Y5374D02*
Y6358D01*
X168110Y154307D02*
X169095D01*
X168602Y153815D02*
Y154799D01*
X372795Y120866D02*
X373780D01*
X373287Y120374D02*
Y121358D01*
X372795Y110866D02*
X373780D01*
X373287Y110374D02*
Y111358D01*
X372795Y100866D02*
X373780D01*
X373287Y100374D02*
Y101358D01*
X372795Y90866D02*
X373780D01*
X373287Y90374D02*
Y91358D01*
X372795Y80866D02*
X373780D01*
X373287Y80374D02*
Y81358D01*
X372795Y70866D02*
X373780D01*
X373287Y70374D02*
Y71358D01*
X370295Y65866D02*
X371280D01*
X370787Y65374D02*
Y66358D01*
X372795Y60866D02*
X373780D01*
X373287Y60374D02*
Y61358D01*
X370295Y55866D02*
X371280D01*
X370787Y55374D02*
Y56358D01*
X372795Y50866D02*
X373780D01*
X373287Y50374D02*
Y51358D01*
X370295Y45866D02*
X371280D01*
X370787Y45374D02*
Y46358D01*
X372795Y40866D02*
X373780D01*
X373287Y40374D02*
Y41358D01*
X370295Y35866D02*
X371280D01*
X370787Y35374D02*
Y36358D01*
X372795Y30866D02*
X373780D01*
X373287Y30374D02*
Y31358D01*
X372795Y20866D02*
X373780D01*
X373287Y20374D02*
Y21358D01*
X372795Y10866D02*
X373780D01*
X373287Y10374D02*
Y11358D01*
X370295Y5866D02*
X371280D01*
X370787Y5374D02*
Y6358D01*
X365295Y125866D02*
X366280D01*
X365787Y125374D02*
Y126358D01*
X365295Y115866D02*
X366280D01*
X365787Y115374D02*
Y116358D01*
X365295Y65866D02*
X366280D01*
X365787Y65374D02*
Y66358D01*
X367795Y60866D02*
X368779D01*
X368287Y60374D02*
Y61358D01*
X365295Y55866D02*
X366280D01*
X365787Y55374D02*
Y56358D01*
X367795Y50866D02*
X368779D01*
X368287Y50374D02*
Y51358D01*
X365295Y45866D02*
X366280D01*
X365787Y45374D02*
Y46358D01*
X367795Y40866D02*
X368779D01*
X368287Y40374D02*
Y41358D01*
X365295Y35866D02*
X366280D01*
X365787Y35374D02*
Y36358D01*
X367795Y30866D02*
X368779D01*
X368287Y30374D02*
Y31358D01*
X365295Y5866D02*
X366280D01*
X365787Y5374D02*
Y6358D01*
X362795Y60866D02*
X363779D01*
X363287Y60374D02*
Y61358D01*
X360295Y55866D02*
X361280D01*
X360787Y55374D02*
Y56358D01*
X362795Y50866D02*
X363779D01*
X363287Y50374D02*
Y51358D01*
X360295Y45866D02*
X361280D01*
X360787Y45374D02*
Y46358D01*
X360295Y5866D02*
X361280D01*
X360787Y5374D02*
Y6358D01*
X355295Y125866D02*
X356279D01*
X355787Y125374D02*
Y126358D01*
X355295Y105866D02*
X356279D01*
X355787Y105374D02*
Y106358D01*
X355295Y55866D02*
X356279D01*
X355787Y55374D02*
Y56358D01*
X357795Y50866D02*
X358780D01*
X358287Y50374D02*
Y51358D01*
X355295Y45866D02*
X356279D01*
X355787Y45374D02*
Y46358D01*
X350295Y95866D02*
X351279D01*
X350787Y95374D02*
Y96358D01*
X352795Y90866D02*
X353780D01*
X353287Y90374D02*
Y91358D01*
X350295Y85866D02*
X351279D01*
X350787Y85374D02*
Y86358D01*
X352795Y80866D02*
X353780D01*
X353287Y80374D02*
Y81358D01*
X350295Y55866D02*
X351279D01*
X350787Y55374D02*
Y56358D01*
X352795Y50866D02*
X353780D01*
X353287Y50374D02*
Y51358D01*
X350295Y45866D02*
X351279D01*
X350787Y45374D02*
Y46358D01*
X352795Y40866D02*
X353780D01*
X353287Y40374D02*
Y41358D01*
X350295Y35866D02*
X351279D01*
X350787Y35374D02*
Y36358D01*
X350295Y5866D02*
X351279D01*
X350787Y5374D02*
Y6358D01*
X345295Y125866D02*
X346280D01*
X345787Y125374D02*
Y126358D01*
X345295Y95866D02*
X346280D01*
X345787Y95374D02*
Y96358D01*
X347795Y90866D02*
X348780D01*
X348287Y90374D02*
Y91358D01*
X345295Y85866D02*
X346280D01*
X345787Y85374D02*
Y86358D01*
X347795Y80866D02*
X348780D01*
X348287Y80374D02*
Y81358D01*
X345295Y55866D02*
X346280D01*
X345787Y55374D02*
Y56358D01*
X347795Y50866D02*
X348780D01*
X348287Y50374D02*
Y51358D01*
X345295Y45866D02*
X346280D01*
X345787Y45374D02*
Y46358D01*
X347795Y40866D02*
X348780D01*
X348287Y40374D02*
Y41358D01*
X345295Y35866D02*
X346280D01*
X345787Y35374D02*
Y36358D01*
X345295Y5866D02*
X346280D01*
X345787Y5374D02*
Y6358D01*
X340295Y125866D02*
X341280D01*
X340787Y125374D02*
Y126358D01*
X340295Y95866D02*
X341280D01*
X340787Y95374D02*
Y96358D01*
X342795Y90866D02*
X343779D01*
X343287Y90374D02*
Y91358D01*
X340295Y85866D02*
X341280D01*
X340787Y85374D02*
Y86358D01*
X342795Y80866D02*
X343779D01*
X343287Y80374D02*
Y81358D01*
X340295Y55866D02*
X341280D01*
X340787Y55374D02*
Y56358D01*
X342795Y50866D02*
X343779D01*
X343287Y50374D02*
Y51358D01*
X340295Y45866D02*
X341280D01*
X340787Y45374D02*
Y46358D01*
X342795Y40866D02*
X343779D01*
X343287Y40374D02*
Y41358D01*
X340295Y35866D02*
X341280D01*
X340787Y35374D02*
Y36358D01*
X340295Y15866D02*
X341280D01*
X340787Y15374D02*
Y16358D01*
X335295Y125866D02*
X336280D01*
X335787Y125374D02*
Y126358D01*
X335295Y105866D02*
X336280D01*
X335787Y105374D02*
Y106358D01*
X335295Y95866D02*
X336280D01*
X335787Y95374D02*
Y96358D01*
X337795Y90866D02*
X338779D01*
X338287Y90374D02*
Y91358D01*
X335295Y85866D02*
X336280D01*
X335787Y85374D02*
Y86358D01*
X337795Y80866D02*
X338779D01*
X338287Y80374D02*
Y81358D01*
X335295Y75866D02*
X336280D01*
X335787Y75374D02*
Y76358D01*
X335295Y45866D02*
X336280D01*
X335787Y45374D02*
Y46358D01*
X337795Y20866D02*
X338779D01*
X338287Y20374D02*
Y21358D01*
X335295Y15866D02*
X336280D01*
X335787Y15374D02*
Y16358D01*
X330295Y105866D02*
X331279D01*
X330787Y105374D02*
Y106358D01*
X330295Y95866D02*
X331279D01*
X330787Y95374D02*
Y96358D01*
X332795Y90866D02*
X333780D01*
X333287Y90374D02*
Y91358D01*
X330295Y85866D02*
X331279D01*
X330787Y85374D02*
Y86358D01*
X332795Y80866D02*
X333780D01*
X333287Y80374D02*
Y81358D01*
X330295Y75866D02*
X331279D01*
X330787Y75374D02*
Y76358D01*
X330295Y5866D02*
X331279D01*
X330787Y5374D02*
Y6358D01*
X325295Y105866D02*
X326279D01*
X325787Y105374D02*
Y106358D01*
X327795Y90866D02*
X328780D01*
X328287Y90374D02*
Y91358D01*
X325295Y85866D02*
X326279D01*
X325787Y85374D02*
Y86358D01*
X327795Y80866D02*
X328780D01*
X328287Y80374D02*
Y81358D01*
X327795Y10866D02*
X328780D01*
X328287Y10374D02*
Y11358D01*
X325295Y5866D02*
X326279D01*
X325787Y5374D02*
Y6358D01*
X322795Y120866D02*
X323780D01*
X323287Y120374D02*
Y121358D01*
X320295Y115866D02*
X321280D01*
X320787Y115374D02*
Y116358D01*
X322795Y110866D02*
X323780D01*
X323287Y110374D02*
Y111358D01*
X320295Y65866D02*
X321280D01*
X320787Y65374D02*
Y66358D01*
X320295Y55866D02*
X321280D01*
X320787Y55374D02*
Y56358D01*
X320295Y45866D02*
X321280D01*
X320787Y45374D02*
Y46358D01*
X320295Y35866D02*
X321280D01*
X320787Y35374D02*
Y36358D01*
X320295Y15866D02*
X321280D01*
X320787Y15374D02*
Y16358D01*
X317795Y120866D02*
X318779D01*
X318287Y120374D02*
Y121358D01*
X315295Y115866D02*
X316280D01*
X315787Y115374D02*
Y116358D01*
X317795Y110866D02*
X318779D01*
X318287Y110374D02*
Y111358D01*
X315295Y65866D02*
X316280D01*
X315787Y65374D02*
Y66358D01*
X317795Y60866D02*
X318779D01*
X318287Y60374D02*
Y61358D01*
X315295Y55866D02*
X316280D01*
X315787Y55374D02*
Y56358D01*
X317795Y50866D02*
X318779D01*
X318287Y50374D02*
Y51358D01*
X315295Y45866D02*
X316280D01*
X315787Y45374D02*
Y46358D01*
X317795Y40866D02*
X318779D01*
X318287Y40374D02*
Y41358D01*
X315295Y35866D02*
X316280D01*
X315787Y35374D02*
Y36358D01*
X317795Y20866D02*
X318779D01*
X318287Y20374D02*
Y21358D01*
X315295Y15866D02*
X316280D01*
X315787Y15374D02*
Y16358D01*
X312795Y130866D02*
X313779D01*
X313287Y130374D02*
Y131358D01*
X310295Y115866D02*
X311280D01*
X310787Y115374D02*
Y116358D01*
X312795Y110866D02*
X313779D01*
X313287Y110374D02*
Y111358D01*
X310295Y105866D02*
X311280D01*
X310787Y105374D02*
Y106358D01*
X310295Y85866D02*
X311280D01*
X310787Y85374D02*
Y86358D01*
X310295Y75866D02*
X311280D01*
X310787Y75374D02*
Y76358D01*
X312795Y70866D02*
X313779D01*
X313287Y70374D02*
Y71358D01*
X310295Y65866D02*
X311280D01*
X310787Y65374D02*
Y66358D01*
X312795Y60866D02*
X313779D01*
X313287Y60374D02*
Y61358D01*
X310295Y55866D02*
X311280D01*
X310787Y55374D02*
Y56358D01*
X312795Y50866D02*
X313779D01*
X313287Y50374D02*
Y51358D01*
X310295Y45866D02*
X311280D01*
X310787Y45374D02*
Y46358D01*
X312795Y40866D02*
X313779D01*
X313287Y40374D02*
Y41358D01*
X310295Y35866D02*
X311280D01*
X310787Y35374D02*
Y36358D01*
X310295Y25866D02*
X311280D01*
X310787Y25374D02*
Y26358D01*
X312795Y20866D02*
X313779D01*
X313287Y20374D02*
Y21358D01*
X310295Y15866D02*
X311280D01*
X310787Y15374D02*
Y16358D01*
X310295Y5866D02*
X311280D01*
X310787Y5374D02*
Y6358D01*
X307795Y130866D02*
X308780D01*
X308287Y130374D02*
Y131358D01*
X305295Y125866D02*
X306279D01*
X305787Y125374D02*
Y126358D01*
X305295Y115866D02*
X306279D01*
X305787Y115374D02*
Y116358D01*
X307795Y110866D02*
X308780D01*
X308287Y110374D02*
Y111358D01*
X305295Y65866D02*
X306279D01*
X305787Y65374D02*
Y66358D01*
X307795Y60866D02*
X308780D01*
X308287Y60374D02*
Y61358D01*
X305295Y55866D02*
X306279D01*
X305787Y55374D02*
Y56358D01*
X307795Y50866D02*
X308780D01*
X308287Y50374D02*
Y51358D01*
X305295Y45866D02*
X306279D01*
X305787Y45374D02*
Y46358D01*
X307795Y40866D02*
X308780D01*
X308287Y40374D02*
Y41358D01*
X305295Y35866D02*
X306279D01*
X305787Y35374D02*
Y36358D01*
X307795Y30866D02*
X308780D01*
X308287Y30374D02*
Y31358D01*
X305295Y25866D02*
X306279D01*
X305787Y25374D02*
Y26358D01*
X307795Y20866D02*
X308780D01*
X308287Y20374D02*
Y21358D01*
X305295Y15866D02*
X306279D01*
X305787Y15374D02*
Y16358D01*
X307795Y10866D02*
X308780D01*
X308287Y10374D02*
Y11358D01*
X305295Y5866D02*
X306279D01*
X305787Y5374D02*
Y6358D01*
X302795Y130866D02*
X303780D01*
X303287Y130374D02*
Y131358D01*
X300295Y125866D02*
X301279D01*
X300787Y125374D02*
Y126358D01*
X300295Y115866D02*
X301279D01*
X300787Y115374D02*
Y116358D01*
X302795Y110866D02*
X303780D01*
X303287Y110374D02*
Y111358D01*
X300295Y65866D02*
X301279D01*
X300787Y65374D02*
Y66358D01*
X302795Y60866D02*
X303780D01*
X303287Y60374D02*
Y61358D01*
X300295Y55866D02*
X301279D01*
X300787Y55374D02*
Y56358D01*
X302795Y50866D02*
X303780D01*
X303287Y50374D02*
Y51358D01*
X300295Y45866D02*
X301279D01*
X300787Y45374D02*
Y46358D01*
X302795Y40866D02*
X303780D01*
X303287Y40374D02*
Y41358D01*
X300295Y35866D02*
X301279D01*
X300787Y35374D02*
Y36358D01*
X302795Y30866D02*
X303780D01*
X303287Y30374D02*
Y31358D01*
X300295Y25866D02*
X301279D01*
X300787Y25374D02*
Y26358D01*
X302795Y20866D02*
X303780D01*
X303287Y20374D02*
Y21358D01*
X300295Y15866D02*
X301279D01*
X300787Y15374D02*
Y16358D01*
X302795Y10866D02*
X303780D01*
X303287Y10374D02*
Y11358D01*
X300295Y5866D02*
X301279D01*
X300787Y5374D02*
Y6358D01*
X295295Y85866D02*
X296280D01*
X295787Y85374D02*
Y86358D01*
X295295Y55866D02*
X296280D01*
X295787Y55374D02*
Y56358D01*
X297795Y50866D02*
X298780D01*
X298287Y50374D02*
Y51358D01*
X295295Y45866D02*
X296280D01*
X295787Y45374D02*
Y46358D01*
X297795Y40866D02*
X298780D01*
X298287Y40374D02*
Y41358D01*
X295295Y35866D02*
X296280D01*
X295787Y35374D02*
Y36358D01*
X297795Y30866D02*
X298780D01*
X298287Y30374D02*
Y31358D01*
X295295Y25866D02*
X296280D01*
X295787Y25374D02*
Y26358D01*
X297795Y20866D02*
X298780D01*
X298287Y20374D02*
Y21358D01*
X295295Y15866D02*
X296280D01*
X295787Y15374D02*
Y16358D01*
X297795Y10866D02*
X298780D01*
X298287Y10374D02*
Y11358D01*
X295295Y5866D02*
X296280D01*
X295787Y5374D02*
Y6358D01*
X292795Y130866D02*
X293779D01*
X293287Y130374D02*
Y131358D01*
X292795Y100866D02*
X293779D01*
X293287Y100374D02*
Y101358D01*
X292795Y90866D02*
X293779D01*
X293287Y90374D02*
Y91358D01*
X290295Y85866D02*
X291280D01*
X290787Y85374D02*
Y86358D01*
X292795Y80866D02*
X293779D01*
X293287Y80374D02*
Y81358D01*
X290295Y75866D02*
X291280D01*
X290787Y75374D02*
Y76358D01*
X290295Y55866D02*
X291280D01*
X290787Y55374D02*
Y56358D01*
X292795Y50866D02*
X293779D01*
X293287Y50374D02*
Y51358D01*
X290295Y45866D02*
X291280D01*
X290787Y45374D02*
Y46358D01*
X292795Y40866D02*
X293779D01*
X293287Y40374D02*
Y41358D01*
X290295Y35866D02*
X291280D01*
X290787Y35374D02*
Y36358D01*
X292795Y30866D02*
X293779D01*
X293287Y30374D02*
Y31358D01*
X290295Y25866D02*
X291280D01*
X290787Y25374D02*
Y26358D01*
X292795Y20866D02*
X293779D01*
X293287Y20374D02*
Y21358D01*
X290295Y15866D02*
X291280D01*
X290787Y15374D02*
Y16358D01*
X292795Y10866D02*
X293779D01*
X293287Y10374D02*
Y11358D01*
X290295Y5866D02*
X291280D01*
X290787Y5374D02*
Y6358D01*
X287795Y100866D02*
X288779D01*
X288287Y100374D02*
Y101358D01*
X287795Y90866D02*
X288779D01*
X288287Y90374D02*
Y91358D01*
X285295Y85866D02*
X286280D01*
X285787Y85374D02*
Y86358D01*
X287795Y80866D02*
X288779D01*
X288287Y80374D02*
Y81358D01*
X285295Y75866D02*
X286280D01*
X285787Y75374D02*
Y76358D01*
X285295Y55866D02*
X286280D01*
X285787Y55374D02*
Y56358D01*
X287795Y50866D02*
X288779D01*
X288287Y50374D02*
Y51358D01*
X285295Y45866D02*
X286280D01*
X285787Y45374D02*
Y46358D01*
X287795Y40866D02*
X288779D01*
X288287Y40374D02*
Y41358D01*
X285295Y35866D02*
X286280D01*
X285787Y35374D02*
Y36358D01*
X287795Y30866D02*
X288779D01*
X288287Y30374D02*
Y31358D01*
X285295Y25866D02*
X286280D01*
X285787Y25374D02*
Y26358D01*
X287795Y20866D02*
X288779D01*
X288287Y20374D02*
Y21358D01*
X285295Y15866D02*
X286280D01*
X285787Y15374D02*
Y16358D01*
X287795Y10866D02*
X288779D01*
X288287Y10374D02*
Y11358D01*
X285295Y5866D02*
X286280D01*
X285787Y5374D02*
Y6358D01*
X282795Y130866D02*
X283780D01*
X283287Y130374D02*
Y131358D01*
X282795Y100866D02*
X283780D01*
X283287Y100374D02*
Y101358D01*
X282795Y90866D02*
X283780D01*
X283287Y90374D02*
Y91358D01*
X280295Y85866D02*
X281279D01*
X280787Y85374D02*
Y86358D01*
X282795Y80866D02*
X283780D01*
X283287Y80374D02*
Y81358D01*
X280295Y75866D02*
X281279D01*
X280787Y75374D02*
Y76358D01*
X280295Y55866D02*
X281279D01*
X280787Y55374D02*
Y56358D01*
X282795Y50866D02*
X283780D01*
X283287Y50374D02*
Y51358D01*
X280295Y45866D02*
X281279D01*
X280787Y45374D02*
Y46358D01*
X282795Y40866D02*
X283780D01*
X283287Y40374D02*
Y41358D01*
X280295Y35866D02*
X281279D01*
X280787Y35374D02*
Y36358D01*
X282795Y30866D02*
X283780D01*
X283287Y30374D02*
Y31358D01*
X282795Y20866D02*
X283780D01*
X283287Y20374D02*
Y21358D01*
X280295Y15866D02*
X281279D01*
X280787Y15374D02*
Y16358D01*
X282795Y10866D02*
X283780D01*
X283287Y10374D02*
Y11358D01*
X275295Y125866D02*
X276279D01*
X275787Y125374D02*
Y126358D01*
X277795Y100866D02*
X278780D01*
X278287Y100374D02*
Y101358D01*
X277795Y90866D02*
X278780D01*
X278287Y90374D02*
Y91358D01*
X277795Y80866D02*
X278780D01*
X278287Y80374D02*
Y81358D01*
X275295Y55866D02*
X276279D01*
X275787Y55374D02*
Y56358D01*
X277795Y50866D02*
X278780D01*
X278287Y50374D02*
Y51358D01*
X275295Y45866D02*
X276279D01*
X275787Y45374D02*
Y46358D01*
X277795Y40866D02*
X278780D01*
X278287Y40374D02*
Y41358D01*
X275295Y35866D02*
X276279D01*
X275787Y35374D02*
Y36358D01*
X277795Y20866D02*
X278780D01*
X278287Y20374D02*
Y21358D01*
X275295Y15866D02*
X276279D01*
X275787Y15374D02*
Y16358D01*
X272795Y130866D02*
X273780D01*
X273287Y130374D02*
Y131358D01*
X270295Y125866D02*
X271280D01*
X270787Y125374D02*
Y126358D01*
X270295Y85866D02*
X271280D01*
X270787Y85374D02*
Y86358D01*
X272795Y20866D02*
X273780D01*
X273287Y20374D02*
Y21358D01*
X267795Y100866D02*
X268779D01*
X268287Y100374D02*
Y101358D01*
X267795Y90866D02*
X268779D01*
X268287Y90374D02*
Y91358D01*
X265295Y85866D02*
X266280D01*
X265787Y85374D02*
Y86358D01*
X267795Y80866D02*
X268779D01*
X268287Y80374D02*
Y81358D01*
X267795Y10866D02*
X268779D01*
X268287Y10374D02*
Y11358D01*
X265295Y5866D02*
X266280D01*
X265787Y5374D02*
Y6358D01*
X262795Y130866D02*
X263779D01*
X263287Y130374D02*
Y131358D01*
X262795Y120866D02*
X263779D01*
X263287Y120374D02*
Y121358D01*
X260295Y115866D02*
X261280D01*
X260787Y115374D02*
Y116358D01*
X262795Y100866D02*
X263779D01*
X263287Y100374D02*
Y101358D01*
X262795Y90866D02*
X263779D01*
X263287Y90374D02*
Y91358D01*
X262795Y80866D02*
X263779D01*
X263287Y80374D02*
Y81358D01*
X262795Y10866D02*
X263779D01*
X263287Y10374D02*
Y11358D01*
X255295Y125866D02*
X256279D01*
X255787Y125374D02*
Y126358D01*
X257795Y120866D02*
X258780D01*
X258287Y120374D02*
Y121358D01*
X255295Y115866D02*
X256279D01*
X255787Y115374D02*
Y116358D01*
X257795Y110866D02*
X258780D01*
X258287Y110374D02*
Y111358D01*
X255295Y65866D02*
X256279D01*
X255787Y65374D02*
Y66358D01*
X257795Y60866D02*
X258780D01*
X258287Y60374D02*
Y61358D01*
X255295Y55866D02*
X256279D01*
X255787Y55374D02*
Y56358D01*
X257795Y50866D02*
X258780D01*
X258287Y50374D02*
Y51358D01*
X255295Y45866D02*
X256279D01*
X255787Y45374D02*
Y46358D01*
X257795Y40866D02*
X258780D01*
X258287Y40374D02*
Y41358D01*
X255295Y35866D02*
X256279D01*
X255787Y35374D02*
Y36358D01*
X257795Y20866D02*
X258780D01*
X258287Y20374D02*
Y21358D01*
X255295Y15866D02*
X256279D01*
X255787Y15374D02*
Y16358D01*
X252795Y130866D02*
X253780D01*
X253287Y130374D02*
Y131358D01*
X250295Y125866D02*
X251279D01*
X250787Y125374D02*
Y126358D01*
X252795Y120866D02*
X253780D01*
X253287Y120374D02*
Y121358D01*
X250295Y115866D02*
X251279D01*
X250787Y115374D02*
Y116358D01*
X252795Y110866D02*
X253780D01*
X253287Y110374D02*
Y111358D01*
X250295Y65866D02*
X251279D01*
X250787Y65374D02*
Y66358D01*
X252795Y60866D02*
X253780D01*
X253287Y60374D02*
Y61358D01*
X250295Y55866D02*
X251279D01*
X250787Y55374D02*
Y56358D01*
X252795Y50866D02*
X253780D01*
X253287Y50374D02*
Y51358D01*
X250295Y45866D02*
X251279D01*
X250787Y45374D02*
Y46358D01*
X252795Y40866D02*
X253780D01*
X253287Y40374D02*
Y41358D01*
X250295Y35866D02*
X251279D01*
X250787Y35374D02*
Y36358D01*
X252795Y20866D02*
X253780D01*
X253287Y20374D02*
Y21358D01*
X250295Y15866D02*
X251279D01*
X250787Y15374D02*
Y16358D01*
X245295Y125866D02*
X246280D01*
X245787Y125374D02*
Y126358D01*
X247795Y120866D02*
X248780D01*
X248287Y120374D02*
Y121358D01*
X245295Y115866D02*
X246280D01*
X245787Y115374D02*
Y116358D01*
X247795Y90866D02*
X248780D01*
X248287Y90374D02*
Y91358D01*
X245295Y85866D02*
X246280D01*
X245787Y85374D02*
Y86358D01*
X247795Y80866D02*
X248780D01*
X248287Y80374D02*
Y81358D01*
X245295Y75866D02*
X246280D01*
X245787Y75374D02*
Y76358D01*
X247795Y70866D02*
X248780D01*
X248287Y70374D02*
Y71358D01*
X245295Y65866D02*
X246280D01*
X245787Y65374D02*
Y66358D01*
X247795Y60866D02*
X248780D01*
X248287Y60374D02*
Y61358D01*
X245295Y55866D02*
X246280D01*
X245787Y55374D02*
Y56358D01*
X247795Y50866D02*
X248780D01*
X248287Y50374D02*
Y51358D01*
X245295Y45866D02*
X246280D01*
X245787Y45374D02*
Y46358D01*
X247795Y40866D02*
X248780D01*
X248287Y40374D02*
Y41358D01*
X245295Y35866D02*
X246280D01*
X245787Y35374D02*
Y36358D01*
X247795Y30866D02*
X248780D01*
X248287Y30374D02*
Y31358D01*
X245295Y25866D02*
X246280D01*
X245787Y25374D02*
Y26358D01*
X247795Y20866D02*
X248780D01*
X248287Y20374D02*
Y21358D01*
X245295Y15866D02*
X246280D01*
X245787Y15374D02*
Y16358D01*
X247795Y10866D02*
X248780D01*
X248287Y10374D02*
Y11358D01*
X245295Y5866D02*
X246280D01*
X245787Y5374D02*
Y6358D01*
X242795Y130866D02*
X243779D01*
X243287Y130374D02*
Y131358D01*
X240295Y125866D02*
X241280D01*
X240787Y125374D02*
Y126358D01*
X242795Y120866D02*
X243779D01*
X243287Y120374D02*
Y121358D01*
X240295Y115866D02*
X241280D01*
X240787Y115374D02*
Y116358D01*
X240295Y95866D02*
X241280D01*
X240787Y95374D02*
Y96358D01*
X242795Y90866D02*
X243779D01*
X243287Y90374D02*
Y91358D01*
X240295Y85866D02*
X241280D01*
X240787Y85374D02*
Y86358D01*
X242795Y80866D02*
X243779D01*
X243287Y80374D02*
Y81358D01*
X240295Y75866D02*
X241280D01*
X240787Y75374D02*
Y76358D01*
X242795Y70866D02*
X243779D01*
X243287Y70374D02*
Y71358D01*
X240295Y65866D02*
X241280D01*
X240787Y65374D02*
Y66358D01*
X242795Y60866D02*
X243779D01*
X243287Y60374D02*
Y61358D01*
X240295Y55866D02*
X241280D01*
X240787Y55374D02*
Y56358D01*
X242795Y50866D02*
X243779D01*
X243287Y50374D02*
Y51358D01*
X240295Y45866D02*
X241280D01*
X240787Y45374D02*
Y46358D01*
X242795Y40866D02*
X243779D01*
X243287Y40374D02*
Y41358D01*
X240295Y35866D02*
X241280D01*
X240787Y35374D02*
Y36358D01*
X242795Y30866D02*
X243779D01*
X243287Y30374D02*
Y31358D01*
X242795Y20866D02*
X243779D01*
X243287Y20374D02*
Y21358D01*
X240295Y15866D02*
X241280D01*
X240787Y15374D02*
Y16358D01*
X242795Y10866D02*
X243779D01*
X243287Y10374D02*
Y11358D01*
X237795Y130866D02*
X238779D01*
X238287Y130374D02*
Y131358D01*
X235295Y125866D02*
X236280D01*
X235787Y125374D02*
Y126358D01*
X237795Y120866D02*
X238779D01*
X238287Y120374D02*
Y121358D01*
X235295Y115866D02*
X236280D01*
X235787Y115374D02*
Y116358D01*
X235295Y95866D02*
X236280D01*
X235787Y95374D02*
Y96358D01*
X237795Y90866D02*
X238779D01*
X238287Y90374D02*
Y91358D01*
X235295Y85866D02*
X236280D01*
X235787Y85374D02*
Y86358D01*
X237795Y80866D02*
X238779D01*
X238287Y80374D02*
Y81358D01*
X235295Y75866D02*
X236280D01*
X235787Y75374D02*
Y76358D01*
X237795Y70866D02*
X238779D01*
X238287Y70374D02*
Y71358D01*
X235295Y65866D02*
X236280D01*
X235787Y65374D02*
Y66358D01*
X237795Y60866D02*
X238779D01*
X238287Y60374D02*
Y61358D01*
X235295Y55866D02*
X236280D01*
X235787Y55374D02*
Y56358D01*
X237795Y50866D02*
X238779D01*
X238287Y50374D02*
Y51358D01*
X235295Y45866D02*
X236280D01*
X235787Y45374D02*
Y46358D01*
X237795Y40866D02*
X238779D01*
X238287Y40374D02*
Y41358D01*
X235295Y35866D02*
X236280D01*
X235787Y35374D02*
Y36358D01*
X237795Y20866D02*
X238779D01*
X238287Y20374D02*
Y21358D01*
X235295Y15866D02*
X236280D01*
X235787Y15374D02*
Y16358D01*
X232795Y130866D02*
X233780D01*
X233287Y130374D02*
Y131358D01*
X230295Y125866D02*
X231279D01*
X230787Y125374D02*
Y126358D01*
X232795Y120866D02*
X233780D01*
X233287Y120374D02*
Y121358D01*
X230295Y115866D02*
X231279D01*
X230787Y115374D02*
Y116358D01*
X230295Y95866D02*
X231279D01*
X230787Y95374D02*
Y96358D01*
X232795Y90866D02*
X233780D01*
X233287Y90374D02*
Y91358D01*
X230295Y85866D02*
X231279D01*
X230787Y85374D02*
Y86358D01*
X232795Y80866D02*
X233780D01*
X233287Y80374D02*
Y81358D01*
X230295Y75866D02*
X231279D01*
X230787Y75374D02*
Y76358D01*
X232795Y70866D02*
X233780D01*
X233287Y70374D02*
Y71358D01*
X230295Y65866D02*
X231279D01*
X230787Y65374D02*
Y66358D01*
X232795Y60866D02*
X233780D01*
X233287Y60374D02*
Y61358D01*
X230295Y55866D02*
X231279D01*
X230787Y55374D02*
Y56358D01*
X232795Y50866D02*
X233780D01*
X233287Y50374D02*
Y51358D01*
X230295Y45866D02*
X231279D01*
X230787Y45374D02*
Y46358D01*
X232795Y40866D02*
X233780D01*
X233287Y40374D02*
Y41358D01*
X230295Y35866D02*
X231279D01*
X230787Y35374D02*
Y36358D01*
X227795Y130866D02*
X228780D01*
X228287Y130374D02*
Y131358D01*
X225295Y125866D02*
X226279D01*
X225787Y125374D02*
Y126358D01*
X227795Y120866D02*
X228780D01*
X228287Y120374D02*
Y121358D01*
X225295Y115866D02*
X226279D01*
X225787Y115374D02*
Y116358D01*
X225295Y95866D02*
X226279D01*
X225787Y95374D02*
Y96358D01*
X227795Y90866D02*
X228780D01*
X228287Y90374D02*
Y91358D01*
X225295Y85866D02*
X226279D01*
X225787Y85374D02*
Y86358D01*
X227795Y80866D02*
X228780D01*
X228287Y80374D02*
Y81358D01*
X225295Y75866D02*
X226279D01*
X225787Y75374D02*
Y76358D01*
X227795Y70866D02*
X228780D01*
X228287Y70374D02*
Y71358D01*
X225295Y65866D02*
X226279D01*
X225787Y65374D02*
Y66358D01*
X227795Y60866D02*
X228780D01*
X228287Y60374D02*
Y61358D01*
X227795Y10866D02*
X228780D01*
X228287Y10374D02*
Y11358D01*
X225295Y5866D02*
X226279D01*
X225787Y5374D02*
Y6358D01*
X222795Y130866D02*
X223780D01*
X223287Y130374D02*
Y131358D01*
X220295Y125866D02*
X221280D01*
X220787Y125374D02*
Y126358D01*
X222795Y120866D02*
X223780D01*
X223287Y120374D02*
Y121358D01*
X220295Y115866D02*
X221280D01*
X220787Y115374D02*
Y116358D01*
X220295Y95866D02*
X221280D01*
X220787Y95374D02*
Y96358D01*
X222795Y90866D02*
X223780D01*
X223287Y90374D02*
Y91358D01*
X222795Y80866D02*
X223780D01*
X223287Y80374D02*
Y81358D01*
X220295Y75866D02*
X221280D01*
X220787Y75374D02*
Y76358D01*
X222795Y70866D02*
X223780D01*
X223287Y70374D02*
Y71358D01*
X220295Y45866D02*
X221280D01*
X220787Y45374D02*
Y46358D01*
X222795Y10866D02*
X223780D01*
X223287Y10374D02*
Y11358D01*
X217795Y130866D02*
X218779D01*
X218287Y130374D02*
Y131358D01*
X215295Y125866D02*
X216280D01*
X215787Y125374D02*
Y126358D01*
X217795Y120866D02*
X218779D01*
X218287Y120374D02*
Y121358D01*
X215295Y115866D02*
X216280D01*
X215787Y115374D02*
Y116358D01*
X215295Y95866D02*
X216280D01*
X215787Y95374D02*
Y96358D01*
X215295Y75866D02*
X216280D01*
X215787Y75374D02*
Y76358D01*
X217795Y20866D02*
X218779D01*
X218287Y20374D02*
Y21358D01*
X215295Y15866D02*
X216280D01*
X215787Y15374D02*
Y16358D01*
X212795Y130866D02*
X213779D01*
X213287Y130374D02*
Y131358D01*
X210295Y125866D02*
X211280D01*
X210787Y125374D02*
Y126358D01*
X212795Y120866D02*
X213779D01*
X213287Y120374D02*
Y121358D01*
X210295Y115866D02*
X211280D01*
X210787Y115374D02*
Y116358D01*
X210295Y95866D02*
X211280D01*
X210787Y95374D02*
Y96358D01*
X212795Y80866D02*
X213779D01*
X213287Y80374D02*
Y81358D01*
X212795Y60866D02*
X213779D01*
X213287Y60374D02*
Y61358D01*
X212795Y20866D02*
X213779D01*
X213287Y20374D02*
Y21358D01*
X210295Y15866D02*
X211280D01*
X210787Y15374D02*
Y16358D01*
X207795Y130866D02*
X208780D01*
X208287Y130374D02*
Y131358D01*
X205295Y125866D02*
X206279D01*
X205787Y125374D02*
Y126358D01*
X207795Y120866D02*
X208780D01*
X208287Y120374D02*
Y121358D01*
X205295Y115866D02*
X206279D01*
X205787Y115374D02*
Y116358D01*
X205295Y95866D02*
X206279D01*
X205787Y95374D02*
Y96358D01*
X207795Y90866D02*
X208780D01*
X208287Y90374D02*
Y91358D01*
X205295Y85866D02*
X206279D01*
X205787Y85374D02*
Y86358D01*
X207795Y30866D02*
X208780D01*
X208287Y30374D02*
Y31358D01*
X205295Y25866D02*
X206279D01*
X205787Y25374D02*
Y26358D01*
X207795Y20866D02*
X208780D01*
X208287Y20374D02*
Y21358D01*
X205295Y15866D02*
X206279D01*
X205787Y15374D02*
Y16358D01*
X207795Y10866D02*
X208780D01*
X208287Y10374D02*
Y11358D01*
X205295Y5866D02*
X206279D01*
X205787Y5374D02*
Y6358D01*
X202795Y130866D02*
X203780D01*
X203287Y130374D02*
Y131358D01*
X200295Y125866D02*
X201279D01*
X200787Y125374D02*
Y126358D01*
X202795Y120866D02*
X203780D01*
X203287Y120374D02*
Y121358D01*
X200295Y115866D02*
X201279D01*
X200787Y115374D02*
Y116358D01*
X200295Y95866D02*
X201279D01*
X200787Y95374D02*
Y96358D01*
X202795Y90866D02*
X203780D01*
X203287Y90374D02*
Y91358D01*
X200295Y55866D02*
X201279D01*
X200787Y55374D02*
Y56358D01*
X202795Y30866D02*
X203780D01*
X203287Y30374D02*
Y31358D01*
X202795Y20866D02*
X203780D01*
X203287Y20374D02*
Y21358D01*
X200295Y15866D02*
X201279D01*
X200787Y15374D02*
Y16358D01*
X202795Y10866D02*
X203780D01*
X203287Y10374D02*
Y11358D01*
X197795Y130866D02*
X198779D01*
X198287Y130374D02*
Y131358D01*
X195295Y125866D02*
X196280D01*
X195787Y125374D02*
Y126358D01*
X197795Y120866D02*
X198779D01*
X198287Y120374D02*
Y121358D01*
X195295Y115866D02*
X196280D01*
X195787Y115374D02*
Y116358D01*
X195295Y95866D02*
X196280D01*
X195787Y95374D02*
Y96358D01*
X195295Y75866D02*
X196280D01*
X195787Y75374D02*
Y76358D01*
X197795Y20866D02*
X198779D01*
X198287Y20374D02*
Y21358D01*
X195295Y15866D02*
X196280D01*
X195787Y15374D02*
Y16358D01*
X192795Y130866D02*
X193780D01*
X193287Y130374D02*
Y131358D01*
X190295Y125866D02*
X191279D01*
X190787Y125374D02*
Y126358D01*
X192795Y120866D02*
X193780D01*
X193287Y120374D02*
Y121358D01*
X190295Y115866D02*
X191279D01*
X190787Y115374D02*
Y116358D01*
X190295Y95866D02*
X191279D01*
X190787Y95374D02*
Y96358D01*
X192795Y80866D02*
X193780D01*
X193287Y80374D02*
Y81358D01*
X190295Y75866D02*
X191279D01*
X190787Y75374D02*
Y76358D01*
X192795Y60866D02*
X193780D01*
X193287Y60374D02*
Y61358D01*
X192795Y20866D02*
X193780D01*
X193287Y20374D02*
Y21358D01*
X187795Y130866D02*
X188779D01*
X188287Y130374D02*
Y131358D01*
X185295Y125866D02*
X186279D01*
X185787Y125374D02*
Y126358D01*
X187795Y120866D02*
X188779D01*
X188287Y120374D02*
Y121358D01*
X185295Y115866D02*
X186279D01*
X185787Y115374D02*
Y116358D01*
X185295Y95866D02*
X186279D01*
X185787Y95374D02*
Y96358D01*
X187795Y90866D02*
X188779D01*
X188287Y90374D02*
Y91358D01*
X185295Y85866D02*
X186279D01*
X185787Y85374D02*
Y86358D01*
X187795Y80866D02*
X188779D01*
X188287Y80374D02*
Y81358D01*
X185295Y75866D02*
X186279D01*
X185787Y75374D02*
Y76358D01*
X187795Y70866D02*
X188779D01*
X188287Y70374D02*
Y71358D01*
X185295Y65866D02*
X186279D01*
X185787Y65374D02*
Y66358D01*
X185295Y45866D02*
X186279D01*
X185787Y45374D02*
Y46358D01*
X187795Y10866D02*
X188779D01*
X188287Y10374D02*
Y11358D01*
X185295Y5866D02*
X186279D01*
X185787Y5374D02*
Y6358D01*
X182795Y130866D02*
X183780D01*
X183287Y130374D02*
Y131358D01*
X180295Y125866D02*
X181280D01*
X180787Y125374D02*
Y126358D01*
X182795Y120866D02*
X183780D01*
X183287Y120374D02*
Y121358D01*
X180295Y115866D02*
X181280D01*
X180787Y115374D02*
Y116358D01*
X180295Y95866D02*
X181280D01*
X180787Y95374D02*
Y96358D01*
X182795Y90866D02*
X183780D01*
X183287Y90374D02*
Y91358D01*
X180295Y85866D02*
X181280D01*
X180787Y85374D02*
Y86358D01*
X182795Y80866D02*
X183780D01*
X183287Y80374D02*
Y81358D01*
X180295Y75866D02*
X181280D01*
X180787Y75374D02*
Y76358D01*
X182795Y70866D02*
X183780D01*
X183287Y70374D02*
Y71358D01*
X180295Y65866D02*
X181280D01*
X180787Y65374D02*
Y66358D01*
X182795Y60866D02*
X183780D01*
X183287Y60374D02*
Y61358D01*
X180295Y55866D02*
X181280D01*
X180787Y55374D02*
Y56358D01*
X180295Y45866D02*
X181280D01*
X180787Y45374D02*
Y46358D01*
X182795Y10866D02*
X183780D01*
X183287Y10374D02*
Y11358D01*
X177795Y130866D02*
X178779D01*
X178287Y130374D02*
Y131358D01*
X177795Y120866D02*
X178779D01*
X178287Y120374D02*
Y121358D01*
X177795Y90866D02*
X178779D01*
X178287Y90374D02*
Y91358D01*
X177795Y80866D02*
X178779D01*
X178287Y80374D02*
Y81358D01*
X177795Y70866D02*
X178779D01*
X178287Y70374D02*
Y71358D01*
X177795Y60866D02*
X178779D01*
X178287Y60374D02*
Y61358D01*
X175295Y45866D02*
X176279D01*
X175787Y45374D02*
Y46358D01*
X177795Y40866D02*
X178779D01*
X178287Y40374D02*
Y41358D01*
X177795Y20866D02*
X178779D01*
X178287Y20374D02*
Y21358D01*
X175295Y15866D02*
X176279D01*
X175787Y15374D02*
Y16358D01*
X170295Y125866D02*
X171280D01*
X170787Y125374D02*
Y126358D01*
X170295Y95866D02*
X171280D01*
X170787Y95374D02*
Y96358D01*
X170295Y85866D02*
X171280D01*
X170787Y85374D02*
Y86358D01*
X170295Y75866D02*
X171280D01*
X170787Y75374D02*
Y76358D01*
X170295Y65866D02*
X171280D01*
X170787Y65374D02*
Y66358D01*
X170295Y55866D02*
X171280D01*
X170787Y55374D02*
Y56358D01*
X170295Y35866D02*
X171280D01*
X170787Y35374D02*
Y36358D01*
X172795Y20866D02*
X173779D01*
X173287Y20374D02*
Y21358D01*
X170295Y15866D02*
X171280D01*
X170787Y15374D02*
Y16358D01*
X167795Y130866D02*
X168780D01*
X168287Y130374D02*
Y131358D01*
X165295Y125866D02*
X166279D01*
X165787Y125374D02*
Y126358D01*
X167795Y120866D02*
X168780D01*
X168287Y120374D02*
Y121358D01*
X165295Y95866D02*
X166279D01*
X165787Y95374D02*
Y96358D01*
X167795Y90866D02*
X168780D01*
X168287Y90374D02*
Y91358D01*
X165295Y85866D02*
X166279D01*
X165787Y85374D02*
Y86358D01*
X167795Y80866D02*
X168780D01*
X168287Y80374D02*
Y81358D01*
X165295Y75866D02*
X166279D01*
X165787Y75374D02*
Y76358D01*
X167795Y70866D02*
X168780D01*
X168287Y70374D02*
Y71358D01*
X165295Y65866D02*
X166279D01*
X165787Y65374D02*
Y66358D01*
X167795Y60866D02*
X168780D01*
X168287Y60374D02*
Y61358D01*
X165295Y55866D02*
X166279D01*
X165787Y55374D02*
Y56358D01*
X167795Y50866D02*
X168780D01*
X168287Y50374D02*
Y51358D01*
X167795Y40866D02*
X168780D01*
X168287Y40374D02*
Y41358D01*
X165295Y35866D02*
X166279D01*
X165787Y35374D02*
Y36358D01*
X167795Y30866D02*
X168780D01*
X168287Y30374D02*
Y31358D01*
X165295Y25866D02*
X166279D01*
X165787Y25374D02*
Y26358D01*
X167795Y20866D02*
X168780D01*
X168287Y20374D02*
Y21358D01*
X165295Y15866D02*
X166279D01*
X165787Y15374D02*
Y16358D01*
X167795Y10866D02*
X168780D01*
X168287Y10374D02*
Y11358D01*
X165295Y5866D02*
X166279D01*
X165787Y5374D02*
Y6358D01*
X162795Y130866D02*
X163779D01*
X163287Y130374D02*
Y131358D01*
X160295Y95866D02*
X161279D01*
X160787Y95374D02*
Y96358D01*
X162795Y90866D02*
X163779D01*
X163287Y90374D02*
Y91358D01*
X160295Y85866D02*
X161279D01*
X160787Y85374D02*
Y86358D01*
X162795Y80866D02*
X163779D01*
X163287Y80374D02*
Y81358D01*
X160295Y75866D02*
X161279D01*
X160787Y75374D02*
Y76358D01*
X162795Y70866D02*
X163779D01*
X163287Y70374D02*
Y71358D01*
X160295Y65866D02*
X161279D01*
X160787Y65374D02*
Y66358D01*
X162795Y60866D02*
X163779D01*
X163287Y60374D02*
Y61358D01*
X160295Y55866D02*
X161279D01*
X160787Y55374D02*
Y56358D01*
X160295Y45866D02*
X161279D01*
X160787Y45374D02*
Y46358D01*
X160295Y35866D02*
X161279D01*
X160787Y35374D02*
Y36358D01*
X162795Y30866D02*
X163779D01*
X163287Y30374D02*
Y31358D01*
X160295Y25866D02*
X161279D01*
X160787Y25374D02*
Y26358D01*
X162795Y20866D02*
X163779D01*
X163287Y20374D02*
Y21358D01*
X160295Y15866D02*
X161279D01*
X160787Y15374D02*
Y16358D01*
X162795Y10866D02*
X163779D01*
X163287Y10374D02*
Y11358D01*
X160295Y5866D02*
X161279D01*
X160787Y5374D02*
Y6358D01*
X161508Y50700D02*
X162492D01*
X162000Y50208D02*
Y51192D01*
X173008Y51900D02*
X173992D01*
X173500Y51408D02*
Y52392D01*
X167508Y181500D02*
X168492D01*
X168000Y181008D02*
Y181992D01*
X168110Y149213D02*
X169095D01*
X168602Y148721D02*
Y149705D01*
X168110Y161221D02*
X169095D01*
X168602Y160728D02*
Y161713D01*
X166975Y176532D02*
X167960D01*
X167468Y176039D02*
Y177024D01*
X164011Y204198D02*
X164995D01*
X164503Y203706D02*
Y204690D01*
X167159Y203803D02*
X168143D01*
X167651Y203311D02*
Y204295D01*
X166929Y242421D02*
X167913D01*
X167421Y241929D02*
Y242913D01*
X166831Y222835D02*
X167815D01*
X167323Y222342D02*
Y223327D01*
X166634Y226772D02*
X167618D01*
X167126Y226279D02*
Y227264D01*
X162221Y222720D02*
X163205D01*
X162713Y222228D02*
Y223212D01*
X160099Y207638D02*
X161083D01*
X160591Y207146D02*
Y208130D01*
X159941Y203642D02*
X160925D01*
X160433Y203150D02*
Y204134D01*
X159744Y210925D02*
X160728D01*
X160236Y210433D02*
Y211417D01*
X163484Y198835D02*
X164469D01*
X163976Y198343D02*
Y199327D01*
X165650Y195768D02*
X166634D01*
X166142Y195276D02*
Y196260D01*
X154608Y43000D02*
X155592D01*
X155100Y42508D02*
Y43492D01*
X135352Y49756D02*
X136336D01*
X135844Y49264D02*
Y50248D01*
X135108Y45100D02*
X136092D01*
X135600Y44608D02*
Y45592D01*
X192708Y289400D02*
X193692D01*
X193200Y288908D02*
Y289892D01*
X184007Y268799D02*
X184991D01*
X184499Y268307D02*
Y269291D01*
X214408Y46600D02*
X215392D01*
X214900Y46108D02*
Y47092D01*
X197675Y45700D02*
X198660D01*
X198168Y45208D02*
Y46192D01*
X60532Y274824D02*
X61516D01*
X61024Y274331D02*
Y275316D01*
X60532Y245476D02*
X61516D01*
X61024Y244984D02*
Y245969D01*
X142128Y108979D02*
X143113D01*
X142621Y108487D02*
Y109472D01*
X131298Y82109D02*
X132283D01*
X131791Y81617D02*
Y82602D01*
X337691Y271716D02*
X338676D01*
X338183Y271224D02*
Y272209D01*
X333760Y269291D02*
X334744D01*
X334252Y268799D02*
Y269783D01*
X362559Y174331D02*
X363543D01*
X363051Y173839D02*
Y174823D01*
X242708Y145700D02*
X243692D01*
X243200Y145208D02*
Y146192D01*
X238208Y165700D02*
X239192D01*
X238700Y165208D02*
Y166192D01*
X234008Y186700D02*
X234992D01*
X234500Y186208D02*
Y187192D01*
X237402Y186909D02*
X238386D01*
X237894Y186417D02*
Y187402D01*
X238708Y190500D02*
X239692D01*
X239200Y190008D02*
Y190992D01*
X238408Y210800D02*
X239392D01*
X238900Y210308D02*
Y211292D01*
X238108Y221700D02*
X239092D01*
X238600Y221208D02*
Y222192D01*
X237469Y234500D02*
X238453D01*
X237961Y234008D02*
Y234992D01*
X237208Y253900D02*
X238192D01*
X237700Y253408D02*
Y254392D01*
X238008Y283300D02*
X238992D01*
X238500Y282808D02*
Y283792D01*
X238108Y270600D02*
X239092D01*
X238600Y270108D02*
Y271092D01*
X237908Y275200D02*
X238892D01*
X238400Y274708D02*
Y275692D01*
X237966Y298742D02*
X238950D01*
X238458Y298250D02*
Y299234D01*
X242308Y307900D02*
X243292D01*
X242800Y307408D02*
Y308392D01*
X184308Y223900D02*
X185292D01*
X184800Y223408D02*
Y224392D01*
X217408Y206200D02*
X218392D01*
X217900Y205708D02*
Y206692D01*
X202122Y189315D02*
X203107D01*
X202615Y188822D02*
Y189807D01*
X274908Y74300D02*
X275892D01*
X275400Y73808D02*
Y74792D01*
X205173Y272324D02*
X206158D01*
X205666Y271832D02*
Y272816D01*
X200207Y270861D02*
X201191D01*
X200699Y270369D02*
Y271353D01*
X207608Y299800D02*
X208592D01*
X208100Y299308D02*
Y300292D01*
X207694Y275000D02*
X208678D01*
X208186Y274508D02*
Y275492D01*
X137892Y240748D02*
X138876D01*
X138384Y240256D02*
Y241240D01*
X132283Y155020D02*
X133268D01*
X132776Y154528D02*
Y155512D01*
X129134Y131496D02*
X130118D01*
X129626Y131004D02*
Y131988D01*
X129108Y142575D02*
X130092D01*
X129600Y142083D02*
Y143067D01*
X129215Y157307D02*
X130199D01*
X129707Y156815D02*
Y157799D01*
X94424Y157000D02*
X95408D01*
X94916Y156508D02*
Y157492D01*
X105092Y156500D02*
X106076D01*
X105584Y156008D02*
Y156992D01*
X103008Y95000D02*
X103992D01*
X103500Y94508D02*
Y95492D01*
X103008Y89000D02*
X103992D01*
X103500Y88508D02*
Y89492D01*
X335009Y287015D02*
X335993D01*
X335501Y286522D02*
Y287507D01*
X179528Y213984D02*
X180512D01*
X180020Y213492D02*
Y214476D01*
X159448Y221659D02*
X160432D01*
X159940Y221167D02*
Y222152D01*
X184508Y202516D02*
X185492D01*
X185000Y202024D02*
Y203008D01*
X324098Y185518D02*
X325082D01*
X324590Y185025D02*
Y186010D01*
X194543Y155654D02*
X195527D01*
X195035Y155162D02*
Y156147D01*
X298524Y155610D02*
X299508D01*
X299016Y155118D02*
Y156102D01*
X70277Y140075D02*
X71262D01*
X70769Y139583D02*
Y140567D01*
X114272Y115574D02*
X115256D01*
X114764Y115082D02*
Y116066D01*
X150022Y188484D02*
X151006D01*
X150514Y187992D02*
Y188976D01*
X101008Y185000D02*
X101992D01*
X101500Y184508D02*
Y185492D01*
X102522Y179015D02*
X103507D01*
X103015Y178522D02*
Y179507D01*
X94146Y177162D02*
X95130D01*
X94638Y176669D02*
Y177654D01*
X99508Y175000D02*
X100492D01*
X100000Y174508D02*
Y175492D01*
X97105Y177406D02*
X98089D01*
X97597Y176914D02*
Y177898D01*
X180118Y194984D02*
X181102D01*
X180610Y194492D02*
Y195476D01*
X213508Y205000D02*
X214492D01*
X214000Y204508D02*
Y205492D01*
X321008Y265012D02*
X321992D01*
X321500Y264520D02*
Y265504D01*
X114764Y277532D02*
X115748D01*
X115256Y277039D02*
Y278024D01*
X123508Y157000D02*
X124492D01*
X124000Y156508D02*
Y157492D01*
X120541Y157101D02*
X121525D01*
X121033Y156609D02*
Y157593D01*
X128508Y293500D02*
X129492D01*
X129000Y293008D02*
Y293992D01*
X136008Y293500D02*
X136992D01*
X136500Y293008D02*
Y293992D01*
X132008Y293500D02*
X132992D01*
X132500Y293008D02*
Y293992D01*
X224508Y322500D02*
X225492D01*
X225000Y322008D02*
Y322992D01*
X222008Y322500D02*
X222992D01*
X222500Y322008D02*
Y322992D01*
X219008Y322500D02*
X219992D01*
X219500Y322008D02*
Y322992D01*
X79508Y295000D02*
X80492D01*
X80000Y294508D02*
Y295492D01*
X79508Y297500D02*
X80492D01*
X80000Y297008D02*
Y297992D01*
X79508Y292500D02*
X80492D01*
X80000Y292008D02*
Y292992D01*
X39508Y333500D02*
X40492D01*
X40000Y333008D02*
Y333992D01*
X34008Y329500D02*
X34992D01*
X34500Y329008D02*
Y329992D01*
X45008Y329500D02*
X45992D01*
X45500Y329008D02*
Y329992D01*
X10008Y199500D02*
X10992D01*
X10500Y199008D02*
Y199992D01*
X5008Y199500D02*
X5992D01*
X5500Y199008D02*
Y199992D01*
X7508Y199500D02*
X8492D01*
X8000Y199008D02*
Y199992D01*
X5008Y159000D02*
X5992D01*
X5500Y158508D02*
Y159492D01*
X7508Y159000D02*
X8492D01*
X8000Y158508D02*
Y159492D01*
X5508Y139000D02*
X6492D01*
X6000Y138508D02*
Y139492D01*
X150508Y287500D02*
X151492D01*
X151000Y287008D02*
Y287992D01*
X150508Y285000D02*
X151492D01*
X151000Y284508D02*
Y285492D01*
X159508Y285000D02*
X160492D01*
X160000Y284508D02*
Y285492D01*
X180508Y302500D02*
X181492D01*
X181000Y302008D02*
Y302992D01*
X173721Y255542D02*
X174705D01*
X174213Y255050D02*
Y256034D01*
X202195Y172413D02*
X203179D01*
X202687Y171921D02*
Y172906D01*
X203820Y177382D02*
X204805D01*
X204312Y176890D02*
Y177874D01*
X338008Y174898D02*
X338992D01*
X338500Y174406D02*
Y175390D01*
X103008Y187500D02*
X103992D01*
X103500Y187008D02*
Y187992D01*
X184108Y177400D02*
X185092D01*
X184600Y176908D02*
Y177892D01*
X338716Y184409D02*
X339700D01*
X339208Y183917D02*
Y184901D01*
X338508Y200500D02*
X339492D01*
X339000Y200008D02*
Y200992D01*
X217913Y192165D02*
X218898D01*
X218406Y191673D02*
Y192657D01*
X107008Y189500D02*
X107992D01*
X107500Y189008D02*
Y189992D01*
X103717Y258600D02*
X104701D01*
X104209Y258108D02*
Y259092D01*
X95530Y39522D02*
X96514D01*
X96022Y39030D02*
Y40014D01*
X95276Y236024D02*
X96260D01*
X95768Y235531D02*
Y236516D01*
X95508Y244000D02*
X96492D01*
X96000Y243508D02*
Y244492D01*
X94587Y240748D02*
X95571D01*
X95079Y240256D02*
Y241240D01*
X99508Y243500D02*
X100492D01*
X100000Y243008D02*
Y243992D01*
X98108Y246316D02*
X99093D01*
X98600Y245824D02*
Y246808D01*
X95008Y197000D02*
X95992D01*
X95500Y196508D02*
Y197492D01*
X89508Y39500D02*
X90492D01*
X90000Y39008D02*
Y39992D01*
X319587Y295669D02*
X320571D01*
X320079Y295177D02*
Y296161D01*
X319587Y285433D02*
X320571D01*
X320079Y284941D02*
Y285925D01*
X338008Y281000D02*
X338992D01*
X338500Y280508D02*
Y281492D01*
X337508Y292000D02*
X338492D01*
X338000Y291508D02*
Y292492D01*
X324508Y261000D02*
X325492D01*
X325000Y260508D02*
Y261492D01*
X329035Y263516D02*
X330020D01*
X329528Y263024D02*
Y264008D01*
X65008Y255000D02*
X65992D01*
X65500Y254508D02*
Y255492D01*
X65008Y265000D02*
X65992D01*
X65500Y264508D02*
Y265492D01*
X71383Y218602D02*
X72367D01*
X71875Y218110D02*
Y219094D01*
X60992Y223721D02*
X61976D01*
X61484Y223228D02*
Y224213D01*
X58508Y209100D02*
X59492D01*
X59000Y208608D02*
Y209592D01*
X56024Y229232D02*
X57008D01*
X56516Y228740D02*
Y229724D01*
X59358Y205000D02*
X60342D01*
X59850Y204508D02*
Y205492D01*
X77252Y200256D02*
X78236D01*
X77744Y199764D02*
Y200748D01*
X310508Y248500D02*
X311492D01*
X311000Y248008D02*
Y248992D01*
X314585Y242923D02*
X315569D01*
X315077Y242431D02*
Y243415D01*
X349646Y256201D02*
X350630D01*
X350138Y255709D02*
Y256693D01*
X356008Y170000D02*
X356992D01*
X356500Y169508D02*
Y170492D01*
X362402Y246850D02*
X363386D01*
X362894Y246358D02*
Y247342D01*
X362524Y242520D02*
X363508D01*
X363016Y242028D02*
Y243012D01*
X368492Y201969D02*
X369476D01*
X368984Y201476D02*
Y202461D01*
X366008Y178500D02*
X366992D01*
X366500Y178008D02*
Y178992D01*
X368799Y215551D02*
X369783D01*
X369291Y215059D02*
Y216043D01*
X365008Y258500D02*
X365992D01*
X365500Y258008D02*
Y258992D01*
X371008Y240000D02*
X371992D01*
X371500Y239508D02*
Y240492D01*
X274393Y180549D02*
X275377D01*
X274885Y180057D02*
Y181041D01*
X188508Y183000D02*
X189492D01*
X189000Y182508D02*
Y183492D01*
X364008Y271750D02*
X364992D01*
X364500Y271258D02*
Y272242D01*
X364008Y269250D02*
X364992D01*
X364500Y268758D02*
Y269742D01*
X364008Y266750D02*
X364992D01*
X364500Y266258D02*
Y267242D01*
X340551Y301575D02*
X341535D01*
X341043Y301083D02*
Y302067D01*
X332185Y297638D02*
X333169D01*
X332677Y297146D02*
Y298130D01*
X274393Y312832D02*
X275377D01*
X274885Y312340D02*
Y313324D01*
X266168Y316266D02*
X267152D01*
X266660Y315774D02*
Y316759D01*
X231299Y321457D02*
X232283D01*
X231791Y320965D02*
Y321949D01*
X212751Y323757D02*
X213736D01*
X213243Y323265D02*
Y324249D01*
X212205Y326870D02*
X213189D01*
X212697Y326378D02*
Y327362D01*
X212106Y310925D02*
X213090D01*
X212598Y310433D02*
Y311417D01*
X332508Y247500D02*
X333492D01*
X333000Y247008D02*
Y247992D01*
X333008Y253500D02*
X333992D01*
X333500Y253008D02*
Y253992D01*
X340453Y240551D02*
X341437D01*
X340945Y240059D02*
Y241043D01*
X340453Y237008D02*
X341437D01*
X340945Y236516D02*
Y237500D01*
X328508Y191000D02*
X329492D01*
X329000Y190508D02*
Y191492D01*
X202197Y194926D02*
X203181D01*
X202689Y194434D02*
Y195418D01*
X144008Y191000D02*
X144992D01*
X144500Y190508D02*
Y191492D01*
X149508Y174000D02*
X150492D01*
X150000Y173508D02*
Y174492D01*
X144118Y174579D02*
X145102D01*
X144610Y174087D02*
Y175071D01*
X337724Y277716D02*
X338709D01*
X338216Y277224D02*
Y278209D01*
X146063Y83465D02*
X147047D01*
X146555Y82973D02*
Y83957D01*
X115690Y77773D02*
X116674D01*
X116182Y77281D02*
Y78266D01*
X342508Y105500D02*
X343492D01*
X343000Y105008D02*
Y105992D01*
X347229Y105691D02*
X348213D01*
X347721Y105199D02*
Y106183D01*
X326159Y98743D02*
X327143D01*
X326651Y98250D02*
Y99235D01*
X236008Y304000D02*
X236992D01*
X236500Y303508D02*
Y304492D01*
X233508Y304000D02*
X234492D01*
X234000Y303508D02*
Y304492D01*
X231008Y304000D02*
X231992D01*
X231500Y303508D02*
Y304492D01*
X216929Y299016D02*
X217913D01*
X217421Y298524D02*
Y299508D01*
X91494Y311984D02*
X92479D01*
X91987Y311492D02*
Y312476D01*
X226870Y293406D02*
X227854D01*
X227362Y292913D02*
Y293898D01*
X227104Y287356D02*
X228088D01*
X227596Y286864D02*
Y287848D01*
X199555Y294882D02*
X200539D01*
X200047Y294390D02*
Y295374D01*
X96260Y263189D02*
X97244D01*
X96752Y262697D02*
Y263681D01*
X106201Y297693D02*
X107185D01*
X106693Y297201D02*
Y298185D01*
X89008Y249200D02*
X89992D01*
X89500Y248708D02*
Y249692D01*
X81890Y190354D02*
X82874D01*
X82382Y189862D02*
Y190847D01*
X88208Y170800D02*
X89192D01*
X88700Y170308D02*
Y171292D01*
X180088Y254887D02*
X181072D01*
X180580Y254395D02*
Y255379D01*
X184547Y184941D02*
X185531D01*
X185039Y184449D02*
Y185433D01*
X229331Y50886D02*
X230315D01*
X229823Y50394D02*
Y51378D01*
X133760Y245965D02*
X134744D01*
X134252Y245472D02*
Y246457D01*
X123008Y245300D02*
X123992D01*
X123500Y244808D02*
Y245792D01*
X123508Y146500D02*
X124492D01*
X124000Y146008D02*
Y146992D01*
X111909Y48425D02*
X112894D01*
X112402Y47933D02*
Y48917D01*
X126476Y48228D02*
X127461D01*
X126969Y47736D02*
Y48720D01*
X126181Y44291D02*
X127165D01*
X126673Y43799D02*
Y44783D01*
X226055Y249606D02*
X227040D01*
X226547Y249114D02*
Y250098D01*
X225886Y243701D02*
X226870D01*
X226378Y243209D02*
Y244193D01*
X222342Y280413D02*
X223327D01*
X222835Y279921D02*
Y280906D01*
X226083Y218012D02*
X227067D01*
X226575Y217520D02*
Y218504D01*
X222342Y215354D02*
X223327D01*
X222835Y214862D02*
Y215846D01*
X224751Y207638D02*
X225735D01*
X225243Y207146D02*
Y208130D01*
X231398Y210138D02*
X232382D01*
X231890Y209646D02*
Y210630D01*
X289665Y125394D02*
X290650D01*
X290158Y124902D02*
Y125886D01*
X58677Y134957D02*
X59661D01*
X59169Y134465D02*
Y135449D01*
X70473Y252264D02*
X71457D01*
X70965Y251772D02*
Y252756D01*
X67716Y241634D02*
X68701D01*
X68209Y241142D02*
Y242126D01*
X69882Y120768D02*
X70866D01*
X70374Y120276D02*
Y121260D01*
X60335Y129626D02*
X61319D01*
X60827Y129134D02*
Y130118D01*
X141831Y130709D02*
X142815D01*
X142323Y130217D02*
Y131201D01*
X64272Y125984D02*
X65256D01*
X64764Y125492D02*
Y126476D01*
X325787Y93821D02*
X326772D01*
X326279Y93329D02*
Y94313D01*
X263808Y74200D02*
X264792D01*
X264300Y73708D02*
Y74692D01*
X65059Y212402D02*
X66043D01*
X65551Y211910D02*
Y212894D01*
X73130Y230591D02*
X74114D01*
X73622Y230099D02*
Y231083D01*
X73130Y111417D02*
X74114D01*
X73622Y110925D02*
Y111909D01*
X248721Y98721D02*
X249705D01*
X249213Y98228D02*
Y99213D01*
X248622Y93799D02*
X249606D01*
X249114Y93307D02*
Y94291D01*
X221457Y164787D02*
X222441D01*
X221949Y164295D02*
Y165279D01*
X217618Y162303D02*
X218602D01*
X218110Y161811D02*
Y162795D01*
X220965Y199508D02*
X221949D01*
X221457Y199016D02*
Y200000D01*
X158465Y217913D02*
X159449D01*
X158957Y217421D02*
Y218406D01*
X159410Y214332D02*
X160395D01*
X159902Y213839D02*
Y214824D01*
X192880Y316043D02*
X193865D01*
X193373Y315551D02*
Y316535D01*
X197071Y316732D02*
X198055D01*
X197563Y316240D02*
Y317224D01*
X86713Y321457D02*
X87697D01*
X87205Y320965D02*
Y321949D01*
X184941Y318776D02*
X185925D01*
X185433Y318284D02*
Y319268D01*
X121063Y318898D02*
X122047D01*
X121555Y318406D02*
Y319390D01*
X140453Y319094D02*
X141437D01*
X140945Y318602D02*
Y319587D01*
X204848Y296898D02*
X205833D01*
X205341Y296406D02*
Y297390D01*
X195744Y235102D02*
X196728D01*
X196236Y234610D02*
Y235594D01*
X205217Y241043D02*
X206201D01*
X205709Y240551D02*
Y241535D01*
X56102Y163878D02*
X57087D01*
X56595Y163386D02*
Y164370D01*
X332185Y159055D02*
X333169D01*
X332677Y158563D02*
Y159547D01*
X144390Y156825D02*
X145374D01*
X144882Y156333D02*
Y157317D01*
X194587Y161614D02*
X195571D01*
X195079Y161122D02*
Y162106D01*
X183852Y245344D02*
X184836D01*
X184344Y244852D02*
Y245836D01*
X194583Y149705D02*
X195567D01*
X195075Y149213D02*
Y150197D01*
X110618Y275215D02*
X111603D01*
X111110Y274723D02*
Y275708D01*
X117708Y258600D02*
X118692D01*
X118200Y258108D02*
Y259092D01*
X109008Y150000D02*
X109992D01*
X109500Y149508D02*
Y150492D01*
X114508Y149500D02*
X115492D01*
X115000Y149008D02*
Y149992D01*
X107307Y75725D02*
X108291D01*
X107799Y75233D02*
Y76217D01*
X110335Y27657D02*
X111319D01*
X110827Y27165D02*
Y28150D01*
X123367Y63808D02*
X124351D01*
X123859Y63316D02*
Y64300D01*
X115690Y63829D02*
X116674D01*
X116182Y63337D02*
Y64321D01*
X94587Y222441D02*
X95571D01*
X95079Y221949D02*
Y222933D01*
X72571Y98743D02*
X73555D01*
X73063Y98251D02*
Y99235D01*
X264961Y282579D02*
X265945D01*
X265453Y282087D02*
Y283071D01*
X263287Y285827D02*
X264272D01*
X263779Y285335D02*
Y286319D01*
X263681Y295669D02*
X264665D01*
X264173Y295177D02*
Y296161D01*
X208169Y229134D02*
X209154D01*
X208661Y228642D02*
Y229626D01*
X215748Y330217D02*
X216732D01*
X216240Y329724D02*
Y330709D01*
X199705Y323031D02*
X200689D01*
X200197Y322539D02*
Y323524D01*
X202362Y316437D02*
X203346D01*
X202854Y315945D02*
Y316929D01*
X253846Y322811D02*
X254830D01*
X254338Y322319D02*
Y323303D01*
X271600Y317861D02*
X272585D01*
X272093Y317369D02*
Y318353D01*
X241831Y321949D02*
X242815D01*
X242323Y321457D02*
Y322441D01*
X274336Y225025D02*
X275321D01*
X274828Y224533D02*
Y225517D01*
X269592Y230025D02*
X270576D01*
X270084Y229533D02*
Y230517D01*
X269488Y185776D02*
X270472D01*
X269980Y185284D02*
Y186268D01*
X202257Y302323D02*
X203241D01*
X202749Y301831D02*
Y302815D01*
X202165Y277461D02*
X203150D01*
X202658Y276969D02*
Y277953D01*
X264857Y150841D02*
X265842D01*
X265349Y150349D02*
Y151333D01*
X264272Y238681D02*
X265256D01*
X264764Y238189D02*
Y239173D01*
X264112Y195025D02*
X265096D01*
X264604Y194533D02*
Y195517D01*
X246260Y321654D02*
X247244D01*
X246752Y321161D02*
Y322146D01*
X267618Y290158D02*
X268602D01*
X268110Y289665D02*
Y290650D01*
X271949Y237008D02*
X272933D01*
X272441Y236516D02*
Y237500D01*
X280217Y244094D02*
X281201D01*
X280709Y243602D02*
Y244587D01*
X352067Y106239D02*
X353051D01*
X352559Y105746D02*
Y106731D01*
X356693Y74213D02*
X357677D01*
X357185Y73721D02*
Y74705D01*
X359627Y73761D02*
X360611D01*
X360119Y73269D02*
Y74253D01*
X332208Y73700D02*
X333192D01*
X332700Y73208D02*
Y74192D01*
X294882Y103740D02*
X295866D01*
X295374Y103248D02*
Y104232D01*
X289665Y106239D02*
X290650D01*
X290158Y105746D02*
Y106731D01*
X123425Y77559D02*
X124409D01*
X123917Y77067D02*
Y78051D01*
X120808Y89469D02*
X121792D01*
X121300Y88977D02*
Y89961D01*
X118249Y86978D02*
X119233D01*
X118741Y86486D02*
Y87470D01*
X106241Y60688D02*
X107225D01*
X106733Y60196D02*
Y61180D01*
X76713Y88346D02*
X77698D01*
X77205Y87853D02*
Y88838D01*
X76713Y74351D02*
X77698D01*
X77205Y73859D02*
Y74843D01*
X72342Y68701D02*
X73327D01*
X72835Y68209D02*
Y69193D01*
X344965Y224228D02*
X345950D01*
X345457Y223735D02*
Y224720D01*
X349508Y224803D02*
X350492D01*
X350000Y224311D02*
Y225295D01*
X340453Y243701D02*
X341437D01*
X340945Y243209D02*
Y244193D01*
X333760Y257874D02*
X334744D01*
X334252Y257382D02*
Y258366D01*
X328248Y290551D02*
X329232D01*
X328740Y290059D02*
Y291043D01*
X277067Y245669D02*
X278051D01*
X277559Y245177D02*
Y246161D01*
X266831Y245669D02*
X267815D01*
X267323Y245177D02*
Y246161D01*
X340748Y306299D02*
X341732D01*
X341240Y305807D02*
Y306791D01*
X340650Y309941D02*
X341634D01*
X341142Y309449D02*
Y310433D01*
X345177Y314075D02*
X346161D01*
X345669Y313583D02*
Y314567D01*
X350591Y302165D02*
X351575D01*
X351083Y301673D02*
Y302658D01*
X350591Y306693D02*
X351575D01*
X351083Y306201D02*
Y307185D01*
X350689Y310335D02*
X351673D01*
X351181Y309842D02*
Y310827D01*
X298031Y243898D02*
X299016D01*
X298524Y243406D02*
Y244390D01*
X298425Y200098D02*
X299409D01*
X298917Y199606D02*
Y200591D01*
X237697Y230807D02*
X238681D01*
X238189Y230315D02*
Y231299D01*
X213189Y286319D02*
X214173D01*
X213681Y285827D02*
Y286811D01*
X226476Y310827D02*
X227461D01*
X226969Y310335D02*
Y311319D01*
X231299Y311024D02*
X232283D01*
X231791Y310531D02*
Y311516D01*
X236221Y311024D02*
X237205D01*
X236713Y310531D02*
Y311516D01*
X236319Y321457D02*
X237303D01*
X236811Y320965D02*
Y321949D01*
X267224Y330512D02*
X268209D01*
X267717Y330020D02*
Y331004D01*
X290256Y326772D02*
X291240D01*
X290748Y326279D02*
Y327264D01*
X275886Y327559D02*
X276870D01*
X276378Y327067D02*
Y328051D01*
X320866Y327461D02*
X321850D01*
X321358Y326969D02*
Y327953D01*
X334449Y327461D02*
X335433D01*
X334941Y326969D02*
Y327953D01*
X327362Y318701D02*
X328346D01*
X327854Y318209D02*
Y319193D01*
X363681Y312402D02*
X364665D01*
X364173Y311910D02*
Y312894D01*
X371260Y312402D02*
X372244D01*
X371752Y311910D02*
Y312894D01*
X368602Y299902D02*
X369587D01*
X369094Y299410D02*
Y300394D01*
X362205Y296260D02*
X363189D01*
X362697Y295768D02*
Y296752D01*
X371949Y228346D02*
X372933D01*
X372441Y227854D02*
Y228839D01*
X361910Y183957D02*
X362894D01*
X362402Y183465D02*
Y184449D01*
X360827Y164075D02*
X361811D01*
X361319Y163583D02*
Y164567D01*
X368996Y157874D02*
X369980D01*
X369488Y157382D02*
Y158366D01*
X368996Y170965D02*
X369980D01*
X369488Y170473D02*
Y171457D01*
X362008Y42323D02*
X362992D01*
X362500Y41831D02*
Y42815D01*
X337205Y43012D02*
X338189D01*
X337697Y42520D02*
Y43504D01*
X337008Y51378D02*
X337992D01*
X337500Y50886D02*
Y51870D01*
X352165Y125591D02*
X353150D01*
X352658Y125098D02*
Y126083D01*
X326308Y74000D02*
X327292D01*
X326800Y73508D02*
Y74492D01*
X297047Y74213D02*
X298031D01*
X297539Y73721D02*
Y74705D01*
X269708Y73800D02*
X270692D01*
X270200Y73308D02*
Y74292D01*
X274902Y52067D02*
X275886D01*
X275394Y51575D02*
Y52559D01*
X275108Y39400D02*
X276092D01*
X275600Y38908D02*
Y39892D01*
X187598Y61319D02*
X188583D01*
X188091Y60827D02*
Y61811D01*
X224311Y61417D02*
X225295D01*
X224803Y60925D02*
Y61909D01*
X154232Y161417D02*
X155217D01*
X154724Y160925D02*
Y161909D01*
X154528Y173622D02*
X155512D01*
X155020Y173130D02*
Y174114D01*
X153445Y258760D02*
X154429D01*
X153937Y258268D02*
Y259252D01*
X145571Y246063D02*
X146555D01*
X146063Y245571D02*
Y246555D01*
X132185Y258661D02*
X133169D01*
X132677Y258169D02*
Y259154D01*
X199311Y327854D02*
X200295D01*
X199803Y327362D02*
Y328346D01*
X191437Y325886D02*
X192421D01*
X191929Y325394D02*
Y326378D01*
X178543Y326969D02*
X179527D01*
X179035Y326476D02*
Y327461D01*
X146653Y326575D02*
X147638D01*
X147146Y326083D02*
Y327067D01*
X133169Y326181D02*
X134153D01*
X133661Y325689D02*
Y326673D01*
X128248Y326673D02*
X129232D01*
X128740Y326181D02*
Y327165D01*
X114764Y327067D02*
X115748D01*
X115256Y326575D02*
Y327559D01*
X66240Y318996D02*
X67224D01*
X66732Y318504D02*
Y319488D01*
X73622Y326772D02*
X74606D01*
X74114Y326279D02*
Y327264D01*
X60236Y326969D02*
X61221D01*
X60728Y326476D02*
Y327461D01*
X89173Y263287D02*
X90158D01*
X89665Y262795D02*
Y263779D01*
X94390Y203051D02*
X95374D01*
X94882Y202559D02*
Y203543D01*
X118308Y105500D02*
X119292D01*
X118800Y105008D02*
Y105992D01*
X132087Y59449D02*
X133071D01*
X132579Y58957D02*
Y59941D01*
X131004Y44390D02*
X131988D01*
X131496Y43898D02*
Y44882D01*
X144980Y27756D02*
X145965D01*
X145472Y27264D02*
Y28248D01*
X156890Y27264D02*
X157874D01*
X157382Y26772D02*
Y27756D01*
X150689Y35630D02*
X151673D01*
X151181Y35138D02*
Y36122D01*
X116043Y35531D02*
X117027D01*
X116535Y35039D02*
Y36024D01*
X122146Y27264D02*
X123130D01*
X122638Y26772D02*
Y27756D01*
X8268Y15748D02*
X9252D01*
X8760Y15256D02*
Y16240D01*
X10008Y159000D02*
X10992D01*
X10500Y158508D02*
Y159492D01*
X14508Y261000D02*
X15492D01*
X15000Y260508D02*
Y261492D01*
X11516Y346063D02*
X12500D01*
X12008Y345571D02*
Y346555D01*
X78740Y217126D02*
X79724D01*
X79232Y216634D02*
Y217618D01*
X154073Y149435D02*
X155058D01*
X154565Y148942D02*
Y149927D01*
X139208Y258900D02*
X140192D01*
X139700Y258408D02*
Y259392D01*
M02*
