G04*
G04 #@! TF.GenerationSoftware,Altium Limited,Altium Designer,21.8.1 (53)*
G04*
G04 Layer_Physical_Order=2*
G04 Layer_Color=32768*
%FSLAX25Y25*%
%MOIN*%
G70*
G04*
G04 #@! TF.SameCoordinates,01E290FD-0F91-4D7C-9431-6C0E6AC14D40*
G04*
G04*
G04 #@! TF.FilePolarity,Negative*
G04*
G01*
G75*
%ADD15C,0.01000*%
%ADD74C,0.04000*%
%ADD75C,0.05969*%
G04:AMPARAMS|DCode=76|XSize=79.685mil|YSize=79.685mil|CornerRadius=0mil|HoleSize=0mil|Usage=FLASHONLY|Rotation=0.000|XOffset=0mil|YOffset=0mil|HoleType=Round|Shape=Relief|Width=10mil|Gap=10mil|Entries=4|*
%AMTHD76*
7,0,0,0.07969,0.05969,0.01000,45*
%
%ADD76THD76*%
%ADD77C,0.08016*%
G04:AMPARAMS|DCode=78|XSize=100.157mil|YSize=100.157mil|CornerRadius=0mil|HoleSize=0mil|Usage=FLASHONLY|Rotation=0.000|XOffset=0mil|YOffset=0mil|HoleType=Round|Shape=Relief|Width=10mil|Gap=10mil|Entries=4|*
%AMTHD78*
7,0,0,0.10016,0.08016,0.01000,45*
%
%ADD78THD78*%
%ADD79C,0.16520*%
%ADD80C,0.04984*%
D15*
X94250Y298500D02*
X103500D01*
X65000Y200000D02*
X94250Y229250D01*
X65000Y170000D02*
Y200000D01*
X85000Y235000D02*
Y280000D01*
X55000Y205000D02*
X85000Y235000D01*
X55000Y202500D02*
Y205000D01*
X94250Y229250D02*
Y298500D01*
X15000Y180000D02*
X55000D01*
Y202500D01*
X15000Y170000D02*
X65000D01*
X15000D02*
Y180000D01*
X265500Y233500D02*
Y321000D01*
X154500Y233500D02*
X265500D01*
X151500Y236500D02*
X154500Y233500D01*
X151500Y236500D02*
Y279500D01*
X127500Y303500D02*
X151500Y279500D01*
X108500Y303500D02*
X127500D01*
X103500Y298500D02*
X108500Y303500D01*
X135000Y321500D02*
X159000D01*
X85000D02*
X135000D01*
X85000Y315000D02*
Y321500D01*
X35000Y290000D02*
X75000D01*
Y315000D01*
X85000D01*
Y280000D02*
Y315000D01*
X35000Y280000D02*
X85000D01*
X35000D02*
Y290000D01*
D74*
X159449Y322342D02*
X319882D01*
X159449D02*
Y354724D01*
X0D02*
X159449D01*
X0Y0D02*
X377559D01*
Y59055D01*
X344943D02*
X377559D01*
X344943D02*
Y128121D01*
X377559D01*
X377559Y355000D01*
X319882Y355000D02*
X377559Y355000D01*
X319882Y322342D02*
Y355000D01*
X0Y0D02*
Y354724D01*
D75*
X80709Y328740D02*
D03*
Y323819D02*
D03*
Y318898D02*
D03*
Y313976D02*
D03*
Y304134D02*
D03*
Y299213D02*
D03*
Y294291D02*
D03*
Y289370D02*
D03*
X142520Y328937D02*
D03*
Y324016D02*
D03*
Y319094D02*
D03*
Y314173D02*
D03*
Y309252D02*
D03*
Y304331D02*
D03*
Y294488D02*
D03*
Y289567D02*
D03*
Y284646D02*
D03*
D76*
X80709Y309055D02*
D03*
Y284449D02*
D03*
X142520Y299410D02*
D03*
D77*
X266535Y5906D02*
D03*
X276535D02*
D03*
X286535D02*
D03*
X296535D02*
D03*
X306535D02*
D03*
X198819D02*
D03*
X208819D02*
D03*
X218819D02*
D03*
X228819D02*
D03*
X238819D02*
D03*
X248819D02*
D03*
X40000Y255000D02*
D03*
Y245000D02*
D03*
Y225000D02*
D03*
Y235000D02*
D03*
Y205000D02*
D03*
Y195000D02*
D03*
Y185000D02*
D03*
Y165000D02*
D03*
Y175000D02*
D03*
Y145000D02*
D03*
Y125000D02*
D03*
Y155000D02*
D03*
Y135000D02*
D03*
Y215000D02*
D03*
Y265000D02*
D03*
X50000Y105000D02*
D03*
Y135000D02*
D03*
Y125000D02*
D03*
Y115000D02*
D03*
Y145000D02*
D03*
Y165000D02*
D03*
Y55000D02*
D03*
Y65000D02*
D03*
Y85000D02*
D03*
Y95000D02*
D03*
Y75000D02*
D03*
Y155000D02*
D03*
X40000Y305000D02*
D03*
Y275000D02*
D03*
Y295000D02*
D03*
X50000Y285000D02*
D03*
Y295000D02*
D03*
Y305000D02*
D03*
Y275000D02*
D03*
Y255000D02*
D03*
Y245000D02*
D03*
Y235000D02*
D03*
Y225000D02*
D03*
Y215000D02*
D03*
Y205000D02*
D03*
Y185000D02*
D03*
Y175000D02*
D03*
Y265000D02*
D03*
Y195000D02*
D03*
X40000Y95000D02*
D03*
Y105000D02*
D03*
Y75000D02*
D03*
Y115000D02*
D03*
Y55000D02*
D03*
Y85000D02*
D03*
Y65000D02*
D03*
X20000Y255000D02*
D03*
Y245000D02*
D03*
Y225000D02*
D03*
Y235000D02*
D03*
Y205000D02*
D03*
Y195000D02*
D03*
Y165000D02*
D03*
Y145000D02*
D03*
Y125000D02*
D03*
Y155000D02*
D03*
Y135000D02*
D03*
Y215000D02*
D03*
Y265000D02*
D03*
X30000Y105000D02*
D03*
Y135000D02*
D03*
Y125000D02*
D03*
Y115000D02*
D03*
Y145000D02*
D03*
Y165000D02*
D03*
Y55000D02*
D03*
Y65000D02*
D03*
Y85000D02*
D03*
Y95000D02*
D03*
Y75000D02*
D03*
Y155000D02*
D03*
X20000Y305000D02*
D03*
Y275000D02*
D03*
Y295000D02*
D03*
X30000Y285000D02*
D03*
Y295000D02*
D03*
X20000Y285000D02*
D03*
X30000Y305000D02*
D03*
Y275000D02*
D03*
Y255000D02*
D03*
Y245000D02*
D03*
Y235000D02*
D03*
Y225000D02*
D03*
Y215000D02*
D03*
Y205000D02*
D03*
Y265000D02*
D03*
Y195000D02*
D03*
X20000Y95000D02*
D03*
Y105000D02*
D03*
Y75000D02*
D03*
Y115000D02*
D03*
Y55000D02*
D03*
Y85000D02*
D03*
Y65000D02*
D03*
D78*
X316535Y5906D02*
D03*
X40000Y285000D02*
D03*
X20000Y185000D02*
D03*
Y175000D02*
D03*
X30000Y185000D02*
D03*
Y175000D02*
D03*
D79*
X357559Y334724D02*
D03*
Y20000D02*
D03*
X20000Y35000D02*
D03*
Y324724D02*
D03*
D80*
X363287Y320866D02*
D03*
X355787Y305866D02*
D03*
X363287Y290866D02*
D03*
Y260866D02*
D03*
Y230866D02*
D03*
X355787Y215866D02*
D03*
X363287Y200866D02*
D03*
X355787Y185866D02*
D03*
X363287Y170866D02*
D03*
Y50866D02*
D03*
X355787Y35866D02*
D03*
X348287Y320866D02*
D03*
X340787Y305866D02*
D03*
X348287Y200866D02*
D03*
X340787Y185866D02*
D03*
X348287Y140866D02*
D03*
Y50866D02*
D03*
X340787Y35866D02*
D03*
Y5866D02*
D03*
X325787Y335866D02*
D03*
X333287Y320866D02*
D03*
X325787Y305866D02*
D03*
X333287Y200866D02*
D03*
X325787Y185866D02*
D03*
Y35866D02*
D03*
X333287Y20866D02*
D03*
X325787Y5866D02*
D03*
X310787Y305866D02*
D03*
Y245866D02*
D03*
X318287Y110866D02*
D03*
X310787Y65866D02*
D03*
Y35866D02*
D03*
X295787Y275866D02*
D03*
Y95866D02*
D03*
X303287Y80866D02*
D03*
X295787Y65866D02*
D03*
X303287Y50866D02*
D03*
X280787Y35866D02*
D03*
X273287Y290866D02*
D03*
X265787Y275866D02*
D03*
Y215866D02*
D03*
X273287Y80866D02*
D03*
X265787Y35866D02*
D03*
X273287Y20866D02*
D03*
X250787Y95866D02*
D03*
Y65866D02*
D03*
Y35866D02*
D03*
X258287Y20866D02*
D03*
X243287Y80866D02*
D03*
X228287Y20866D02*
D03*
X205787Y275866D02*
D03*
X213287Y170866D02*
D03*
X205787Y125866D02*
D03*
Y95866D02*
D03*
X198287Y290866D02*
D03*
X190787Y95866D02*
D03*
Y5866D02*
D03*
X183287Y290866D02*
D03*
X175787Y275866D02*
D03*
Y95866D02*
D03*
X183287Y80866D02*
D03*
X175787Y65866D02*
D03*
Y5866D02*
D03*
X160787Y305866D02*
D03*
X168287Y290866D02*
D03*
X160787Y275866D02*
D03*
Y215866D02*
D03*
X168287Y140866D02*
D03*
X160787Y125866D02*
D03*
Y65866D02*
D03*
Y5866D02*
D03*
X153287Y320866D02*
D03*
Y290866D02*
D03*
X145787Y275866D02*
D03*
X153287Y260866D02*
D03*
X145787Y245866D02*
D03*
X153287Y230866D02*
D03*
X145787Y215866D02*
D03*
X153287Y140866D02*
D03*
X145787Y125866D02*
D03*
X153287Y80866D02*
D03*
X145787Y65866D02*
D03*
X153287Y50866D02*
D03*
Y20866D02*
D03*
X145787Y5866D02*
D03*
X138287Y290866D02*
D03*
X130787Y215866D02*
D03*
X138287Y140866D02*
D03*
X130787Y125866D02*
D03*
X138287Y110866D02*
D03*
X130787Y95866D02*
D03*
X138287Y80866D02*
D03*
X130787Y65866D02*
D03*
Y35866D02*
D03*
X138287Y20866D02*
D03*
X130787Y5866D02*
D03*
X123287Y260866D02*
D03*
Y230866D02*
D03*
X115787Y125866D02*
D03*
X123287Y110866D02*
D03*
X115787Y95866D02*
D03*
X123287Y80866D02*
D03*
Y50866D02*
D03*
X115787Y35866D02*
D03*
X123287Y20866D02*
D03*
X115787Y5866D02*
D03*
X100787Y95866D02*
D03*
Y65866D02*
D03*
Y35866D02*
D03*
X108287Y20866D02*
D03*
X100787Y5866D02*
D03*
X85787Y335866D02*
D03*
X93287Y260866D02*
D03*
Y230866D02*
D03*
X85787Y215866D02*
D03*
X93287Y200866D02*
D03*
X85787Y185866D02*
D03*
Y125866D02*
D03*
Y65866D02*
D03*
X93287Y20866D02*
D03*
X85787Y5866D02*
D03*
X70787Y335866D02*
D03*
Y305866D02*
D03*
Y125866D02*
D03*
X78287Y110866D02*
D03*
Y50866D02*
D03*
X70787Y35866D02*
D03*
X78287Y20866D02*
D03*
X70787Y5866D02*
D03*
X55787Y335866D02*
D03*
Y305866D02*
D03*
Y245866D02*
D03*
X63287Y230866D02*
D03*
X55787Y215866D02*
D03*
Y185866D02*
D03*
X63287Y170866D02*
D03*
X55787Y155866D02*
D03*
Y125866D02*
D03*
X63287Y110866D02*
D03*
X55787Y95866D02*
D03*
X63287Y80866D02*
D03*
X55787Y65866D02*
D03*
X63287Y50866D02*
D03*
X55787Y35866D02*
D03*
X63287Y20866D02*
D03*
X55787Y5866D02*
D03*
X40787Y335866D02*
D03*
X48287Y320866D02*
D03*
X40787Y35866D02*
D03*
X48287Y20866D02*
D03*
X40787Y5866D02*
D03*
X33287Y290866D02*
D03*
Y260866D02*
D03*
Y230866D02*
D03*
Y170866D02*
D03*
Y140866D02*
D03*
Y110866D02*
D03*
Y80866D02*
D03*
Y20866D02*
D03*
X25787Y5866D02*
D03*
X10787Y305866D02*
D03*
Y245866D02*
D03*
Y215866D02*
D03*
Y155866D02*
D03*
Y125866D02*
D03*
Y95866D02*
D03*
Y65866D02*
D03*
Y5866D02*
D03*
X285900Y266200D02*
D03*
X289900Y276500D02*
D03*
X301900Y264900D02*
D03*
X303700Y255200D02*
D03*
X303400Y238400D02*
D03*
X312300Y240700D02*
D03*
X319600Y224800D02*
D03*
X319200Y233600D02*
D03*
X277400Y254300D02*
D03*
X200300Y38700D02*
D03*
X200500Y45900D02*
D03*
X209300Y146100D02*
D03*
X121800Y239500D02*
D03*
X191943Y229890D02*
D03*
X229134Y236116D02*
D03*
X315200Y112400D02*
D03*
X317684Y118898D02*
D03*
X231496Y114516D02*
D03*
X204331Y181890D02*
D03*
X280709Y176622D02*
D03*
X336575Y58661D02*
D03*
X324925Y149606D02*
D03*
X68900Y228900D02*
D03*
X72337Y253013D02*
D03*
X76300Y262000D02*
D03*
X77722Y131870D02*
D03*
X82284Y153543D02*
D03*
X81496Y173622D02*
D03*
X192900Y253200D02*
D03*
X177300Y253300D02*
D03*
X185000Y265000D02*
D03*
Y268500D02*
D03*
Y272000D02*
D03*
Y275500D02*
D03*
X320500Y272500D02*
D03*
X248901Y225901D02*
D03*
X251000Y228000D02*
D03*
X302063Y127559D02*
D03*
X309984Y135827D02*
D03*
X304547Y135039D02*
D03*
X303150Y200000D02*
D03*
X97500Y41016D02*
D03*
X90000Y46000D02*
D03*
X93000Y43500D02*
D03*
X133500Y65500D02*
D03*
X148000Y40963D02*
D03*
X144000Y43500D02*
D03*
X141000Y46102D02*
D03*
X157000Y46500D02*
D03*
X156500Y40500D02*
D03*
X256532Y181646D02*
D03*
X303937Y181102D02*
D03*
X215354Y41732D02*
D03*
X232283D02*
D03*
X105905Y257087D02*
D03*
X108346Y227433D02*
D03*
X111417Y257874D02*
D03*
X131000Y330000D02*
D03*
X147124Y320987D02*
D03*
X324410Y254331D02*
D03*
X328500Y247500D02*
D03*
X332000Y242000D02*
D03*
X259016Y132677D02*
D03*
X258500Y89500D02*
D03*
X312000Y101000D02*
D03*
X309000Y97000D02*
D03*
X113500Y223000D02*
D03*
X244488Y184130D02*
D03*
X174762Y168500D02*
D03*
X243701Y174803D02*
D03*
X244094Y177953D02*
D03*
X293000Y128500D02*
D03*
X113000Y311500D02*
D03*
X101500Y323500D02*
D03*
X101000Y328500D02*
D03*
X106944Y298227D02*
D03*
X94882Y295669D02*
D03*
X91067Y309842D02*
D03*
X104302Y296874D02*
D03*
X261000Y192500D02*
D03*
X91261Y151647D02*
D03*
X336575Y129921D02*
D03*
X325516Y121260D02*
D03*
Y66929D02*
D03*
X15000Y200000D02*
D03*
Y210000D02*
D03*
X25000D02*
D03*
X35000D02*
D03*
Y200000D02*
D03*
X25000D02*
D03*
X13000Y256000D02*
D03*
X59500Y211500D02*
D03*
X71484Y244929D02*
D03*
X61000Y143500D02*
D03*
X193936Y169449D02*
D03*
X201928Y234869D02*
D03*
X172835Y229969D02*
D03*
X184252Y221925D02*
D03*
X168504Y237795D02*
D03*
X119307Y227484D02*
D03*
X206299Y121260D02*
D03*
X288461Y193307D02*
D03*
X282677Y296850D02*
D03*
X279921Y189886D02*
D03*
X298819Y187402D02*
D03*
X293307Y184252D02*
D03*
X322441Y139764D02*
D03*
X319685Y135827D02*
D03*
X299213Y196063D02*
D03*
X279134Y184252D02*
D03*
X264567Y220866D02*
D03*
X333858Y235433D02*
D03*
X244094Y232677D02*
D03*
X333392Y217752D02*
D03*
X333465Y224016D02*
D03*
X324621Y259267D02*
D03*
X203977Y109549D02*
D03*
X204331Y115354D02*
D03*
X204724Y193307D02*
D03*
X123583Y189492D02*
D03*
X120472Y187008D02*
D03*
X174016Y191975D02*
D03*
X331445Y271707D02*
D03*
X66142Y249606D02*
D03*
X201575Y138583D02*
D03*
X308268Y139764D02*
D03*
X332799Y160630D02*
D03*
X338976Y155512D02*
D03*
X112205Y157480D02*
D03*
X115354Y161024D02*
D03*
X104331Y169685D02*
D03*
X106815Y164961D02*
D03*
X174409Y151969D02*
D03*
X101181Y146063D02*
D03*
X195669Y158146D02*
D03*
X174803Y173228D02*
D03*
X197638Y147244D02*
D03*
X158268Y86614D02*
D03*
X161417Y25984D02*
D03*
X222441Y130709D02*
D03*
X186614Y133736D02*
D03*
X175197Y126378D02*
D03*
X101181Y136221D02*
D03*
X79528Y66929D02*
D03*
X106299Y105905D02*
D03*
X79755Y79513D02*
D03*
X100787Y105512D02*
D03*
X78740Y92126D02*
D03*
X100394Y110236D02*
D03*
X235827Y233858D02*
D03*
X253937Y198031D02*
D03*
X253521Y202499D02*
D03*
X176769Y207090D02*
D03*
X164961Y194488D02*
D03*
X253937Y215748D02*
D03*
X186614Y198425D02*
D03*
X164379Y205232D02*
D03*
X161990Y206994D02*
D03*
X161024Y209842D02*
D03*
X170079Y252756D02*
D03*
X138976Y257874D02*
D03*
X141732Y254331D02*
D03*
X69291Y156299D02*
D03*
X89633Y154855D02*
D03*
X65944Y158994D02*
D03*
X90945Y158661D02*
D03*
X91339Y126650D02*
D03*
X72441Y129921D02*
D03*
X120472Y129134D02*
D03*
X123622Y131890D02*
D03*
X76378Y281102D02*
D03*
X135827Y283858D02*
D03*
X133465Y279921D02*
D03*
X90158Y315354D02*
D03*
X263083Y189795D02*
D03*
X277559Y168898D02*
D03*
X231496Y157874D02*
D03*
X217323Y163386D02*
D03*
X272441Y168898D02*
D03*
X150787Y217323D02*
D03*
X153150Y195276D02*
D03*
X131496D02*
D03*
X105512D02*
D03*
X98819Y213779D02*
D03*
X91732Y172835D02*
D03*
X135433Y122047D02*
D03*
X161811Y121653D02*
D03*
X174803Y164961D02*
D03*
X246142Y211739D02*
D03*
X212992Y211811D02*
D03*
X204331Y187008D02*
D03*
X180315Y50787D02*
D03*
X249213Y46850D02*
D03*
X266535Y77751D02*
D03*
X210236Y35433D02*
D03*
X291732Y171653D02*
D03*
X185827Y77165D02*
D03*
X228346D02*
D03*
Y169685D02*
D03*
X266929Y186614D02*
D03*
X251390Y132862D02*
D03*
X249213Y89764D02*
D03*
X257480Y44366D02*
D03*
X260630Y46850D02*
D03*
X319291Y82284D02*
D03*
X124803Y216929D02*
D03*
X258600Y294300D02*
D03*
X218898Y269291D02*
D03*
X231102Y264173D02*
D03*
X249606Y279134D02*
D03*
X231496Y274016D02*
D03*
X259449Y259055D02*
D03*
X238484Y307681D02*
D03*
X223800Y308200D02*
D03*
X209000Y311000D02*
D03*
X207087Y289764D02*
D03*
X231100Y289100D02*
D03*
X218504Y290158D02*
D03*
X146063Y311811D02*
D03*
X130315Y307874D02*
D03*
X112598Y322047D02*
D03*
X30709Y16535D02*
D03*
X334252Y13386D02*
D03*
X268262Y33798D02*
D03*
X294094Y52362D02*
D03*
X158268Y314173D02*
D03*
X166535Y304724D02*
D03*
X173622Y313779D02*
D03*
X196457Y309449D02*
D03*
X216300Y308500D02*
D03*
X231102Y309055D02*
D03*
X242913Y313779D02*
D03*
X259300Y306200D02*
D03*
X250394Y304331D02*
D03*
X267323Y304724D02*
D03*
X275590Y313779D02*
D03*
X302362Y309055D02*
D03*
X304724Y314173D02*
D03*
X319685D02*
D03*
X333465Y340551D02*
D03*
X369685Y290551D02*
D03*
X369291Y304724D02*
D03*
X363386Y287795D02*
D03*
X367717Y205906D02*
D03*
X364173Y165354D02*
D03*
X367717Y197244D02*
D03*
X368504Y183071D02*
D03*
X369291Y152756D02*
D03*
X369685Y136614D02*
D03*
X231496Y71653D02*
D03*
X116535Y25591D02*
D03*
X185039Y15354D02*
D03*
X250000Y274606D02*
D03*
X170079Y286221D02*
D03*
X196850Y274606D02*
D03*
Y277559D02*
D03*
Y280512D02*
D03*
Y283465D02*
D03*
X170276Y274606D02*
D03*
Y277559D02*
D03*
Y280512D02*
D03*
Y283465D02*
D03*
X196850Y286221D02*
D03*
X101181Y336221D02*
D03*
M02*
