G04*
G04 #@! TF.GenerationSoftware,Altium Limited,Altium Designer,21.8.1 (53)*
G04*
G04 Layer_Color=8421504*
%FSLAX25Y25*%
%MOIN*%
G70*
G04*
G04 #@! TF.SameCoordinates,8B24C30A-C4EC-4A74-8174-4ADAFF134E48*
G04*
G04*
G04 #@! TF.FilePolarity,Positive*
G04*
G01*
G75*
%ADD15C,0.01000*%
%ADD19R,0.01181X0.03543*%
%ADD20R,0.11811X0.08268*%
%ADD21R,0.06299X0.03150*%
%ADD22R,0.03150X0.03543*%
%ADD23R,0.13465X0.05866*%
%ADD24R,0.01378X0.05512*%
%ADD25R,0.03543X0.03150*%
%ADD26R,0.02165X0.02165*%
%ADD27R,0.03150X0.03150*%
%ADD28R,0.05512X0.01378*%
%ADD29R,0.03150X0.03150*%
%ADD30R,0.13780X0.02362*%
%ADD31R,0.02362X0.13780*%
%ADD32R,0.01378X0.05315*%
%ADD33R,0.05315X0.01378*%
%ADD34R,0.02165X0.02165*%
%ADD35R,0.05906X0.06693*%
%ADD36R,0.07008X0.01654*%
%ADD37R,0.07087X0.05512*%
G36*
X184646Y240748D02*
X179333D01*
Y235435D01*
X184646D01*
Y240748D01*
D02*
G37*
G36*
Y246848D02*
X179333D01*
Y241535D01*
X184646D01*
Y246848D01*
D02*
G37*
G36*
X190746Y240748D02*
X185433D01*
Y235435D01*
X190746D01*
Y240748D01*
D02*
G37*
G36*
Y246848D02*
X185433D01*
Y241535D01*
X190746D01*
Y246848D01*
D02*
G37*
D15*
X344943Y128121D02*
X377423D01*
X344943Y59055D02*
Y128121D01*
X377559D02*
X377559Y355000D01*
X344943Y59055D02*
X377559D01*
Y0D02*
Y59055D01*
X0Y354724D02*
X159449D01*
X319882Y355000D02*
X377559Y355000D01*
X159449Y322342D02*
X319882D01*
Y354823D01*
X159449Y322342D02*
Y354724D01*
X0Y0D02*
Y354724D01*
Y0D02*
X377559D01*
D19*
X95059Y50717D02*
D03*
X87382D02*
D03*
X95059Y38000D02*
D03*
X87382D02*
D03*
X92500D02*
D03*
Y50717D02*
D03*
X89941Y38000D02*
D03*
Y50717D02*
D03*
X146339Y49858D02*
D03*
X138661D02*
D03*
X146339Y37142D02*
D03*
X138661D02*
D03*
X143780D02*
D03*
Y49858D02*
D03*
X141220Y37142D02*
D03*
Y49858D02*
D03*
D20*
X369094Y213835D02*
D03*
Y297890D02*
D03*
Y145768D02*
D03*
Y190453D02*
D03*
D21*
X357677Y287850D02*
D03*
Y282929D02*
D03*
Y278008D02*
D03*
Y273087D02*
D03*
Y268165D02*
D03*
Y263244D02*
D03*
Y258323D02*
D03*
Y253402D02*
D03*
Y248480D02*
D03*
Y243559D02*
D03*
Y238638D02*
D03*
Y233717D02*
D03*
Y228795D02*
D03*
Y223874D02*
D03*
Y165650D02*
D03*
Y180413D02*
D03*
Y175492D02*
D03*
Y170571D02*
D03*
Y160728D02*
D03*
Y155807D02*
D03*
D22*
X143913Y25854D02*
D03*
X149425D02*
D03*
X138402D02*
D03*
X132890D02*
D03*
X82000Y26500D02*
D03*
X87512D02*
D03*
X98535D02*
D03*
X93024D02*
D03*
X94244Y61000D02*
D03*
X99756D02*
D03*
X138756Y60500D02*
D03*
X133244D02*
D03*
X220866Y187860D02*
D03*
X226378D02*
D03*
X220866Y194026D02*
D03*
X226378D02*
D03*
X196063Y71653D02*
D03*
X190551D02*
D03*
X179527D02*
D03*
X185039D02*
D03*
X209449D02*
D03*
X214961D02*
D03*
X309449Y82284D02*
D03*
X314961D02*
D03*
X70866Y299213D02*
D03*
X65354D02*
D03*
X70866Y319291D02*
D03*
X65354D02*
D03*
X197638Y121260D02*
D03*
X192126D02*
D03*
X197638Y115354D02*
D03*
X192126D02*
D03*
X197638Y109449D02*
D03*
X192126D02*
D03*
X264173Y198031D02*
D03*
X258661D02*
D03*
X220866Y181693D02*
D03*
X226378D02*
D03*
X220866Y175526D02*
D03*
X226378D02*
D03*
X95669Y309842D02*
D03*
X101181D02*
D03*
X101181Y315748D02*
D03*
X95669D02*
D03*
X206988Y242815D02*
D03*
X212500D02*
D03*
X184252Y225984D02*
D03*
X189764D02*
D03*
X124803Y303937D02*
D03*
X130315D02*
D03*
X343386Y241850D02*
D03*
X337874D02*
D03*
X343386Y247850D02*
D03*
X337874D02*
D03*
X343386Y253850D02*
D03*
X337874D02*
D03*
X343386Y259850D02*
D03*
X337874D02*
D03*
X337874Y265850D02*
D03*
X343386D02*
D03*
X337874Y271850D02*
D03*
X343386D02*
D03*
X343386Y277850D02*
D03*
X337874D02*
D03*
X337874Y283850D02*
D03*
X343386D02*
D03*
X343386Y217850D02*
D03*
X337874D02*
D03*
X343386Y223850D02*
D03*
X337874D02*
D03*
X343386Y229850D02*
D03*
X337874D02*
D03*
X343386Y235850D02*
D03*
X337874D02*
D03*
X337874Y289850D02*
D03*
X343386D02*
D03*
X344571Y181512D02*
D03*
X339059D02*
D03*
X344571Y169512D02*
D03*
X339059D02*
D03*
X344571Y175512D02*
D03*
X339059D02*
D03*
X344571Y163512D02*
D03*
X339059D02*
D03*
X25394Y16732D02*
D03*
X19882D02*
D03*
X13976Y344488D02*
D03*
X19488D02*
D03*
X83465Y121260D02*
D03*
X88976D02*
D03*
X81496Y169291D02*
D03*
X87008D02*
D03*
X81496Y148819D02*
D03*
X87008D02*
D03*
X65354Y289370D02*
D03*
X70866D02*
D03*
X65354Y313386D02*
D03*
X70866D02*
D03*
X195669Y153937D02*
D03*
X190157D02*
D03*
X195669Y173622D02*
D03*
X190157D02*
D03*
X199606Y181496D02*
D03*
X194095D02*
D03*
X199606Y187402D02*
D03*
X194095D02*
D03*
X199606Y193307D02*
D03*
X194095D02*
D03*
X186614Y203150D02*
D03*
X181102D02*
D03*
X195669Y127165D02*
D03*
X190157D02*
D03*
X197638Y136221D02*
D03*
X192126D02*
D03*
X197638Y142126D02*
D03*
X192126D02*
D03*
X69095Y92520D02*
D03*
X74606D02*
D03*
X69095Y79724D02*
D03*
X74606D02*
D03*
X69095Y66929D02*
D03*
X74606D02*
D03*
X253937Y254331D02*
D03*
X259449D02*
D03*
D23*
X185039Y258858D02*
D03*
Y281803D02*
D03*
D24*
X104331Y302658D02*
D03*
X106890D02*
D03*
X109449D02*
D03*
X112008D02*
D03*
X114567D02*
D03*
X112008Y280020D02*
D03*
X114567D02*
D03*
X117126D02*
D03*
X109449D02*
D03*
X106890D02*
D03*
X104331D02*
D03*
X101772D02*
D03*
Y302658D02*
D03*
X117126D02*
D03*
X246549Y221094D02*
D03*
Y243732D02*
D03*
X249108D02*
D03*
X251667D02*
D03*
X254226D02*
D03*
X256785D02*
D03*
X259344D02*
D03*
X256785Y221094D02*
D03*
X259344D02*
D03*
X261903D02*
D03*
Y243732D02*
D03*
X254226Y221094D02*
D03*
X251667D02*
D03*
X249108D02*
D03*
D25*
X8500Y275000D02*
D03*
Y269488D02*
D03*
X161024Y90945D02*
D03*
Y96457D02*
D03*
X150787Y212598D02*
D03*
Y207087D02*
D03*
X166929Y101575D02*
D03*
Y107087D02*
D03*
X287795Y147244D02*
D03*
Y152756D02*
D03*
Y163779D02*
D03*
Y158268D02*
D03*
X246020Y206934D02*
D03*
Y201422D02*
D03*
X240020Y206934D02*
D03*
Y201422D02*
D03*
X94882Y285433D02*
D03*
Y290945D02*
D03*
X158366Y243307D02*
D03*
Y248819D02*
D03*
X213091Y237106D02*
D03*
Y231594D02*
D03*
X195472Y220669D02*
D03*
Y226181D02*
D03*
X218996Y237106D02*
D03*
Y231594D02*
D03*
X201378Y220669D02*
D03*
Y226181D02*
D03*
X207185Y237106D02*
D03*
Y231594D02*
D03*
X287795Y133071D02*
D03*
Y127559D02*
D03*
Y46850D02*
D03*
Y52362D02*
D03*
Y77559D02*
D03*
Y72047D02*
D03*
Y61024D02*
D03*
Y66535D02*
D03*
Y104331D02*
D03*
Y109843D02*
D03*
Y89764D02*
D03*
Y84252D02*
D03*
Y120866D02*
D03*
Y115354D02*
D03*
X106693Y330709D02*
D03*
Y336221D02*
D03*
X105508Y262205D02*
D03*
Y267717D02*
D03*
X111417Y262205D02*
D03*
Y267717D02*
D03*
X103720Y213756D02*
D03*
Y208244D02*
D03*
X339567Y13976D02*
D03*
Y19488D02*
D03*
X338583Y340551D02*
D03*
Y335039D02*
D03*
X178740Y101575D02*
D03*
Y107087D02*
D03*
X113779Y103937D02*
D03*
Y109449D02*
D03*
X131496Y101575D02*
D03*
Y107087D02*
D03*
X113500Y207244D02*
D03*
Y212756D02*
D03*
X119421Y207272D02*
D03*
Y212784D02*
D03*
X125500Y212756D02*
D03*
Y207244D02*
D03*
X172835Y101575D02*
D03*
Y107087D02*
D03*
X61024Y264961D02*
D03*
Y270472D02*
D03*
Y249606D02*
D03*
Y255118D02*
D03*
X233858Y238189D02*
D03*
Y243701D02*
D03*
X240158Y243701D02*
D03*
Y238189D02*
D03*
X253150Y274410D02*
D03*
Y268898D02*
D03*
X240158Y227165D02*
D03*
Y232677D02*
D03*
D26*
X65882Y205382D02*
D03*
Y201839D02*
D03*
X137008Y98622D02*
D03*
Y102165D02*
D03*
X67484Y133953D02*
D03*
Y137496D02*
D03*
D27*
X59382Y208130D02*
D03*
Y201634D02*
D03*
X60984Y133500D02*
D03*
Y139996D02*
D03*
X8500Y262496D02*
D03*
Y256000D02*
D03*
D28*
X173839Y250098D02*
D03*
Y247539D02*
D03*
Y244980D02*
D03*
Y242421D02*
D03*
Y239862D02*
D03*
Y237303D02*
D03*
Y234744D02*
D03*
Y232185D02*
D03*
X196239D02*
D03*
Y234744D02*
D03*
Y237303D02*
D03*
Y239862D02*
D03*
Y242421D02*
D03*
Y244980D02*
D03*
Y247539D02*
D03*
Y250098D02*
D03*
D29*
X68602Y85630D02*
D03*
X75098D02*
D03*
X68602Y72835D02*
D03*
X75098D02*
D03*
X68602Y99410D02*
D03*
X75098D02*
D03*
D30*
X240816Y148049D02*
D03*
Y153049D02*
D03*
Y158049D02*
D03*
Y163049D02*
D03*
X276249D02*
D03*
Y158049D02*
D03*
Y153049D02*
D03*
Y148049D02*
D03*
Y143049D02*
D03*
Y128049D02*
D03*
Y133049D02*
D03*
Y138049D02*
D03*
X240816Y143049D02*
D03*
Y138049D02*
D03*
Y133049D02*
D03*
Y128049D02*
D03*
Y61949D02*
D03*
Y66949D02*
D03*
Y71949D02*
D03*
Y76949D02*
D03*
X276249D02*
D03*
Y71949D02*
D03*
Y66949D02*
D03*
Y61949D02*
D03*
Y56949D02*
D03*
Y41949D02*
D03*
Y46949D02*
D03*
Y51949D02*
D03*
X240816Y56949D02*
D03*
Y51949D02*
D03*
Y46949D02*
D03*
Y41949D02*
D03*
Y104849D02*
D03*
Y109849D02*
D03*
Y114849D02*
D03*
Y119849D02*
D03*
X276249D02*
D03*
Y114849D02*
D03*
Y109849D02*
D03*
Y104849D02*
D03*
Y99849D02*
D03*
Y84849D02*
D03*
Y89849D02*
D03*
Y94849D02*
D03*
X240816Y99849D02*
D03*
Y94849D02*
D03*
Y89849D02*
D03*
Y84849D02*
D03*
D31*
X195153Y24674D02*
D03*
X190153D02*
D03*
X185153D02*
D03*
X180153D02*
D03*
Y60107D02*
D03*
X185153D02*
D03*
X190153D02*
D03*
X195153D02*
D03*
X200153D02*
D03*
X215153D02*
D03*
X210153D02*
D03*
X205153D02*
D03*
X200153Y24674D02*
D03*
X205153D02*
D03*
X210153D02*
D03*
X215153D02*
D03*
D32*
X103937Y116929D02*
D03*
X105905D02*
D03*
X107874D02*
D03*
X109843D02*
D03*
X111811D02*
D03*
X113779D02*
D03*
X115748D02*
D03*
X117717D02*
D03*
X119685D02*
D03*
X121653D02*
D03*
X123622D02*
D03*
X125591D02*
D03*
X127559D02*
D03*
X129528D02*
D03*
X131496D02*
D03*
X133465D02*
D03*
X135433D02*
D03*
X137402D02*
D03*
X139370D02*
D03*
X141339D02*
D03*
X143307D02*
D03*
X145276D02*
D03*
X147244D02*
D03*
X149213D02*
D03*
X151181D02*
D03*
X153150D02*
D03*
X155118D02*
D03*
X157087D02*
D03*
X159055D02*
D03*
X161024D02*
D03*
X162992D02*
D03*
X164961D02*
D03*
X166929D02*
D03*
X168898D02*
D03*
X170866D02*
D03*
X172835D02*
D03*
Y200591D02*
D03*
X170866D02*
D03*
X168898D02*
D03*
X166929D02*
D03*
X164961D02*
D03*
X162992D02*
D03*
X161024D02*
D03*
X159055D02*
D03*
X157087D02*
D03*
X155118D02*
D03*
X153150D02*
D03*
X151181D02*
D03*
X149213D02*
D03*
X147244D02*
D03*
X145276D02*
D03*
X143307D02*
D03*
X141339D02*
D03*
X139370D02*
D03*
X137402D02*
D03*
X135433D02*
D03*
X133465D02*
D03*
X131496D02*
D03*
X129528D02*
D03*
X127559D02*
D03*
X125591D02*
D03*
X123622D02*
D03*
X121653D02*
D03*
X119685D02*
D03*
X117717D02*
D03*
X115748D02*
D03*
X113779D02*
D03*
X111811D02*
D03*
X109843D02*
D03*
X107874D02*
D03*
X105905D02*
D03*
X103937D02*
D03*
D33*
X180217Y124311D02*
D03*
Y126279D02*
D03*
Y128248D02*
D03*
Y130217D02*
D03*
Y132185D02*
D03*
Y134153D02*
D03*
Y136122D02*
D03*
Y138091D02*
D03*
Y140059D02*
D03*
Y142028D02*
D03*
Y143996D02*
D03*
Y145965D02*
D03*
Y147933D02*
D03*
Y149902D02*
D03*
Y151870D02*
D03*
Y153839D02*
D03*
Y155807D02*
D03*
Y157776D02*
D03*
Y159744D02*
D03*
Y161713D02*
D03*
Y163681D02*
D03*
Y165650D02*
D03*
Y167618D02*
D03*
Y169587D02*
D03*
Y171555D02*
D03*
Y173524D02*
D03*
Y175492D02*
D03*
Y177461D02*
D03*
Y179429D02*
D03*
Y181398D02*
D03*
Y183366D02*
D03*
Y185335D02*
D03*
Y187303D02*
D03*
Y189272D02*
D03*
Y191240D02*
D03*
Y193209D02*
D03*
X96555D02*
D03*
Y191240D02*
D03*
Y189272D02*
D03*
Y187303D02*
D03*
Y185335D02*
D03*
Y183366D02*
D03*
Y181398D02*
D03*
Y179429D02*
D03*
Y177461D02*
D03*
Y175492D02*
D03*
Y173524D02*
D03*
Y171555D02*
D03*
Y169587D02*
D03*
Y167618D02*
D03*
Y165650D02*
D03*
Y163681D02*
D03*
Y161713D02*
D03*
Y159744D02*
D03*
Y157776D02*
D03*
Y155807D02*
D03*
Y153839D02*
D03*
Y151870D02*
D03*
Y149902D02*
D03*
Y147933D02*
D03*
Y145965D02*
D03*
Y143996D02*
D03*
Y142028D02*
D03*
Y140059D02*
D03*
Y138091D02*
D03*
Y136122D02*
D03*
Y134153D02*
D03*
Y132185D02*
D03*
Y130217D02*
D03*
Y128248D02*
D03*
Y126279D02*
D03*
Y124311D02*
D03*
D34*
X144488Y84252D02*
D03*
X148031D02*
D03*
D35*
X153150Y92638D02*
D03*
Y102638D02*
D03*
X144488D02*
D03*
Y92638D02*
D03*
D36*
X272992Y179626D02*
D03*
X249843D02*
D03*
X272992Y192421D02*
D03*
Y189862D02*
D03*
Y187303D02*
D03*
Y184744D02*
D03*
Y182185D02*
D03*
Y177067D02*
D03*
Y174508D02*
D03*
X249843D02*
D03*
Y177067D02*
D03*
Y182185D02*
D03*
Y184744D02*
D03*
Y187303D02*
D03*
Y189862D02*
D03*
Y192421D02*
D03*
D37*
X7874Y195276D02*
D03*
Y185039D02*
D03*
Y164173D02*
D03*
Y174409D02*
D03*
M02*
