%TF.GenerationSoftware,Altium Limited,Altium Designer,21.8.1 (53)*%
G04 Layer_Physical_Order=3*
G04 Layer_Color=128*
%FSLAX45Y45*%
%MOMM*%
%TF.SameCoordinates,27AF3B28-2B88-43EB-8C06-45BE792F9E07*%
%TF.FilePolarity,Negative*%
%TF.FileFunction,Copper,L3,Inr,Plane*%
%TF.Part,Single*%
G01*
G75*
%TA.AperFunction,NonConductor*%
%ADD50C,1.01600*%
%TA.AperFunction,ComponentPad*%
%ADD51C,4.11600*%
%ADD52C,1.91600*%
G04:AMPARAMS|DCode=53|XSize=2.424mm|YSize=2.424mm|CornerRadius=0mm|HoleSize=0mm|Usage=FLASHONLY|Rotation=0.000|XOffset=0mm|YOffset=0mm|HoleType=Round|Shape=Relief|Width=0.254mm|Gap=0.254mm|Entries=4|*
%AMTHD53*
7,0,0,2.42400,1.91600,0.25400,45*
%
%ADD53THD53*%
%ADD54C,1.81600*%
%ADD55O,1.86600X2.41600*%
%ADD56O,1.56600X2.21600*%
%ADD57C,1.82900*%
%ADD58C,2.03600*%
G04:AMPARAMS|DCode=59|XSize=2.544mm|YSize=2.544mm|CornerRadius=0mm|HoleSize=0mm|Usage=FLASHONLY|Rotation=0.000|XOffset=0mm|YOffset=0mm|HoleType=Round|Shape=Relief|Width=0.254mm|Gap=0.254mm|Entries=4|*
%AMTHD59*
7,0,0,2.54400,2.03600,0.25400,45*
%
%ADD59THD59*%
%ADD60C,4.19600*%
%TA.AperFunction,ViaPad*%
%ADD61C,1.26600*%
%ADD62C,1.31600*%
%TA.AperFunction,TestPad*%
%ADD63C,1.26600*%
%TA.AperFunction,NonConductor*%
%ADD64C,0.25400*%
D50*
X9588500D01*
Y9017000D01*
X0D02*
X9588500D01*
X0Y0D02*
Y9017000D01*
D51*
X3479800Y8178800D02*
D03*
X5978800D02*
D03*
D52*
X4181300Y8051800D02*
D03*
X4318300Y8305800D02*
D03*
X4455300Y8051800D02*
D03*
X4592300Y8305800D02*
D03*
X4729300Y8051800D02*
D03*
X5003300D02*
D03*
X5140300Y8305800D02*
D03*
D53*
X4866300D02*
D03*
X5277300Y8051800D02*
D03*
D54*
X7391400Y8496300D02*
D03*
X7891400D02*
D03*
D55*
X7268900Y8391300D02*
D03*
X8013900D02*
D03*
D56*
X7253900Y8771300D02*
D03*
X8028900D02*
D03*
D57*
X762500Y4000300D02*
D03*
Y7385300D02*
D03*
D58*
X8572500Y2667000D02*
D03*
Y2921000D02*
D03*
Y3429000D02*
D03*
Y3175000D02*
D03*
Y3937000D02*
D03*
Y4191000D02*
D03*
Y4445000D02*
D03*
Y4953000D02*
D03*
Y4699000D02*
D03*
Y5461000D02*
D03*
Y5969000D02*
D03*
Y5207000D02*
D03*
Y5715000D02*
D03*
Y3683000D02*
D03*
Y2413000D02*
D03*
X8318500Y6477000D02*
D03*
Y5715000D02*
D03*
Y5969000D02*
D03*
Y6223000D02*
D03*
Y5461000D02*
D03*
Y4953000D02*
D03*
Y7747000D02*
D03*
Y7493000D02*
D03*
Y6985000D02*
D03*
Y6731000D02*
D03*
Y7239000D02*
D03*
Y5207000D02*
D03*
X8572500Y1397000D02*
D03*
Y2159000D02*
D03*
Y1651000D02*
D03*
X8318500Y1905000D02*
D03*
Y1651000D02*
D03*
X8572500Y1905000D02*
D03*
X8318500Y1397000D02*
D03*
Y2159000D02*
D03*
Y2667000D02*
D03*
Y2921000D02*
D03*
Y3175000D02*
D03*
Y3429000D02*
D03*
Y3683000D02*
D03*
Y3937000D02*
D03*
Y4445000D02*
D03*
Y4699000D02*
D03*
Y2413000D02*
D03*
Y4191000D02*
D03*
X8572500Y6731000D02*
D03*
Y6477000D02*
D03*
Y7239000D02*
D03*
Y6223000D02*
D03*
Y7747000D02*
D03*
Y6985000D02*
D03*
Y7493000D02*
D03*
X9080500Y2667000D02*
D03*
Y2921000D02*
D03*
Y3429000D02*
D03*
Y3175000D02*
D03*
Y3937000D02*
D03*
Y4191000D02*
D03*
Y4953000D02*
D03*
Y5461000D02*
D03*
Y5969000D02*
D03*
Y5207000D02*
D03*
Y5715000D02*
D03*
Y3683000D02*
D03*
Y2413000D02*
D03*
X8826500Y6477000D02*
D03*
Y5715000D02*
D03*
Y5969000D02*
D03*
Y6223000D02*
D03*
Y5461000D02*
D03*
Y4953000D02*
D03*
Y7747000D02*
D03*
Y7493000D02*
D03*
Y6985000D02*
D03*
Y6731000D02*
D03*
Y7239000D02*
D03*
Y5207000D02*
D03*
X9080500Y1397000D02*
D03*
Y1651000D02*
D03*
X8826500Y1905000D02*
D03*
Y1651000D02*
D03*
X9080500Y1905000D02*
D03*
X8826500Y1397000D02*
D03*
Y2667000D02*
D03*
Y2921000D02*
D03*
Y3175000D02*
D03*
Y3429000D02*
D03*
Y3683000D02*
D03*
Y3937000D02*
D03*
Y2413000D02*
D03*
Y4191000D02*
D03*
X9080500Y6731000D02*
D03*
Y6477000D02*
D03*
Y7239000D02*
D03*
Y6223000D02*
D03*
Y7747000D02*
D03*
Y6985000D02*
D03*
Y7493000D02*
D03*
D59*
Y4445000D02*
D03*
Y4699000D02*
D03*
Y2159000D02*
D03*
X8826500D02*
D03*
Y4445000D02*
D03*
Y4699000D02*
D03*
D60*
X9169400Y469900D02*
D03*
X9080500Y8432800D02*
D03*
X457200Y8305800D02*
D03*
X508000Y889000D02*
D03*
D61*
X1661135Y4228993D02*
D03*
X2425675Y4782713D02*
D03*
X6446495Y2001413D02*
D03*
X6261075Y2161433D02*
D03*
X6012180Y1625600D02*
D03*
X381000Y386080D02*
D03*
Y2672080D02*
D03*
Y7244080D02*
D03*
X571500Y7625080D02*
D03*
X381000Y8768080D02*
D03*
X762000Y386080D02*
D03*
X952500Y767080D02*
D03*
X762000Y6482080D02*
D03*
Y7244080D02*
D03*
X952500Y7625080D02*
D03*
X762000Y8006080D02*
D03*
X1143000Y386080D02*
D03*
Y1148080D02*
D03*
X1333500Y4577080D02*
D03*
X1143000Y7244080D02*
D03*
Y8006080D02*
D03*
Y8768080D02*
D03*
X1524000Y8006080D02*
D03*
Y8768080D02*
D03*
X2095500Y1529080D02*
D03*
X1905000Y1910080D02*
D03*
X2095500Y4577080D02*
D03*
X1905000Y5720080D02*
D03*
Y6482080D02*
D03*
Y8768080D02*
D03*
X2476500Y1529080D02*
D03*
X2286000Y4196080D02*
D03*
Y6482080D02*
D03*
Y8006080D02*
D03*
X2476500Y8387080D02*
D03*
X2286000Y8768080D02*
D03*
X2667000Y386080D02*
D03*
X2857500Y767080D02*
D03*
X3048000Y386080D02*
D03*
X3238500Y767080D02*
D03*
X3048000Y4196080D02*
D03*
Y8768080D02*
D03*
X3429000Y386080D02*
D03*
Y4196080D02*
D03*
Y6482080D02*
D03*
Y8768080D02*
D03*
X3810000Y386080D02*
D03*
X4000500Y767080D02*
D03*
X3810000Y1148080D02*
D03*
Y8006080D02*
D03*
Y8768080D02*
D03*
X4191000Y386080D02*
D03*
X4381500Y3815080D02*
D03*
X4191000Y4196080D02*
D03*
Y6482080D02*
D03*
Y8768080D02*
D03*
X4572000Y386080D02*
D03*
X4762500Y767080D02*
D03*
X4572000Y4196080D02*
D03*
X4762500Y4577080D02*
D03*
X4572000Y8768080D02*
D03*
X4953000Y386080D02*
D03*
X5143500Y7625080D02*
D03*
X4953000Y8768080D02*
D03*
X5334000Y386080D02*
D03*
X5524500Y767080D02*
D03*
Y8387080D02*
D03*
X5334000Y8768080D02*
D03*
X5715000Y386080D02*
D03*
Y6482080D02*
D03*
Y8768080D02*
D03*
X6096000Y386080D02*
D03*
X6286500Y3053080D02*
D03*
Y7625080D02*
D03*
Y8387080D02*
D03*
X6096000Y8768080D02*
D03*
X6477000Y386080D02*
D03*
Y4196080D02*
D03*
Y7244080D02*
D03*
Y8006080D02*
D03*
Y8768080D02*
D03*
X6858000Y1910080D02*
D03*
Y7244080D02*
D03*
Y8006080D02*
D03*
X7048500Y8387080D02*
D03*
X6858000Y8768080D02*
D03*
X7239000Y2672080D02*
D03*
X7429500Y3053080D02*
D03*
Y3815080D02*
D03*
X7239000Y5720080D02*
D03*
Y7244080D02*
D03*
X7620000Y386080D02*
D03*
Y3434080D02*
D03*
X7810500Y3815080D02*
D03*
Y4577080D02*
D03*
Y5339080D02*
D03*
X7620000Y5720080D02*
D03*
X7810500Y6101080D02*
D03*
X7620000Y6482080D02*
D03*
X7810500Y6863080D02*
D03*
X7620000Y7244080D02*
D03*
X7810500Y7625080D02*
D03*
X7620000Y8768080D02*
D03*
X8001000Y386080D02*
D03*
X8191500Y767080D02*
D03*
Y1529080D02*
D03*
Y2291080D02*
D03*
Y3053080D02*
D03*
X8001000Y3434080D02*
D03*
X8191500Y3815080D02*
D03*
Y5339080D02*
D03*
X8001000Y5720080D02*
D03*
X8191500Y6101080D02*
D03*
X8001000Y6482080D02*
D03*
X8191500Y6863080D02*
D03*
X8001000Y7244080D02*
D03*
X8191500Y7625080D02*
D03*
Y8387080D02*
D03*
X8382000Y386080D02*
D03*
X8572500Y767080D02*
D03*
X8382000Y1148080D02*
D03*
X8572500Y1529080D02*
D03*
Y2291080D02*
D03*
Y3053080D02*
D03*
Y3815080D02*
D03*
Y5339080D02*
D03*
Y6101080D02*
D03*
Y6863080D02*
D03*
Y7625080D02*
D03*
Y8387080D02*
D03*
X8382000Y8768080D02*
D03*
X8763000Y386080D02*
D03*
Y1148080D02*
D03*
X8953500Y1529080D02*
D03*
Y3053080D02*
D03*
Y3815080D02*
D03*
Y5339080D02*
D03*
Y6101080D02*
D03*
Y6863080D02*
D03*
Y7625080D02*
D03*
X8763000Y8768080D02*
D03*
X9144000Y1148080D02*
D03*
X9334500Y1529080D02*
D03*
Y2291080D02*
D03*
Y3053080D02*
D03*
Y3815080D02*
D03*
Y5339080D02*
D03*
Y6101080D02*
D03*
Y6863080D02*
D03*
Y7625080D02*
D03*
X1318660Y2291080D02*
D03*
X3608076Y6866412D02*
D03*
X1905000Y7284320D02*
D03*
X2286000D02*
D03*
X7429500Y7625080D02*
D03*
X6667500D02*
D03*
X8763000Y8006080D02*
D03*
X8382000D02*
D03*
X7048500Y7625080D02*
D03*
X8001000Y8006080D02*
D03*
X9144000D02*
D03*
X7239000D02*
D03*
X7620000D02*
D03*
X5715000D02*
D03*
X1656080Y6972300D02*
D03*
X1979387Y7031334D02*
D03*
X1471139Y6108564D02*
D03*
X5323840Y1409700D02*
D03*
X3718560Y2095500D02*
D03*
X2586825Y3917254D02*
D03*
X2199640Y3616960D02*
D03*
X7444740Y7421880D02*
D03*
X7417661Y3616701D02*
D03*
X2672080Y160020D02*
D03*
X4276233Y2292543D02*
D03*
X3378200Y2288540D02*
D03*
X4064000Y2280920D02*
D03*
X3286760Y1831340D02*
D03*
X3743960Y1287780D02*
D03*
X2994660Y7503160D02*
D03*
X3106420Y7546340D02*
D03*
X6477000Y6685280D02*
D03*
X6789420Y1089660D02*
D03*
X2814320Y8564880D02*
D03*
X2865120Y8239760D02*
D03*
X1045204Y1576824D02*
D03*
X5623560Y4135120D02*
D03*
X4399922Y3013097D02*
D03*
X3690620Y2994660D02*
D03*
X2219960Y3020060D02*
D03*
X384584Y3801780D02*
D03*
X665480Y2509520D02*
D03*
X370840Y2179320D02*
D03*
X1971040Y4216400D02*
D03*
X1894347Y1489512D02*
D03*
X2984500Y1295400D02*
D03*
X3471964Y1043950D02*
D03*
X5051030Y1792390D02*
D03*
X3906520Y4127500D02*
D03*
X1094740Y1833880D02*
D03*
X2288540Y3177540D02*
D03*
X5254459Y1745346D02*
D03*
X1564640Y1239520D02*
D03*
X1498600Y3388360D02*
D03*
X1238717Y3382044D02*
D03*
X1498606Y3014333D02*
D03*
X1849120Y2311400D02*
D03*
X1496060Y2283460D02*
D03*
X1211580Y2392680D02*
D03*
X764540Y6944360D02*
D03*
X2491740Y3357880D02*
D03*
X3487420D02*
D03*
X4587240Y3350260D02*
D03*
X3903980Y5849620D02*
D03*
X3589020Y5842000D02*
D03*
X3378200Y6715760D02*
D03*
X3101340Y6461760D02*
D03*
X3197860Y5831840D02*
D03*
X3108960Y5529580D02*
D03*
X2600807Y6408326D02*
D03*
X2626360Y6316980D02*
D03*
X2774312Y6253480D02*
D03*
X2930162Y6621264D02*
D03*
X1488440Y6667500D02*
D03*
X5156200Y6596380D02*
D03*
X5971540Y5234940D02*
D03*
X6360160Y6355080D02*
D03*
X6642100Y5128260D02*
D03*
X7409180Y5019040D02*
D03*
X5303520Y4112260D02*
D03*
X5628640Y4366260D02*
D03*
X5849620Y4130040D02*
D03*
X3680460Y6840220D02*
D03*
X2153920Y4493260D02*
D03*
X1774775Y4358281D02*
D03*
X1229360Y2994660D02*
D03*
X2915920Y6824980D02*
D03*
X6286500Y7051040D02*
D03*
X6114452Y6149005D02*
D03*
X6162040Y7226300D02*
D03*
X6055360Y7388860D02*
D03*
X5948680Y6934200D02*
D03*
X756920Y5407660D02*
D03*
X6507480Y866140D02*
D03*
X6004560Y871220D02*
D03*
X6769100Y5527040D02*
D03*
X7373620Y2072640D02*
D03*
X5923280Y2326640D02*
D03*
X4165600Y2992120D02*
D03*
X3403600Y1551940D02*
D03*
X2613660Y1412240D02*
D03*
X4201160Y1300480D02*
D03*
X6002020Y4000500D02*
D03*
X6380480Y4333240D02*
D03*
X6230620Y4475480D02*
D03*
X6873240Y4302760D02*
D03*
X6045200Y4602480D02*
D03*
X6037580Y4757420D02*
D03*
X6141720Y4838700D02*
D03*
X5349240Y6162040D02*
D03*
X5461000Y6228080D02*
D03*
X5557520Y6294120D02*
D03*
X3769360Y6169660D02*
D03*
X3896360Y6263640D02*
D03*
X4023360Y6355080D02*
D03*
X4305300Y6548120D02*
D03*
X5560060Y6443980D02*
D03*
X2743200Y5595620D02*
D03*
X2611120Y5712460D02*
D03*
X2743200Y5392420D02*
D03*
X3124200Y5712460D02*
D03*
X4196080Y5649360D02*
D03*
X4038600D02*
D03*
X4272280Y5648960D02*
D03*
X2004060Y5704840D02*
D03*
X3685540Y5298440D02*
D03*
X4399280Y6672580D02*
D03*
X4881880Y4986020D02*
D03*
X4968240Y5024120D02*
D03*
X6108700Y5918200D02*
D03*
X5996940Y5895340D02*
D03*
X6405880Y6807200D02*
D03*
X3286760Y6990480D02*
D03*
X3022600Y2379980D02*
D03*
X3025140Y2984500D02*
D03*
X2001520Y2517140D02*
D03*
X2260560Y2320194D02*
D03*
X2750820Y2994660D02*
D03*
X3121660Y2997200D02*
D03*
X2227580Y3937000D02*
D03*
X3429000Y4041140D02*
D03*
X4551680Y4043680D02*
D03*
X1041400Y2176780D02*
D03*
X5933440Y3185160D02*
D03*
X6068553Y3246932D02*
D03*
X5887720Y2413000D02*
D03*
X5768340Y2402840D02*
D03*
X5763260Y2532380D02*
D03*
X6360160Y2463800D02*
D03*
X6220460Y2392680D02*
D03*
X6276340Y2270760D02*
D03*
X4658360Y2491740D02*
D03*
X3997960Y2062480D02*
D03*
X4126757Y2067959D02*
D03*
X3874751Y2062264D02*
D03*
X2997200Y1178560D02*
D03*
X3197860Y1102360D02*
D03*
X4500880Y1399540D02*
D03*
X4081780Y3017520D02*
D03*
X4521200Y3180080D02*
D03*
X4523740Y3014980D02*
D03*
X4284980Y3020060D02*
D03*
X4155440Y3365500D02*
D03*
X5156200Y3352800D02*
D03*
X5283200Y3350260D02*
D03*
X4338320Y1290320D02*
D03*
X3241040Y3030620D02*
D03*
X3395980Y3177540D02*
D03*
X3388360Y2989580D02*
D03*
X1973580Y3009900D02*
D03*
X2291080Y2971800D02*
D03*
X1856740Y3012440D02*
D03*
Y3365500D02*
D03*
X1973580Y3373120D02*
D03*
X2938780Y3388360D02*
D03*
X3065780Y3393440D02*
D03*
X4328160Y909320D02*
D03*
X4244340Y1038860D02*
D03*
X4500880Y698500D02*
D03*
X4033520Y3368040D02*
D03*
X4696460Y848360D02*
D03*
X4651842Y979002D02*
D03*
X1943100Y4384040D02*
D03*
X2196023Y4829617D02*
D03*
X812800Y3172460D02*
D03*
X941979Y3093720D02*
D03*
X693237Y3266623D02*
D03*
X4978400Y3263900D02*
D03*
X4876800Y3175000D02*
D03*
X4960620Y3096260D02*
D03*
X1229360Y3175000D02*
D03*
X5499100Y2700020D02*
D03*
X5793740Y6670040D02*
D03*
X815340Y1412240D02*
D03*
X1049020Y2923540D02*
D03*
X1036320Y3495040D02*
D03*
X762000Y4295140D02*
D03*
X764540Y4490720D02*
D03*
X1518920Y5181600D02*
D03*
X756920Y5204460D02*
D03*
X759460Y5593080D02*
D03*
X744220Y5793740D02*
D03*
Y6195060D02*
D03*
X762000Y6540500D02*
D03*
X756920Y6766560D02*
D03*
X1945640Y8328660D02*
D03*
X916940Y2379980D02*
D03*
X3835400Y5179060D02*
D03*
X7734300Y1049020D02*
D03*
X6804660Y1615440D02*
D03*
X6508297Y1622388D02*
D03*
X5501640Y1524000D02*
D03*
X7218680Y782320D02*
D03*
X7132320Y716280D02*
D03*
X1945640Y4922920D02*
D03*
X2886542Y5302418D02*
D03*
X1877060Y4986020D02*
D03*
X2854960Y5374640D02*
D03*
X3136900Y6004560D02*
D03*
X2712720Y6126480D02*
D03*
X256540Y4107180D02*
D03*
X403860Y4069080D02*
D03*
X3258820Y4251960D02*
D03*
X2975014Y4143233D02*
D03*
X5501640Y975360D02*
D03*
X4338320Y5529580D02*
D03*
X4129029Y5574399D02*
D03*
X3977640Y5369560D02*
D03*
X4008120Y5453380D02*
D03*
X7063740Y3114040D02*
D03*
X3507740Y7495540D02*
D03*
X3586480Y7297420D02*
D03*
X3241040Y5941460D02*
D03*
X5836920Y4572000D02*
D03*
X4882280Y5641340D02*
D03*
Y5445760D02*
D03*
X6979920Y3860800D02*
D03*
X927100Y2545080D02*
D03*
X1844040Y5402580D02*
D03*
X1478280Y5633720D02*
D03*
X1788160Y5308600D02*
D03*
X1282700Y4991100D02*
D03*
X1427480Y4968240D02*
D03*
X739079Y4892800D02*
D03*
X1267460Y5471160D02*
D03*
X1950720Y5473700D02*
D03*
X1016000Y5384800D02*
D03*
X2217420Y5595620D02*
D03*
X2296160Y5521560D02*
D03*
X1270000Y5567680D02*
D03*
X739079Y4692800D02*
D03*
X1612900Y7378700D02*
D03*
X7134860Y1678940D02*
D03*
X7289800Y612140D02*
D03*
X4335780Y7355840D02*
D03*
X4483100Y7292340D02*
D03*
X4320540Y6979920D02*
D03*
X7804727Y1357041D02*
D03*
X7482840Y1264920D02*
D03*
X7068820Y1612900D02*
D03*
X7160260Y5019040D02*
D03*
X6908800Y5623560D02*
D03*
X1811020Y7622140D02*
D03*
X1325880Y7538720D02*
D03*
X1447800Y7378700D02*
D03*
X1897380Y6633140D02*
D03*
X2273300Y6761480D02*
D03*
X2159000Y6810140D02*
D03*
X2110740Y7012940D02*
D03*
X6493169Y6074675D02*
D03*
X7002780Y5908040D02*
D03*
X3188802Y6986438D02*
D03*
X762000Y7086600D02*
D03*
X1310640Y7091680D02*
D03*
X751840Y5290820D02*
D03*
X734284Y5687894D02*
D03*
X1262380Y4691380D02*
D03*
X746760Y6286500D02*
D03*
X1579880Y6573520D02*
D03*
X1256195Y6287778D02*
D03*
X1788160Y6664960D02*
D03*
D62*
X5054600Y7505700D02*
D03*
X4503060Y1738282D02*
D03*
X5516880Y7655560D02*
D03*
X2783840Y8846820D02*
D03*
X8498840Y8412480D02*
D03*
X1502817Y3885669D02*
D03*
X1557500Y1892300D02*
D03*
X4732020Y7213600D02*
D03*
X1041400Y2755900D02*
D03*
X3027680Y2519680D02*
D03*
X5306060Y3002280D02*
D03*
X5019040Y693420D02*
D03*
X5138420Y688340D02*
D03*
X5229860Y891540D02*
D03*
X4917440Y1018540D02*
D03*
X4808220Y1503680D02*
D03*
X4566351Y1518603D02*
D03*
X4516120Y2105660D02*
D03*
X2621280Y5857240D02*
D03*
X2098040Y6466840D02*
D03*
X4894580Y6367780D02*
D03*
X6578600Y8534400D02*
D03*
X3136900Y8249920D02*
D03*
X2565400Y7465060D02*
D03*
X2837180Y4264660D02*
D03*
X2849880Y4577080D02*
D03*
X3378200Y4617720D02*
D03*
X6250565Y1115398D02*
D03*
X6257991Y1373823D02*
D03*
X7244080Y1206500D02*
D03*
X7409180Y8376920D02*
D03*
X7528560Y1968500D02*
D03*
X2595880Y464820D02*
D03*
X2164080Y185420D02*
D03*
X2427671Y187643D02*
D03*
X2611120Y7292340D02*
D03*
X2407920Y1678940D02*
D03*
X5300980Y2162020D02*
D03*
X4439814Y5265314D02*
D03*
X4419600Y6451600D02*
D03*
X4986020Y4889500D02*
D03*
X3886200Y6985480D02*
D03*
X6083300Y2969260D02*
D03*
X5499100Y2059460D02*
D03*
X5867400Y2880360D02*
D03*
X4597400Y4584700D02*
D03*
X3365500Y711200D02*
D03*
X3580048Y678752D02*
D03*
X2479040Y8232140D02*
D03*
X3474720Y4876800D02*
D03*
X2283460Y5229860D02*
D03*
X2028190Y5124450D02*
D03*
X1320800Y4495800D02*
D03*
X3614420Y4874260D02*
D03*
X4419600Y5885261D02*
D03*
X7670800Y2222500D02*
D03*
X4877280Y5854700D02*
D03*
X4927600Y5207000D02*
D03*
X2012400Y5854700D02*
D03*
X7005320Y2067560D02*
D03*
X8509000Y393700D02*
D03*
X5717540Y1028700D02*
D03*
X3340100Y7415400D02*
D03*
X4419600Y6910860D02*
D03*
X7543800Y7086600D02*
D03*
X3937000Y7415400D02*
D03*
X7543800Y6324600D02*
D03*
X3340100Y7277100D02*
D03*
X762000Y5085080D02*
D03*
X1270000Y5890260D02*
D03*
X3937000Y4813300D02*
D03*
X3543300Y4445000D02*
D03*
X4102100Y5168900D02*
D03*
X4292600Y4546600D02*
D03*
X4140200D02*
D03*
X241300Y5486400D02*
D03*
X762000Y5892800D02*
D03*
X1155700Y7658100D02*
D03*
X5717540Y1371600D02*
D03*
X337820Y3413760D02*
D03*
X241300Y1358900D02*
D03*
X5720080Y1191260D02*
D03*
X6261100Y1244600D02*
D03*
X723900Y8724900D02*
D03*
X1000760Y8536940D02*
D03*
X952500Y8343900D02*
D03*
X203200Y4495800D02*
D03*
X1828800Y7759700D02*
D03*
X1943100Y7861300D02*
D03*
X6794500Y457200D02*
D03*
X7416800Y279400D02*
D03*
Y431800D02*
D03*
X7594600Y988060D02*
D03*
X7640320Y1752600D02*
D03*
X7556500Y6578600D02*
D03*
X9372600Y5232400D02*
D03*
Y4025900D02*
D03*
X6802120Y1211580D02*
D03*
X2730500Y934720D02*
D03*
X596900Y241300D02*
D03*
D63*
X7062295Y4291889D02*
D03*
X7150100Y4363720D02*
D03*
D64*
X6096000Y2108200D02*
Y2857500D01*
X6845300D01*
X1905000Y2100580D02*
Y2895600D01*
X4424680D01*
X5015230Y2108200D02*
Y2895600D01*
X4424680D02*
X5015230D01*
Y2108200D02*
X6096000D01*
X6565900Y1612900D02*
X6621780Y1668780D01*
X1905000Y1612900D02*
Y2100580D01*
Y1612900D02*
X6565900D01*
X6621780Y1668780D02*
X6835140D01*
X6845300Y1678940D01*
Y533400D02*
Y1678940D01*
X5715000Y7404100D02*
X7594600D01*
X5524500Y7594600D02*
X5715000Y7404100D01*
X5130800Y7988300D02*
X5524500Y7594600D01*
X5130800Y7988300D02*
Y8191500D01*
X7747000Y3048000D02*
Y7251700D01*
X7183437Y3944938D02*
Y4325937D01*
X7302500Y4445000D01*
X7747000D01*
X7070725Y3832225D02*
X7183437Y3944938D01*
X7014369Y3775869D02*
X7070725Y3832225D01*
X6845300Y3606800D02*
X6901656Y3663156D01*
X7014369Y3775869D01*
X6845300Y2857500D02*
Y3606800D01*
X7200900Y3568700D02*
X7747000Y4114800D01*
X7200900Y533400D02*
Y3568700D01*
X6845300Y533400D02*
X7200900D01*
X8445500Y4559300D02*
X8470900Y4584700D01*
X8445500Y4064000D02*
Y4559300D01*
X8013700Y4064000D02*
X8445500D01*
X4711700Y8204200D02*
X8001000D01*
X8470900Y4584700D02*
X9588500Y4584700D01*
X8001000Y4491038D02*
Y4781550D01*
Y3556000D02*
Y3910012D01*
Y8140700D02*
Y8204200D01*
Y7850187D02*
Y8140700D01*
Y6978650D02*
Y7396162D01*
Y7850187D01*
Y3910012D02*
Y4491038D01*
Y4781550D02*
Y6978650D01*
Y3556000D02*
X9271000D01*
Y2032000D02*
Y3556000D01*
X8699500Y2032000D02*
X9271000D01*
X7594600Y7404100D02*
X7747000Y7251700D01*
Y3048000D02*
X8699500D01*
Y2032000D02*
Y3048000D01*
X4711700Y8204200D02*
Y8445500D01*
X1168400D02*
X4711700D01*
X1168400D02*
Y9017000D01*
%TF.MD5,f1ecd4cb7a794fb63686ba334527e2d3*%
M02*
