%TF.GenerationSoftware,Altium Limited,Altium Designer,21.8.1 (53)*%
G04 Layer_Color=32896*
%FSLAX45Y45*%
%MOMM*%
%TF.SameCoordinates,27AF3B28-2B88-43EB-8C06-45BE792F9E07*%
%TF.FilePolarity,Positive*%
%TF.FileFunction,Legend,Bot*%
%TF.Part,Single*%
G01*
G75*
%TA.AperFunction,NonConductor*%
%ADD64C,0.25400*%
%ADD70C,0.20000*%
%ADD71C,0.15240*%
%ADD72C,0.12700*%
%ADD73C,0.20320*%
D64*
X5312700Y7761800D02*
G03*
X5312700Y7761800I-25400J0D01*
G01*
X3263838Y1689075D02*
Y1562117D01*
X3238446Y1536725D01*
X3187663D01*
X3162271Y1562117D01*
Y1689075D01*
X3111488Y1536725D02*
X3060704D01*
X3086096D01*
Y1689075D01*
X3111488Y1663683D01*
X2882961Y1536725D02*
X2984529D01*
X2882961Y1638292D01*
Y1663683D01*
X2908353Y1689075D01*
X2959137D01*
X2984529Y1663683D01*
X7726618Y1295375D02*
Y1168417D01*
X7701226Y1143025D01*
X7650443D01*
X7625051Y1168417D01*
Y1295375D01*
X7574268Y1143025D02*
X7523484D01*
X7548876D01*
Y1295375D01*
X7574268Y1269983D01*
X7371133Y1143025D02*
Y1295375D01*
X7447309Y1219200D01*
X7345741D01*
X5196799Y2476895D02*
Y2349937D01*
X5171407Y2324545D01*
X5120623D01*
X5095232Y2349937D01*
Y2476895D01*
X4942881D02*
X4993665Y2451504D01*
X5044448Y2400720D01*
Y2349937D01*
X5019056Y2324545D01*
X4968273D01*
X4942881Y2349937D01*
Y2375328D01*
X4968273Y2400720D01*
X5044448D01*
X3977599Y2476895D02*
Y2349937D01*
X3952207Y2324545D01*
X3901423D01*
X3876032Y2349937D01*
Y2476895D01*
X3723681D02*
X3825248D01*
Y2400720D01*
X3774465Y2426112D01*
X3749073D01*
X3723681Y2400720D01*
Y2349937D01*
X3749073Y2324545D01*
X3799856D01*
X3825248Y2349937D01*
X4897079Y645135D02*
Y518177D01*
X4871687Y492785D01*
X4820903D01*
X4795512Y518177D01*
Y645135D01*
X4668553Y492785D02*
Y645135D01*
X4744728Y568960D01*
X4643161D01*
X2867619Y2476895D02*
Y2349937D01*
X2842227Y2324545D01*
X2791443D01*
X2766052Y2349937D01*
Y2476895D01*
X2715268Y2451504D02*
X2689876Y2476895D01*
X2639093D01*
X2613701Y2451504D01*
Y2426112D01*
X2639093Y2400720D01*
X2664485D01*
X2639093D01*
X2613701Y2375328D01*
Y2349937D01*
X2639093Y2324545D01*
X2689876D01*
X2715268Y2349937D01*
X1681439Y2476895D02*
Y2349937D01*
X1656047Y2324545D01*
X1605263D01*
X1579872Y2349937D01*
Y2476895D01*
X1427521Y2324545D02*
X1529088D01*
X1427521Y2426112D01*
Y2451504D01*
X1452913Y2476895D01*
X1503696D01*
X1529088Y2451504D01*
D70*
X3310480Y3680820D02*
G03*
X3310480Y3680820I-10000J0D01*
G01*
X2213200D02*
G03*
X2213200Y3680820I-10000J0D01*
G01*
X6730840Y1501140D02*
G03*
X6730840Y1501140I-10000J0D01*
G01*
X2770700Y961900D02*
G03*
X2770700Y961900I-10000J0D01*
G01*
X4433160Y3680820D02*
G03*
X4433160Y3680820I-10000J0D01*
G01*
X5087900Y1310920D02*
G03*
X5087900Y1310920I-10000J0D01*
G01*
X1123540Y3680820D02*
G03*
X1123540Y3680820I-10000J0D01*
G01*
X3325480Y2860820D02*
Y3540820D01*
X4355480Y2860820D02*
Y3540820D01*
X2228200Y2860820D02*
Y3540820D01*
X3258200Y2860820D02*
Y3540820D01*
X2846600Y990600D02*
X3276600D01*
X2846600Y1473200D02*
X3276600D01*
X5478160Y2860820D02*
Y3540820D01*
X4448160Y2860820D02*
Y3540820D01*
X2168540Y2860820D02*
Y3540820D01*
X1138540Y2860820D02*
Y3540820D01*
X2053240Y1203060D02*
X2168240D01*
X2053240D02*
Y1408060D01*
X2168240D01*
Y1203060D02*
Y1408060D01*
X2215800D02*
X2330800D01*
Y1203060D02*
Y1408060D01*
X2215800Y1203060D02*
X2330800D01*
X2215800D02*
Y1408060D01*
X2063400Y1051360D02*
X2178400D01*
Y846360D02*
Y1051360D01*
X2063400Y846360D02*
X2178400D01*
X2063400D02*
Y1051360D01*
X2215800Y846360D02*
X2330800D01*
X2215800D02*
Y1051360D01*
X2330800D01*
Y846360D02*
Y1051360D01*
X7550500Y552100D02*
Y667100D01*
X7345500Y552100D02*
X7550500D01*
X7345500D02*
Y667100D01*
X7550500D01*
Y717200D02*
Y832200D01*
X7345500Y717200D02*
X7550500D01*
X7345500D02*
Y832200D01*
X7550500D01*
X7080600Y221900D02*
Y336900D01*
X6875600Y221900D02*
X7080600D01*
X6875600D02*
Y336900D01*
X7080600D01*
X7136500Y221900D02*
Y336900D01*
X7341500D01*
Y221900D02*
Y336900D01*
X7136500Y221900D02*
X7341500D01*
X5016320Y3882040D02*
Y3997040D01*
X5221320D01*
Y3882040D02*
Y3997040D01*
X5016320Y3882040D02*
X5221320D01*
X5425620D02*
Y3997040D01*
X5220620Y3882040D02*
X5425620D01*
X5220620D02*
Y3997040D01*
X5425620D01*
X3887840Y3882040D02*
Y3997040D01*
X4092840D01*
Y3882040D02*
Y3997040D01*
X3887840Y3882040D02*
X4092840D01*
X4297860D02*
Y3997040D01*
X4092860Y3882040D02*
X4297860D01*
X4092860D02*
Y3997040D01*
X4297860D01*
X5124100Y1590220D02*
X5239100D01*
Y1385220D02*
Y1590220D01*
X5124100Y1385220D02*
X5239100D01*
X5124100D02*
Y1590220D01*
X5456100Y1076186D02*
Y1191186D01*
X5251100Y1076186D02*
X5456100D01*
X5251100D02*
Y1191186D01*
X5456100D01*
Y762920D02*
Y877920D01*
X5251100Y762920D02*
X5456100D01*
X5251100D02*
Y877920D01*
X5456100D01*
X2790560Y3882040D02*
Y3997040D01*
X2995560D01*
Y3882040D02*
Y3997040D01*
X2790560Y3882040D02*
X2995560D01*
X1704160D02*
Y3997040D01*
X1909160D01*
Y3882040D02*
Y3997040D01*
X1704160Y3882040D02*
X1909160D01*
X3201300D02*
Y3997040D01*
X2996300Y3882040D02*
X3201300D01*
X2996300D02*
Y3997040D01*
X3201300D01*
X2113460Y3882040D02*
Y3997040D01*
X1908460Y3882040D02*
X2113460D01*
X1908460D02*
Y3997040D01*
X2113460D01*
X3487240Y5111400D02*
Y5226400D01*
X3692240D01*
Y5111400D02*
Y5226400D01*
X3487240Y5111400D02*
X3692240D01*
X5456100Y919553D02*
Y1034553D01*
X5251100Y919553D02*
X5456100D01*
X5251100D02*
Y1034553D01*
X5456100D01*
Y1232819D02*
Y1347820D01*
X5251100Y1232819D02*
X5456100D01*
X5251100D02*
Y1347820D01*
X5456100D01*
X4971700Y1590220D02*
X5086700D01*
Y1385220D02*
Y1590220D01*
X4971700Y1385220D02*
X5086700D01*
X4971700D02*
Y1590220D01*
X7564300Y933100D02*
Y1048100D01*
X7359300Y933100D02*
X7564300D01*
X7359300D02*
Y1048100D01*
X7564300D01*
X7142300Y374300D02*
Y489300D01*
X7347300D01*
Y374300D02*
Y489300D01*
X7142300Y374300D02*
X7347300D01*
X7021900Y386900D02*
Y666900D01*
X6871900Y386900D02*
X7021900D01*
X6871900D02*
Y666900D01*
X7021900D01*
X6930320Y1726900D02*
Y2006900D01*
X7080320D01*
Y1726900D02*
Y2006900D01*
X6930320Y1726900D02*
X7080320D01*
X3481000Y710900D02*
Y990900D01*
X3631000D01*
Y710900D02*
Y990900D01*
X3481000Y710900D02*
X3631000D01*
X2546000Y1093100D02*
X2661000D01*
Y888100D02*
Y1093100D01*
X2546000Y888100D02*
X2661000D01*
X2546000D02*
Y1093100D01*
X4699900Y3882040D02*
Y3997040D01*
X4494900Y3882040D02*
X4699900D01*
X4494900D02*
Y3997040D01*
X4699900D01*
X3570320Y3882040D02*
Y3997040D01*
X3365320Y3882040D02*
X3570320D01*
X3365320D02*
Y3997040D01*
X3570320D01*
X4665080Y1334420D02*
Y1449420D01*
X4870080D01*
Y1334420D02*
Y1449420D01*
X4665080Y1334420D02*
X4870080D01*
X2472320Y3882040D02*
Y3997040D01*
X2267320Y3882040D02*
X2472320D01*
X2267320D02*
Y3997040D01*
X2472320D01*
X1271640Y3882040D02*
Y3997040D01*
X1476640D01*
Y3882040D02*
Y3997040D01*
X1271640Y3882040D02*
X1476640D01*
X3690800Y4959000D02*
Y5074000D01*
X3485800Y4959000D02*
X3690800D01*
X3485800D02*
Y5074000D01*
X3690800D01*
X3308000Y973000D02*
X3423000D01*
Y768000D02*
Y973000D01*
X3308000Y768000D02*
X3423000D01*
X3308000D02*
Y973000D01*
D71*
X4757420Y1259840D02*
G03*
X4818380Y1259840I30480J0D01*
G01*
X6767830Y999593D02*
Y1413407D01*
X7303770Y999593D02*
Y1413407D01*
X4607560Y762000D02*
X4968240D01*
X4607560Y1259840D02*
X4757420D01*
X4818380D01*
X4968240D01*
D72*
X6089500Y1376500D02*
X6459500D01*
X6089500Y1036500D02*
X6459500D01*
D73*
X3880252Y849196D02*
X3897179Y866124D01*
X3931035D01*
X3947963Y849196D01*
Y781484D01*
X3931035Y764557D01*
X3897179D01*
X3880252Y781484D01*
X3846396Y849196D02*
X3829468Y866124D01*
X3795612D01*
X3778684Y849196D01*
Y832268D01*
X3795612Y815340D01*
X3812540D01*
X3795612D01*
X3778684Y798412D01*
Y781484D01*
X3795612Y764557D01*
X3829468D01*
X3846396Y781484D01*
X3694045Y764557D02*
Y866124D01*
X3744828Y815340D01*
X3677117D01*
X2755032Y778076D02*
X2771959Y795004D01*
X2805815D01*
X2822743Y778076D01*
Y710364D01*
X2805815Y693437D01*
X2771959D01*
X2755032Y710364D01*
X2721176Y778076D02*
X2704248Y795004D01*
X2670392D01*
X2653464Y778076D01*
Y761148D01*
X2670392Y744220D01*
X2687320D01*
X2670392D01*
X2653464Y727292D01*
Y710364D01*
X2670392Y693437D01*
X2704248D01*
X2721176Y710364D01*
X2619608Y778076D02*
X2602681Y795004D01*
X2568825D01*
X2551897Y778076D01*
Y761148D01*
X2568825Y744220D01*
X2585753D01*
X2568825D01*
X2551897Y727292D01*
Y710364D01*
X2568825Y693437D01*
X2602681D01*
X2619608Y710364D01*
X3305368Y658696D02*
X3322295Y675624D01*
X3356151D01*
X3373079Y658696D01*
Y590984D01*
X3356151Y574057D01*
X3322295D01*
X3305368Y590984D01*
X3271512Y574057D02*
X3237656D01*
X3254584D01*
Y675624D01*
X3271512Y658696D01*
X3119161Y574057D02*
X3186872D01*
X3119161Y641768D01*
Y658696D01*
X3136089Y675624D01*
X3169944D01*
X3186872Y658696D01*
X2037097Y1541837D02*
X2138664D01*
Y1592621D01*
X2121736Y1609549D01*
X2087880D01*
X2070952Y1592621D01*
Y1541837D01*
Y1575693D02*
X2037097Y1609549D01*
Y1643405D02*
Y1677260D01*
Y1660332D01*
X2138664D01*
X2121736Y1643405D01*
X2138664Y1795755D02*
Y1728044D01*
X2087880D01*
X2104808Y1761900D01*
Y1778828D01*
X2087880Y1795755D01*
X2054024D01*
X2037097Y1778828D01*
Y1744972D01*
X2054024Y1728044D01*
X2121736Y1829611D02*
X2138664Y1846539D01*
Y1880395D01*
X2121736Y1897323D01*
X2054024D01*
X2037097Y1880395D01*
Y1846539D01*
X2054024Y1829611D01*
X2121736D01*
X2230136Y1541837D02*
X2331703D01*
Y1592621D01*
X2314776Y1609548D01*
X2280920D01*
X2263992Y1592621D01*
Y1541837D01*
Y1575693D02*
X2230136Y1609548D01*
Y1643404D02*
Y1677260D01*
Y1660332D01*
X2331703D01*
X2314776Y1643404D01*
X2230136Y1778827D02*
X2331703D01*
X2280920Y1728044D01*
Y1795755D01*
X2314776Y1829611D02*
X2331703Y1846539D01*
Y1880395D01*
X2314776Y1897322D01*
X2297848D01*
X2280920Y1880395D01*
X2263992Y1897322D01*
X2247064D01*
X2230136Y1880395D01*
Y1846539D01*
X2247064Y1829611D01*
X2263992D01*
X2280920Y1846539D01*
X2297848Y1829611D01*
X2314776D01*
X2280920Y1846539D02*
Y1880395D01*
X2090437Y365817D02*
X2192004D01*
Y416601D01*
X2175076Y433529D01*
X2141220D01*
X2124292Y416601D01*
Y365817D01*
Y399673D02*
X2090437Y433529D01*
Y467385D02*
Y501240D01*
Y484312D01*
X2192004D01*
X2175076Y467385D01*
X2090437Y602808D02*
X2192004D01*
X2141220Y552024D01*
Y619735D01*
X2192004Y653591D02*
Y721303D01*
X2175076D01*
X2107364Y653591D01*
X2090437D01*
X2235216Y368357D02*
X2336783D01*
Y419141D01*
X2319856Y436068D01*
X2286000D01*
X2269072Y419141D01*
Y368357D01*
Y402213D02*
X2235216Y436068D01*
Y469924D02*
Y503780D01*
Y486852D01*
X2336783D01*
X2319856Y469924D01*
X2235216Y605347D02*
X2336783D01*
X2286000Y554564D01*
Y622275D01*
X2336783Y723842D02*
Y656131D01*
X2286000D01*
X2302928Y689987D01*
Y706915D01*
X2286000Y723842D01*
X2252144D01*
X2235216Y706915D01*
Y673059D01*
X2252144Y656131D01*
X6443923Y1452897D02*
Y1554464D01*
X6393139D01*
X6376211Y1537536D01*
Y1503680D01*
X6393139Y1486752D01*
X6443923D01*
X6410067D02*
X6376211Y1452897D01*
X6342355D02*
X6308500D01*
X6325428D01*
Y1554464D01*
X6342355Y1537536D01*
X6206932Y1452897D02*
Y1554464D01*
X6257716Y1503680D01*
X6190005D01*
X6088437Y1452897D02*
X6156149D01*
X6088437Y1520608D01*
Y1537536D01*
X6105365Y1554464D01*
X6139221D01*
X6156149Y1537536D01*
X7945915Y556277D02*
Y657844D01*
X7895131D01*
X7878203Y640916D01*
Y607060D01*
X7895131Y590132D01*
X7945915D01*
X7912059D02*
X7878203Y556277D01*
X7844348D02*
X7810492D01*
X7827420D01*
Y657844D01*
X7844348Y640916D01*
X7708925Y556277D02*
Y657844D01*
X7759708Y607060D01*
X7691997D01*
X7658141Y556277D02*
X7624285D01*
X7641213D01*
Y657844D01*
X7658141Y640916D01*
X7980623Y721377D02*
Y822944D01*
X7929839D01*
X7912911Y806016D01*
Y772160D01*
X7929839Y755232D01*
X7980623D01*
X7946767D02*
X7912911Y721377D01*
X7879055D02*
X7845200D01*
X7862128D01*
Y822944D01*
X7879055Y806016D01*
X7743632Y721377D02*
Y822944D01*
X7794416Y772160D01*
X7726705D01*
X7692849Y806016D02*
X7675921Y822944D01*
X7642065D01*
X7625137Y806016D01*
Y738304D01*
X7642065Y721377D01*
X7675921D01*
X7692849Y738304D01*
Y806016D01*
X6807143Y215917D02*
Y317484D01*
X6756359D01*
X6739431Y300556D01*
Y266700D01*
X6756359Y249772D01*
X6807143D01*
X6773287D02*
X6739431Y215917D01*
X6705575D02*
X6671720D01*
X6688648D01*
Y317484D01*
X6705575Y300556D01*
X6620936D02*
X6604008Y317484D01*
X6570152D01*
X6553225Y300556D01*
Y283628D01*
X6570152Y266700D01*
X6587080D01*
X6570152D01*
X6553225Y249772D01*
Y232844D01*
X6570152Y215917D01*
X6604008D01*
X6620936Y232844D01*
X6519369D02*
X6502441Y215917D01*
X6468585D01*
X6451657Y232844D01*
Y300556D01*
X6468585Y317484D01*
X6502441D01*
X6519369Y300556D01*
Y283628D01*
X6502441Y266700D01*
X6451657D01*
X7531043Y76217D02*
Y177784D01*
X7480259D01*
X7463331Y160856D01*
Y127000D01*
X7480259Y110072D01*
X7531043D01*
X7497187D02*
X7463331Y76217D01*
X7429475D02*
X7395620D01*
X7412548D01*
Y177784D01*
X7429475Y160856D01*
X7344836D02*
X7327908Y177784D01*
X7294052D01*
X7277125Y160856D01*
Y143928D01*
X7294052Y127000D01*
X7310980D01*
X7294052D01*
X7277125Y110072D01*
Y93144D01*
X7294052Y76217D01*
X7327908D01*
X7344836Y93144D01*
X7243269Y160856D02*
X7226341Y177784D01*
X7192485D01*
X7175557Y160856D01*
Y143928D01*
X7192485Y127000D01*
X7175557Y110072D01*
Y93144D01*
X7192485Y76217D01*
X7226341D01*
X7243269Y93144D01*
Y110072D01*
X7226341Y127000D01*
X7243269Y143928D01*
Y160856D01*
X7226341Y127000D02*
X7192485D01*
X5012156Y4046277D02*
X5113724D01*
Y4097061D01*
X5096796Y4113989D01*
X5062940D01*
X5046012Y4097061D01*
Y4046277D01*
Y4080133D02*
X5012156Y4113989D01*
Y4147845D02*
Y4181700D01*
Y4164772D01*
X5113724D01*
X5096796Y4147845D01*
X5012156Y4300195D02*
Y4232484D01*
X5079868Y4300195D01*
X5096796D01*
X5113724Y4283268D01*
Y4249412D01*
X5096796Y4232484D01*
X5113724Y4334051D02*
Y4401763D01*
X5096796D01*
X5029084Y4334051D01*
X5012156D01*
X5212096Y4053897D02*
X5313663D01*
Y4104681D01*
X5296736Y4121608D01*
X5262880D01*
X5245952Y4104681D01*
Y4053897D01*
Y4087753D02*
X5212096Y4121608D01*
Y4155464D02*
Y4189320D01*
Y4172392D01*
X5313663D01*
X5296736Y4155464D01*
X5212096Y4307815D02*
Y4240104D01*
X5279808Y4307815D01*
X5296736D01*
X5313663Y4290887D01*
Y4257032D01*
X5296736Y4240104D01*
X5313663Y4409382D02*
X5296736Y4375527D01*
X5262880Y4341671D01*
X5229024D01*
X5212096Y4358599D01*
Y4392455D01*
X5229024Y4409382D01*
X5245952D01*
X5262880Y4392455D01*
Y4341671D01*
X3865896Y4051357D02*
X3967463D01*
Y4102141D01*
X3950536Y4119068D01*
X3916680D01*
X3899752Y4102141D01*
Y4051357D01*
Y4085213D02*
X3865896Y4119068D01*
Y4152924D02*
Y4186780D01*
Y4169852D01*
X3967463D01*
X3950536Y4152924D01*
X3865896Y4305275D02*
Y4237564D01*
X3933608Y4305275D01*
X3950536D01*
X3967463Y4288347D01*
Y4254492D01*
X3950536Y4237564D01*
X3967463Y4406842D02*
Y4339131D01*
X3916680D01*
X3933608Y4372987D01*
Y4389915D01*
X3916680Y4406842D01*
X3882824D01*
X3865896Y4389915D01*
Y4356059D01*
X3882824Y4339131D01*
X4241817Y4089457D02*
X4343384D01*
Y4140241D01*
X4326456Y4157169D01*
X4292600D01*
X4275672Y4140241D01*
Y4089457D01*
Y4123313D02*
X4241817Y4157169D01*
Y4191025D02*
Y4224880D01*
Y4207952D01*
X4343384D01*
X4326456Y4191025D01*
X4241817Y4343375D02*
Y4275664D01*
X4309528Y4343375D01*
X4326456D01*
X4343384Y4326448D01*
Y4292592D01*
X4326456Y4275664D01*
X4241817Y4428015D02*
X4343384D01*
X4292600Y4377231D01*
Y4444943D01*
X5123196Y1656137D02*
X5224763D01*
Y1706921D01*
X5207836Y1723848D01*
X5173980D01*
X5157052Y1706921D01*
Y1656137D01*
Y1689993D02*
X5123196Y1723848D01*
Y1757704D02*
Y1791560D01*
Y1774632D01*
X5224763D01*
X5207836Y1757704D01*
X5123196Y1910055D02*
Y1842344D01*
X5190908Y1910055D01*
X5207836D01*
X5224763Y1893127D01*
Y1859272D01*
X5207836Y1842344D01*
Y1943911D02*
X5224763Y1960839D01*
Y1994695D01*
X5207836Y2011622D01*
X5190908D01*
X5173980Y1994695D01*
Y1977767D01*
Y1994695D01*
X5157052Y2011622D01*
X5140124D01*
X5123196Y1994695D01*
Y1960839D01*
X5140124Y1943911D01*
X5880042Y1082903D02*
Y1184470D01*
X5829259D01*
X5812331Y1167542D01*
Y1133686D01*
X5829259Y1116758D01*
X5880042D01*
X5846187D02*
X5812331Y1082903D01*
X5778475D02*
X5744619D01*
X5761547D01*
Y1184470D01*
X5778475Y1167542D01*
X5626124Y1082903D02*
X5693836D01*
X5626124Y1150614D01*
Y1167542D01*
X5643052Y1184470D01*
X5676908D01*
X5693836Y1167542D01*
X5524557Y1082903D02*
X5592268D01*
X5524557Y1150614D01*
Y1167542D01*
X5541485Y1184470D01*
X5575341D01*
X5592268Y1167542D01*
X5850415Y769636D02*
Y871203D01*
X5799631D01*
X5782703Y854276D01*
Y820420D01*
X5799631Y803492D01*
X5850415D01*
X5816559D02*
X5782703Y769636D01*
X5748847D02*
X5714992D01*
X5731919D01*
Y871203D01*
X5748847Y854276D01*
X5596497Y769636D02*
X5664208D01*
X5596497Y837348D01*
Y854276D01*
X5613424Y871203D01*
X5647280D01*
X5664208Y854276D01*
X5562641Y769636D02*
X5528785D01*
X5545713D01*
Y871203D01*
X5562641Y854276D01*
X2854977Y4038657D02*
X2956544D01*
Y4089441D01*
X2939616Y4106369D01*
X2905760D01*
X2888832Y4089441D01*
Y4038657D01*
Y4072513D02*
X2854977Y4106369D01*
Y4140225D02*
Y4174080D01*
Y4157152D01*
X2956544D01*
X2939616Y4140225D01*
X2854977Y4292575D02*
Y4224864D01*
X2922688Y4292575D01*
X2939616D01*
X2956544Y4275648D01*
Y4241792D01*
X2939616Y4224864D01*
Y4326431D02*
X2956544Y4343359D01*
Y4377215D01*
X2939616Y4394143D01*
X2871904D01*
X2854977Y4377215D01*
Y4343359D01*
X2871904Y4326431D01*
X2939616D01*
X1752617Y4049661D02*
X1854184D01*
Y4100445D01*
X1837256Y4117373D01*
X1803400D01*
X1786472Y4100445D01*
Y4049661D01*
Y4083517D02*
X1752617Y4117373D01*
Y4151229D02*
Y4185084D01*
Y4168157D01*
X1854184D01*
X1837256Y4151229D01*
X1752617Y4235868D02*
Y4269724D01*
Y4252796D01*
X1854184D01*
X1837256Y4235868D01*
X1769544Y4320507D02*
X1752617Y4337435D01*
Y4371291D01*
X1769544Y4388219D01*
X1837256D01*
X1854184Y4371291D01*
Y4337435D01*
X1837256Y4320507D01*
X1820328D01*
X1803400Y4337435D01*
Y4388219D01*
X3070877Y4042041D02*
X3172444D01*
Y4092825D01*
X3155516Y4109753D01*
X3121660D01*
X3104732Y4092825D01*
Y4042041D01*
Y4075897D02*
X3070877Y4109753D01*
Y4143609D02*
Y4177464D01*
Y4160537D01*
X3172444D01*
X3155516Y4143609D01*
X3070877Y4228248D02*
Y4262104D01*
Y4245176D01*
X3172444D01*
X3155516Y4228248D01*
Y4312887D02*
X3172444Y4329815D01*
Y4363671D01*
X3155516Y4380599D01*
X3138588D01*
X3121660Y4363671D01*
X3104732Y4380599D01*
X3087804D01*
X3070877Y4363671D01*
Y4329815D01*
X3087804Y4312887D01*
X3104732D01*
X3121660Y4329815D01*
X3138588Y4312887D01*
X3155516D01*
X3121660Y4329815D02*
Y4363671D01*
X1998997Y4042041D02*
X2100564D01*
Y4092825D01*
X2083636Y4109753D01*
X2049780D01*
X2032852Y4092825D01*
Y4042041D01*
Y4075897D02*
X1998997Y4109753D01*
Y4143609D02*
Y4177464D01*
Y4160537D01*
X2100564D01*
X2083636Y4143609D01*
X1998997Y4228248D02*
Y4262104D01*
Y4245176D01*
X2100564D01*
X2083636Y4228248D01*
X2100564Y4312887D02*
Y4380599D01*
X2083636D01*
X2015924Y4312887D01*
X1998997D01*
X3414563Y5125737D02*
Y5227304D01*
X3363779D01*
X3346852Y5210376D01*
Y5176520D01*
X3363779Y5159592D01*
X3414563D01*
X3380707D02*
X3346852Y5125737D01*
X3262212D02*
Y5227304D01*
X3312996Y5176520D01*
X3245284D01*
X3211428Y5210376D02*
X3194501Y5227304D01*
X3160645D01*
X3143717Y5210376D01*
Y5142664D01*
X3160645Y5125737D01*
X3194501D01*
X3211428Y5142664D01*
Y5210376D01*
X5799623Y934736D02*
Y1036303D01*
X5748839D01*
X5731911Y1019376D01*
Y985520D01*
X5748839Y968592D01*
X5799623D01*
X5765767D02*
X5731911Y934736D01*
X5630344D02*
X5698055D01*
X5630344Y1002448D01*
Y1019376D01*
X5647272Y1036303D01*
X5681128D01*
X5698055Y1019376D01*
X5596488D02*
X5579560Y1036303D01*
X5545705D01*
X5528777Y1019376D01*
Y1002448D01*
X5545705Y985520D01*
X5528777Y968592D01*
Y951664D01*
X5545705Y934736D01*
X5579560D01*
X5596488Y951664D01*
Y968592D01*
X5579560Y985520D01*
X5596488Y1002448D01*
Y1019376D01*
X5579560Y985520D02*
X5545705D01*
X5774223Y1252236D02*
Y1353803D01*
X5723439D01*
X5706511Y1336876D01*
Y1303020D01*
X5723439Y1286092D01*
X5774223D01*
X5740367D02*
X5706511Y1252236D01*
X5604944D02*
X5672655D01*
X5604944Y1319948D01*
Y1336876D01*
X5621872Y1353803D01*
X5655728D01*
X5672655Y1336876D01*
X5571088Y1353803D02*
X5503377D01*
Y1336876D01*
X5571088Y1269164D01*
Y1252236D01*
X4960636Y1660357D02*
X5062203D01*
Y1711140D01*
X5045276Y1728068D01*
X5011420D01*
X4994492Y1711140D01*
Y1660357D01*
Y1694213D02*
X4960636Y1728068D01*
Y1829635D02*
Y1761924D01*
X5028348Y1829635D01*
X5045276D01*
X5062203Y1812708D01*
Y1778852D01*
X5045276Y1761924D01*
X5062203Y1931203D02*
X5045276Y1897347D01*
X5011420Y1863491D01*
X4977564D01*
X4960636Y1880419D01*
Y1914275D01*
X4977564Y1931203D01*
X4994492D01*
X5011420Y1914275D01*
Y1863491D01*
X7835032Y1021916D02*
X7851959Y1038844D01*
X7885815D01*
X7902743Y1021916D01*
Y954204D01*
X7885815Y937277D01*
X7851959D01*
X7835032Y954204D01*
X7750392Y937277D02*
Y1038844D01*
X7801176Y988060D01*
X7733464D01*
X7631897Y937277D02*
X7699608D01*
X7631897Y1004988D01*
Y1021916D01*
X7648825Y1038844D01*
X7682681D01*
X7699608Y1021916D01*
X7645384Y465656D02*
X7662312Y482584D01*
X7696167D01*
X7713095Y465656D01*
Y397944D01*
X7696167Y381017D01*
X7662312D01*
X7645384Y397944D01*
X7560744Y381017D02*
Y482584D01*
X7611528Y431800D01*
X7543817D01*
X7509961Y381017D02*
X7476105D01*
X7493033D01*
Y482584D01*
X7509961Y465656D01*
X6752992Y628216D02*
X6769919Y645144D01*
X6803775D01*
X6820703Y628216D01*
Y560504D01*
X6803775Y543577D01*
X6769919D01*
X6752992Y560504D01*
X6668352Y543577D02*
Y645144D01*
X6719136Y594360D01*
X6651424D01*
X6617568Y628216D02*
X6600641Y645144D01*
X6566785D01*
X6549857Y628216D01*
Y560504D01*
X6566785Y543577D01*
X6600641D01*
X6617568Y560504D01*
Y628216D01*
X6819032Y1855036D02*
X6835959Y1871964D01*
X6869815D01*
X6886743Y1855036D01*
Y1787324D01*
X6869815Y1770397D01*
X6835959D01*
X6819032Y1787324D01*
X6785176Y1855036D02*
X6768248Y1871964D01*
X6734392D01*
X6717464Y1855036D01*
Y1838108D01*
X6734392Y1821180D01*
X6751320D01*
X6734392D01*
X6717464Y1804252D01*
Y1787324D01*
X6734392Y1770397D01*
X6768248D01*
X6785176Y1787324D01*
X6683608D02*
X6666681Y1770397D01*
X6632825D01*
X6615897Y1787324D01*
Y1855036D01*
X6632825Y1871964D01*
X6666681D01*
X6683608Y1855036D01*
Y1838108D01*
X6666681Y1821180D01*
X6615897D01*
X4710716Y4118208D02*
X4727644Y4101281D01*
Y4067425D01*
X4710716Y4050497D01*
X4643004D01*
X4626076Y4067425D01*
Y4101281D01*
X4643004Y4118208D01*
X4626076Y4219776D02*
Y4152064D01*
X4693788Y4219776D01*
X4710716D01*
X4727644Y4202848D01*
Y4168992D01*
X4710716Y4152064D01*
X4727644Y4321343D02*
X4710716Y4287487D01*
X4676860Y4253632D01*
X4643004D01*
X4626076Y4270559D01*
Y4304415D01*
X4643004Y4321343D01*
X4659932D01*
X4676860Y4304415D01*
Y4253632D01*
X3533976Y4090268D02*
X3550903Y4073340D01*
Y4039485D01*
X3533976Y4022557D01*
X3466264D01*
X3449336Y4039485D01*
Y4073340D01*
X3466264Y4090268D01*
X3449336Y4191835D02*
Y4124124D01*
X3517048Y4191835D01*
X3533976D01*
X3550903Y4174908D01*
Y4141052D01*
X3533976Y4124124D01*
X3550903Y4293403D02*
Y4225691D01*
X3500120D01*
X3517048Y4259547D01*
Y4276475D01*
X3500120Y4293403D01*
X3466264D01*
X3449336Y4276475D01*
Y4242619D01*
X3466264Y4225691D01*
X4736232Y1603576D02*
X4753159Y1620504D01*
X4787015D01*
X4803943Y1603576D01*
Y1535864D01*
X4787015Y1518937D01*
X4753159D01*
X4736232Y1535864D01*
X4634664Y1518937D02*
X4702376D01*
X4634664Y1586648D01*
Y1603576D01*
X4651592Y1620504D01*
X4685448D01*
X4702376Y1603576D01*
X4550025Y1518937D02*
Y1620504D01*
X4600808Y1569720D01*
X4533097D01*
X2413836Y4087728D02*
X2430764Y4070801D01*
Y4036945D01*
X2413836Y4020017D01*
X2346124D01*
X2329197Y4036945D01*
Y4070801D01*
X2346124Y4087728D01*
X2329197Y4189296D02*
Y4121584D01*
X2396908Y4189296D01*
X2413836D01*
X2430764Y4172368D01*
Y4138512D01*
X2413836Y4121584D01*
Y4223152D02*
X2430764Y4240079D01*
Y4273935D01*
X2413836Y4290863D01*
X2396908D01*
X2379980Y4273935D01*
Y4257007D01*
Y4273935D01*
X2363052Y4290863D01*
X2346124D01*
X2329197Y4273935D01*
Y4240079D01*
X2346124Y4223152D01*
X1416452Y4133416D02*
X1433379Y4150344D01*
X1467235D01*
X1484163Y4133416D01*
Y4065704D01*
X1467235Y4048777D01*
X1433379D01*
X1416452Y4065704D01*
X1314884Y4048777D02*
X1382596D01*
X1314884Y4116488D01*
Y4133416D01*
X1331812Y4150344D01*
X1365668D01*
X1382596Y4133416D01*
X1213317Y4048777D02*
X1281028D01*
X1213317Y4116488D01*
Y4133416D01*
X1230245Y4150344D01*
X1264101D01*
X1281028Y4133416D01*
X3340928Y5047816D02*
X3357855Y5064744D01*
X3391711D01*
X3408639Y5047816D01*
Y4980104D01*
X3391711Y4963177D01*
X3357855D01*
X3340928Y4980104D01*
X3307072Y4963177D02*
X3273216D01*
X3290144D01*
Y5064744D01*
X3307072Y5047816D01*
X3222432Y4980104D02*
X3205504Y4963177D01*
X3171649D01*
X3154721Y4980104D01*
Y5047816D01*
X3171649Y5064744D01*
X3205504D01*
X3222432Y5047816D01*
Y5030888D01*
X3205504Y5013960D01*
X3154721D01*
%TF.MD5,e88b79c406e5351c318e299611b63ee8*%
M02*
