%TF.GenerationSoftware,Altium Limited,Altium Designer,21.8.1 (53)*%
G04 Layer_Color=65535*
%FSLAX45Y45*%
%MOMM*%
%TF.SameCoordinates,27AF3B28-2B88-43EB-8C06-45BE792F9E07*%
%TF.FilePolarity,Positive*%
%TF.FileFunction,Legend,Top*%
%TF.Part,Single*%
G01*
G75*
%TA.AperFunction,NonConductor*%
%ADD64C,0.25400*%
%ADD70C,0.20000*%
%ADD71C,0.15240*%
%ADD72C,0.12700*%
%ADD73C,0.20320*%
%ADD91C,0.25000*%
%ADD92C,0.10000*%
%ADD93C,0.33020*%
%ADD94C,0.38100*%
%ADD95R,0.40000X2.20000*%
%ADD96R,2.20000X0.40000*%
G36*
X5820812Y4018682D02*
X5825233Y4002471D01*
X5832602Y3986260D01*
X5835549Y3980365D01*
X5850287Y3965628D01*
X5865024Y3939101D01*
X5879761Y3915521D01*
X5882709Y3909626D01*
X5888604Y3903731D01*
X5891551Y3897836D01*
X5900393Y3877204D01*
X5903341Y3868362D01*
X5918078Y3853625D01*
X5921026Y3847730D01*
X5929868Y3838887D01*
X5928394Y3828571D01*
X5900393Y3830045D01*
X5888604Y3827097D01*
X5723546Y3830045D01*
X5717651Y3844782D01*
X5716177Y3849203D01*
X5710282Y3852151D01*
X5705861Y3856572D01*
X5694071Y3877204D01*
X5685229Y3886047D01*
X5682281Y3906679D01*
X5667544Y3921416D01*
X5661649Y3936153D01*
X5657228Y3940575D01*
X5651333Y3943522D01*
X5632175Y3980365D01*
X5629227Y3986260D01*
X5620385Y3995103D01*
X5611542Y4015735D01*
X5613016Y4020156D01*
X5633648Y4017208D01*
X5642491Y4020156D01*
X5663123D01*
X5674913Y4023103D01*
X5707335Y4020156D01*
X5716177Y4017208D01*
X5757442Y4020156D01*
X5766284Y4017208D01*
X5781021Y4023103D01*
X5804601Y4011314D01*
X5811970Y4021629D01*
X5816391Y4023103D01*
X5820812Y4018682D01*
D02*
G37*
G36*
X5564383D02*
X5571752Y3999524D01*
X5576173Y3986260D01*
X5577647Y3978891D01*
X5583542Y3975944D01*
X5590910Y3971523D01*
X5593858Y3965628D01*
X5599753Y3950890D01*
X5608595Y3936153D01*
X5614490Y3930258D01*
X5620385Y3915521D01*
X5623332Y3909626D01*
X5627754Y3905205D01*
X5633648Y3902258D01*
X5646912Y3877204D01*
X5658702Y3859519D01*
X5670492Y3838887D01*
X5673439Y3830045D01*
X5671966Y3828571D01*
X5493644Y3830045D01*
X5468591Y3828571D01*
X5461222Y3835940D01*
X5458275Y3850677D01*
X5443538Y3865414D01*
X5437642Y3880151D01*
X5433221Y3890468D01*
X5427326Y3893415D01*
X5419958Y3900784D01*
X5415537Y3919942D01*
X5405220Y3930258D01*
X5399325Y3944996D01*
X5390483Y3959733D01*
X5381641Y3968575D01*
X5369851Y3989208D01*
X5358061Y4006892D01*
X5359535Y4020156D01*
X5371325Y4017208D01*
X5380167Y4008366D01*
X5391957Y4011314D01*
X5400799Y4014261D01*
X5539330Y4011314D01*
X5545225Y4005418D01*
X5552593Y4006892D01*
X5555541Y4018682D01*
X5557015Y4023103D01*
X5564383Y4018682D01*
D02*
G37*
G36*
X5179740Y4040788D02*
X5187108Y4033419D01*
X5190056Y4021629D01*
X5191530Y4011314D01*
X5188582Y3999524D01*
X5182687Y3993629D01*
X5176793Y3990681D01*
X5156160Y3981839D01*
X5091316Y3984786D01*
X5082474Y3981839D01*
X5061842Y3984786D01*
X5014682Y3981839D01*
X4883520Y3977418D01*
X4827519Y3974470D01*
X4789202Y3968575D01*
X4765622Y3965628D01*
X4700778Y3959733D01*
X4688988Y3956786D01*
X4674251Y3953838D01*
X4656566Y3950890D01*
X4632986Y3947943D01*
X4618249Y3944996D01*
X4606459Y3942048D01*
X4590248Y3937627D01*
X4566669Y3934679D01*
X4563721D01*
X4544563Y3930258D01*
X4528352Y3925837D01*
X4516562Y3922890D01*
X4488561Y3918469D01*
X4454665Y3908152D01*
X4431085Y3905205D01*
X4410453Y3896363D01*
X4388347Y3891941D01*
X4376557Y3888994D01*
X4361820Y3883099D01*
X4350030Y3880151D01*
X4335293Y3877204D01*
X4320556Y3871309D01*
X4304345Y3866888D01*
X4292555Y3863940D01*
X4271923Y3855098D01*
X4260133Y3852151D01*
X4240975Y3844782D01*
X4215921Y3837413D01*
X4201184Y3834466D01*
X4180551Y3825624D01*
X4152551Y3815308D01*
X4133392Y3807939D01*
X4121602Y3804991D01*
X4100970Y3796149D01*
X4074443Y3784359D01*
X4062653Y3781412D01*
X4036126Y3769622D01*
X4016968Y3762253D01*
X4000757Y3754885D01*
X3986019Y3748990D01*
X3971282Y3740147D01*
X3955071Y3735726D01*
X3941807Y3731305D01*
X3930018Y3734252D01*
X3925596Y3747516D01*
X3928544Y3759306D01*
X4009599Y3796149D01*
X4015494Y3799097D01*
X4042021Y3810886D01*
X4050863Y3813834D01*
X4071496Y3822676D01*
X4086233Y3828571D01*
X4106865Y3837413D01*
X4139287Y3852151D01*
X4151077Y3855098D01*
X4156972Y3860993D01*
X4180551Y3866888D01*
X4212974Y3881625D01*
X4232132Y3888994D01*
X4255712Y3897836D01*
X4274870Y3905205D01*
X4291081Y3909626D01*
X4314661Y3918469D01*
X4366241Y3934679D01*
X4389821Y3940575D01*
X4404558Y3946469D01*
X4416348Y3949417D01*
X4438454Y3953838D01*
X4453191Y3959733D01*
X4467929Y3962680D01*
X4485613Y3965628D01*
X4509193Y3974470D01*
X4520983Y3977418D01*
X4548984Y3981839D01*
X4563721Y3987734D01*
X4575511Y3990681D01*
X4621196Y3998050D01*
X4637408Y4002471D01*
X4649197Y4005418D01*
X4669830Y4008366D01*
X4681620Y4011314D01*
X4697830Y4015735D01*
X4712568Y4018682D01*
X4742042Y4021629D01*
X4768569Y4024577D01*
X4783307Y4027525D01*
X4800991Y4030472D01*
X4840782Y4034893D01*
X4889415Y4039314D01*
X4929206Y4043736D01*
X4958680Y4046683D01*
X5165003Y4049630D01*
X5179740Y4040788D01*
D02*
G37*
G36*
X5893025Y4026051D02*
X5922499Y4014261D01*
X5931342Y4011314D01*
X5946079Y4017208D01*
X5977027Y4018682D01*
X5993238Y4014261D01*
X6071346Y4012787D01*
X6084610Y4014261D01*
X6091978Y4009840D01*
X6097873Y3986260D01*
X6112610Y3965628D01*
X6117032Y3949417D01*
X6121453Y3939101D01*
X6139138Y3921416D01*
X6145032Y3897836D01*
X6159770Y3888994D01*
X6167139Y3869836D01*
X6180402Y3856572D01*
X6183349Y3844782D01*
X6187771Y3840361D01*
X6196613Y3837413D01*
X6198087Y3832992D01*
X6181876Y3828571D01*
X6108189D01*
X5978501Y3831519D01*
X5974080Y3835940D01*
X5971132Y3847730D01*
X5959343Y3859519D01*
X5956395Y3865414D01*
X5941658Y3888994D01*
X5938710Y3894889D01*
X5929868Y3909626D01*
X5926921Y3918469D01*
X5906288Y3947943D01*
X5885656Y3986260D01*
X5879761Y3992155D01*
X5869445Y4014261D01*
X5882709Y4018682D01*
X5887130Y4028998D01*
X5893025Y4026051D01*
D02*
G37*
G36*
X3813593Y3712146D02*
X3810645Y3688567D01*
X3807698Y3679724D01*
X3804751Y3667934D01*
X3801803Y3659092D01*
X3797382Y3625196D01*
X3794434Y3595722D01*
X3788540Y3560352D01*
X3782645Y3513193D01*
X3779697Y3498456D01*
X3776750Y3480771D01*
X3769381Y3443928D01*
X3759065Y3433612D01*
X3738433Y3430664D01*
X3729590Y3433612D01*
X3725169Y3438033D01*
X3734012Y3458665D01*
X3736959Y3505824D01*
X3739906Y3535299D01*
Y3538246D01*
X3742854Y3550036D01*
X3748749Y3564774D01*
X3753170Y3604564D01*
X3756117Y3636986D01*
X3759065Y3660566D01*
X3763486Y3673830D01*
X3766434Y3697409D01*
X3779697Y3713620D01*
X3795908Y3712146D01*
X3809172Y3716568D01*
X3813593Y3712146D01*
D02*
G37*
G36*
X3193153Y3751937D02*
X3197574Y3738673D01*
X3194627Y3726884D01*
X3191679Y3694462D01*
X3188732Y3685619D01*
X3185784Y3667934D01*
X3193153Y3657619D01*
X3215259Y3659092D01*
X3224101Y3653197D01*
X3221154Y3626670D01*
X3207890Y3610459D01*
X3201995Y3604564D01*
X3187258Y3601617D01*
X3176942Y3591301D01*
X3173994Y3579511D01*
X3171047Y3558879D01*
X3173994Y3544141D01*
X3178416Y3539720D01*
X3207890Y3536773D01*
X3212311Y3532352D01*
X3207890Y3513193D01*
X3201995Y3498456D01*
X3193153Y3486666D01*
X3172521Y3483718D01*
X3159257Y3479297D01*
X3156310Y3467507D01*
X3151889Y3421822D01*
X3148941Y3410032D01*
X3144520Y3405611D01*
X3141572Y3399716D01*
X3137151Y3395295D01*
X3125362Y3392347D01*
X3104729Y3389400D01*
X3092939Y3392347D01*
X3088518Y3405611D01*
X3094413Y3429190D01*
X3097361Y3476350D01*
X3089992Y3483718D01*
X3044306Y3479297D01*
X3038411Y3473402D01*
X3035464Y3440980D01*
X3029569Y3426243D01*
X3025148Y3404137D01*
X3016305Y3395295D01*
X3004516Y3392347D01*
X2975041Y3389400D01*
X2970620Y3393821D01*
X2967673Y3405611D01*
Y3408558D01*
X2976515Y3461613D01*
X2979462Y3470455D01*
X2976515Y3476350D01*
X2972094Y3480771D01*
X2945566Y3483718D01*
X2941145Y3488140D01*
X2944093Y3508772D01*
X2955883Y3529404D01*
X2972094Y3536773D01*
X2977988Y3539720D01*
X2988305Y3550036D01*
X2991252Y3570669D01*
X2994199Y3582458D01*
X2992726Y3595722D01*
X2980936Y3598669D01*
X2960304Y3601617D01*
X2955883Y3606038D01*
X2958830Y3632565D01*
X2973567Y3653197D01*
X2991252Y3656145D01*
X3001568Y3663513D01*
X3008937Y3679724D01*
X3013358Y3722462D01*
X3019253Y3737200D01*
X3033990Y3751937D01*
X3054623Y3754885D01*
X3063465Y3751937D01*
X3075255Y3748990D01*
X3076728Y3735726D01*
X3073781Y3726884D01*
X3067886Y3676777D01*
X3070833Y3662040D01*
X3075255Y3657619D01*
X3103255Y3659092D01*
X3116519Y3657619D01*
X3123888Y3664987D01*
X3126835Y3676777D01*
X3131256Y3704778D01*
X3135677Y3718041D01*
X3138625Y3735726D01*
X3151889Y3751937D01*
X3181363Y3754885D01*
X3193153Y3751937D01*
D02*
G37*
G36*
X4936575Y3712146D02*
X4935101Y3645829D01*
X4940996Y3636986D01*
X5017630Y3634039D01*
X5022051Y3629618D01*
X5019103Y3594248D01*
X5011735Y3583932D01*
X4996997Y3578037D01*
X4976365Y3575090D01*
X4967523Y3578037D01*
X4955733Y3575090D01*
X4930680Y3576563D01*
X4924785Y3573616D01*
X4921837Y3561826D01*
X4918890Y3526456D01*
X4915942Y3517614D01*
X4911521Y3492561D01*
X4914469Y3486666D01*
X4926258Y3483718D01*
X4996997D01*
X5004366Y3476350D01*
X4999945Y3454244D01*
X4994050Y3439506D01*
X4989629Y3435085D01*
X4988155Y3430664D01*
X4976365Y3427717D01*
X4946891Y3424769D01*
X4855519Y3427717D01*
X4851098Y3432138D01*
X4845203Y3455717D01*
X4848151Y3464560D01*
X4851098Y3494035D01*
X4854046Y3514667D01*
X4858467Y3542668D01*
X4862888Y3555931D01*
X4859941Y3570669D01*
X4855519Y3575090D01*
X4811308Y3578037D01*
X4806886Y3582458D01*
X4809834Y3614880D01*
X4823098Y3631091D01*
X4834887Y3634039D01*
X4842256Y3635513D01*
X4858467Y3634039D01*
X4871730Y3641407D01*
X4877625Y3662040D01*
X4880573Y3703304D01*
X4877625Y3712146D01*
X4880573Y3720989D01*
X4923311Y3722462D01*
X4936575Y3712146D01*
D02*
G37*
G36*
X3664746Y3625196D02*
X3694221Y3622249D01*
X3701589Y3614880D01*
X3698642Y3555931D01*
X3695695Y3547089D01*
X3688326Y3510245D01*
X3685378Y3474876D01*
X3683905Y3461613D01*
X3686852Y3455717D01*
X3682431Y3445402D01*
X3667694Y3439506D01*
X3661799Y3433612D01*
X3650009Y3430664D01*
X3620535Y3433612D01*
X3611692Y3430664D01*
X3512952Y3432138D01*
X3505584Y3430664D01*
X3496741Y3433612D01*
X3490846Y3436559D01*
X3483478Y3443928D01*
X3486425Y3488140D01*
X3498215Y3505824D01*
X3495267Y3529404D01*
X3498215Y3538246D01*
X3501162Y3544141D01*
X3515900Y3547089D01*
X3532111Y3551510D01*
X3591060Y3548563D01*
X3599902Y3551510D01*
X3629377Y3548563D01*
X3638219Y3551510D01*
X3651483Y3558879D01*
X3654430Y3570669D01*
X3651483Y3579511D01*
X3644114Y3586880D01*
X3533584Y3588353D01*
X3520321Y3586880D01*
X3510005Y3597195D01*
X3512952Y3626670D01*
X3523268Y3628144D01*
X3538006Y3622249D01*
X3543900D01*
X3545374Y3623723D01*
X3558638Y3628144D01*
X3570428Y3622249D01*
X3585165Y3628144D01*
X3633798Y3626670D01*
X3655904Y3628144D01*
X3664746Y3625196D01*
D02*
G37*
G36*
X6402935D02*
X6430936Y3626670D01*
X6448621Y3623723D01*
X6463358Y3620775D01*
X6469253Y3614880D01*
X6466305Y3567721D01*
X6460410Y3552984D01*
X6457463Y3523509D01*
X6453042Y3516141D01*
X6432410Y3507298D01*
X6305669Y3504351D01*
X6295353Y3494035D01*
X6298300Y3485192D01*
X6302721Y3480771D01*
X6314511Y3477824D01*
X6425041Y3479297D01*
X6435357Y3474876D01*
X6445673Y3464560D01*
X6444199Y3442454D01*
X6445673Y3438033D01*
X6441252Y3433612D01*
X6432410Y3430664D01*
X6423567Y3433612D01*
X6274721Y3432138D01*
X6259983Y3438033D01*
X6251141Y3443928D01*
X6254088Y3455717D01*
X6257036Y3464560D01*
X6254088Y3482245D01*
X6259983Y3488140D01*
X6262931Y3541194D01*
X6271773Y3550036D01*
X6270299Y3578037D01*
X6273247Y3604564D01*
X6276194Y3610459D01*
X6277668Y3611933D01*
X6282089Y3616354D01*
X6287984Y3619302D01*
X6308617Y3628144D01*
X6346933Y3625196D01*
X6355776Y3628144D01*
X6402935Y3625196D01*
D02*
G37*
G36*
X5922499D02*
X5953448Y3626670D01*
X5977027Y3623723D01*
X5985870Y3614880D01*
X5988817Y3603091D01*
X5982922Y3588353D01*
X5978501Y3560352D01*
X5977027Y3547089D01*
X5979975Y3538246D01*
X5977027Y3511719D01*
X5974080Y3502877D01*
X5969659Y3477824D01*
X5965237Y3461613D01*
X5962290Y3443928D01*
X5943132Y3433612D01*
X5931342Y3430664D01*
X5809022Y3432138D01*
X5789864Y3430664D01*
X5770705Y3443928D01*
X5772179Y3480771D01*
X5770705Y3494035D01*
X5773653Y3502877D01*
X5776600Y3514667D01*
X5779548Y3532352D01*
X5786916Y3545615D01*
X5810496Y3551510D01*
X5888604Y3550036D01*
X5929868Y3552984D01*
X5941658Y3564774D01*
X5938710Y3579511D01*
X5919552Y3586880D01*
X5798706Y3589827D01*
X5794285Y3594248D01*
Y3608985D01*
Y3611933D01*
X5797232Y3626670D01*
X5813444Y3628144D01*
X5817865Y3623723D01*
X5819338Y3607512D01*
X5823759Y3608985D01*
X5826707Y3626670D01*
X5845865Y3628144D01*
X5854708Y3625196D01*
X5901867Y3628144D01*
X5922499Y3625196D01*
D02*
G37*
G36*
X5495118D02*
X5496592Y3608985D01*
X5493644Y3600143D01*
X5490697Y3594248D01*
X5486276Y3589827D01*
X5474486Y3586880D01*
X5372798Y3585406D01*
X5371325Y3586880D01*
X5362482Y3583932D01*
X5347745Y3580984D01*
X5340376Y3573616D01*
X5343324Y3555931D01*
X5347745Y3551510D01*
X5377220Y3548563D01*
X5412589Y3551510D01*
X5415537D01*
X5427326Y3548563D01*
X5465643Y3551510D01*
X5480381Y3548563D01*
X5487749Y3541194D01*
X5483328Y3486666D01*
X5480381Y3474876D01*
X5475959Y3461613D01*
X5473012Y3443928D01*
X5462696Y3433612D01*
X5428800Y3432138D01*
X5293217Y3435085D01*
X5282901Y3442454D01*
X5281427Y3452770D01*
X5285848Y3463086D01*
X5281427Y3476350D01*
X5297638Y3480771D01*
X5306481Y3477824D01*
X5421431Y3474876D01*
X5430274Y3471929D01*
X5437642Y3479297D01*
X5440590Y3491087D01*
X5437642Y3496982D01*
X5424379Y3513193D01*
X5403747Y3504351D01*
X5394904Y3507298D01*
X5316797Y3505824D01*
X5305007Y3508772D01*
X5294691Y3516141D01*
X5290270Y3520562D01*
X5293217Y3558879D01*
X5296164Y3579511D01*
X5299112Y3588353D01*
X5303533Y3607512D01*
X5309428Y3622249D01*
X5318271Y3625196D01*
X5330060Y3622249D01*
X5353640Y3628144D01*
X5393431Y3626670D01*
X5418484Y3628144D01*
X5427326Y3625196D01*
X5447959Y3628144D01*
X5465643Y3625196D01*
X5474486Y3628144D01*
X5495118Y3625196D01*
D02*
G37*
G36*
X6229035D02*
X6230509Y3606038D01*
X6223140Y3589827D01*
X6211350Y3586880D01*
X6111137Y3583932D01*
X6084610Y3580984D01*
X6071346Y3567721D01*
X6068399Y3555931D01*
X6065451Y3538246D01*
X6062504Y3529404D01*
X6061030Y3492561D01*
X6065451Y3482245D01*
X6072820Y3474876D01*
X6090504Y3477824D01*
X6093452Y3480771D01*
X6102294Y3477824D01*
X6211350Y3474876D01*
X6212824Y3470455D01*
X6206929Y3455717D01*
X6202508Y3439506D01*
X6187771Y3433612D01*
X6167139Y3430664D01*
X6097873Y3432138D01*
X6078715Y3430664D01*
X6069872Y3433612D01*
X6040398Y3430664D01*
X6022713Y3433612D01*
X6012397Y3443928D01*
X6009449Y3452770D01*
X6012397Y3461613D01*
X6016818Y3510245D01*
X6022713Y3542668D01*
X6030082Y3558879D01*
X6027134Y3579511D01*
X6030082Y3591301D01*
X6033029Y3614880D01*
X6037450Y3619302D01*
X6053661Y3623723D01*
X6065451Y3626670D01*
X6069872Y3628144D01*
X6078715Y3625196D01*
X6215771Y3623723D01*
X6221666Y3626670D01*
X6223140Y3628144D01*
X6229035Y3625196D01*
D02*
G37*
G36*
X5695545Y3622249D02*
X5704387Y3625196D01*
X5733862Y3622249D01*
X5741231Y3614880D01*
X5738283Y3588353D01*
X5735336Y3582458D01*
X5738283Y3576563D01*
X5735336Y3567721D01*
X5729441Y3517614D01*
X5725020Y3483718D01*
X5722072Y3448349D01*
X5719125Y3442454D01*
X5692598Y3430664D01*
X5663123Y3433612D01*
X5654281Y3430664D01*
X5615964Y3433612D01*
X5607121Y3430664D01*
X5576173Y3432138D01*
X5562909Y3418874D01*
X5561436Y3417401D01*
X5558488Y3408558D01*
X5555541Y3373189D01*
X5552593Y3364346D01*
X5549646Y3352557D01*
X5536382Y3348135D01*
X5511329Y3346662D01*
X5508381Y3355504D01*
X5517224Y3384978D01*
X5520171Y3440980D01*
X5523119Y3473402D01*
X5529014Y3488140D01*
X5533435Y3504351D01*
X5534909Y3511719D01*
X5531961Y3514667D01*
X5534909Y3523509D01*
X5539330Y3580984D01*
X5546698Y3597195D01*
X5549646Y3617828D01*
X5554067Y3622249D01*
X5567331Y3623723D01*
X5580594Y3622249D01*
X5589437Y3625196D01*
X5679334Y3626670D01*
X5695545Y3622249D01*
D02*
G37*
G36*
X4039073Y3619302D02*
X4040547Y3570669D01*
X4037600Y3561826D01*
X4034652Y3550036D01*
X4031705Y3526456D01*
X4028757Y3517614D01*
X4025810Y3479297D01*
X4022862Y3438033D01*
X4014020Y3417401D01*
X4011073Y3379084D01*
X4008125Y3370241D01*
X4005178Y3355504D01*
X3997809Y3348135D01*
X3977177Y3345188D01*
X3812119Y3348135D01*
X3810645Y3355504D01*
X3816540Y3361399D01*
X3819488Y3373189D01*
X3822435Y3379084D01*
X3829804Y3386452D01*
X3841594Y3389400D01*
X3956545Y3392347D01*
X3975703Y3405611D01*
X3972756Y3423296D01*
X3965387Y3430664D01*
X3947702Y3433612D01*
X3938860Y3430664D01*
X3829804Y3433612D01*
X3825383Y3438033D01*
X3822435Y3449823D01*
Y3452770D01*
Y3455717D01*
X3825383Y3488140D01*
X3834225Y3508772D01*
X3837173Y3547089D01*
X3840120Y3576563D01*
X3844541Y3598669D01*
X3856331Y3619302D01*
X3879911Y3625196D01*
X3943281Y3623723D01*
X3991914Y3625196D01*
X3997809Y3622249D01*
X4006651Y3625196D01*
X4039073Y3619302D01*
D02*
G37*
G36*
X3418633Y3623723D02*
X3437792Y3622249D01*
X3446634Y3625196D01*
X3458424Y3622249D01*
X3459898Y3608985D01*
X3448108Y3588353D01*
X3436318Y3585406D01*
X3428950Y3583932D01*
X3420107Y3586880D01*
X3346421Y3583932D01*
X3315472Y3585406D01*
X3306630Y3576563D01*
X3303683Y3564774D01*
X3299261Y3530878D01*
X3293367Y3516141D01*
X3288945Y3499930D01*
X3291893Y3485192D01*
X3296314Y3480771D01*
X3308104Y3477824D01*
X3390633Y3480771D01*
X3399475Y3477824D01*
X3443687Y3474876D01*
X3445161Y3467507D01*
X3442213Y3458665D01*
X3439266Y3452770D01*
X3430423Y3443928D01*
X3426002Y3433612D01*
X3375895Y3430664D01*
X3367053Y3433612D01*
X3328736Y3430664D01*
X3255050Y3433612D01*
X3247681Y3440980D01*
X3244733Y3452770D01*
X3247681Y3473402D01*
X3244733Y3482245D01*
X3247681Y3496982D01*
X3253576Y3511719D01*
X3256523Y3544141D01*
X3259471Y3552984D01*
X3256523Y3567721D01*
X3259471Y3576563D01*
X3262418Y3588353D01*
X3266840Y3610459D01*
X3278629Y3625196D01*
X3327262Y3623723D01*
X3328736Y3622249D01*
X3358211Y3625196D01*
X3406844Y3626670D01*
X3418633Y3623723D01*
D02*
G37*
G36*
X4155498Y3626670D02*
X4168762Y3625196D01*
X4177604Y3628144D01*
X4214447Y3626670D01*
X4251290Y3628144D01*
X4260133Y3625196D01*
X4277818Y3622249D01*
X4282239Y3617828D01*
X4285186Y3606038D01*
X4282239Y3597195D01*
X4277818Y3539720D01*
X4274870Y3527930D01*
X4268975Y3513193D01*
X4264554Y3502877D01*
X4267501Y3494035D01*
X4264554Y3473402D01*
X4261607Y3446875D01*
X4257186Y3442454D01*
X4251290Y3439506D01*
X4230658Y3430664D01*
X4192341Y3433612D01*
X4183499Y3430664D01*
X4154024D01*
X4086233Y3433612D01*
X4068548Y3439506D01*
X4067074Y3461613D01*
X4070022Y3470455D01*
X4074443Y3498456D01*
X4077390Y3513193D01*
X4080338Y3545615D01*
X4089180Y3548563D01*
X4158446Y3550036D01*
X4180551Y3548563D01*
X4189394Y3551510D01*
X4221816Y3548563D01*
X4235079Y3555931D01*
X4238027Y3567721D01*
X4239501Y3575090D01*
X4230658Y3583932D01*
X4192341Y3586880D01*
X4183499Y3583932D01*
X4145182Y3586880D01*
X4134866Y3585406D01*
X4102444Y3588353D01*
X4096549Y3591301D01*
X4093601Y3611933D01*
X4096549Y3623723D01*
X4100970Y3628144D01*
X4143708Y3629618D01*
X4155498Y3626670D01*
D02*
G37*
G36*
X4761201Y3625196D02*
X4771517Y3614880D01*
X4772991Y3613407D01*
X4774464Y3585406D01*
X4768569Y3570669D01*
X4764148Y3533825D01*
X4761201Y3495508D01*
X4758253Y3477824D01*
X4750885Y3452770D01*
X4746463Y3380557D01*
X4743516Y3368767D01*
X4739095Y3364346D01*
X4730252Y3349609D01*
X4712568Y3346662D01*
X4684567Y3345188D01*
X4681620Y3348135D01*
X4672777Y3345188D01*
X4630039Y3346662D01*
X4572563Y3345188D01*
X4563721Y3348135D01*
X4546036Y3345188D01*
X4541615Y3349609D01*
X4544563Y3367294D01*
X4563721Y3386452D01*
X4610881Y3389400D01*
X4690462Y3392347D01*
X4706673Y3405611D01*
X4703725Y3426243D01*
X4690462Y3430664D01*
X4597617Y3432138D01*
X4572563Y3430664D01*
X4559300Y3438033D01*
X4556352Y3455717D01*
X4559300Y3464560D01*
X4562247Y3511719D01*
X4568142Y3526456D01*
X4571090Y3561826D01*
X4576985Y3576563D01*
X4574037Y3588353D01*
X4576985Y3606038D01*
X4587301Y3625196D01*
X4599091Y3628144D01*
X4616775Y3625196D01*
X4619723Y3598669D01*
X4621196Y3567721D01*
X4612354Y3547089D01*
X4609407Y3526456D01*
X4604985Y3504351D01*
X4603512Y3488140D01*
X4613828Y3474876D01*
X4625618Y3477824D01*
X4634460Y3480771D01*
X4655092Y3477824D01*
X4703725Y3476350D01*
X4709620Y3482245D01*
X4715515Y3502877D01*
X4718463Y3526456D01*
X4724358Y3541194D01*
X4727305Y3579511D01*
X4730252Y3614880D01*
X4740569Y3628144D01*
X4761201Y3625196D01*
D02*
G37*
G36*
X4392768D02*
X4532773Y3626670D01*
X4535720Y3614880D01*
X4532773Y3603091D01*
X4525404Y3589827D01*
X4495930Y3586880D01*
X4428138Y3583932D01*
X4425191D01*
X4383926Y3580984D01*
X4379505Y3576563D01*
X4370663Y3544141D01*
X4367715Y3532352D01*
X4364768Y3494035D01*
X4361820Y3467507D01*
X4358873Y3458665D01*
X4355925Y3446875D01*
X4342662Y3433612D01*
X4322029Y3430664D01*
X4311713Y3435085D01*
X4316135Y3460139D01*
X4319082Y3489613D01*
X4322029Y3513193D01*
X4327925Y3527930D01*
X4333819Y3557405D01*
X4335293Y3561826D01*
X4332346Y3570669D01*
X4330872Y3578037D01*
X4333819Y3595722D01*
X4336767Y3607512D01*
X4344135Y3617828D01*
X4348557Y3622249D01*
X4372136Y3625196D01*
X4380979Y3628144D01*
X4392768Y3625196D01*
D02*
G37*
G36*
X5250479Y3634039D02*
X5260795Y3626670D01*
X5263742Y3614880D01*
X5260795Y3555931D01*
X5257847Y3547089D01*
X5254900Y3523509D01*
X5251953Y3514667D01*
X5244584Y3454244D01*
X5238689Y3439506D01*
X5229847Y3430664D01*
X5209214Y3424769D01*
X5041209Y3427717D01*
X5036788Y3432138D01*
X5030893Y3452770D01*
X5033841Y3491087D01*
X5036788Y3511719D01*
X5041209Y3539720D01*
X5044157Y3551510D01*
X5047104Y3578037D01*
X5050052Y3601617D01*
X5055947Y3616354D01*
X5061842Y3625196D01*
X5063315Y3626670D01*
X5067736Y3631091D01*
X5082474Y3636986D01*
X5250479Y3634039D01*
D02*
G37*
G36*
X3268313Y3323082D02*
X3265366Y3317187D01*
X3260944Y3312766D01*
X3255050Y3309818D01*
X3243260Y3298028D01*
X3237365Y3295081D01*
X3228522Y3286239D01*
X3222628Y3283291D01*
X3210838Y3271501D01*
X3204943Y3268554D01*
X3196101Y3259712D01*
X3181363Y3250869D01*
X3172521Y3242027D01*
X3168100Y3240553D01*
X3165152Y3234658D01*
X3160731Y3230237D01*
X3151889Y3227289D01*
X3145994Y3218447D01*
X3138625Y3216973D01*
X3141572Y3225816D01*
X3153362Y3234658D01*
X3156310Y3240553D01*
X3169573Y3253817D01*
X3182837Y3261185D01*
X3185784Y3267080D01*
X3190205Y3271501D01*
X3196101Y3274449D01*
X3201995Y3280344D01*
X3203469Y3281818D01*
X3210838Y3289186D01*
X3215259Y3290660D01*
X3216733Y3295081D01*
X3222628Y3298028D01*
X3229996Y3302450D01*
X3232944Y3308345D01*
X3237365Y3312766D01*
X3250628Y3320135D01*
X3253576Y3326029D01*
X3260944Y3330451D01*
X3268313Y3323082D01*
D02*
G37*
G36*
X3132730Y3211079D02*
X3125362Y3203710D01*
X3122414D01*
X3120940Y3205184D01*
X3128309Y3212552D01*
X3132730Y3211079D01*
D02*
G37*
G36*
X3115045Y3196341D02*
Y3193394D01*
X3104729Y3188973D01*
X3103255Y3193394D01*
X3107677Y3197815D01*
X3115045Y3199289D01*
Y3196341D01*
D02*
G37*
G36*
X3097361Y3181604D02*
X3094413Y3175709D01*
X3087044Y3174235D01*
X3085571Y3178657D01*
X3089992Y3183078D01*
X3095887D01*
X3097361Y3181604D01*
D02*
G37*
G36*
X3067886Y3155077D02*
Y3152129D01*
X3063465Y3147708D01*
X3059044Y3149182D01*
X3061991Y3155077D01*
X3066412Y3156550D01*
X3067886Y3155077D01*
D02*
G37*
%LPC*%
G36*
X5704387Y3928785D02*
X5702914Y3921416D01*
X5704387Y3919942D01*
X5710282Y3916995D01*
X5711756Y3927311D01*
X5704387Y3928785D01*
D02*
G37*
G36*
X5960816Y3934679D02*
X5956395Y3930258D01*
X5953448Y3921416D01*
X5957869Y3916995D01*
X5962290Y3921416D01*
Y3927311D01*
Y3930258D01*
X5960816Y3934679D01*
D02*
G37*
G36*
X3098834Y3598669D02*
X3081150D01*
X3057570Y3595722D01*
X3053149Y3579511D01*
X3051675Y3548563D01*
X3057570Y3539720D01*
X3082623Y3541194D01*
X3095887Y3539720D01*
X3109150Y3550036D01*
X3112098Y3570669D01*
X3110624Y3595722D01*
X3098834Y3598669D01*
D02*
G37*
G36*
X3602850Y3507298D02*
X3599902D01*
X3546848Y3504351D01*
X3527689Y3491087D01*
X3530637Y3485192D01*
X3535058Y3480771D01*
X3546848Y3477824D01*
X3644114Y3480771D01*
X3651483Y3488140D01*
X3650009Y3501403D01*
X3638219Y3504351D01*
X3602850Y3507298D01*
D02*
G37*
G36*
X6314511Y3604564D02*
X6313038Y3603091D01*
X6314511Y3601617D01*
X6315985Y3603091D01*
X6314511Y3604564D01*
D02*
G37*
G36*
X6299774Y3566247D02*
X6298300Y3564774D01*
X6299774Y3563300D01*
X6301248Y3564774D01*
X6299774Y3566247D01*
D02*
G37*
G36*
X6349881Y3589827D02*
X6341038Y3586880D01*
X6323354Y3583932D01*
X6318932Y3579511D01*
X6315985Y3564774D01*
X6323354Y3551510D01*
X6341038Y3548563D01*
X6349881Y3551510D01*
X6414725Y3554457D01*
X6419146Y3558879D01*
X6422094Y3564774D01*
X6426515Y3575090D01*
X6417672Y3583932D01*
X6397040Y3586880D01*
X6358723D01*
X6357249Y3588353D01*
X6349881Y3589827D01*
D02*
G37*
G36*
X6299774Y3533825D02*
X6295353Y3529404D01*
Y3526456D01*
X6299774Y3524983D01*
X6301248Y3532352D01*
X6299774Y3533825D01*
D02*
G37*
G36*
X6279142Y3466034D02*
X6271773Y3461613D01*
X6274721Y3452770D01*
X6282089Y3451296D01*
X6283563Y3452770D01*
X6285037Y3454244D01*
X6286510Y3458665D01*
X6279142Y3466034D01*
D02*
G37*
G36*
X5904815Y3510245D02*
X5885656Y3505824D01*
X5875340Y3504351D01*
X5860603Y3510245D01*
X5848813Y3507298D01*
X5834076Y3510245D01*
X5822286Y3498456D01*
X5816391Y3495508D01*
X5814917Y3491087D01*
X5825233Y3480771D01*
X5831128Y3477824D01*
X5839971Y3474876D01*
X5851760Y3477824D01*
X5857655D01*
X5922499Y3480771D01*
X5938710Y3488140D01*
X5935763Y3494035D01*
X5904815Y3510245D01*
D02*
G37*
G36*
X5798706Y3498456D02*
X5794285Y3488140D01*
X5798706Y3483718D01*
X5803127Y3488140D01*
Y3494035D01*
X5801654Y3495508D01*
X5798706Y3498456D01*
D02*
G37*
G36*
X5904815Y3454244D02*
X5903341Y3452770D01*
X5907762Y3451296D01*
X5909236Y3452770D01*
X5904815Y3454244D01*
D02*
G37*
G36*
X6058082Y3589827D02*
X6056609Y3588353D01*
X6058082Y3586880D01*
X6059556Y3588353D01*
X6058082Y3589827D01*
D02*
G37*
G36*
X6033029Y3496982D02*
X6030082Y3488140D01*
X6034503Y3483718D01*
X6040398Y3486666D01*
X6041871Y3494035D01*
X6040398Y3495508D01*
X6033029Y3496982D01*
D02*
G37*
G36*
X5680808Y3586880D02*
X5642491Y3583932D01*
X5633648Y3586880D01*
X5621859Y3583932D01*
X5592384Y3580984D01*
X5582068Y3570669D01*
X5579120Y3520562D01*
X5570278Y3505824D01*
X5567331Y3496982D01*
X5570278Y3488140D01*
X5574699Y3483718D01*
X5589437Y3477824D01*
X5632175Y3479297D01*
X5636596Y3477824D01*
X5645438Y3480771D01*
X5666070Y3477824D01*
X5669018Y3480771D01*
X5671965D01*
X5688176Y3488140D01*
X5685229Y3517614D01*
X5688176Y3526456D01*
X5691124Y3547089D01*
X5694071Y3558879D01*
X5689650Y3575090D01*
X5680808Y3586880D01*
D02*
G37*
G36*
X5707335Y3495508D02*
X5702914Y3494035D01*
Y3491087D01*
X5704387Y3486666D01*
X5708809Y3491087D01*
X5707335Y3495508D01*
D02*
G37*
G36*
X5666070Y3463086D02*
X5657228Y3460139D01*
X5655754Y3458665D01*
X5660176Y3454244D01*
X5669018Y3457191D01*
X5670492Y3458665D01*
X5666070Y3463086D01*
D02*
G37*
G36*
X5689650Y3457191D02*
X5688176Y3455717D01*
X5692598Y3451296D01*
X5694071Y3452770D01*
X5697019Y3455717D01*
X5689650Y3457191D01*
D02*
G37*
G36*
X3983072Y3586880D02*
X3974229D01*
X3965387Y3583932D01*
X3928544Y3585406D01*
X3902017Y3582458D01*
X3891701Y3578037D01*
X3878437Y3564774D01*
X3881384Y3538246D01*
X3878437Y3529404D01*
X3875490Y3514667D01*
X3869595Y3508772D01*
X3866647Y3502877D01*
X3863700Y3494035D01*
X3868121Y3486666D01*
X3888753Y3477824D01*
X3931491Y3479297D01*
X3947702Y3477824D01*
X3956545Y3480771D01*
X3983072Y3483718D01*
X3991914Y3486666D01*
X3999283Y3488140D01*
X3997809Y3495508D01*
X3984545Y3502877D01*
X3987493Y3517614D01*
X3990440Y3526456D01*
X3991914Y3572142D01*
X3983072Y3586880D01*
D02*
G37*
G36*
X3841594Y3477824D02*
X3840120Y3470455D01*
X3844541Y3468981D01*
X3846015Y3473402D01*
X3844541Y3474876D01*
X3843067Y3476350D01*
X3841594Y3477824D01*
D02*
G37*
G36*
X3983072Y3463086D02*
X3978651Y3461613D01*
X3977177Y3460139D01*
X3975703Y3455717D01*
X3980124Y3451296D01*
X3984545Y3455717D01*
X3983072Y3463086D01*
D02*
G37*
G36*
Y3380557D02*
X3975703Y3373189D01*
X3977177Y3368767D01*
X3983072Y3371715D01*
X3987493Y3376136D01*
X3988967Y3377610D01*
X3990440Y3379084D01*
X3983072Y3380557D01*
D02*
G37*
G36*
X3260944Y3480771D02*
X3256523Y3476350D01*
X3260944Y3471929D01*
X3265366Y3476350D01*
X3263892Y3477824D01*
X3260944Y3480771D01*
D02*
G37*
G36*
X3370000Y3460139D02*
X3368527Y3458665D01*
X3381790Y3454244D01*
X3383264Y3455717D01*
X3381790Y3457191D01*
X3380317Y3458665D01*
X3370000Y3460139D01*
D02*
G37*
G36*
X3343473D02*
X3342000Y3458665D01*
X3340526Y3457191D01*
X3339052Y3455717D01*
X3346421Y3454244D01*
X3347894Y3458665D01*
X3343473Y3460139D01*
D02*
G37*
G36*
X4098023Y3527930D02*
X4096549Y3526456D01*
X4100970Y3522035D01*
X4105391Y3523509D01*
Y3526456D01*
X4098023Y3527930D01*
D02*
G37*
G36*
X4204131Y3510245D02*
X4174657Y3507298D01*
X4137813Y3508772D01*
X4127497Y3504351D01*
X4106865Y3492561D01*
X4105391Y3491087D01*
Y3488140D01*
X4121602Y3480771D01*
X4142235Y3477824D01*
X4218868Y3480771D01*
X4232132Y3491087D01*
X4229185Y3496982D01*
X4224763Y3501403D01*
X4218868Y3504351D01*
X4204131Y3510245D01*
D02*
G37*
G36*
X4083285Y3466034D02*
X4080338D01*
X4078864Y3464560D01*
X4083285Y3460139D01*
X4084759Y3464560D01*
X4083285Y3466034D01*
D02*
G37*
G36*
X4233606Y3460139D02*
X4229185Y3455717D01*
X4230658Y3454244D01*
X4233606D01*
X4235079Y3458665D01*
X4233606Y3460139D01*
D02*
G37*
G36*
X4752358Y3601617D02*
X4750885Y3600143D01*
X4752358Y3598669D01*
X4753832Y3600143D01*
X4752358Y3601617D01*
D02*
G37*
G36*
X4599091Y3575090D02*
X4597617Y3570669D01*
Y3567721D01*
X4602038Y3557405D01*
X4606459Y3558879D01*
X4603512Y3573616D01*
X4599091Y3575090D01*
D02*
G37*
G36*
X4641829Y3461613D02*
X4640355Y3460139D01*
X4638881Y3458665D01*
X4640355Y3451296D01*
X4650671Y3452770D01*
X4649197Y3460139D01*
X4641829Y3461613D01*
D02*
G37*
G36*
X4602038Y3451296D02*
X4591722Y3449823D01*
X4602038Y3445402D01*
X4603512Y3446875D01*
X4602038Y3451296D01*
D02*
G37*
G36*
X4714041D02*
X4712568Y3449823D01*
Y3446875D01*
X4714041Y3439506D01*
X4721410Y3440980D01*
X4718463Y3449823D01*
X4714041Y3451296D01*
D02*
G37*
G36*
X5151739Y3576563D02*
X5113422Y3573616D01*
X5107527Y3567721D01*
X5104580Y3555931D01*
X5101632Y3523509D01*
X5098685Y3514667D01*
X5095737Y3494035D01*
X5098685Y3488140D01*
X5103106Y3483718D01*
X5129633D01*
X5182687Y3486666D01*
X5190056Y3494035D01*
X5193003Y3523509D01*
X5197425Y3551510D01*
X5198898Y3570669D01*
X5194477Y3575090D01*
X5151739Y3576563D01*
D02*
G37*
%LPD*%
D64*
X5312700Y7761800D02*
G03*
X5312700Y7761800I-25400J0D01*
G01*
X7658067Y6784299D02*
X7632675Y6809691D01*
X7581892D01*
X7556500Y6784299D01*
Y6758907D01*
X7581892Y6733515D01*
X7632675D01*
X7658067Y6708123D01*
Y6682732D01*
X7632675Y6657340D01*
X7581892D01*
X7556500Y6682732D01*
X7708851Y6809691D02*
Y6657340D01*
X7759634Y6708123D01*
X7810418Y6657340D01*
Y6809691D01*
X7861201D02*
Y6657340D01*
X7937377D01*
X7962769Y6682732D01*
Y6784299D01*
X7937377Y6809691D01*
X7861201D01*
X3817620Y269191D02*
Y116840D01*
X3893795D01*
X3919187Y142232D01*
Y167623D01*
X3893795Y193015D01*
X3817620D01*
X3893795D01*
X3919187Y218407D01*
Y243799D01*
X3893795Y269191D01*
X3817620D01*
X3995363Y116840D02*
X4046146D01*
X4071538Y142232D01*
Y193015D01*
X4046146Y218407D01*
X3995363D01*
X3969971Y193015D01*
Y142232D01*
X3995363Y116840D01*
X4147713Y218407D02*
X4198497D01*
X4223889Y193015D01*
Y116840D01*
X4147713D01*
X4122321Y142232D01*
X4147713Y167623D01*
X4223889D01*
X4274672Y218407D02*
Y116840D01*
Y167623D01*
X4300064Y193015D01*
X4325456Y218407D01*
X4350848D01*
X4528590Y269191D02*
Y116840D01*
X4452415D01*
X4427023Y142232D01*
Y193015D01*
X4452415Y218407D01*
X4528590D01*
X4731724Y116840D02*
Y269191D01*
X4807900D01*
X4833292Y243799D01*
Y193015D01*
X4807900Y167623D01*
X4731724D01*
X4782508D02*
X4833292Y116840D01*
X4985642Y269191D02*
X4884075D01*
Y116840D01*
X4985642D01*
X4884075Y193015D02*
X4934859D01*
X5036426Y269191D02*
Y167623D01*
X5087209Y116840D01*
X5137993Y167623D01*
Y269191D01*
X5341127Y116840D02*
X5391911D01*
X5366519D01*
Y269191D01*
X5341127Y243799D01*
X5468086Y116840D02*
Y142232D01*
X5493478D01*
Y116840D01*
X5468086D01*
X5595045Y243799D02*
X5620437Y269191D01*
X5671220D01*
X5696612Y243799D01*
Y142232D01*
X5671220Y116840D01*
X5620437D01*
X5595045Y142232D01*
Y243799D01*
X5747396Y116840D02*
Y142232D01*
X5772788D01*
Y116840D01*
X5747396D01*
X5874355Y243799D02*
X5899746Y269191D01*
X5950530D01*
X5975922Y243799D01*
Y142232D01*
X5950530Y116840D01*
X5899746D01*
X5874355Y142232D01*
Y243799D01*
X7801400Y8571300D02*
X7774315D01*
X7787858D01*
Y8490046D01*
X7801400Y8503589D01*
X4635562Y2217395D02*
Y2090437D01*
X4660954Y2065045D01*
X4711737D01*
X4737129Y2090437D01*
Y2217395D01*
X4787912Y2065045D02*
X4838696D01*
X4813304D01*
Y2217395D01*
X4787912Y2192003D01*
X5016439Y2217395D02*
X4965655Y2192003D01*
X4914871Y2141220D01*
Y2090437D01*
X4940263Y2065045D01*
X4991047D01*
X5016439Y2090437D01*
Y2115828D01*
X4991047Y2141220D01*
X4914871D01*
X6968308Y8699475D02*
X6917525D01*
X6942917D01*
Y8572517D01*
X6917525Y8547125D01*
X6892133D01*
X6866741Y8572517D01*
X7019092Y8674083D02*
X7044484Y8699475D01*
X7095267D01*
X7120659Y8674083D01*
Y8648692D01*
X7095267Y8623300D01*
X7069875D01*
X7095267D01*
X7120659Y8597908D01*
Y8572517D01*
X7095267Y8547125D01*
X7044484D01*
X7019092Y8572517D01*
X139741Y8648725D02*
Y8801075D01*
X215917D01*
X241308Y8775683D01*
Y8724900D01*
X215917Y8699508D01*
X139741D01*
X190525D02*
X241308Y8648725D01*
X368267D02*
Y8801075D01*
X292092Y8724900D01*
X393659D01*
X9321816Y5321321D02*
X9296424Y5295929D01*
Y5245145D01*
X9321816Y5219753D01*
X9423383D01*
X9448775Y5245145D01*
Y5295929D01*
X9423383Y5321321D01*
X9448775Y5372104D02*
Y5422888D01*
Y5397496D01*
X9296424D01*
X9321816Y5372104D01*
X9448775Y5499063D02*
Y5549846D01*
Y5524455D01*
X9296424D01*
X9321816Y5499063D01*
X8928108Y1193775D02*
X8877325D01*
X8902717D01*
Y1066817D01*
X8877325Y1041425D01*
X8851933D01*
X8826541Y1066817D01*
X9080459Y1193775D02*
X8978892D01*
Y1117600D01*
X9029675Y1142992D01*
X9055067D01*
X9080459Y1117600D01*
Y1066817D01*
X9055067Y1041425D01*
X9004284D01*
X8978892Y1066817D01*
X8420108Y1193775D02*
X8369325D01*
X8394717D01*
Y1066817D01*
X8369325Y1041425D01*
X8343933D01*
X8318541Y1066817D01*
X8572459Y1193775D02*
X8521675Y1168383D01*
X8470892Y1117600D01*
Y1066817D01*
X8496284Y1041425D01*
X8547067D01*
X8572459Y1066817D01*
Y1092208D01*
X8547067Y1117600D01*
X8470892D01*
X5420422Y2029435D02*
Y1902477D01*
X5445814Y1877085D01*
X5496597D01*
X5521989Y1902477D01*
Y2029435D01*
X5572772Y1877085D02*
X5623556D01*
X5598164D01*
Y2029435D01*
X5572772Y2004043D01*
X5801299Y2029435D02*
X5699731D01*
Y1953260D01*
X5750515Y1978652D01*
X5775907D01*
X5801299Y1953260D01*
Y1902477D01*
X5775907Y1877085D01*
X5725123D01*
X5699731Y1902477D01*
X6898702Y1526515D02*
Y1399557D01*
X6924094Y1374165D01*
X6974877D01*
X7000269Y1399557D01*
Y1526515D01*
X7051052Y1374165D02*
X7101836D01*
X7076444D01*
Y1526515D01*
X7051052Y1501123D01*
X7178011D02*
X7203403Y1526515D01*
X7254187D01*
X7279579Y1501123D01*
Y1475732D01*
X7254187Y1450340D01*
X7228795D01*
X7254187D01*
X7279579Y1424948D01*
Y1399557D01*
X7254187Y1374165D01*
X7203403D01*
X7178011Y1399557D01*
X4246909Y7800315D02*
X4196125D01*
X4221517D01*
Y7673357D01*
X4196125Y7647965D01*
X4170734D01*
X4145342Y7673357D01*
X4297692Y7647965D02*
X4348476D01*
X4323084D01*
Y7800315D01*
X4297692Y7774923D01*
X4424651D02*
X4450043Y7800315D01*
X4500827D01*
X4526219Y7774923D01*
Y7673357D01*
X4500827Y7647965D01*
X4450043D01*
X4424651Y7673357D01*
Y7774923D01*
X2131122Y7774915D02*
Y7647957D01*
X2156514Y7622565D01*
X2207297D01*
X2232689Y7647957D01*
Y7774915D01*
X2283472Y7622565D02*
X2334256D01*
X2308864D01*
Y7774915D01*
X2283472Y7749523D01*
X2410431D02*
X2435823Y7774915D01*
X2486607D01*
X2511999Y7749523D01*
Y7647957D01*
X2486607Y7622565D01*
X2435823D01*
X2410431Y7647957D01*
Y7749523D01*
X977941Y8201635D02*
Y8074677D01*
X1003333Y8049285D01*
X1054117D01*
X1079508Y8074677D01*
Y8201635D01*
X1130292Y8074677D02*
X1155684Y8049285D01*
X1206467D01*
X1231859Y8074677D01*
Y8176243D01*
X1206467Y8201635D01*
X1155684D01*
X1130292Y8176243D01*
Y8150852D01*
X1155684Y8125460D01*
X1231859D01*
X137201Y3223235D02*
Y3096277D01*
X162593Y3070885D01*
X213377D01*
X238768Y3096277D01*
Y3223235D01*
X289552Y3197843D02*
X314944Y3223235D01*
X365727D01*
X391119Y3197843D01*
Y3172452D01*
X365727Y3147060D01*
X391119Y3121668D01*
Y3096277D01*
X365727Y3070885D01*
X314944D01*
X289552Y3096277D01*
Y3121668D01*
X314944Y3147060D01*
X289552Y3172452D01*
Y3197843D01*
X314944Y3147060D02*
X365727D01*
X825541Y2044675D02*
Y1917717D01*
X850933Y1892325D01*
X901717D01*
X927108Y1917717D01*
Y2044675D01*
X977892D02*
X1079459D01*
Y2019283D01*
X977892Y1917717D01*
Y1892325D01*
X2265713Y5001235D02*
Y4874277D01*
X2291105Y4848885D01*
X2341888D01*
X2367280Y4874277D01*
Y5001235D01*
X2418064Y4848885D02*
X2468847D01*
X2443456D01*
Y5001235D01*
X2418064Y4975843D01*
X368267Y7757111D02*
X317483D01*
X342875D01*
Y7630152D01*
X317483Y7604760D01*
X292092D01*
X266700Y7630152D01*
X419051D02*
X444443Y7604760D01*
X495226D01*
X520618Y7630152D01*
Y7731719D01*
X495226Y7757111D01*
X444443D01*
X419051Y7731719D01*
Y7706327D01*
X444443Y7680935D01*
X520618D01*
X2748288Y1650975D02*
X2697505D01*
X2722897D01*
Y1524017D01*
X2697505Y1498625D01*
X2672113D01*
X2646721Y1524017D01*
X2799072Y1625583D02*
X2824464Y1650975D01*
X2875247D01*
X2900639Y1625583D01*
Y1600192D01*
X2875247Y1574800D01*
X2900639Y1549408D01*
Y1524017D01*
X2875247Y1498625D01*
X2824464D01*
X2799072Y1524017D01*
Y1549408D01*
X2824464Y1574800D01*
X2799072Y1600192D01*
Y1625583D01*
X2824464Y1574800D02*
X2875247D01*
X6267608Y520675D02*
X6216824D01*
X6242216D01*
Y393717D01*
X6216824Y368325D01*
X6191433D01*
X6166041Y393717D01*
X6318392Y520675D02*
X6419959D01*
Y495283D01*
X6318392Y393717D01*
Y368325D01*
X7835908Y5105375D02*
X7785125D01*
X7810517D01*
Y4978417D01*
X7785125Y4953025D01*
X7759733D01*
X7734341Y4978417D01*
X7962867Y4953025D02*
Y5105375D01*
X7886692Y5029200D01*
X7988259D01*
X6941828Y7459955D02*
X6891045D01*
X6916437D01*
Y7332997D01*
X6891045Y7307605D01*
X6865653D01*
X6840261Y7332997D01*
X7094179Y7307605D02*
X6992612D01*
X7094179Y7409172D01*
Y7434563D01*
X7068787Y7459955D01*
X7018004D01*
X6992612Y7434563D01*
X2776220Y769595D02*
X2725437D01*
X2750828D01*
Y642637D01*
X2725437Y617245D01*
X2700045D01*
X2674653Y642637D01*
X2827004Y617245D02*
X2877787D01*
X2852396D01*
Y769595D01*
X2827004Y744203D01*
X9321817Y3721129D02*
X9296425Y3695737D01*
Y3644954D01*
X9321817Y3619562D01*
X9423383D01*
X9448775Y3644954D01*
Y3695737D01*
X9423383Y3721129D01*
X9448775Y3771912D02*
Y3822696D01*
Y3797304D01*
X9296425D01*
X9321817Y3771912D01*
Y3898871D02*
X9296425Y3924263D01*
Y3975047D01*
X9321817Y4000439D01*
X9347208D01*
X9372600Y3975047D01*
Y3949655D01*
Y3975047D01*
X9397992Y4000439D01*
X9423383D01*
X9448775Y3975047D01*
Y3924263D01*
X9423383Y3898871D01*
D70*
X3951100Y4188500D02*
G03*
X3951100Y4168500I0J-10000D01*
G01*
D02*
G03*
X3951100Y4188500I0J10000D01*
G01*
X3494820Y1871820D02*
G03*
X3494820Y1871820I-10000J0D01*
G01*
X5513900Y2604260D02*
G03*
X5513900Y2604260I-10000J0D01*
G01*
X7327600Y1779900D02*
G03*
X7327600Y1779900I-10000J0D01*
G01*
X2143000Y8798500D02*
G03*
X2143000Y8798500I-10000J0D01*
G01*
X1289400Y7751800D02*
G03*
X1289400Y7751800I-10000J0D01*
G01*
X469300Y2817700D02*
G03*
X469300Y2817700I-10000J0D01*
G01*
X567100Y1839400D02*
G03*
X567100Y1839400I-10000J0D01*
G01*
X272500Y7092800D02*
G03*
X272500Y7092800I-10000J0D01*
G01*
X2148680Y1733920D02*
G03*
X2148680Y1733920I-10000J0D01*
G01*
X5781100Y1752600D02*
G03*
X5781100Y1752600I-10000J0D01*
G01*
X8328500Y7964500D02*
G03*
X8328500Y7964500I-10000J0D01*
G01*
X8836500D02*
G03*
X8836500Y7964500I-10000J0D01*
G01*
X6525100Y4539200D02*
G03*
X6525100Y4539200I-10000J0D01*
G01*
X7510400Y6070600D02*
G03*
X7510400Y6070600I-10000J0D01*
G01*
X2435700Y1211360D02*
G03*
X2435700Y1211360I-10000J0D01*
G01*
X3663600Y4070000D02*
X3868600D01*
X3663600D02*
Y4185000D01*
X3868600D01*
Y4070000D02*
Y4185000D01*
X2954940Y8395620D02*
Y8600620D01*
X3069940D01*
Y8395620D02*
Y8600620D01*
X2954940Y8395620D02*
X3069940D01*
X2540200Y5118300D02*
X4470200D01*
Y7048300D01*
X2540200D02*
X4470200D01*
X2540200Y5118300D02*
Y7048300D01*
X5589800Y2575560D02*
X6019800D01*
X5589800Y2092960D02*
X6019800D01*
X1308100Y7837700D02*
Y8267700D01*
X1790700Y7837700D02*
Y8267700D01*
X487800Y2937700D02*
X1010800D01*
Y3437700D01*
X487800D02*
X1010800D01*
X487800Y2937700D02*
Y3437700D01*
X677100Y1287900D02*
Y1810900D01*
Y1287900D02*
X1177100D01*
Y1810900D01*
X677100D02*
X1177100D01*
X4185000Y2556160D02*
Y2671160D01*
X3980000D02*
X4185000D01*
X3980000Y2556160D02*
Y2671160D01*
Y2556160D02*
X4185000D01*
X4543140Y2609500D02*
Y2724500D01*
X4338140D02*
X4543140D01*
X4338140Y2609500D02*
Y2724500D01*
Y2609500D02*
X4543140D01*
X7918100Y1033600D02*
X8033100D01*
Y1238600D01*
X7918100D02*
X8033100D01*
X7918100Y1033600D02*
Y1238600D01*
X5746400Y7441300D02*
X5861400D01*
Y7646300D01*
X5746400D02*
X5861400D01*
X5746400Y7441300D02*
Y7646300D01*
X6686200Y8401400D02*
X6801200D01*
X6686200Y8196400D02*
Y8401400D01*
Y8196400D02*
X6801200D01*
Y8401400D01*
X5289200Y7499700D02*
X5404200D01*
X5289200Y7294700D02*
Y7499700D01*
Y7294700D02*
X5404200D01*
Y7499700D01*
X1885600Y7917000D02*
X2000600D01*
Y8122000D01*
X1885600D02*
X2000600D01*
X1885600Y7917000D02*
Y8122000D01*
X2838100Y8279500D02*
X2953100D01*
Y8484500D01*
X2838100D02*
X2953100D01*
X2838100Y8279500D02*
Y8484500D01*
X411300Y2457100D02*
Y2572100D01*
Y2457100D02*
X616300D01*
Y2572100D01*
X411300D02*
X616300D01*
X361600Y2032900D02*
X476600D01*
X361600Y1827900D02*
Y2032900D01*
Y1827900D02*
X476600D01*
Y2032900D01*
X2337700Y6914800D02*
Y7029800D01*
X2132700D02*
X2337700D01*
X2132700Y6914800D02*
Y7029800D01*
Y6914800D02*
X2337700D01*
X2929540Y7283820D02*
X3044540D01*
Y7488820D01*
X2929540D02*
X3044540D01*
X2929540Y7283820D02*
Y7488820D01*
X3046380Y7283820D02*
X3161380D01*
Y7488820D01*
X3046380D02*
X3161380D01*
X3046380Y7283820D02*
Y7488820D01*
X120300Y5148400D02*
X235300D01*
Y5353400D01*
X120300D02*
X235300D01*
X120300Y5148400D02*
Y5353400D01*
X107600Y5650600D02*
X222600D01*
Y5855600D01*
X107600D02*
X222600D01*
X107600Y5650600D02*
Y5855600D01*
X2087700Y6152800D02*
Y6267800D01*
Y6152800D02*
X2292700D01*
Y6267800D01*
X2087700D02*
X2292700D01*
X1846400Y6076600D02*
Y6191600D01*
Y6076600D02*
X2051400D01*
Y6191600D01*
X1846400D02*
X2051400D01*
X7854600Y2820300D02*
X7969600D01*
X7854600Y2615300D02*
Y2820300D01*
Y2615300D02*
X7969600D01*
Y2820300D01*
X7854600Y2361300D02*
X7969600D01*
Y2566300D01*
X7854600D02*
X7969600D01*
X7854600Y2361300D02*
Y2566300D01*
X2081900Y6000400D02*
Y6115400D01*
Y6000400D02*
X2286900D01*
Y6115400D01*
X2081900D02*
X2286900D01*
X2261500Y5644800D02*
Y5759800D01*
X2056500D02*
X2261500D01*
X2056500Y5644800D02*
Y5759800D01*
Y5644800D02*
X2261500D01*
X4910000Y5467000D02*
Y5582000D01*
X4705000D02*
X4910000D01*
X4705000Y5467000D02*
Y5582000D01*
Y5467000D02*
X4910000D01*
Y5632100D02*
Y5747100D01*
X4705000D02*
X4910000D01*
X4705000Y5632100D02*
Y5747100D01*
Y5632100D02*
X4910000D01*
X1390300Y7421700D02*
X1505300D01*
Y7626700D01*
X1390300D02*
X1505300D01*
X1390300Y7421700D02*
Y7626700D01*
X1555400Y7421700D02*
X1670400D01*
Y7626700D01*
X1555400D02*
X1670400D01*
X1555400Y7421700D02*
Y7626700D01*
X196500Y2032900D02*
X311500D01*
X196500Y1827900D02*
Y2032900D01*
Y1827900D02*
X311500D01*
Y2032900D01*
X4645840Y2723800D02*
Y2838800D01*
X4440840D02*
X4645840D01*
X4440840Y2723800D02*
Y2838800D01*
Y2723800D02*
X4645840D01*
X411300Y2304700D02*
Y2419700D01*
Y2304700D02*
X616300D01*
Y2419700D01*
X411300D02*
X616300D01*
X4441540Y2723800D02*
Y2838800D01*
X4236540D02*
X4441540D01*
X4236540Y2723800D02*
Y2838800D01*
Y2723800D02*
X4441540D01*
X2977800Y4865000D02*
X3092800D01*
X2977800Y4660000D02*
Y4865000D01*
Y4660000D02*
X3092800D01*
Y4865000D01*
X3142900Y4660000D02*
X3257900D01*
Y4865000D01*
X3142900D02*
X3257900D01*
X3142900Y4660000D02*
Y4865000D01*
X4527180Y1527460D02*
Y1642460D01*
X4322180D02*
X4527180D01*
X4322180Y1527460D02*
Y1642460D01*
Y1527460D02*
X4527180D01*
X4425580Y1641760D02*
Y1756760D01*
X4220580D02*
X4425580D01*
X4220580Y1641760D02*
Y1756760D01*
Y1641760D02*
X4425580D01*
X4322160Y1527460D02*
Y1642460D01*
X4117160D02*
X4322160D01*
X4117160Y1527460D02*
Y1642460D01*
Y1527460D02*
X4322160D01*
X3482160D02*
Y1642460D01*
Y1527460D02*
X3687160D01*
Y1642460D01*
X3482160D02*
X3687160D01*
X3583040Y1641760D02*
Y1756760D01*
Y1641760D02*
X3788040D01*
Y1756760D01*
X3583040D02*
X3788040D01*
X3686460Y1527460D02*
Y1642460D01*
Y1527460D02*
X3891460D01*
Y1642460D01*
X3686460D02*
X3891460D01*
X4941200Y6533800D02*
Y6648800D01*
X4736200D02*
X4941200D01*
X4736200Y6533800D02*
Y6648800D01*
Y6533800D02*
X4941200D01*
X2954940Y8190600D02*
X3069940D01*
Y8395600D01*
X2954940D02*
X3069940D01*
X2954940Y8190600D02*
Y8395600D01*
X4941200Y6686200D02*
Y6801200D01*
X4736200D02*
X4941200D01*
X4736200Y6686200D02*
Y6801200D01*
Y6686200D02*
X4941200D01*
Y6838600D02*
Y6953600D01*
X4736200D02*
X4941200D01*
X4736200Y6838600D02*
Y6953600D01*
Y6838600D02*
X4941200D01*
X8451500Y450500D02*
Y565500D01*
Y450500D02*
X8656500D01*
Y565500D01*
X8451500D02*
X8656500D01*
X654400Y336200D02*
Y451200D01*
X449400D02*
X654400D01*
X449400Y336200D02*
Y451200D01*
Y336200D02*
X654400D01*
X8457300Y8464200D02*
Y8579200D01*
Y8464200D02*
X8662300D01*
Y8579200D01*
X8457300D02*
X8662300D01*
X648600Y8667400D02*
Y8782400D01*
X443600D02*
X648600D01*
X443600Y8667400D02*
Y8782400D01*
Y8667400D02*
X648600D01*
X2624740Y4344320D02*
X2739740D01*
Y4549320D01*
X2624740D02*
X2739740D01*
X2624740Y4344320D02*
Y4549320D01*
X2507900Y4344320D02*
X2622900D01*
Y4549320D01*
X2507900D02*
X2622900D01*
X2507900Y4344320D02*
Y4549320D01*
X2738300Y4227480D02*
Y4342480D01*
X2533300D02*
X2738300D01*
X2533300Y4227480D02*
Y4342480D01*
Y4227480D02*
X2738300D01*
X370500Y4086300D02*
X488500D01*
X370500D02*
Y4206800D01*
Y7178800D02*
Y7299300D01*
X488500D01*
Y7476300D01*
X613000D01*
X488500Y3909300D02*
Y4086300D01*
Y3909300D02*
X613000D01*
X912000D02*
X1114500D01*
Y4175300D01*
X1063500D02*
X1114500D01*
X1063500D02*
Y4206800D01*
Y7178800D02*
Y7210300D01*
X1114500D01*
Y7476300D01*
X912000D02*
X1114500D01*
X2011680Y1969920D02*
Y2477920D01*
X3281680Y1969920D02*
Y2477920D01*
X6007100Y1879600D02*
X6515100D01*
X6007100Y609600D02*
X6515100D01*
X8233400Y1244500D02*
X8657600D01*
X8233400Y7899500D02*
X8657600D01*
X8741400Y1244500D02*
X9165600D01*
X8741400Y7899500D02*
X9165600D01*
X6388100Y4775200D02*
Y5283200D01*
X7658100Y4775200D02*
Y5283200D01*
X6756400Y5943600D02*
X7264400D01*
X6756400Y7213600D02*
X7264400D01*
X2552700Y467360D02*
Y975360D01*
X1282700Y467360D02*
Y975360D01*
X3404520Y2361300D02*
X3519520D01*
Y2566300D01*
X3404520D02*
X3519520D01*
X3404520Y2361300D02*
Y2566300D01*
X6008300Y2619860D02*
Y2899860D01*
Y2619860D02*
X6158300D01*
Y2899860D01*
X6008300D02*
X6158300D01*
X5248560Y2505340D02*
X5363560D01*
X5248560Y2300340D02*
Y2505340D01*
Y2300340D02*
X5363560D01*
Y2505340D01*
X5809900Y2625460D02*
X5924900D01*
Y2830460D01*
X5809900D02*
X5924900D01*
X5809900Y2625460D02*
Y2830460D01*
X7938400Y2165000D02*
Y2280000D01*
X7733400D02*
X7938400D01*
X7733400Y2165000D02*
Y2280000D01*
Y2165000D02*
X7938400D01*
X7584260Y1108360D02*
Y1223360D01*
Y1108360D02*
X7789260D01*
Y1223360D01*
X7584260D02*
X7789260D01*
X2838100Y8690260D02*
X2953100D01*
Y8895260D01*
X2838100D02*
X2953100D01*
X2838100Y8690260D02*
Y8895260D01*
X1003000Y8268900D02*
X1283000D01*
Y8418900D01*
X1003000D02*
X1283000D01*
X1003000Y8268900D02*
Y8418900D01*
X1098200Y7931500D02*
X1213200D01*
X1098200Y7726500D02*
Y7931500D01*
Y7726500D02*
X1213200D01*
Y7931500D01*
X1277800Y8476900D02*
Y8591900D01*
X1072800D02*
X1277800D01*
X1072800Y8476900D02*
Y8591900D01*
Y8476900D02*
X1277800D01*
X452300Y3460400D02*
Y3575400D01*
X247300D02*
X452300D01*
X247300Y3460400D02*
Y3575400D01*
Y3460400D02*
X452300D01*
X1281800Y1834800D02*
Y1949800D01*
Y1834800D02*
X1486800D01*
Y1949800D01*
X1281800D02*
X1486800D01*
X3485800Y4693000D02*
X3600800D01*
X3485800Y4488000D02*
Y4693000D01*
Y4488000D02*
X3600800D01*
Y4693000D01*
X2122540Y5068220D02*
Y5183220D01*
Y5068220D02*
X2327540D01*
Y5183220D01*
X2122540D02*
X2327540D01*
X2062300Y5797200D02*
Y5912200D01*
Y5797200D02*
X2267300D01*
Y5912200D01*
X2062300D02*
X2267300D01*
X2036900Y6305200D02*
Y6420200D01*
Y6305200D02*
X2241900D01*
Y6420200D01*
X2036900D02*
X2241900D01*
X2647600Y7513500D02*
X2762600D01*
X2647600Y7308500D02*
Y7513500D01*
Y7308500D02*
X2762600D01*
Y7513500D01*
X3181000Y7488100D02*
X3296000D01*
X3181000Y7283100D02*
Y7488100D01*
Y7283100D02*
X3296000D01*
Y7488100D01*
X3777900D02*
X3892900D01*
X3777900Y7283100D02*
Y7488100D01*
Y7283100D02*
X3892900D01*
Y7488100D01*
X4790620Y7041800D02*
Y7156800D01*
X4585620D02*
X4790620D01*
X4585620Y7041800D02*
Y7156800D01*
Y7041800D02*
X4790620D01*
X4953900Y6381400D02*
Y6496400D01*
X4748900D02*
X4953900D01*
X4748900Y6381400D02*
Y6496400D01*
Y6381400D02*
X4953900D01*
X4871900Y5898800D02*
Y6013800D01*
X4666900D02*
X4871900D01*
X4666900Y5898800D02*
Y6013800D01*
Y5898800D02*
X4871900D01*
X4972400Y5251100D02*
Y5366100D01*
X4767400D02*
X4972400D01*
X4767400Y5251100D02*
Y5366100D01*
Y5251100D02*
X4972400D01*
X3320700Y4660000D02*
X3435700D01*
Y4865000D01*
X3320700D02*
X3435700D01*
X3320700Y4660000D02*
Y4865000D01*
X2800000Y4640400D02*
X2915000D01*
Y4845400D01*
X2800000D02*
X2915000D01*
X2800000Y4640400D02*
Y4845400D01*
X4082700Y4602300D02*
X4197700D01*
Y4807300D01*
X4082700D02*
X4197700D01*
X4082700Y4602300D02*
Y4807300D01*
X4545400Y4514400D02*
Y4794400D01*
X4395400D02*
X4545400D01*
X4395400Y4514400D02*
Y4794400D01*
Y4514400D02*
X4545400D01*
X4235100Y4602300D02*
X4350100D01*
Y4807300D01*
X4235100D02*
X4350100D01*
X4235100Y4602300D02*
Y4807300D01*
D71*
X6282500Y7868107D02*
Y9001760D01*
X3176100Y7868107D02*
X6282500D01*
X3176100Y7855800D02*
Y9001760D01*
X2200910Y7868920D02*
X2625090D01*
X2200910Y8768080D02*
X2625090D01*
X5695608Y7830359D02*
X5594041D01*
X5627897D01*
X5695608Y7762648D01*
X5644825Y7813431D01*
X5594041Y7762648D01*
X6635408Y8585959D02*
X6533841D01*
X6567697D01*
X6635408Y8518248D01*
X6584625Y8569031D01*
X6533841Y8518248D01*
X5238408Y7677959D02*
X5136841D01*
X5170697D01*
X5238408Y7610248D01*
X5187625Y7661031D01*
X5136841Y7610248D01*
X2928159Y4085932D02*
Y4187499D01*
Y4153644D01*
X2860448Y4085932D01*
X2911232Y4136716D01*
X2860448Y4187499D01*
D72*
X7241400Y8917940D02*
Y9011300D01*
X7242620Y8542020D02*
Y8648700D01*
X7354380Y8351520D02*
X7461060D01*
X7834440D02*
X7923340D01*
X7241400Y9011300D02*
X8041400D01*
Y8917940D02*
Y9011300D01*
X8042720Y8552180D02*
Y8646160D01*
X4570820Y1971820D02*
Y2371820D01*
X3558820Y1971820D02*
Y2371820D01*
X7526850Y1801900D02*
X7916350D01*
X7526850Y1296900D02*
X7916350D01*
X5683800Y7564600D02*
Y7586600D01*
X5593800Y7564600D02*
Y7586600D01*
X6623600Y8320200D02*
Y8342200D01*
X6533600Y8320200D02*
Y8342200D01*
X5226600Y7412200D02*
Y7434200D01*
X5136600Y7412200D02*
Y7434200D01*
X2662400Y4097740D02*
X2684400D01*
X2662400Y4187740D02*
X2684400D01*
D73*
X2385499Y1271630D02*
X2487067D01*
Y1322414D01*
X2470139Y1339342D01*
X2453211D01*
X2436283Y1322414D01*
Y1271630D01*
Y1322414D01*
X2419355Y1339342D01*
X2402427D01*
X2385499Y1322414D01*
Y1271630D01*
Y1423981D02*
Y1390125D01*
X2402427Y1373198D01*
X2470139D01*
X2487067Y1390125D01*
Y1423981D01*
X2470139Y1440909D01*
X2402427D01*
X2385499Y1423981D01*
Y1525548D02*
Y1491693D01*
X2402427Y1474765D01*
X2470139D01*
X2487067Y1491693D01*
Y1525548D01*
X2470139Y1542476D01*
X2402427D01*
X2385499Y1525548D01*
Y1576332D02*
Y1644043D01*
Y1610188D01*
X2487067D01*
X2230120Y1267460D02*
X2128553D01*
X2230120Y1335172D01*
X2128553D01*
X2230120Y1369027D02*
X2128553D01*
Y1419811D01*
X2145480Y1436739D01*
X2179336D01*
X2196264Y1419811D01*
Y1369027D01*
Y1402883D02*
X2230120Y1436739D01*
X2145480Y1538306D02*
X2128553Y1521378D01*
Y1487523D01*
X2145480Y1470595D01*
X2162408D01*
X2179336Y1487523D01*
Y1521378D01*
X2196264Y1538306D01*
X2213192D01*
X2230120Y1521378D01*
Y1487523D01*
X2213192Y1470595D01*
X2128553Y1572162D02*
Y1639873D01*
Y1606018D01*
X2230120D01*
X4643120Y7673340D02*
Y7774907D01*
X4676976Y7741051D01*
X4710831Y7774907D01*
Y7673340D01*
X4744687D02*
Y7774907D01*
X4795471D01*
X4812399Y7757979D01*
Y7724123D01*
X4795471Y7707196D01*
X4744687D01*
X4846254Y7774907D02*
X4880110D01*
X4863182D01*
Y7673340D01*
X4846254D01*
X4880110D01*
X7459980Y8196547D02*
Y8111908D01*
X7476908Y8094980D01*
X7510763D01*
X7527691Y8111908D01*
Y8196547D01*
X7629259Y8179619D02*
X7612331Y8196547D01*
X7578475D01*
X7561547Y8179619D01*
Y8162691D01*
X7578475Y8145763D01*
X7612331D01*
X7629259Y8128836D01*
Y8111908D01*
X7612331Y8094980D01*
X7578475D01*
X7561547Y8111908D01*
X7663114Y8196547D02*
Y8094980D01*
X7713898D01*
X7730826Y8111908D01*
Y8128836D01*
X7713898Y8145763D01*
X7663114D01*
X7713898D01*
X7730826Y8162691D01*
Y8179619D01*
X7713898Y8196547D01*
X7663114D01*
X6244081Y6545992D02*
X6227154Y6562920D01*
X6193298D01*
X6176370Y6545992D01*
Y6478281D01*
X6193298Y6461353D01*
X6227154D01*
X6244081Y6478281D01*
Y6512137D01*
X6210226D01*
X6277937Y6461353D02*
Y6562920D01*
X6345649Y6461353D01*
Y6562920D01*
X6379505D02*
Y6461353D01*
X6430288D01*
X6447216Y6478281D01*
Y6545992D01*
X6430288Y6562920D01*
X6379505D01*
X6204401Y4207911D02*
X6187473Y4190983D01*
Y4157128D01*
X6204401Y4140200D01*
X6272112D01*
X6289040Y4157128D01*
Y4190983D01*
X6272112Y4207911D01*
X6238257D01*
Y4174056D01*
X6289040Y4241767D02*
X6187473D01*
Y4292551D01*
X6204401Y4309479D01*
X6238257D01*
X6255184Y4292551D01*
Y4241767D01*
X6204401Y4411046D02*
X6187473Y4394118D01*
Y4360262D01*
X6204401Y4343334D01*
X6221329D01*
X6238257Y4360262D01*
Y4394118D01*
X6255184Y4411046D01*
X6272112D01*
X6289040Y4394118D01*
Y4360262D01*
X6272112Y4343334D01*
X6204401Y4614180D02*
X6187473Y4597252D01*
Y4563397D01*
X6204401Y4546469D01*
X6272112D01*
X6289040Y4563397D01*
Y4597252D01*
X6272112Y4614180D01*
X6289040Y4664964D02*
Y4698820D01*
X6272112Y4715747D01*
X6238257D01*
X6221329Y4698820D01*
Y4664964D01*
X6238257Y4648036D01*
X6272112D01*
X6289040Y4664964D01*
Y4749603D02*
X6221329D01*
Y4800387D01*
X6238257Y4817315D01*
X6289040D01*
Y4851171D02*
X6221329D01*
Y4901954D01*
X6238257Y4918882D01*
X6289040D01*
Y5003521D02*
Y4969666D01*
X6272112Y4952738D01*
X6238257D01*
X6221329Y4969666D01*
Y5003521D01*
X6238257Y5020449D01*
X6255184D01*
Y4952738D01*
X6221329Y5122016D02*
Y5071233D01*
X6238257Y5054305D01*
X6272112D01*
X6289040Y5071233D01*
Y5122016D01*
X6204401Y5172800D02*
X6221329D01*
Y5155872D01*
Y5189728D01*
Y5172800D01*
X6272112D01*
X6289040Y5189728D01*
Y5257440D02*
Y5291295D01*
X6272112Y5308223D01*
X6238257D01*
X6221329Y5291295D01*
Y5257440D01*
X6238257Y5240512D01*
X6272112D01*
X6289040Y5257440D01*
X6221329Y5342079D02*
X6289040D01*
X6255184D01*
X6238257Y5359007D01*
X6221329Y5375935D01*
Y5392862D01*
X6604000Y464820D02*
Y566387D01*
X6637856Y532531D01*
X6671711Y566387D01*
Y464820D01*
X6722495D02*
X6756351D01*
X6773279Y481748D01*
Y515603D01*
X6756351Y532531D01*
X6722495D01*
X6705567Y515603D01*
Y481748D01*
X6722495Y464820D01*
X6824062Y549459D02*
Y532531D01*
X6807134D01*
X6840990D01*
X6824062D01*
Y481748D01*
X6840990Y464820D01*
X6908702D02*
X6942557D01*
X6959485Y481748D01*
Y515603D01*
X6942557Y532531D01*
X6908702D01*
X6891774Y515603D01*
Y481748D01*
X6908702Y464820D01*
X6993341Y532531D02*
Y464820D01*
Y498676D01*
X7010269Y515603D01*
X7027197Y532531D01*
X7044125D01*
X1821180Y2776220D02*
Y2877787D01*
X1855036Y2843931D01*
X1888891Y2877787D01*
Y2776220D01*
X1939675D02*
X1973531D01*
X1990459Y2793148D01*
Y2827003D01*
X1973531Y2843931D01*
X1939675D01*
X1922747Y2827003D01*
Y2793148D01*
X1939675Y2776220D01*
X2041242Y2860859D02*
Y2843931D01*
X2024314D01*
X2058170D01*
X2041242D01*
Y2793148D01*
X2058170Y2776220D01*
X2125882D02*
X2159737D01*
X2176665Y2793148D01*
Y2827003D01*
X2159737Y2843931D01*
X2125882D01*
X2108954Y2827003D01*
Y2793148D01*
X2125882Y2776220D01*
X2210521Y2843931D02*
Y2776220D01*
Y2810076D01*
X2227449Y2827003D01*
X2244377Y2843931D01*
X2261305D01*
X2481367Y2877787D02*
X2413656D01*
Y2776220D01*
X2481367D01*
X2413656Y2827003D02*
X2447511D01*
X2515223Y2776220D02*
Y2843931D01*
X2566006D01*
X2582934Y2827003D01*
Y2776220D01*
X2684501Y2843931D02*
X2633718D01*
X2616790Y2827003D01*
Y2793148D01*
X2633718Y2776220D01*
X2684501D01*
X2735285D02*
X2769141D01*
X2786069Y2793148D01*
Y2827003D01*
X2769141Y2843931D01*
X2735285D01*
X2718357Y2827003D01*
Y2793148D01*
X2735285Y2776220D01*
X2887636Y2877787D02*
Y2776220D01*
X2836852D01*
X2819925Y2793148D01*
Y2827003D01*
X2836852Y2843931D01*
X2887636D01*
X2972275Y2776220D02*
X2938420D01*
X2921492Y2793148D01*
Y2827003D01*
X2938420Y2843931D01*
X2972275D01*
X2989203Y2827003D01*
Y2810076D01*
X2921492D01*
X3023059Y2843931D02*
Y2776220D01*
Y2810076D01*
X3039987Y2827003D01*
X3056915Y2843931D01*
X3073842D01*
X2338471Y3658419D02*
X2321543Y3675347D01*
X2287688D01*
X2270760Y3658419D01*
Y3590708D01*
X2287688Y3573780D01*
X2321543D01*
X2338471Y3590708D01*
Y3624563D01*
X2304616D01*
X2372327Y3573780D02*
Y3675347D01*
X2440039Y3573780D01*
Y3675347D01*
X2473894D02*
Y3573780D01*
X2524678D01*
X2541606Y3590708D01*
Y3658419D01*
X2524678Y3675347D01*
X2473894D01*
X7593731Y7463339D02*
X7576803Y7480267D01*
X7542948D01*
X7526020Y7463339D01*
Y7395628D01*
X7542948Y7378700D01*
X7576803D01*
X7593731Y7395628D01*
Y7429483D01*
X7559876D01*
X7627587Y7378700D02*
Y7480267D01*
X7695299Y7378700D01*
Y7480267D01*
X7729154D02*
Y7378700D01*
X7779938D01*
X7796866Y7395628D01*
Y7463339D01*
X7779938Y7480267D01*
X7729154D01*
X7565791Y3650799D02*
X7548863Y3667727D01*
X7515008D01*
X7498080Y3650799D01*
Y3583088D01*
X7515008Y3566160D01*
X7548863D01*
X7565791Y3583088D01*
Y3616943D01*
X7531936D01*
X7599647Y3566160D02*
Y3667727D01*
X7667359Y3566160D01*
Y3667727D01*
X7701214D02*
Y3566160D01*
X7751998D01*
X7768926Y3583088D01*
Y3650799D01*
X7751998Y3667727D01*
X7701214D01*
X2856631Y196399D02*
X2839703Y213327D01*
X2805848D01*
X2788920Y196399D01*
Y128688D01*
X2805848Y111760D01*
X2839703D01*
X2856631Y128688D01*
Y162543D01*
X2822776D01*
X2890487Y111760D02*
Y213327D01*
X2958199Y111760D01*
Y213327D01*
X2992054D02*
Y111760D01*
X3042838D01*
X3059766Y128688D01*
Y196399D01*
X3042838Y213327D01*
X2992054D01*
X6384691Y5792019D02*
X6367763Y5808947D01*
X6333908D01*
X6316980Y5792019D01*
Y5724308D01*
X6333908Y5707380D01*
X6367763D01*
X6384691Y5724308D01*
Y5758163D01*
X6350836D01*
X6418547Y5707380D02*
Y5808947D01*
X6469331D01*
X6486259Y5792019D01*
Y5758163D01*
X6469331Y5741236D01*
X6418547D01*
X6587826Y5792019D02*
X6570898Y5808947D01*
X6537042D01*
X6520114Y5792019D01*
Y5775091D01*
X6537042Y5758163D01*
X6570898D01*
X6587826Y5741236D01*
Y5724308D01*
X6570898Y5707380D01*
X6537042D01*
X6520114Y5724308D01*
X6723249Y5707380D02*
Y5808947D01*
X6774032D01*
X6790960Y5792019D01*
Y5758163D01*
X6774032Y5741236D01*
X6723249D01*
X6757105D02*
X6790960Y5707380D01*
X6824816Y5808947D02*
X6892527Y5707380D01*
Y5808947D02*
X6824816Y5707380D01*
X6178951Y5606599D02*
X6162023Y5623527D01*
X6128168D01*
X6111240Y5606599D01*
Y5538888D01*
X6128168Y5521960D01*
X6162023D01*
X6178951Y5538888D01*
Y5572743D01*
X6145096D01*
X6212807Y5521960D02*
Y5623527D01*
X6263591D01*
X6280519Y5606599D01*
Y5572743D01*
X6263591Y5555816D01*
X6212807D01*
X6382086Y5606599D02*
X6365158Y5623527D01*
X6331302D01*
X6314374Y5606599D01*
Y5589671D01*
X6331302Y5572743D01*
X6365158D01*
X6382086Y5555816D01*
Y5538888D01*
X6365158Y5521960D01*
X6331302D01*
X6314374Y5538888D01*
X6517509Y5623527D02*
X6585220D01*
X6551365D01*
Y5521960D01*
X6619076Y5623527D02*
X6686787Y5521960D01*
Y5623527D02*
X6619076Y5521960D01*
X6659011Y8940767D02*
X6591300D01*
Y8889983D01*
X6625156Y8906911D01*
X6642083D01*
X6659011Y8889983D01*
Y8856128D01*
X6642083Y8839200D01*
X6608228D01*
X6591300Y8856128D01*
X6692867Y8940767D02*
Y8873056D01*
X6726723Y8839200D01*
X6760579Y8873056D01*
Y8940767D01*
X6357653Y8315091D02*
Y8247380D01*
X6408437D01*
X6391509Y8281236D01*
Y8298163D01*
X6408437Y8315091D01*
X6442292D01*
X6459220Y8298163D01*
Y8264308D01*
X6442292Y8247380D01*
X6357653Y8348947D02*
X6425364D01*
X6459220Y8382803D01*
X6425364Y8416659D01*
X6357653D01*
X2287671Y3986079D02*
X2270743Y4003007D01*
X2236888D01*
X2219960Y3986079D01*
Y3918368D01*
X2236888Y3901440D01*
X2270743D01*
X2287671Y3918368D01*
Y3952223D01*
X2253816D01*
X2321527Y3901440D02*
Y4003007D01*
X2372311D01*
X2389239Y3986079D01*
Y3952223D01*
X2372311Y3935296D01*
X2321527D01*
X2524662Y4003007D02*
Y3901440D01*
X2592373D01*
X2693940Y4003007D02*
X2626229D01*
Y3901440D01*
X2693940D01*
X2626229Y3952223D02*
X2660085D01*
X2727796Y4003007D02*
Y3901440D01*
X2778580D01*
X2795507Y3918368D01*
Y3986079D01*
X2778580Y4003007D01*
X2727796D01*
X4737100Y7427779D02*
X4754028Y7444707D01*
X4787883D01*
X4804811Y7427779D01*
Y7410851D01*
X4787883Y7393923D01*
X4770956D01*
X4787883D01*
X4804811Y7376996D01*
Y7360068D01*
X4787883Y7343140D01*
X4754028D01*
X4737100Y7360068D01*
X4838667Y7444707D02*
Y7376996D01*
X4872523Y7343140D01*
X4906379Y7376996D01*
Y7444707D01*
X4940234Y7427779D02*
X4957162Y7444707D01*
X4991018D01*
X5007946Y7427779D01*
Y7410851D01*
X4991018Y7393923D01*
X4974090D01*
X4991018D01*
X5007946Y7376996D01*
Y7360068D01*
X4991018Y7343140D01*
X4957162D01*
X4940234Y7360068D01*
X6301740Y7691087D02*
Y7623376D01*
X6335596Y7589520D01*
X6369451Y7623376D01*
Y7691087D01*
X6403307D02*
Y7589520D01*
X6454091D01*
X6471019Y7606448D01*
Y7623376D01*
X6454091Y7640303D01*
X6403307D01*
X6454091D01*
X6471019Y7657231D01*
Y7674159D01*
X6454091Y7691087D01*
X6403307D01*
X6504874Y7589520D02*
Y7657231D01*
X6538730Y7691087D01*
X6572586Y7657231D01*
Y7589520D01*
Y7640303D01*
X6504874D01*
X6606442Y7691087D02*
X6674153D01*
X6640297D01*
Y7589520D01*
X6426200Y4229067D02*
X6460056D01*
X6443128D01*
Y4127500D01*
X6426200D01*
X6460056D01*
X6578551D02*
X6510839D01*
X6578551Y4195211D01*
Y4212139D01*
X6561623Y4229067D01*
X6527767D01*
X6510839Y4212139D01*
X6680118D02*
X6663190Y4229067D01*
X6629334D01*
X6612407Y4212139D01*
Y4144428D01*
X6629334Y4127500D01*
X6663190D01*
X6680118Y4144428D01*
X6713974Y4127500D02*
X6747830D01*
X6730902D01*
Y4229067D01*
X6713974Y4212139D01*
X6967892D02*
X6950964Y4229067D01*
X6917108D01*
X6900181Y4212139D01*
Y4195211D01*
X6917108Y4178283D01*
X6950964D01*
X6967892Y4161356D01*
Y4144428D01*
X6950964Y4127500D01*
X6917108D01*
X6900181Y4144428D01*
X7069459Y4212139D02*
X7052531Y4229067D01*
X7018676D01*
X7001748Y4212139D01*
Y4144428D01*
X7018676Y4127500D01*
X7052531D01*
X7069459Y4144428D01*
X7103315Y4229067D02*
Y4127500D01*
Y4161356D01*
X7171026Y4229067D01*
X7120243Y4178283D01*
X7171026Y4127500D01*
X6822440Y4516087D02*
X6856296D01*
X6839368D01*
Y4414520D01*
X6822440D01*
X6856296D01*
X6974791D02*
X6907079D01*
X6974791Y4482231D01*
Y4499159D01*
X6957863Y4516087D01*
X6924007D01*
X6907079Y4499159D01*
X7076358D02*
X7059430Y4516087D01*
X7025574D01*
X7008647Y4499159D01*
Y4431448D01*
X7025574Y4414520D01*
X7059430D01*
X7076358Y4431448D01*
X7279492Y4499159D02*
X7262565Y4516087D01*
X7228709D01*
X7211781Y4499159D01*
Y4482231D01*
X7228709Y4465303D01*
X7262565D01*
X7279492Y4448376D01*
Y4431448D01*
X7262565Y4414520D01*
X7228709D01*
X7211781Y4431448D01*
X7313348Y4516087D02*
Y4414520D01*
X7364132D01*
X7381060Y4431448D01*
Y4499159D01*
X7364132Y4516087D01*
X7313348D01*
X7414916Y4414520D02*
Y4482231D01*
X7448771Y4516087D01*
X7482627Y4482231D01*
Y4414520D01*
Y4465303D01*
X7414916D01*
X4505157Y2887997D02*
Y2989564D01*
X4555941D01*
X4572868Y2972636D01*
Y2938780D01*
X4555941Y2921852D01*
X4505157D01*
X4539013D02*
X4572868Y2887997D01*
X4674436D02*
X4606724D01*
X4674436Y2955708D01*
Y2972636D01*
X4657508Y2989564D01*
X4623652D01*
X4606724Y2972636D01*
X4708292D02*
X4725219Y2989564D01*
X4759075D01*
X4776003Y2972636D01*
Y2955708D01*
X4759075Y2938780D01*
X4742147D01*
X4759075D01*
X4776003Y2921852D01*
Y2904924D01*
X4759075Y2887997D01*
X4725219D01*
X4708292Y2904924D01*
X4148705Y2893077D02*
Y2994644D01*
X4199488D01*
X4216416Y2977716D01*
Y2943860D01*
X4199488Y2926932D01*
X4148705D01*
X4182561D02*
X4216416Y2893077D01*
X4317983D02*
X4250272D01*
X4317983Y2960788D01*
Y2977716D01*
X4301056Y2994644D01*
X4267200D01*
X4250272Y2977716D01*
X4351839Y2893077D02*
X4385695D01*
X4368767D01*
Y2994644D01*
X4351839Y2977716D01*
X4421397Y1368421D02*
Y1469989D01*
X4472180D01*
X4489108Y1453061D01*
Y1419205D01*
X4472180Y1402277D01*
X4421397D01*
X4455252D02*
X4489108Y1368421D01*
X4522964D02*
X4556820D01*
X4539892D01*
Y1469989D01*
X4522964Y1453061D01*
X4607603D02*
X4624531Y1469989D01*
X4658387D01*
X4675315Y1453061D01*
Y1436133D01*
X4658387Y1419205D01*
X4675315Y1402277D01*
Y1385349D01*
X4658387Y1368421D01*
X4624531D01*
X4607603Y1385349D01*
Y1402277D01*
X4624531Y1419205D01*
X4607603Y1436133D01*
Y1453061D01*
X4624531Y1419205D02*
X4658387D01*
X4607601Y1681497D02*
Y1783064D01*
X4658385D01*
X4675312Y1766136D01*
Y1732280D01*
X4658385Y1715352D01*
X4607601D01*
X4641457D02*
X4675312Y1681497D01*
X4709168D02*
X4743024D01*
X4726096D01*
Y1783064D01*
X4709168Y1766136D01*
X4793808Y1783064D02*
X4861519D01*
Y1766136D01*
X4793808Y1698424D01*
Y1681497D01*
X4036101Y1366537D02*
Y1468104D01*
X4086885D01*
X4103812Y1451176D01*
Y1417320D01*
X4086885Y1400392D01*
X4036101D01*
X4069957D02*
X4103812Y1366537D01*
X4137668D02*
X4171524D01*
X4154596D01*
Y1468104D01*
X4137668Y1451176D01*
X4290019Y1468104D02*
X4256163Y1451176D01*
X4222308Y1417320D01*
Y1383464D01*
X4239236Y1366537D01*
X4273091D01*
X4290019Y1383464D01*
Y1400392D01*
X4273091Y1417320D01*
X4222308D01*
X3393481Y1219217D02*
Y1320784D01*
X3444265D01*
X3461192Y1303856D01*
Y1270000D01*
X3444265Y1253072D01*
X3393481D01*
X3427337D02*
X3461192Y1219217D01*
X3495048D02*
X3528904D01*
X3511976D01*
Y1320784D01*
X3495048Y1303856D01*
X3647399Y1320784D02*
X3579688D01*
Y1270000D01*
X3613543Y1286928D01*
X3630471D01*
X3647399Y1270000D01*
Y1236144D01*
X3630471Y1219217D01*
X3596616D01*
X3579688Y1236144D01*
X3563661Y1374157D02*
Y1475724D01*
X3614445D01*
X3631372Y1458796D01*
Y1424940D01*
X3614445Y1408012D01*
X3563661D01*
X3597517D02*
X3631372Y1374157D01*
X3665228D02*
X3699084D01*
X3682156D01*
Y1475724D01*
X3665228Y1458796D01*
X3800651Y1374157D02*
Y1475724D01*
X3749868Y1424940D01*
X3817579D01*
X3713521Y1219217D02*
Y1320784D01*
X3764305D01*
X3781232Y1303856D01*
Y1270000D01*
X3764305Y1253072D01*
X3713521D01*
X3747377D02*
X3781232Y1219217D01*
X3815088D02*
X3848944D01*
X3832016D01*
Y1320784D01*
X3815088Y1303856D01*
X3899728D02*
X3916656Y1320784D01*
X3950511D01*
X3967439Y1303856D01*
Y1286928D01*
X3950511Y1270000D01*
X3933583D01*
X3950511D01*
X3967439Y1253072D01*
Y1236144D01*
X3950511Y1219217D01*
X3916656D01*
X3899728Y1236144D01*
X3119103Y7677609D02*
X3017536D01*
Y7728392D01*
X3034464Y7745320D01*
X3068320D01*
X3085248Y7728392D01*
Y7677609D01*
Y7711465D02*
X3119103Y7745320D01*
Y7779176D02*
Y7813032D01*
Y7796104D01*
X3017536D01*
X3034464Y7779176D01*
X3119103Y7863816D02*
Y7897671D01*
Y7880743D01*
X3017536D01*
X3034464Y7863816D01*
X3116563Y7967161D02*
X3014996D01*
Y8017944D01*
X3031924Y8034872D01*
X3065780D01*
X3082708Y8017944D01*
Y7967161D01*
Y8001017D02*
X3116563Y8034872D01*
X3031924Y8068728D02*
X3014996Y8085656D01*
Y8119512D01*
X3031924Y8136439D01*
X3048852D01*
X3065780Y8119512D01*
X3082708Y8136439D01*
X3099636D01*
X3116563Y8119512D01*
Y8085656D01*
X3099636Y8068728D01*
X3082708D01*
X3065780Y8085656D01*
X3048852Y8068728D01*
X3031924D01*
X3065780Y8085656D02*
Y8119512D01*
X8454841Y629937D02*
Y731504D01*
X8505624D01*
X8522552Y714576D01*
Y680720D01*
X8505624Y663792D01*
X8454841D01*
X8488697D02*
X8522552Y629937D01*
X8556408Y731504D02*
X8624119D01*
Y714576D01*
X8556408Y646864D01*
Y629937D01*
X349701Y157497D02*
Y259064D01*
X400484D01*
X417412Y242136D01*
Y208280D01*
X400484Y191352D01*
X349701D01*
X383557D02*
X417412Y157497D01*
X518979Y259064D02*
X485124Y242136D01*
X451268Y208280D01*
Y174424D01*
X468196Y157497D01*
X502052D01*
X518979Y174424D01*
Y191352D01*
X502052Y208280D01*
X451268D01*
X8468360Y8661400D02*
Y8762967D01*
X8519143D01*
X8536071Y8746039D01*
Y8712183D01*
X8519143Y8695256D01*
X8468360D01*
X8502216D02*
X8536071Y8661400D01*
X8637639Y8762967D02*
X8569927D01*
Y8712183D01*
X8603783Y8729111D01*
X8620711D01*
X8637639Y8712183D01*
Y8678328D01*
X8620711Y8661400D01*
X8586855D01*
X8569927Y8678328D01*
X4663497Y2578117D02*
Y2679684D01*
X4714281D01*
X4731209Y2662756D01*
Y2628900D01*
X4714281Y2611972D01*
X4663497D01*
X4697353D02*
X4731209Y2578117D01*
X4765065D02*
X4798920D01*
X4781992D01*
Y2679684D01*
X4765065Y2662756D01*
X4900488Y2578117D02*
Y2679684D01*
X4849704Y2628900D01*
X4917415D01*
X5018983Y2679684D02*
X4985127Y2662756D01*
X4951271Y2628900D01*
Y2595044D01*
X4968199Y2578117D01*
X5002055D01*
X5018983Y2595044D01*
Y2611972D01*
X5002055Y2628900D01*
X4951271D01*
X4092809Y4236704D02*
Y4219776D01*
X4126664Y4185920D01*
X4160520Y4219776D01*
Y4236704D01*
X4126664Y4185920D02*
Y4135137D01*
X4194376D02*
X4228232D01*
X4211304D01*
Y4236704D01*
X4194376Y4219776D01*
X4063983Y2722937D02*
X3962416D01*
Y2773721D01*
X3979344Y2790649D01*
X4013200D01*
X4030128Y2773721D01*
Y2722937D01*
Y2756793D02*
X4063983Y2790649D01*
Y2824505D02*
Y2858360D01*
Y2841432D01*
X3962416D01*
X3979344Y2824505D01*
X4063983Y2959928D02*
X3962416D01*
X4013200Y2909144D01*
Y2976855D01*
X4047056Y3010711D02*
X4063983Y3027639D01*
Y3061495D01*
X4047056Y3078423D01*
X3979344D01*
X3962416Y3061495D01*
Y3027639D01*
X3979344Y3010711D01*
X3996272D01*
X4013200Y3027639D01*
Y3078423D01*
X7825797Y858537D02*
Y960104D01*
X7876581D01*
X7893509Y943176D01*
Y909320D01*
X7876581Y892392D01*
X7825797D01*
X7859653D02*
X7893509Y858537D01*
X7927365D02*
X7961220D01*
X7944292D01*
Y960104D01*
X7927365Y943176D01*
X8012004D02*
X8028932Y960104D01*
X8062788D01*
X8079715Y943176D01*
Y926248D01*
X8062788Y909320D01*
X8045860D01*
X8062788D01*
X8079715Y892392D01*
Y875464D01*
X8062788Y858537D01*
X8028932D01*
X8012004Y875464D01*
X8113571Y960104D02*
X8181283D01*
Y943176D01*
X8113571Y875464D01*
Y858537D01*
X5854683Y7010457D02*
X5753116D01*
Y7061241D01*
X5770044Y7078169D01*
X5803900D01*
X5820828Y7061241D01*
Y7010457D01*
Y7044313D02*
X5854683Y7078169D01*
Y7112025D02*
Y7145880D01*
Y7128952D01*
X5753116D01*
X5770044Y7112025D01*
Y7196664D02*
X5753116Y7213592D01*
Y7247448D01*
X5770044Y7264375D01*
X5786972D01*
X5803900Y7247448D01*
Y7230520D01*
Y7247448D01*
X5820828Y7264375D01*
X5837756D01*
X5854683Y7247448D01*
Y7213592D01*
X5837756Y7196664D01*
X5753116Y7365943D02*
X5770044Y7332087D01*
X5803900Y7298231D01*
X5837756D01*
X5854683Y7315159D01*
Y7349015D01*
X5837756Y7365943D01*
X5820828D01*
X5803900Y7349015D01*
Y7298231D01*
X6718357Y8049277D02*
Y8150844D01*
X6769141D01*
X6786069Y8133916D01*
Y8100060D01*
X6769141Y8083132D01*
X6718357D01*
X6752213D02*
X6786069Y8049277D01*
X6819925D02*
X6853780D01*
X6836852D01*
Y8150844D01*
X6819925Y8133916D01*
X6904564D02*
X6921492Y8150844D01*
X6955348D01*
X6972275Y8133916D01*
Y8116988D01*
X6955348Y8100060D01*
X6938420D01*
X6955348D01*
X6972275Y8083132D01*
Y8066204D01*
X6955348Y8049277D01*
X6921492D01*
X6904564Y8066204D01*
X7073843Y8150844D02*
X7006131D01*
Y8100060D01*
X7039987Y8116988D01*
X7056915D01*
X7073843Y8100060D01*
Y8066204D01*
X7056915Y8049277D01*
X7023059D01*
X7006131Y8066204D01*
X5410183Y6896158D02*
X5308616D01*
Y6946941D01*
X5325544Y6963869D01*
X5359400D01*
X5376328Y6946941D01*
Y6896158D01*
Y6930013D02*
X5410183Y6963869D01*
Y6997725D02*
Y7031581D01*
Y7014653D01*
X5308616D01*
X5325544Y6997725D01*
Y7082364D02*
X5308616Y7099292D01*
Y7133148D01*
X5325544Y7150076D01*
X5342472D01*
X5359400Y7133148D01*
Y7116220D01*
Y7133148D01*
X5376328Y7150076D01*
X5393255D01*
X5410183Y7133148D01*
Y7099292D01*
X5393255Y7082364D01*
X5410183Y7234715D02*
X5308616D01*
X5359400Y7183932D01*
Y7251643D01*
X1993883Y7497285D02*
X1892316D01*
Y7548069D01*
X1909244Y7564997D01*
X1943100D01*
X1960028Y7548069D01*
Y7497285D01*
Y7531141D02*
X1993883Y7564997D01*
Y7598853D02*
Y7632708D01*
Y7615781D01*
X1892316D01*
X1909244Y7598853D01*
Y7683492D02*
X1892316Y7700420D01*
Y7734276D01*
X1909244Y7751203D01*
X1926172D01*
X1943100Y7734276D01*
Y7717348D01*
Y7734276D01*
X1960028Y7751203D01*
X1976955D01*
X1993883Y7734276D01*
Y7700420D01*
X1976955Y7683492D01*
X1993883Y7785059D02*
Y7818915D01*
Y7801987D01*
X1892316D01*
X1909244Y7785059D01*
X2954003Y7734357D02*
X2852436D01*
Y7785141D01*
X2869364Y7802069D01*
X2903220D01*
X2920148Y7785141D01*
Y7734357D01*
Y7768213D02*
X2954003Y7802069D01*
Y7835925D02*
Y7869780D01*
Y7852852D01*
X2852436D01*
X2869364Y7835925D01*
Y7920564D02*
X2852436Y7937492D01*
Y7971348D01*
X2869364Y7988275D01*
X2886292D01*
X2903220Y7971348D01*
Y7954420D01*
Y7971348D01*
X2920148Y7988275D01*
X2937076D01*
X2954003Y7971348D01*
Y7937492D01*
X2937076Y7920564D01*
X2869364Y8022131D02*
X2852436Y8039059D01*
Y8072915D01*
X2869364Y8089843D01*
X2937076D01*
X2954003Y8072915D01*
Y8039059D01*
X2937076Y8022131D01*
X2869364D01*
X322563Y2468937D02*
X220996D01*
Y2519721D01*
X237924Y2536649D01*
X271780D01*
X288708Y2519721D01*
Y2468937D01*
Y2502793D02*
X322563Y2536649D01*
Y2570505D02*
Y2604360D01*
Y2587432D01*
X220996D01*
X237924Y2570505D01*
X322563Y2722855D02*
Y2655144D01*
X254852Y2722855D01*
X237924D01*
X220996Y2705928D01*
Y2672072D01*
X237924Y2655144D01*
X305636Y2756711D02*
X322563Y2773639D01*
Y2807495D01*
X305636Y2824423D01*
X237924D01*
X220996Y2807495D01*
Y2773639D01*
X237924Y2756711D01*
X254852D01*
X271780Y2773639D01*
Y2824423D01*
X429317Y2070117D02*
Y2171684D01*
X480101D01*
X497029Y2154756D01*
Y2120900D01*
X480101Y2103972D01*
X429317D01*
X463173D02*
X497029Y2070117D01*
X530885D02*
X564740D01*
X547812D01*
Y2171684D01*
X530885Y2154756D01*
X683235Y2070117D02*
X615524D01*
X683235Y2137828D01*
Y2154756D01*
X666308Y2171684D01*
X632452D01*
X615524Y2154756D01*
X717091D02*
X734019Y2171684D01*
X767875D01*
X784803Y2154756D01*
Y2137828D01*
X767875Y2120900D01*
X784803Y2103972D01*
Y2087044D01*
X767875Y2070117D01*
X734019D01*
X717091Y2087044D01*
Y2103972D01*
X734019Y2120900D01*
X717091Y2137828D01*
Y2154756D01*
X734019Y2120900D02*
X767875D01*
X1735721Y6921517D02*
Y7023084D01*
X1786505D01*
X1803433Y7006156D01*
Y6972300D01*
X1786505Y6955372D01*
X1735721D01*
X1769577D02*
X1803433Y6921517D01*
X1837289D02*
X1871144D01*
X1854217D01*
Y7023084D01*
X1837289Y7006156D01*
X1921928Y6921517D02*
X1955784D01*
X1938856D01*
Y7023084D01*
X1921928Y7006156D01*
X2074279Y7023084D02*
X2040423Y7006156D01*
X2006567Y6972300D01*
Y6938444D01*
X2023495Y6921517D01*
X2057351D01*
X2074279Y6938444D01*
Y6955372D01*
X2057351Y6972300D01*
X2006567D01*
X3451843Y7279697D02*
X3350276D01*
Y7330481D01*
X3367204Y7347409D01*
X3401060D01*
X3417988Y7330481D01*
Y7279697D01*
Y7313553D02*
X3451843Y7347409D01*
Y7381265D02*
Y7415120D01*
Y7398192D01*
X3350276D01*
X3367204Y7381265D01*
Y7465904D02*
X3350276Y7482832D01*
Y7516688D01*
X3367204Y7533615D01*
X3434916D01*
X3451843Y7516688D01*
Y7482832D01*
X3434916Y7465904D01*
X3367204D01*
X3434916Y7567471D02*
X3451843Y7584399D01*
Y7618255D01*
X3434916Y7635183D01*
X3367204D01*
X3350276Y7618255D01*
Y7584399D01*
X3367204Y7567471D01*
X3384132D01*
X3401060Y7584399D01*
Y7635183D01*
X3583923Y7282238D02*
X3482356D01*
Y7333021D01*
X3499284Y7349949D01*
X3533140D01*
X3550068Y7333021D01*
Y7282238D01*
Y7316093D02*
X3583923Y7349949D01*
Y7383805D02*
Y7417661D01*
Y7400733D01*
X3482356D01*
X3499284Y7383805D01*
Y7468444D02*
X3482356Y7485372D01*
Y7519228D01*
X3499284Y7536156D01*
X3566995D01*
X3583923Y7519228D01*
Y7485372D01*
X3566995Y7468444D01*
X3499284D01*
X3482356Y7570012D02*
Y7637723D01*
X3499284D01*
X3566995Y7570012D01*
X3583923D01*
X241283Y4779477D02*
X139716D01*
Y4830261D01*
X156644Y4847189D01*
X190500D01*
X207428Y4830261D01*
Y4779477D01*
Y4813333D02*
X241283Y4847189D01*
X224355Y4881045D02*
X241283Y4897972D01*
Y4931828D01*
X224355Y4948756D01*
X156644D01*
X139716Y4931828D01*
Y4897972D01*
X156644Y4881045D01*
X173572D01*
X190500Y4897972D01*
Y4948756D01*
X139716Y4982612D02*
Y5050323D01*
X156644D01*
X224355Y4982612D01*
X241283D01*
X215883Y5935177D02*
X114316D01*
Y5985961D01*
X131244Y6002888D01*
X165100D01*
X182028Y5985961D01*
Y5935177D01*
Y5969033D02*
X215883Y6002888D01*
X198956Y6036744D02*
X215883Y6053672D01*
Y6087528D01*
X198956Y6104456D01*
X131244D01*
X114316Y6087528D01*
Y6053672D01*
X131244Y6036744D01*
X148172D01*
X165100Y6053672D01*
Y6104456D01*
X114316Y6206023D02*
X131244Y6172167D01*
X165100Y6138312D01*
X198956D01*
X215883Y6155239D01*
Y6189095D01*
X198956Y6206023D01*
X182028D01*
X165100Y6189095D01*
Y6138312D01*
X1553677Y6261117D02*
Y6362684D01*
X1604461D01*
X1621388Y6345756D01*
Y6311900D01*
X1604461Y6294972D01*
X1553677D01*
X1587533D02*
X1621388Y6261117D01*
X1655244Y6278044D02*
X1672172Y6261117D01*
X1706028D01*
X1722956Y6278044D01*
Y6345756D01*
X1706028Y6362684D01*
X1672172D01*
X1655244Y6345756D01*
Y6328828D01*
X1672172Y6311900D01*
X1722956D01*
X1807595Y6261117D02*
Y6362684D01*
X1756812Y6311900D01*
X1824523D01*
X1375877Y6111257D02*
Y6212824D01*
X1426661D01*
X1443588Y6195896D01*
Y6162040D01*
X1426661Y6145112D01*
X1375877D01*
X1409733D02*
X1443588Y6111257D01*
X1477444Y6128184D02*
X1494372Y6111257D01*
X1528228D01*
X1545156Y6128184D01*
Y6195896D01*
X1528228Y6212824D01*
X1494372D01*
X1477444Y6195896D01*
Y6178968D01*
X1494372Y6162040D01*
X1545156D01*
X1579012Y6195896D02*
X1595939Y6212824D01*
X1629795D01*
X1646723Y6195896D01*
Y6178968D01*
X1629795Y6162040D01*
X1612867D01*
X1629795D01*
X1646723Y6145112D01*
Y6128184D01*
X1629795Y6111257D01*
X1595939D01*
X1579012Y6128184D01*
X7535377Y2679717D02*
Y2781284D01*
X7586161D01*
X7603088Y2764356D01*
Y2730500D01*
X7586161Y2713572D01*
X7535377D01*
X7569233D02*
X7603088Y2679717D01*
X7636944Y2696644D02*
X7653872Y2679717D01*
X7687728D01*
X7704656Y2696644D01*
Y2764356D01*
X7687728Y2781284D01*
X7653872D01*
X7636944Y2764356D01*
Y2747428D01*
X7653872Y2730500D01*
X7704656D01*
X7806223Y2679717D02*
X7738512D01*
X7806223Y2747428D01*
Y2764356D01*
X7789295Y2781284D01*
X7755439D01*
X7738512Y2764356D01*
X7565005Y2413017D02*
Y2514584D01*
X7615788D01*
X7632716Y2497656D01*
Y2463800D01*
X7615788Y2446872D01*
X7565005D01*
X7598861D02*
X7632716Y2413017D01*
X7666572Y2429944D02*
X7683500Y2413017D01*
X7717356D01*
X7734283Y2429944D01*
Y2497656D01*
X7717356Y2514584D01*
X7683500D01*
X7666572Y2497656D01*
Y2480728D01*
X7683500Y2463800D01*
X7734283D01*
X7768139Y2413017D02*
X7801995D01*
X7785067D01*
Y2514584D01*
X7768139Y2497656D01*
X1546057Y5963937D02*
Y6065504D01*
X1596841D01*
X1613768Y6048576D01*
Y6014720D01*
X1596841Y5997792D01*
X1546057D01*
X1579913D02*
X1613768Y5963937D01*
X1647624Y5980864D02*
X1664552Y5963937D01*
X1698408D01*
X1715336Y5980864D01*
Y6048576D01*
X1698408Y6065504D01*
X1664552D01*
X1647624Y6048576D01*
Y6031648D01*
X1664552Y6014720D01*
X1715336D01*
X1749192Y6048576D02*
X1766119Y6065504D01*
X1799975D01*
X1816903Y6048576D01*
Y5980864D01*
X1799975Y5963937D01*
X1766119D01*
X1749192Y5980864D01*
Y6048576D01*
X1688297Y5646437D02*
Y5748004D01*
X1739081D01*
X1756008Y5731076D01*
Y5697220D01*
X1739081Y5680292D01*
X1688297D01*
X1722153D02*
X1756008Y5646437D01*
X1789864Y5748004D02*
X1857576D01*
Y5731076D01*
X1789864Y5663364D01*
Y5646437D01*
X1891432Y5731076D02*
X1908359Y5748004D01*
X1942215D01*
X1959143Y5731076D01*
Y5714148D01*
X1942215Y5697220D01*
X1959143Y5680292D01*
Y5663364D01*
X1942215Y5646437D01*
X1908359D01*
X1891432Y5663364D01*
Y5680292D01*
X1908359Y5697220D01*
X1891432Y5714148D01*
Y5731076D01*
X1908359Y5697220D02*
X1942215D01*
X4972517Y5468637D02*
Y5570204D01*
X5023301D01*
X5040228Y5553276D01*
Y5519420D01*
X5023301Y5502492D01*
X4972517D01*
X5006373D02*
X5040228Y5468637D01*
X5141796Y5570204D02*
X5074084D01*
Y5519420D01*
X5107940Y5536348D01*
X5124868D01*
X5141796Y5519420D01*
Y5485564D01*
X5124868Y5468637D01*
X5091012D01*
X5074084Y5485564D01*
X5175652Y5553276D02*
X5192579Y5570204D01*
X5226435D01*
X5243363Y5553276D01*
Y5485564D01*
X5226435Y5468637D01*
X5192579D01*
X5175652Y5485564D01*
Y5553276D01*
X4962357Y5636277D02*
Y5737844D01*
X5013141D01*
X5030068Y5720916D01*
Y5687060D01*
X5013141Y5670132D01*
X4962357D01*
X4996213D02*
X5030068Y5636277D01*
X5114708D02*
Y5737844D01*
X5063924Y5687060D01*
X5131636D01*
X5165492Y5720916D02*
X5182419Y5737844D01*
X5216275D01*
X5233203Y5720916D01*
Y5703988D01*
X5216275Y5687060D01*
X5233203Y5670132D01*
Y5653204D01*
X5216275Y5636277D01*
X5182419D01*
X5165492Y5653204D01*
Y5670132D01*
X5182419Y5687060D01*
X5165492Y5703988D01*
Y5720916D01*
X5182419Y5687060D02*
X5216275D01*
X1498583Y7078177D02*
X1397016D01*
Y7128961D01*
X1413944Y7145889D01*
X1447800D01*
X1464728Y7128961D01*
Y7078177D01*
Y7112033D02*
X1498583Y7145889D01*
Y7230528D02*
X1397016D01*
X1447800Y7179745D01*
Y7247456D01*
X1397016Y7349023D02*
X1413944Y7315167D01*
X1447800Y7281312D01*
X1481655D01*
X1498583Y7298240D01*
Y7332095D01*
X1481655Y7349023D01*
X1464728D01*
X1447800Y7332095D01*
Y7281312D01*
X1663683Y7089777D02*
X1562116D01*
Y7140561D01*
X1579044Y7157488D01*
X1612900D01*
X1629828Y7140561D01*
Y7089777D01*
Y7123633D02*
X1663683Y7157488D01*
Y7242128D02*
X1562116D01*
X1612900Y7191344D01*
Y7259056D01*
X1579044Y7292911D02*
X1562116Y7309839D01*
Y7343695D01*
X1579044Y7360623D01*
X1595972D01*
X1612900Y7343695D01*
Y7326767D01*
Y7343695D01*
X1629828Y7360623D01*
X1646756D01*
X1663683Y7343695D01*
Y7309839D01*
X1646756Y7292911D01*
X154923Y1820377D02*
X53356D01*
Y1871161D01*
X70284Y1888089D01*
X104140D01*
X121068Y1871161D01*
Y1820377D01*
Y1854233D02*
X154923Y1888089D01*
Y1989656D02*
Y1921945D01*
X87212Y1989656D01*
X70284D01*
X53356Y1972728D01*
Y1938872D01*
X70284Y1921945D01*
X154923Y2074295D02*
X53356D01*
X104140Y2023512D01*
Y2091223D01*
X664677Y2311417D02*
Y2412984D01*
X715461D01*
X732388Y2396056D01*
Y2362200D01*
X715461Y2345272D01*
X664677D01*
X698533D02*
X732388Y2311417D01*
X833956D02*
X766244D01*
X833956Y2379128D01*
Y2396056D01*
X817028Y2412984D01*
X783172D01*
X766244Y2396056D01*
X935523Y2311417D02*
X867812D01*
X935523Y2379128D01*
Y2396056D01*
X918595Y2412984D01*
X884739D01*
X867812Y2396056D01*
X3088623Y4345137D02*
X2987056D01*
Y4395921D01*
X3003984Y4412849D01*
X3037840D01*
X3054768Y4395921D01*
Y4345137D01*
Y4378993D02*
X3088623Y4412849D01*
Y4514416D02*
Y4446705D01*
X3020912Y4514416D01*
X3003984D01*
X2987056Y4497488D01*
Y4463632D01*
X3003984Y4446705D01*
Y4548272D02*
X2987056Y4565200D01*
Y4599055D01*
X3003984Y4615983D01*
X3071695D01*
X3088623Y4599055D01*
Y4565200D01*
X3071695Y4548272D01*
X3003984D01*
X3263883Y4345981D02*
X3162316D01*
Y4396765D01*
X3179244Y4413692D01*
X3213100D01*
X3230028Y4396765D01*
Y4345981D01*
Y4379837D02*
X3263883Y4413692D01*
Y4447548D02*
Y4481404D01*
Y4464476D01*
X3162316D01*
X3179244Y4447548D01*
X3246956Y4532188D02*
X3263883Y4549116D01*
Y4582971D01*
X3246956Y4599899D01*
X3179244D01*
X3162316Y4582971D01*
Y4549116D01*
X3179244Y4532188D01*
X3196172D01*
X3213100Y4549116D01*
Y4599899D01*
X4996941Y6540517D02*
Y6642084D01*
X5047724D01*
X5064652Y6625156D01*
Y6591300D01*
X5047724Y6574372D01*
X4996941D01*
X5030797D02*
X5064652Y6540517D01*
X5098508D02*
X5132364D01*
X5115436D01*
Y6642084D01*
X5098508Y6625156D01*
X5250859Y6540517D02*
X5183148D01*
X5250859Y6608228D01*
Y6625156D01*
X5233931Y6642084D01*
X5200075D01*
X5183148Y6625156D01*
X4996941Y6692917D02*
Y6794484D01*
X5047724D01*
X5064652Y6777556D01*
Y6743700D01*
X5047724Y6726772D01*
X4996941D01*
X5030797D02*
X5064652Y6692917D01*
X5098508D02*
X5132364D01*
X5115436D01*
Y6794484D01*
X5098508Y6777556D01*
X5183148D02*
X5200075Y6794484D01*
X5233931D01*
X5250859Y6777556D01*
Y6709844D01*
X5233931Y6692917D01*
X5200075D01*
X5183148Y6709844D01*
Y6777556D01*
X5008061Y6858017D02*
Y6959584D01*
X5058844D01*
X5075772Y6942656D01*
Y6908800D01*
X5058844Y6891872D01*
X5008061D01*
X5041917D02*
X5075772Y6858017D01*
X5109628Y6874944D02*
X5126556Y6858017D01*
X5160412D01*
X5177339Y6874944D01*
Y6942656D01*
X5160412Y6959584D01*
X5126556D01*
X5109628Y6942656D01*
Y6925728D01*
X5126556Y6908800D01*
X5177339D01*
X2743183Y4606741D02*
X2641616D01*
Y4657524D01*
X2658544Y4674452D01*
X2692400D01*
X2709328Y4657524D01*
Y4606741D01*
Y4640597D02*
X2743183Y4674452D01*
X2658544Y4708308D02*
X2641616Y4725236D01*
Y4759092D01*
X2658544Y4776019D01*
X2675472D01*
X2692400Y4759092D01*
Y4742164D01*
Y4759092D01*
X2709328Y4776019D01*
X2726256D01*
X2743183Y4759092D01*
Y4725236D01*
X2726256Y4708308D01*
X2590783Y4606741D02*
X2489216D01*
Y4657524D01*
X2506144Y4674452D01*
X2540000D01*
X2556928Y4657524D01*
Y4606741D01*
Y4640597D02*
X2590783Y4674452D01*
Y4776019D02*
Y4708308D01*
X2523072Y4776019D01*
X2506144D01*
X2489216Y4759092D01*
Y4725236D01*
X2506144Y4708308D01*
X2284329Y4249437D02*
Y4351004D01*
X2335112D01*
X2352040Y4334076D01*
Y4300220D01*
X2335112Y4283292D01*
X2284329D01*
X2318184D02*
X2352040Y4249437D01*
X2385896D02*
X2419752D01*
X2402824D01*
Y4351004D01*
X2385896Y4334076D01*
X5588016Y7205161D02*
X5689583D01*
Y7255944D01*
X5672656Y7272872D01*
X5604944D01*
X5588016Y7255944D01*
Y7205161D01*
Y7374439D02*
Y7306728D01*
X5638800D01*
X5621872Y7340584D01*
Y7357512D01*
X5638800Y7374439D01*
X5672656D01*
X5689583Y7357512D01*
Y7323656D01*
X5672656Y7306728D01*
X6530356Y7962081D02*
X6631923D01*
Y8012864D01*
X6614996Y8029792D01*
X6547284D01*
X6530356Y8012864D01*
Y7962081D01*
X6631923Y8114432D02*
X6530356D01*
X6581140Y8063648D01*
Y8131359D01*
X5118116Y7065461D02*
X5219683D01*
Y7116244D01*
X5202756Y7133172D01*
X5135044D01*
X5118116Y7116244D01*
Y7065461D01*
X5135044Y7167028D02*
X5118116Y7183956D01*
Y7217812D01*
X5135044Y7234739D01*
X5151972D01*
X5168900Y7217812D01*
Y7200884D01*
Y7217812D01*
X5185828Y7234739D01*
X5202756D01*
X5219683Y7217812D01*
Y7183956D01*
X5202756Y7167028D01*
X2294489Y4201144D02*
Y4099577D01*
X2345272D01*
X2362200Y4116504D01*
Y4184216D01*
X2345272Y4201144D01*
X2294489D01*
X2396056Y4099577D02*
X2429912D01*
X2412984D01*
Y4201144D01*
X2396056Y4184216D01*
X3428164Y2721208D02*
X3411236Y2704281D01*
Y2670425D01*
X3428164Y2653497D01*
X3495876D01*
X3512803Y2670425D01*
Y2704281D01*
X3495876Y2721208D01*
X3512803Y2805848D02*
X3411236D01*
X3462020Y2755064D01*
Y2822776D01*
X3411236Y2924343D02*
X3428164Y2890487D01*
X3462020Y2856632D01*
X3495876D01*
X3512803Y2873559D01*
Y2907415D01*
X3495876Y2924343D01*
X3478948D01*
X3462020Y2907415D01*
Y2856632D01*
X6282288Y2858336D02*
X6265361Y2875264D01*
X6231505D01*
X6214577Y2858336D01*
Y2790624D01*
X6231505Y2773697D01*
X6265361D01*
X6282288Y2790624D01*
X6366928Y2773697D02*
Y2875264D01*
X6316144Y2824480D01*
X6383856D01*
X6485423Y2875264D02*
X6417712D01*
Y2824480D01*
X6451567Y2841408D01*
X6468495D01*
X6485423Y2824480D01*
Y2790624D01*
X6468495Y2773697D01*
X6434639D01*
X6417712Y2790624D01*
X4976728Y2418916D02*
X4959801Y2435844D01*
X4925945D01*
X4909017Y2418916D01*
Y2351204D01*
X4925945Y2334277D01*
X4959801D01*
X4976728Y2351204D01*
X5061368Y2334277D02*
Y2435844D01*
X5010584Y2385060D01*
X5078296D01*
X5162935Y2334277D02*
Y2435844D01*
X5112152Y2385060D01*
X5179863D01*
X5658284Y2713588D02*
X5641356Y2696661D01*
Y2662805D01*
X5658284Y2645877D01*
X5725996D01*
X5742923Y2662805D01*
Y2696661D01*
X5725996Y2713588D01*
X5742923Y2798228D02*
X5641356D01*
X5692140Y2747444D01*
Y2815156D01*
X5658284Y2849012D02*
X5641356Y2865939D01*
Y2899795D01*
X5658284Y2916723D01*
X5675212D01*
X5692140Y2899795D01*
Y2882867D01*
Y2899795D01*
X5709068Y2916723D01*
X5725996D01*
X5742923Y2899795D01*
Y2865939D01*
X5725996Y2849012D01*
X7412588Y2256356D02*
X7395661Y2273284D01*
X7361805D01*
X7344877Y2256356D01*
Y2188644D01*
X7361805Y2171717D01*
X7395661D01*
X7412588Y2188644D01*
X7446444Y2256356D02*
X7463372Y2273284D01*
X7497228D01*
X7514156Y2256356D01*
Y2239428D01*
X7497228Y2222500D01*
X7480300D01*
X7497228D01*
X7514156Y2205572D01*
Y2188644D01*
X7497228Y2171717D01*
X7463372D01*
X7446444Y2188644D01*
X7548012Y2256356D02*
X7564939Y2273284D01*
X7598795D01*
X7615723Y2256356D01*
Y2239428D01*
X7598795Y2222500D01*
X7615723Y2205572D01*
Y2188644D01*
X7598795Y2171717D01*
X7564939D01*
X7548012Y2188644D01*
Y2205572D01*
X7564939Y2222500D01*
X7548012Y2239428D01*
Y2256356D01*
X7564939Y2222500D02*
X7598795D01*
X7336388Y2002356D02*
X7319461Y2019284D01*
X7285605D01*
X7268677Y2002356D01*
Y1934644D01*
X7285605Y1917717D01*
X7319461D01*
X7336388Y1934644D01*
X7370244Y2002356D02*
X7387172Y2019284D01*
X7421028D01*
X7437956Y2002356D01*
Y1985428D01*
X7421028Y1968500D01*
X7404100D01*
X7421028D01*
X7437956Y1951572D01*
Y1934644D01*
X7421028Y1917717D01*
X7387172D01*
X7370244Y1934644D01*
X7471812Y2019284D02*
X7539523D01*
Y2002356D01*
X7471812Y1934644D01*
Y1917717D01*
X7341468Y1136216D02*
X7324541Y1153144D01*
X7290685D01*
X7273757Y1136216D01*
Y1068504D01*
X7290685Y1051577D01*
X7324541D01*
X7341468Y1068504D01*
X7375324Y1136216D02*
X7392252Y1153144D01*
X7426108D01*
X7443036Y1136216D01*
Y1119288D01*
X7426108Y1102360D01*
X7409180D01*
X7426108D01*
X7443036Y1085432D01*
Y1068504D01*
X7426108Y1051577D01*
X7392252D01*
X7375324Y1068504D01*
X7544603Y1153144D02*
X7510747Y1136216D01*
X7476892Y1102360D01*
Y1068504D01*
X7493819Y1051577D01*
X7527675D01*
X7544603Y1068504D01*
Y1085432D01*
X7527675Y1102360D01*
X7476892D01*
X3024304Y8774028D02*
X3007376Y8757101D01*
Y8723245D01*
X3024304Y8706317D01*
X3092016D01*
X3108943Y8723245D01*
Y8757101D01*
X3092016Y8774028D01*
X3024304Y8807884D02*
X3007376Y8824812D01*
Y8858668D01*
X3024304Y8875596D01*
X3041232D01*
X3058160Y8858668D01*
Y8841740D01*
Y8858668D01*
X3075088Y8875596D01*
X3092016D01*
X3108943Y8858668D01*
Y8824812D01*
X3092016Y8807884D01*
X3108943Y8977163D02*
Y8909452D01*
X3041232Y8977163D01*
X3024304D01*
X3007376Y8960235D01*
Y8926379D01*
X3024304Y8909452D01*
X1094756Y8733356D02*
X1077828Y8750284D01*
X1043973D01*
X1027045Y8733356D01*
Y8665644D01*
X1043973Y8648717D01*
X1077828D01*
X1094756Y8665644D01*
X1128612Y8733356D02*
X1145540Y8750284D01*
X1179396D01*
X1196323Y8733356D01*
Y8716428D01*
X1179396Y8699500D01*
X1162468D01*
X1179396D01*
X1196323Y8682572D01*
Y8665644D01*
X1179396Y8648717D01*
X1145540D01*
X1128612Y8665644D01*
X1230179Y8648717D02*
X1264035D01*
X1247107D01*
Y8750284D01*
X1230179Y8733356D01*
X833988Y7851976D02*
X817061Y7868904D01*
X783205D01*
X766277Y7851976D01*
Y7784264D01*
X783205Y7767337D01*
X817061D01*
X833988Y7784264D01*
X867844Y7851976D02*
X884772Y7868904D01*
X918628D01*
X935556Y7851976D01*
Y7835048D01*
X918628Y7818120D01*
X901700D01*
X918628D01*
X935556Y7801192D01*
Y7784264D01*
X918628Y7767337D01*
X884772D01*
X867844Y7784264D01*
X969412Y7851976D02*
X986339Y7868904D01*
X1020195D01*
X1037123Y7851976D01*
Y7784264D01*
X1020195Y7767337D01*
X986339D01*
X969412Y7784264D01*
Y7851976D01*
X1075288Y8885756D02*
X1058361Y8902684D01*
X1024505D01*
X1007577Y8885756D01*
Y8818044D01*
X1024505Y8801117D01*
X1058361D01*
X1075288Y8818044D01*
X1176856Y8801117D02*
X1109144D01*
X1176856Y8868828D01*
Y8885756D01*
X1159928Y8902684D01*
X1126072D01*
X1109144Y8885756D01*
X1210712Y8818044D02*
X1227639Y8801117D01*
X1261495D01*
X1278423Y8818044D01*
Y8885756D01*
X1261495Y8902684D01*
X1227639D01*
X1210712Y8885756D01*
Y8868828D01*
X1227639Y8851900D01*
X1278423D01*
X186288Y3716856D02*
X169361Y3733784D01*
X135505D01*
X118577Y3716856D01*
Y3649144D01*
X135505Y3632217D01*
X169361D01*
X186288Y3649144D01*
X287856Y3632217D02*
X220144D01*
X287856Y3699928D01*
Y3716856D01*
X270928Y3733784D01*
X237072D01*
X220144Y3716856D01*
X321712D02*
X338639Y3733784D01*
X372495D01*
X389423Y3716856D01*
Y3699928D01*
X372495Y3683000D01*
X389423Y3666072D01*
Y3649144D01*
X372495Y3632217D01*
X338639D01*
X321712Y3649144D01*
Y3666072D01*
X338639Y3683000D01*
X321712Y3699928D01*
Y3716856D01*
X338639Y3683000D02*
X372495D01*
X1335089Y2091256D02*
X1318161Y2108184D01*
X1284305D01*
X1267377Y2091256D01*
Y2023544D01*
X1284305Y2006617D01*
X1318161D01*
X1335089Y2023544D01*
X1436656Y2006617D02*
X1368944D01*
X1436656Y2074328D01*
Y2091256D01*
X1419728Y2108184D01*
X1385872D01*
X1368944Y2091256D01*
X1470512Y2108184D02*
X1538223D01*
Y2091256D01*
X1470512Y2023544D01*
Y2006617D01*
X3471344Y4244356D02*
X3454416Y4227428D01*
Y4193573D01*
X3471344Y4176645D01*
X3539056D01*
X3555983Y4193573D01*
Y4227428D01*
X3539056Y4244356D01*
X3555983Y4345923D02*
Y4278212D01*
X3488272Y4345923D01*
X3471344D01*
X3454416Y4328996D01*
Y4295140D01*
X3471344Y4278212D01*
X3555983Y4379779D02*
Y4413635D01*
Y4396707D01*
X3454416D01*
X3471344Y4379779D01*
X3551788Y3998796D02*
X3534861Y4015724D01*
X3501005D01*
X3484077Y3998796D01*
Y3931084D01*
X3501005Y3914157D01*
X3534861D01*
X3551788Y3931084D01*
X3653356Y3914157D02*
X3585644D01*
X3653356Y3981868D01*
Y3998796D01*
X3636428Y4015724D01*
X3602572D01*
X3585644Y3998796D01*
X3687212D02*
X3704139Y4015724D01*
X3737995D01*
X3754923Y3998796D01*
Y3931084D01*
X3737995Y3914157D01*
X3704139D01*
X3687212Y3931084D01*
Y3998796D01*
X2018472Y5314516D02*
X2001545Y5331444D01*
X1967689D01*
X1950761Y5314516D01*
Y5246804D01*
X1967689Y5229877D01*
X2001545D01*
X2018472Y5246804D01*
X2052328Y5229877D02*
X2086184D01*
X2069256D01*
Y5331444D01*
X2052328Y5314516D01*
X2136968D02*
X2153896Y5331444D01*
X2187751D01*
X2204679Y5314516D01*
Y5297588D01*
X2187751Y5280660D01*
X2204679Y5263732D01*
Y5246804D01*
X2187751Y5229877D01*
X2153896D01*
X2136968Y5246804D01*
Y5263732D01*
X2153896Y5280660D01*
X2136968Y5297588D01*
Y5314516D01*
X2153896Y5280660D02*
X2187751D01*
X1767012Y5893636D02*
X1750085Y5910564D01*
X1716229D01*
X1699301Y5893636D01*
Y5825924D01*
X1716229Y5808997D01*
X1750085D01*
X1767012Y5825924D01*
X1800868Y5808997D02*
X1834724D01*
X1817796D01*
Y5910564D01*
X1800868Y5893636D01*
X1885508Y5910564D02*
X1953219D01*
Y5893636D01*
X1885508Y5825924D01*
Y5808997D01*
X2066732Y6579436D02*
X2049805Y6596364D01*
X2015949D01*
X1999021Y6579436D01*
Y6511724D01*
X2015949Y6494797D01*
X2049805D01*
X2066732Y6511724D01*
X2100588Y6494797D02*
X2134444D01*
X2117516D01*
Y6596364D01*
X2100588Y6579436D01*
X2252939Y6596364D02*
X2219083Y6579436D01*
X2185228Y6545580D01*
Y6511724D01*
X2202156Y6494797D01*
X2236011D01*
X2252939Y6511724D01*
Y6528652D01*
X2236011Y6545580D01*
X2185228D01*
X2668704Y7639492D02*
X2651776Y7622565D01*
Y7588709D01*
X2668704Y7571781D01*
X2736416D01*
X2753343Y7588709D01*
Y7622565D01*
X2736416Y7639492D01*
X2753343Y7673348D02*
Y7707204D01*
Y7690276D01*
X2651776D01*
X2668704Y7673348D01*
X2651776Y7825699D02*
Y7757988D01*
X2702560D01*
X2685632Y7791843D01*
Y7808771D01*
X2702560Y7825699D01*
X2736416D01*
X2753343Y7808771D01*
Y7774916D01*
X2736416Y7757988D01*
X3641524Y7504872D02*
X3624596Y7487945D01*
Y7454089D01*
X3641524Y7437161D01*
X3709236D01*
X3726163Y7454089D01*
Y7487945D01*
X3709236Y7504872D01*
X3726163Y7538728D02*
Y7572584D01*
Y7555656D01*
X3624596D01*
X3641524Y7538728D01*
X3726163Y7674151D02*
X3624596D01*
X3675380Y7623368D01*
Y7691079D01*
X3997132Y7559876D02*
X3980205Y7576804D01*
X3946349D01*
X3929421Y7559876D01*
Y7492164D01*
X3946349Y7475237D01*
X3980205D01*
X3997132Y7492164D01*
X4030988Y7475237D02*
X4064844D01*
X4047916D01*
Y7576804D01*
X4030988Y7559876D01*
X4115628D02*
X4132556Y7576804D01*
X4166411D01*
X4183339Y7559876D01*
Y7492164D01*
X4166411Y7475237D01*
X4132556D01*
X4115628Y7492164D01*
Y7559876D01*
X4905592Y7133156D02*
X4888664Y7150084D01*
X4854809D01*
X4837881Y7133156D01*
Y7065444D01*
X4854809Y7048517D01*
X4888664D01*
X4905592Y7065444D01*
X4939448D02*
X4956376Y7048517D01*
X4990232D01*
X5007159Y7065444D01*
Y7133156D01*
X4990232Y7150084D01*
X4956376D01*
X4939448Y7133156D01*
Y7116228D01*
X4956376Y7099300D01*
X5007159D01*
X5080852Y6472756D02*
X5063924Y6489684D01*
X5030069D01*
X5013141Y6472756D01*
Y6405044D01*
X5030069Y6388117D01*
X5063924D01*
X5080852Y6405044D01*
X5114708Y6472756D02*
X5131636Y6489684D01*
X5165492D01*
X5182419Y6472756D01*
Y6455828D01*
X5165492Y6438900D01*
X5182419Y6421972D01*
Y6405044D01*
X5165492Y6388117D01*
X5131636D01*
X5114708Y6405044D01*
Y6421972D01*
X5131636Y6438900D01*
X5114708Y6455828D01*
Y6472756D01*
X5131636Y6438900D02*
X5165492D01*
X5004652Y5990156D02*
X4987724Y6007084D01*
X4953869D01*
X4936941Y5990156D01*
Y5922444D01*
X4953869Y5905517D01*
X4987724D01*
X5004652Y5922444D01*
X5038508Y6007084D02*
X5106219D01*
Y5990156D01*
X5038508Y5922444D01*
Y5905517D01*
X5093552Y5342456D02*
X5076624Y5359384D01*
X5042769D01*
X5025841Y5342456D01*
Y5274744D01*
X5042769Y5257817D01*
X5076624D01*
X5093552Y5274744D01*
X5195119Y5359384D02*
X5161264Y5342456D01*
X5127408Y5308600D01*
Y5274744D01*
X5144336Y5257817D01*
X5178192D01*
X5195119Y5274744D01*
Y5291672D01*
X5178192Y5308600D01*
X5127408D01*
X3341804Y4453472D02*
X3324876Y4436544D01*
Y4402689D01*
X3341804Y4385761D01*
X3409516D01*
X3426443Y4402689D01*
Y4436544D01*
X3409516Y4453472D01*
X3324876Y4555039D02*
Y4487328D01*
X3375660D01*
X3358732Y4521184D01*
Y4538112D01*
X3375660Y4555039D01*
X3409516D01*
X3426443Y4538112D01*
Y4504256D01*
X3409516Y4487328D01*
X2821104Y4435692D02*
X2804176Y4418764D01*
Y4384909D01*
X2821104Y4367981D01*
X2888816D01*
X2905743Y4384909D01*
Y4418764D01*
X2888816Y4435692D01*
X2905743Y4520332D02*
X2804176D01*
X2854960Y4469548D01*
Y4537259D01*
X4106344Y4389972D02*
X4089416Y4373044D01*
Y4339189D01*
X4106344Y4322261D01*
X4174056D01*
X4190983Y4339189D01*
Y4373044D01*
X4174056Y4389972D01*
X4106344Y4423828D02*
X4089416Y4440756D01*
Y4474612D01*
X4106344Y4491539D01*
X4123272D01*
X4140200Y4474612D01*
Y4457684D01*
Y4474612D01*
X4157128Y4491539D01*
X4174056D01*
X4190983Y4474612D01*
Y4440756D01*
X4174056Y4423828D01*
X4446745Y4348331D02*
X4429817Y4331403D01*
Y4297548D01*
X4446745Y4280620D01*
X4514456D01*
X4531384Y4297548D01*
Y4331403D01*
X4514456Y4348331D01*
X4531384Y4449898D02*
Y4382187D01*
X4463673Y4449898D01*
X4446745D01*
X4429817Y4432971D01*
Y4399115D01*
X4446745Y4382187D01*
X4258744Y4432300D02*
X4241816Y4415372D01*
Y4381517D01*
X4258744Y4364589D01*
X4326456D01*
X4343383Y4381517D01*
Y4415372D01*
X4326456Y4432300D01*
X4343383Y4466156D02*
Y4500012D01*
Y4483084D01*
X4241816D01*
X4258744Y4466156D01*
D91*
X2567700Y4960800D02*
G03*
X2567700Y4960800I-12500J0D01*
G01*
D92*
X3671100Y4258500D02*
X3971100D01*
X3671100Y4758500D02*
X3991100D01*
D93*
X1443621Y4415323D02*
X1409766Y4381467D01*
Y4313756D01*
X1443621Y4279900D01*
X1579044D01*
X1612900Y4313756D01*
Y4381467D01*
X1579044Y4415323D01*
X1477477Y4516890D02*
Y4584601D01*
X1511333Y4618457D01*
X1612900D01*
Y4516890D01*
X1579044Y4483034D01*
X1545189Y4516890D01*
Y4618457D01*
X1612900Y4686168D02*
X1477477D01*
Y4720024D01*
X1511333Y4753880D01*
X1612900D01*
X1511333D01*
X1477477Y4787736D01*
X1511333Y4821591D01*
X1612900D01*
Y4990870D02*
Y4923158D01*
X1579044Y4889303D01*
X1511333D01*
X1477477Y4923158D01*
Y4990870D01*
X1511333Y5024726D01*
X1545189D01*
Y4889303D01*
X1477477Y5092437D02*
X1612900D01*
X1545189D01*
X1511333Y5126293D01*
X1477477Y5160148D01*
Y5194004D01*
Y5329427D02*
Y5397138D01*
X1511333Y5430994D01*
X1612900D01*
Y5329427D01*
X1579044Y5295571D01*
X1545189Y5329427D01*
Y5430994D01*
D94*
X3158023Y580759D02*
X3124167Y614614D01*
X3056456D01*
X3022600Y580759D01*
Y445336D01*
X3056456Y411480D01*
X3124167D01*
X3158023Y445336D01*
X3225734Y614614D02*
X3361157D01*
X3293446D01*
Y411480D01*
X3564291Y580759D02*
X3530436Y614614D01*
X3462724D01*
X3428868Y580759D01*
Y546903D01*
X3462724Y513047D01*
X3530436D01*
X3564291Y479191D01*
Y445336D01*
X3530436Y411480D01*
X3462724D01*
X3428868Y445336D01*
X3970560Y580759D02*
X3936704Y614614D01*
X3868993D01*
X3835137Y580759D01*
Y546903D01*
X3868993Y513047D01*
X3936704D01*
X3970560Y479191D01*
Y445336D01*
X3936704Y411480D01*
X3868993D01*
X3835137Y445336D01*
X4038271Y411480D02*
Y546903D01*
X4105982Y614614D01*
X4173694Y546903D01*
Y411480D01*
Y513047D01*
X4038271D01*
X4241405Y614614D02*
X4376828D01*
X4309117D01*
Y411480D01*
X4647674D02*
X4715385D01*
X4681529D01*
Y614614D01*
X4647674Y580759D01*
X5121654Y614614D02*
X5053942D01*
X5020086Y580759D01*
Y445336D01*
X5053942Y411480D01*
X5121654D01*
X5155509Y445336D01*
Y580759D01*
X5121654Y614614D01*
X5223221D02*
Y411480D01*
X5324788D01*
X5358644Y445336D01*
Y479191D01*
X5324788Y513047D01*
X5223221D01*
X5324788D01*
X5358644Y546903D01*
Y580759D01*
X5324788Y614614D01*
X5223221D01*
X5561778Y580759D02*
X5527922Y614614D01*
X5460211D01*
X5426355Y580759D01*
Y445336D01*
X5460211Y411480D01*
X5527922D01*
X5561778Y445336D01*
D95*
X8047798Y1981200D02*
D03*
D96*
X9372600Y4565000D02*
D03*
X9372600Y4667900D02*
D03*
%TF.MD5,bf82a9e0f79ac609ca5f977d04609b48*%
M02*
