%TF.GenerationSoftware,Altium Limited,Altium Designer,21.8.1 (53)*%
G04 Layer_Color=8388736*
%FSLAX45Y45*%
%MOMM*%
%TF.SameCoordinates,27AF3B28-2B88-43EB-8C06-45BE792F9E07*%
%TF.FilePolarity,Negative*%
%TF.FileFunction,Soldermask,Top*%
%TF.Part,Single*%
G01*
G75*
%TA.AperFunction,SMDPad,CuDef*%
%ADD19R,1.46050X0.53340*%
%TA.AperFunction,ComponentPad*%
%ADD39C,1.65100*%
%TA.AperFunction,ViaPad*%
%ADD48C,0.60000*%
%TA.AperFunction,SMDPad,CuDef*%
%ADD75R,1.50160X0.45160*%
%ADD77R,0.65160X0.65160*%
%ADD79R,0.65160X0.65160*%
%ADD80R,1.00160X0.90160*%
%TA.AperFunction,ComponentPad*%
%ADD81C,3.96240*%
%ADD82C,0.90160*%
%ADD83O,1.30160X2.50160*%
%ADD84O,1.00160X1.90160*%
%ADD85C,1.26460*%
%ADD86C,1.47160*%
%ADD87R,1.47160X1.47160*%
%ADD88C,6.45160*%
%TA.AperFunction,ViaPad*%
%ADD89C,0.70320*%
%TA.AperFunction,TestPad*%
%ADD90C,0.60000*%
%TA.AperFunction,SMDPad,CuDef*%
%ADD98R,1.45160X0.45160*%
%ADD99R,0.45160X1.45160*%
%ADD100R,0.55160X1.40160*%
%ADD101R,1.60160X1.80160*%
G04:AMPARAMS|DCode=102|XSize=2.0816mm|YSize=0.6316mm|CornerRadius=0.11705mm|HoleSize=0mm|Usage=FLASHONLY|Rotation=90.000|XOffset=0mm|YOffset=0mm|HoleType=Round|Shape=RoundedRectangle|*
%AMROUNDEDRECTD102*
21,1,2.08160,0.39750,0,0,90.0*
21,1,1.84750,0.63160,0,0,90.0*
1,1,0.23410,0.19875,0.92375*
1,1,0.23410,0.19875,-0.92375*
1,1,0.23410,-0.19875,-0.92375*
1,1,0.23410,-0.19875,0.92375*
%
%ADD102ROUNDEDRECTD102*%
G04:AMPARAMS|DCode=103|XSize=2.0716mm|YSize=0.7016mm|CornerRadius=0.1258mm|HoleSize=0mm|Usage=FLASHONLY|Rotation=0.000|XOffset=0mm|YOffset=0mm|HoleType=Round|Shape=RoundedRectangle|*
%AMROUNDEDRECTD103*
21,1,2.07160,0.45000,0,0,0.0*
21,1,1.82000,0.70160,0,0,0.0*
1,1,0.25160,0.91000,-0.22500*
1,1,0.25160,-0.91000,-0.22500*
1,1,0.25160,-0.91000,0.22500*
1,1,0.25160,0.91000,0.22500*
%
%ADD103ROUNDEDRECTD103*%
%ADD104R,0.45160X1.50160*%
%ADD105R,0.70160X3.10160*%
%ADD106R,3.10160X0.70160*%
%ADD107R,3.90160X1.12160*%
%ADD108R,1.37160X3.78160*%
%ADD109R,3.78160X1.37160*%
%ADD110R,0.90160X0.90160*%
%ADD111R,0.90160X0.90160*%
%ADD112R,1.50160X1.90160*%
%ADD113R,0.90160X1.00160*%
%ADD114R,1.90160X1.50160*%
D19*
X2140585Y8699500D02*
D03*
Y8572500D02*
D03*
Y8445500D02*
D03*
Y8318500D02*
D03*
Y8191500D02*
D03*
Y8064500D02*
D03*
Y7937500D02*
D03*
X2685415D02*
D03*
Y8064500D02*
D03*
Y8191500D02*
D03*
Y8318500D02*
D03*
Y8445500D02*
D03*
Y8572500D02*
D03*
Y8699500D02*
D03*
D39*
X4181300Y8051800D02*
D03*
X4318300Y8305800D02*
D03*
X4455300Y8051800D02*
D03*
X4592300Y8305800D02*
D03*
X4729300Y8051800D02*
D03*
X4866300Y8305800D02*
D03*
X5003300Y8051800D02*
D03*
X5140300Y8305800D02*
D03*
X5277300Y8051800D02*
D03*
D48*
X2199640Y3616960D02*
D03*
X7444740Y7421880D02*
D03*
X7417661Y3616701D02*
D03*
X2672080Y160020D02*
D03*
X6446520Y7538720D02*
D03*
X4853940D02*
D03*
X6672580Y8755380D02*
D03*
D75*
X5516400Y2464260D02*
D03*
Y2399260D02*
D03*
Y2334260D02*
D03*
X6091400Y2139260D02*
D03*
X5516400D02*
D03*
Y2204260D02*
D03*
Y2269260D02*
D03*
X6091400Y2204260D02*
D03*
Y2269260D02*
D03*
Y2334260D02*
D03*
Y2399260D02*
D03*
Y2464260D02*
D03*
Y2529260D02*
D03*
X5516400D02*
D03*
D77*
X3012440Y8453120D02*
D03*
Y8543120D02*
D03*
X7975600Y1181100D02*
D03*
Y1091100D02*
D03*
X5803900Y7588800D02*
D03*
Y7498800D02*
D03*
X6743700Y8253900D02*
D03*
Y8343900D02*
D03*
X5346700Y7352200D02*
D03*
Y7442200D02*
D03*
X1943100Y8064500D02*
D03*
Y7974500D02*
D03*
X2895600Y8427000D02*
D03*
Y8337000D02*
D03*
X419100Y1885400D02*
D03*
Y1975400D02*
D03*
X2987040Y7431320D02*
D03*
Y7341320D02*
D03*
X3103880Y7431320D02*
D03*
Y7341320D02*
D03*
X177800Y5295900D02*
D03*
Y5205900D02*
D03*
X165100Y5798100D02*
D03*
Y5708100D02*
D03*
X7912100Y2672800D02*
D03*
Y2762800D02*
D03*
Y2508800D02*
D03*
Y2418800D02*
D03*
X1447800Y7569200D02*
D03*
Y7479200D02*
D03*
X1612900Y7569200D02*
D03*
Y7479200D02*
D03*
X254000Y1885400D02*
D03*
Y1975400D02*
D03*
X3035300Y4717500D02*
D03*
Y4807500D02*
D03*
X3200400Y4807500D02*
D03*
Y4717500D02*
D03*
X3012440Y8338100D02*
D03*
Y8248100D02*
D03*
X2682240Y4491820D02*
D03*
Y4401820D02*
D03*
X2565400Y4491820D02*
D03*
Y4401820D02*
D03*
X3462020Y2508800D02*
D03*
Y2418800D02*
D03*
X5306060Y2357840D02*
D03*
Y2447840D02*
D03*
X5867400Y2772960D02*
D03*
Y2682960D02*
D03*
X2895600Y8837760D02*
D03*
Y8747760D02*
D03*
X1155700Y7784000D02*
D03*
Y7874000D02*
D03*
X3543300Y4545500D02*
D03*
Y4635500D02*
D03*
X2705100Y7366000D02*
D03*
Y7456000D02*
D03*
X3238500Y7340600D02*
D03*
Y7430600D02*
D03*
X3835400Y7340600D02*
D03*
Y7430600D02*
D03*
X3378200Y4807500D02*
D03*
Y4717500D02*
D03*
X2857500Y4787900D02*
D03*
Y4697900D02*
D03*
X4140200Y4749800D02*
D03*
Y4659800D02*
D03*
X4292600Y4749800D02*
D03*
Y4659800D02*
D03*
D79*
X3811100Y4127500D02*
D03*
X3721100D02*
D03*
X4037500Y2613660D02*
D03*
X4127500D02*
D03*
X4395640Y2667000D02*
D03*
X4485640D02*
D03*
X558800Y2514600D02*
D03*
X468800D02*
D03*
X2190200Y6972300D02*
D03*
X2280200D02*
D03*
X2235200Y6210300D02*
D03*
X2145200D02*
D03*
X1993900Y6134100D02*
D03*
X1903900D02*
D03*
X2229400Y6057900D02*
D03*
X2139400D02*
D03*
X2114000Y5702300D02*
D03*
X2204000D02*
D03*
X4762500Y5524500D02*
D03*
X4852500D02*
D03*
X4762500Y5689600D02*
D03*
X4852500D02*
D03*
X4498340Y2781300D02*
D03*
X4588340D02*
D03*
X558800Y2362200D02*
D03*
X468800D02*
D03*
X4294040Y2781300D02*
D03*
X4384040D02*
D03*
X4379680Y1584960D02*
D03*
X4469680D02*
D03*
X4278080Y1699260D02*
D03*
X4368080D02*
D03*
X4174660Y1584960D02*
D03*
X4264660D02*
D03*
X3629660D02*
D03*
X3539660D02*
D03*
X3730540Y1699260D02*
D03*
X3640540D02*
D03*
X3833960Y1584960D02*
D03*
X3743960D02*
D03*
X4793700Y6591300D02*
D03*
X4883700D02*
D03*
X4793700Y6743700D02*
D03*
X4883700D02*
D03*
X4793700Y6896100D02*
D03*
X4883700D02*
D03*
X8599000Y508000D02*
D03*
X8509000D02*
D03*
X506900Y393700D02*
D03*
X596900D02*
D03*
X8604800Y8521700D02*
D03*
X8514800D02*
D03*
X501100Y8724900D02*
D03*
X591100D02*
D03*
X2590800Y4284980D02*
D03*
X2680800D02*
D03*
X7790900Y2222500D02*
D03*
X7880900D02*
D03*
X7731760Y1165860D02*
D03*
X7641760D02*
D03*
X1130300Y8534400D02*
D03*
X1220300D02*
D03*
X304800Y3517900D02*
D03*
X394800D02*
D03*
X1429300Y1892300D02*
D03*
X1339300D02*
D03*
X2270040Y5125720D02*
D03*
X2180040D02*
D03*
X2209800Y5854700D02*
D03*
X2119800D02*
D03*
X2184400Y6362700D02*
D03*
X2094400D02*
D03*
X4643120Y7099300D02*
D03*
X4733120D02*
D03*
X4806400Y6438900D02*
D03*
X4896400D02*
D03*
X4724400Y5956300D02*
D03*
X4814400D02*
D03*
X4824900Y5308600D02*
D03*
X4914900D02*
D03*
D80*
X6083300Y2689860D02*
D03*
Y2829860D02*
D03*
X4470400Y4724400D02*
D03*
Y4584400D02*
D03*
D81*
X3479800Y8178800D02*
D03*
X5978800D02*
D03*
D82*
X7391400Y8496300D02*
D03*
X7891400D02*
D03*
D83*
X7268900Y8391300D02*
D03*
X8013900D02*
D03*
D84*
X7253900Y8771300D02*
D03*
X8028900D02*
D03*
D85*
X762500Y4000300D02*
D03*
Y7385300D02*
D03*
D86*
X8572500Y2667000D02*
D03*
Y2921000D02*
D03*
Y3429000D02*
D03*
Y3175000D02*
D03*
Y3937000D02*
D03*
Y4191000D02*
D03*
Y4445000D02*
D03*
Y4953000D02*
D03*
Y4699000D02*
D03*
Y5461000D02*
D03*
Y5969000D02*
D03*
Y5207000D02*
D03*
Y5715000D02*
D03*
Y3683000D02*
D03*
Y2413000D02*
D03*
X8318500Y6477000D02*
D03*
Y5715000D02*
D03*
Y5969000D02*
D03*
Y6223000D02*
D03*
Y5461000D02*
D03*
Y4953000D02*
D03*
Y7493000D02*
D03*
Y6985000D02*
D03*
Y6731000D02*
D03*
Y7239000D02*
D03*
Y5207000D02*
D03*
X8572500Y1397000D02*
D03*
Y2159000D02*
D03*
Y1651000D02*
D03*
X8318500Y1905000D02*
D03*
Y1651000D02*
D03*
X8572500Y1905000D02*
D03*
X8318500Y1397000D02*
D03*
Y2159000D02*
D03*
Y2667000D02*
D03*
Y2921000D02*
D03*
Y3175000D02*
D03*
Y3429000D02*
D03*
Y3683000D02*
D03*
Y3937000D02*
D03*
Y4445000D02*
D03*
Y4699000D02*
D03*
Y2413000D02*
D03*
Y4191000D02*
D03*
X8572500Y6731000D02*
D03*
Y6477000D02*
D03*
Y7239000D02*
D03*
Y6223000D02*
D03*
Y7747000D02*
D03*
Y6985000D02*
D03*
Y7493000D02*
D03*
X9080500Y2667000D02*
D03*
Y2921000D02*
D03*
Y3429000D02*
D03*
Y3175000D02*
D03*
Y3937000D02*
D03*
Y4191000D02*
D03*
Y4445000D02*
D03*
Y4953000D02*
D03*
Y4699000D02*
D03*
Y5461000D02*
D03*
Y5969000D02*
D03*
Y5207000D02*
D03*
Y5715000D02*
D03*
Y3683000D02*
D03*
Y2413000D02*
D03*
X8826500Y6477000D02*
D03*
Y5715000D02*
D03*
Y5969000D02*
D03*
Y6223000D02*
D03*
Y5461000D02*
D03*
Y4953000D02*
D03*
Y7493000D02*
D03*
Y6985000D02*
D03*
Y6731000D02*
D03*
Y7239000D02*
D03*
Y5207000D02*
D03*
X9080500Y1397000D02*
D03*
Y2159000D02*
D03*
Y1651000D02*
D03*
X8826500Y1905000D02*
D03*
Y1651000D02*
D03*
X9080500Y1905000D02*
D03*
X8826500Y1397000D02*
D03*
Y2159000D02*
D03*
Y2667000D02*
D03*
Y2921000D02*
D03*
Y3175000D02*
D03*
Y3429000D02*
D03*
Y3683000D02*
D03*
Y3937000D02*
D03*
Y4445000D02*
D03*
Y4699000D02*
D03*
Y2413000D02*
D03*
Y4191000D02*
D03*
X9080500Y6731000D02*
D03*
Y6477000D02*
D03*
Y7239000D02*
D03*
Y6223000D02*
D03*
Y7747000D02*
D03*
Y6985000D02*
D03*
Y7493000D02*
D03*
D87*
X8318500Y7747000D02*
D03*
X8826500D02*
D03*
D88*
X9169400Y469900D02*
D03*
X9080500Y8432800D02*
D03*
X457200Y8305800D02*
D03*
X508000Y889000D02*
D03*
D89*
X6769100Y5527040D02*
D03*
X4882280Y5641340D02*
D03*
X6908800Y5623560D02*
D03*
D90*
X7062295Y4291889D02*
D03*
X7150100Y4363720D02*
D03*
D98*
X2442700Y5208300D02*
D03*
Y5258300D02*
D03*
Y5308300D02*
D03*
Y5358300D02*
D03*
Y5408300D02*
D03*
Y5458300D02*
D03*
Y5508300D02*
D03*
Y5558300D02*
D03*
Y5608300D02*
D03*
Y5658300D02*
D03*
Y5708300D02*
D03*
Y5758300D02*
D03*
Y5808300D02*
D03*
Y5858300D02*
D03*
Y5908300D02*
D03*
Y5958300D02*
D03*
Y6008300D02*
D03*
Y6058300D02*
D03*
Y6108300D02*
D03*
Y6158300D02*
D03*
Y6208300D02*
D03*
Y6258300D02*
D03*
Y6308300D02*
D03*
Y6358300D02*
D03*
Y6408300D02*
D03*
Y6458300D02*
D03*
Y6508300D02*
D03*
Y6558300D02*
D03*
Y6608300D02*
D03*
Y6658300D02*
D03*
Y6708300D02*
D03*
Y6758300D02*
D03*
Y6808300D02*
D03*
Y6858300D02*
D03*
Y6908300D02*
D03*
Y6958300D02*
D03*
X4567700D02*
D03*
Y6908300D02*
D03*
Y6858300D02*
D03*
Y6808300D02*
D03*
Y6758300D02*
D03*
Y6708300D02*
D03*
Y6658300D02*
D03*
Y6608300D02*
D03*
Y6558300D02*
D03*
Y6508300D02*
D03*
Y6458300D02*
D03*
Y6408300D02*
D03*
Y6358300D02*
D03*
Y6308300D02*
D03*
Y6258300D02*
D03*
Y6208300D02*
D03*
Y6158300D02*
D03*
Y6108300D02*
D03*
Y6058300D02*
D03*
Y6008300D02*
D03*
Y5958300D02*
D03*
Y5908300D02*
D03*
Y5858300D02*
D03*
Y5808300D02*
D03*
Y5758300D02*
D03*
Y5708300D02*
D03*
Y5658300D02*
D03*
Y5608300D02*
D03*
Y5558300D02*
D03*
Y5508300D02*
D03*
Y5458300D02*
D03*
Y5408300D02*
D03*
Y5358300D02*
D03*
Y5308300D02*
D03*
Y5258300D02*
D03*
Y5208300D02*
D03*
D99*
X2630200Y7145800D02*
D03*
X2680200D02*
D03*
X2730200D02*
D03*
X2780200D02*
D03*
X2830200D02*
D03*
X2880200D02*
D03*
X2930200D02*
D03*
X2980200D02*
D03*
X3030200D02*
D03*
X3080200D02*
D03*
X3130200D02*
D03*
X3180200D02*
D03*
X3230200D02*
D03*
X3280200D02*
D03*
X3330200D02*
D03*
X3380200D02*
D03*
X3430200D02*
D03*
X3480200D02*
D03*
X3530200D02*
D03*
X3580200D02*
D03*
X3630200D02*
D03*
X3680200D02*
D03*
X3730200D02*
D03*
X3780200D02*
D03*
X3830200D02*
D03*
X3880200D02*
D03*
X3930200D02*
D03*
X3980200D02*
D03*
X4030200D02*
D03*
X4080200D02*
D03*
X4130200D02*
D03*
X4180200D02*
D03*
X4230200D02*
D03*
X4280200D02*
D03*
X4330200D02*
D03*
X4380200D02*
D03*
Y5020800D02*
D03*
X4330200D02*
D03*
X4280200D02*
D03*
X4230200D02*
D03*
X4180200D02*
D03*
X4130200D02*
D03*
X4080200D02*
D03*
X4030200D02*
D03*
X3980200D02*
D03*
X3930200D02*
D03*
X3880200D02*
D03*
X3830200D02*
D03*
X3780200D02*
D03*
X3730200D02*
D03*
X3680200D02*
D03*
X3630200D02*
D03*
X3580200D02*
D03*
X3530200D02*
D03*
X3480200D02*
D03*
X3430200D02*
D03*
X3380200D02*
D03*
X3330200D02*
D03*
X3280200D02*
D03*
X3230200D02*
D03*
X3180200D02*
D03*
X3130200D02*
D03*
X3080200D02*
D03*
X3030200D02*
D03*
X2980200D02*
D03*
X2930200D02*
D03*
X2880200D02*
D03*
X2830200D02*
D03*
X2780200D02*
D03*
X2730200D02*
D03*
X2680200D02*
D03*
X2630200D02*
D03*
D100*
X7511400Y8391300D02*
D03*
X7576400D02*
D03*
X7641400D02*
D03*
X7706400D02*
D03*
X7771400D02*
D03*
D101*
X3721100Y4381500D02*
D03*
Y4635500D02*
D03*
X3941100D02*
D03*
Y4381500D02*
D03*
D102*
X3620320Y2418320D02*
D03*
X3747320D02*
D03*
X3874320D02*
D03*
X4001320D02*
D03*
X4128320D02*
D03*
X4255320D02*
D03*
X4382320D02*
D03*
X4509320D02*
D03*
Y1925320D02*
D03*
X4382320D02*
D03*
X4255320D02*
D03*
X4128320D02*
D03*
X4001320D02*
D03*
X3874320D02*
D03*
X3747320D02*
D03*
X3620320D02*
D03*
D103*
X7474600Y1739900D02*
D03*
Y1612900D02*
D03*
Y1485900D02*
D03*
Y1358900D02*
D03*
X7968600D02*
D03*
Y1485900D02*
D03*
Y1612900D02*
D03*
Y1739900D02*
D03*
D104*
X1419400Y7764300D02*
D03*
X1484400D02*
D03*
X1549400D02*
D03*
X1744400Y8339300D02*
D03*
Y7764300D02*
D03*
X1679400D02*
D03*
X1614400D02*
D03*
X1679400Y8339300D02*
D03*
X1614400D02*
D03*
X1549400D02*
D03*
X1484400D02*
D03*
X1419400D02*
D03*
X1354400D02*
D03*
Y7764300D02*
D03*
D105*
X939800Y3612700D02*
D03*
X812800D02*
D03*
X685800D02*
D03*
X558800D02*
D03*
X812800Y2762700D02*
D03*
X685800D02*
D03*
X939800D02*
D03*
X558800D02*
D03*
D106*
X1352100Y1358900D02*
D03*
Y1485900D02*
D03*
Y1612900D02*
D03*
Y1739900D02*
D03*
X502100Y1485900D02*
D03*
Y1612900D02*
D03*
Y1358900D02*
D03*
Y1739900D02*
D03*
D107*
X1016000Y4292800D02*
D03*
X509000D02*
D03*
X1016000Y4492800D02*
D03*
X509000D02*
D03*
X1016000Y4692800D02*
D03*
X509000D02*
D03*
X1016000Y4892800D02*
D03*
X509000D02*
D03*
X1016000Y5092800D02*
D03*
X509000D02*
D03*
X1016000Y5292800D02*
D03*
X509000D02*
D03*
X1016000Y5492800D02*
D03*
X509000D02*
D03*
X1016000Y5692800D02*
D03*
X509000D02*
D03*
X1016000Y5892800D02*
D03*
X509000D02*
D03*
X1016000Y6092800D02*
D03*
X509000D02*
D03*
X1016000Y6292800D02*
D03*
X509000D02*
D03*
X1016000Y6492800D02*
D03*
X509000D02*
D03*
X1016000Y6692800D02*
D03*
X509000D02*
D03*
X1016000Y6892800D02*
D03*
X509000D02*
D03*
X1016000Y7092800D02*
D03*
X509000D02*
D03*
D108*
X2138680Y1976420D02*
D03*
Y2471420D02*
D03*
X2392680Y1976420D02*
D03*
Y2471420D02*
D03*
X2646680Y1976420D02*
D03*
Y2471420D02*
D03*
X2900680Y1976420D02*
D03*
Y2471420D02*
D03*
X3154680Y1976420D02*
D03*
Y2471420D02*
D03*
X6515100Y4781700D02*
D03*
Y5276700D02*
D03*
X6769100Y4781700D02*
D03*
Y5276700D02*
D03*
X7023100Y4781700D02*
D03*
Y5276700D02*
D03*
X7277100Y4781700D02*
D03*
Y5276700D02*
D03*
X7531100Y4781700D02*
D03*
Y5276700D02*
D03*
X2425700Y968860D02*
D03*
Y473860D02*
D03*
X2171700Y968860D02*
D03*
Y473860D02*
D03*
X1917700Y968860D02*
D03*
Y473860D02*
D03*
X1663700Y968860D02*
D03*
Y473860D02*
D03*
X1409700Y968860D02*
D03*
Y473860D02*
D03*
D109*
X6013600Y1752600D02*
D03*
X6508600D02*
D03*
X6013600Y1498600D02*
D03*
X6508600D02*
D03*
X6013600Y1244600D02*
D03*
X6508600D02*
D03*
X6013600Y990600D02*
D03*
X6508600D02*
D03*
X6013600Y736600D02*
D03*
X6508600D02*
D03*
X7257900Y6070600D02*
D03*
X6762900D02*
D03*
X7257900Y6324600D02*
D03*
X6762900D02*
D03*
X7257900Y6578600D02*
D03*
X6762900D02*
D03*
X7257900Y6832600D02*
D03*
X6762900D02*
D03*
X7257900Y7086600D02*
D03*
X6762900D02*
D03*
D110*
X5638800Y7658100D02*
D03*
Y7493100D02*
D03*
X6578600Y8413700D02*
D03*
Y8248700D02*
D03*
X5181600Y7505700D02*
D03*
Y7340700D02*
D03*
D111*
X2755900Y4142740D02*
D03*
X2590900D02*
D03*
D112*
X7927800Y1981200D02*
D03*
X7667800D02*
D03*
D113*
X1213000Y8343900D02*
D03*
X1073000D02*
D03*
D114*
X9372600Y4445000D02*
D03*
Y4185000D02*
D03*
Y4787900D02*
D03*
Y5047900D02*
D03*
%TF.MD5,3f3e54c668bfe1513a2ed4dd2d1d3340*%
M02*
