%TF.GenerationSoftware,Altium Limited,Altium Designer,21.6.4 (81)*%
G04 Layer_Color=32896*
%FSLAX26Y26*%
%MOIN*%
%TF.SameCoordinates,8BEB2CB1-843D-409B-AEA6-C59BAE6679C3*%
%TF.FilePolarity,Positive*%
%TF.FileFunction,Legend,Bot*%
%TF.Part,Single*%
G01*
G75*
%TA.AperFunction,NonConductor*%
%ADD43C,0.010000*%
%ADD59C,0.007874*%
%ADD60C,0.005000*%
%ADD61C,0.006000*%
%ADD62C,0.008000*%
D43*
X2332677Y8858D02*
X2333570Y163069D01*
X2144685Y9842D02*
X2145669Y161417D01*
X2006063Y143858D02*
X2066044D01*
X2006063Y183845D01*
X2066044D01*
X2006063Y203839D02*
X2066044D01*
Y233829D01*
X2056047Y243826D01*
X2036053D01*
X2026056Y233829D01*
Y203839D01*
Y223832D02*
X2006063Y243826D01*
X2056047Y303807D02*
X2066044Y293810D01*
Y273816D01*
X2056047Y263820D01*
X2046050D01*
X2036053Y273816D01*
Y293810D01*
X2026056Y303807D01*
X2016060D01*
X2006063Y293810D01*
Y273816D01*
X2016060Y263820D01*
X2066044Y323800D02*
Y363787D01*
Y343794D01*
X2006063D01*
X2463107Y137885D02*
X2403126D01*
Y167875D01*
X2413123Y177872D01*
X2423119D01*
X2433116Y167875D01*
Y137885D01*
Y167875D01*
X2443113Y177872D01*
X2453110D01*
X2463107Y167875D01*
Y137885D01*
Y227856D02*
Y207863D01*
X2453110Y197866D01*
X2413123D01*
X2403126Y207863D01*
Y227856D01*
X2413123Y237853D01*
X2453110D01*
X2463107Y227856D01*
Y287837D02*
Y267843D01*
X2453110Y257846D01*
X2413123D01*
X2403126Y267843D01*
Y287837D01*
X2413123Y297833D01*
X2453110D01*
X2463107Y287837D01*
Y317827D02*
Y357814D01*
Y337820D01*
X2403126D01*
X2926377Y201325D02*
X2936374Y211322D01*
X2956368D01*
X2966364Y201325D01*
Y191328D01*
X2956368Y181331D01*
X2936374D01*
X2926377Y171334D01*
Y161338D01*
X2936374Y151341D01*
X2956368D01*
X2966364Y161338D01*
X2906384Y211322D02*
Y151341D01*
X2886390Y171334D01*
X2866397Y151341D01*
Y211322D01*
X2846403D02*
Y151341D01*
X2816413D01*
X2806416Y161338D01*
Y201325D01*
X2816413Y211322D01*
X2846403D01*
X3351588Y1355259D02*
X3361584Y1365256D01*
X3381578D01*
X3391575Y1355259D01*
Y1315272D01*
X3381578Y1305276D01*
X3361584D01*
X3351588Y1315272D01*
Y1335266D01*
X3371581D01*
X3331594Y1305276D02*
Y1365256D01*
X3301604D01*
X3291607Y1355259D01*
Y1335266D01*
X3301604Y1325269D01*
X3331594D01*
X3231626Y1355259D02*
X3241623Y1365256D01*
X3261617D01*
X3271614Y1355259D01*
Y1345263D01*
X3261617Y1335266D01*
X3241623D01*
X3231626Y1325269D01*
Y1315272D01*
X3241623Y1305276D01*
X3261617D01*
X3271614Y1315272D01*
X3064186Y2906441D02*
X3074183Y2916437D01*
X3094176D01*
X3104173Y2906441D01*
Y2866454D01*
X3094176Y2856457D01*
X3074183D01*
X3064186Y2866454D01*
X3034196Y2896444D02*
X3014202D01*
X3004206Y2886447D01*
Y2856457D01*
X3034196D01*
X3044193Y2866454D01*
X3034196Y2876450D01*
X3004206D01*
X2984212Y2856457D02*
Y2896444D01*
X2974215D01*
X2964218Y2886447D01*
Y2856457D01*
Y2886447D01*
X2954222Y2896444D01*
X2944225Y2886447D01*
Y2856457D01*
X2894241D02*
X2914235D01*
X2924231Y2866454D01*
Y2886447D01*
X2914235Y2896444D01*
X2894241D01*
X2884244Y2886447D01*
Y2876450D01*
X2924231D01*
X2864251Y2896444D02*
Y2856457D01*
Y2876450D01*
X2854254Y2886447D01*
X2844257Y2896444D01*
X2834260D01*
X2794273D02*
X2774280D01*
X2764283Y2886447D01*
Y2856457D01*
X2794273D01*
X2804270Y2866454D01*
X2794273Y2876450D01*
X2764283D01*
X1923071Y2932185D02*
Y2872205D01*
X1893081D01*
X1883084Y2882202D01*
Y2892198D01*
X1893081Y2902195D01*
X1923071D01*
X1893081D01*
X1883084Y2912192D01*
Y2922189D01*
X1893081Y2932185D01*
X1923071D01*
X1853093Y2872205D02*
X1833100D01*
X1823103Y2882202D01*
Y2902195D01*
X1833100Y2912192D01*
X1853093D01*
X1863090Y2902195D01*
Y2882202D01*
X1853093Y2872205D01*
X1793113D02*
X1773119D01*
X1763123Y2882202D01*
Y2902195D01*
X1773119Y2912192D01*
X1793113D01*
X1803110Y2902195D01*
Y2882202D01*
X1793113Y2872205D01*
X1743129D02*
Y2912192D01*
X1733132D01*
X1723136Y2902195D01*
Y2872205D01*
Y2902195D01*
X1713139Y2912192D01*
X1703142Y2902195D01*
Y2872205D01*
X1033307Y2639921D02*
Y2679908D01*
X1013314Y2699902D01*
X993320Y2679908D01*
Y2639921D01*
Y2669912D01*
X1033307D01*
X973327Y2639921D02*
Y2679908D01*
X943336D01*
X933339Y2669912D01*
Y2639921D01*
X903349Y2689905D02*
Y2679908D01*
X913346D01*
X893352D01*
X903349D01*
Y2649918D01*
X893352Y2639921D01*
X833372D02*
X853365D01*
X863362Y2649918D01*
Y2669912D01*
X853365Y2679908D01*
X833372D01*
X823375Y2669912D01*
Y2659915D01*
X863362D01*
X803381Y2639921D02*
Y2679908D01*
X773391D01*
X763394Y2669912D01*
Y2639921D01*
X743401D02*
Y2679908D01*
X713411D01*
X703414Y2669912D01*
Y2639921D01*
X673423Y2679908D02*
X653430D01*
X643433Y2669912D01*
Y2639921D01*
X673423D01*
X683420Y2649918D01*
X673423Y2659915D01*
X643433D01*
X1478189Y2643858D02*
Y2703839D01*
X1458196Y2683845D01*
X1438202Y2703839D01*
Y2643858D01*
X1418208D02*
Y2703839D01*
X1388218D01*
X1378221Y2693842D01*
Y2673849D01*
X1388218Y2663852D01*
X1418208D01*
X1358228Y2703839D02*
X1338234D01*
X1348231D01*
Y2643858D01*
X1358228D01*
X1338234D01*
X861760Y3474872D02*
X881754D01*
X871757D01*
Y3424888D01*
X881754Y3414892D01*
X891751D01*
X901747Y3424888D01*
X841767Y3414892D02*
X821773D01*
X831770D01*
Y3474872D01*
X841767Y3464875D01*
X791783D02*
X781786Y3474872D01*
X761793D01*
X751796Y3464875D01*
Y3454879D01*
X761793Y3444882D01*
X771789D01*
X761793D01*
X751796Y3434885D01*
Y3424888D01*
X761793Y3414892D01*
X781786D01*
X791783Y3424888D01*
X1507429Y3435502D02*
X1527423D01*
X1517426D01*
Y3385518D01*
X1527423Y3375521D01*
X1537420D01*
X1547417Y3385518D01*
X1487436Y3375521D02*
X1467443D01*
X1477439D01*
Y3435502D01*
X1487436Y3425505D01*
X1437452D02*
X1427455Y3435502D01*
X1407462D01*
X1397465Y3425505D01*
Y3385518D01*
X1407462Y3375521D01*
X1427455D01*
X1437452Y3385518D01*
Y3425505D01*
D59*
X968504Y3047244D02*
G03*
X968504Y3047244I-3937J0D01*
G01*
X2225394Y2491142D02*
G03*
X2225394Y2491142I-3937J0D01*
G01*
X1234252Y3322835D02*
X1293307D01*
X1234252Y3212598D02*
Y3322835D01*
Y3212598D02*
X1293307D01*
Y3322835D01*
X1234252Y3212599D02*
X1293307D01*
X1234252Y3102362D02*
Y3212599D01*
Y3102362D02*
X1293307D01*
Y3212599D01*
X1293307Y3267717D02*
X1352362D01*
X1293307Y3157480D02*
Y3267717D01*
Y3157480D02*
X1352362D01*
Y3267717D01*
X2564961Y2925197D02*
X2624016D01*
X2564961Y2814961D02*
Y2925197D01*
Y2814961D02*
X2624016D01*
Y2925197D01*
X2505905Y2980315D02*
X2564961D01*
X2505905Y2870079D02*
Y2980315D01*
Y2870079D02*
X2564961D01*
Y2980315D01*
X2505905Y2870079D02*
X2564961D01*
X2505905Y2759842D02*
Y2870079D01*
Y2759842D02*
X2564961D01*
Y2870079D01*
X2061024Y2515748D02*
X2120079D01*
Y2625984D01*
X2061024D02*
X2120079D01*
X2061024Y2515748D02*
Y2625984D01*
X2120079Y2460630D02*
X2179134D01*
Y2570866D01*
X2120079D02*
X2179134D01*
X2120079Y2460630D02*
Y2570866D01*
Y2570866D02*
X2179134D01*
Y2681102D01*
X2120079D02*
X2179134D01*
X2120079Y2570866D02*
Y2681102D01*
X2116142Y2818898D02*
X2175197D01*
X2116142Y2708661D02*
Y2818898D01*
Y2708661D02*
X2175197D01*
Y2818898D01*
X2057087Y2874016D02*
X2116142D01*
X2057087Y2763779D02*
Y2874016D01*
Y2763779D02*
X2116142D01*
Y2874016D01*
X2116142Y2929134D02*
X2175197D01*
X2116142Y2818898D02*
Y2929134D01*
Y2818898D02*
X2175197D01*
Y2929134D01*
D60*
X2535433Y3214567D02*
Y3224410D01*
X1643701Y3214567D02*
Y3224410D01*
X1751772Y2938898D02*
X1763583Y2958583D01*
X1775394Y2938898D01*
X1751772D02*
X1775394D01*
X2535433Y3019685D02*
Y3070866D01*
X1643701Y3019685D02*
Y3070866D01*
Y3224410D02*
X2535433D01*
X1643701Y3019685D02*
X1741339D01*
X2437795D02*
X2535433D01*
X2260827Y2520276D02*
X2418307D01*
X2260827Y2918701D02*
X2418307D01*
X3244095Y646654D02*
Y744291D01*
Y1145473D02*
Y1243110D01*
X3448819Y646654D02*
Y1243110D01*
X3244095D02*
X3295276D01*
X3244095Y646654D02*
X3295276D01*
X3165945Y1109055D02*
Y1132677D01*
Y1109055D02*
X3185630Y1120866D01*
X3165945Y1132677D02*
X3185630Y1120866D01*
X3438976Y1243110D02*
X3448819D01*
X3438976Y646654D02*
X3448819D01*
X3150590Y3214567D02*
Y3224409D01*
X2652559Y3214567D02*
Y3224409D01*
X2763780Y2940748D02*
X2775590Y2960433D01*
X2787402Y2940748D01*
X2763780D02*
X2787402D01*
X3150590Y3019685D02*
Y3070866D01*
X2652559Y3019685D02*
Y3070866D01*
Y3224409D02*
X3150590D01*
X2652559Y3019685D02*
X2750197D01*
X3052953D02*
X3150590D01*
X795276Y2753937D02*
X807087Y2773622D01*
X818898Y2753937D01*
X795276D02*
X818898D01*
X761811Y3346457D02*
X887795D01*
Y2785433D02*
Y3346457D01*
X761811Y2785433D02*
X887795D01*
X761811D02*
Y3346457D01*
X1413386Y2755905D02*
X1425197Y2775591D01*
X1437008Y2755905D01*
X1413386D02*
X1437008D01*
X1379921Y3348425D02*
X1505906D01*
Y2787402D02*
Y3348425D01*
X1379921Y2787402D02*
X1505906D01*
X1379921D02*
Y3348425D01*
D61*
X991303Y3413220D02*
X1158303D01*
X991303Y3059220D02*
X1158303D01*
D62*
X2490324Y2932762D02*
Y2972749D01*
X2470331D01*
X2463666Y2966085D01*
Y2952756D01*
X2470331Y2946091D01*
X2490324D01*
X2476995D02*
X2463666Y2932762D01*
X2423679D02*
X2450337D01*
X2423679Y2959420D01*
Y2966085D01*
X2430343Y2972749D01*
X2443672D01*
X2450337Y2966085D01*
X2410350D02*
X2403685Y2972749D01*
X2390356D01*
X2383692Y2966085D01*
Y2959420D01*
X2390356Y2952756D01*
X2397021D01*
X2390356D01*
X2383692Y2946091D01*
Y2939427D01*
X2390356Y2932762D01*
X2403685D01*
X2410350Y2939427D01*
X2519377Y2650199D02*
X2559364D01*
Y2670192D01*
X2552699Y2676857D01*
X2539370D01*
X2532706Y2670192D01*
Y2650199D01*
Y2663528D02*
X2519377Y2676857D01*
Y2716844D02*
Y2690186D01*
X2546035Y2716844D01*
X2552699D01*
X2559364Y2710179D01*
Y2696850D01*
X2552699Y2690186D01*
X2519377Y2730173D02*
Y2743502D01*
Y2736838D01*
X2559364D01*
X2552699Y2730173D01*
X2101165Y2889455D02*
Y2929442D01*
X2081171D01*
X2074507Y2922778D01*
Y2909449D01*
X2081171Y2902784D01*
X2101165D01*
X2087836D02*
X2074507Y2889455D01*
X2061178D02*
X2047849D01*
X2054513D01*
Y2929442D01*
X2061178Y2922778D01*
X2027855D02*
X2021191Y2929442D01*
X2007862D01*
X2001197Y2922778D01*
Y2916113D01*
X2007862Y2909449D01*
X2001197Y2902784D01*
Y2896120D01*
X2007862Y2889455D01*
X2021191D01*
X2027855Y2896120D01*
Y2902784D01*
X2021191Y2909449D01*
X2027855Y2916113D01*
Y2922778D01*
X2021191Y2909449D02*
X2007862D01*
X2042110Y2798904D02*
Y2838891D01*
X2022116D01*
X2015452Y2832227D01*
Y2818898D01*
X2022116Y2812233D01*
X2042110D01*
X2028781D02*
X2015452Y2798904D01*
X2002123D02*
X1988794D01*
X1995458D01*
Y2838891D01*
X2002123Y2832227D01*
X1968800Y2838891D02*
X1942142D01*
Y2832227D01*
X1968800Y2805569D01*
Y2798904D01*
X2099984Y2705006D02*
Y2744994D01*
X2079990D01*
X2073326Y2738329D01*
Y2725000D01*
X2079990Y2718336D01*
X2099984D01*
X2086655D02*
X2073326Y2705006D01*
X2059997D02*
X2046668D01*
X2053332D01*
Y2744994D01*
X2059997Y2738329D01*
X2000016Y2744994D02*
X2013345Y2738329D01*
X2026674Y2725000D01*
Y2711671D01*
X2020010Y2705006D01*
X2006681D01*
X2000016Y2711671D01*
Y2718336D01*
X2006681Y2725000D01*
X2026674D01*
X2099984Y2455006D02*
Y2494994D01*
X2079990D01*
X2073326Y2488329D01*
Y2475000D01*
X2079990Y2468336D01*
X2099984D01*
X2086655D02*
X2073326Y2455006D01*
X2059997D02*
X2046668D01*
X2053332D01*
Y2494994D01*
X2059997Y2488329D01*
X2000016Y2494994D02*
X2026674D01*
Y2475000D01*
X2013345Y2481664D01*
X2006681D01*
X2000016Y2475000D01*
Y2461671D01*
X2006681Y2455006D01*
X2020010D01*
X2026674Y2461671D01*
X2039984Y2550006D02*
Y2589994D01*
X2019990D01*
X2013326Y2583329D01*
Y2570000D01*
X2019990Y2563336D01*
X2039984D01*
X2026655D02*
X2013326Y2550006D01*
X1999997D02*
X1986668D01*
X1993332D01*
Y2589994D01*
X1999997Y2583329D01*
X1946681Y2550006D02*
Y2589994D01*
X1966674Y2570000D01*
X1940016D01*
X2099984Y2640006D02*
Y2679994D01*
X2079990D01*
X2073326Y2673329D01*
Y2660000D01*
X2079990Y2653336D01*
X2099984D01*
X2086655D02*
X2073326Y2640006D01*
X2059997D02*
X2046668D01*
X2053332D01*
Y2679994D01*
X2059997Y2673329D01*
X2026674D02*
X2020010Y2679994D01*
X2006681D01*
X2000016Y2673329D01*
Y2666664D01*
X2006681Y2660000D01*
X2013345D01*
X2006681D01*
X2000016Y2653336D01*
Y2646671D01*
X2006681Y2640006D01*
X2020010D01*
X2026674Y2646671D01*
X1239849Y3342508D02*
X1279836D01*
Y3362501D01*
X1273172Y3369166D01*
X1259842D01*
X1253178Y3362501D01*
Y3342508D01*
Y3355836D02*
X1239849Y3369166D01*
Y3382495D02*
Y3395824D01*
Y3389159D01*
X1279836D01*
X1273172Y3382495D01*
X1239849Y3415817D02*
Y3429146D01*
Y3422482D01*
X1279836D01*
X1273172Y3415817D01*
X1247723Y3017859D02*
X1287710D01*
Y3037852D01*
X1281046Y3044517D01*
X1267716D01*
X1261052Y3037852D01*
Y3017859D01*
Y3031188D02*
X1247723Y3044517D01*
X1281046Y3057846D02*
X1287710Y3064510D01*
Y3077839D01*
X1281046Y3084504D01*
X1274381D01*
X1267716Y3077839D01*
X1261052Y3084504D01*
X1254388D01*
X1247723Y3077839D01*
Y3064510D01*
X1254388Y3057846D01*
X1261052D01*
X1267716Y3064510D01*
X1274381Y3057846D01*
X1281046D01*
X1267716Y3064510D02*
Y3077839D01*
X2394472Y2496372D02*
Y2463049D01*
X2387807Y2456385D01*
X2374479D01*
X2367814Y2463049D01*
Y2496372D01*
X2354485Y2456385D02*
X2341156D01*
X2347820D01*
Y2496372D01*
X2354485Y2489707D01*
X2294504Y2496372D02*
X2307833Y2489707D01*
X2321162Y2476378D01*
Y2463049D01*
X2314498Y2456385D01*
X2301169D01*
X2294504Y2463049D01*
Y2469713D01*
X2301169Y2476378D01*
X2321162D01*
X3168983Y698594D02*
Y711923D01*
Y705258D01*
X3202305D01*
X3208970Y711923D01*
Y718587D01*
X3202305Y725252D01*
X3175647Y685264D02*
X3168983Y678600D01*
Y665271D01*
X3175647Y658606D01*
X3182312D01*
X3188976Y665271D01*
Y671936D01*
Y665271D01*
X3195641Y658606D01*
X3202305D01*
X3208970Y665271D01*
Y678600D01*
X3202305Y685264D01*
X2641424Y2768605D02*
X2681411D01*
Y2788599D01*
X2674746Y2795263D01*
X2661417D01*
X2654753Y2788599D01*
Y2768605D01*
Y2781934D02*
X2641424Y2795263D01*
Y2808592D02*
Y2821921D01*
Y2815257D01*
X2681411D01*
X2674746Y2808592D01*
X2641424Y2861908D02*
X2681411D01*
X2661417Y2841915D01*
Y2868573D01*
X2681411Y2908560D02*
X2674746Y2895231D01*
X2661417Y2881902D01*
X2648088D01*
X2641424Y2888566D01*
Y2901896D01*
X2648088Y2908560D01*
X2654753D01*
X2661417Y2901896D01*
Y2881902D01*
X988819Y3460227D02*
Y3493550D01*
X995484Y3500214D01*
X1008813D01*
X1015477Y3493550D01*
Y3460227D01*
X1028806Y3500214D02*
X1042136D01*
X1035471D01*
Y3460227D01*
X1028806Y3466891D01*
X1062129D02*
X1068794Y3460227D01*
X1082123D01*
X1088787Y3466891D01*
Y3493550D01*
X1082123Y3500214D01*
X1068794D01*
X1062129Y3493550D01*
Y3466891D01*
X1306778Y3280416D02*
X1346765D01*
Y3300410D01*
X1340101Y3307074D01*
X1326772D01*
X1320107Y3300410D01*
Y3280416D01*
Y3293745D02*
X1306778Y3307074D01*
Y3320403D02*
Y3333732D01*
Y3327068D01*
X1346765D01*
X1340101Y3320403D01*
Y3353726D02*
X1346765Y3360390D01*
Y3373720D01*
X1340101Y3380384D01*
X1333436D01*
X1326772Y3373720D01*
Y3367055D01*
Y3373720D01*
X1320107Y3380384D01*
X1313443D01*
X1306778Y3373720D01*
Y3360390D01*
X1313443Y3353726D01*
X1340101Y3393713D02*
X1346765Y3400378D01*
Y3413707D01*
X1340101Y3420371D01*
X1313443D01*
X1306778Y3413707D01*
Y3400378D01*
X1313443Y3393713D01*
X1340101D01*
X1663160Y2984561D02*
X1676489D01*
X1669825D01*
Y2951238D01*
X1676489Y2944573D01*
X1683154D01*
X1689819Y2951238D01*
X1649831Y2977896D02*
X1643167Y2984561D01*
X1629838D01*
X1623173Y2977896D01*
Y2971231D01*
X1629838Y2964567D01*
X1623173Y2957903D01*
Y2951238D01*
X1629838Y2944573D01*
X1643167D01*
X1649831Y2951238D01*
Y2957903D01*
X1643167Y2964567D01*
X1649831Y2971231D01*
Y2977896D01*
X1643167Y2964567D02*
X1629838D01*
X2711389Y2996372D02*
X2724718D01*
X2718053D01*
Y2963049D01*
X2724718Y2956385D01*
X2731382D01*
X2738047Y2963049D01*
X2698060Y2996372D02*
X2671402D01*
Y2989707D01*
X2698060Y2963049D01*
Y2956385D01*
%TF.MD5,57208c9d1b862013da697eea2c8c7cda*%
M02*
