%TF.GenerationSoftware,Altium Limited,Altium Designer,21.6.4 (81)*%
G04 Layer_Color=8388736*
%FSLAX26Y26*%
%MOIN*%
%TF.SameCoordinates,8BEB2CB1-843D-409B-AEA6-C59BAE6679C3*%
%TF.FilePolarity,Negative*%
%TF.FileFunction,Soldermask,Top*%
%TF.Part,Single*%
G01*
G75*
%TA.AperFunction,SMDPad,CuDef*%
%ADD19R,0.055118X0.013780*%
%ADD20R,0.120079X0.120079*%
%ADD64R,0.039433X0.035496*%
%TA.AperFunction,ComponentPad*%
%ADD65C,0.039465*%
%ADD66R,0.039465X0.039465*%
%ADD67C,0.057937*%
%ADD68R,0.057937X0.057937*%
%ADD69R,0.057937X0.057937*%
%ADD70C,0.254000*%
%TA.AperFunction,NonConductor*%
%ADD75C,0.019732*%
%TA.AperFunction,SMDPad,CuDef*%
%ADD76R,0.015811X0.039433*%
%ADD77R,0.035496X0.039433*%
%ADD78R,0.138646X0.062661*%
%ADD79R,0.017779X0.059118*%
%ADD80R,0.025654X0.025654*%
%ADD81R,0.035496X0.035496*%
%ADD82R,0.035496X0.035496*%
%ADD83R,0.141795X0.027622*%
%ADD84R,0.027622X0.141795*%
%ADD85R,0.017779X0.057150*%
%ADD86R,0.057150X0.017779*%
%ADD87R,0.025654X0.025654*%
%ADD88R,0.063055X0.070929*%
%ADD89R,0.076079X0.022535*%
%ADD90R,0.074866X0.059118*%
G36*
X3753000Y2934559D02*
X3628890D01*
Y3023236D01*
X3753000D01*
Y2934559D01*
D02*
G37*
G36*
X3611268Y2859756D02*
X3542276D01*
Y2897252D01*
X3611268D01*
Y2859756D01*
D02*
G37*
G36*
X1444929Y2826724D02*
X1405465D01*
Y2866189D01*
X1444929D01*
Y2826724D01*
D02*
G37*
G36*
X826819Y2824756D02*
X787354D01*
Y2864220D01*
X826819D01*
Y2824756D01*
D02*
G37*
G36*
X3611268Y2810543D02*
X3542276D01*
Y2848039D01*
X3611268D01*
Y2810543D01*
D02*
G37*
G36*
Y2761331D02*
X3542276D01*
Y2798827D01*
X3611268D01*
Y2761331D01*
D02*
G37*
G36*
Y2712118D02*
X3542276D01*
Y2749614D01*
X3611268D01*
Y2712118D01*
D02*
G37*
G36*
Y2662905D02*
X3542276D01*
Y2700401D01*
X3611268D01*
Y2662905D01*
D02*
G37*
G36*
Y2613693D02*
X3542276D01*
Y2651189D01*
X3611268D01*
Y2613693D01*
D02*
G37*
G36*
Y2564480D02*
X3542276D01*
Y2601976D01*
X3611268D01*
Y2564480D01*
D02*
G37*
G36*
Y2515268D02*
X3542276D01*
Y2552764D01*
X3611268D01*
Y2515268D01*
D02*
G37*
G36*
Y2466055D02*
X3542276D01*
Y2503551D01*
X3611268D01*
Y2466055D01*
D02*
G37*
G36*
Y2416843D02*
X3542276D01*
Y2454338D01*
X3611268D01*
Y2416843D01*
D02*
G37*
G36*
Y2367630D02*
X3542276D01*
Y2405126D01*
X3611268D01*
Y2367630D01*
D02*
G37*
G36*
Y2318417D02*
X3542276D01*
Y2355913D01*
X3611268D01*
Y2318417D01*
D02*
G37*
G36*
Y2269205D02*
X3542276D01*
Y2306701D01*
X3611268D01*
Y2269205D01*
D02*
G37*
G36*
Y2219992D02*
X3542276D01*
Y2257488D01*
X3611268D01*
Y2219992D01*
D02*
G37*
G36*
X3753000Y2094008D02*
X3628890D01*
Y2182685D01*
X3753000D01*
Y2094008D01*
D02*
G37*
G36*
Y1860189D02*
X3628890D01*
Y1948866D01*
X3753000D01*
Y1860189D01*
D02*
G37*
G36*
X3611268Y1785386D02*
X3542276D01*
Y1822882D01*
X3611268D01*
Y1785386D01*
D02*
G37*
G36*
Y1736173D02*
X3542276D01*
Y1773669D01*
X3611268D01*
Y1736173D01*
D02*
G37*
G36*
Y1686961D02*
X3542276D01*
Y1724457D01*
X3611268D01*
Y1686961D01*
D02*
G37*
G36*
Y1637748D02*
X3542276D01*
Y1675244D01*
X3611268D01*
Y1637748D01*
D02*
G37*
G36*
Y1588535D02*
X3542276D01*
Y1626032D01*
X3611268D01*
Y1588535D01*
D02*
G37*
G36*
Y1539323D02*
X3542276D01*
Y1576819D01*
X3611268D01*
Y1539323D01*
D02*
G37*
G36*
X3753000Y1413339D02*
X3628890D01*
Y1502016D01*
X3753000D01*
Y1413339D01*
D02*
G37*
D19*
X1738394Y2500984D02*
D03*
Y2475394D02*
D03*
Y2449803D02*
D03*
Y2424213D02*
D03*
Y2398622D02*
D03*
Y2373032D02*
D03*
Y2347441D02*
D03*
Y2321850D02*
D03*
X1962394D02*
D03*
Y2347441D02*
D03*
Y2373032D02*
D03*
Y2398622D02*
D03*
Y2424213D02*
D03*
Y2449803D02*
D03*
Y2475394D02*
D03*
Y2500984D02*
D03*
D20*
X1850394Y2411417D02*
D03*
D64*
X85000Y2750000D02*
D03*
Y2694882D02*
D03*
X1610236Y909449D02*
D03*
Y964567D02*
D03*
X1507874Y2125984D02*
D03*
Y2070866D02*
D03*
X1669291Y1015748D02*
D03*
Y1070866D02*
D03*
X2877953Y1472441D02*
D03*
Y1527559D02*
D03*
Y1637795D02*
D03*
Y1582677D02*
D03*
X2460197Y2069338D02*
D03*
Y2014220D02*
D03*
X2400197Y2069338D02*
D03*
Y2014220D02*
D03*
X948819Y2854331D02*
D03*
Y2909449D02*
D03*
X1583661Y2433071D02*
D03*
Y2488189D02*
D03*
X2130906Y2371063D02*
D03*
Y2315945D02*
D03*
X1954724Y2206693D02*
D03*
Y2261811D02*
D03*
X2189961Y2371063D02*
D03*
Y2315945D02*
D03*
X2013780Y2206693D02*
D03*
Y2261811D02*
D03*
X2071851Y2371063D02*
D03*
Y2315945D02*
D03*
X2877953Y1330709D02*
D03*
Y1275591D02*
D03*
Y468504D02*
D03*
Y523622D02*
D03*
Y775591D02*
D03*
Y720472D02*
D03*
Y610236D02*
D03*
Y665354D02*
D03*
Y1043307D02*
D03*
Y1098425D02*
D03*
Y897638D02*
D03*
Y842520D02*
D03*
Y1208661D02*
D03*
Y1153543D02*
D03*
X1066929Y3307087D02*
D03*
Y3362205D02*
D03*
X1055079Y2622047D02*
D03*
Y2677165D02*
D03*
X1114173Y2622047D02*
D03*
Y2677165D02*
D03*
X1037205Y2137559D02*
D03*
Y2082441D02*
D03*
X3395669Y139764D02*
D03*
Y194882D02*
D03*
X3385827Y3405512D02*
D03*
Y3350394D02*
D03*
X1787402Y1015748D02*
D03*
Y1070866D02*
D03*
X1137795Y1039370D02*
D03*
Y1094488D02*
D03*
X1314961Y1015748D02*
D03*
Y1070866D02*
D03*
X1135000Y2072441D02*
D03*
Y2127559D02*
D03*
X1194205Y2072724D02*
D03*
Y2127842D02*
D03*
X1255000Y2127559D02*
D03*
Y2072441D02*
D03*
X1728347Y1015748D02*
D03*
Y1070866D02*
D03*
X610236Y2649606D02*
D03*
Y2704724D02*
D03*
Y2496063D02*
D03*
Y2551181D02*
D03*
X2338583Y2381890D02*
D03*
Y2437008D02*
D03*
X2401575Y2437008D02*
D03*
Y2381890D02*
D03*
X2531496Y2744095D02*
D03*
Y2688976D02*
D03*
X2401575Y2271653D02*
D03*
Y2326772D02*
D03*
D65*
X807087Y3287402D02*
D03*
Y3238189D02*
D03*
Y3188976D02*
D03*
Y3139764D02*
D03*
Y3090551D02*
D03*
Y3041339D02*
D03*
Y2992126D02*
D03*
Y2942913D02*
D03*
Y2893701D02*
D03*
X1425197Y3289370D02*
D03*
Y3240157D02*
D03*
Y3190945D02*
D03*
Y3141732D02*
D03*
Y3092520D02*
D03*
Y3043307D02*
D03*
Y2994095D02*
D03*
Y2944882D02*
D03*
Y2895669D02*
D03*
D66*
X807087Y2844488D02*
D03*
X1425197Y2846457D02*
D03*
D67*
X2665354Y59055D02*
D03*
X2765354D02*
D03*
X2865354D02*
D03*
X2965354D02*
D03*
X3065354D02*
D03*
X1988189D02*
D03*
X2088189D02*
D03*
X2188189D02*
D03*
X2288189D02*
D03*
X2388189D02*
D03*
X400000Y2550000D02*
D03*
Y2450000D02*
D03*
Y2250000D02*
D03*
Y2350000D02*
D03*
Y2050000D02*
D03*
Y1950000D02*
D03*
Y1850000D02*
D03*
Y1650000D02*
D03*
Y1750000D02*
D03*
Y1450000D02*
D03*
Y1250000D02*
D03*
Y1550000D02*
D03*
Y1350000D02*
D03*
Y2150000D02*
D03*
Y2650000D02*
D03*
X500000Y1050000D02*
D03*
Y1350000D02*
D03*
Y1250000D02*
D03*
Y1150000D02*
D03*
Y1450000D02*
D03*
Y1650000D02*
D03*
Y650000D02*
D03*
Y850000D02*
D03*
Y950000D02*
D03*
Y750000D02*
D03*
Y1550000D02*
D03*
X400000Y3050000D02*
D03*
Y2750000D02*
D03*
Y2950000D02*
D03*
X500000Y2850000D02*
D03*
Y2950000D02*
D03*
X400000Y2850000D02*
D03*
X500000Y3050000D02*
D03*
Y2750000D02*
D03*
Y2550000D02*
D03*
Y2450000D02*
D03*
Y2350000D02*
D03*
Y2250000D02*
D03*
Y2150000D02*
D03*
Y2050000D02*
D03*
Y1850000D02*
D03*
Y1750000D02*
D03*
Y2650000D02*
D03*
Y1950000D02*
D03*
X400000Y950000D02*
D03*
Y1050000D02*
D03*
Y750000D02*
D03*
Y1150000D02*
D03*
Y550000D02*
D03*
Y850000D02*
D03*
Y650000D02*
D03*
X200000Y2550000D02*
D03*
Y2450000D02*
D03*
Y2250000D02*
D03*
Y2350000D02*
D03*
Y2050000D02*
D03*
Y1950000D02*
D03*
Y1850000D02*
D03*
Y1650000D02*
D03*
Y1750000D02*
D03*
Y1450000D02*
D03*
Y1250000D02*
D03*
Y1550000D02*
D03*
Y1350000D02*
D03*
Y2150000D02*
D03*
Y2650000D02*
D03*
X300000Y1050000D02*
D03*
Y1350000D02*
D03*
Y1250000D02*
D03*
Y1150000D02*
D03*
Y1450000D02*
D03*
Y1650000D02*
D03*
Y650000D02*
D03*
Y850000D02*
D03*
Y950000D02*
D03*
Y750000D02*
D03*
Y1550000D02*
D03*
X200000Y3050000D02*
D03*
Y2750000D02*
D03*
Y2950000D02*
D03*
X300000Y2850000D02*
D03*
Y2950000D02*
D03*
X200000Y2850000D02*
D03*
X300000Y3050000D02*
D03*
Y2750000D02*
D03*
Y2550000D02*
D03*
Y2450000D02*
D03*
Y2350000D02*
D03*
Y2250000D02*
D03*
Y2150000D02*
D03*
Y2050000D02*
D03*
Y1850000D02*
D03*
Y1750000D02*
D03*
Y2650000D02*
D03*
Y1950000D02*
D03*
X200000Y950000D02*
D03*
Y1050000D02*
D03*
Y750000D02*
D03*
Y1150000D02*
D03*
Y550000D02*
D03*
Y850000D02*
D03*
Y650000D02*
D03*
D68*
X3165354Y59055D02*
D03*
X2488189D02*
D03*
D69*
X500000Y550000D02*
D03*
X300000D02*
D03*
D70*
X3575591Y3347244D02*
D03*
Y200000D02*
D03*
X200000Y350000D02*
D03*
Y3247244D02*
D03*
D75*
X816953Y3287402D02*
G03*
X816953Y3287402I-9866J0D01*
G01*
Y3238189D02*
G03*
X816953Y3238189I-9866J0D01*
G01*
Y3188976D02*
G03*
X816953Y3188976I-9866J0D01*
G01*
Y3139764D02*
G03*
X816953Y3139764I-9866J0D01*
G01*
Y3090551D02*
G03*
X816953Y3090551I-9866J0D01*
G01*
Y3041339D02*
G03*
X816953Y3041339I-9866J0D01*
G01*
Y2992126D02*
G03*
X816953Y2992126I-9866J0D01*
G01*
Y2942913D02*
G03*
X816953Y2942913I-9866J0D01*
G01*
Y2893701D02*
G03*
X816953Y2893701I-9866J0D01*
G01*
X1435063Y3289370D02*
G03*
X1435063Y3289370I-9866J0D01*
G01*
Y3240157D02*
G03*
X1435063Y3240157I-9866J0D01*
G01*
Y3190945D02*
G03*
X1435063Y3190945I-9866J0D01*
G01*
Y3141732D02*
G03*
X1435063Y3141732I-9866J0D01*
G01*
Y3092520D02*
G03*
X1435063Y3092520I-9866J0D01*
G01*
Y3043307D02*
G03*
X1435063Y3043307I-9866J0D01*
G01*
Y2994095D02*
G03*
X1435063Y2994095I-9866J0D01*
G01*
Y2944882D02*
G03*
X1435063Y2944882I-9866J0D01*
G01*
Y2895669D02*
G03*
X1435063Y2895669I-9866J0D01*
G01*
D76*
X899409Y507165D02*
D03*
Y380000D02*
D03*
X925000Y507165D02*
D03*
Y380000D02*
D03*
X873819D02*
D03*
X950591D02*
D03*
X873819Y507165D02*
D03*
X950591D02*
D03*
X1412205Y498583D02*
D03*
Y371417D02*
D03*
X1437795Y498583D02*
D03*
Y371417D02*
D03*
X1386614D02*
D03*
X1463386D02*
D03*
X1386614Y498583D02*
D03*
X1463386D02*
D03*
D77*
X1439134Y258543D02*
D03*
X1494252D02*
D03*
X1384016D02*
D03*
X1328898D02*
D03*
X820000Y265000D02*
D03*
X875118D02*
D03*
X985354D02*
D03*
X930236D02*
D03*
X942441Y610000D02*
D03*
X997559D02*
D03*
X1387559Y605000D02*
D03*
X1332441D02*
D03*
X2208661Y1878596D02*
D03*
X2263780D02*
D03*
X2208661Y1940262D02*
D03*
X2263780D02*
D03*
X1960630Y716535D02*
D03*
X1905512D02*
D03*
X1795275D02*
D03*
X1850394D02*
D03*
X2094488D02*
D03*
X2149606D02*
D03*
X3094488Y822835D02*
D03*
X3149606D02*
D03*
X708661Y2992126D02*
D03*
X653543D02*
D03*
X708661Y3192913D02*
D03*
X653543D02*
D03*
X1976378Y1212599D02*
D03*
X1921260D02*
D03*
X1976378Y1153543D02*
D03*
X1921260D02*
D03*
X1976378Y1094488D02*
D03*
X1921260D02*
D03*
X2641732Y1980315D02*
D03*
X2586614D02*
D03*
X2208661Y1816929D02*
D03*
X2263780D02*
D03*
X2208661Y1755263D02*
D03*
X2263780D02*
D03*
X956693Y3098425D02*
D03*
X1011811D02*
D03*
X1011811Y3157480D02*
D03*
X956693D02*
D03*
X2069882Y2428150D02*
D03*
X2125000D02*
D03*
X1842520Y2259843D02*
D03*
X1897638D02*
D03*
X1248032Y3039370D02*
D03*
X1303150D02*
D03*
X3433858Y2418504D02*
D03*
X3378740D02*
D03*
X3433858Y2478504D02*
D03*
X3378740D02*
D03*
X3433858Y2538504D02*
D03*
X3378740D02*
D03*
X3433858Y2598504D02*
D03*
X3378740D02*
D03*
X3378740Y2658504D02*
D03*
X3433858D02*
D03*
X3378740Y2718504D02*
D03*
X3433858D02*
D03*
X3433858Y2778504D02*
D03*
X3378740D02*
D03*
X3378740Y2838504D02*
D03*
X3433858D02*
D03*
X3433858Y2178504D02*
D03*
X3378740D02*
D03*
X3433858Y2238504D02*
D03*
X3378740D02*
D03*
X3433858Y2298504D02*
D03*
X3378740D02*
D03*
X3433858Y2358504D02*
D03*
X3378740D02*
D03*
X3378740Y2898504D02*
D03*
X3433858D02*
D03*
X3445709Y1815118D02*
D03*
X3390590D02*
D03*
X3445709Y1695118D02*
D03*
X3390590D02*
D03*
X3445709Y1755118D02*
D03*
X3390590D02*
D03*
X3445709Y1635118D02*
D03*
X3390590D02*
D03*
X253937Y167323D02*
D03*
X198819D02*
D03*
X139764Y3444882D02*
D03*
X194882D02*
D03*
X834646Y1212598D02*
D03*
X889764D02*
D03*
X814961Y1692913D02*
D03*
X870079D02*
D03*
X814961Y1488189D02*
D03*
X870079D02*
D03*
X653543Y2893701D02*
D03*
X708661D02*
D03*
X653543Y3133858D02*
D03*
X708661D02*
D03*
X1956693Y1539370D02*
D03*
X1901575D02*
D03*
X1956693Y1736220D02*
D03*
X1901575D02*
D03*
X1996063Y1814961D02*
D03*
X1940945D02*
D03*
X1996063Y1874016D02*
D03*
X1940945D02*
D03*
X1996063Y1933071D02*
D03*
X1940945D02*
D03*
X1866142Y2031496D02*
D03*
X1811024D02*
D03*
X1956693Y1271653D02*
D03*
X1901575D02*
D03*
X1976378Y1362205D02*
D03*
X1921260D02*
D03*
X1976378Y1421260D02*
D03*
X1921260D02*
D03*
X690945Y925197D02*
D03*
X746063D02*
D03*
X690945Y797244D02*
D03*
X746063D02*
D03*
X690945Y669291D02*
D03*
X746063D02*
D03*
X2539370Y2543307D02*
D03*
X2594488D02*
D03*
D78*
X1850394Y2588583D02*
D03*
Y2818032D02*
D03*
D79*
X1043307Y3026575D02*
D03*
X1068898D02*
D03*
X1094488D02*
D03*
X1120079D02*
D03*
X1145669D02*
D03*
X1120079Y2800197D02*
D03*
X1145669D02*
D03*
X1171260D02*
D03*
X1094488D02*
D03*
X1068898D02*
D03*
X1043307D02*
D03*
X1017716D02*
D03*
Y3026575D02*
D03*
X1171260D02*
D03*
X2465488Y2210945D02*
D03*
Y2437323D02*
D03*
X2491079D02*
D03*
X2516669D02*
D03*
X2542260D02*
D03*
X2567851D02*
D03*
X2593441D02*
D03*
X2567851Y2210945D02*
D03*
X2593441D02*
D03*
X2619032D02*
D03*
Y2437323D02*
D03*
X2542260Y2210945D02*
D03*
X2516669D02*
D03*
X2491079D02*
D03*
D80*
X658819Y2053819D02*
D03*
Y2018386D02*
D03*
X1370079Y986220D02*
D03*
Y1021654D02*
D03*
X674842Y1339527D02*
D03*
Y1374961D02*
D03*
D81*
X593819Y2081299D02*
D03*
Y2016339D02*
D03*
X609842Y1335000D02*
D03*
Y1399961D02*
D03*
X85000Y2624961D02*
D03*
Y2560000D02*
D03*
D82*
X686024Y856299D02*
D03*
X750984D02*
D03*
X686024Y728346D02*
D03*
X750984D02*
D03*
X686024Y994095D02*
D03*
X750984D02*
D03*
D83*
X2408157Y1480488D02*
D03*
Y1530488D02*
D03*
Y1580488D02*
D03*
Y1630488D02*
D03*
X2762488D02*
D03*
Y1580488D02*
D03*
Y1530488D02*
D03*
Y1480488D02*
D03*
Y1430488D02*
D03*
Y1280488D02*
D03*
Y1330488D02*
D03*
Y1380488D02*
D03*
X2408157Y1430488D02*
D03*
Y1380488D02*
D03*
Y1330488D02*
D03*
Y1280488D02*
D03*
Y619488D02*
D03*
Y669488D02*
D03*
Y719488D02*
D03*
Y769488D02*
D03*
X2762488D02*
D03*
Y719488D02*
D03*
Y669488D02*
D03*
Y619488D02*
D03*
Y569488D02*
D03*
Y419488D02*
D03*
Y469488D02*
D03*
Y519488D02*
D03*
X2408157Y569488D02*
D03*
Y519488D02*
D03*
Y469488D02*
D03*
Y419488D02*
D03*
Y1048488D02*
D03*
Y1098488D02*
D03*
Y1148488D02*
D03*
Y1198488D02*
D03*
X2762488D02*
D03*
Y1148488D02*
D03*
Y1098488D02*
D03*
Y1048488D02*
D03*
Y998488D02*
D03*
Y848488D02*
D03*
Y898488D02*
D03*
Y948488D02*
D03*
X2408157Y998488D02*
D03*
Y948488D02*
D03*
Y898488D02*
D03*
Y848488D02*
D03*
D84*
X1951528Y246740D02*
D03*
X1901528D02*
D03*
X1851528D02*
D03*
X1801528D02*
D03*
Y601071D02*
D03*
X1851528D02*
D03*
X1901528D02*
D03*
X1951528D02*
D03*
X2001528D02*
D03*
X2151528D02*
D03*
X2101528D02*
D03*
X2051528D02*
D03*
X2001528Y246740D02*
D03*
X2051528D02*
D03*
X2101528D02*
D03*
X2151528D02*
D03*
D85*
X1039370Y1169291D02*
D03*
X1059055D02*
D03*
X1078740D02*
D03*
X1098425D02*
D03*
X1118110D02*
D03*
X1137795D02*
D03*
X1157480D02*
D03*
X1177165D02*
D03*
X1196850D02*
D03*
X1216535D02*
D03*
X1236220D02*
D03*
X1255906D02*
D03*
X1275591D02*
D03*
X1295276D02*
D03*
X1314961D02*
D03*
X1334646D02*
D03*
X1354331D02*
D03*
X1374016D02*
D03*
X1393701D02*
D03*
X1413386D02*
D03*
X1433071D02*
D03*
X1452756D02*
D03*
X1472441D02*
D03*
X1492126D02*
D03*
X1511811D02*
D03*
X1531496D02*
D03*
X1551181D02*
D03*
X1570866D02*
D03*
X1590551D02*
D03*
X1610236D02*
D03*
X1629921D02*
D03*
X1649606D02*
D03*
X1669291D02*
D03*
X1688976D02*
D03*
X1708661D02*
D03*
X1728347D02*
D03*
Y2005906D02*
D03*
X1708661D02*
D03*
X1688976D02*
D03*
X1669291D02*
D03*
X1649606D02*
D03*
X1629921D02*
D03*
X1610236D02*
D03*
X1590551D02*
D03*
X1570866D02*
D03*
X1551181D02*
D03*
X1531496D02*
D03*
X1511811D02*
D03*
X1492126D02*
D03*
X1472441D02*
D03*
X1452756D02*
D03*
X1433071D02*
D03*
X1413386D02*
D03*
X1393701D02*
D03*
X1374016D02*
D03*
X1354331D02*
D03*
X1334646D02*
D03*
X1314961D02*
D03*
X1295276D02*
D03*
X1275591D02*
D03*
X1255906D02*
D03*
X1236220D02*
D03*
X1216535D02*
D03*
X1196850D02*
D03*
X1177165D02*
D03*
X1157480D02*
D03*
X1137795D02*
D03*
X1118110D02*
D03*
X1098425D02*
D03*
X1078740D02*
D03*
X1059055D02*
D03*
X1039370D02*
D03*
D86*
X1802165Y1243110D02*
D03*
Y1262795D02*
D03*
Y1282480D02*
D03*
Y1302165D02*
D03*
Y1321850D02*
D03*
Y1341535D02*
D03*
Y1361220D02*
D03*
Y1380906D02*
D03*
Y1400591D02*
D03*
Y1420276D02*
D03*
Y1439961D02*
D03*
Y1459646D02*
D03*
Y1479331D02*
D03*
Y1499016D02*
D03*
Y1518701D02*
D03*
Y1538386D02*
D03*
Y1558071D02*
D03*
Y1577756D02*
D03*
Y1597441D02*
D03*
Y1617126D02*
D03*
Y1636811D02*
D03*
Y1656496D02*
D03*
Y1676181D02*
D03*
Y1695866D02*
D03*
Y1715551D02*
D03*
Y1735236D02*
D03*
Y1754921D02*
D03*
Y1774606D02*
D03*
Y1794291D02*
D03*
Y1813976D02*
D03*
Y1833661D02*
D03*
Y1853346D02*
D03*
Y1873032D02*
D03*
Y1892716D02*
D03*
Y1912401D02*
D03*
Y1932087D02*
D03*
X965551D02*
D03*
Y1912401D02*
D03*
Y1892716D02*
D03*
Y1873032D02*
D03*
Y1853346D02*
D03*
Y1833661D02*
D03*
Y1813976D02*
D03*
Y1794291D02*
D03*
Y1774606D02*
D03*
Y1754921D02*
D03*
Y1735236D02*
D03*
Y1715551D02*
D03*
Y1695866D02*
D03*
Y1676181D02*
D03*
Y1656496D02*
D03*
Y1636811D02*
D03*
Y1617126D02*
D03*
Y1597441D02*
D03*
Y1577756D02*
D03*
Y1558071D02*
D03*
Y1538386D02*
D03*
Y1518701D02*
D03*
Y1499016D02*
D03*
Y1479331D02*
D03*
Y1459646D02*
D03*
Y1439961D02*
D03*
Y1420276D02*
D03*
Y1400591D02*
D03*
Y1380906D02*
D03*
Y1361220D02*
D03*
Y1341535D02*
D03*
Y1321850D02*
D03*
Y1302165D02*
D03*
Y1282480D02*
D03*
Y1262795D02*
D03*
Y1243110D02*
D03*
D87*
X1444882Y842520D02*
D03*
X1480315D02*
D03*
D88*
X1531496Y926378D02*
D03*
Y1026378D02*
D03*
X1444882D02*
D03*
Y926378D02*
D03*
D89*
X2729921Y1796260D02*
D03*
X2498425D02*
D03*
X2729921Y1924213D02*
D03*
Y1898622D02*
D03*
Y1873032D02*
D03*
Y1847441D02*
D03*
Y1821850D02*
D03*
Y1770669D02*
D03*
Y1745079D02*
D03*
X2498425D02*
D03*
Y1770669D02*
D03*
Y1821850D02*
D03*
Y1847441D02*
D03*
Y1873032D02*
D03*
Y1898622D02*
D03*
Y1924213D02*
D03*
D90*
X78740Y1952756D02*
D03*
Y1850394D02*
D03*
Y1641732D02*
D03*
Y1744094D02*
D03*
%TF.MD5,9659830d1c4a09eb3cc2f31359f505f3*%
M02*
