M48
;Layer_Color=9474304
;FILE_FORMAT=2:5
INCH,LZ
;TYPE=PLATED
T1F00S00C0.00984
T2F00S00C0.01968
T3F00S00C0.04016
T4F00S00C0.12520
%
T01
X0010787Y0005866
X0025787
X0040787
X0055787
X0070787
X0085787
X0100787
X0093287Y0020866
X0078287
X0082Y0031224
X0070787Y0035866
X0055787
X0040787
X0048287Y0020866
X0063287
Y0050866
X0078287
X00875Y00565
X0085787Y0065866
X0079528Y0066929
X0079755Y0079513
X007874Y0092126
X0100787Y0095866
Y0065866
X00975Y0041016
X0093Y00435
X009Y0046
X0100787Y0035866
X0055787Y0065866
X0063287Y0080866
X0055787Y0095866
X0033287Y0080866
X0010787Y0095866
Y0065866
X0033287Y0020866
X0030709Y0016535
X0108287Y0020866
X0116535Y0025591
X0115787Y0035866
X0130787
X0141Y0046102
X0144Y00435
X0148Y0040963
X01565Y00405
X0157Y00465
X0153287Y0050866
X0160787Y0065866
X0175787
X0175197Y0071653
X0185827Y0077165
X0183287Y0080866
X0190787Y0095866
X0205787
X0205118Y0071653
X0200787Y007126
X02005Y00459
X02003Y00387
X0210236Y0035433
X0215354Y0041732
X0232283
X0249213Y004685
X025748Y0044366
X026063Y004685
X0250787Y0035866
X0258287Y0020866
X0228287
X0185039Y0015354
X0190787Y0005866
X0175787
X0160787
X0145787
X0130787
X0115787
X0123287Y0020866
X0138287
X0149315Y0021209
X0153287Y0020866
X0161417Y0025984
X0180315Y0050787
X0175787Y0095866
X0158268Y0086614
X0153937
X0153287Y0080866
X0138287
X0144488Y0087402
X0140157Y0091732
X0130787Y0095866
X0115787
X0123287Y0080866
X0130787Y0065866
X01335Y00655
X0138756Y0065618
X0145787Y0065866
X0123287Y0050866
X0231496Y0071653
X0228346Y0077165
X0243287Y0080866
X0249213Y0089764
X0250787Y0095866
X02585Y00895
X0250787Y0065866
X0266535Y0077751
X0273287Y0080866
X029252Y0079921
X0303287Y0080866
X0319291Y0082284
X0325516Y0066929
X0310787Y0065866
X0295787
X0293307Y0059842
X0294094Y0052362
X0303287Y0050866
X0310787Y0035866
X0325787
X0340787
X0355787
X0363287Y0050866
X0348287
X0336575Y0058661
X0333287Y0020866
X0334252Y0013386
X0340787Y0005866
X0325787
X0273287Y0020866
X0268262Y0033798
X0265787Y0035866
X0280787
X0287795Y0042126
X0292913Y0092126
X0295787Y0095866
X0287795Y01
X0309Y0097
X0312Y0101
X03152Y01124
X0318287Y0110866
X0317684Y0118898
X0325516Y012126
X0336575Y0129921
X0348287Y0140866
X0358Y01525
X0369291Y0152756
X0369685Y0136614
X0364173Y0165354
X0363287Y0170866
X0368504Y0183071
X0367717Y0197244
X0363287Y0200866
X0367717Y0205906
X0355787Y0215866
X0363287Y0230866
X0333858Y0235433
X0332Y0242
X03285Y02475
X032441Y0254331
X03037Y02552
X0310787Y0245866
X03123Y02407
X03034Y02384
X03192Y02336
X03196Y02248
X0333465Y0224016
X0333392Y0217752
X0333287Y0200866
X0348287
X0355787Y0185866
X0340787
X0325787
X0303937Y0181102
X0298819Y0187402
X0293307Y0184252
X0288461Y0193307
X0279921Y0189886
X0279134Y0184252
X0280709Y0176622
X0277559Y0168898
X0272441
X0287795Y016811
X0291732Y0171653
X0292Y01444
X029318Y0133071
X0293Y01285
Y01245
X0302063Y0127559
X0304547Y0135039
X0309984Y0135827
X0308268Y0139764
X0322441
X0319685Y0135827
X0324925Y0149606
X0332799Y016063
X0338976Y0155512
X030315Y02
X0299213Y0196063
X02735Y0195
X0266929Y0186614
X0265787Y0215866
X0264567Y0220866
X02675Y02435
X02774Y02543
X0250787Y0254724
X0248819Y0238583
X0244094Y0232677
X0235827Y0233858
X0229134Y0236116
X0229921Y0243654
X0237008
X02235Y02315
X0201928Y0234869
X020315Y024206
X01929Y02532
X01773Y02533
X0170079Y0252756
X0168504Y0237795
X01625Y02425
X0145787Y0245866
X0141732Y0254331
X0138976Y0257874
X0111417
X01218Y02395
X0123287Y0230866
X0119307Y0227484
X01135Y0223
X0108346Y0227433
X0124803Y0216929
X0130787Y0215866
X01285Y0206
X0131496Y0195276
X0123583Y0189492
X0120472Y0187008
X0115354Y0161024
X0112205Y015748
X0115787Y0125866
X0120472Y0129134
X0123622Y013189
X0130787Y0125866
X0135433Y0122047
X0138287Y0110866
X0123287
X01185Y01095
X0127Y0107
X0145787Y0125866
X0160787
X0161811Y0121653
X0167Y0111
X0184Y0107
X0203977Y0109549
X0204331Y0115354
X0206299Y012126
X0205787Y0125866
X0201575Y0138583
X0197638Y0147244
X02093Y01461
X0217323Y0163386
X0213287Y0170866
X02165Y0175
X0228346Y0169685
X0231496Y0157874
X0243701Y0174803
X0244094Y0177953
X0240254Y0178574
X0244488Y018413
X0256532Y0181646
X0263083Y0189795
X0261Y01925
X0253937Y0198031
X0253521Y0202499
X0253937Y0215748
X0246142Y0211739
X02435Y0223
X0248901Y0225901
X0251Y0228
X0235433Y0206693
X0212992Y0211811
X01985Y02205
X0184252Y0221925
X0191943Y022989
X0172835Y0229969
X0153287Y0230866
X0150787Y0217323
X0145787Y0215866
X0146869Y0207153
X016199Y0206994
X0161024Y0209842
X0160787Y0215866
X0164379Y0205232
X0164961Y0194488
X0174016Y0191975
X0180217Y0197736
X0186614Y0198425
X0176769Y020709
X015315Y0195276
X0174803Y0173228
X0174762Y01685
X0174803Y0164961
X0174409Y0151969
X0185827Y0153937
X0195669Y0158146
X0193936Y0169449
X0185138Y0173524
X0204331Y018189
Y0187008
X0204724Y0193307
X0222948Y0190336
X0222441Y0130709
X0231496Y0114516
X025139Y0132862
X0259016Y0132677
X0186614Y0133736
X0185827Y0127953
X0175197Y0126378
X0168287Y0140866
X0153287
X0138287
X0101181Y0136221
Y0146063
X0087087Y0145179
X0091261Y0151647
X0089633Y0154855
X0090945Y0158661
X0087141Y0165277
X0091732Y0172835
X0081496Y0173622
X0085787Y0185866
X0093287Y0200866
X00995Y0208
X0098819Y0213779
X0085787Y0215866
X0093287Y0230866
X00689Y02289
X0063287Y0230866
X0061024Y0244882
X0055787Y0245866
X0066142Y0249606
X0072337Y0253013
X0071484Y0244929
X0066Y02095
X00595Y02115
X0055787Y0215866
X0035Y021
X0025
X0015
Y02
X0025
X0035
X0033287Y0170866
X0063287
X0065944Y0158994
X0069291Y0156299
X0055787Y0155866
X0061Y01435
X00675Y0141
X0072441Y0129921
X0070787Y0125866
X0077722Y013187
X0085787Y0125866
X0091339Y012665
X0089Y0117
X0078287Y0110866
X0063287
X0055787Y0125866
X0033287Y0140866
Y0110866
X0010787Y0125866
Y0155866
Y0215866
Y0245866
X0013Y0256
X0033287Y0230866
X0055787Y0185866
X0082284Y0153543
X0106815Y0164961
X0104331Y0169685
X0105512Y0195276
X0105905Y0257087
X0106299Y0105905
X0100787Y0105512
X0100394Y0110236
X0093287Y0260866
X00763Y0262
X0076378Y0281102
X0061024Y0275197
X0061Y0293
X0065354Y0303543
X0065299Y0309101
X0070787Y0305866
X0055787
X006063Y0319291
X0048287Y0320866
X0055787Y0335866
X0070787
X0085787
X0101181Y0336221
X0101Y03285
X01015Y03235
X0106213Y03133
X0106944Y0298227
X0104302Y0296874
X0094882Y0295669
X0098425Y0302756
X0091067Y0309842
X0090158Y0315354
X0098425Y0280709
X0033287Y0290866
Y0260866
X0010787Y0305866
X0040787Y0335866
X0112598Y0322047
X0113Y03115
X0124803Y0308661
X0130315Y0307874
X0130709Y0312992
X0146063Y0311811
X0147124Y0320987
X0153287Y0320866
X0158268Y0314173
X0160787Y0305866
X0166535Y0304724
X0168287Y0290866
X0170079Y0286221
X0170276Y0283465
Y0280512
Y0277559
Y0274606
X0175787Y0275866
X0185Y02755
Y0272
Y02685
Y0265
X019685Y0274606
Y0277559
Y0280512
Y0283465
Y0286221
X0198287Y0290866
X0207087Y0289764
X0218504Y0290158
X02311Y02891
X0231496Y0274016
X0231102Y0264173
X0218898Y0269291
X0215Y02685
X0205787Y0275866
X0201575Y0308268
X0196457Y0309449
X0209Y0311
X02163Y03085
X02238Y03082
X0231102Y0309055
X0238484Y0307681
X0242913Y0313779
X0250394Y0304331
X02593Y03062
X02586Y02943
X0257874Y0278346
X0249606Y0279134
X025Y0274606
X025315Y0264173
X0253937Y0259055
X0259449
X0183287Y0290866
X0153287
X0138287
X0135827Y0283858
X0133465Y0279921
X0145787Y0275866
X0160787
X0153287Y0260866
X0123287
X0117323Y0298031
X0131Y033
X0173622Y0313779
X027559
X0274Y03025
X0267323Y0304724
X0273287Y0290866
X0282677Y029685
X02899Y02765
X0295787Y0275866
X03019Y02649
X02859Y02662
X0265787Y0275866
X03205Y02725
X0331445Y0271707
X0324621Y0259267
X0363287Y0260866
X0363386Y0287795
X0363287Y0290866
X0369685Y0290551
X0369291Y0304724
X0355787Y0305866
X0340787
X0325787
X0319685Y0314173
X0304724
X0302362Y0309055
X0310787Y0305866
X0333287Y0320866
X0348287
X0363287
X0333465Y0340551
X0325787Y0335866
T02
X0080709Y0284449
Y028937
Y0294291
Y0299213
Y0304134
Y0309055
Y0313976
Y0318898
Y0323819
Y032874
X014252Y0328937
Y0324016
Y0319094
Y0314173
Y0309252
Y0304331
Y029941
Y0294488
Y0289567
Y0284646
T03
X002Y0055
X003
X004
X005
Y0065
Y0075
Y0085
Y0095
X004
Y0085
Y0075
Y0065
X003
Y0075
Y0085
Y0095
X002
Y0085
Y0075
Y0065
X0198819Y0005906
X0208819
X0218819
X0228819
X0238819
X0248819
X0266535
X0276535
X0286535
X0296535
X0306535
X0316535
X005Y0105
Y0115
Y0125
X004
Y0135
Y0145
Y0155
Y0165
Y0175
Y0185
Y0195
Y0205
Y0215
Y0225
Y0235
Y0245
Y0255
X005
Y0245
Y0235
Y0225
Y0215
Y0205
Y0195
Y0185
Y0175
Y0165
Y0155
Y0145
Y0135
X003
X002
Y0145
Y0155
Y0165
Y0175
Y0185
Y0195
Y0205
Y0215
Y0225
Y0235
Y0245
Y0255
X003
Y0245
Y0235
Y0225
Y0215
Y0205
Y0195
Y0185
Y0175
Y0165
Y0155
Y0145
Y0125
X002
Y0115
X003
X004
Y0105
X003
X002
Y0265
Y0275
Y0285
Y0295
Y0305
X003
X004
Y0295
X005
Y0285
X004
Y0275
Y0265
X005
Y0275
X003
Y0285
Y0295
X005Y0305
X003Y0265
T04
X002Y0035
X0357559Y002
X002Y0324724
X0357559Y0334724
M30
