%TF.GenerationSoftware,Altium Limited,Altium Designer,21.6.4 (81)*%
G04 Layer_Physical_Order=2*
G04 Layer_Color=32768*
%FSLAX26Y26*%
%MOIN*%
%TF.SameCoordinates,8BEB2CB1-843D-409B-AEA6-C59BAE6679C3*%
%TF.FilePolarity,Negative*%
%TF.FileFunction,Copper,L2,Inr,Plane*%
%TF.Part,Single*%
G01*
G75*
%TA.AperFunction,NonConductor*%
%ADD43C,0.010000*%
%ADD44C,0.040000*%
%TA.AperFunction,ComponentPad*%
%ADD45C,0.059685*%
G04:AMPARAMS|DCode=46|XSize=79.685mil|YSize=79.685mil|CornerRadius=0mil|HoleSize=0mil|Usage=FLASHONLY|Rotation=0.000|XOffset=0mil|YOffset=0mil|HoleType=Round|Shape=Relief|Width=10mil|Gap=10mil|Entries=4|*
%AMTHD46*
7,0,0,0.079685,0.059685,0.010000,45*
%
%ADD46THD46*%
%ADD47C,0.080157*%
G04:AMPARAMS|DCode=48|XSize=100.157mil|YSize=100.157mil|CornerRadius=0mil|HoleSize=0mil|Usage=FLASHONLY|Rotation=0.000|XOffset=0mil|YOffset=0mil|HoleType=Round|Shape=Relief|Width=10mil|Gap=10mil|Entries=4|*
%AMTHD48*
7,0,0,0.100157,0.080157,0.010000,45*
%
%ADD48THD48*%
%ADD49C,0.165197*%
%TA.AperFunction,ViaPad*%
%ADD50C,0.049843*%
D43*
X942500Y2985000D02*
X1035000D01*
X650000Y2000000D02*
X942500Y2292500D01*
X650000Y1700000D02*
Y2000000D01*
X850000Y2350000D02*
Y2800000D01*
X550000Y2050000D02*
X850000Y2350000D01*
X550000Y2025000D02*
Y2050000D01*
X942500Y2292500D02*
Y2985000D01*
X150000Y1800000D02*
X550000D01*
Y2025000D01*
X150000Y1700000D02*
X650000D01*
X150000D02*
Y1800000D01*
X2655000Y2335000D02*
Y3210000D01*
X1545000Y2335000D02*
X2655000D01*
X1515000Y2365000D02*
X1545000Y2335000D01*
X1515000Y2365000D02*
Y2795000D01*
X1275000Y3035000D02*
X1515000Y2795000D01*
X1085000Y3035000D02*
X1275000D01*
X1035000Y2985000D02*
X1085000Y3035000D01*
X1350000Y3215000D02*
X1590000D01*
X850000D02*
X1350000D01*
X850000Y3150000D02*
Y3215000D01*
X350000Y2900000D02*
X750000D01*
Y3150000D01*
X850000D01*
Y2800000D02*
Y3150000D01*
X350000Y2800000D02*
X850000D01*
X350000D02*
Y2900000D01*
D44*
X1594488Y3223425D02*
X3198819D01*
X1594488D02*
Y3547244D01*
X0D02*
X1594488D01*
X0Y0D02*
X3775591D01*
Y590551D01*
X3449430D02*
X3775591D01*
X3449430D02*
Y1281212D01*
X3775590D01*
X3775591Y3550000D01*
X3198819Y3550000D02*
X3775591Y3550000D01*
X3198819Y3223425D02*
Y3550000D01*
X0Y0D02*
Y3547244D01*
D45*
X807087Y3287402D02*
D03*
Y3238189D02*
D03*
Y3188976D02*
D03*
Y3139764D02*
D03*
Y3041339D02*
D03*
Y2992126D02*
D03*
Y2942913D02*
D03*
Y2893701D02*
D03*
X1425197Y3289370D02*
D03*
Y3240157D02*
D03*
Y3190945D02*
D03*
Y3141732D02*
D03*
Y3092520D02*
D03*
Y3043307D02*
D03*
Y2944882D02*
D03*
Y2895669D02*
D03*
Y2846457D02*
D03*
D46*
X807087Y3090551D02*
D03*
Y2844488D02*
D03*
X1425197Y2994095D02*
D03*
D47*
X2665354Y59055D02*
D03*
X2765354D02*
D03*
X2865354D02*
D03*
X2965354D02*
D03*
X3065354D02*
D03*
X1988189D02*
D03*
X2088189D02*
D03*
X2188189D02*
D03*
X2288189D02*
D03*
X2388189D02*
D03*
X2488189D02*
D03*
X400000Y2550000D02*
D03*
Y2450000D02*
D03*
Y2250000D02*
D03*
Y2350000D02*
D03*
Y2050000D02*
D03*
Y1950000D02*
D03*
Y1850000D02*
D03*
Y1650000D02*
D03*
Y1750000D02*
D03*
Y1450000D02*
D03*
Y1250000D02*
D03*
Y1550000D02*
D03*
Y1350000D02*
D03*
Y2150000D02*
D03*
Y2650000D02*
D03*
X500000Y1050000D02*
D03*
Y1350000D02*
D03*
Y1250000D02*
D03*
Y1150000D02*
D03*
Y1450000D02*
D03*
Y1650000D02*
D03*
Y550000D02*
D03*
Y650000D02*
D03*
Y850000D02*
D03*
Y950000D02*
D03*
Y750000D02*
D03*
Y1550000D02*
D03*
X400000Y3050000D02*
D03*
Y2750000D02*
D03*
Y2950000D02*
D03*
X500000Y2850000D02*
D03*
Y2950000D02*
D03*
Y3050000D02*
D03*
Y2750000D02*
D03*
Y2550000D02*
D03*
Y2450000D02*
D03*
Y2350000D02*
D03*
Y2250000D02*
D03*
Y2150000D02*
D03*
Y2050000D02*
D03*
Y1850000D02*
D03*
Y1750000D02*
D03*
Y2650000D02*
D03*
Y1950000D02*
D03*
X400000Y950000D02*
D03*
Y1050000D02*
D03*
Y750000D02*
D03*
Y1150000D02*
D03*
Y550000D02*
D03*
Y850000D02*
D03*
Y650000D02*
D03*
X200000Y2550000D02*
D03*
Y2450000D02*
D03*
Y2250000D02*
D03*
Y2350000D02*
D03*
Y2050000D02*
D03*
Y1950000D02*
D03*
Y1650000D02*
D03*
Y1450000D02*
D03*
Y1250000D02*
D03*
Y1550000D02*
D03*
Y1350000D02*
D03*
Y2150000D02*
D03*
Y2650000D02*
D03*
X300000Y1050000D02*
D03*
Y1350000D02*
D03*
Y1250000D02*
D03*
Y1150000D02*
D03*
Y1450000D02*
D03*
Y1650000D02*
D03*
Y550000D02*
D03*
Y650000D02*
D03*
Y850000D02*
D03*
Y950000D02*
D03*
Y750000D02*
D03*
Y1550000D02*
D03*
X200000Y3050000D02*
D03*
Y2750000D02*
D03*
Y2950000D02*
D03*
X300000Y2850000D02*
D03*
Y2950000D02*
D03*
X200000Y2850000D02*
D03*
X300000Y3050000D02*
D03*
Y2750000D02*
D03*
Y2550000D02*
D03*
Y2450000D02*
D03*
Y2350000D02*
D03*
Y2250000D02*
D03*
Y2150000D02*
D03*
Y2050000D02*
D03*
Y2650000D02*
D03*
Y1950000D02*
D03*
X200000Y950000D02*
D03*
Y1050000D02*
D03*
Y750000D02*
D03*
Y1150000D02*
D03*
Y550000D02*
D03*
Y850000D02*
D03*
Y650000D02*
D03*
D48*
X3165354Y59055D02*
D03*
X400000Y2850000D02*
D03*
X200000Y1850000D02*
D03*
Y1750000D02*
D03*
X300000Y1850000D02*
D03*
Y1750000D02*
D03*
D49*
X3575591Y3347244D02*
D03*
Y200000D02*
D03*
X200000Y350000D02*
D03*
Y3247244D02*
D03*
D50*
X3632874Y3208662D02*
D03*
X3557874Y3058662D02*
D03*
X3632874Y2908662D02*
D03*
Y2608662D02*
D03*
Y2308662D02*
D03*
X3557874Y2158662D02*
D03*
X3632874Y2008661D02*
D03*
X3557874Y1858661D02*
D03*
X3632874Y1708661D02*
D03*
Y508661D02*
D03*
X3557874Y358661D02*
D03*
X3482874Y3208662D02*
D03*
X3407874Y3058662D02*
D03*
X3482874Y2008661D02*
D03*
X3407874Y1858661D02*
D03*
X3482874Y1408661D02*
D03*
Y508661D02*
D03*
X3407874Y358661D02*
D03*
Y58661D02*
D03*
X3257874Y3358662D02*
D03*
X3332874Y3208662D02*
D03*
X3257874Y3058662D02*
D03*
X3332874Y2008661D02*
D03*
X3257874Y1858661D02*
D03*
Y358661D02*
D03*
X3332874Y208661D02*
D03*
X3257874Y58661D02*
D03*
X3107874Y3058662D02*
D03*
Y2458662D02*
D03*
X3182874Y1108661D02*
D03*
X3107874Y658662D02*
D03*
Y358661D02*
D03*
X2957874Y2758662D02*
D03*
Y958662D02*
D03*
X3032874Y808662D02*
D03*
X2957874Y658662D02*
D03*
X3032874Y508661D02*
D03*
X2807874Y358661D02*
D03*
X2732874Y2908662D02*
D03*
X2657874Y2758662D02*
D03*
Y2158662D02*
D03*
X2732874Y808662D02*
D03*
X2657874Y358661D02*
D03*
X2732874Y208661D02*
D03*
X2507874Y958662D02*
D03*
Y658662D02*
D03*
Y358661D02*
D03*
X2582874Y208661D02*
D03*
X2432874Y808662D02*
D03*
X2282874Y208661D02*
D03*
X2057874Y2758662D02*
D03*
X2132874Y1708661D02*
D03*
X2057874Y1258661D02*
D03*
Y958662D02*
D03*
X1982874Y2908662D02*
D03*
X1907874Y958662D02*
D03*
Y58661D02*
D03*
X1832874Y2908662D02*
D03*
X1757874Y2758662D02*
D03*
Y958662D02*
D03*
X1832874Y808662D02*
D03*
X1757874Y658662D02*
D03*
Y58661D02*
D03*
X1607874Y3058662D02*
D03*
X1682874Y2908662D02*
D03*
X1607874Y2758662D02*
D03*
Y2158662D02*
D03*
X1682874Y1408661D02*
D03*
X1607874Y1258661D02*
D03*
Y658662D02*
D03*
Y58661D02*
D03*
X1532874Y3208662D02*
D03*
Y2908662D02*
D03*
X1457874Y2758662D02*
D03*
X1532874Y2608662D02*
D03*
X1457874Y2458662D02*
D03*
X1532874Y2308662D02*
D03*
X1457874Y2158662D02*
D03*
X1532874Y1408661D02*
D03*
X1457874Y1258661D02*
D03*
X1532874Y808662D02*
D03*
X1457874Y658662D02*
D03*
X1532874Y508661D02*
D03*
Y208661D02*
D03*
X1457874Y58661D02*
D03*
X1382874Y2908662D02*
D03*
X1307874Y2158662D02*
D03*
X1382874Y1408661D02*
D03*
X1307874Y1258661D02*
D03*
X1382874Y1108661D02*
D03*
X1307874Y958662D02*
D03*
X1382874Y808662D02*
D03*
X1307874Y658662D02*
D03*
Y358661D02*
D03*
X1382874Y208661D02*
D03*
X1307874Y58661D02*
D03*
X1232874Y2608662D02*
D03*
Y2308662D02*
D03*
X1157874Y1258661D02*
D03*
X1232874Y1108661D02*
D03*
X1157874Y958662D02*
D03*
X1232874Y808662D02*
D03*
Y508661D02*
D03*
X1157874Y358661D02*
D03*
X1232874Y208661D02*
D03*
X1157874Y58661D02*
D03*
X1007874Y958662D02*
D03*
Y658662D02*
D03*
Y358661D02*
D03*
X1082874Y208661D02*
D03*
X1007874Y58661D02*
D03*
X857874Y3358662D02*
D03*
X932874Y2608662D02*
D03*
Y2308662D02*
D03*
X857874Y2158662D02*
D03*
X932874Y2008661D02*
D03*
X857874Y1858661D02*
D03*
Y1258661D02*
D03*
Y658662D02*
D03*
X932874Y208661D02*
D03*
X857874Y58661D02*
D03*
X707874Y3358662D02*
D03*
Y3058662D02*
D03*
Y1258661D02*
D03*
X782874Y1108661D02*
D03*
Y508661D02*
D03*
X707874Y358661D02*
D03*
X782874Y208661D02*
D03*
X707874Y58661D02*
D03*
X557874Y3358662D02*
D03*
Y3058662D02*
D03*
Y2458662D02*
D03*
X632874Y2308662D02*
D03*
X557874Y2158662D02*
D03*
Y1858661D02*
D03*
X632874Y1708661D02*
D03*
X557874Y1558661D02*
D03*
Y1258661D02*
D03*
X632874Y1108661D02*
D03*
X557874Y958662D02*
D03*
X632874Y808662D02*
D03*
X557874Y658662D02*
D03*
X632874Y508661D02*
D03*
X557874Y358661D02*
D03*
X632874Y208661D02*
D03*
X557874Y58661D02*
D03*
X407874Y3358662D02*
D03*
X482874Y3208662D02*
D03*
X407874Y358661D02*
D03*
X482874Y208661D02*
D03*
X407874Y58661D02*
D03*
X332874Y2908662D02*
D03*
Y2608662D02*
D03*
Y2308662D02*
D03*
Y1708661D02*
D03*
Y1408661D02*
D03*
Y1108661D02*
D03*
Y808662D02*
D03*
Y208661D02*
D03*
X257874Y58661D02*
D03*
X107874Y3058662D02*
D03*
Y2458662D02*
D03*
Y2158662D02*
D03*
Y1558661D02*
D03*
Y1258661D02*
D03*
Y958662D02*
D03*
Y658662D02*
D03*
Y58661D02*
D03*
X2859000Y2662000D02*
D03*
X2899000Y2765000D02*
D03*
X3019000Y2649000D02*
D03*
X3037000Y2552000D02*
D03*
X3034000Y2384000D02*
D03*
X3123000Y2407000D02*
D03*
X3196000Y2248000D02*
D03*
X3192000Y2336000D02*
D03*
X2774000Y2543000D02*
D03*
X2003000Y387000D02*
D03*
X2005000Y459000D02*
D03*
X2093000Y1461000D02*
D03*
X1218000Y2395000D02*
D03*
X1919434Y2298898D02*
D03*
X2291339Y2361157D02*
D03*
X3152000Y1124000D02*
D03*
X3176843Y1188976D02*
D03*
X2314961Y1145158D02*
D03*
X2043307Y1818898D02*
D03*
X2807087Y1766220D02*
D03*
X3365748Y586614D02*
D03*
X3249252Y1496063D02*
D03*
X689000Y2289000D02*
D03*
X723374Y2530130D02*
D03*
X763000Y2620000D02*
D03*
X777224Y1318702D02*
D03*
X822842Y1535433D02*
D03*
X814961Y1736220D02*
D03*
X1929000Y2532000D02*
D03*
X1773000Y2533000D02*
D03*
X1850000Y2650000D02*
D03*
Y2685000D02*
D03*
Y2720000D02*
D03*
Y2755000D02*
D03*
X3205000Y2725000D02*
D03*
X2489010Y2259010D02*
D03*
X2510000Y2280000D02*
D03*
X3020630Y1275591D02*
D03*
X3099843Y1358268D02*
D03*
X3045472Y1350394D02*
D03*
X3031496Y2000000D02*
D03*
X975000Y410158D02*
D03*
X900000Y460000D02*
D03*
X930000Y435000D02*
D03*
X1335000Y655000D02*
D03*
X1480000Y409632D02*
D03*
X1440000Y435000D02*
D03*
X1410000Y461024D02*
D03*
X1570000Y465000D02*
D03*
X1565000Y405000D02*
D03*
X2565315Y1816457D02*
D03*
X3039370Y1811024D02*
D03*
X2153543Y417323D02*
D03*
X2322835D02*
D03*
X1059055Y2570866D02*
D03*
X1083461Y2274333D02*
D03*
X1114173Y2578740D02*
D03*
X1310000Y3300000D02*
D03*
X1471237Y3209865D02*
D03*
X3244095Y2543307D02*
D03*
X3285000Y2475000D02*
D03*
X3320000Y2420000D02*
D03*
X2590157Y1326772D02*
D03*
X2585000Y895000D02*
D03*
X3120000Y1010000D02*
D03*
X3090000Y970000D02*
D03*
X1135000Y2230000D02*
D03*
X2444882Y1841299D02*
D03*
X1747621Y1685000D02*
D03*
X2437008Y1748032D02*
D03*
X2440945Y1779528D02*
D03*
X2930000Y1285000D02*
D03*
X1130000Y3115000D02*
D03*
X1015000Y3235000D02*
D03*
X1010000Y3285000D02*
D03*
X1069437Y2982273D02*
D03*
X948819Y2956693D02*
D03*
X910669Y3098425D02*
D03*
X1043018Y2968737D02*
D03*
X2610000Y1925000D02*
D03*
X912606Y1516475D02*
D03*
X3365748Y1299213D02*
D03*
X3255157Y1212598D02*
D03*
Y669291D02*
D03*
X150000Y2000000D02*
D03*
Y2100000D02*
D03*
X250000D02*
D03*
X350000D02*
D03*
Y2000000D02*
D03*
X250000D02*
D03*
X130000Y2560000D02*
D03*
X595000Y2115000D02*
D03*
X714842Y2449291D02*
D03*
X610000Y1435000D02*
D03*
X1939363Y1694495D02*
D03*
X2019279Y2348689D02*
D03*
X1728347Y2299685D02*
D03*
X1842520Y2219252D02*
D03*
X1685039Y2377953D02*
D03*
X1193070Y2274843D02*
D03*
X2062992Y1212598D02*
D03*
X2884606Y1933071D02*
D03*
X2826772Y2968504D02*
D03*
X2799213Y1898858D02*
D03*
X2988189Y1874016D02*
D03*
X2933071Y1842520D02*
D03*
X3224409Y1397638D02*
D03*
X3196850Y1358268D02*
D03*
X2992126Y1960630D02*
D03*
X2791339Y1842520D02*
D03*
X2645669Y2208661D02*
D03*
X3338583Y2354331D02*
D03*
X2440945Y2326772D02*
D03*
X3333922Y2177523D02*
D03*
X3334646Y2240157D02*
D03*
X3246213Y2592670D02*
D03*
X2039767Y1095495D02*
D03*
X2043307Y1153543D02*
D03*
X2047244Y1933071D02*
D03*
X1235828Y1894921D02*
D03*
X1204724Y1870079D02*
D03*
X1740158Y1919752D02*
D03*
X3314449Y2717067D02*
D03*
X661417Y2496063D02*
D03*
X2015748Y1385827D02*
D03*
X3082677Y1397638D02*
D03*
X3327992Y1606299D02*
D03*
X3389764Y1555118D02*
D03*
X1122047Y1574803D02*
D03*
X1153543Y1610236D02*
D03*
X1043307Y1696850D02*
D03*
X1068150Y1649606D02*
D03*
X1744094Y1519685D02*
D03*
X1011811Y1460630D02*
D03*
X1956693Y1581457D02*
D03*
X1748032Y1732284D02*
D03*
X1976378Y1472441D02*
D03*
X1582677Y866142D02*
D03*
X1614173Y259842D02*
D03*
X2224409Y1307087D02*
D03*
X1866142Y1337362D02*
D03*
X1751968Y1263780D02*
D03*
X1011811Y1362205D02*
D03*
X795276Y669291D02*
D03*
X1062992Y1059055D02*
D03*
X797550Y795129D02*
D03*
X1007874Y1055118D02*
D03*
X787402Y921260D02*
D03*
X1003937Y1102362D02*
D03*
X2358268Y2338583D02*
D03*
X2539370Y1980315D02*
D03*
X2535209Y2024994D02*
D03*
X1767685Y2070897D02*
D03*
X1649606Y1944882D02*
D03*
X2539370Y2157480D02*
D03*
X1866142Y1984252D02*
D03*
X1643790Y2052323D02*
D03*
X1619900Y2069942D02*
D03*
X1610236Y2098425D02*
D03*
X1700787Y2527559D02*
D03*
X1389764Y2578740D02*
D03*
X1417323Y2543307D02*
D03*
X692913Y1562992D02*
D03*
X896332Y1548550D02*
D03*
X659440Y1589944D02*
D03*
X909449Y1586614D02*
D03*
X913386Y1266496D02*
D03*
X724409Y1299213D02*
D03*
X1204724Y1291339D02*
D03*
X1236220Y1318898D02*
D03*
X763779Y2811024D02*
D03*
X1358268Y2838583D02*
D03*
X1334646Y2799213D02*
D03*
X901575Y3153543D02*
D03*
X2630832Y1897947D02*
D03*
X2775591Y1688976D02*
D03*
X2314961Y1578740D02*
D03*
X2173228Y1633858D02*
D03*
X2724409Y1688976D02*
D03*
X1507874Y2173228D02*
D03*
X1531496Y1952756D02*
D03*
X1314961D02*
D03*
X1055118D02*
D03*
X988189Y2137795D02*
D03*
X917323Y1728347D02*
D03*
X1354331Y1220472D02*
D03*
X1618110Y1216535D02*
D03*
X1748032Y1649606D02*
D03*
X2461424Y2117392D02*
D03*
X2129921Y2118110D02*
D03*
X2043307Y1870079D02*
D03*
X1803150Y507874D02*
D03*
X2492126Y468504D02*
D03*
X2665354Y777511D02*
D03*
X2102362Y354331D02*
D03*
X2917323Y1716535D02*
D03*
X1858268Y771654D02*
D03*
X2283465D02*
D03*
Y1696850D02*
D03*
X2669291Y1866142D02*
D03*
X2513895Y1328625D02*
D03*
X2492126Y897638D02*
D03*
X2574803Y443661D02*
D03*
X2606299Y468504D02*
D03*
X3192913Y822835D02*
D03*
X1248032Y2169291D02*
D03*
X2586000Y2943000D02*
D03*
X2188976Y2692913D02*
D03*
X2311024Y2641732D02*
D03*
X2496063Y2791339D02*
D03*
X2314961Y2740157D02*
D03*
X2594488Y2590551D02*
D03*
X2384843Y3076811D02*
D03*
X2238000Y3082000D02*
D03*
X2090000Y3110000D02*
D03*
X2070866Y2897638D02*
D03*
X2311000Y2891000D02*
D03*
X2185039Y2901575D02*
D03*
X1460630Y3118110D02*
D03*
X1303150Y3078740D02*
D03*
X1125984Y3220472D02*
D03*
X307087Y165354D02*
D03*
X3342520Y133858D02*
D03*
X2682616Y337980D02*
D03*
X2940945Y523622D02*
D03*
X1582677Y3141732D02*
D03*
X1665354Y3047244D02*
D03*
X1736220Y3137795D02*
D03*
X1964567Y3094488D02*
D03*
X2163000Y3085000D02*
D03*
X2311024Y3090551D02*
D03*
X2429134Y3137795D02*
D03*
X2593000Y3062000D02*
D03*
X2503937Y3043307D02*
D03*
X2673228Y3047244D02*
D03*
X2755905Y3137795D02*
D03*
X3023622Y3090551D02*
D03*
X3047244Y3141732D02*
D03*
X3196850D02*
D03*
X3334646Y3405512D02*
D03*
X3696850Y2905512D02*
D03*
X3692913Y3047244D02*
D03*
X3633858Y2877953D02*
D03*
X3677165Y2059055D02*
D03*
X3641732Y1653543D02*
D03*
X3677165Y1972441D02*
D03*
X3685039Y1830709D02*
D03*
X3692913Y1527559D02*
D03*
X3696850Y1366142D02*
D03*
X2314961Y716535D02*
D03*
X1165354Y255905D02*
D03*
X1850394Y153543D02*
D03*
X2500000Y2746063D02*
D03*
X1700787Y2862205D02*
D03*
X1968504Y2746063D02*
D03*
Y2775591D02*
D03*
Y2805118D02*
D03*
Y2834646D02*
D03*
X1702756Y2746063D02*
D03*
Y2775591D02*
D03*
Y2805118D02*
D03*
Y2834646D02*
D03*
X1968504Y2862205D02*
D03*
X1011811Y3362205D02*
D03*
%TF.MD5,a5503b758b8398b9759eb80420de972d*%
M02*
