%TF.GenerationSoftware,Altium Limited,Altium Designer,21.6.4 (81)*%
G04 Layer_Color=16711935*
%FSLAX26Y26*%
%MOIN*%
%TF.SameCoordinates,8BEB2CB1-843D-409B-AEA6-C59BAE6679C3*%
%TF.FilePolarity,Negative*%
%TF.FileFunction,Soldermask,Bot*%
%TF.Part,Single*%
G01*
G75*
%TA.AperFunction,SMDPad,CuDef*%
%ADD54R,0.057500X0.021000*%
G04:AMPARAMS|DCode=63|XSize=81.953mil|YSize=24.866mil|CornerRadius=4.608mil|HoleSize=0mil|Usage=FLASHONLY|Rotation=0.000|XOffset=0mil|YOffset=0mil|HoleType=Round|Shape=RoundedRectangle|*
%AMROUNDEDRECTD63*
21,1,0.081953,0.015650,0,0,0.0*
21,1,0.072736,0.024866,0,0,0.0*
1,1,0.009216,0.036368,-0.007825*
1,1,0.009216,-0.036368,-0.007825*
1,1,0.009216,-0.036368,0.007825*
1,1,0.009216,0.036368,0.007825*
%
%ADD63ROUNDEDRECTD63*%
%ADD64R,0.039433X0.035496*%
%TA.AperFunction,ComponentPad*%
%ADD65C,0.039465*%
%ADD66R,0.039465X0.039465*%
%ADD67C,0.057937*%
%ADD68R,0.057937X0.057937*%
%ADD69R,0.057937X0.057937*%
%ADD70C,0.254000*%
G36*
X2554181Y3079677D02*
X2465504D01*
Y3203787D01*
X2554181D01*
Y3079677D01*
D02*
G37*
G36*
X1713630D02*
X1624953D01*
Y3203787D01*
X1713630D01*
Y3079677D01*
D02*
G37*
G36*
X3169339Y3079677D02*
X3080661D01*
Y3203787D01*
X3169339D01*
Y3079677D01*
D02*
G37*
G36*
X2722488D02*
X2633811D01*
Y3203787D01*
X2722488D01*
Y3079677D01*
D02*
G37*
G36*
X2428197Y2993063D02*
X2390701D01*
Y3062055D01*
X2428197D01*
Y2993063D01*
D02*
G37*
G36*
X2378984D02*
X2341488D01*
Y3062055D01*
X2378984D01*
Y2993063D01*
D02*
G37*
G36*
X2329772D02*
X2292276D01*
Y3062055D01*
X2329772D01*
Y2993063D01*
D02*
G37*
G36*
X2280559D02*
X2243063D01*
Y3062055D01*
X2280559D01*
Y2993063D01*
D02*
G37*
G36*
X2231346D02*
X2193850D01*
Y3062055D01*
X2231346D01*
Y2993063D01*
D02*
G37*
G36*
X2182134D02*
X2144638D01*
Y3062055D01*
X2182134D01*
Y2993063D01*
D02*
G37*
G36*
X2132921D02*
X2095425D01*
Y3062055D01*
X2132921D01*
Y2993063D01*
D02*
G37*
G36*
X2083709D02*
X2046213D01*
Y3062055D01*
X2083709D01*
Y2993063D01*
D02*
G37*
G36*
X2034496D02*
X1997000D01*
Y3062055D01*
X2034496D01*
Y2993063D01*
D02*
G37*
G36*
X1985283D02*
X1947787D01*
Y3062055D01*
X1985283D01*
Y2993063D01*
D02*
G37*
G36*
X1936071D02*
X1898575D01*
Y3062055D01*
X1936071D01*
Y2993063D01*
D02*
G37*
G36*
X1886858D02*
X1849362D01*
Y3062055D01*
X1886858D01*
Y2993063D01*
D02*
G37*
G36*
X1837646D02*
X1800150D01*
Y3062055D01*
X1837646D01*
Y2993063D01*
D02*
G37*
G36*
X1788433D02*
X1750937D01*
Y3062055D01*
X1788433D01*
Y2993063D01*
D02*
G37*
G36*
X3043354Y2993063D02*
X3005858D01*
Y3062055D01*
X3043354D01*
Y2993063D01*
D02*
G37*
G36*
X2994142D02*
X2956646D01*
Y3062055D01*
X2994142D01*
Y2993063D01*
D02*
G37*
G36*
X2944929D02*
X2907433D01*
Y3062055D01*
X2944929D01*
Y2993063D01*
D02*
G37*
G36*
X2895716D02*
X2858220D01*
Y3062055D01*
X2895716D01*
Y2993063D01*
D02*
G37*
G36*
X2846504D02*
X2809008D01*
Y3062055D01*
X2846504D01*
Y2993063D01*
D02*
G37*
G36*
X2797291D02*
X2759795D01*
Y3062055D01*
X2797291D01*
Y2993063D01*
D02*
G37*
G36*
X3428197Y1173181D02*
X3304087D01*
Y1261858D01*
X3428197D01*
Y1173181D01*
D02*
G37*
G36*
X3286465Y1098378D02*
X3217472D01*
Y1135874D01*
X3286465D01*
Y1098378D01*
D02*
G37*
G36*
Y1049165D02*
X3217472D01*
Y1086661D01*
X3286465D01*
Y1049165D01*
D02*
G37*
G36*
Y999953D02*
X3217472D01*
Y1037449D01*
X3286465D01*
Y999953D01*
D02*
G37*
G36*
Y950740D02*
X3217472D01*
Y988236D01*
X3286465D01*
Y950740D01*
D02*
G37*
G36*
Y901528D02*
X3217472D01*
Y939024D01*
X3286465D01*
Y901528D01*
D02*
G37*
G36*
Y852315D02*
X3217472D01*
Y889811D01*
X3286465D01*
Y852315D01*
D02*
G37*
G36*
Y803102D02*
X3217472D01*
Y840598D01*
X3286465D01*
Y803102D01*
D02*
G37*
G36*
Y753890D02*
X3217472D01*
Y791386D01*
X3286465D01*
Y753890D01*
D02*
G37*
G36*
X3428197Y627905D02*
X3304087D01*
Y716583D01*
X3428197D01*
Y627905D01*
D02*
G37*
D54*
X967553Y3086220D02*
D03*
Y3136220D02*
D03*
Y3186220D02*
D03*
Y3236220D02*
D03*
Y3286220D02*
D03*
Y3336220D02*
D03*
Y3386220D02*
D03*
X1182053D02*
D03*
Y3336220D02*
D03*
Y3286220D02*
D03*
Y3236220D02*
D03*
Y3186220D02*
D03*
Y3136220D02*
D03*
Y3086220D02*
D03*
D63*
X2242520Y2544488D02*
D03*
Y2594488D02*
D03*
Y2644488D02*
D03*
Y2694488D02*
D03*
Y2744488D02*
D03*
Y2794488D02*
D03*
Y2844488D02*
D03*
Y2894488D02*
D03*
X2436614D02*
D03*
Y2844488D02*
D03*
Y2794488D02*
D03*
Y2744488D02*
D03*
Y2694488D02*
D03*
Y2644488D02*
D03*
Y2594488D02*
D03*
Y2544488D02*
D03*
D64*
X1263780Y3295276D02*
D03*
Y3240157D02*
D03*
Y3185039D02*
D03*
Y3129921D02*
D03*
X1322835Y3240157D02*
D03*
Y3185039D02*
D03*
X2594488Y2897638D02*
D03*
Y2842520D02*
D03*
X2535433Y2952756D02*
D03*
Y2897638D02*
D03*
Y2842520D02*
D03*
Y2787402D02*
D03*
X2090551Y2543307D02*
D03*
Y2598425D02*
D03*
X2149606Y2488189D02*
D03*
Y2543307D02*
D03*
Y2598425D02*
D03*
Y2653543D02*
D03*
X2145669Y2791339D02*
D03*
Y2736220D02*
D03*
X2086614Y2846457D02*
D03*
Y2791339D02*
D03*
X2145669Y2901575D02*
D03*
Y2846457D02*
D03*
D65*
X807087Y3287402D02*
D03*
Y3238189D02*
D03*
Y3188976D02*
D03*
Y3139764D02*
D03*
Y3090551D02*
D03*
Y3041339D02*
D03*
Y2992126D02*
D03*
Y2942913D02*
D03*
Y2893701D02*
D03*
X1425197Y3289370D02*
D03*
Y3240157D02*
D03*
Y3190945D02*
D03*
Y3141732D02*
D03*
Y3092520D02*
D03*
Y3043307D02*
D03*
Y2994095D02*
D03*
Y2944882D02*
D03*
Y2895669D02*
D03*
D66*
X807087Y2844488D02*
D03*
X1425197Y2846457D02*
D03*
D67*
X2665354Y59055D02*
D03*
X2765354D02*
D03*
X2865354D02*
D03*
X2965354D02*
D03*
X3065354D02*
D03*
X1988189D02*
D03*
X2088189D02*
D03*
X2188189D02*
D03*
X2288189D02*
D03*
X2388189D02*
D03*
X400000Y2550000D02*
D03*
Y2450000D02*
D03*
Y2250000D02*
D03*
Y2350000D02*
D03*
Y2050000D02*
D03*
Y1950000D02*
D03*
Y1850000D02*
D03*
Y1650000D02*
D03*
Y1750000D02*
D03*
Y1450000D02*
D03*
Y1250000D02*
D03*
Y1550000D02*
D03*
Y1350000D02*
D03*
Y2150000D02*
D03*
Y2650000D02*
D03*
X500000Y1050000D02*
D03*
Y1350000D02*
D03*
Y1250000D02*
D03*
Y1150000D02*
D03*
Y1450000D02*
D03*
Y1650000D02*
D03*
Y650000D02*
D03*
Y850000D02*
D03*
Y950000D02*
D03*
Y750000D02*
D03*
Y1550000D02*
D03*
X400000Y3050000D02*
D03*
Y2750000D02*
D03*
Y2950000D02*
D03*
X500000Y2850000D02*
D03*
Y2950000D02*
D03*
X400000Y2850000D02*
D03*
X500000Y3050000D02*
D03*
Y2750000D02*
D03*
Y2550000D02*
D03*
Y2450000D02*
D03*
Y2350000D02*
D03*
Y2250000D02*
D03*
Y2150000D02*
D03*
Y2050000D02*
D03*
Y1850000D02*
D03*
Y1750000D02*
D03*
Y2650000D02*
D03*
Y1950000D02*
D03*
X400000Y950000D02*
D03*
Y1050000D02*
D03*
Y750000D02*
D03*
Y1150000D02*
D03*
Y550000D02*
D03*
Y850000D02*
D03*
Y650000D02*
D03*
X200000Y2550000D02*
D03*
Y2450000D02*
D03*
Y2250000D02*
D03*
Y2350000D02*
D03*
Y2050000D02*
D03*
Y1950000D02*
D03*
Y1850000D02*
D03*
Y1650000D02*
D03*
Y1750000D02*
D03*
Y1450000D02*
D03*
Y1250000D02*
D03*
Y1550000D02*
D03*
Y1350000D02*
D03*
Y2150000D02*
D03*
Y2650000D02*
D03*
X300000Y1050000D02*
D03*
Y1350000D02*
D03*
Y1250000D02*
D03*
Y1150000D02*
D03*
Y1450000D02*
D03*
Y1650000D02*
D03*
Y650000D02*
D03*
Y850000D02*
D03*
Y950000D02*
D03*
Y750000D02*
D03*
Y1550000D02*
D03*
X200000Y3050000D02*
D03*
Y2750000D02*
D03*
Y2950000D02*
D03*
X300000Y2850000D02*
D03*
Y2950000D02*
D03*
X200000Y2850000D02*
D03*
X300000Y3050000D02*
D03*
Y2750000D02*
D03*
Y2550000D02*
D03*
Y2450000D02*
D03*
Y2350000D02*
D03*
Y2250000D02*
D03*
Y2150000D02*
D03*
Y2050000D02*
D03*
Y1850000D02*
D03*
Y1750000D02*
D03*
Y2650000D02*
D03*
Y1950000D02*
D03*
X200000Y950000D02*
D03*
Y1050000D02*
D03*
Y750000D02*
D03*
Y1150000D02*
D03*
Y550000D02*
D03*
Y850000D02*
D03*
Y650000D02*
D03*
D68*
X3165354Y59055D02*
D03*
X2488189D02*
D03*
D69*
X500000Y550000D02*
D03*
X300000D02*
D03*
D70*
X3575591Y3347244D02*
D03*
Y200000D02*
D03*
X200000Y350000D02*
D03*
Y3247244D02*
D03*
%TF.MD5,385b9c49686db9556dacb71d39b6dc0f*%
M02*
