%TF.GenerationSoftware,Altium Limited,Altium Designer,21.6.4 (81)*%
G04 Layer_Physical_Order=3*
G04 Layer_Color=128*
%FSLAX26Y26*%
%MOIN*%
%TF.SameCoordinates,8BEB2CB1-843D-409B-AEA6-C59BAE6679C3*%
%TF.FilePolarity,Negative*%
%TF.FileFunction,Copper,L3,Inr,Plane*%
%TF.Part,Single*%
G01*
G75*
%TA.AperFunction,NonConductor*%
%ADD44C,0.040000*%
%TA.AperFunction,ComponentPad*%
%ADD45C,0.059685*%
G04:AMPARAMS|DCode=46|XSize=79.685mil|YSize=79.685mil|CornerRadius=0mil|HoleSize=0mil|Usage=FLASHONLY|Rotation=0.000|XOffset=0mil|YOffset=0mil|HoleType=Round|Shape=Relief|Width=10mil|Gap=10mil|Entries=4|*
%AMTHD46*
7,0,0,0.079685,0.059685,0.010000,45*
%
%ADD46THD46*%
%ADD47C,0.080157*%
G04:AMPARAMS|DCode=48|XSize=100.157mil|YSize=100.157mil|CornerRadius=0mil|HoleSize=0mil|Usage=FLASHONLY|Rotation=0.000|XOffset=0mil|YOffset=0mil|HoleType=Round|Shape=Relief|Width=10mil|Gap=10mil|Entries=4|*
%AMTHD48*
7,0,0,0.100157,0.080157,0.010000,45*
%
%ADD48THD48*%
%ADD49C,0.165197*%
%TA.AperFunction,ViaPad*%
%ADD50C,0.049843*%
D44*
X1594488Y3223425D02*
X3198819D01*
X1594488D02*
Y3547244D01*
X0D02*
X1594488D01*
X0Y0D02*
X3775591D01*
Y590551D01*
X3449430D02*
X3775591D01*
X3449430D02*
Y1281212D01*
X3775590D01*
X3775591Y3550000D01*
X3198819Y3550000D02*
X3775591Y3550000D01*
X3198819Y3223425D02*
Y3550000D01*
X0Y0D02*
Y3547244D01*
D45*
X807087Y3287402D02*
D03*
Y3188976D02*
D03*
Y3139764D02*
D03*
Y3090551D02*
D03*
Y2992126D02*
D03*
Y2893701D02*
D03*
Y2844488D02*
D03*
X1425197Y3289370D02*
D03*
Y3240157D02*
D03*
Y3190945D02*
D03*
Y3141732D02*
D03*
Y3092520D02*
D03*
Y2994095D02*
D03*
Y2895669D02*
D03*
Y2846457D02*
D03*
D46*
X807087Y3238189D02*
D03*
Y3041339D02*
D03*
Y2942913D02*
D03*
X1425197Y3043307D02*
D03*
Y2944882D02*
D03*
D47*
X2665354Y59055D02*
D03*
X2765354D02*
D03*
X2865354D02*
D03*
X3065354D02*
D03*
X3165354D02*
D03*
X1988189D02*
D03*
X2188189D02*
D03*
X2288189D02*
D03*
X2488189D02*
D03*
X400000Y2550000D02*
D03*
Y2450000D02*
D03*
Y2250000D02*
D03*
Y2350000D02*
D03*
Y2050000D02*
D03*
Y1950000D02*
D03*
Y1850000D02*
D03*
Y1650000D02*
D03*
Y1750000D02*
D03*
Y1450000D02*
D03*
Y1250000D02*
D03*
Y1550000D02*
D03*
Y1350000D02*
D03*
Y2150000D02*
D03*
Y2650000D02*
D03*
X500000Y1050000D02*
D03*
Y1350000D02*
D03*
Y1250000D02*
D03*
Y1150000D02*
D03*
Y1450000D02*
D03*
Y1650000D02*
D03*
Y550000D02*
D03*
Y650000D02*
D03*
Y850000D02*
D03*
Y950000D02*
D03*
Y750000D02*
D03*
Y1550000D02*
D03*
X400000Y3050000D02*
D03*
Y2750000D02*
D03*
Y2950000D02*
D03*
X500000Y2850000D02*
D03*
Y2950000D02*
D03*
X400000Y2850000D02*
D03*
X500000Y3050000D02*
D03*
Y2750000D02*
D03*
Y2550000D02*
D03*
Y2450000D02*
D03*
Y2350000D02*
D03*
Y2250000D02*
D03*
Y2150000D02*
D03*
Y2050000D02*
D03*
Y1850000D02*
D03*
Y1750000D02*
D03*
Y2650000D02*
D03*
Y1950000D02*
D03*
X400000Y950000D02*
D03*
Y1050000D02*
D03*
Y750000D02*
D03*
Y1150000D02*
D03*
Y550000D02*
D03*
Y850000D02*
D03*
Y650000D02*
D03*
X200000Y2550000D02*
D03*
Y2450000D02*
D03*
Y2250000D02*
D03*
Y2350000D02*
D03*
Y1850000D02*
D03*
Y1650000D02*
D03*
Y1750000D02*
D03*
Y1450000D02*
D03*
Y1250000D02*
D03*
Y1550000D02*
D03*
Y1350000D02*
D03*
Y2150000D02*
D03*
Y2650000D02*
D03*
X300000Y1050000D02*
D03*
Y1350000D02*
D03*
Y1250000D02*
D03*
Y1150000D02*
D03*
Y1450000D02*
D03*
Y1650000D02*
D03*
Y550000D02*
D03*
Y650000D02*
D03*
Y850000D02*
D03*
Y950000D02*
D03*
Y750000D02*
D03*
Y1550000D02*
D03*
X200000Y3050000D02*
D03*
Y2750000D02*
D03*
Y2950000D02*
D03*
X300000Y2850000D02*
D03*
Y2950000D02*
D03*
X200000Y2850000D02*
D03*
X300000Y3050000D02*
D03*
Y2750000D02*
D03*
Y2550000D02*
D03*
Y2450000D02*
D03*
Y2350000D02*
D03*
Y2250000D02*
D03*
Y2150000D02*
D03*
Y1850000D02*
D03*
Y1750000D02*
D03*
Y2650000D02*
D03*
X200000Y950000D02*
D03*
Y1050000D02*
D03*
Y750000D02*
D03*
Y1150000D02*
D03*
Y550000D02*
D03*
Y850000D02*
D03*
Y650000D02*
D03*
D48*
X2965354Y59055D02*
D03*
X2088189D02*
D03*
X2388189D02*
D03*
X200000Y2050000D02*
D03*
Y1950000D02*
D03*
X300000Y2050000D02*
D03*
Y1950000D02*
D03*
D49*
X3575591Y3347244D02*
D03*
Y200000D02*
D03*
X200000Y350000D02*
D03*
Y3247244D02*
D03*
D50*
X2031496Y2420602D02*
D03*
X1919434Y2298898D02*
D03*
X2920000Y1444000D02*
D03*
X3152000Y1124000D02*
D03*
X3176843Y1188976D02*
D03*
X2043307Y1818898D02*
D03*
X2807087Y1766220D02*
D03*
X3249252Y1496063D02*
D03*
X660000Y2095000D02*
D03*
X777224Y1318702D02*
D03*
X2489010Y2259010D02*
D03*
X2510000Y2280000D02*
D03*
X3020630Y1275591D02*
D03*
X3099843Y1358268D02*
D03*
X3045472Y1350394D02*
D03*
X3031496Y2000000D02*
D03*
X875000Y565000D02*
D03*
X975000Y410158D02*
D03*
X900000Y460000D02*
D03*
X930000Y435000D02*
D03*
X1480000Y409632D02*
D03*
X1440000Y435000D02*
D03*
X1410000Y461024D02*
D03*
X1570000Y465000D02*
D03*
X1565000Y405000D02*
D03*
X2565315Y1816457D02*
D03*
X3039370Y1811024D02*
D03*
X2153543Y417323D02*
D03*
X2322835D02*
D03*
X1059055Y2570866D02*
D03*
X1083461Y2274333D02*
D03*
X1114173Y2578740D02*
D03*
X3244095Y2543307D02*
D03*
X3285000Y2475000D02*
D03*
X3320000Y2420000D02*
D03*
X2590157Y1326772D02*
D03*
X2585000Y895000D02*
D03*
X3120000Y1010000D02*
D03*
X3090000Y970000D02*
D03*
X1135000Y2230000D02*
D03*
X2675000Y2435000D02*
D03*
X610000Y2930000D02*
D03*
X2165000Y1750000D02*
D03*
X1747621Y1685000D02*
D03*
X2931804Y1330709D02*
D03*
X1493150Y212087D02*
D03*
X2007874Y712598D02*
D03*
X2229484Y1903363D02*
D03*
X2402544Y1785737D02*
D03*
X2440945Y1779528D02*
D03*
X2930000Y1245000D02*
D03*
X1670000Y1110000D02*
D03*
X1840000Y1070000D02*
D03*
X1062133Y3132999D02*
D03*
X1015000Y3235000D02*
D03*
X1010000Y3285000D02*
D03*
X1069437Y2982273D02*
D03*
X1043018Y2968737D02*
D03*
X984252Y3027559D02*
D03*
X2740000Y3025000D02*
D03*
X1985000Y2205000D02*
D03*
X2435000Y2230000D02*
D03*
X2235000Y2315000D02*
D03*
X2610000Y1925000D02*
D03*
X2735000Y1950000D02*
D03*
X3580000Y1525000D02*
D03*
X995000Y2080000D02*
D03*
X871412Y1652766D02*
D03*
X890000Y1170000D02*
D03*
X1185000Y1095000D02*
D03*
X1270000Y1070000D02*
D03*
X1285000Y2060000D02*
D03*
X1468686Y2071527D02*
D03*
X870873Y1451791D02*
D03*
X714842Y2449291D02*
D03*
X675000Y1410000D02*
D03*
X1625000Y2425000D02*
D03*
X2150000Y2685000D02*
D03*
X2019279Y2348689D02*
D03*
X2370079Y2436543D02*
D03*
X2299213D02*
D03*
X1685039Y2377953D02*
D03*
X1193070Y2274843D02*
D03*
X2062992Y1212598D02*
D03*
X2884606Y1933071D02*
D03*
X2826772Y2968504D02*
D03*
X2799213Y1898858D02*
D03*
X2988189Y1874016D02*
D03*
X2933071Y1842520D02*
D03*
X3224409Y1397638D02*
D03*
X3196850Y1358268D02*
D03*
X2992126Y1960630D02*
D03*
X2791339Y1842520D02*
D03*
X3338583Y2354331D02*
D03*
X3333922Y2177523D02*
D03*
X3334646Y2240157D02*
D03*
X3246213Y2592670D02*
D03*
X2039767Y1095495D02*
D03*
X2043307Y1153543D02*
D03*
X2047244Y1933071D02*
D03*
X1235828Y1894921D02*
D03*
X1204724Y1870079D02*
D03*
X3314449Y2717067D02*
D03*
X661417Y2496063D02*
D03*
X2015748Y1385827D02*
D03*
X1858268Y1279528D02*
D03*
X3082677Y1397638D02*
D03*
X3327992Y1606299D02*
D03*
X3389764Y1555118D02*
D03*
X1122047Y1574803D02*
D03*
X1153543Y1610236D02*
D03*
X1043307Y1696850D02*
D03*
X1068150Y1649606D02*
D03*
X1011811Y1460630D02*
D03*
X1858268Y1539370D02*
D03*
X1976378Y1472441D02*
D03*
X1444882Y874016D02*
D03*
X1401575Y917323D02*
D03*
X1539370Y866142D02*
D03*
X2224409Y1307087D02*
D03*
X1866142Y1337362D02*
D03*
X1011811Y1362205D02*
D03*
X795276Y669291D02*
D03*
X1062992Y1059055D02*
D03*
X797550Y795129D02*
D03*
X1007874Y1055118D02*
D03*
X787402Y921260D02*
D03*
X1003937Y1102362D02*
D03*
X2488189Y2385827D02*
D03*
X2535209Y2024994D02*
D03*
X2354331Y2066929D02*
D03*
X1802165Y1977362D02*
D03*
X1649606Y1944882D02*
D03*
X2539370Y2157480D02*
D03*
X1643790Y2052323D02*
D03*
X1619900Y2069942D02*
D03*
X1610236Y2098425D02*
D03*
X1700787Y2527559D02*
D03*
X1389764Y2578740D02*
D03*
X1417323Y2543307D02*
D03*
X692913Y1562992D02*
D03*
X896332Y1548550D02*
D03*
X659440Y1589944D02*
D03*
X909449Y1586614D02*
D03*
X724409Y1299213D02*
D03*
X1204724Y1291339D02*
D03*
X1236220Y1318898D02*
D03*
X763779Y2811024D02*
D03*
X1358268Y2838583D02*
D03*
X1334646Y2799213D02*
D03*
X2630832Y1897947D02*
D03*
X2173228Y1633858D02*
D03*
X2724409Y1688976D02*
D03*
X1851378Y1735236D02*
D03*
X1748032Y1649606D02*
D03*
X2461424Y2117392D02*
D03*
X2129921Y2118110D02*
D03*
X2043307Y1870079D02*
D03*
X1803150Y507874D02*
D03*
X2492126Y468504D02*
D03*
X2665354Y777511D02*
D03*
X1387559Y656181D02*
D03*
X2102362Y354331D02*
D03*
X2917323Y1716535D02*
D03*
X1858268Y771654D02*
D03*
X2283465D02*
D03*
Y1696850D02*
D03*
X2669291Y1866142D02*
D03*
X2513895Y1328625D02*
D03*
X2492126Y897638D02*
D03*
X2606299Y468504D02*
D03*
X3192913Y822835D02*
D03*
X984252Y2807087D02*
D03*
X2507874Y2547244D02*
D03*
X2188976Y2692913D02*
D03*
X2311024Y2641732D02*
D03*
X2496063Y2791339D02*
D03*
X2539370Y2590551D02*
D03*
X2314961Y2740157D02*
D03*
X2578740Y2783465D02*
D03*
X2531496Y2641732D02*
D03*
X1307087Y3129921D02*
D03*
X1248032Y3086614D02*
D03*
X1173228Y2980315D02*
D03*
X606299Y3192913D02*
D03*
X652990Y3091008D02*
D03*
X653543Y3035433D02*
D03*
X610236Y2751968D02*
D03*
Y2448819D02*
D03*
X2015748Y3082677D02*
D03*
X2877953Y1681102D02*
D03*
Y1000000D02*
D03*
X2929134Y921260D02*
D03*
X2925197Y799213D02*
D03*
X2933071Y598425D02*
D03*
X2877953Y421260D02*
D03*
X2051181Y716535D02*
D03*
X1751968D02*
D03*
X820000Y312244D02*
D03*
X2500000Y2746063D02*
D03*
X1700787Y2862205D02*
D03*
X1968504Y2746063D02*
D03*
Y2775591D02*
D03*
Y2805118D02*
D03*
Y2834646D02*
D03*
X1702756Y2746063D02*
D03*
Y2775591D02*
D03*
Y2805118D02*
D03*
Y2834646D02*
D03*
X1968504Y2862205D02*
D03*
X1011811Y3362205D02*
D03*
%TF.MD5,48810f2bbfbe4c06cae2653cd43cb957*%
M02*
