G04*
G04 #@! TF.GenerationSoftware,Altium Limited,Altium Designer,21.8.1 (53)*
G04*
G04 Layer_Color=32768*
%FSLAX44Y44*%
%MOMM*%
G71*
G04*
G04 #@! TF.SameCoordinates,50A5A8F4-FCC5-4A63-BB33-6A8E803C0949*
G04*
G04*
G04 #@! TF.FilePolarity,Positive*
G04*
G01*
G75*
%ADD14C,0.1000*%
%ADD15C,0.2540*%
%ADD91C,0.0500*%
D14*
X386540Y58170D02*
Y73170D01*
X358540D02*
X386540D01*
X372540Y60920D02*
Y70420D01*
X367790Y65670D02*
X377290D01*
X358540Y58170D02*
X386540D01*
X358540D02*
Y73170D01*
X330540Y58170D02*
Y73170D01*
Y58170D02*
X358540D01*
X344540Y60920D02*
Y70420D01*
X339790Y65670D02*
X349290D01*
X330540Y73170D02*
X358540D01*
Y58170D02*
Y73170D01*
X14090Y677500D02*
X29090D01*
Y705500D01*
X16840Y691500D02*
X26340D01*
X21590Y686750D02*
Y696250D01*
X14090Y677500D02*
Y705500D01*
X29090D01*
X167340Y514420D02*
Y519920D01*
X164590Y517170D02*
X170090D01*
X401500Y252000D02*
X416500D01*
X401500Y224000D02*
Y252000D01*
X409000Y233250D02*
Y242750D01*
X404250Y238000D02*
X413750D01*
X416500Y224000D02*
Y252000D01*
X401500Y224000D02*
X416500D01*
X375500Y519000D02*
X390500D01*
Y547000D01*
X383000Y528250D02*
Y537750D01*
X378250Y533000D02*
X387750D01*
X375500Y519000D02*
Y547000D01*
X390500D01*
X229280Y59810D02*
Y74810D01*
X201280D02*
X229280D01*
X210530Y67310D02*
X220030D01*
X215280Y62560D02*
Y72060D01*
X201280Y59810D02*
X229280D01*
X201280D02*
Y74810D01*
X229280Y59810D02*
Y74810D01*
Y59810D02*
X257280D01*
X238530Y67310D02*
X248030D01*
X243280Y62560D02*
Y72060D01*
X229280Y74810D02*
X257280D01*
Y59810D02*
Y74810D01*
X260380Y147440D02*
Y162440D01*
X232380D02*
X260380D01*
X241630Y154940D02*
X251130D01*
X246380Y150190D02*
Y159690D01*
X232380Y147440D02*
X260380D01*
X232380D02*
Y162440D01*
X331440Y146170D02*
Y161170D01*
Y146170D02*
X359440D01*
X340690Y153670D02*
X350190D01*
X345440Y148920D02*
Y158420D01*
X331440Y161170D02*
X359440D01*
Y146170D02*
Y161170D01*
X582000Y469663D02*
Y484663D01*
X554000D02*
X582000D01*
X563250Y477163D02*
X572750D01*
X568000Y472413D02*
Y481913D01*
X554000Y469663D02*
X582000D01*
X554000D02*
Y484663D01*
X582000Y485327D02*
Y500327D01*
X554000D02*
X582000D01*
X563250Y492827D02*
X572750D01*
X568000Y488077D02*
Y497577D01*
X554000Y485327D02*
X582000D01*
X554000D02*
Y500327D01*
X477000Y174500D02*
Y189500D01*
Y174500D02*
X505000D01*
X486250Y182000D02*
X495750D01*
X491000Y177250D02*
Y186750D01*
X477000Y189500D02*
X505000D01*
Y174500D02*
Y189500D01*
X477000Y174500D02*
Y189500D01*
X449000D02*
X477000D01*
X458250Y182000D02*
X467750D01*
X463000Y177250D02*
Y186750D01*
X449000Y174500D02*
X477000D01*
X449000D02*
Y189500D01*
X553000Y174500D02*
Y189500D01*
X525000D02*
X553000D01*
X534250Y182000D02*
X543750D01*
X539000Y177250D02*
Y186750D01*
X525000Y174500D02*
X553000D01*
X525000D02*
Y189500D01*
X807000Y201500D02*
Y216500D01*
X779000D02*
X807000D01*
X788250Y209000D02*
X797750D01*
X793000Y204250D02*
Y213750D01*
X779000Y201500D02*
X807000D01*
X779000D02*
Y216500D01*
X159000Y752500D02*
Y767500D01*
Y752500D02*
X187000D01*
X173000Y755250D02*
Y764750D01*
X168250Y760000D02*
X177750D01*
X159000Y767500D02*
X187000D01*
Y752500D02*
Y767500D01*
X159000Y803500D02*
Y818500D01*
Y803500D02*
X187000D01*
X173000Y806250D02*
Y815750D01*
X168250Y811000D02*
X177750D01*
X159000Y818500D02*
X187000D01*
Y803500D02*
Y818500D01*
X481000Y300500D02*
Y315500D01*
Y300500D02*
X509000D01*
X490250Y308000D02*
X499750D01*
X495000Y303250D02*
Y312750D01*
X481000Y315500D02*
X509000D01*
Y300500D02*
Y315500D01*
X481000Y285500D02*
Y300500D01*
Y285500D02*
X509000D01*
X490250Y293000D02*
X499750D01*
X495000Y288250D02*
Y297750D01*
X481000Y300500D02*
X509000D01*
Y285500D02*
Y300500D01*
X481000Y270500D02*
Y285500D01*
Y270500D02*
X509000D01*
X490250Y278000D02*
X499750D01*
X495000Y273250D02*
Y282750D01*
X481000Y285500D02*
X509000D01*
Y270500D02*
Y285500D01*
X416500Y279000D02*
X431500D01*
X416500Y251000D02*
Y279000D01*
X424000Y260250D02*
Y269750D01*
X419250Y265000D02*
X428750D01*
X431500Y251000D02*
Y279000D01*
X416500Y251000D02*
X431500D01*
X371500Y211250D02*
Y216750D01*
X368750Y214000D02*
X374250D01*
X345250Y255000D02*
X350750D01*
X348000Y252250D02*
Y257750D01*
X349500Y204000D02*
Y283000D01*
X406500D01*
Y204000D02*
Y283000D01*
X349500Y204000D02*
X406500D01*
X723500Y395000D02*
X738500D01*
X723500Y367000D02*
Y395000D01*
X731000Y376250D02*
Y385750D01*
X726250Y381000D02*
X735750D01*
X738500Y367000D02*
Y395000D01*
X723500Y367000D02*
X738500D01*
X723500Y395000D02*
X738500D01*
Y423000D01*
X731000Y404250D02*
Y413750D01*
X726250Y409000D02*
X735750D01*
X723500Y395000D02*
Y423000D01*
X738500D01*
X617390Y504612D02*
X632390D01*
Y532612D01*
X624890Y513862D02*
Y523362D01*
X620140Y518612D02*
X629640D01*
X617390Y504612D02*
Y532612D01*
X632390D01*
X650000Y495500D02*
Y510500D01*
Y495500D02*
X678000D01*
X659250Y503000D02*
X668750D01*
X664000Y498250D02*
Y507750D01*
X650000Y510500D02*
X678000D01*
Y495500D02*
Y510500D01*
X582000Y454000D02*
Y469000D01*
X554000D02*
X582000D01*
X563250Y461500D02*
X572750D01*
X568000Y456750D02*
Y466250D01*
X554000Y454000D02*
X582000D01*
X554000D02*
Y469000D01*
X582000Y438337D02*
Y453337D01*
X554000D02*
X582000D01*
X563250Y445837D02*
X572750D01*
X568000Y441087D02*
Y450587D01*
X554000Y438337D02*
X582000D01*
X554000D02*
Y453337D01*
X602150Y504612D02*
X617150D01*
Y532612D01*
X609650Y513862D02*
Y523362D01*
X604900Y518612D02*
X614400D01*
X602150Y504612D02*
Y532612D01*
X617150D01*
X264000Y779500D02*
Y794500D01*
X236000D02*
X264000D01*
X245250Y787000D02*
X254750D01*
X250000Y782250D02*
Y791750D01*
X236000Y779500D02*
X264000D01*
X236000D02*
Y794500D01*
Y794500D02*
Y809500D01*
Y794500D02*
X264000D01*
X245250Y802000D02*
X254750D01*
X250000Y797250D02*
Y806750D01*
X236000Y809500D02*
X264000D01*
Y794500D02*
Y809500D01*
X233500Y746000D02*
X248500D01*
X233500Y718000D02*
Y746000D01*
X241000Y727250D02*
Y736750D01*
X236250Y732000D02*
X245750D01*
X248500Y718000D02*
Y746000D01*
X233500Y718000D02*
X248500D01*
X313500Y816000D02*
X328500D01*
X313500D02*
Y844000D01*
X321000Y825250D02*
Y834750D01*
X316250Y830000D02*
X325750D01*
X328500Y816000D02*
Y844000D01*
X313500D02*
X328500D01*
X313500Y788000D02*
X328500D01*
X313500D02*
Y816000D01*
X321000Y797250D02*
Y806750D01*
X316250Y802000D02*
X325750D01*
X328500Y788000D02*
Y816000D01*
X313500D02*
X328500D01*
X328500Y802000D02*
X343500D01*
X328500D02*
Y830000D01*
X336000Y811250D02*
Y820750D01*
X331250Y816000D02*
X340750D01*
X343500Y802000D02*
Y830000D01*
X328500D02*
X343500D01*
X651500Y715000D02*
X666500D01*
X651500D02*
Y743000D01*
X659000Y724250D02*
Y733750D01*
X654250Y729000D02*
X663750D01*
X666500Y715000D02*
Y743000D01*
X651500D02*
X666500D01*
X636500Y729000D02*
X651500D01*
X636500D02*
Y757000D01*
X644000Y738250D02*
Y747750D01*
X639250Y743000D02*
X648750D01*
X651500Y729000D02*
Y757000D01*
X636500D02*
X651500D01*
X636500Y701000D02*
X651500D01*
X636500D02*
Y729000D01*
X644000Y710250D02*
Y719750D01*
X639250Y715000D02*
X648750D01*
X651500Y701000D02*
Y729000D01*
X636500D02*
X651500D01*
X523500Y667000D02*
X538500D01*
Y639000D02*
Y667000D01*
X531000Y648250D02*
Y657750D01*
X526250Y653000D02*
X535750D01*
X523500Y639000D02*
Y667000D01*
Y639000D02*
X538500D01*
X538500Y653000D02*
X553500D01*
Y625000D02*
Y653000D01*
X546000Y634250D02*
Y643750D01*
X541250Y639000D02*
X550750D01*
X538500Y625000D02*
Y653000D01*
Y625000D02*
X553500D01*
X538500Y681000D02*
X553500D01*
Y653000D02*
Y681000D01*
X546000Y662250D02*
Y671750D01*
X541250Y667000D02*
X550750D01*
X538500Y653000D02*
Y681000D01*
Y653000D02*
X553500D01*
X537500Y688000D02*
X552500D01*
X537500D02*
Y716000D01*
X545000Y697250D02*
Y706750D01*
X540250Y702000D02*
X549750D01*
X552500Y688000D02*
Y716000D01*
X537500D02*
X552500D01*
X522500Y702000D02*
X537500D01*
X522500D02*
Y730000D01*
X530000Y711250D02*
Y720750D01*
X525250Y716000D02*
X534750D01*
X537500Y702000D02*
Y730000D01*
X522500D02*
X537500D01*
X537500Y716000D02*
X552500D01*
X537500D02*
Y744000D01*
X545000Y725250D02*
Y734750D01*
X540250Y730000D02*
X549750D01*
X552500Y716000D02*
Y744000D01*
X537500D02*
X552500D01*
X546750Y609250D02*
Y624250D01*
X518750D02*
X546750D01*
X528000Y616750D02*
X537500D01*
X532750Y612000D02*
Y621500D01*
X518750Y609250D02*
X546750D01*
X518750D02*
Y624250D01*
X394750Y639000D02*
X409750D01*
X394750Y611000D02*
Y639000D01*
X402250Y620250D02*
Y629750D01*
X397500Y625000D02*
X407000D01*
X409750Y611000D02*
Y639000D01*
X394750Y611000D02*
X409750D01*
X533750Y581250D02*
X548750D01*
Y609250D01*
X541250Y590500D02*
Y600000D01*
X536500Y595250D02*
X546000D01*
X533750Y581250D02*
Y609250D01*
X548750D01*
X489000Y566500D02*
Y581500D01*
X461000D02*
X489000D01*
X470250Y574000D02*
X479750D01*
X475000Y569250D02*
Y578750D01*
X461000Y566500D02*
X489000D01*
X461000D02*
Y581500D01*
X489000Y581500D02*
X504000D01*
X489000Y553500D02*
Y581500D01*
X496500Y562750D02*
Y572250D01*
X491750Y567500D02*
X501250D01*
X504000Y553500D02*
Y581500D01*
X489000Y553500D02*
X504000D01*
X548750Y581250D02*
X563750D01*
Y609250D01*
X556250Y590500D02*
Y600000D01*
X551500Y595250D02*
X561000D01*
X548750Y581250D02*
Y609250D01*
X563750D01*
X504000Y581500D02*
X519000D01*
X504000Y553500D02*
Y581500D01*
X511500Y562750D02*
Y572250D01*
X506750Y567500D02*
X516250D01*
X519000Y553500D02*
Y581500D01*
X504000Y553500D02*
X519000D01*
X518750Y581250D02*
X533750D01*
Y609250D01*
X526250Y590500D02*
Y600000D01*
X521500Y595250D02*
X531000D01*
X518750Y581250D02*
Y609250D01*
X533750D01*
X723500Y317000D02*
X738500D01*
Y345000D01*
X731000Y326250D02*
Y335750D01*
X726250Y331000D02*
X735750D01*
X723500Y317000D02*
Y345000D01*
X738500D01*
X723500Y140000D02*
X738500D01*
X723500Y112000D02*
Y140000D01*
X731000Y121250D02*
Y130750D01*
X726250Y126000D02*
X735750D01*
X738500Y112000D02*
Y140000D01*
X723500Y112000D02*
X738500D01*
X723500Y176000D02*
X738500D01*
Y204000D01*
X731000Y185250D02*
Y194750D01*
X726250Y190000D02*
X735750D01*
X723500Y176000D02*
Y204000D01*
X738500D01*
X723500Y176000D02*
X738500D01*
X723500Y148000D02*
Y176000D01*
X731000Y157250D02*
Y166750D01*
X726250Y162000D02*
X735750D01*
X738500Y148000D02*
Y176000D01*
X723500Y148000D02*
X738500D01*
X723500Y286000D02*
X738500D01*
X723500Y258000D02*
Y286000D01*
X731000Y267250D02*
Y276750D01*
X726250Y272000D02*
X735750D01*
X738500Y258000D02*
Y286000D01*
X723500Y258000D02*
X738500D01*
X723500Y207000D02*
X738500D01*
Y235000D01*
X731000Y216250D02*
Y225750D01*
X726250Y221000D02*
X735750D01*
X723500Y207000D02*
Y235000D01*
X738500D01*
X723500Y286000D02*
X738500D01*
Y314000D01*
X731000Y295250D02*
Y304750D01*
X726250Y300000D02*
X735750D01*
X723500Y286000D02*
Y314000D01*
X738500D01*
X263500Y861000D02*
X278500D01*
X263500Y833000D02*
Y861000D01*
X271000Y842250D02*
Y851750D01*
X266250Y847000D02*
X275750D01*
X278500Y833000D02*
Y861000D01*
X263500Y833000D02*
X278500D01*
X260490Y687000D02*
X275490D01*
X260490Y659000D02*
Y687000D01*
X267990Y668250D02*
Y677750D01*
X263240Y673000D02*
X272740D01*
X275490Y659000D02*
Y687000D01*
X260490Y659000D02*
X275490D01*
X275500Y687000D02*
X290500D01*
X275500Y659000D02*
Y687000D01*
X283000Y668250D02*
Y677750D01*
X278250Y673000D02*
X287750D01*
X290500Y659000D02*
Y687000D01*
X275500Y659000D02*
X290500D01*
X255950Y521940D02*
X270950D01*
Y549940D01*
X263450Y531190D02*
Y540690D01*
X258700Y535940D02*
X268200D01*
X255950Y521940D02*
Y549940D01*
X270950D01*
X338000Y764500D02*
Y779500D01*
X310000D02*
X338000D01*
X319250Y772000D02*
X328750D01*
X324000Y767250D02*
Y776750D01*
X310000Y764500D02*
X338000D01*
X310000D02*
Y779500D01*
X851200Y606800D02*
Y621800D01*
Y606800D02*
X879200D01*
X865200Y609550D02*
Y619050D01*
X860450Y614300D02*
X869950D01*
X851200Y621800D02*
X879200D01*
Y606800D02*
Y621800D01*
X851200Y622040D02*
Y637040D01*
Y622040D02*
X879200D01*
X865200Y624790D02*
Y634290D01*
X860450Y629540D02*
X869950D01*
X851200Y637040D02*
X879200D01*
Y622040D02*
Y637040D01*
X851200Y637280D02*
Y652280D01*
Y637280D02*
X879200D01*
X865200Y640030D02*
Y649530D01*
X860450Y644780D02*
X869950D01*
X851200Y652280D02*
X879200D01*
Y637280D02*
Y652280D01*
X851200Y652520D02*
Y667520D01*
Y652520D02*
X879200D01*
X865200Y655270D02*
Y664770D01*
X860450Y660020D02*
X869950D01*
X851200Y667520D02*
X879200D01*
Y652520D02*
Y667520D01*
Y667760D02*
Y682760D01*
X851200D02*
X879200D01*
X865200Y670510D02*
Y680010D01*
X860450Y675260D02*
X869950D01*
X851200Y667760D02*
X879200D01*
X851200D02*
Y682760D01*
X879200Y683000D02*
Y698000D01*
X851200D02*
X879200D01*
X865200Y685750D02*
Y695250D01*
X860450Y690500D02*
X869950D01*
X851200Y683000D02*
X879200D01*
X851200D02*
Y698000D01*
Y698240D02*
Y713240D01*
Y698240D02*
X879200D01*
X865200Y700990D02*
Y710490D01*
X860450Y705740D02*
X869950D01*
X851200Y713240D02*
X879200D01*
Y698240D02*
Y713240D01*
Y713480D02*
Y728480D01*
X851200D02*
X879200D01*
X865200Y716230D02*
Y725730D01*
X860450Y720980D02*
X869950D01*
X851200Y713480D02*
X879200D01*
X851200D02*
Y728480D01*
Y545840D02*
Y560840D01*
Y545840D02*
X879200D01*
X865200Y548590D02*
Y558090D01*
X860450Y553340D02*
X869950D01*
X851200Y560840D02*
X879200D01*
Y545840D02*
Y560840D01*
X851200Y561080D02*
Y576080D01*
Y561080D02*
X879200D01*
X865200Y563830D02*
Y573330D01*
X860450Y568580D02*
X869950D01*
X851200Y576080D02*
X879200D01*
Y561080D02*
Y576080D01*
X851200Y576320D02*
Y591320D01*
Y576320D02*
X879200D01*
X865200Y579070D02*
Y588570D01*
X860450Y583820D02*
X869950D01*
X851200Y591320D02*
X879200D01*
Y576320D02*
Y591320D01*
X851200Y591560D02*
Y606560D01*
Y591560D02*
X879200D01*
X865200Y594310D02*
Y603810D01*
X860450Y599060D02*
X869950D01*
X851200Y606560D02*
X879200D01*
Y591560D02*
Y606560D01*
Y728720D02*
Y743720D01*
X851200D02*
X879200D01*
X865200Y731470D02*
Y740970D01*
X860450Y736220D02*
X869950D01*
X851200Y728720D02*
X879200D01*
X851200D02*
Y743720D01*
X855000Y56500D02*
X870000D01*
X855000Y28500D02*
Y56500D01*
X862500Y37750D02*
Y47250D01*
X857750Y42500D02*
X867250D01*
X870000Y28500D02*
Y56500D01*
X855000Y28500D02*
X870000D01*
X852500Y844000D02*
X867500D01*
Y872000D01*
X860000Y853250D02*
Y862750D01*
X855250Y858000D02*
X864750D01*
X852500Y844000D02*
Y872000D01*
X867500D01*
X854210Y453540D02*
Y468540D01*
Y453540D02*
X882210D01*
X868210Y456290D02*
Y465790D01*
X863460Y461040D02*
X872960D01*
X854210Y468540D02*
X882210D01*
Y453540D02*
Y468540D01*
X854210Y423060D02*
Y438060D01*
Y423060D02*
X882210D01*
X868210Y425810D02*
Y435310D01*
X863460Y430560D02*
X872960D01*
X854210Y438060D02*
X882210D01*
Y423060D02*
Y438060D01*
X854210Y438300D02*
Y453300D01*
Y438300D02*
X882210D01*
X868210Y441050D02*
Y450550D01*
X863460Y445800D02*
X872960D01*
X854210Y453300D02*
X882210D01*
Y438300D02*
Y453300D01*
X854210Y407820D02*
Y422820D01*
Y407820D02*
X882210D01*
X868210Y410570D02*
Y420070D01*
X863460Y415320D02*
X872960D01*
X854210Y422820D02*
X882210D01*
Y407820D02*
Y422820D01*
X43500Y35000D02*
Y50000D01*
Y35000D02*
X71500D01*
X52750Y42500D02*
X62250D01*
X57500Y37750D02*
Y47250D01*
X43500Y50000D02*
X71500D01*
Y35000D02*
Y50000D01*
X20000Y478000D02*
Y488000D01*
X15000Y483000D02*
X25000D01*
X56500Y867500D02*
Y882500D01*
X28500D02*
X56500D01*
X37750Y875000D02*
X47250D01*
X42500Y870250D02*
Y879750D01*
X28500Y867500D02*
X56500D01*
X28500D02*
Y882500D01*
X20000Y425000D02*
Y435000D01*
X15000Y430000D02*
X25000D01*
X446500Y279000D02*
X461500D01*
X446500Y251000D02*
Y279000D01*
X454000Y260250D02*
Y269750D01*
X449250Y265000D02*
X458750D01*
X461500Y251000D02*
Y279000D01*
X446500Y251000D02*
X461500D01*
X233000Y300500D02*
Y315500D01*
X205000D02*
X233000D01*
X214250Y308000D02*
X223750D01*
X219000Y303250D02*
Y312750D01*
X205000Y300500D02*
X233000D01*
X205000D02*
Y315500D01*
X228000Y422500D02*
Y437500D01*
X200000D02*
X228000D01*
X209250Y430000D02*
X218750D01*
X214000Y425250D02*
Y434750D01*
X200000Y422500D02*
X228000D01*
X200000D02*
Y437500D01*
X228000Y370500D02*
Y385500D01*
X200000D02*
X228000D01*
X209250Y378000D02*
X218750D01*
X214000Y373250D02*
Y382750D01*
X200000Y370500D02*
X228000D01*
X200000D02*
Y385500D01*
X281500Y285000D02*
X296500D01*
X281500Y257000D02*
Y285000D01*
X289000Y266250D02*
Y275750D01*
X284250Y271000D02*
X293750D01*
X296500Y257000D02*
Y285000D01*
X281500Y257000D02*
X296500D01*
X187000Y727500D02*
Y742500D01*
X159000D02*
X187000D01*
X168250Y735000D02*
X177750D01*
X173000Y730250D02*
Y739750D01*
X159000Y727500D02*
X187000D01*
X159000D02*
Y742500D01*
X326500Y279000D02*
X341500D01*
X326500Y251000D02*
Y279000D01*
X334000Y260250D02*
Y269750D01*
X329250Y265000D02*
X338750D01*
X341500Y251000D02*
Y279000D01*
X326500Y251000D02*
X341500D01*
X187000Y788500D02*
Y803500D01*
X159000D02*
X187000D01*
X168250Y796000D02*
X177750D01*
X173000Y791250D02*
Y800750D01*
X159000Y788500D02*
X187000D01*
X159000D02*
Y803500D01*
X280790Y547400D02*
X295790D01*
X280790Y519400D02*
Y547400D01*
X288290Y528650D02*
Y538150D01*
X283540Y533400D02*
X293040D01*
X295790Y519400D02*
Y547400D01*
X280790Y519400D02*
X295790D01*
X295828Y547472D02*
X310828D01*
X295828Y519472D02*
Y547472D01*
X303328Y528722D02*
Y538222D01*
X298578Y533472D02*
X308078D01*
X310828Y519472D02*
Y547472D01*
X295828Y519472D02*
X310828D01*
X476000Y383500D02*
Y398500D01*
Y383500D02*
X504000D01*
X485250Y391000D02*
X494750D01*
X490000Y386250D02*
Y395750D01*
X476000Y398500D02*
X504000D01*
Y383500D02*
Y398500D01*
X476000Y433500D02*
Y448500D01*
Y433500D02*
X504000D01*
X485250Y441000D02*
X494750D01*
X490000Y436250D02*
Y445750D01*
X476000Y448500D02*
X504000D01*
Y433500D02*
Y448500D01*
X486000Y453500D02*
Y468500D01*
Y453500D02*
X514000D01*
X495250Y461000D02*
X504750D01*
X500000Y456250D02*
Y465750D01*
X486000Y468500D02*
X514000D01*
Y453500D02*
Y468500D01*
X486000Y468500D02*
Y483500D01*
Y468500D02*
X514000D01*
X495250Y476000D02*
X504750D01*
X500000Y471250D02*
Y480750D01*
X486000Y483500D02*
X514000D01*
Y468500D02*
Y483500D01*
X486000D02*
Y498500D01*
Y483500D02*
X514000D01*
X495250Y491000D02*
X504750D01*
X500000Y486250D02*
Y495750D01*
X486000Y498500D02*
X514000D01*
Y483500D02*
Y498500D01*
X453000Y508500D02*
Y523500D01*
Y508500D02*
X481000D01*
X462250Y516000D02*
X471750D01*
X467000Y511250D02*
Y520750D01*
X453000Y523500D02*
X481000D01*
Y508500D02*
Y523500D01*
X311270Y519400D02*
X326270D01*
Y547400D01*
X318770Y528650D02*
Y538150D01*
X314020Y533400D02*
X323520D01*
X311270Y519400D02*
Y547400D01*
X326270D01*
X431500Y279000D02*
X446500D01*
X431500Y251000D02*
Y279000D01*
X439000Y260250D02*
Y269750D01*
X434250Y265000D02*
X443750D01*
X446500Y251000D02*
Y279000D01*
X431500Y251000D02*
X446500D01*
X476000Y315500D02*
Y330500D01*
Y315500D02*
X504000D01*
X485250Y323000D02*
X494750D01*
X490000Y318250D02*
Y327750D01*
X476000Y330500D02*
X504000D01*
Y315500D02*
Y330500D01*
X481000Y338500D02*
Y353500D01*
Y338500D02*
X509000D01*
X490250Y346000D02*
X499750D01*
X495000Y341250D02*
Y350750D01*
X481000Y353500D02*
X509000D01*
Y338500D02*
Y353500D01*
X481000Y353500D02*
Y368500D01*
Y353500D02*
X509000D01*
X490250Y361000D02*
X499750D01*
X495000Y356250D02*
Y365750D01*
X481000Y368500D02*
X509000D01*
Y353500D02*
Y368500D01*
X168660Y344740D02*
X174160D01*
X171410Y341990D02*
Y347490D01*
X147500Y694000D02*
X162500D01*
X147500Y666000D02*
Y694000D01*
X155000Y675250D02*
Y684750D01*
X150250Y680000D02*
X159750D01*
X162500Y666000D02*
Y694000D01*
X147500Y666000D02*
X162500D01*
X147500Y655000D02*
X162500D01*
X147500Y627000D02*
Y655000D01*
X155000Y636250D02*
Y645750D01*
X150250Y641000D02*
X159750D01*
X162500Y627000D02*
Y655000D01*
X147500Y627000D02*
X162500D01*
X586500Y626000D02*
X601500D01*
X586500Y598000D02*
Y626000D01*
X594000Y607250D02*
Y616750D01*
X589250Y612000D02*
X598750D01*
X601500Y598000D02*
Y626000D01*
X586500Y598000D02*
X601500D01*
X602500D02*
X617500D01*
Y626000D01*
X610000Y607250D02*
Y616750D01*
X605250Y612000D02*
X614750D01*
X602500Y598000D02*
Y626000D01*
X617500D01*
X196500Y227500D02*
Y242500D01*
X168500D02*
X196500D01*
X177750Y235000D02*
X187250D01*
X182500Y230250D02*
Y239750D01*
X168500Y227500D02*
X196500D01*
X168500D02*
Y242500D01*
X196500Y195000D02*
Y210000D01*
X168500D02*
X196500D01*
X177750Y202500D02*
X187250D01*
X182500Y197750D02*
Y207250D01*
X168500Y195000D02*
X196500D01*
X168500D02*
Y210000D01*
X196500Y162500D02*
Y177500D01*
X168500D02*
X196500D01*
X177750Y170000D02*
X187250D01*
X182500Y165250D02*
Y174750D01*
X168500Y162500D02*
X196500D01*
X168500D02*
Y177500D01*
X666000Y638500D02*
Y653500D01*
X638000D02*
X666000D01*
X647250Y646000D02*
X656750D01*
X652000Y641250D02*
Y650750D01*
X638000Y638500D02*
X666000D01*
X638000D02*
Y653500D01*
X635500Y676000D02*
X650500D01*
Y704000D01*
X643000Y685250D02*
Y694750D01*
X638250Y690000D02*
X647750D01*
X635500Y676000D02*
Y704000D01*
X650500D01*
X602500Y598000D02*
X617500D01*
X602500Y570000D02*
Y598000D01*
X610000Y579250D02*
Y588750D01*
X605250Y584000D02*
X614750D01*
X617500Y570000D02*
Y598000D01*
X602500Y570000D02*
X617500D01*
D15*
X215300Y96520D02*
X248100D01*
X215300Y128820D02*
X248100D01*
X215300Y96520D02*
Y128820D01*
X248100Y96520D02*
Y128820D01*
X345550Y94340D02*
X378350D01*
X345550Y126640D02*
X378350D01*
X345550Y94340D02*
Y126640D01*
X378350Y94340D02*
Y126640D01*
X876155Y325428D02*
X958655D01*
X876155Y150000D02*
Y325428D01*
X959000D02*
X959000Y901700D01*
X876155Y150000D02*
X959000D01*
Y0D02*
Y150000D01*
X0Y901000D02*
X405000D01*
X812500Y901700D02*
X959000Y901700D01*
X405000Y818750D02*
X812500D01*
Y901250D01*
X405000Y818750D02*
Y901000D01*
X0Y0D02*
Y901000D01*
Y0D02*
X959000D01*
D91*
X893800Y523940D02*
Y775840D01*
X971200D01*
X893800Y523940D02*
X971200D01*
Y775840D01*
X404800Y754300D02*
X656700D01*
Y831700D01*
X404800Y754300D02*
Y831700D01*
X656700D01*
X489580Y647560D02*
Y725720D01*
X450420Y647560D02*
Y725720D01*
Y647560D02*
X489580D01*
X450420Y725720D02*
X489580D01*
X161590Y527420D02*
X173090D01*
X161590Y506920D02*
X173090D01*
Y527420D01*
X161590Y506920D02*
Y527420D01*
X157830Y505650D02*
Y535150D01*
X143830D02*
X157830D01*
X143830Y505650D02*
Y535150D01*
Y505650D02*
X157830D01*
X167750Y210500D02*
Y224500D01*
X197250D01*
Y210500D02*
Y224500D01*
X167750Y210500D02*
X197250D01*
X167750Y178000D02*
Y192000D01*
X197250D01*
Y178000D02*
Y192000D01*
X167750Y178000D02*
X197250D01*
X715172Y315694D02*
Y423694D01*
X598172D02*
X715172D01*
X598172Y315694D02*
Y423694D01*
Y315694D02*
X715172D01*
X557150Y638250D02*
X631350D01*
X557150Y743250D02*
X631350D01*
X557150Y638250D02*
Y743250D01*
X631350Y638250D02*
Y743250D01*
X715172Y97000D02*
Y205000D01*
X598172D02*
X715172D01*
X598172Y97000D02*
Y205000D01*
Y97000D02*
X715172D01*
Y205966D02*
Y313966D01*
X598172D02*
X715172D01*
X598172Y205966D02*
Y313966D01*
Y205966D02*
X715172D01*
X448038Y166172D02*
X556038D01*
X448038Y49172D02*
Y166172D01*
Y49172D02*
X556038D01*
Y166172D01*
X234250Y286000D02*
Y520500D01*
X468750D01*
Y286000D02*
Y520500D01*
X234250Y286000D02*
X468750D01*
X361250Y219750D02*
X381750D01*
X361250Y208250D02*
X381750D01*
X361250D02*
Y219750D01*
X381750Y208250D02*
Y219750D01*
X342250Y244750D02*
Y265250D01*
X353750Y244750D02*
Y265250D01*
X342250Y244750D02*
X353750D01*
X342250Y265250D02*
X353750D01*
X888700Y151550D02*
Y328450D01*
X811300D02*
X888700D01*
X811300Y151550D02*
X888700D01*
X811300D02*
Y328450D01*
X661050Y754300D02*
X812950D01*
Y831700D01*
X661050Y754300D02*
Y831700D01*
X812950D01*
X180800Y862700D02*
X238200D01*
Y694800D02*
Y862700D01*
X180800Y694800D02*
X238200D01*
X180800D02*
Y862700D01*
X337800Y863200D02*
X395200D01*
Y695300D02*
Y863200D01*
X337800Y695300D02*
X395200D01*
X337800D02*
Y863200D01*
X661800Y30200D02*
X819200D01*
X661800Y-200D02*
Y30200D01*
Y-200D02*
X819200D01*
Y30200D01*
X489800D02*
X647200D01*
X489800Y-200D02*
Y30200D01*
Y-200D02*
X647200D01*
Y30200D01*
X893800Y351050D02*
Y502950D01*
X971200D01*
X893800Y351050D02*
X971200D01*
Y502950D01*
X6000Y456000D02*
X34000D01*
Y508000D01*
X6000D02*
X34000D01*
X6000Y456000D02*
Y508000D01*
Y457000D02*
X34000D01*
X6000Y405000D02*
Y457000D01*
Y405000D02*
X34000D01*
Y457000D01*
X147900Y332590D02*
X161900D01*
X147900D02*
Y362090D01*
X161900D01*
Y332590D02*
Y362090D01*
X14590Y673240D02*
X28590D01*
Y643740D02*
Y673240D01*
X14590Y643740D02*
X28590D01*
X14590D02*
Y673240D01*
X165660Y334490D02*
Y354990D01*
X177160Y334490D02*
Y354990D01*
X165660Y334490D02*
X177160D01*
X165660Y354990D02*
X177160D01*
X167750Y245500D02*
Y259500D01*
X197250D01*
Y245500D02*
Y259500D01*
X167750Y245500D02*
X197250D01*
M02*
