G04*
G04 #@! TF.GenerationSoftware,Altium Limited,Altium Designer,21.8.1 (53)*
G04*
G04 Layer_Physical_Order=2*
G04 Layer_Color=32768*
%FSLAX44Y44*%
%MOMM*%
G71*
G04*
G04 #@! TF.SameCoordinates,50A5A8F4-FCC5-4A63-BB33-6A8E803C0949*
G04*
G04*
G04 #@! TF.FilePolarity,Negative*
G04*
G01*
G75*
%ADD15C,0.2540*%
%ADD74C,1.0160*%
%ADD75C,1.5160*%
G04:AMPARAMS|DCode=76|XSize=2.024mm|YSize=2.024mm|CornerRadius=0mm|HoleSize=0mm|Usage=FLASHONLY|Rotation=0.000|XOffset=0mm|YOffset=0mm|HoleType=Round|Shape=Relief|Width=0.254mm|Gap=0.254mm|Entries=4|*
%AMTHD76*
7,0,0,2.0240,1.5160,0.2540,45*
%
%ADD76THD76*%
%ADD77C,2.0360*%
G04:AMPARAMS|DCode=78|XSize=2.544mm|YSize=2.544mm|CornerRadius=0mm|HoleSize=0mm|Usage=FLASHONLY|Rotation=0.000|XOffset=0mm|YOffset=0mm|HoleType=Round|Shape=Relief|Width=0.254mm|Gap=0.254mm|Entries=4|*
%AMTHD78*
7,0,0,2.5440,2.0360,0.2540,45*
%
%ADD78THD78*%
%ADD79C,4.1960*%
%ADD80C,1.2660*%
D15*
X239395Y758190D02*
X262890D01*
X165100Y508000D02*
X239395Y582295D01*
X165100Y431800D02*
Y508000D01*
X215900Y596900D02*
Y711200D01*
X139700Y520700D02*
X215900Y596900D01*
X139700Y514350D02*
Y520700D01*
X239395Y582295D02*
Y758190D01*
X38100Y457200D02*
X139700D01*
Y514350D01*
X38100Y431800D02*
X165100D01*
X38100D02*
Y457200D01*
X674370Y593090D02*
Y815340D01*
X392430Y593090D02*
X674370D01*
X384810Y600710D02*
X392430Y593090D01*
X384810Y600710D02*
Y709930D01*
X323850Y770890D02*
X384810Y709930D01*
X275590Y770890D02*
X323850D01*
X262890Y758190D02*
X275590Y770890D01*
X342900Y816610D02*
X403860D01*
X215900D02*
X342900D01*
X215900Y800100D02*
Y816610D01*
X88900Y736600D02*
X190500D01*
Y800100D01*
X215900D01*
Y711200D02*
Y800100D01*
X88900Y711200D02*
X215900D01*
X88900D02*
Y736600D01*
X215300Y96520D02*
X248100D01*
X215300Y128820D02*
X248100D01*
X215300Y96520D02*
Y128820D01*
X248100Y96520D02*
Y128820D01*
X345550Y94340D02*
X378350D01*
X345550Y126640D02*
X378350D01*
X345550Y94340D02*
Y126640D01*
X378350Y94340D02*
Y126640D01*
X876155Y325428D02*
X958655D01*
X876155Y150000D02*
Y325428D01*
X959000D02*
X959000Y901700D01*
X876155Y150000D02*
X959000D01*
Y0D02*
Y150000D01*
X0Y901000D02*
X405000D01*
X812500Y901700D02*
X959000Y901700D01*
X405000Y818750D02*
X812500D01*
Y901250D01*
X405000Y818750D02*
Y901000D01*
X0Y0D02*
Y901000D01*
Y0D02*
X959000D01*
D74*
X405000Y818750D02*
X812500D01*
X405000D02*
Y901000D01*
X0D02*
X405000D01*
X0Y0D02*
X959000D01*
Y150000D01*
X876155D02*
X959000D01*
X876155D02*
Y325428D01*
X959000D01*
X959000Y901700D01*
X812500Y901700D02*
X959000Y901700D01*
X812500Y818750D02*
Y901700D01*
X0Y0D02*
Y901000D01*
D75*
X205000Y835000D02*
D03*
Y822500D02*
D03*
Y810000D02*
D03*
Y797500D02*
D03*
Y772500D02*
D03*
Y760000D02*
D03*
Y747500D02*
D03*
Y735000D02*
D03*
X362000Y835500D02*
D03*
Y823000D02*
D03*
Y810500D02*
D03*
Y798000D02*
D03*
Y785500D02*
D03*
Y773000D02*
D03*
Y748000D02*
D03*
Y735500D02*
D03*
Y723000D02*
D03*
D76*
X205000Y785000D02*
D03*
Y722500D02*
D03*
X362000Y760500D02*
D03*
D77*
X677000Y15000D02*
D03*
X702400D02*
D03*
X727800D02*
D03*
X753200D02*
D03*
X778600D02*
D03*
X505000D02*
D03*
X530400D02*
D03*
X555800D02*
D03*
X581200D02*
D03*
X606600D02*
D03*
X632000D02*
D03*
X101600Y647700D02*
D03*
Y622300D02*
D03*
Y571500D02*
D03*
Y596900D02*
D03*
Y520700D02*
D03*
Y495300D02*
D03*
Y469900D02*
D03*
Y419100D02*
D03*
Y444500D02*
D03*
Y368300D02*
D03*
Y317500D02*
D03*
Y393700D02*
D03*
Y342900D02*
D03*
Y546100D02*
D03*
Y673100D02*
D03*
X127000Y266700D02*
D03*
Y342900D02*
D03*
Y317500D02*
D03*
Y292100D02*
D03*
Y368300D02*
D03*
Y419100D02*
D03*
Y139700D02*
D03*
Y165100D02*
D03*
Y215900D02*
D03*
Y241300D02*
D03*
Y190500D02*
D03*
Y393700D02*
D03*
X101600Y774700D02*
D03*
Y698500D02*
D03*
Y749300D02*
D03*
X127000Y723900D02*
D03*
Y749300D02*
D03*
Y774700D02*
D03*
Y698500D02*
D03*
Y647700D02*
D03*
Y622300D02*
D03*
Y596900D02*
D03*
Y571500D02*
D03*
Y546100D02*
D03*
Y520700D02*
D03*
Y469900D02*
D03*
Y444500D02*
D03*
Y673100D02*
D03*
Y495300D02*
D03*
X101600Y241300D02*
D03*
Y266700D02*
D03*
Y190500D02*
D03*
Y292100D02*
D03*
Y139700D02*
D03*
Y215900D02*
D03*
Y165100D02*
D03*
X50800Y647700D02*
D03*
Y622300D02*
D03*
Y571500D02*
D03*
Y596900D02*
D03*
Y520700D02*
D03*
Y495300D02*
D03*
Y419100D02*
D03*
Y368300D02*
D03*
Y317500D02*
D03*
Y393700D02*
D03*
Y342900D02*
D03*
Y546100D02*
D03*
Y673100D02*
D03*
X76200Y266700D02*
D03*
Y342900D02*
D03*
Y317500D02*
D03*
Y292100D02*
D03*
Y368300D02*
D03*
Y419100D02*
D03*
Y139700D02*
D03*
Y165100D02*
D03*
Y215900D02*
D03*
Y241300D02*
D03*
Y190500D02*
D03*
Y393700D02*
D03*
X50800Y774700D02*
D03*
Y698500D02*
D03*
Y749300D02*
D03*
X76200Y723900D02*
D03*
Y749300D02*
D03*
X50800Y723900D02*
D03*
X76200Y774700D02*
D03*
Y698500D02*
D03*
Y647700D02*
D03*
Y622300D02*
D03*
Y596900D02*
D03*
Y571500D02*
D03*
Y546100D02*
D03*
Y520700D02*
D03*
Y673100D02*
D03*
Y495300D02*
D03*
X50800Y241300D02*
D03*
Y266700D02*
D03*
Y190500D02*
D03*
Y292100D02*
D03*
Y139700D02*
D03*
Y215900D02*
D03*
Y165100D02*
D03*
D78*
X804000Y15000D02*
D03*
X101600Y723900D02*
D03*
X50800Y469900D02*
D03*
Y444500D02*
D03*
X76200Y469900D02*
D03*
Y444500D02*
D03*
D79*
X908200Y850200D02*
D03*
Y50800D02*
D03*
X50800Y88900D02*
D03*
Y824800D02*
D03*
D80*
X922750Y815000D02*
D03*
X903700Y776900D02*
D03*
X922750Y738800D02*
D03*
Y662600D02*
D03*
Y586400D02*
D03*
X903700Y548300D02*
D03*
X922750Y510200D02*
D03*
X903700Y472100D02*
D03*
X922750Y434000D02*
D03*
Y129200D02*
D03*
X903700Y91100D02*
D03*
X884650Y815000D02*
D03*
X865600Y776900D02*
D03*
X884650Y510200D02*
D03*
X865600Y472100D02*
D03*
X884650Y357800D02*
D03*
Y129200D02*
D03*
X865600Y91100D02*
D03*
Y14900D02*
D03*
X827500Y853100D02*
D03*
X846550Y815000D02*
D03*
X827500Y776900D02*
D03*
X846550Y510200D02*
D03*
X827500Y472100D02*
D03*
Y91100D02*
D03*
X846550Y53000D02*
D03*
X827500Y14900D02*
D03*
X789400Y776900D02*
D03*
Y624500D02*
D03*
X808450Y281600D02*
D03*
X789400Y167300D02*
D03*
Y91100D02*
D03*
X751300Y700700D02*
D03*
Y243500D02*
D03*
X770350Y205400D02*
D03*
X751300Y167300D02*
D03*
X770350Y129200D02*
D03*
X713200Y91100D02*
D03*
X694150Y738800D02*
D03*
X675100Y700700D02*
D03*
Y548300D02*
D03*
X694150Y205400D02*
D03*
X675100Y91100D02*
D03*
X694150Y53000D02*
D03*
X637000Y243500D02*
D03*
Y167300D02*
D03*
Y91100D02*
D03*
X656050Y53000D02*
D03*
X617950Y205400D02*
D03*
X579850Y53000D02*
D03*
X522700Y700700D02*
D03*
X541750Y434000D02*
D03*
X522700Y319700D02*
D03*
Y243500D02*
D03*
X503650Y738800D02*
D03*
X484600Y243500D02*
D03*
Y14900D02*
D03*
X465550Y738800D02*
D03*
X446500Y700700D02*
D03*
Y243500D02*
D03*
X465550Y205400D02*
D03*
X446500Y167300D02*
D03*
Y14900D02*
D03*
X408400Y776900D02*
D03*
X427450Y738800D02*
D03*
X408400Y700700D02*
D03*
Y548300D02*
D03*
X427450Y357800D02*
D03*
X408400Y319700D02*
D03*
Y167300D02*
D03*
Y14900D02*
D03*
X389350Y815000D02*
D03*
Y738800D02*
D03*
X370300Y700700D02*
D03*
X389350Y662600D02*
D03*
X370300Y624500D02*
D03*
X389350Y586400D02*
D03*
X370300Y548300D02*
D03*
X389350Y357800D02*
D03*
X370300Y319700D02*
D03*
X389350Y205400D02*
D03*
X370300Y167300D02*
D03*
X389350Y129200D02*
D03*
Y53000D02*
D03*
X370300Y14900D02*
D03*
X351250Y738800D02*
D03*
X332200Y548300D02*
D03*
X351250Y357800D02*
D03*
X332200Y319700D02*
D03*
X351250Y281600D02*
D03*
X332200Y243500D02*
D03*
X351250Y205400D02*
D03*
X332200Y167300D02*
D03*
Y91100D02*
D03*
X351250Y53000D02*
D03*
X332200Y14900D02*
D03*
X313150Y662600D02*
D03*
Y586400D02*
D03*
X294100Y319700D02*
D03*
X313150Y281600D02*
D03*
X294100Y243500D02*
D03*
X313150Y205400D02*
D03*
Y129200D02*
D03*
X294100Y91100D02*
D03*
X313150Y53000D02*
D03*
X294100Y14900D02*
D03*
X256000Y243500D02*
D03*
Y167300D02*
D03*
Y91100D02*
D03*
X275050Y53000D02*
D03*
X256000Y14900D02*
D03*
X217900Y853100D02*
D03*
X236950Y662600D02*
D03*
Y586400D02*
D03*
X217900Y548300D02*
D03*
X236950Y510200D02*
D03*
X217900Y472100D02*
D03*
Y319700D02*
D03*
Y167300D02*
D03*
X236950Y53000D02*
D03*
X217900Y14900D02*
D03*
X179800Y853100D02*
D03*
Y776900D02*
D03*
Y319700D02*
D03*
X198850Y281600D02*
D03*
Y129200D02*
D03*
X179800Y91100D02*
D03*
X198850Y53000D02*
D03*
X179800Y14900D02*
D03*
X141700Y853100D02*
D03*
Y776900D02*
D03*
Y624500D02*
D03*
X160750Y586400D02*
D03*
X141700Y548300D02*
D03*
Y472100D02*
D03*
X160750Y434000D02*
D03*
X141700Y395900D02*
D03*
Y319700D02*
D03*
X160750Y281600D02*
D03*
X141700Y243500D02*
D03*
X160750Y205400D02*
D03*
X141700Y167300D02*
D03*
X160750Y129200D02*
D03*
X141700Y91100D02*
D03*
X160750Y53000D02*
D03*
X141700Y14900D02*
D03*
X103600Y853100D02*
D03*
X122650Y815000D02*
D03*
X103600Y91100D02*
D03*
X122650Y53000D02*
D03*
X103600Y14900D02*
D03*
X84550Y738800D02*
D03*
Y662600D02*
D03*
Y586400D02*
D03*
Y434000D02*
D03*
Y357800D02*
D03*
Y281600D02*
D03*
Y205400D02*
D03*
Y53000D02*
D03*
X65500Y14900D02*
D03*
X27400Y776900D02*
D03*
Y624500D02*
D03*
Y548300D02*
D03*
Y395900D02*
D03*
Y319700D02*
D03*
Y243500D02*
D03*
Y167300D02*
D03*
Y14900D02*
D03*
X726186Y676148D02*
D03*
X736346Y702310D02*
D03*
X766826Y672846D02*
D03*
X771398Y648208D02*
D03*
X770636Y605536D02*
D03*
X793242Y611378D02*
D03*
X811784Y570992D02*
D03*
X810768Y593344D02*
D03*
X704596Y645922D02*
D03*
X508762Y98298D02*
D03*
X509270Y116586D02*
D03*
X531622Y371094D02*
D03*
X309372Y608330D02*
D03*
X487536Y583920D02*
D03*
X582000Y599734D02*
D03*
X800608Y285496D02*
D03*
X806918Y302000D02*
D03*
X588000Y290870D02*
D03*
X519000Y462000D02*
D03*
X713000Y448620D02*
D03*
X854900Y149000D02*
D03*
X825310Y380000D02*
D03*
X175006Y581406D02*
D03*
X183737Y642653D02*
D03*
X193802Y665480D02*
D03*
X197415Y334950D02*
D03*
X209002Y390000D02*
D03*
X207000Y441000D02*
D03*
X489966Y643128D02*
D03*
X450342Y643382D02*
D03*
X469900Y673100D02*
D03*
Y681990D02*
D03*
Y690880D02*
D03*
Y699770D02*
D03*
X814070Y692150D02*
D03*
X632208Y573788D02*
D03*
X637540Y579120D02*
D03*
X767240Y324000D02*
D03*
X787360Y345000D02*
D03*
X773550Y343000D02*
D03*
X770000Y508000D02*
D03*
X247650Y104180D02*
D03*
X228600Y116840D02*
D03*
X236220Y110490D02*
D03*
X339090Y166370D02*
D03*
X375920Y104046D02*
D03*
X365760Y110490D02*
D03*
X358140Y117100D02*
D03*
X398780Y118110D02*
D03*
X397510Y102870D02*
D03*
X651590Y461380D02*
D03*
X772000Y460000D02*
D03*
X547000Y106000D02*
D03*
X590000D02*
D03*
X269000Y653000D02*
D03*
X275199Y577681D02*
D03*
X283000Y655000D02*
D03*
X332740Y838200D02*
D03*
X373694Y815306D02*
D03*
X824000Y646000D02*
D03*
X834390Y628650D02*
D03*
X843280Y614680D02*
D03*
X657900Y337000D02*
D03*
X656590Y227330D02*
D03*
X792480Y256540D02*
D03*
X784860Y246380D02*
D03*
X288290Y566420D02*
D03*
X621000Y467690D02*
D03*
X443896Y427990D02*
D03*
X619000Y444000D02*
D03*
X620000Y452000D02*
D03*
X744220Y326390D02*
D03*
X287020Y791210D02*
D03*
X257810Y821690D02*
D03*
X256540Y834390D02*
D03*
X271637Y757497D02*
D03*
X241000Y751000D02*
D03*
X231310Y787000D02*
D03*
X264927Y754059D02*
D03*
X662940Y488950D02*
D03*
X231802Y385185D02*
D03*
X854900Y330000D02*
D03*
X826810Y308000D02*
D03*
Y170000D02*
D03*
X38100Y508000D02*
D03*
Y533400D02*
D03*
X63500D02*
D03*
X88900D02*
D03*
Y508000D02*
D03*
X63500D02*
D03*
X33020Y650240D02*
D03*
X151130Y537210D02*
D03*
X181570Y622120D02*
D03*
X154940Y364490D02*
D03*
X492598Y430402D02*
D03*
X512897Y596567D02*
D03*
X439000Y584120D02*
D03*
X468000Y563690D02*
D03*
X428000Y604000D02*
D03*
X303040Y577810D02*
D03*
X524000Y308000D02*
D03*
X732690Y491000D02*
D03*
X718000Y754000D02*
D03*
X711000Y482310D02*
D03*
X759000Y476000D02*
D03*
X745000Y468000D02*
D03*
X819000Y355000D02*
D03*
X812000Y345000D02*
D03*
X760000Y498000D02*
D03*
X709000Y468000D02*
D03*
X672000Y561000D02*
D03*
X848000Y598000D02*
D03*
X620000Y591000D02*
D03*
X846816Y553091D02*
D03*
X847000Y569000D02*
D03*
X824538Y658538D02*
D03*
X518101Y278256D02*
D03*
X519000Y293000D02*
D03*
X520000Y491000D02*
D03*
X313900Y481310D02*
D03*
X306000Y475000D02*
D03*
X442000Y487617D02*
D03*
X841870Y690135D02*
D03*
X168000Y634000D02*
D03*
X512000Y352000D02*
D03*
X783000Y355000D02*
D03*
X845310Y408000D02*
D03*
X861000Y395000D02*
D03*
X285000Y400000D02*
D03*
X293000Y409000D02*
D03*
X265000Y431000D02*
D03*
X271310Y419000D02*
D03*
X443000Y386000D02*
D03*
X257000Y371000D02*
D03*
X497000Y401690D02*
D03*
X444000Y440000D02*
D03*
X502000Y374000D02*
D03*
X402000Y220000D02*
D03*
X410000Y66000D02*
D03*
X565000Y332000D02*
D03*
X474000Y339690D02*
D03*
X445000Y321000D02*
D03*
X257000Y346000D02*
D03*
X202000Y170000D02*
D03*
X270000Y269000D02*
D03*
X202578Y201963D02*
D03*
X256000Y268000D02*
D03*
X200000Y234000D02*
D03*
X255000Y280000D02*
D03*
X599000Y594000D02*
D03*
X645000Y503000D02*
D03*
X643943Y514348D02*
D03*
X448992Y526008D02*
D03*
X419000Y494000D02*
D03*
X645000Y548000D02*
D03*
X474000Y504000D02*
D03*
X417523Y521290D02*
D03*
X411455Y525765D02*
D03*
X409000Y533000D02*
D03*
X432000Y642000D02*
D03*
X353000Y655000D02*
D03*
X360000Y646000D02*
D03*
X176000Y397000D02*
D03*
X227668Y393332D02*
D03*
X167498Y403846D02*
D03*
X231000Y403000D02*
D03*
X232000Y321690D02*
D03*
X184000Y330000D02*
D03*
X306000Y328000D02*
D03*
X314000Y335000D02*
D03*
X194000Y714000D02*
D03*
X345000Y721000D02*
D03*
X339000Y711000D02*
D03*
X229000Y801000D02*
D03*
X668231Y482079D02*
D03*
X705000Y429000D02*
D03*
X588000Y401000D02*
D03*
X552000Y415000D02*
D03*
X692000Y429000D02*
D03*
X383000Y552000D02*
D03*
X389000Y496000D02*
D03*
X334000D02*
D03*
X268000D02*
D03*
X251000Y543000D02*
D03*
X233000Y439000D02*
D03*
X344000Y310000D02*
D03*
X411000Y309000D02*
D03*
X444000Y419000D02*
D03*
X625202Y537817D02*
D03*
X541000Y538000D02*
D03*
X519000Y475000D02*
D03*
X458000Y129000D02*
D03*
X633000Y119000D02*
D03*
X677000Y197488D02*
D03*
X534000Y90000D02*
D03*
X741000Y436000D02*
D03*
X472000Y196000D02*
D03*
X580000D02*
D03*
Y431000D02*
D03*
X678000Y474000D02*
D03*
X638529Y337471D02*
D03*
X633000Y228000D02*
D03*
X654000Y112690D02*
D03*
X662000Y119000D02*
D03*
X811000Y209000D02*
D03*
X317000Y551000D02*
D03*
X656844Y747522D02*
D03*
X556000Y684000D02*
D03*
X587000Y671000D02*
D03*
X634000Y709000D02*
D03*
X588000Y696000D02*
D03*
X659000Y658000D02*
D03*
X605750Y781510D02*
D03*
X568452Y782828D02*
D03*
X530860Y789940D02*
D03*
X526000Y736000D02*
D03*
X586994Y734314D02*
D03*
X555000Y737000D02*
D03*
X371000Y792000D02*
D03*
X331000Y782000D02*
D03*
X286000Y818000D02*
D03*
X78000Y42000D02*
D03*
X849000Y34000D02*
D03*
X681384Y85847D02*
D03*
X747000Y133000D02*
D03*
X402000Y798000D02*
D03*
X423000Y774000D02*
D03*
X441000Y797000D02*
D03*
X499000Y786000D02*
D03*
X549402Y783590D02*
D03*
X587000Y785000D02*
D03*
X617000Y797000D02*
D03*
X658622Y777748D02*
D03*
X636000Y773000D02*
D03*
X679000Y774000D02*
D03*
X700000Y797000D02*
D03*
X768000Y785000D02*
D03*
X774000Y798000D02*
D03*
X812000D02*
D03*
X847000Y865000D02*
D03*
X939000Y738000D02*
D03*
X938000Y774000D02*
D03*
X923000Y731000D02*
D03*
X934000Y523000D02*
D03*
X925000Y420000D02*
D03*
X934000Y501000D02*
D03*
X936000Y465000D02*
D03*
X938000Y388000D02*
D03*
X939000Y347000D02*
D03*
X588000Y182000D02*
D03*
X296000Y65000D02*
D03*
X470000Y39000D02*
D03*
X635000Y697500D02*
D03*
X432000Y727000D02*
D03*
X500000Y697500D02*
D03*
Y705000D02*
D03*
Y712500D02*
D03*
Y720000D02*
D03*
X432500Y697500D02*
D03*
Y705000D02*
D03*
Y712500D02*
D03*
Y720000D02*
D03*
X500000Y727000D02*
D03*
X257000Y854000D02*
D03*
M02*
