%TF.GenerationSoftware,Altium Limited,Altium Designer,21.8.1 (53)*%
G04 Layer_Physical_Order=2*
G04 Layer_Color=32768*
%FSLAX45Y45*%
%MOMM*%
%TF.SameCoordinates,1CF0B822-2DD9-431B-A6BE-AAED35006C4B*%
%TF.FilePolarity,Negative*%
%TF.FileFunction,Copper,L2,Inr,Plane*%
%TF.Part,Single*%
G01*
G75*
%TA.AperFunction,NonConductor*%
%ADD43C,0.25400*%
%ADD44C,1.01600*%
%TA.AperFunction,ComponentPad*%
%ADD45C,1.51600*%
G04:AMPARAMS|DCode=46|XSize=2.024mm|YSize=2.024mm|CornerRadius=0mm|HoleSize=0mm|Usage=FLASHONLY|Rotation=0.000|XOffset=0mm|YOffset=0mm|HoleType=Round|Shape=Relief|Width=0.254mm|Gap=0.254mm|Entries=4|*
%AMTHD46*
7,0,0,2.02400,1.51600,0.25400,45*
%
%ADD46THD46*%
%ADD47C,2.03600*%
G04:AMPARAMS|DCode=48|XSize=2.544mm|YSize=2.544mm|CornerRadius=0mm|HoleSize=0mm|Usage=FLASHONLY|Rotation=0.000|XOffset=0mm|YOffset=0mm|HoleType=Round|Shape=Relief|Width=0.254mm|Gap=0.254mm|Entries=4|*
%AMTHD48*
7,0,0,2.54400,2.03600,0.25400,45*
%
%ADD48THD48*%
%ADD49C,4.19600*%
%TA.AperFunction,ViaPad*%
%ADD50C,1.26600*%
D43*
X2393950Y7581900D02*
X2628900D01*
X1651000Y5080000D02*
X2393950Y5822950D01*
X1651000Y4318000D02*
Y5080000D01*
X2159000Y5969000D02*
Y7112000D01*
X1397000Y5207000D02*
X2159000Y5969000D01*
X1397000Y5143500D02*
Y5207000D01*
X2393950Y5822950D02*
Y7581900D01*
X381000Y4572000D02*
X1397000D01*
Y5143500D01*
X381000Y4318000D02*
X1651000D01*
X381000D02*
Y4572000D01*
X6743700Y5930900D02*
Y8153400D01*
X3924300Y5930900D02*
X6743700D01*
X3848100Y6007100D02*
X3924300Y5930900D01*
X3848100Y6007100D02*
Y7099300D01*
X3238500Y7708900D02*
X3848100Y7099300D01*
X2755900Y7708900D02*
X3238500D01*
X2628900Y7581900D02*
X2755900Y7708900D01*
X3429000Y8166100D02*
X4038600D01*
X2159000D02*
X3429000D01*
X2159000Y8001000D02*
Y8166100D01*
X889000Y7366000D02*
X1905000D01*
Y8001000D01*
X2159000D01*
Y7112000D02*
Y8001000D01*
X889000Y7112000D02*
X2159000D01*
X889000D02*
Y7366000D01*
D44*
X4050000Y8187500D02*
X8125000D01*
X4050000D02*
Y9010000D01*
X0D02*
X4050000D01*
X0Y0D02*
X9590000D01*
Y1500000D01*
X8761553D02*
X9590000D01*
X8761553D02*
Y3254277D01*
X9590000D01*
X9590000Y9017000D01*
X8125000Y9017000D02*
X9590000Y9017000D01*
X8125000Y8187500D02*
Y9017000D01*
X0Y0D02*
Y9010000D01*
D45*
X2050000Y8350000D02*
D03*
Y8225000D02*
D03*
Y8100000D02*
D03*
Y7975000D02*
D03*
Y7725000D02*
D03*
Y7600000D02*
D03*
Y7475000D02*
D03*
Y7350000D02*
D03*
X3620000Y8355000D02*
D03*
Y8230000D02*
D03*
Y8105000D02*
D03*
Y7980000D02*
D03*
Y7855000D02*
D03*
Y7730000D02*
D03*
Y7480000D02*
D03*
Y7355000D02*
D03*
Y7230000D02*
D03*
D46*
X2050000Y7850000D02*
D03*
Y7225000D02*
D03*
X3620000Y7605000D02*
D03*
D47*
X6770000Y150000D02*
D03*
X7024000D02*
D03*
X7278000D02*
D03*
X7532000D02*
D03*
X7786000D02*
D03*
X5050000D02*
D03*
X5304000D02*
D03*
X5558000D02*
D03*
X5812000D02*
D03*
X6066000D02*
D03*
X6320000D02*
D03*
X1016000Y6477000D02*
D03*
Y6223000D02*
D03*
Y5715000D02*
D03*
Y5969000D02*
D03*
Y5207000D02*
D03*
Y4953000D02*
D03*
Y4699000D02*
D03*
Y4191000D02*
D03*
Y4445000D02*
D03*
Y3683000D02*
D03*
Y3175000D02*
D03*
Y3937000D02*
D03*
Y3429000D02*
D03*
Y5461000D02*
D03*
Y6731000D02*
D03*
X1270000Y2667000D02*
D03*
Y3429000D02*
D03*
Y3175000D02*
D03*
Y2921000D02*
D03*
Y3683000D02*
D03*
Y4191000D02*
D03*
Y1397000D02*
D03*
Y1651000D02*
D03*
Y2159000D02*
D03*
Y2413000D02*
D03*
Y1905000D02*
D03*
Y3937000D02*
D03*
X1016000Y7747000D02*
D03*
Y6985000D02*
D03*
Y7493000D02*
D03*
X1270000Y7239000D02*
D03*
Y7493000D02*
D03*
Y7747000D02*
D03*
Y6985000D02*
D03*
Y6477000D02*
D03*
Y6223000D02*
D03*
Y5969000D02*
D03*
Y5715000D02*
D03*
Y5461000D02*
D03*
Y5207000D02*
D03*
Y4699000D02*
D03*
Y4445000D02*
D03*
Y6731000D02*
D03*
Y4953000D02*
D03*
X1016000Y2413000D02*
D03*
Y2667000D02*
D03*
Y1905000D02*
D03*
Y2921000D02*
D03*
Y1397000D02*
D03*
Y2159000D02*
D03*
Y1651000D02*
D03*
X508000Y6477000D02*
D03*
Y6223000D02*
D03*
Y5715000D02*
D03*
Y5969000D02*
D03*
Y5207000D02*
D03*
Y4953000D02*
D03*
Y4191000D02*
D03*
Y3683000D02*
D03*
Y3175000D02*
D03*
Y3937000D02*
D03*
Y3429000D02*
D03*
Y5461000D02*
D03*
Y6731000D02*
D03*
X762000Y2667000D02*
D03*
Y3429000D02*
D03*
Y3175000D02*
D03*
Y2921000D02*
D03*
Y3683000D02*
D03*
Y4191000D02*
D03*
Y1397000D02*
D03*
Y1651000D02*
D03*
Y2159000D02*
D03*
Y2413000D02*
D03*
Y1905000D02*
D03*
Y3937000D02*
D03*
X508000Y7747000D02*
D03*
Y6985000D02*
D03*
Y7493000D02*
D03*
X762000Y7239000D02*
D03*
Y7493000D02*
D03*
X508000Y7239000D02*
D03*
X762000Y7747000D02*
D03*
Y6985000D02*
D03*
Y6477000D02*
D03*
Y6223000D02*
D03*
Y5969000D02*
D03*
Y5715000D02*
D03*
Y5461000D02*
D03*
Y5207000D02*
D03*
Y6731000D02*
D03*
Y4953000D02*
D03*
X508000Y2413000D02*
D03*
Y2667000D02*
D03*
Y1905000D02*
D03*
Y2921000D02*
D03*
Y1397000D02*
D03*
Y2159000D02*
D03*
Y1651000D02*
D03*
D48*
X8040000Y150000D02*
D03*
X1016000Y7239000D02*
D03*
X508000Y4699000D02*
D03*
Y4445000D02*
D03*
X762000Y4699000D02*
D03*
Y4445000D02*
D03*
D49*
X9082000Y8502000D02*
D03*
Y508000D02*
D03*
X508000Y889000D02*
D03*
Y8248000D02*
D03*
D50*
X2690000Y6530000D02*
D03*
X2751991Y5776807D02*
D03*
X2830000Y6550000D02*
D03*
X3327400Y8382000D02*
D03*
X3736941Y8153058D02*
D03*
X8240000Y6460000D02*
D03*
X8343900Y6286500D02*
D03*
X8432800Y6146800D02*
D03*
X6515900Y4613800D02*
D03*
X6579000Y3370000D02*
D03*
X6565900Y2273300D02*
D03*
X7924800Y2565400D02*
D03*
X7848600Y2463800D02*
D03*
X7911700Y3450000D02*
D03*
X2882900Y5664200D02*
D03*
X6210000Y4676900D02*
D03*
X4438957Y4279900D02*
D03*
X6190000Y4440000D02*
D03*
X6200000Y4520000D02*
D03*
X7442200Y3263900D02*
D03*
X2870200Y7912100D02*
D03*
X2578100Y8216900D02*
D03*
X2565400Y8343900D02*
D03*
X2716370Y7574974D02*
D03*
X2410000Y7510000D02*
D03*
X2313100Y7870000D02*
D03*
X2649266Y7540591D02*
D03*
X6629400Y4889500D02*
D03*
X2318019Y3851846D02*
D03*
X8549000Y3300000D02*
D03*
X8268100Y3080000D02*
D03*
Y1700000D02*
D03*
X8572100Y1490000D02*
D03*
X381000Y5080000D02*
D03*
Y5334000D02*
D03*
X635000D02*
D03*
X889000D02*
D03*
Y5080000D02*
D03*
X635000D02*
D03*
X330200Y6502400D02*
D03*
X1511300Y5372100D02*
D03*
X1815700Y6221200D02*
D03*
X1549400Y3644900D02*
D03*
X4925982Y4304018D02*
D03*
X7130000Y4473981D02*
D03*
X5128969Y5965669D02*
D03*
X4390000Y5841200D02*
D03*
X4680000Y5636900D02*
D03*
X4280000Y6040000D02*
D03*
X3030398Y5778100D02*
D03*
X7680000Y3240000D02*
D03*
X5240000Y3080000D02*
D03*
X7326900Y4910000D02*
D03*
X7180000Y7540000D02*
D03*
X7110000Y4823100D02*
D03*
X7590000Y4760000D02*
D03*
X7450000Y4680000D02*
D03*
X7720000Y4600000D02*
D03*
X8190000Y3550000D02*
D03*
X8120000Y3450000D02*
D03*
X8050000Y3020000D02*
D03*
X7970000Y2920000D02*
D03*
X7700000Y5080000D02*
D03*
X7600000Y4980000D02*
D03*
X7090000Y4680000D02*
D03*
X6390000Y5750000D02*
D03*
X6720000Y5610000D02*
D03*
X8480000Y5980000D02*
D03*
X5820000Y6015710D02*
D03*
X6200000Y5910000D02*
D03*
X8468162Y5530909D02*
D03*
X8470000Y5690000D02*
D03*
X8245382Y6585382D02*
D03*
X5181009Y2782557D02*
D03*
X5190000Y2930000D02*
D03*
X5200000Y4910000D02*
D03*
X3139004Y4813100D02*
D03*
X3060000Y4750000D02*
D03*
X4420000Y4876170D02*
D03*
X8418700Y6901351D02*
D03*
X1680000Y6340000D02*
D03*
X5120000Y3520000D02*
D03*
X7830000Y3550000D02*
D03*
X7760000Y3430000D02*
D03*
X8250000Y3800000D02*
D03*
X8453100Y4080000D02*
D03*
X8610000Y3950000D02*
D03*
X2850000Y4000000D02*
D03*
X2930000Y4090000D02*
D03*
X2650000Y4310000D02*
D03*
X2713100Y4190000D02*
D03*
X4430000Y3860000D02*
D03*
X2570000Y3710000D02*
D03*
X4970000Y4016900D02*
D03*
X4440000Y4400000D02*
D03*
X5020000Y3740000D02*
D03*
X4020000Y2200000D02*
D03*
X4100000Y660000D02*
D03*
X5650000Y3320000D02*
D03*
X4740000Y3396900D02*
D03*
X4450000Y3210000D02*
D03*
X2570000Y3460000D02*
D03*
X4010000Y1020000D02*
D03*
X2020000Y1700000D02*
D03*
X2700000Y2690000D02*
D03*
X2025777Y2019628D02*
D03*
X2560000Y2680000D02*
D03*
X2000000Y2340000D02*
D03*
X2550000Y2800000D02*
D03*
X5990000Y5940000D02*
D03*
X6450000Y5030000D02*
D03*
X6439430Y5143485D02*
D03*
X4489921Y5260079D02*
D03*
X4190000Y4940000D02*
D03*
X6450000Y5480000D02*
D03*
X4740000Y5040000D02*
D03*
X4175227Y5212900D02*
D03*
X4114545Y5257653D02*
D03*
X4090000Y5330000D02*
D03*
X6300000Y5770000D02*
D03*
X4320000Y6420000D02*
D03*
X4960000Y5829600D02*
D03*
X3530000Y6550000D02*
D03*
X3600000Y6460000D02*
D03*
X1760000Y3970000D02*
D03*
X2070000Y3900000D02*
D03*
X2276684Y3933316D02*
D03*
X1674978Y4038458D02*
D03*
X2310000Y4030000D02*
D03*
X2320000Y3216900D02*
D03*
X1840000Y3300000D02*
D03*
X3060000Y3280000D02*
D03*
X3140000Y3350000D02*
D03*
X1942700Y3365213D02*
D03*
X1940000Y7140000D02*
D03*
X3450000Y7210000D02*
D03*
X3390000Y7110000D02*
D03*
X2290000Y8010000D02*
D03*
X6682313Y4820787D02*
D03*
X7050000Y4290000D02*
D03*
X5880000Y4010000D02*
D03*
X5520000Y4150000D02*
D03*
X6920000Y4290000D02*
D03*
X3830000Y5520000D02*
D03*
X3890000Y4960000D02*
D03*
X3340000D02*
D03*
X2680000D02*
D03*
X2510000Y5430000D02*
D03*
X2070000Y4410000D02*
D03*
X2330000Y4390000D02*
D03*
X3440000Y3100000D02*
D03*
X4110000Y3090000D02*
D03*
X4440000Y4190000D02*
D03*
X6252018Y5378175D02*
D03*
X5410000Y5380000D02*
D03*
X5190000Y4750000D02*
D03*
Y4620000D02*
D03*
X3750000Y1290000D02*
D03*
X4580000D02*
D03*
X2610000D02*
D03*
X6330000Y1190000D02*
D03*
X6770000Y1974879D02*
D03*
X5470000Y1060000D02*
D03*
X3878957Y1102228D02*
D03*
X2760000Y1120000D02*
D03*
X2870000Y1020000D02*
D03*
X5900000Y1060000D02*
D03*
X5340000Y900000D02*
D03*
X7410000Y4360000D02*
D03*
X4720000Y1960000D02*
D03*
X5800000D02*
D03*
Y4310000D02*
D03*
X6780000Y4740000D02*
D03*
X6385293Y3374707D02*
D03*
X6330000Y2280000D02*
D03*
X6540000Y1126900D02*
D03*
X6620000Y1190000D02*
D03*
X8110000Y2090000D02*
D03*
X3170000Y5510000D02*
D03*
X6550000Y7500000D02*
D03*
X5560000Y6840000D02*
D03*
X5870000Y6710000D02*
D03*
X6340000Y7090000D02*
D03*
X5880000Y6960000D02*
D03*
X6590000Y6580000D02*
D03*
X6057500Y7815099D02*
D03*
X5690000Y7820000D02*
D03*
X5310000D02*
D03*
X5260000Y7360000D02*
D03*
X5690000Y7430000D02*
D03*
X5550000Y7370000D02*
D03*
X3710000Y7920000D02*
D03*
X3310000Y7820000D02*
D03*
X2860000Y8180000D02*
D03*
X780000Y420000D02*
D03*
X8490000Y340000D02*
D03*
X6813844Y858469D02*
D03*
X7470000Y1330000D02*
D03*
X4020000Y7980000D02*
D03*
X4230000Y7740000D02*
D03*
X4410000Y7970000D02*
D03*
X4990000Y7860000D02*
D03*
X5490000Y7840000D02*
D03*
X5870000Y7850000D02*
D03*
X6170000Y7970000D02*
D03*
X6580000Y7960000D02*
D03*
X6360000Y7730000D02*
D03*
X6790000Y7740000D02*
D03*
X7000000Y7970000D02*
D03*
X7680000Y7850000D02*
D03*
X7740000Y7980000D02*
D03*
X8120000D02*
D03*
X8470000Y8650000D02*
D03*
X9390000Y7380000D02*
D03*
X9380000Y7740000D02*
D03*
X9230000Y7310000D02*
D03*
X9340000Y5230000D02*
D03*
X9250000Y4200000D02*
D03*
X9340000Y5010000D02*
D03*
X9360000Y4650000D02*
D03*
X9380000Y3880000D02*
D03*
X9390000Y3470000D02*
D03*
X5880000Y2910000D02*
D03*
Y1820000D02*
D03*
X2960000Y650000D02*
D03*
X4700000Y390000D02*
D03*
X6350000Y6975000D02*
D03*
X4320000Y7270000D02*
D03*
X5000000Y6975000D02*
D03*
Y7050000D02*
D03*
Y7125000D02*
D03*
Y7200000D02*
D03*
X4325000Y6975000D02*
D03*
Y7050000D02*
D03*
Y7125000D02*
D03*
Y7200000D02*
D03*
X5000000Y7270000D02*
D03*
X2570000Y8540000D02*
D03*
%TF.MD5,ba6ed6239981e7c5b0042c189ad3ee2b*%
M02*
