%TF.GenerationSoftware,Altium Limited,Altium Designer,21.8.1 (53)*%
G04 Layer_Color=255*
%FSLAX45Y45*%
%MOMM*%
%TF.SameCoordinates,1CF0B822-2DD9-431B-A6BE-AAED35006C4B*%
%TF.FilePolarity,Positive*%
%TF.FileFunction,Pads,Bot*%
%TF.Part,Single*%
G01*
G75*
%TA.AperFunction,SMDPad,CuDef*%
%ADD12R,0.90000X0.80000*%
%TA.AperFunction,ComponentPad*%
%ADD36C,0.85000*%
%ADD37R,0.85000X0.85000*%
%ADD38C,1.37000*%
%ADD39R,1.37000X1.37000*%
%ADD40R,1.37000X1.37000*%
%ADD41C,6.35000*%
%TA.AperFunction,SMDPad,CuDef*%
%ADD52R,1.46050X0.53340*%
G04:AMPARAMS|DCode=53|XSize=1.98mm|YSize=0.53mm|CornerRadius=0.06625mm|HoleSize=0mm|Usage=FLASHONLY|Rotation=0.000|XOffset=0mm|YOffset=0mm|HoleType=Round|Shape=RoundedRectangle|*
%AMROUNDEDRECTD53*
21,1,1.98000,0.39750,0,0,0.0*
21,1,1.84750,0.53000,0,0,0.0*
1,1,0.13250,0.92375,-0.19875*
1,1,0.13250,-0.92375,-0.19875*
1,1,0.13250,-0.92375,0.19875*
1,1,0.13250,0.92375,0.19875*
%
%ADD53ROUNDEDRECTD53*%
%ADD54R,1.60000X0.80000*%
%ADD55R,3.00000X2.10000*%
%ADD56R,2.10000X3.00000*%
%ADD57R,0.80000X1.60000*%
D12*
X3210000Y8370000D02*
D03*
Y8230000D02*
D03*
Y8090000D02*
D03*
Y7950000D02*
D03*
X3360000Y8230000D02*
D03*
Y8090000D02*
D03*
X6590000Y7360000D02*
D03*
Y7220000D02*
D03*
X6440000Y7500000D02*
D03*
Y7360000D02*
D03*
Y7220000D02*
D03*
Y7080000D02*
D03*
X5310000Y6460000D02*
D03*
Y6600000D02*
D03*
X5460000Y6320000D02*
D03*
Y6460000D02*
D03*
Y6600000D02*
D03*
Y6740000D02*
D03*
X5450000Y7090000D02*
D03*
Y6950000D02*
D03*
X5300000Y7230000D02*
D03*
Y7090000D02*
D03*
X5450000Y7370000D02*
D03*
Y7230000D02*
D03*
D36*
X2050000Y8350000D02*
D03*
Y8225000D02*
D03*
Y8100000D02*
D03*
Y7975000D02*
D03*
Y7850000D02*
D03*
Y7725000D02*
D03*
Y7600000D02*
D03*
Y7475000D02*
D03*
Y7350000D02*
D03*
X3620000Y8355000D02*
D03*
Y8230000D02*
D03*
Y8105000D02*
D03*
Y7980000D02*
D03*
Y7855000D02*
D03*
Y7730000D02*
D03*
Y7605000D02*
D03*
Y7480000D02*
D03*
Y7355000D02*
D03*
D37*
X2050000Y7225000D02*
D03*
X3620000Y7230000D02*
D03*
D38*
X6770000Y150000D02*
D03*
X7024000D02*
D03*
X7278000D02*
D03*
X7532000D02*
D03*
X7786000D02*
D03*
X5050000D02*
D03*
X5304000D02*
D03*
X5558000D02*
D03*
X5812000D02*
D03*
X6066000D02*
D03*
X1016000Y6477000D02*
D03*
Y6223000D02*
D03*
Y5715000D02*
D03*
Y5969000D02*
D03*
Y5207000D02*
D03*
Y4953000D02*
D03*
Y4699000D02*
D03*
Y4191000D02*
D03*
Y4445000D02*
D03*
Y3683000D02*
D03*
Y3175000D02*
D03*
Y3937000D02*
D03*
Y3429000D02*
D03*
Y5461000D02*
D03*
Y6731000D02*
D03*
X1270000Y2667000D02*
D03*
Y3429000D02*
D03*
Y3175000D02*
D03*
Y2921000D02*
D03*
Y3683000D02*
D03*
Y4191000D02*
D03*
Y1651000D02*
D03*
Y2159000D02*
D03*
Y2413000D02*
D03*
Y1905000D02*
D03*
Y3937000D02*
D03*
X1016000Y7747000D02*
D03*
Y6985000D02*
D03*
Y7493000D02*
D03*
X1270000Y7239000D02*
D03*
Y7493000D02*
D03*
X1016000Y7239000D02*
D03*
X1270000Y7747000D02*
D03*
Y6985000D02*
D03*
Y6477000D02*
D03*
Y6223000D02*
D03*
Y5969000D02*
D03*
Y5715000D02*
D03*
Y5461000D02*
D03*
Y5207000D02*
D03*
Y4699000D02*
D03*
Y4445000D02*
D03*
Y6731000D02*
D03*
Y4953000D02*
D03*
X1016000Y2413000D02*
D03*
Y2667000D02*
D03*
Y1905000D02*
D03*
Y2921000D02*
D03*
Y1397000D02*
D03*
Y2159000D02*
D03*
Y1651000D02*
D03*
X508000Y6477000D02*
D03*
Y6223000D02*
D03*
Y5715000D02*
D03*
Y5969000D02*
D03*
Y5207000D02*
D03*
Y4953000D02*
D03*
Y4699000D02*
D03*
Y4191000D02*
D03*
Y4445000D02*
D03*
Y3683000D02*
D03*
Y3175000D02*
D03*
Y3937000D02*
D03*
Y3429000D02*
D03*
Y5461000D02*
D03*
Y6731000D02*
D03*
X762000Y2667000D02*
D03*
Y3429000D02*
D03*
Y3175000D02*
D03*
Y2921000D02*
D03*
Y3683000D02*
D03*
Y4191000D02*
D03*
Y1651000D02*
D03*
Y2159000D02*
D03*
Y2413000D02*
D03*
Y1905000D02*
D03*
Y3937000D02*
D03*
X508000Y7747000D02*
D03*
Y6985000D02*
D03*
Y7493000D02*
D03*
X762000Y7239000D02*
D03*
Y7493000D02*
D03*
X508000Y7239000D02*
D03*
X762000Y7747000D02*
D03*
Y6985000D02*
D03*
Y6477000D02*
D03*
Y6223000D02*
D03*
Y5969000D02*
D03*
Y5715000D02*
D03*
Y5461000D02*
D03*
Y5207000D02*
D03*
Y4699000D02*
D03*
Y4445000D02*
D03*
Y6731000D02*
D03*
Y4953000D02*
D03*
X508000Y2413000D02*
D03*
Y2667000D02*
D03*
Y1905000D02*
D03*
Y2921000D02*
D03*
Y1397000D02*
D03*
Y2159000D02*
D03*
Y1651000D02*
D03*
D39*
X8040000Y150000D02*
D03*
X6320000D02*
D03*
D40*
X1270000Y1397000D02*
D03*
X762000D02*
D03*
D41*
X9082000Y8502000D02*
D03*
Y508000D02*
D03*
X508000Y889000D02*
D03*
Y8248000D02*
D03*
D52*
X2457585Y7839000D02*
D03*
Y7966000D02*
D03*
Y8093000D02*
D03*
Y8220000D02*
D03*
Y8347000D02*
D03*
Y8474000D02*
D03*
Y8601000D02*
D03*
X3002415D02*
D03*
Y8474000D02*
D03*
Y8347000D02*
D03*
Y8220000D02*
D03*
Y8093000D02*
D03*
Y7966000D02*
D03*
Y7839000D02*
D03*
D53*
X5696000Y6463000D02*
D03*
Y6590000D02*
D03*
Y6717000D02*
D03*
Y6844000D02*
D03*
Y6971000D02*
D03*
Y7098000D02*
D03*
Y7225000D02*
D03*
Y7352000D02*
D03*
X6189000D02*
D03*
Y7225000D02*
D03*
Y7098000D02*
D03*
Y6971000D02*
D03*
Y6844000D02*
D03*
Y6717000D02*
D03*
Y6590000D02*
D03*
Y6463000D02*
D03*
D54*
X8260000Y2837500D02*
D03*
Y2712500D02*
D03*
Y2587500D02*
D03*
Y2462500D02*
D03*
Y2337500D02*
D03*
Y2212500D02*
D03*
Y2087500D02*
D03*
Y1962500D02*
D03*
D55*
X8550000Y1707500D02*
D03*
Y3092500D02*
D03*
D56*
X4240000Y7980000D02*
D03*
X6375000D02*
D03*
X6802500Y7980000D02*
D03*
X7937500D02*
D03*
D57*
X6120000Y7690000D02*
D03*
X5995000D02*
D03*
X5870000D02*
D03*
X5745000D02*
D03*
X5620000D02*
D03*
X5495000D02*
D03*
X5370000D02*
D03*
X5245000D02*
D03*
X5120000D02*
D03*
X4995000D02*
D03*
X4870000D02*
D03*
X4745000D02*
D03*
X4620000D02*
D03*
X4495000D02*
D03*
X7307500Y7690000D02*
D03*
X7682500D02*
D03*
X7557500D02*
D03*
X7432500D02*
D03*
X7182500D02*
D03*
X7057500D02*
D03*
%TF.MD5,2b6ddfb3597b36c355f76bebbc169079*%
M02*
