G04*
G04 #@! TF.GenerationSoftware,Altium Limited,Altium Designer,21.8.1 (53)*
G04*
G04 Layer_Color=255*
%FSLAX44Y44*%
%MOMM*%
G71*
G04*
G04 #@! TF.SameCoordinates,50A5A8F4-FCC5-4A63-BB33-6A8E803C0949*
G04*
G04*
G04 #@! TF.FilePolarity,Positive*
G04*
G01*
G75*
%ADD15C,0.2540*%
%ADD19R,3.0000X2.1000*%
%ADD20R,1.6000X0.8000*%
%ADD21R,0.3000X0.9000*%
%ADD22R,0.8000X0.9000*%
%ADD23R,3.4200X1.4900*%
%ADD24R,0.3500X1.4000*%
%ADD25R,0.9000X0.8000*%
%ADD26R,0.5500X0.5500*%
%ADD27R,0.8000X0.8000*%
%ADD28R,1.4000X0.3500*%
%ADD29R,0.8000X0.8000*%
%ADD30R,3.5000X0.6000*%
%ADD31R,0.6000X3.5000*%
%ADD32R,0.3500X1.3500*%
%ADD33R,1.3500X0.3500*%
%ADD34R,0.5500X0.5500*%
%ADD35R,1.5000X1.7000*%
%ADD36R,1.7800X0.4200*%
%ADD37R,1.8000X1.4000*%
%ADD46R,3.0500X3.0500*%
%ADD67C,0.8500*%
%ADD68R,0.8500X0.8500*%
%ADD69C,1.3700*%
%ADD70R,1.3700X1.3700*%
%ADD71R,1.3700X1.3700*%
%ADD72C,6.3500*%
D15*
X215300Y96520D02*
X248100D01*
X215300Y128820D02*
X248100D01*
X215300Y96520D02*
Y128820D01*
X248100Y96520D02*
Y128820D01*
X345550Y94340D02*
X378350D01*
X345550Y126640D02*
X378350D01*
X345550Y94340D02*
Y126640D01*
X378350Y94340D02*
Y126640D01*
X876155Y325428D02*
X958655D01*
X876155Y150000D02*
Y325428D01*
X959000D02*
X959000Y901700D01*
X876155Y150000D02*
X959000D01*
Y0D02*
Y150000D01*
X0Y901000D02*
X405000D01*
X812500Y901700D02*
X959000Y901700D01*
X405000Y818750D02*
X812500D01*
Y901250D01*
X405000Y818750D02*
Y901000D01*
X0Y0D02*
Y901000D01*
Y0D02*
X959000D01*
D19*
X937500Y543140D02*
D03*
Y756640D02*
D03*
Y370250D02*
D03*
Y483750D02*
D03*
D20*
X908500Y731140D02*
D03*
Y718640D02*
D03*
Y706140D02*
D03*
Y693640D02*
D03*
Y681140D02*
D03*
Y668640D02*
D03*
Y656140D02*
D03*
Y643640D02*
D03*
Y631140D02*
D03*
Y618640D02*
D03*
Y606140D02*
D03*
Y593640D02*
D03*
Y581140D02*
D03*
Y568640D02*
D03*
Y420750D02*
D03*
Y458250D02*
D03*
Y445750D02*
D03*
Y433250D02*
D03*
Y408250D02*
D03*
Y395750D02*
D03*
D21*
X228450Y128820D02*
D03*
Y96520D02*
D03*
X234950Y128820D02*
D03*
Y96520D02*
D03*
X221950D02*
D03*
X241450D02*
D03*
X221950Y128820D02*
D03*
X241450D02*
D03*
X358700Y126640D02*
D03*
Y94340D02*
D03*
X365200Y126640D02*
D03*
Y94340D02*
D03*
X352200D02*
D03*
X371700D02*
D03*
X352200Y126640D02*
D03*
X371700D02*
D03*
D22*
X365540Y65670D02*
D03*
X379540D02*
D03*
X351540D02*
D03*
X337540D02*
D03*
X208280Y67310D02*
D03*
X222280D02*
D03*
X250280D02*
D03*
X236280D02*
D03*
X239380Y154940D02*
D03*
X253380D02*
D03*
X352440Y153670D02*
D03*
X338440D02*
D03*
X561000Y477163D02*
D03*
X575000D02*
D03*
X561000Y492827D02*
D03*
X575000D02*
D03*
X498000Y182000D02*
D03*
X484000D02*
D03*
X456000D02*
D03*
X470000D02*
D03*
X532000D02*
D03*
X546000D02*
D03*
X786000Y209000D02*
D03*
X800000D02*
D03*
X180000Y760000D02*
D03*
X166000D02*
D03*
X180000Y811000D02*
D03*
X166000D02*
D03*
X502000Y308000D02*
D03*
X488000D02*
D03*
X502000Y293000D02*
D03*
X488000D02*
D03*
X502000Y278000D02*
D03*
X488000D02*
D03*
X671000Y503000D02*
D03*
X657000D02*
D03*
X561000Y461500D02*
D03*
X575000D02*
D03*
X561000Y445837D02*
D03*
X575000D02*
D03*
X243000Y787000D02*
D03*
X257000D02*
D03*
X257000Y802000D02*
D03*
X243000D02*
D03*
X525750Y616750D02*
D03*
X539750D02*
D03*
X468000Y574000D02*
D03*
X482000D02*
D03*
X317000Y772000D02*
D03*
X331000D02*
D03*
X872200Y614300D02*
D03*
X858200D02*
D03*
X872200Y629540D02*
D03*
X858200D02*
D03*
X872200Y644780D02*
D03*
X858200D02*
D03*
X872200Y660020D02*
D03*
X858200D02*
D03*
X858200Y675260D02*
D03*
X872200D02*
D03*
X858200Y690500D02*
D03*
X872200D02*
D03*
X872200Y705740D02*
D03*
X858200D02*
D03*
X858200Y720980D02*
D03*
X872200D02*
D03*
X872200Y553340D02*
D03*
X858200D02*
D03*
X872200Y568580D02*
D03*
X858200D02*
D03*
X872200Y583820D02*
D03*
X858200D02*
D03*
X872200Y599060D02*
D03*
X858200D02*
D03*
X858200Y736220D02*
D03*
X872200D02*
D03*
X875210Y461040D02*
D03*
X861210D02*
D03*
X875210Y430560D02*
D03*
X861210D02*
D03*
X875210Y445800D02*
D03*
X861210D02*
D03*
X875210Y415320D02*
D03*
X861210D02*
D03*
X64500Y42500D02*
D03*
X50500D02*
D03*
X35500Y875000D02*
D03*
X49500D02*
D03*
X212000Y308000D02*
D03*
X226000D02*
D03*
X207000Y430000D02*
D03*
X221000D02*
D03*
X207000Y378000D02*
D03*
X221000D02*
D03*
X166000Y735000D02*
D03*
X180000D02*
D03*
X166000Y796000D02*
D03*
X180000D02*
D03*
X497000Y391000D02*
D03*
X483000D02*
D03*
X497000Y441000D02*
D03*
X483000D02*
D03*
X507000Y461000D02*
D03*
X493000D02*
D03*
X507000Y476000D02*
D03*
X493000D02*
D03*
X507000Y491000D02*
D03*
X493000D02*
D03*
X474000Y516000D02*
D03*
X460000D02*
D03*
X497000Y323000D02*
D03*
X483000D02*
D03*
X502000Y346000D02*
D03*
X488000D02*
D03*
X502000Y361000D02*
D03*
X488000D02*
D03*
X175500Y235000D02*
D03*
X189500D02*
D03*
X175500Y202500D02*
D03*
X189500D02*
D03*
X175500Y170000D02*
D03*
X189500D02*
D03*
X645000Y646000D02*
D03*
X659000D02*
D03*
D23*
X470000Y657500D02*
D03*
Y715780D02*
D03*
D24*
X265000Y768750D02*
D03*
X271500D02*
D03*
X278000D02*
D03*
X284500D02*
D03*
X291000D02*
D03*
X284500Y711250D02*
D03*
X291000D02*
D03*
X297500D02*
D03*
X278000D02*
D03*
X271500D02*
D03*
X265000D02*
D03*
X258500D02*
D03*
Y768750D02*
D03*
X297500D02*
D03*
X626234Y561580D02*
D03*
Y619080D02*
D03*
X632734D02*
D03*
X639234D02*
D03*
X645734D02*
D03*
X652234D02*
D03*
X658734D02*
D03*
X652234Y561580D02*
D03*
X658734D02*
D03*
X665234D02*
D03*
Y619080D02*
D03*
X645734Y561580D02*
D03*
X639234D02*
D03*
X632734D02*
D03*
D25*
X21590Y698500D02*
D03*
Y684500D02*
D03*
X409000Y231000D02*
D03*
Y245000D02*
D03*
X383000Y540000D02*
D03*
Y526000D02*
D03*
X424000Y258000D02*
D03*
Y272000D02*
D03*
X731000Y374000D02*
D03*
Y388000D02*
D03*
Y416000D02*
D03*
Y402000D02*
D03*
X624890Y525612D02*
D03*
Y511612D02*
D03*
X609650Y525612D02*
D03*
Y511612D02*
D03*
X241000Y725000D02*
D03*
Y739000D02*
D03*
X402250Y618000D02*
D03*
Y632000D02*
D03*
X541250Y602250D02*
D03*
Y588250D02*
D03*
X496500Y560500D02*
D03*
Y574500D02*
D03*
X556250Y602250D02*
D03*
Y588250D02*
D03*
X511500Y560500D02*
D03*
Y574500D02*
D03*
X526250Y602250D02*
D03*
Y588250D02*
D03*
X731000Y338000D02*
D03*
Y324000D02*
D03*
Y119000D02*
D03*
Y133000D02*
D03*
Y197000D02*
D03*
Y183000D02*
D03*
Y155000D02*
D03*
Y169000D02*
D03*
Y265000D02*
D03*
Y279000D02*
D03*
Y228000D02*
D03*
Y214000D02*
D03*
Y307000D02*
D03*
Y293000D02*
D03*
X271000Y840000D02*
D03*
Y854000D02*
D03*
X267990Y666000D02*
D03*
Y680000D02*
D03*
X283000Y666000D02*
D03*
Y680000D02*
D03*
X263450Y542940D02*
D03*
Y528940D02*
D03*
X862500Y35500D02*
D03*
Y49500D02*
D03*
X860000Y865000D02*
D03*
Y851000D02*
D03*
X454000Y258000D02*
D03*
Y272000D02*
D03*
X289000Y264000D02*
D03*
Y278000D02*
D03*
X334000Y258000D02*
D03*
Y272000D02*
D03*
X288290Y526400D02*
D03*
Y540400D02*
D03*
X303328Y526472D02*
D03*
Y540472D02*
D03*
X318770Y540400D02*
D03*
Y526400D02*
D03*
X439000Y258000D02*
D03*
Y272000D02*
D03*
X155000Y673000D02*
D03*
Y687000D02*
D03*
Y634000D02*
D03*
Y648000D02*
D03*
X594000Y605000D02*
D03*
Y619000D02*
D03*
X610000Y619000D02*
D03*
Y605000D02*
D03*
X643000Y697000D02*
D03*
Y683000D02*
D03*
X610000Y577000D02*
D03*
Y591000D02*
D03*
D26*
X167340Y521670D02*
D03*
Y512670D02*
D03*
X348000Y250500D02*
D03*
Y259500D02*
D03*
X171410Y340240D02*
D03*
Y349240D02*
D03*
D27*
X150830Y528650D02*
D03*
Y512150D02*
D03*
X154900Y339090D02*
D03*
Y355590D02*
D03*
X21590Y666740D02*
D03*
Y650240D02*
D03*
D28*
X441552Y635250D02*
D03*
Y628750D02*
D03*
Y622250D02*
D03*
Y615750D02*
D03*
Y609250D02*
D03*
Y602750D02*
D03*
Y596250D02*
D03*
Y589750D02*
D03*
X498448D02*
D03*
Y596250D02*
D03*
Y602750D02*
D03*
Y609250D02*
D03*
Y615750D02*
D03*
Y622250D02*
D03*
Y628750D02*
D03*
Y635250D02*
D03*
D29*
X174250Y217500D02*
D03*
X190750D02*
D03*
X174250Y185000D02*
D03*
X190750D02*
D03*
X174250Y252500D02*
D03*
X190750D02*
D03*
D30*
X611672Y376044D02*
D03*
Y388744D02*
D03*
Y401444D02*
D03*
Y414144D02*
D03*
X701672D02*
D03*
Y401444D02*
D03*
Y388744D02*
D03*
Y376044D02*
D03*
Y363344D02*
D03*
Y325244D02*
D03*
Y337944D02*
D03*
Y350644D02*
D03*
X611672Y363344D02*
D03*
Y350644D02*
D03*
Y337944D02*
D03*
Y325244D02*
D03*
Y157350D02*
D03*
Y170050D02*
D03*
Y182750D02*
D03*
Y195450D02*
D03*
X701672D02*
D03*
Y182750D02*
D03*
Y170050D02*
D03*
Y157350D02*
D03*
Y144650D02*
D03*
Y106550D02*
D03*
Y119250D02*
D03*
Y131950D02*
D03*
X611672Y144650D02*
D03*
Y131950D02*
D03*
Y119250D02*
D03*
Y106550D02*
D03*
Y266316D02*
D03*
Y279016D02*
D03*
Y291716D02*
D03*
Y304416D02*
D03*
X701672D02*
D03*
Y291716D02*
D03*
Y279016D02*
D03*
Y266316D02*
D03*
Y253616D02*
D03*
Y215516D02*
D03*
Y228216D02*
D03*
Y240916D02*
D03*
X611672Y253616D02*
D03*
Y240916D02*
D03*
Y228216D02*
D03*
Y215516D02*
D03*
D31*
X495688Y62672D02*
D03*
X482988D02*
D03*
X470288D02*
D03*
X457588D02*
D03*
Y152672D02*
D03*
X470288D02*
D03*
X482988D02*
D03*
X495688D02*
D03*
X508388D02*
D03*
X546488D02*
D03*
X533788D02*
D03*
X521088D02*
D03*
X508388Y62672D02*
D03*
X521088D02*
D03*
X533788D02*
D03*
X546488D02*
D03*
D32*
X264000Y297000D02*
D03*
X269000D02*
D03*
X274000D02*
D03*
X279000D02*
D03*
X284000D02*
D03*
X289000D02*
D03*
X294000D02*
D03*
X299000D02*
D03*
X304000D02*
D03*
X309000D02*
D03*
X314000D02*
D03*
X319000D02*
D03*
X324000D02*
D03*
X329000D02*
D03*
X334000D02*
D03*
X339000D02*
D03*
X344000D02*
D03*
X349000D02*
D03*
X354000D02*
D03*
X359000D02*
D03*
X364000D02*
D03*
X369000D02*
D03*
X374000D02*
D03*
X379000D02*
D03*
X384000D02*
D03*
X389000D02*
D03*
X394000D02*
D03*
X399000D02*
D03*
X404000D02*
D03*
X409000D02*
D03*
X414000D02*
D03*
X419000D02*
D03*
X424000D02*
D03*
X429000D02*
D03*
X434000D02*
D03*
X439000D02*
D03*
Y509500D02*
D03*
X434000D02*
D03*
X429000D02*
D03*
X424000D02*
D03*
X419000D02*
D03*
X414000D02*
D03*
X409000D02*
D03*
X404000D02*
D03*
X399000D02*
D03*
X394000D02*
D03*
X389000D02*
D03*
X384000D02*
D03*
X379000D02*
D03*
X374000D02*
D03*
X369000D02*
D03*
X364000D02*
D03*
X359000D02*
D03*
X354000D02*
D03*
X349000D02*
D03*
X344000D02*
D03*
X339000D02*
D03*
X334000D02*
D03*
X329000D02*
D03*
X324000D02*
D03*
X319000D02*
D03*
X314000D02*
D03*
X309000D02*
D03*
X304000D02*
D03*
X299000D02*
D03*
X294000D02*
D03*
X289000D02*
D03*
X284000D02*
D03*
X279000D02*
D03*
X274000D02*
D03*
X269000D02*
D03*
X264000D02*
D03*
D33*
X457750Y315750D02*
D03*
Y320750D02*
D03*
Y325750D02*
D03*
Y330750D02*
D03*
Y335750D02*
D03*
Y340750D02*
D03*
Y345750D02*
D03*
Y350750D02*
D03*
Y355750D02*
D03*
Y360750D02*
D03*
Y365750D02*
D03*
Y370750D02*
D03*
Y375750D02*
D03*
Y380750D02*
D03*
Y385750D02*
D03*
Y390750D02*
D03*
Y395750D02*
D03*
Y400750D02*
D03*
Y405750D02*
D03*
Y410750D02*
D03*
Y415750D02*
D03*
Y420750D02*
D03*
Y425750D02*
D03*
Y430750D02*
D03*
Y435750D02*
D03*
Y440750D02*
D03*
Y445750D02*
D03*
Y450750D02*
D03*
Y455750D02*
D03*
Y460750D02*
D03*
Y465750D02*
D03*
Y470750D02*
D03*
Y475750D02*
D03*
Y480750D02*
D03*
Y485750D02*
D03*
Y490750D02*
D03*
X245250D02*
D03*
Y485750D02*
D03*
Y480750D02*
D03*
Y475750D02*
D03*
Y470750D02*
D03*
Y465750D02*
D03*
Y460750D02*
D03*
Y455750D02*
D03*
Y450750D02*
D03*
Y445750D02*
D03*
Y440750D02*
D03*
Y435750D02*
D03*
Y430750D02*
D03*
Y425750D02*
D03*
Y420750D02*
D03*
Y415750D02*
D03*
Y410750D02*
D03*
Y405750D02*
D03*
Y400750D02*
D03*
Y395750D02*
D03*
Y390750D02*
D03*
Y385750D02*
D03*
Y380750D02*
D03*
Y375750D02*
D03*
Y370750D02*
D03*
Y365750D02*
D03*
Y360750D02*
D03*
Y355750D02*
D03*
Y350750D02*
D03*
Y345750D02*
D03*
Y340750D02*
D03*
Y335750D02*
D03*
Y330750D02*
D03*
Y325750D02*
D03*
Y320750D02*
D03*
Y315750D02*
D03*
D34*
X367000Y214000D02*
D03*
X376000D02*
D03*
D35*
X389000Y235300D02*
D03*
Y260700D02*
D03*
X367000D02*
D03*
Y235300D02*
D03*
D36*
X693400Y456250D02*
D03*
X634600D02*
D03*
X693400Y488750D02*
D03*
Y482250D02*
D03*
Y475750D02*
D03*
Y469250D02*
D03*
Y462750D02*
D03*
Y449750D02*
D03*
Y443250D02*
D03*
X634600D02*
D03*
Y449750D02*
D03*
Y462750D02*
D03*
Y469250D02*
D03*
Y475750D02*
D03*
Y482250D02*
D03*
Y488750D02*
D03*
D37*
X20000Y496000D02*
D03*
Y470000D02*
D03*
Y417000D02*
D03*
Y443000D02*
D03*
D46*
X470000Y612500D02*
D03*
D67*
X205000Y835000D02*
D03*
Y822500D02*
D03*
Y810000D02*
D03*
Y797500D02*
D03*
Y785000D02*
D03*
Y772500D02*
D03*
Y760000D02*
D03*
Y747500D02*
D03*
Y735000D02*
D03*
X362000Y835500D02*
D03*
Y823000D02*
D03*
Y810500D02*
D03*
Y798000D02*
D03*
Y785500D02*
D03*
Y773000D02*
D03*
Y760500D02*
D03*
Y748000D02*
D03*
Y735500D02*
D03*
D68*
X205000Y722500D02*
D03*
X362000Y723000D02*
D03*
D69*
X677000Y15000D02*
D03*
X702400D02*
D03*
X727800D02*
D03*
X753200D02*
D03*
X778600D02*
D03*
X505000D02*
D03*
X530400D02*
D03*
X555800D02*
D03*
X581200D02*
D03*
X606600D02*
D03*
X101600Y647700D02*
D03*
Y622300D02*
D03*
Y571500D02*
D03*
Y596900D02*
D03*
Y520700D02*
D03*
Y495300D02*
D03*
Y469900D02*
D03*
Y419100D02*
D03*
Y444500D02*
D03*
Y368300D02*
D03*
Y317500D02*
D03*
Y393700D02*
D03*
Y342900D02*
D03*
Y546100D02*
D03*
Y673100D02*
D03*
X127000Y266700D02*
D03*
Y342900D02*
D03*
Y317500D02*
D03*
Y292100D02*
D03*
Y368300D02*
D03*
Y419100D02*
D03*
Y165100D02*
D03*
Y215900D02*
D03*
Y241300D02*
D03*
Y190500D02*
D03*
Y393700D02*
D03*
X101600Y774700D02*
D03*
Y698500D02*
D03*
Y749300D02*
D03*
X127000Y723900D02*
D03*
Y749300D02*
D03*
X101600Y723900D02*
D03*
X127000Y774700D02*
D03*
Y698500D02*
D03*
Y647700D02*
D03*
Y622300D02*
D03*
Y596900D02*
D03*
Y571500D02*
D03*
Y546100D02*
D03*
Y520700D02*
D03*
Y469900D02*
D03*
Y444500D02*
D03*
Y673100D02*
D03*
Y495300D02*
D03*
X101600Y241300D02*
D03*
Y266700D02*
D03*
Y190500D02*
D03*
Y292100D02*
D03*
Y139700D02*
D03*
Y215900D02*
D03*
Y165100D02*
D03*
X50800Y647700D02*
D03*
Y622300D02*
D03*
Y571500D02*
D03*
Y596900D02*
D03*
Y520700D02*
D03*
Y495300D02*
D03*
Y469900D02*
D03*
Y419100D02*
D03*
Y444500D02*
D03*
Y368300D02*
D03*
Y317500D02*
D03*
Y393700D02*
D03*
Y342900D02*
D03*
Y546100D02*
D03*
Y673100D02*
D03*
X76200Y266700D02*
D03*
Y342900D02*
D03*
Y317500D02*
D03*
Y292100D02*
D03*
Y368300D02*
D03*
Y419100D02*
D03*
Y165100D02*
D03*
Y215900D02*
D03*
Y241300D02*
D03*
Y190500D02*
D03*
Y393700D02*
D03*
X50800Y774700D02*
D03*
Y698500D02*
D03*
Y749300D02*
D03*
X76200Y723900D02*
D03*
Y749300D02*
D03*
X50800Y723900D02*
D03*
X76200Y774700D02*
D03*
Y698500D02*
D03*
Y647700D02*
D03*
Y622300D02*
D03*
Y596900D02*
D03*
Y571500D02*
D03*
Y546100D02*
D03*
Y520700D02*
D03*
Y469900D02*
D03*
Y444500D02*
D03*
Y673100D02*
D03*
Y495300D02*
D03*
X50800Y241300D02*
D03*
Y266700D02*
D03*
Y190500D02*
D03*
Y292100D02*
D03*
Y139700D02*
D03*
Y215900D02*
D03*
Y165100D02*
D03*
D70*
X804000Y15000D02*
D03*
X632000D02*
D03*
D71*
X127000Y139700D02*
D03*
X76200D02*
D03*
D72*
X908200Y850200D02*
D03*
Y50800D02*
D03*
X50800Y88900D02*
D03*
Y824800D02*
D03*
M02*
