%TF.GenerationSoftware,Altium Limited,Altium Designer,21.8.1 (53)*%
G04 Layer_Color=65535*
%FSLAX45Y45*%
%MOMM*%
%TF.SameCoordinates,1CF0B822-2DD9-431B-A6BE-AAED35006C4B*%
%TF.FilePolarity,Positive*%
%TF.FileFunction,Legend,Top*%
%TF.Part,Single*%
G01*
G75*
%TA.AperFunction,NonConductor*%
%ADD43C,0.25400*%
%ADD59C,0.20000*%
%ADD60C,0.15240*%
%ADD61C,0.12700*%
%ADD62C,0.20320*%
%ADD71C,0.25000*%
%ADD72C,0.10000*%
%ADD73C,0.38100*%
%ADD74R,2.20000X0.40000*%
D43*
X5450000Y280000D02*
Y410000D01*
X5927267Y284196D02*
Y414196D01*
X4165600Y88900D02*
Y241251D01*
X4267167Y88900D01*
Y241251D01*
X4317951Y88900D02*
Y241251D01*
X4394126D01*
X4419518Y215859D01*
Y165075D01*
X4394126Y139683D01*
X4317951D01*
X4368734D02*
X4419518Y88900D01*
X4571869Y215859D02*
X4546477Y241251D01*
X4495693D01*
X4470301Y215859D01*
Y190467D01*
X4495693Y165075D01*
X4546477D01*
X4571869Y139683D01*
Y114292D01*
X4546477Y88900D01*
X4495693D01*
X4470301Y114292D01*
X4622652Y241251D02*
X4724219D01*
X4673436D01*
Y88900D01*
X6005400Y487751D02*
Y335400D01*
X6081575D01*
X6106967Y360792D01*
Y386183D01*
X6081575Y411575D01*
X6005400D01*
X6081575D01*
X6106967Y436967D01*
Y462359D01*
X6081575Y487751D01*
X6005400D01*
X6233926D02*
X6183143D01*
X6157751Y462359D01*
Y360792D01*
X6183143Y335400D01*
X6233926D01*
X6259318Y360792D01*
Y462359D01*
X6233926Y487751D01*
X6386277D02*
X6335493D01*
X6310101Y462359D01*
Y360792D01*
X6335493Y335400D01*
X6386277D01*
X6411669Y360792D01*
Y462359D01*
X6386277Y487751D01*
X6462452D02*
X6564019D01*
X6513236D01*
Y335400D01*
X7237002Y511365D02*
X7211610Y536757D01*
X7160826D01*
X7135435Y511365D01*
Y485973D01*
X7160826Y460582D01*
X7211610D01*
X7237002Y435190D01*
Y409798D01*
X7211610Y384406D01*
X7160826D01*
X7135435Y409798D01*
X7287785Y536757D02*
Y384406D01*
X7338569Y435190D01*
X7389353Y384406D01*
Y536757D01*
X7440136D02*
Y384406D01*
X7516311D01*
X7541703Y409798D01*
Y511365D01*
X7516311Y536757D01*
X7440136D01*
X8316967Y4922359D02*
X8291575Y4947751D01*
X8240792D01*
X8215400Y4922359D01*
Y4896967D01*
X8240792Y4871575D01*
X8291575D01*
X8316967Y4846184D01*
Y4820792D01*
X8291575Y4795400D01*
X8240792D01*
X8215400Y4820792D01*
X8367751Y4947751D02*
Y4795400D01*
X8418534Y4846184D01*
X8469318Y4795400D01*
Y4947751D01*
X8520101D02*
Y4795400D01*
X8596277D01*
X8621669Y4820792D01*
Y4922359D01*
X8596277Y4947751D01*
X8520101D01*
X8315400Y7967751D02*
Y7840792D01*
X8340792Y7815400D01*
X8391575D01*
X8416967Y7840792D01*
Y7967751D01*
X8467751Y7815400D02*
Y7916967D01*
X8493143D01*
X8518534Y7891575D01*
Y7815400D01*
Y7891575D01*
X8543926Y7916967D01*
X8569318Y7891575D01*
Y7815400D01*
X8620101Y7967751D02*
Y7815400D01*
X8696277D01*
X8721669Y7840792D01*
Y7866183D01*
Y7891575D01*
X8696277Y7916967D01*
X8620101D01*
X8772452Y7815400D02*
X8823236D01*
X8797844D01*
Y7916967D01*
X8772452D01*
X8899411Y7815400D02*
X8950194D01*
X8924803D01*
Y7967751D01*
X8899411D01*
X9026370Y7815400D02*
X9077153D01*
X9051762D01*
Y7916967D01*
X9026370D01*
X9254896D02*
X9178721D01*
X9153329Y7891575D01*
Y7840792D01*
X9178721Y7815400D01*
X9254896D01*
X9331071Y7916967D02*
X9381855D01*
X9407247Y7891575D01*
Y7815400D01*
X9331071D01*
X9305679Y7840792D01*
X9331071Y7866183D01*
X9407247D01*
X9458030Y7815400D02*
X9508814D01*
X9483422D01*
Y7967751D01*
X9458030D01*
X85400Y7827751D02*
Y7675400D01*
Y7751575D01*
X186967D01*
Y7827751D01*
Y7675400D01*
X339318D02*
X237751D01*
X339318Y7776967D01*
Y7802359D01*
X313926Y7827751D01*
X263142D01*
X237751Y7802359D01*
X1085400Y8147751D02*
Y7995400D01*
Y8071575D01*
X1186967D01*
Y8147751D01*
Y7995400D01*
X1237751D02*
X1288534D01*
X1263143D01*
Y8147751D01*
X1237751Y8122359D01*
X1095400Y8455400D02*
Y8607751D01*
X1171575D01*
X1196967Y8582359D01*
Y8531575D01*
X1171575Y8506183D01*
X1095400D01*
X1146183D02*
X1196967Y8455400D01*
X1349318Y8607751D02*
X1247751D01*
Y8455400D01*
X1349318D01*
X1247751Y8531575D02*
X1298534D01*
X1400101Y8607751D02*
Y8506183D01*
X1450885Y8455400D01*
X1501669Y8506183D01*
Y8607751D01*
X1704803Y8455400D02*
X1755586D01*
X1730195D01*
Y8607751D01*
X1704803Y8582359D01*
X1831762Y8455400D02*
Y8480792D01*
X1857154D01*
Y8455400D01*
X1831762D01*
X1958720D02*
X2009504D01*
X1984112D01*
Y8607751D01*
X1958720Y8582359D01*
X2085679Y8455400D02*
Y8480792D01*
X2111071D01*
Y8455400D01*
X2085679D01*
X2212638Y8582359D02*
X2238030Y8607751D01*
X2288814D01*
X2314205Y8582359D01*
Y8480792D01*
X2288814Y8455400D01*
X2238030D01*
X2212638Y8480792D01*
Y8582359D01*
X8184577Y6549217D02*
Y6650784D01*
X8235361D01*
X8252289Y6633856D01*
Y6600000D01*
X8235361Y6583072D01*
X8184577D01*
X8218433D02*
X8252289Y6549217D01*
X8353856Y6650784D02*
X8286144D01*
Y6600000D01*
X8320000Y6616928D01*
X8336928D01*
X8353856Y6600000D01*
Y6566144D01*
X8336928Y6549217D01*
X8303072D01*
X8286144Y6566144D01*
X8455423Y6650784D02*
X8387712D01*
Y6600000D01*
X8421567Y6616928D01*
X8438495D01*
X8455423Y6600000D01*
Y6566144D01*
X8438495Y6549217D01*
X8404640D01*
X8387712Y6566144D01*
X8186377Y6397016D02*
Y6498584D01*
X8237161D01*
X8254088Y6481656D01*
Y6447800D01*
X8237161Y6430872D01*
X8186377D01*
X8220233D02*
X8254088Y6397016D01*
X8355656Y6498584D02*
X8287944D01*
Y6447800D01*
X8321800Y6464728D01*
X8338728D01*
X8355656Y6447800D01*
Y6413944D01*
X8338728Y6397016D01*
X8304872D01*
X8287944Y6413944D01*
X8389512Y6481656D02*
X8406439Y6498584D01*
X8440295D01*
X8457223Y6481656D01*
Y6464728D01*
X8440295Y6447800D01*
X8423367D01*
X8440295D01*
X8457223Y6430872D01*
Y6413944D01*
X8440295Y6397016D01*
X8406439D01*
X8389512Y6413944D01*
X8216477Y4407217D02*
Y4508784D01*
X8267261D01*
X8284189Y4491856D01*
Y4458000D01*
X8267261Y4441073D01*
X8216477D01*
X8250333D02*
X8284189Y4407217D01*
X8385756Y4508784D02*
X8318045D01*
Y4458000D01*
X8351900Y4474928D01*
X8368828D01*
X8385756Y4458000D01*
Y4424145D01*
X8368828Y4407217D01*
X8334972D01*
X8318045Y4424145D01*
X8487323Y4407217D02*
X8419612D01*
X8487323Y4474928D01*
Y4491856D01*
X8470395Y4508784D01*
X8436540D01*
X8419612Y4491856D01*
X8258805Y4559617D02*
Y4661184D01*
X8309589D01*
X8326516Y4644256D01*
Y4610400D01*
X8309589Y4593473D01*
X8258805D01*
X8292661D02*
X8326516Y4559617D01*
X8428084Y4661184D02*
X8360372D01*
Y4610400D01*
X8394228Y4627328D01*
X8411156D01*
X8428084Y4610400D01*
Y4576545D01*
X8411156Y4559617D01*
X8377300D01*
X8360372Y4576545D01*
X8461940Y4559617D02*
X8495795D01*
X8478867D01*
Y4661184D01*
X8461940Y4644256D01*
X8199550Y4102417D02*
Y4203984D01*
X8250333D01*
X8267261Y4187056D01*
Y4153200D01*
X8250333Y4136273D01*
X8199550D01*
X8233405D02*
X8267261Y4102417D01*
X8351900D02*
Y4203984D01*
X8301117Y4153200D01*
X8368828D01*
X8402684Y4203984D02*
X8470395D01*
Y4187056D01*
X8402684Y4119345D01*
Y4102417D01*
X8199550Y4254817D02*
Y4356384D01*
X8250333D01*
X8267261Y4339456D01*
Y4305600D01*
X8250333Y4288673D01*
X8199550D01*
X8233405D02*
X8267261Y4254817D01*
X8351900D02*
Y4356384D01*
X8301117Y4305600D01*
X8368828D01*
X8470395Y4356384D02*
X8402684D01*
Y4305600D01*
X8436540Y4322528D01*
X8453467D01*
X8470395Y4305600D01*
Y4271745D01*
X8453467Y4254817D01*
X8419612D01*
X8402684Y4271745D01*
X8184577Y6249217D02*
Y6350784D01*
X8235361D01*
X8252289Y6333856D01*
Y6300000D01*
X8235361Y6283072D01*
X8184577D01*
X8218433D02*
X8252289Y6249217D01*
X8336928D02*
Y6350784D01*
X8286144Y6300000D01*
X8353856D01*
X8438495Y6249217D02*
Y6350784D01*
X8387712Y6300000D01*
X8455423D01*
X8184577Y6089216D02*
Y6190784D01*
X8235361D01*
X8252289Y6173856D01*
Y6140000D01*
X8235361Y6123072D01*
X8184577D01*
X8218433D02*
X8252289Y6089216D01*
X8336928D02*
Y6190784D01*
X8286144Y6140000D01*
X8353856D01*
X8455423Y6089216D02*
X8387712D01*
X8455423Y6156928D01*
Y6173856D01*
X8438495Y6190784D01*
X8404640D01*
X8387712Y6173856D01*
X8228705Y6854216D02*
Y6955784D01*
X8279488D01*
X8296416Y6938856D01*
Y6905000D01*
X8279488Y6888072D01*
X8228705D01*
X8262561D02*
X8296416Y6854216D01*
X8381056D02*
Y6955784D01*
X8330272Y6905000D01*
X8397983D01*
X8431839Y6854216D02*
X8465695D01*
X8448767D01*
Y6955784D01*
X8431839Y6938856D01*
X8184577Y5949216D02*
Y6050784D01*
X8235361D01*
X8252289Y6033856D01*
Y6000000D01*
X8235361Y5983072D01*
X8184577D01*
X8218433D02*
X8252289Y5949216D01*
X8286144Y6033856D02*
X8303072Y6050784D01*
X8336928D01*
X8353856Y6033856D01*
Y6016928D01*
X8336928Y6000000D01*
X8320000D01*
X8336928D01*
X8353856Y5983072D01*
Y5966144D01*
X8336928Y5949216D01*
X8303072D01*
X8286144Y5966144D01*
X8387712D02*
X8404640Y5949216D01*
X8438495D01*
X8455423Y5966144D01*
Y6033856D01*
X8438495Y6050784D01*
X8404640D01*
X8387712Y6033856D01*
Y6016928D01*
X8404640Y6000000D01*
X8455423D01*
X8186377Y6701816D02*
Y6803384D01*
X8237161D01*
X8254088Y6786456D01*
Y6752600D01*
X8237161Y6735672D01*
X8186377D01*
X8220233D02*
X8254088Y6701816D01*
X8287944Y6786456D02*
X8304872Y6803384D01*
X8338728D01*
X8355656Y6786456D01*
Y6769528D01*
X8338728Y6752600D01*
X8321800D01*
X8338728D01*
X8355656Y6735672D01*
Y6718744D01*
X8338728Y6701816D01*
X8304872D01*
X8287944Y6718744D01*
X8389512Y6786456D02*
X8406439Y6803384D01*
X8440295D01*
X8457223Y6786456D01*
Y6769528D01*
X8440295Y6752600D01*
X8457223Y6735672D01*
Y6718744D01*
X8440295Y6701816D01*
X8406439D01*
X8389512Y6718744D01*
Y6735672D01*
X8406439Y6752600D01*
X8389512Y6769528D01*
Y6786456D01*
X8406439Y6752600D02*
X8440295D01*
X8194577Y5789217D02*
Y5890784D01*
X8245361D01*
X8262289Y5873856D01*
Y5840000D01*
X8245361Y5823072D01*
X8194577D01*
X8228433D02*
X8262289Y5789217D01*
X8296144Y5873856D02*
X8313072Y5890784D01*
X8346928D01*
X8363856Y5873856D01*
Y5856928D01*
X8346928Y5840000D01*
X8330000D01*
X8346928D01*
X8363856Y5823072D01*
Y5806144D01*
X8346928Y5789217D01*
X8313072D01*
X8296144Y5806144D01*
X8397712Y5890784D02*
X8465423D01*
Y5873856D01*
X8397712Y5806144D01*
Y5789217D01*
X8186377Y7311416D02*
Y7412984D01*
X8237161D01*
X8254088Y7396056D01*
Y7362200D01*
X8237161Y7345272D01*
X8186377D01*
X8220233D02*
X8254088Y7311416D01*
X8287944Y7396056D02*
X8304872Y7412984D01*
X8338728D01*
X8355656Y7396056D01*
Y7379128D01*
X8338728Y7362200D01*
X8321800D01*
X8338728D01*
X8355656Y7345272D01*
Y7328344D01*
X8338728Y7311416D01*
X8304872D01*
X8287944Y7328344D01*
X8457223Y7412984D02*
X8423367Y7396056D01*
X8389512Y7362200D01*
Y7328344D01*
X8406439Y7311416D01*
X8440295D01*
X8457223Y7328344D01*
Y7345272D01*
X8440295Y7362200D01*
X8389512D01*
X8184577Y5639217D02*
Y5740784D01*
X8235361D01*
X8252289Y5723856D01*
Y5690000D01*
X8235361Y5673072D01*
X8184577D01*
X8218433D02*
X8252289Y5639217D01*
X8286144Y5723856D02*
X8303072Y5740784D01*
X8336928D01*
X8353856Y5723856D01*
Y5706928D01*
X8336928Y5690000D01*
X8320000D01*
X8336928D01*
X8353856Y5673072D01*
Y5656144D01*
X8336928Y5639217D01*
X8303072D01*
X8286144Y5656144D01*
X8455423Y5740784D02*
X8387712D01*
Y5690000D01*
X8421567Y5706928D01*
X8438495D01*
X8455423Y5690000D01*
Y5656144D01*
X8438495Y5639217D01*
X8404640D01*
X8387712Y5656144D01*
X8186377Y7159016D02*
Y7260584D01*
X8237161D01*
X8254088Y7243656D01*
Y7209800D01*
X8237161Y7192872D01*
X8186377D01*
X8220233D02*
X8254088Y7159016D01*
X8287944Y7243656D02*
X8304872Y7260584D01*
X8338728D01*
X8355656Y7243656D01*
Y7226728D01*
X8338728Y7209800D01*
X8321800D01*
X8338728D01*
X8355656Y7192872D01*
Y7175944D01*
X8338728Y7159016D01*
X8304872D01*
X8287944Y7175944D01*
X8440295Y7159016D02*
Y7260584D01*
X8389512Y7209800D01*
X8457223D01*
X8186377Y5482616D02*
Y5584184D01*
X8237161D01*
X8254088Y5567256D01*
Y5533400D01*
X8237161Y5516472D01*
X8186377D01*
X8220233D02*
X8254088Y5482616D01*
X8287944Y5567256D02*
X8304872Y5584184D01*
X8338728D01*
X8355656Y5567256D01*
Y5550328D01*
X8338728Y5533400D01*
X8321800D01*
X8338728D01*
X8355656Y5516472D01*
Y5499544D01*
X8338728Y5482616D01*
X8304872D01*
X8287944Y5499544D01*
X8389512Y5567256D02*
X8406439Y5584184D01*
X8440295D01*
X8457223Y5567256D01*
Y5550328D01*
X8440295Y5533400D01*
X8423367D01*
X8440295D01*
X8457223Y5516472D01*
Y5499544D01*
X8440295Y5482616D01*
X8406439D01*
X8389512Y5499544D01*
X8184577Y7009217D02*
Y7110784D01*
X8235361D01*
X8252289Y7093856D01*
Y7060000D01*
X8235361Y7043072D01*
X8184577D01*
X8218433D02*
X8252289Y7009217D01*
X8286144Y7093856D02*
X8303072Y7110784D01*
X8336928D01*
X8353856Y7093856D01*
Y7076928D01*
X8336928Y7060000D01*
X8320000D01*
X8336928D01*
X8353856Y7043072D01*
Y7026144D01*
X8336928Y7009217D01*
X8303072D01*
X8286144Y7026144D01*
X8455423Y7009217D02*
X8387712D01*
X8455423Y7076928D01*
Y7093856D01*
X8438495Y7110784D01*
X8404640D01*
X8387712Y7093856D01*
X5141505Y3029216D02*
Y3130784D01*
X5192288D01*
X5209216Y3113856D01*
Y3080000D01*
X5192288Y3063072D01*
X5141505D01*
X5175360D02*
X5209216Y3029216D01*
X5243072Y3113856D02*
X5260000Y3130784D01*
X5293856D01*
X5310783Y3113856D01*
Y3096928D01*
X5293856Y3080000D01*
X5276928D01*
X5293856D01*
X5310783Y3063072D01*
Y3046144D01*
X5293856Y3029216D01*
X5260000D01*
X5243072Y3046144D01*
X5344639Y3029216D02*
X5378495D01*
X5361567D01*
Y3130784D01*
X5344639Y3113856D01*
X5134577Y2879216D02*
Y2980784D01*
X5185360D01*
X5202288Y2963856D01*
Y2930000D01*
X5185360Y2913072D01*
X5134577D01*
X5168433D02*
X5202288Y2879216D01*
X5303856D02*
X5236144D01*
X5303856Y2946928D01*
Y2963856D01*
X5286928Y2980784D01*
X5253072D01*
X5236144Y2963856D01*
X5337711Y2896144D02*
X5354639Y2879216D01*
X5388495D01*
X5405423Y2896144D01*
Y2963856D01*
X5388495Y2980784D01*
X5354639D01*
X5337711Y2963856D01*
Y2946928D01*
X5354639Y2930000D01*
X5405423D01*
X5144577Y2719217D02*
Y2820784D01*
X5195361D01*
X5212289Y2803856D01*
Y2770000D01*
X5195361Y2753072D01*
X5144577D01*
X5178433D02*
X5212289Y2719217D01*
X5313856D02*
X5246144D01*
X5313856Y2786928D01*
Y2803856D01*
X5296928Y2820784D01*
X5263072D01*
X5246144Y2803856D01*
X5415423Y2820784D02*
X5347712D01*
Y2770000D01*
X5381567Y2786928D01*
X5398495D01*
X5415423Y2770000D01*
Y2736144D01*
X5398495Y2719217D01*
X5364640D01*
X5347712Y2736144D01*
X149217Y3786521D02*
X123825Y3761129D01*
Y3710346D01*
X149217Y3684954D01*
X250784D01*
X276175Y3710346D01*
Y3761129D01*
X250784Y3786521D01*
X276175Y3837304D02*
Y3888088D01*
Y3862696D01*
X123825D01*
X149217Y3837304D01*
X276175Y3964263D02*
Y4015047D01*
Y3989655D01*
X123825D01*
X149217Y3964263D01*
X2889598Y7420976D02*
Y7294017D01*
X2914990Y7268625D01*
X2965774D01*
X2991165Y7294017D01*
Y7420976D01*
X3041949Y7294017D02*
X3067341Y7268625D01*
X3118124D01*
X3143516Y7294017D01*
Y7395584D01*
X3118124Y7420976D01*
X3067341D01*
X3041949Y7395584D01*
Y7370192D01*
X3067341Y7344800D01*
X3143516D01*
X2275513Y2950435D02*
Y2823476D01*
X2300905Y2798085D01*
X2351688D01*
X2377080Y2823476D01*
Y2950435D01*
X2427864Y2798085D02*
X2478647D01*
X2453256D01*
Y2950435D01*
X2427864Y2925043D01*
X149216Y5261129D02*
X123824Y5235737D01*
Y5184954D01*
X149216Y5159562D01*
X250783D01*
X276175Y5184954D01*
Y5235737D01*
X250783Y5261129D01*
X276175Y5311913D02*
Y5362696D01*
Y5337305D01*
X123824D01*
X149216Y5311913D01*
Y5438872D02*
X123824Y5464263D01*
Y5515047D01*
X149216Y5540439D01*
X174608D01*
X200000Y5515047D01*
Y5489655D01*
Y5515047D01*
X225392Y5540439D01*
X250783D01*
X276175Y5515047D01*
Y5464263D01*
X250783Y5438872D01*
D59*
X4415360Y6439960D02*
G03*
X4415360Y6439960I-10000J0D01*
G01*
X7056720Y3156940D02*
G03*
X7056720Y3156940I-10000J0D01*
G01*
Y970000D02*
G03*
X7056720Y970000I-10000J0D01*
G01*
Y2059660D02*
G03*
X7056720Y2059660I-10000J0D01*
G01*
X3540000Y730000D02*
G03*
X3540000Y730000I-10000J0D01*
G01*
X2393700Y728600D02*
G03*
X2393700Y728600I-10000J0D01*
G01*
X5570380Y1556720D02*
G03*
X5570380Y1556720I-10000J0D01*
G01*
X3900000Y2140000D02*
G03*
X3900000Y2160000I0J10000D01*
G01*
D02*
G03*
X3900000Y2140000I0J-10000D01*
G01*
X6360000Y4960000D02*
G03*
X6360000Y4960000I-10000J0D01*
G01*
X2520000Y7100000D02*
G03*
X2520000Y7100000I-10000J0D01*
G01*
X6197340Y5603300D02*
G03*
X6197340Y5603300I-10000J0D01*
G01*
X8242000Y150000D02*
G03*
X8242000Y150000I-10000J0D01*
G01*
X6522000D02*
G03*
X6522000Y150000I-10000J0D01*
G01*
X1280000Y1179500D02*
G03*
X1280000Y1179500I-10000J0D01*
G01*
X772000D02*
G03*
X772000Y1179500I-10000J0D01*
G01*
X290900Y6775000D02*
Y7055000D01*
X140900D02*
X290900D01*
X140900Y6775000D02*
Y7055000D01*
Y6775000D02*
X290900D01*
X1730900Y5069200D02*
Y5274200D01*
X1615900Y5069200D02*
X1730900D01*
X1615900D02*
Y5274200D01*
X1730900D01*
X4015000Y2240000D02*
X4165000D01*
X4015000D02*
Y2520000D01*
X4165000D01*
Y2240000D02*
Y2520000D01*
X6226720Y4211940D02*
X6906720D01*
X6226720Y3181940D02*
X6906720D01*
X3755000Y5470000D02*
X3905000D01*
Y5190000D02*
Y5470000D01*
X3755000Y5190000D02*
X3905000D01*
X3755000D02*
Y5470000D01*
X6226720Y2025000D02*
X6906720D01*
X6226720Y995000D02*
X6906720D01*
X6226720Y3114660D02*
X6906720D01*
X6226720Y2084660D02*
X6906720D01*
X3558500Y850000D02*
Y1350000D01*
X4081500D01*
Y850000D02*
Y1350000D01*
X3558500Y850000D02*
X4081500D01*
X2130000Y335000D02*
Y485000D01*
X2410000D01*
Y335000D02*
Y485000D01*
X2130000Y335000D02*
X2410000D01*
X2690000D02*
Y485000D01*
X2410000Y335000D02*
X2690000D01*
X2410000D02*
Y485000D01*
X2690000D01*
X2412200Y848600D02*
Y1348600D01*
X2935200D01*
Y848600D02*
Y1348600D01*
X2412200Y848600D02*
X2935200D01*
X2205000Y1250000D02*
X2355000D01*
Y970000D02*
Y1250000D01*
X2205000Y970000D02*
X2355000D01*
X2205000D02*
Y1250000D01*
X3345000Y1240000D02*
X3495000D01*
Y960000D02*
Y1240000D01*
X3345000Y960000D02*
X3495000D01*
X3345000D02*
Y1240000D01*
X3280000Y315000D02*
Y465000D01*
X3560000D01*
Y315000D02*
Y465000D01*
X3280000Y315000D02*
X3560000D01*
X3840000D02*
Y465000D01*
X3560000Y315000D02*
X3840000D01*
X3560000D02*
Y465000D01*
X3840000D01*
X4505380Y736720D02*
Y1416720D01*
X5535380Y736720D02*
Y1416720D01*
X5540000Y4696633D02*
Y4846633D01*
X5820000D01*
Y4696633D02*
Y4846633D01*
X5540000Y4696633D02*
X5820000D01*
X5540000Y4853266D02*
Y5003266D01*
X5820000D01*
Y4853266D02*
Y5003266D01*
X5540000Y4853266D02*
X5820000D01*
X5050000Y1745000D02*
Y1895000D01*
X4770000Y1745000D02*
X5050000D01*
X4770000D02*
Y1895000D01*
X5050000D01*
X4490000Y1745000D02*
Y1895000D01*
X4770000D01*
Y1745000D02*
Y1895000D01*
X4490000Y1745000D02*
X4770000D01*
X5250000D02*
Y1895000D01*
X5530000D01*
Y1745000D02*
Y1895000D01*
X5250000Y1745000D02*
X5530000D01*
X7790000Y2015000D02*
Y2165000D01*
X8070000D01*
Y2015000D02*
Y2165000D01*
X7790000Y2015000D02*
X8070000D01*
X1590000Y7525000D02*
X1870000D01*
Y7675000D01*
X1590000D02*
X1870000D01*
X1590000Y7525000D02*
Y7675000D01*
Y8035000D02*
X1870000D01*
Y8185000D01*
X1590000D02*
X1870000D01*
X1590000Y8035000D02*
Y8185000D01*
X2550000Y3067500D02*
Y4997500D01*
X4480000D01*
Y3067500D02*
Y4997500D01*
X2550000Y3067500D02*
X4480000D01*
X5090000Y3005000D02*
Y3155000D01*
X4810000Y3005000D02*
X5090000D01*
X4810000D02*
Y3155000D01*
X5090000D01*
Y2855000D02*
Y3005000D01*
X4810000Y2855000D02*
X5090000D01*
X4810000D02*
Y3005000D01*
X5090000D01*
Y2705000D02*
Y2855000D01*
X4810000Y2705000D02*
X5090000D01*
X4810000D02*
Y2855000D01*
X5090000D01*
X4165000Y2510000D02*
X4315000D01*
X4165000D02*
Y2790001D01*
X4315000D01*
Y2510000D02*
Y2790001D01*
X3817500Y2082500D02*
Y2197500D01*
X3612500D02*
X3817500D01*
X3612500Y2082500D02*
Y2197500D01*
Y2082500D02*
X3817500D01*
X3422500Y2652500D02*
X3537500D01*
X3422500Y2447500D02*
Y2652500D01*
Y2447500D02*
X3537500D01*
Y2652500D01*
X7235000Y3670000D02*
X7385000D01*
X7235000D02*
Y3950000D01*
X7385000D01*
Y3670000D02*
Y3950000D01*
X7235000Y4230000D02*
X7385000D01*
Y3949999D02*
Y4230000D01*
X7235000Y3949999D02*
X7385000D01*
X7235000D02*
Y4230000D01*
X6173900Y5326120D02*
X6323900D01*
Y5046119D02*
Y5326120D01*
X6173900Y5046119D02*
X6323900D01*
X6173900D02*
Y5326120D01*
X6780000Y4955000D02*
Y5105000D01*
X6500000Y4955000D02*
X6780000D01*
X6500000D02*
Y5105000D01*
X6780000D01*
X5540000Y4540000D02*
Y4690000D01*
X5820000D01*
Y4540000D02*
Y4690000D01*
X5540000Y4540000D02*
X5820000D01*
X5540000Y4383367D02*
Y4533367D01*
X5820000D01*
Y4383367D02*
Y4533367D01*
X5540000Y4383367D02*
X5820000D01*
X6021500Y5326120D02*
X6171500D01*
Y5046119D02*
Y5326120D01*
X6021500Y5046119D02*
X6171500D01*
X6021500D02*
Y5326120D01*
X2360000Y7795000D02*
Y7945000D01*
X2640000D01*
Y7795000D02*
Y7945000D01*
X2360000Y7795000D02*
X2640000D01*
Y7945000D02*
Y8095000D01*
X2360000Y7945000D02*
X2640000D01*
X2360000D02*
Y8095000D01*
X2640000D01*
X3021300Y7185900D02*
Y7615900D01*
X2538700Y7185900D02*
Y7615900D01*
X2335000Y7180000D02*
X2485000D01*
X2335000D02*
Y7460000D01*
X2485000D01*
Y7180000D02*
Y7460000D01*
X6698640Y5689200D02*
Y6119200D01*
X6216040Y5689200D02*
Y6119200D01*
X5187500Y6092500D02*
Y6242500D01*
X5467500D01*
Y6092500D02*
Y6242500D01*
X5187500Y6092500D02*
X5467500D01*
X3947500Y6110000D02*
X4097500D01*
X3947500D02*
Y6390000D01*
X4097500D01*
Y6110000D02*
Y6390000D01*
X5337500Y6092500D02*
X5487500D01*
Y5812500D02*
Y6092500D01*
X5337500Y5812500D02*
X5487500D01*
X5337500D02*
Y6092500D01*
X4610000Y5665000D02*
Y5815000D01*
X4890000D01*
Y5665000D02*
Y5815000D01*
X4610000Y5665000D02*
X4890000D01*
X4890000Y5535000D02*
X5040000D01*
X4890000D02*
Y5815000D01*
X5040000D01*
Y5535000D02*
Y5815000D01*
X5487500Y6092500D02*
X5637500D01*
Y5812500D02*
Y6092500D01*
X5487500Y5812500D02*
X5637500D01*
X5487500D02*
Y6092500D01*
X5040000Y5535000D02*
X5190000D01*
X5040000D02*
Y5815000D01*
X5190000D01*
Y5535000D02*
Y5815000D01*
X5187500Y6092500D02*
X5337500D01*
Y5812500D02*
Y6092500D01*
X5187500Y5812500D02*
X5337500D01*
X5187500D02*
Y6092500D01*
X7235000Y3450000D02*
X7385000D01*
Y3170000D02*
Y3450000D01*
X7235000Y3170000D02*
X7385000D01*
X7235000D02*
Y3450000D01*
Y1120000D02*
X7385000D01*
X7235000D02*
Y1400000D01*
X7385000D01*
Y1120000D02*
Y1400000D01*
X7235000Y2040000D02*
X7385000D01*
Y1760000D02*
Y2040000D01*
X7235000Y1760000D02*
X7385000D01*
X7235000D02*
Y2040000D01*
Y1480000D02*
X7385000D01*
X7235000D02*
Y1760000D01*
X7385000D01*
Y1480000D02*
Y1760000D01*
X7235000Y2580000D02*
X7385000D01*
X7235000D02*
Y2860000D01*
X7385000D01*
Y2580000D02*
Y2860000D01*
X7235000Y2350000D02*
X7385000D01*
Y2070000D02*
Y2350000D01*
X7235000Y2070000D02*
X7385000D01*
X7235000D02*
Y2350000D01*
Y3140000D02*
X7385000D01*
Y2860000D02*
Y3140000D01*
X7235000Y2860000D02*
X7385000D01*
X7235000D02*
Y3140000D01*
X2635000Y8330000D02*
X2785000D01*
X2635000D02*
Y8610000D01*
X2785000D01*
Y8330000D02*
Y8610000D01*
X2604900Y6590000D02*
X2754900D01*
X2604900D02*
Y6870000D01*
X2754900D01*
Y6590000D02*
Y6870000D01*
X2755000Y6590000D02*
X2905000D01*
X2755000D02*
Y6870000D01*
X2905000D01*
Y6590000D02*
Y6870000D01*
X2559499Y5499400D02*
X2709500D01*
Y5219400D02*
Y5499400D01*
X2559499Y5219400D02*
X2709500D01*
X2559499D02*
Y5499400D01*
X6643000Y277000D02*
X8167000D01*
X6643000Y23000D02*
X8167000D01*
X6643000D02*
Y277000D01*
X8167000Y23000D02*
Y277000D01*
X4923000D02*
X6447000D01*
X4923000Y23000D02*
X6447000D01*
X4923000D02*
Y277000D01*
X6447000Y23000D02*
Y277000D01*
X930900Y7899500D02*
X1355100D01*
X930900Y1244500D02*
X1355100D01*
X422900Y7899500D02*
X847100D01*
X422900Y1244500D02*
X847100D01*
X3100000Y7645000D02*
Y7795000D01*
X3380000D01*
Y7645000D02*
Y7795000D01*
X3100000Y7645000D02*
X3380000D01*
X8512000Y6068000D02*
X8792000D01*
Y6218000D01*
X8512000D02*
X8792000D01*
X8512000Y6068000D02*
Y6218000D01*
Y6220400D02*
X8792000D01*
Y6370400D01*
X8512000D02*
X8792000D01*
X8512000Y6220400D02*
Y6370400D01*
Y6372800D02*
X8792000D01*
Y6522800D01*
X8512000D02*
X8792000D01*
X8512000Y6372800D02*
Y6522800D01*
Y6525200D02*
X8792000D01*
Y6675200D01*
X8512000D02*
X8792000D01*
X8512000Y6525200D02*
Y6675200D01*
Y6827600D02*
X8792000D01*
X8512000Y6677600D02*
Y6827600D01*
Y6677600D02*
X8792000D01*
Y6827600D01*
X8512000Y6980000D02*
X8792000D01*
X8512000Y6830000D02*
Y6980000D01*
Y6830000D02*
X8792000D01*
Y6980000D01*
X8512000Y6982400D02*
X8792000D01*
Y7132400D01*
X8512000D02*
X8792000D01*
X8512000Y6982400D02*
Y7132400D01*
Y7284800D02*
X8792000D01*
X8512000Y7134800D02*
Y7284800D01*
Y7134800D02*
X8792000D01*
Y7284800D01*
X8512000Y5458400D02*
X8792000D01*
Y5608400D01*
X8512000D02*
X8792000D01*
X8512000Y5458400D02*
Y5608400D01*
Y5610800D02*
X8792000D01*
Y5760800D01*
X8512000D02*
X8792000D01*
X8512000Y5610800D02*
Y5760800D01*
Y5763200D02*
X8792000D01*
Y5913200D01*
X8512000D02*
X8792000D01*
X8512000Y5763200D02*
Y5913200D01*
Y5915600D02*
X8792000D01*
Y6065600D01*
X8512000D02*
X8792000D01*
X8512000Y5915600D02*
Y6065600D01*
Y7437200D02*
X8792000D01*
X8512000Y7287200D02*
Y7437200D01*
Y7287200D02*
X8792000D01*
Y7437200D01*
X8550000Y285000D02*
X8700000D01*
X8550000D02*
Y565000D01*
X8700000D01*
Y285000D02*
Y565000D01*
X8525000Y8720000D02*
X8675000D01*
Y8440000D02*
Y8720000D01*
X8525000Y8440000D02*
X8675000D01*
X8525000D02*
Y8720000D01*
X8542100Y4535400D02*
X8822100D01*
Y4685400D01*
X8542100D02*
X8822100D01*
X8542100Y4535400D02*
Y4685400D01*
Y4230600D02*
X8822100D01*
Y4380600D01*
X8542100D02*
X8822100D01*
X8542100Y4230600D02*
Y4380600D01*
Y4383000D02*
X8822100D01*
Y4533000D01*
X8542100D02*
X8822100D01*
X8542100Y4383000D02*
Y4533000D01*
Y4078200D02*
X8822100D01*
Y4228200D01*
X8542100D02*
X8822100D01*
X8542100Y4078200D02*
Y4228200D01*
X715000Y350000D02*
Y500000D01*
X435000Y350000D02*
X715000D01*
X435000D02*
Y500000D01*
X715000D01*
X285000Y8675000D02*
Y8825000D01*
X565000D01*
Y8675000D02*
Y8825000D01*
X285000Y8675000D02*
X565000D01*
X4465000Y2510000D02*
X4615000D01*
X4465000D02*
Y2790000D01*
X4615000D01*
Y2510000D02*
Y2790000D01*
X2050000Y3005000D02*
Y3155000D01*
X2330000D01*
Y3005000D02*
Y3155000D01*
X2050000Y3005000D02*
X2330000D01*
X2000000Y4225000D02*
Y4375000D01*
X2280000D01*
Y4225000D02*
Y4375000D01*
X2000000Y4225000D02*
X2280000D01*
X2000000Y3705000D02*
Y3855000D01*
X2280000D01*
Y3705000D02*
Y3855000D01*
X2000000Y3705000D02*
X2280000D01*
X2815000Y2570000D02*
X2965000D01*
X2815000D02*
Y2850000D01*
X2965000D01*
Y2570000D02*
Y2850000D01*
X1590000Y7275000D02*
Y7425000D01*
X1870000D01*
Y7275000D02*
Y7425000D01*
X1590000Y7275000D02*
X1870000D01*
X3265000Y2510000D02*
X3415000D01*
X3265000D02*
Y2790000D01*
X3415000D01*
Y2510000D02*
Y2790000D01*
X1590000Y7885000D02*
Y8035000D01*
X1870000D01*
Y7885000D02*
Y8035000D01*
X1590000Y7885000D02*
X1870000D01*
X2807900Y5194000D02*
X2957900D01*
X2807900D02*
Y5474000D01*
X2957900D01*
Y5194000D02*
Y5474000D01*
X2958279Y5194719D02*
X3108280D01*
X2958279D02*
Y5474720D01*
X3108280D01*
Y5194719D02*
Y5474720D01*
X5040000Y3835000D02*
Y3985000D01*
X4760000Y3835000D02*
X5040000D01*
X4760000D02*
Y3985000D01*
X5040000D01*
Y4335000D02*
Y4485000D01*
X4760000Y4335000D02*
X5040000D01*
X4760000D02*
Y4485000D01*
X5040000D01*
X5140000Y4535000D02*
Y4685000D01*
X4860000Y4535000D02*
X5140000D01*
X4860000D02*
Y4685000D01*
X5140000D01*
Y4685000D02*
Y4835000D01*
X4860000Y4685000D02*
X5140000D01*
X4860000D02*
Y4835000D01*
X5140000D01*
Y4985000D01*
X4860000Y4835000D02*
X5140000D01*
X4860000D02*
Y4985000D01*
X5140000D01*
X4810000Y5085000D02*
Y5235000D01*
X4530000Y5085000D02*
X4810000D01*
X4530000D02*
Y5235000D01*
X4810000D01*
X3112700Y5474000D02*
X3262700D01*
Y5194000D02*
Y5474000D01*
X3112700Y5194000D02*
X3262700D01*
X3112700D02*
Y5474000D01*
X4315000Y2510000D02*
X4465000D01*
X4315000D02*
Y2790000D01*
X4465000D01*
Y2510000D02*
Y2790000D01*
X5040000Y3155000D02*
Y3305000D01*
X4760000Y3155000D02*
X5040000D01*
X4760000D02*
Y3305000D01*
X5040000D01*
X5090000Y3385000D02*
Y3535000D01*
X4810000Y3385000D02*
X5090000D01*
X4810000D02*
Y3535000D01*
X5090000D01*
Y3535000D02*
Y3685000D01*
X4810000Y3535000D02*
X5090000D01*
X4810000D02*
Y3685000D01*
X5090000D01*
X1656600Y3549900D02*
X1771600D01*
X1656600Y3344900D02*
Y3549900D01*
Y3344900D02*
X1771600D01*
Y3549900D01*
X1475000Y6660000D02*
X1625000D01*
X1475000D02*
Y6940000D01*
X1625000D01*
Y6660000D02*
Y6940000D01*
X1475000Y6270000D02*
X1625000D01*
X1475000D02*
Y6550000D01*
X1625000D01*
Y6270000D02*
Y6550000D01*
X5865000Y5980000D02*
X6015000D01*
X5865000D02*
Y6260000D01*
X6015000D01*
Y5980000D02*
Y6260000D01*
X6025000D02*
X6175000D01*
Y5980000D02*
Y6260000D01*
X6025000Y5980000D02*
X6175000D01*
X6025000D02*
Y6260000D01*
X1685000Y2275000D02*
Y2425000D01*
X1965000D01*
Y2275000D02*
Y2425000D01*
X1685000Y2275000D02*
X1965000D01*
X1685000Y1950000D02*
Y2100000D01*
X1965000D01*
Y1950000D02*
Y2100000D01*
X1685000Y1950000D02*
X1965000D01*
X1685000Y1625000D02*
Y1775000D01*
X1965000D01*
Y1625000D02*
Y1775000D01*
X1685000Y1625000D02*
X1965000D01*
X6380000Y6385000D02*
Y6535000D01*
X6660000D01*
Y6385000D02*
Y6535000D01*
X6380000Y6385000D02*
X6660000D01*
X6355000Y7040000D02*
X6505000D01*
Y6760000D02*
Y7040000D01*
X6355000Y6760000D02*
X6505000D01*
X6355000D02*
Y7040000D01*
X6025000Y5700000D02*
X6175000D01*
X6025000D02*
Y5980000D01*
X6175000D01*
Y5700000D02*
Y5980000D01*
D60*
X6609520Y4908920D02*
G03*
X6670480Y4908920I30480J0D01*
G01*
X4493093Y5857030D02*
X4906906D01*
X4493093Y6392970D02*
X4906906D01*
X6459660Y4908920D02*
X6609520D01*
X6670480D01*
X6820340D01*
X6459660Y4411080D02*
X6820340D01*
X159092Y6330141D02*
X260659D01*
X226803D01*
X159092Y6397852D01*
X209875Y6347069D01*
X260659Y6397852D01*
X1565108Y5458758D02*
X1463541D01*
X1497397D01*
X1565108Y5391047D01*
X1514324Y5441831D01*
X1463541Y5391047D01*
X2015240Y2591807D02*
Y2490240D01*
Y2524096D01*
X2082951Y2591807D01*
X2032168Y2541023D01*
X2082951Y2490240D01*
X2015240Y2241807D02*
Y2140240D01*
Y2174096D01*
X2082951Y2241807D01*
X2032168Y2191024D01*
X2082951Y2140240D01*
X2015240Y1916807D02*
Y1815240D01*
Y1849096D01*
X2082951Y1916807D01*
X2032168Y1866023D01*
X2082951Y1815240D01*
X1605808Y3728159D02*
X1504241D01*
X1538096D01*
X1605808Y3660447D01*
X1555024Y3711231D01*
X1504241Y3660447D01*
D61*
X4530000Y6681400D02*
Y7051400D01*
X4870000Y6681400D02*
Y7051400D01*
X1553300Y5193000D02*
Y5215000D01*
X1463300Y5193000D02*
Y5215000D01*
X1814000Y2220000D02*
X1836000D01*
X1814000Y2130000D02*
X1836000D01*
X1814000Y1895000D02*
X1836000D01*
X1814000Y1805000D02*
X1836000D01*
X9560000Y4902500D02*
X9585000D01*
X9560000Y3637500D02*
X9585000D01*
X8864500Y3920000D02*
X8914500Y3950000D01*
X8864500Y3980000D02*
X8914500Y3950000D01*
X8864500Y3920000D02*
Y3980000D01*
X9065000Y4902500D02*
X9195000D01*
X9065000Y3637500D02*
X9195000D01*
X9585000D02*
Y4902500D01*
X9065000Y3637500D02*
Y3885500D01*
Y4654500D02*
Y4902500D01*
Y7383400D02*
Y7631400D01*
Y5366400D02*
Y5614400D01*
X9585000Y5366400D02*
Y7631400D01*
X9065000Y5366400D02*
X9195000D01*
X9065000Y7631400D02*
X9195000D01*
X8859800Y5640900D02*
Y5700900D01*
X8909800Y5670900D01*
X8859800Y5640900D02*
X8909800Y5670900D01*
X9560000Y5366400D02*
X9585000D01*
X9560000Y7631400D02*
X9585000D01*
X1504000Y3462400D02*
Y3484400D01*
X1594000Y3462400D02*
Y3484400D01*
X260900Y6573900D02*
Y6595900D01*
X170900Y6573900D02*
Y6595900D01*
X1814000Y2570000D02*
X1836000D01*
X1814000Y2480000D02*
X1836000D01*
D62*
X2222949Y1902208D02*
X2206021Y1919135D01*
X2172166D01*
X2155238Y1902208D01*
Y1834496D01*
X2172166Y1817568D01*
X2206021D01*
X2222949Y1834496D01*
Y1868352D01*
X2189094D01*
X2256805Y1817568D02*
Y1919135D01*
X2307589D01*
X2324517Y1902208D01*
Y1868352D01*
X2307589Y1851424D01*
X2256805D01*
X2459940Y1919135D02*
Y1817568D01*
X2527651D01*
X2629218Y1919135D02*
X2561507D01*
Y1817568D01*
X2629218D01*
X2561507Y1868352D02*
X2595363D01*
X2663074Y1919135D02*
Y1817568D01*
X2713858D01*
X2730785Y1834496D01*
Y1902208D01*
X2713858Y1919135D01*
X2663074D01*
X2866209Y1902208D02*
X2883136Y1919135D01*
X2916992D01*
X2933920Y1902208D01*
Y1885279D01*
X2916992Y1868352D01*
X2900064D01*
X2916992D01*
X2933920Y1851424D01*
Y1834496D01*
X2916992Y1817568D01*
X2883136D01*
X2866209Y1834496D01*
X2228031Y2224959D02*
X2211104Y2241887D01*
X2177248D01*
X2160320Y2224959D01*
Y2157248D01*
X2177248Y2140320D01*
X2211104D01*
X2228031Y2157248D01*
Y2191104D01*
X2194176D01*
X2261887Y2140320D02*
Y2241887D01*
X2312671D01*
X2329599Y2224959D01*
Y2191104D01*
X2312671Y2174176D01*
X2261887D01*
X2465022Y2241887D02*
Y2140320D01*
X2532733D01*
X2634300Y2241887D02*
X2566589D01*
Y2140320D01*
X2634300D01*
X2566589Y2191104D02*
X2600445D01*
X2668156Y2241887D02*
Y2140320D01*
X2718940D01*
X2735868Y2157248D01*
Y2224959D01*
X2718940Y2241887D01*
X2668156D01*
X2939002Y2140320D02*
X2871291D01*
X2939002Y2208031D01*
Y2224959D01*
X2922074Y2241887D01*
X2888219D01*
X2871291Y2224959D01*
X2218031Y2464960D02*
X2201104Y2481887D01*
X2167248D01*
X2150320Y2464960D01*
Y2397248D01*
X2167248Y2380320D01*
X2201104D01*
X2218031Y2397248D01*
Y2431104D01*
X2184176D01*
X2251887Y2380320D02*
Y2481887D01*
X2302671D01*
X2319599Y2464960D01*
Y2431104D01*
X2302671Y2414176D01*
X2251887D01*
X2455022Y2481887D02*
Y2380320D01*
X2522733D01*
X2624300Y2481887D02*
X2556589D01*
Y2380320D01*
X2624300D01*
X2556589Y2431104D02*
X2590445D01*
X2658156Y2481887D02*
Y2380320D01*
X2708940D01*
X2725868Y2397248D01*
Y2464960D01*
X2708940Y2481887D01*
X2658156D01*
X2861291Y2380320D02*
X2895146D01*
X2878219D01*
Y2481887D01*
X2861291Y2464960D01*
X4978441Y6540484D02*
Y6455844D01*
X4995369Y6438917D01*
X5029225D01*
X5046152Y6455844D01*
Y6540484D01*
X5080008Y6438917D02*
X5113864D01*
X5096936D01*
Y6540484D01*
X5080008Y6523556D01*
X5215431Y6438917D02*
Y6540484D01*
X5164648Y6489700D01*
X5232359D01*
X1594577Y8219216D02*
Y8320784D01*
X1645361D01*
X1662289Y8303856D01*
Y8270000D01*
X1645361Y8253072D01*
X1594577D01*
X1628433D02*
X1662289Y8219216D01*
X1763856Y8320784D02*
X1696144D01*
Y8270000D01*
X1730000Y8286928D01*
X1746928D01*
X1763856Y8270000D01*
Y8236144D01*
X1746928Y8219216D01*
X1713072D01*
X1696144Y8236144D01*
X1848495Y8219216D02*
Y8320784D01*
X1797712Y8270000D01*
X1865423D01*
X1550784Y7414577D02*
X1449216D01*
Y7465360D01*
X1466144Y7482288D01*
X1500000D01*
X1516928Y7465360D01*
Y7414577D01*
Y7448433D02*
X1550784Y7482288D01*
Y7566928D02*
X1449216D01*
X1500000Y7516144D01*
Y7583856D01*
X1533856Y7617711D02*
X1550784Y7634639D01*
Y7668495D01*
X1533856Y7685423D01*
X1466144D01*
X1449216Y7668495D01*
Y7634639D01*
X1466144Y7617711D01*
X1483072D01*
X1500000Y7634639D01*
Y7685423D01*
X8884216Y7525753D02*
Y7491897D01*
Y7508825D01*
X8968856D01*
X8985784Y7491897D01*
Y7474969D01*
X8968856Y7458041D01*
X8985784Y7559608D02*
Y7593464D01*
Y7576536D01*
X8884216D01*
X8901144Y7559608D01*
X8985784Y7711959D02*
Y7644248D01*
X8918072Y7711959D01*
X8901144D01*
X8884216Y7695031D01*
Y7661176D01*
X8901144Y7644248D01*
X1460361Y1900783D02*
Y1799216D01*
X1511144D01*
X1528072Y1816144D01*
Y1883856D01*
X1511144Y1900783D01*
X1460361D01*
X1629639D02*
X1595784Y1883856D01*
X1561928Y1850000D01*
Y1816144D01*
X1578856Y1799216D01*
X1612712D01*
X1629639Y1816144D01*
Y1833072D01*
X1612712Y1850000D01*
X1561928D01*
X1465361Y2225784D02*
Y2124216D01*
X1516144D01*
X1533072Y2141144D01*
Y2208856D01*
X1516144Y2225784D01*
X1465361D01*
X1634639Y2124216D02*
X1566928D01*
X1634639Y2191928D01*
Y2208856D01*
X1617712Y2225784D01*
X1583856D01*
X1566928Y2208856D01*
X8884216Y4812680D02*
Y4778825D01*
Y4795753D01*
X8968856D01*
X8985784Y4778825D01*
Y4761897D01*
X8968856Y4744969D01*
X8985784Y4846536D02*
Y4880392D01*
Y4863464D01*
X8884216D01*
X8901144Y4846536D01*
X8985784Y4931176D02*
Y4965031D01*
Y4948104D01*
X8884216D01*
X8901144Y4931176D01*
X7464577Y2039216D02*
Y2140784D01*
X7515360D01*
X7532288Y2123856D01*
Y2090000D01*
X7515360Y2073072D01*
X7464577D01*
X7498433D02*
X7532288Y2039216D01*
X7566144Y2123856D02*
X7583072Y2140784D01*
X7616928D01*
X7633855Y2123856D01*
Y2106928D01*
X7616928Y2090000D01*
X7600000D01*
X7616928D01*
X7633855Y2073072D01*
Y2056144D01*
X7616928Y2039216D01*
X7583072D01*
X7566144Y2056144D01*
X7667711Y2123856D02*
X7684639Y2140784D01*
X7718495D01*
X7735423Y2123856D01*
Y2056144D01*
X7718495Y2039216D01*
X7684639D01*
X7667711Y2056144D01*
Y2123856D01*
X8565361Y124216D02*
Y225784D01*
X8616144D01*
X8633072Y208856D01*
Y175000D01*
X8616144Y158072D01*
X8565361D01*
X8599216D02*
X8633072Y124216D01*
X8666928Y225784D02*
X8734639D01*
Y208856D01*
X8666928Y141144D01*
Y124216D01*
X490361Y199217D02*
Y300784D01*
X541144D01*
X558072Y283856D01*
Y250000D01*
X541144Y233072D01*
X490361D01*
X524217D02*
X558072Y199217D01*
X659640Y300784D02*
X625784Y283856D01*
X591928Y250000D01*
Y216144D01*
X608856Y199217D01*
X642712D01*
X659640Y216144D01*
Y233072D01*
X642712Y250000D01*
X591928D01*
X8515361Y8774216D02*
Y8875784D01*
X8566144D01*
X8583072Y8858856D01*
Y8825000D01*
X8566144Y8808072D01*
X8515361D01*
X8549217D02*
X8583072Y8774216D01*
X8684639Y8875784D02*
X8616928D01*
Y8825000D01*
X8650784Y8841928D01*
X8667712D01*
X8684639Y8825000D01*
Y8791144D01*
X8667712Y8774216D01*
X8633856D01*
X8616928Y8791144D01*
X615361Y8699217D02*
Y8800784D01*
X666144D01*
X683072Y8783856D01*
Y8750000D01*
X666144Y8733072D01*
X615361D01*
X649217D02*
X683072Y8699217D01*
X767712D02*
Y8800784D01*
X716928Y8750000D01*
X784640D01*
X233072Y1350784D02*
X199217D01*
X216144D01*
Y1266144D01*
X199217Y1249216D01*
X182289D01*
X165361Y1266144D01*
X334639Y1350784D02*
X266928D01*
Y1300000D01*
X300784Y1316928D01*
X317712D01*
X334639Y1300000D01*
Y1266144D01*
X317712Y1249216D01*
X283856D01*
X266928Y1266144D01*
X1508072Y1350784D02*
X1474217D01*
X1491144D01*
Y1266144D01*
X1474217Y1249216D01*
X1457289D01*
X1440361Y1266144D01*
X1609639Y1350784D02*
X1575784Y1333856D01*
X1541928Y1300000D01*
Y1266144D01*
X1558856Y1249216D01*
X1592712D01*
X1609639Y1266144D01*
Y1283072D01*
X1592712Y1300000D01*
X1541928D01*
X3792289Y2000784D02*
Y1983856D01*
X3826144Y1950000D01*
X3860000Y1983856D01*
Y2000784D01*
X3826144Y1950000D02*
Y1899216D01*
X3893856D02*
X3927711D01*
X3910784D01*
Y2000784D01*
X3893856Y1983856D01*
X6759216Y5753041D02*
X6843856D01*
X6860783Y5769969D01*
Y5803825D01*
X6843856Y5820752D01*
X6759216D01*
X6860783Y5854608D02*
Y5888464D01*
Y5871536D01*
X6759216D01*
X6776144Y5854608D01*
X6759216Y6006959D02*
Y5939248D01*
X6810000D01*
X6793072Y5973103D01*
Y5990031D01*
X6810000Y6006959D01*
X6843856D01*
X6860783Y5990031D01*
Y5956176D01*
X6843856Y5939248D01*
X2195361Y890784D02*
Y806144D01*
X2212289Y789216D01*
X2246144D01*
X2263072Y806144D01*
Y890784D01*
X2296928Y873856D02*
X2313856Y890784D01*
X2347712D01*
X2364639Y873856D01*
Y856928D01*
X2347712Y840000D01*
X2364639Y823072D01*
Y806144D01*
X2347712Y789216D01*
X2313856D01*
X2296928Y806144D01*
Y823072D01*
X2313856Y840000D01*
X2296928Y856928D01*
Y873856D01*
X2313856Y840000D02*
X2347712D01*
X3315661Y859284D02*
Y774644D01*
X3332589Y757717D01*
X3366444D01*
X3383372Y774644D01*
Y859284D01*
X3417228D02*
X3484939D01*
Y842356D01*
X3417228Y774644D01*
Y757717D01*
X4205361Y1090783D02*
Y1006144D01*
X4222288Y989216D01*
X4256144D01*
X4273072Y1006144D01*
Y1090783D01*
X4374639D02*
X4340784Y1073856D01*
X4306928Y1040000D01*
Y1006144D01*
X4323856Y989216D01*
X4357711D01*
X4374639Y1006144D01*
Y1023072D01*
X4357711Y1040000D01*
X4306928D01*
X5817404Y3791739D02*
X5732764D01*
X5715836Y3774811D01*
Y3740955D01*
X5732764Y3724027D01*
X5817404D01*
Y3622460D02*
Y3690171D01*
X5766620D01*
X5783548Y3656316D01*
Y3639388D01*
X5766620Y3622460D01*
X5732764D01*
X5715836Y3639388D01*
Y3673244D01*
X5732764Y3690171D01*
X6845361Y5070784D02*
Y4986144D01*
X6862289Y4969217D01*
X6896144D01*
X6913072Y4986144D01*
Y5070784D01*
X6997712Y4969217D02*
Y5070784D01*
X6946928Y5020000D01*
X7014640D01*
X5817404Y2681759D02*
X5732764D01*
X5715836Y2664831D01*
Y2630975D01*
X5732764Y2614047D01*
X5817404D01*
X5800476Y2580191D02*
X5817404Y2563264D01*
Y2529408D01*
X5800476Y2512480D01*
X5783548D01*
X5766620Y2529408D01*
Y2546336D01*
Y2529408D01*
X5749692Y2512480D01*
X5732764D01*
X5715836Y2529408D01*
Y2563264D01*
X5732764Y2580191D01*
X6535361Y910784D02*
Y826144D01*
X6552289Y809217D01*
X6586144D01*
X6603072Y826144D01*
Y910784D01*
X6704639Y809217D02*
X6636928D01*
X6704639Y876928D01*
Y893856D01*
X6687712Y910784D01*
X6653856D01*
X6636928Y893856D01*
X6532257Y6759217D02*
Y6860784D01*
X6583041D01*
X6599969Y6843856D01*
Y6810000D01*
X6583041Y6793072D01*
X6532257D01*
X6566113D02*
X6599969Y6759217D01*
X6633825D02*
X6667680D01*
X6650753D01*
Y6860784D01*
X6633825Y6843856D01*
X6769248Y6759217D02*
Y6860784D01*
X6718464Y6810000D01*
X6786175D01*
X6820031Y6776144D02*
X6836959Y6759217D01*
X6870815D01*
X6887743Y6776144D01*
Y6843856D01*
X6870815Y6860784D01*
X6836959D01*
X6820031Y6843856D01*
Y6826928D01*
X6836959Y6810000D01*
X6887743D01*
X4953057Y6705617D02*
Y6807184D01*
X5003841D01*
X5020769Y6790256D01*
Y6756400D01*
X5003841Y6739472D01*
X4953057D01*
X4986913D02*
X5020769Y6705617D01*
X5054625D02*
X5088480D01*
X5071552D01*
Y6807184D01*
X5054625Y6790256D01*
X5190048Y6705617D02*
Y6807184D01*
X5139264Y6756400D01*
X5206975D01*
X5308543Y6705617D02*
X5240831D01*
X5308543Y6773328D01*
Y6790256D01*
X5291615Y6807184D01*
X5257759D01*
X5240831Y6790256D01*
X5170783Y5159185D02*
X5069216D01*
Y5209969D01*
X5086144Y5226897D01*
X5120000D01*
X5136928Y5209969D01*
Y5159185D01*
Y5193041D02*
X5170783Y5226897D01*
Y5260752D02*
Y5294608D01*
Y5277680D01*
X5069216D01*
X5086144Y5260752D01*
X5170783Y5396175D02*
X5069216D01*
X5120000Y5345392D01*
Y5413103D01*
X5170783Y5446959D02*
Y5480815D01*
Y5463887D01*
X5069216D01*
X5086144Y5446959D01*
X5010783Y5132257D02*
X4909216D01*
Y5183041D01*
X4926144Y5199969D01*
X4960000D01*
X4976928Y5183041D01*
Y5132257D01*
Y5166113D02*
X5010783Y5199969D01*
Y5233825D02*
Y5267680D01*
Y5250753D01*
X4909216D01*
X4926144Y5233825D01*
X5010783Y5369248D02*
X4909216D01*
X4960000Y5318464D01*
Y5386175D01*
X4926144Y5420031D02*
X4909216Y5436959D01*
Y5470815D01*
X4926144Y5487743D01*
X4993856D01*
X5010783Y5470815D01*
Y5436959D01*
X4993856Y5420031D01*
X4926144D01*
X5625783Y5417258D02*
X5524216D01*
Y5468041D01*
X5541144Y5484969D01*
X5575000D01*
X5591928Y5468041D01*
Y5417258D01*
Y5451113D02*
X5625783Y5484969D01*
Y5518825D02*
Y5552681D01*
Y5535753D01*
X5524216D01*
X5541144Y5518825D01*
Y5603464D02*
X5524216Y5620392D01*
Y5654248D01*
X5541144Y5671176D01*
X5558072D01*
X5575000Y5654248D01*
Y5637320D01*
Y5654248D01*
X5591928Y5671176D01*
X5608855D01*
X5625783Y5654248D01*
Y5620392D01*
X5608855Y5603464D01*
Y5705032D02*
X5625783Y5721959D01*
Y5755815D01*
X5608855Y5772743D01*
X5541144D01*
X5524216Y5755815D01*
Y5721959D01*
X5541144Y5705032D01*
X5558072D01*
X5575000Y5721959D01*
Y5772743D01*
X5465784Y5419758D02*
X5364216D01*
Y5470541D01*
X5381144Y5487469D01*
X5415000D01*
X5431928Y5470541D01*
Y5419758D01*
Y5453613D02*
X5465784Y5487469D01*
Y5521325D02*
Y5555180D01*
Y5538253D01*
X5364216D01*
X5381144Y5521325D01*
Y5605964D02*
X5364216Y5622892D01*
Y5656748D01*
X5381144Y5673675D01*
X5398072D01*
X5415000Y5656748D01*
Y5639820D01*
Y5656748D01*
X5431928Y5673675D01*
X5448856D01*
X5465784Y5656748D01*
Y5622892D01*
X5448856Y5605964D01*
X5381144Y5707531D02*
X5364216Y5724459D01*
Y5758315D01*
X5381144Y5775243D01*
X5398072D01*
X5415000Y5758315D01*
X5431928Y5775243D01*
X5448856D01*
X5465784Y5758315D01*
Y5724459D01*
X5448856Y5707531D01*
X5431928D01*
X5415000Y5724459D01*
X5398072Y5707531D01*
X5381144D01*
X5415000Y5724459D02*
Y5758315D01*
X266683Y7112057D02*
X165116D01*
Y7162841D01*
X182044Y7179769D01*
X215900D01*
X232828Y7162841D01*
Y7112057D01*
Y7145913D02*
X266683Y7179769D01*
Y7213625D02*
Y7247480D01*
Y7230552D01*
X165116D01*
X182044Y7213625D01*
Y7298264D02*
X165116Y7315192D01*
Y7349048D01*
X182044Y7365975D01*
X198972D01*
X215900Y7349048D01*
Y7332120D01*
Y7349048D01*
X232828Y7365975D01*
X249756D01*
X266683Y7349048D01*
Y7315192D01*
X249756Y7298264D01*
X165116Y7467543D02*
X182044Y7433687D01*
X215900Y7399831D01*
X249756D01*
X266683Y7416759D01*
Y7450615D01*
X249756Y7467543D01*
X232828D01*
X215900Y7450615D01*
Y7399831D01*
X1727183Y4635558D02*
X1625616D01*
Y4686341D01*
X1642544Y4703269D01*
X1676400D01*
X1693328Y4686341D01*
Y4635558D01*
Y4669413D02*
X1727183Y4703269D01*
Y4737125D02*
Y4770981D01*
Y4754053D01*
X1625616D01*
X1642544Y4737125D01*
Y4821764D02*
X1625616Y4838692D01*
Y4872548D01*
X1642544Y4889476D01*
X1659472D01*
X1676400Y4872548D01*
Y4855620D01*
Y4872548D01*
X1693328Y4889476D01*
X1710255D01*
X1727183Y4872548D01*
Y4838692D01*
X1710255Y4821764D01*
X1625616Y4991043D02*
Y4923332D01*
X1676400D01*
X1659472Y4957187D01*
Y4974115D01*
X1676400Y4991043D01*
X1710255D01*
X1727183Y4974115D01*
Y4940259D01*
X1710255Y4923332D01*
X1777583Y2946358D02*
X1676016D01*
Y2997141D01*
X1692944Y3014069D01*
X1726800D01*
X1743728Y2997141D01*
Y2946358D01*
Y2980213D02*
X1777583Y3014069D01*
Y3047925D02*
Y3081780D01*
Y3064853D01*
X1676016D01*
X1692944Y3047925D01*
Y3132564D02*
X1676016Y3149492D01*
Y3183348D01*
X1692944Y3200276D01*
X1709872D01*
X1726800Y3183348D01*
Y3166420D01*
Y3183348D01*
X1743728Y3200276D01*
X1760655D01*
X1777583Y3183348D01*
Y3149492D01*
X1760655Y3132564D01*
X1777583Y3284915D02*
X1676016D01*
X1726800Y3234131D01*
Y3301843D01*
X2829185Y8369216D02*
Y8470784D01*
X2879969D01*
X2896897Y8453856D01*
Y8420000D01*
X2879969Y8403072D01*
X2829185D01*
X2863041D02*
X2896897Y8369216D01*
X2930753D02*
X2964608D01*
X2947680D01*
Y8470784D01*
X2930753Y8453856D01*
X3015392D02*
X3032320Y8470784D01*
X3066175D01*
X3083103Y8453856D01*
Y8436928D01*
X3066175Y8420000D01*
X3049248D01*
X3066175D01*
X3083103Y8403072D01*
Y8386144D01*
X3066175Y8369216D01*
X3032320D01*
X3015392Y8386144D01*
X3116959Y8369216D02*
X3150815D01*
X3133887D01*
Y8470784D01*
X3116959Y8453856D01*
X2080783Y352258D02*
X1979216D01*
Y403041D01*
X1996144Y419969D01*
X2029999D01*
X2046927Y403041D01*
Y352258D01*
Y386113D02*
X2080783Y419969D01*
Y453825D02*
Y487681D01*
Y470753D01*
X1979216D01*
X1996144Y453825D01*
X2080783Y606176D02*
Y538464D01*
X2013072Y606176D01*
X1996144D01*
X1979216Y589248D01*
Y555392D01*
X1996144Y538464D01*
X2063855Y640031D02*
X2080783Y656959D01*
Y690815D01*
X2063855Y707743D01*
X1996144D01*
X1979216Y690815D01*
Y656959D01*
X1996144Y640031D01*
X2013072D01*
X2029999Y656959D01*
Y707743D01*
X3240784Y332257D02*
X3139216D01*
Y383041D01*
X3156144Y399969D01*
X3190000D01*
X3206928Y383041D01*
Y332257D01*
Y366113D02*
X3240784Y399969D01*
Y433825D02*
Y467680D01*
Y450752D01*
X3139216D01*
X3156144Y433825D01*
X3240784Y586175D02*
Y518464D01*
X3173072Y586175D01*
X3156144D01*
X3139216Y569248D01*
Y535392D01*
X3156144Y518464D01*
Y620031D02*
X3139216Y636959D01*
Y670815D01*
X3156144Y687743D01*
X3173072D01*
X3190000Y670815D01*
X3206928Y687743D01*
X3223856D01*
X3240784Y670815D01*
Y636959D01*
X3223856Y620031D01*
X3206928D01*
X3190000Y636959D01*
X3173072Y620031D01*
X3156144D01*
X3190000Y636959D02*
Y670815D01*
X5016663Y1926737D02*
X4915096D01*
Y1977521D01*
X4932024Y1994449D01*
X4965880D01*
X4982807Y1977521D01*
Y1926737D01*
Y1960593D02*
X5016663Y1994449D01*
Y2028305D02*
Y2062160D01*
Y2045232D01*
X4915096D01*
X4932024Y2028305D01*
X5016663Y2180655D02*
Y2112944D01*
X4948952Y2180655D01*
X4932024D01*
X4915096Y2163727D01*
Y2129872D01*
X4932024Y2112944D01*
X4915096Y2214511D02*
Y2282223D01*
X4932024D01*
X4999735Y2214511D01*
X5016663D01*
X4741023Y1934357D02*
X4639456D01*
Y1985141D01*
X4656384Y2002069D01*
X4690240D01*
X4707168Y1985141D01*
Y1934357D01*
Y1968213D02*
X4741023Y2002069D01*
Y2035925D02*
Y2069780D01*
Y2052852D01*
X4639456D01*
X4656384Y2035925D01*
X4741023Y2188275D02*
Y2120564D01*
X4673312Y2188275D01*
X4656384D01*
X4639456Y2171347D01*
Y2137492D01*
X4656384Y2120564D01*
X4639456Y2289843D02*
X4656384Y2255987D01*
X4690240Y2222131D01*
X4724095D01*
X4741023Y2239059D01*
Y2272915D01*
X4724095Y2289843D01*
X4707168D01*
X4690240Y2272915D01*
Y2222131D01*
X7421817Y3685557D02*
Y3787124D01*
X7472601D01*
X7489529Y3770196D01*
Y3736340D01*
X7472601Y3719412D01*
X7421817D01*
X7455673D02*
X7489529Y3685557D01*
X7523384D02*
X7557240D01*
X7540312D01*
Y3787124D01*
X7523384Y3770196D01*
X7675735Y3685557D02*
X7608024D01*
X7675735Y3753268D01*
Y3770196D01*
X7658807Y3787124D01*
X7624952D01*
X7608024Y3770196D01*
X7777302Y3787124D02*
X7709591D01*
Y3736340D01*
X7743447Y3753268D01*
X7760375D01*
X7777302Y3736340D01*
Y3702484D01*
X7760375Y3685557D01*
X7726519D01*
X7709591Y3702484D01*
X7459917Y4136456D02*
Y4238023D01*
X7510701D01*
X7527629Y4221095D01*
Y4187240D01*
X7510701Y4170312D01*
X7459917D01*
X7493773D02*
X7527629Y4136456D01*
X7561484D02*
X7595340D01*
X7578412D01*
Y4238023D01*
X7561484Y4221095D01*
X7713835Y4136456D02*
X7646124D01*
X7713835Y4204167D01*
Y4221095D01*
X7696907Y4238023D01*
X7663052D01*
X7646124Y4221095D01*
X7798475Y4136456D02*
Y4238023D01*
X7747691Y4187240D01*
X7815402D01*
X5980784Y5052257D02*
X5879216D01*
Y5103041D01*
X5896144Y5119969D01*
X5930000D01*
X5946928Y5103041D01*
Y5052257D01*
Y5086113D02*
X5980784Y5119969D01*
Y5153825D02*
Y5187680D01*
Y5170752D01*
X5879216D01*
X5896144Y5153825D01*
X5980784Y5306175D02*
Y5238464D01*
X5913072Y5306175D01*
X5896144D01*
X5879216Y5289247D01*
Y5255392D01*
X5896144Y5238464D01*
Y5340031D02*
X5879216Y5356959D01*
Y5390815D01*
X5896144Y5407743D01*
X5913072D01*
X5930000Y5390815D01*
Y5373887D01*
Y5390815D01*
X5946928Y5407743D01*
X5963856D01*
X5980784Y5390815D01*
Y5356959D01*
X5963856Y5340031D01*
X5867758Y4718764D02*
Y4820331D01*
X5918541D01*
X5935469Y4803403D01*
Y4769547D01*
X5918541Y4752620D01*
X5867758D01*
X5901613D02*
X5935469Y4718764D01*
X5969325D02*
X6003181D01*
X5986253D01*
Y4820331D01*
X5969325Y4803403D01*
X6121676Y4718764D02*
X6053964D01*
X6121676Y4786475D01*
Y4803403D01*
X6104748Y4820331D01*
X6070892D01*
X6053964Y4803403D01*
X6223243Y4718764D02*
X6155532D01*
X6223243Y4786475D01*
Y4803403D01*
X6206315Y4820331D01*
X6172459D01*
X6155532Y4803403D01*
X5874685Y4408764D02*
Y4510331D01*
X5925469D01*
X5942397Y4493403D01*
Y4459547D01*
X5925469Y4442620D01*
X5874685D01*
X5908541D02*
X5942397Y4408764D01*
X5976253D02*
X6010108D01*
X5993181D01*
Y4510331D01*
X5976253Y4493403D01*
X6128603Y4408764D02*
X6060892D01*
X6128603Y4476475D01*
Y4493403D01*
X6111676Y4510331D01*
X6077820D01*
X6060892Y4493403D01*
X6162459Y4408764D02*
X6196315D01*
X6179387D01*
Y4510331D01*
X6162459Y4493403D01*
X7409117Y2681916D02*
Y2783484D01*
X7459901D01*
X7476829Y2766556D01*
Y2732700D01*
X7459901Y2715772D01*
X7409117D01*
X7442973D02*
X7476829Y2681916D01*
X7510684D02*
X7544540D01*
X7527612D01*
Y2783484D01*
X7510684Y2766556D01*
X7663035Y2681916D02*
X7595324D01*
X7663035Y2749628D01*
Y2766556D01*
X7646107Y2783484D01*
X7612252D01*
X7595324Y2766556D01*
X7696891D02*
X7713819Y2783484D01*
X7747675D01*
X7764602Y2766556D01*
Y2698844D01*
X7747675Y2681916D01*
X7713819D01*
X7696891Y2698844D01*
Y2766556D01*
X7420121Y1565956D02*
Y1667524D01*
X7470905D01*
X7487833Y1650596D01*
Y1616740D01*
X7470905Y1599812D01*
X7420121D01*
X7453977D02*
X7487833Y1565956D01*
X7521689D02*
X7555544D01*
X7538616D01*
Y1667524D01*
X7521689Y1650596D01*
X7606328Y1565956D02*
X7640184D01*
X7623256D01*
Y1667524D01*
X7606328Y1650596D01*
X7690967Y1582884D02*
X7707895Y1565956D01*
X7741751D01*
X7758679Y1582884D01*
Y1650596D01*
X7741751Y1667524D01*
X7707895D01*
X7690967Y1650596D01*
Y1633668D01*
X7707895Y1616740D01*
X7758679D01*
X7425321Y2959117D02*
Y3060684D01*
X7476105D01*
X7493033Y3043756D01*
Y3009900D01*
X7476105Y2992972D01*
X7425321D01*
X7459177D02*
X7493033Y2959117D01*
X7526889D02*
X7560744D01*
X7543817D01*
Y3060684D01*
X7526889Y3043756D01*
X7611528Y2959117D02*
X7645384D01*
X7628456D01*
Y3060684D01*
X7611528Y3043756D01*
X7696167D02*
X7713095Y3060684D01*
X7746951D01*
X7763879Y3043756D01*
Y3026828D01*
X7746951Y3009900D01*
X7763879Y2992972D01*
Y2976044D01*
X7746951Y2959117D01*
X7713095D01*
X7696167Y2976044D01*
Y2992972D01*
X7713095Y3009900D01*
X7696167Y3026828D01*
Y3043756D01*
X7713095Y3009900D02*
X7746951D01*
X7412501Y1888036D02*
Y1989604D01*
X7463285D01*
X7480213Y1972676D01*
Y1938820D01*
X7463285Y1921892D01*
X7412501D01*
X7446357D02*
X7480213Y1888036D01*
X7514069D02*
X7547924D01*
X7530996D01*
Y1989604D01*
X7514069Y1972676D01*
X7598708Y1888036D02*
X7632564D01*
X7615636D01*
Y1989604D01*
X7598708Y1972676D01*
X7683347Y1989604D02*
X7751059D01*
Y1972676D01*
X7683347Y1904964D01*
Y1888036D01*
X2933683Y5524558D02*
X2832116D01*
Y5575341D01*
X2849044Y5592269D01*
X2882900D01*
X2899828Y5575341D01*
Y5524558D01*
Y5558413D02*
X2933683Y5592269D01*
Y5626125D02*
Y5659981D01*
Y5643053D01*
X2832116D01*
X2849044Y5626125D01*
Y5710764D02*
X2832116Y5727692D01*
Y5761548D01*
X2849044Y5778476D01*
X2916755D01*
X2933683Y5761548D01*
Y5727692D01*
X2916755Y5710764D01*
X2849044D01*
X2916755Y5812332D02*
X2933683Y5829259D01*
Y5863115D01*
X2916755Y5880043D01*
X2849044D01*
X2832116Y5863115D01*
Y5829259D01*
X2849044Y5812332D01*
X2865972D01*
X2882900Y5829259D01*
Y5880043D01*
X3098783Y5511858D02*
X2997216D01*
Y5562641D01*
X3014144Y5579569D01*
X3048000D01*
X3064928Y5562641D01*
Y5511858D01*
Y5545713D02*
X3098783Y5579569D01*
Y5613425D02*
Y5647281D01*
Y5630353D01*
X2997216D01*
X3014144Y5613425D01*
Y5698064D02*
X2997216Y5714992D01*
Y5748848D01*
X3014144Y5765776D01*
X3081855D01*
X3098783Y5748848D01*
Y5714992D01*
X3081855Y5698064D01*
X3014144D01*
X2997216Y5799632D02*
Y5867343D01*
X3014144D01*
X3081855Y5799632D01*
X3098783D01*
X1694577Y6339216D02*
Y6440784D01*
X1745360D01*
X1762288Y6423856D01*
Y6390000D01*
X1745360Y6373072D01*
X1694577D01*
X1728433D02*
X1762288Y6339216D01*
X1796144Y6356144D02*
X1813072Y6339216D01*
X1846928D01*
X1863856Y6356144D01*
Y6423856D01*
X1846928Y6440784D01*
X1813072D01*
X1796144Y6423856D01*
Y6406928D01*
X1813072Y6390000D01*
X1863856D01*
X1965423Y6339216D02*
X1897711D01*
X1965423Y6406928D01*
Y6423856D01*
X1948495Y6440784D01*
X1914639D01*
X1897711Y6423856D01*
X1681505Y6759217D02*
Y6860784D01*
X1732288D01*
X1749216Y6843856D01*
Y6810000D01*
X1732288Y6793072D01*
X1681505D01*
X1715361D02*
X1749216Y6759217D01*
X1783072Y6776144D02*
X1800000Y6759217D01*
X1833856D01*
X1850783Y6776144D01*
Y6843856D01*
X1833856Y6860784D01*
X1800000D01*
X1783072Y6843856D01*
Y6826928D01*
X1800000Y6810000D01*
X1850783D01*
X1884639Y6759217D02*
X1918495D01*
X1901567D01*
Y6860784D01*
X1884639Y6843856D01*
X5134577Y3399217D02*
Y3500784D01*
X5185361D01*
X5202289Y3483856D01*
Y3450000D01*
X5185361Y3433072D01*
X5134577D01*
X5168433D02*
X5202289Y3399217D01*
X5303856Y3500784D02*
X5236144D01*
Y3450000D01*
X5270000Y3466928D01*
X5286928D01*
X5303856Y3450000D01*
Y3416145D01*
X5286928Y3399217D01*
X5253072D01*
X5236144Y3416145D01*
X5337712Y3483856D02*
X5354640Y3500784D01*
X5388495D01*
X5405423Y3483856D01*
Y3416145D01*
X5388495Y3399217D01*
X5354640D01*
X5337712Y3416145D01*
Y3483856D01*
X5134577Y3559217D02*
Y3660784D01*
X5185361D01*
X5202289Y3643856D01*
Y3610000D01*
X5185361Y3593072D01*
X5134577D01*
X5168433D02*
X5202289Y3559217D01*
X5286928D02*
Y3660784D01*
X5236144Y3610000D01*
X5303856D01*
X5337712Y3643856D02*
X5354640Y3660784D01*
X5388495D01*
X5405423Y3643856D01*
Y3626928D01*
X5388495Y3610000D01*
X5405423Y3593072D01*
Y3576144D01*
X5388495Y3559217D01*
X5354640D01*
X5337712Y3576144D01*
Y3593072D01*
X5354640Y3610000D01*
X5337712Y3626928D01*
Y3643856D01*
X5354640Y3610000D02*
X5388495D01*
X2570783Y6594577D02*
X2469216D01*
Y6645361D01*
X2486144Y6662289D01*
X2520000D01*
X2536928Y6645361D01*
Y6594577D01*
Y6628433D02*
X2570783Y6662289D01*
Y6746928D02*
X2469216D01*
X2520000Y6696145D01*
Y6763856D01*
X2469216Y6865423D02*
X2486144Y6831567D01*
X2520000Y6797712D01*
X2553855D01*
X2570783Y6814640D01*
Y6848495D01*
X2553855Y6865423D01*
X2536928D01*
X2520000Y6848495D01*
Y6797712D01*
X3050784Y6594577D02*
X2949216D01*
Y6645361D01*
X2966144Y6662288D01*
X3000000D01*
X3016928Y6645361D01*
Y6594577D01*
Y6628433D02*
X3050784Y6662288D01*
Y6746928D02*
X2949216D01*
X3000000Y6696144D01*
Y6763856D01*
X2966144Y6797712D02*
X2949216Y6814639D01*
Y6848495D01*
X2966144Y6865423D01*
X2983072D01*
X3000000Y6848495D01*
Y6831567D01*
Y6848495D01*
X3016928Y6865423D01*
X3033856D01*
X3050784Y6848495D01*
Y6814639D01*
X3033856Y6797712D01*
X5870077Y4558764D02*
Y4660331D01*
X5920861D01*
X5937789Y4643403D01*
Y4609547D01*
X5920861Y4592619D01*
X5870077D01*
X5903933D02*
X5937789Y4558764D01*
X6039356D02*
X5971645D01*
X6039356Y4626475D01*
Y4643403D01*
X6022428Y4660331D01*
X5988572D01*
X5971645Y4643403D01*
X6073212D02*
X6090140Y4660331D01*
X6123995D01*
X6140923Y4643403D01*
Y4626475D01*
X6123995Y4609547D01*
X6140923Y4592619D01*
Y4575692D01*
X6123995Y4558764D01*
X6090140D01*
X6073212Y4575692D01*
Y4592619D01*
X6090140Y4609547D01*
X6073212Y4626475D01*
Y4643403D01*
X6090140Y4609547D02*
X6123995D01*
X5870077Y4878764D02*
Y4980331D01*
X5920861D01*
X5937789Y4963403D01*
Y4929547D01*
X5920861Y4912620D01*
X5870077D01*
X5903933D02*
X5937789Y4878764D01*
X6039356D02*
X5971645D01*
X6039356Y4946475D01*
Y4963403D01*
X6022428Y4980331D01*
X5988572D01*
X5971645Y4963403D01*
X6073212Y4980331D02*
X6140923D01*
Y4963403D01*
X6073212Y4895692D01*
Y4878764D01*
X6214577Y5359216D02*
Y5460784D01*
X6265361D01*
X6282288Y5443856D01*
Y5410000D01*
X6265361Y5393072D01*
X6214577D01*
X6248433D02*
X6282288Y5359216D01*
X6383856D02*
X6316144D01*
X6383856Y5426928D01*
Y5443856D01*
X6366928Y5460784D01*
X6333072D01*
X6316144Y5443856D01*
X6485423Y5460784D02*
X6451567Y5443856D01*
X6417712Y5410000D01*
Y5376144D01*
X6434639Y5359216D01*
X6468495D01*
X6485423Y5376144D01*
Y5393072D01*
X6468495Y5410000D01*
X6417712D01*
X3884577Y339216D02*
Y440784D01*
X3935361D01*
X3952289Y423856D01*
Y390000D01*
X3935361Y373072D01*
X3884577D01*
X3918433D02*
X3952289Y339216D01*
X4053856D02*
X3986145D01*
X4053856Y406928D01*
Y423856D01*
X4036928Y440784D01*
X4003073D01*
X3986145Y423856D01*
X4138495Y339216D02*
Y440784D01*
X4087712Y390000D01*
X4155423D01*
X2734577Y349216D02*
Y450784D01*
X2785361D01*
X2802289Y433856D01*
Y400000D01*
X2785361Y383072D01*
X2734577D01*
X2768433D02*
X2802289Y349216D01*
X2903856D02*
X2836144D01*
X2903856Y416928D01*
Y433856D01*
X2886928Y450784D01*
X2853072D01*
X2836144Y433856D01*
X3005423Y349216D02*
X2937712D01*
X3005423Y416928D01*
Y433856D01*
X2988495Y450784D01*
X2954640D01*
X2937712Y433856D01*
X1594577Y7129216D02*
Y7230784D01*
X1645361D01*
X1662289Y7213856D01*
Y7180000D01*
X1645361Y7163072D01*
X1594577D01*
X1628433D02*
X1662289Y7129216D01*
X1763856D02*
X1696144D01*
X1763856Y7196928D01*
Y7213856D01*
X1746928Y7230784D01*
X1713072D01*
X1696144Y7213856D01*
X1797712D02*
X1814639Y7230784D01*
X1848495D01*
X1865423Y7213856D01*
Y7146144D01*
X1848495Y7129216D01*
X1814639D01*
X1797712Y7146144D01*
Y7213856D01*
X1560784Y7773041D02*
X1459216D01*
Y7823825D01*
X1476144Y7840752D01*
X1510000D01*
X1526928Y7823825D01*
Y7773041D01*
Y7806897D02*
X1560784Y7840752D01*
Y7874608D02*
Y7908464D01*
Y7891536D01*
X1459216D01*
X1476144Y7874608D01*
X1543856Y7959248D02*
X1560784Y7976176D01*
Y8010031D01*
X1543856Y8026959D01*
X1476144D01*
X1459216Y8010031D01*
Y7976176D01*
X1476144Y7959248D01*
X1493072D01*
X1510000Y7976176D01*
Y8026959D01*
X5198241Y4559216D02*
Y4660784D01*
X5249024D01*
X5265952Y4643856D01*
Y4610000D01*
X5249024Y4593072D01*
X5198241D01*
X5232096D02*
X5265952Y4559216D01*
X5299808D02*
X5333664D01*
X5316736D01*
Y4660784D01*
X5299808Y4643856D01*
X5452159Y4559216D02*
X5384447D01*
X5452159Y4626928D01*
Y4643856D01*
X5435231Y4660784D01*
X5401375D01*
X5384447Y4643856D01*
X5198241Y4709216D02*
Y4810784D01*
X5249024D01*
X5265952Y4793856D01*
Y4760000D01*
X5249024Y4743072D01*
X5198241D01*
X5232096D02*
X5265952Y4709216D01*
X5299808D02*
X5333664D01*
X5316736D01*
Y4810784D01*
X5299808Y4793856D01*
X5384447D02*
X5401375Y4810784D01*
X5435231D01*
X5452159Y4793856D01*
Y4726144D01*
X5435231Y4709216D01*
X5401375D01*
X5384447Y4726144D01*
Y4793856D01*
X5209361Y4871917D02*
Y4973484D01*
X5260144D01*
X5277072Y4956556D01*
Y4922700D01*
X5260144Y4905772D01*
X5209361D01*
X5243216D02*
X5277072Y4871917D01*
X5310928Y4888844D02*
X5327856Y4871917D01*
X5361711D01*
X5378639Y4888844D01*
Y4956556D01*
X5361711Y4973484D01*
X5327856D01*
X5310928Y4956556D01*
Y4939628D01*
X5327856Y4922700D01*
X5378639D01*
X1465361Y1649216D02*
Y1750784D01*
X1516144D01*
X1533072Y1733856D01*
Y1700000D01*
X1516144Y1683072D01*
X1465361D01*
X1499216D02*
X1533072Y1649216D01*
X1566928Y1733856D02*
X1583856Y1750784D01*
X1617712D01*
X1634639Y1733856D01*
Y1716928D01*
X1617712Y1700000D01*
X1600784D01*
X1617712D01*
X1634639Y1683072D01*
Y1666144D01*
X1617712Y1649216D01*
X1583856D01*
X1566928Y1666144D01*
X1470361Y1984217D02*
Y2085784D01*
X1521144D01*
X1538072Y2068856D01*
Y2035000D01*
X1521144Y2018072D01*
X1470361D01*
X1504216D02*
X1538072Y1984217D01*
X1639639D02*
X1571928D01*
X1639639Y2051928D01*
Y2068856D01*
X1622711Y2085784D01*
X1588856D01*
X1571928Y2068856D01*
X1507289Y2299217D02*
Y2400784D01*
X1558072D01*
X1575000Y2383856D01*
Y2350000D01*
X1558072Y2333072D01*
X1507289D01*
X1541144D02*
X1575000Y2299217D01*
X1608856D02*
X1642711D01*
X1625784D01*
Y2400784D01*
X1608856Y2383856D01*
X8023072Y430784D02*
X7989216D01*
X8006144D01*
Y346144D01*
X7989216Y329217D01*
X7972289D01*
X7955361Y346144D01*
X8124639Y329217D02*
X8056928D01*
X8124639Y396928D01*
Y413856D01*
X8107711Y430784D01*
X8073856D01*
X8056928Y413856D01*
X4810000Y200784D02*
X4776144D01*
X4793072D01*
Y116144D01*
X4776144Y99216D01*
X4759217D01*
X4742289Y116144D01*
X4843856Y99216D02*
X4877712D01*
X4860784D01*
Y200784D01*
X4843856Y183856D01*
X165116Y6100261D02*
X266683D01*
Y6151044D01*
X249756Y6167972D01*
X182044D01*
X165116Y6151044D01*
Y6100261D01*
Y6269539D02*
Y6201828D01*
X215900D01*
X198972Y6235684D01*
Y6252612D01*
X215900Y6269539D01*
X249756D01*
X266683Y6252612D01*
Y6218756D01*
X249756Y6201828D01*
X1460056Y4834881D02*
X1561623D01*
Y4885664D01*
X1544696Y4902592D01*
X1476984D01*
X1460056Y4885664D01*
Y4834881D01*
X1561623Y4987231D02*
X1460056D01*
X1510840Y4936448D01*
Y5004159D01*
X1485516Y3115661D02*
X1587083D01*
Y3166444D01*
X1570156Y3183372D01*
X1502444D01*
X1485516Y3166444D01*
Y3115661D01*
X1502444Y3217228D02*
X1485516Y3234156D01*
Y3268011D01*
X1502444Y3284939D01*
X1519372D01*
X1536300Y3268011D01*
Y3251084D01*
Y3268011D01*
X1553228Y3284939D01*
X1570156D01*
X1587083Y3268011D01*
Y3234156D01*
X1570156Y3217228D01*
X1507289Y2575784D02*
Y2474217D01*
X1558072D01*
X1575000Y2491144D01*
Y2558856D01*
X1558072Y2575784D01*
X1507289D01*
X1608856Y2474217D02*
X1642711D01*
X1625784D01*
Y2575784D01*
X1608856Y2558856D01*
X6782288Y6493856D02*
X6765361Y6510784D01*
X6731505D01*
X6714577Y6493856D01*
Y6426144D01*
X6731505Y6409217D01*
X6765361D01*
X6782288Y6426144D01*
X6866928Y6409217D02*
Y6510784D01*
X6816144Y6460000D01*
X6883856D01*
X6985423Y6510784D02*
X6951567Y6493856D01*
X6917712Y6460000D01*
Y6426144D01*
X6934639Y6409217D01*
X6968495D01*
X6985423Y6426144D01*
Y6443072D01*
X6968495Y6460000D01*
X6917712D01*
X5903844Y6370548D02*
X5886916Y6353620D01*
Y6319765D01*
X5903844Y6302837D01*
X5971555D01*
X5988483Y6319765D01*
Y6353620D01*
X5971555Y6370548D01*
X5988483Y6455187D02*
X5886916D01*
X5937700Y6404404D01*
Y6472115D01*
X5886916Y6573683D02*
Y6505971D01*
X5937700D01*
X5920772Y6539827D01*
Y6556755D01*
X5937700Y6573683D01*
X5971555D01*
X5988483Y6556755D01*
Y6522899D01*
X5971555Y6505971D01*
X5896144Y5742289D02*
X5879216Y5725361D01*
Y5691505D01*
X5896144Y5674577D01*
X5963855D01*
X5980783Y5691505D01*
Y5725361D01*
X5963855Y5742289D01*
X5980783Y5826928D02*
X5879216D01*
X5930000Y5776145D01*
Y5843856D01*
X5980783Y5928495D02*
X5879216D01*
X5930000Y5877712D01*
Y5945423D01*
X6081144Y6372288D02*
X6064216Y6355361D01*
Y6321505D01*
X6081144Y6304577D01*
X6148856D01*
X6165783Y6321505D01*
Y6355361D01*
X6148856Y6372288D01*
X6165783Y6456928D02*
X6064216D01*
X6115000Y6406144D01*
Y6473856D01*
X6081144Y6507712D02*
X6064216Y6524639D01*
Y6558495D01*
X6081144Y6575423D01*
X6098072D01*
X6115000Y6558495D01*
Y6541567D01*
Y6558495D01*
X6131928Y6575423D01*
X6148856D01*
X6165783Y6558495D01*
Y6524639D01*
X6148856Y6507712D01*
X4642288Y5603856D02*
X4625361Y5620784D01*
X4591505D01*
X4574577Y5603856D01*
Y5536144D01*
X4591505Y5519217D01*
X4625361D01*
X4642288Y5536144D01*
X4726928Y5519217D02*
Y5620784D01*
X4676144Y5570000D01*
X4743856D01*
X4845423Y5519217D02*
X4777712D01*
X4845423Y5586928D01*
Y5603856D01*
X4828495Y5620784D01*
X4794639D01*
X4777712Y5603856D01*
X5233644Y5606716D02*
X5216716Y5589789D01*
Y5555933D01*
X5233644Y5539005D01*
X5301355D01*
X5318283Y5555933D01*
Y5589789D01*
X5301355Y5606716D01*
X5318283Y5691356D02*
X5216716D01*
X5267500Y5640572D01*
Y5708284D01*
X5318283Y5742140D02*
Y5775995D01*
Y5759067D01*
X5216716D01*
X5233644Y5742140D01*
X4223856Y6322712D02*
X4240784Y6339640D01*
Y6373495D01*
X4223856Y6390423D01*
X4156144D01*
X4139217Y6373495D01*
Y6339640D01*
X4156144Y6322712D01*
X4139217Y6238072D02*
X4240784D01*
X4190000Y6288856D01*
Y6221145D01*
X4223856Y6187289D02*
X4240784Y6170361D01*
Y6136505D01*
X4223856Y6119577D01*
X4156144D01*
X4139217Y6136505D01*
Y6170361D01*
X4156144Y6187289D01*
X4223856D01*
X5572288Y6211356D02*
X5555360Y6228284D01*
X5521505D01*
X5504577Y6211356D01*
Y6143644D01*
X5521505Y6126716D01*
X5555360D01*
X5572288Y6143644D01*
X5606144Y6211356D02*
X5623072Y6228284D01*
X5656928D01*
X5673856Y6211356D01*
Y6194428D01*
X5656928Y6177500D01*
X5640000D01*
X5656928D01*
X5673856Y6160572D01*
Y6143644D01*
X5656928Y6126716D01*
X5623072D01*
X5606144Y6143644D01*
X5707711D02*
X5724639Y6126716D01*
X5758495D01*
X5775423Y6143644D01*
Y6211356D01*
X5758495Y6228284D01*
X5724639D01*
X5707711Y6211356D01*
Y6194428D01*
X5724639Y6177500D01*
X5775423D01*
X3172289Y7593856D02*
X3155361Y7610784D01*
X3121505D01*
X3104577Y7593856D01*
Y7526144D01*
X3121505Y7509217D01*
X3155361D01*
X3172289Y7526144D01*
X3206144Y7593856D02*
X3223072Y7610784D01*
X3256928D01*
X3273856Y7593856D01*
Y7576928D01*
X3256928Y7560000D01*
X3240000D01*
X3256928D01*
X3273856Y7543072D01*
Y7526144D01*
X3256928Y7509217D01*
X3223072D01*
X3206144Y7526144D01*
X3375423Y7509217D02*
X3307712D01*
X3375423Y7576928D01*
Y7593856D01*
X3358495Y7610784D01*
X3324640D01*
X3307712Y7593856D01*
X2289216Y7743856D02*
X2272288Y7760784D01*
X2238433D01*
X2221505Y7743856D01*
Y7676144D01*
X2238433Y7659217D01*
X2272288D01*
X2289216Y7676144D01*
X2323072Y7743856D02*
X2340000Y7760784D01*
X2373856D01*
X2390783Y7743856D01*
Y7726928D01*
X2373856Y7710000D01*
X2356928D01*
X2373856D01*
X2390783Y7693072D01*
Y7676144D01*
X2373856Y7659217D01*
X2340000D01*
X2323072Y7676144D01*
X2424639Y7659217D02*
X2458495D01*
X2441567D01*
Y7760784D01*
X2424639Y7743856D01*
X2206144Y7242289D02*
X2189216Y7225361D01*
Y7191505D01*
X2206144Y7174577D01*
X2273855D01*
X2290783Y7191505D01*
Y7225361D01*
X2273855Y7242289D01*
X2206144Y7276145D02*
X2189216Y7293073D01*
Y7326928D01*
X2206144Y7343856D01*
X2223072D01*
X2240000Y7326928D01*
Y7310000D01*
Y7326928D01*
X2256928Y7343856D01*
X2273855D01*
X2290783Y7326928D01*
Y7293073D01*
X2273855Y7276145D01*
X2206144Y7377712D02*
X2189216Y7394640D01*
Y7428495D01*
X2206144Y7445423D01*
X2273855D01*
X2290783Y7428495D01*
Y7394640D01*
X2273855Y7377712D01*
X2206144D01*
X2332288Y8213856D02*
X2315361Y8230784D01*
X2281505D01*
X2264577Y8213856D01*
Y8146144D01*
X2281505Y8129216D01*
X2315361D01*
X2332288Y8146144D01*
X2433856Y8129216D02*
X2366144D01*
X2433856Y8196928D01*
Y8213856D01*
X2416928Y8230784D01*
X2383072D01*
X2366144Y8213856D01*
X2467712Y8146144D02*
X2484639Y8129216D01*
X2518495D01*
X2535423Y8146144D01*
Y8213856D01*
X2518495Y8230784D01*
X2484639D01*
X2467712Y8213856D01*
Y8196928D01*
X2484639Y8180000D01*
X2535423D01*
X2246144Y1372289D02*
X2229216Y1355361D01*
Y1321505D01*
X2246144Y1304578D01*
X2313855D01*
X2330783Y1321505D01*
Y1355361D01*
X2313855Y1372289D01*
X2330783Y1473856D02*
Y1406145D01*
X2263072Y1473856D01*
X2246144D01*
X2229216Y1456928D01*
Y1423073D01*
X2246144Y1406145D01*
Y1507712D02*
X2229216Y1524640D01*
Y1558495D01*
X2246144Y1575423D01*
X2263072D01*
X2280000Y1558495D01*
X2296928Y1575423D01*
X2313855D01*
X2330783Y1558495D01*
Y1524640D01*
X2313855Y1507712D01*
X2296928D01*
X2280000Y1524640D01*
X2263072Y1507712D01*
X2246144D01*
X2280000Y1524640D02*
Y1558495D01*
X3386144Y1352288D02*
X3369216Y1335361D01*
Y1301505D01*
X3386144Y1284577D01*
X3453856D01*
X3470784Y1301505D01*
Y1335361D01*
X3453856Y1352288D01*
X3470784Y1453856D02*
Y1386144D01*
X3403072Y1453856D01*
X3386144D01*
X3369216Y1436928D01*
Y1403072D01*
X3386144Y1386144D01*
X3369216Y1487712D02*
Y1555423D01*
X3386144D01*
X3453856Y1487712D01*
X3470784D01*
X5276684Y1998668D02*
X5259756Y1981741D01*
Y1947885D01*
X5276684Y1930957D01*
X5344395D01*
X5361323Y1947885D01*
Y1981741D01*
X5344395Y1998668D01*
X5361323Y2100236D02*
Y2032524D01*
X5293612Y2100236D01*
X5276684D01*
X5259756Y2083308D01*
Y2049452D01*
X5276684Y2032524D01*
X5259756Y2201803D02*
X5276684Y2167947D01*
X5310540Y2134091D01*
X5344395D01*
X5361323Y2151019D01*
Y2184875D01*
X5344395Y2201803D01*
X5327468D01*
X5310540Y2184875D01*
Y2134091D01*
X7488788Y3386656D02*
X7471861Y3403584D01*
X7438005D01*
X7421077Y3386656D01*
Y3318944D01*
X7438005Y3302017D01*
X7471861D01*
X7488788Y3318944D01*
X7590356Y3302017D02*
X7522644D01*
X7590356Y3369728D01*
Y3386656D01*
X7573428Y3403584D01*
X7539572D01*
X7522644Y3386656D01*
X7691923Y3403584D02*
X7624212D01*
Y3352800D01*
X7658067Y3369728D01*
X7674995D01*
X7691923Y3352800D01*
Y3318944D01*
X7674995Y3302017D01*
X7641139D01*
X7624212Y3318944D01*
X6582288Y5233856D02*
X6565361Y5250784D01*
X6531505D01*
X6514577Y5233856D01*
Y5166144D01*
X6531505Y5149217D01*
X6565361D01*
X6582288Y5166144D01*
X6683856Y5149217D02*
X6616144D01*
X6683856Y5216928D01*
Y5233856D01*
X6666928Y5250784D01*
X6633072D01*
X6616144Y5233856D01*
X6768495Y5149217D02*
Y5250784D01*
X6717711Y5200000D01*
X6785423D01*
X7458188Y2254016D02*
X7441260Y2270944D01*
X7407405D01*
X7390477Y2254016D01*
Y2186304D01*
X7407405Y2169376D01*
X7441260D01*
X7458188Y2186304D01*
X7559756Y2169376D02*
X7492044D01*
X7559756Y2237088D01*
Y2254016D01*
X7542828Y2270944D01*
X7508972D01*
X7492044Y2254016D01*
X7593611D02*
X7610539Y2270944D01*
X7644395D01*
X7661323Y2254016D01*
Y2237088D01*
X7644395Y2220160D01*
X7627467D01*
X7644395D01*
X7661323Y2203232D01*
Y2186304D01*
X7644395Y2169376D01*
X7610539D01*
X7593611Y2186304D01*
X7503876Y1302311D02*
X7520803Y1319239D01*
Y1353095D01*
X7503876Y1370023D01*
X7436164D01*
X7419236Y1353095D01*
Y1319239D01*
X7436164Y1302311D01*
X7419236Y1200744D02*
Y1268455D01*
X7486947Y1200744D01*
X7503876D01*
X7520803Y1217672D01*
Y1251528D01*
X7503876Y1268455D01*
X7419236Y1099177D02*
Y1166888D01*
X7486947Y1099177D01*
X7503876D01*
X7520803Y1116105D01*
Y1149960D01*
X7503876Y1166888D01*
X3426144Y2249216D02*
X3409216Y2232289D01*
Y2198433D01*
X3426144Y2181505D01*
X3493855D01*
X3510783Y2198433D01*
Y2232289D01*
X3493855Y2249216D01*
X3510783Y2350784D02*
Y2283072D01*
X3443072Y2350784D01*
X3426144D01*
X3409216Y2333856D01*
Y2300000D01*
X3426144Y2283072D01*
X3510783Y2384640D02*
Y2418495D01*
Y2401567D01*
X3409216D01*
X3426144Y2384640D01*
X3500688Y2011296D02*
X3483761Y2028224D01*
X3449905D01*
X3432977Y2011296D01*
Y1943584D01*
X3449905Y1926657D01*
X3483761D01*
X3500688Y1943584D01*
X3602256Y1926657D02*
X3534544D01*
X3602256Y1994368D01*
Y2011296D01*
X3585328Y2028224D01*
X3551472D01*
X3534544Y2011296D01*
X3636112D02*
X3653039Y2028224D01*
X3686895D01*
X3703823Y2011296D01*
Y1943584D01*
X3686895Y1926657D01*
X3653039D01*
X3636112Y1943584D01*
Y2011296D01*
X4066144Y2000752D02*
X4049216Y1983825D01*
Y1949969D01*
X4066144Y1933041D01*
X4133856D01*
X4150783Y1949969D01*
Y1983825D01*
X4133856Y2000752D01*
X4150783Y2034608D02*
Y2068464D01*
Y2051536D01*
X4049216D01*
X4066144Y2034608D01*
X4133856Y2119248D02*
X4150783Y2136176D01*
Y2170031D01*
X4133856Y2186959D01*
X4066144D01*
X4049216Y2170031D01*
Y2136176D01*
X4066144Y2119248D01*
X4083072D01*
X4100000Y2136176D01*
Y2186959D01*
X1983433Y3268796D02*
X1966505Y3285724D01*
X1932649D01*
X1915721Y3268796D01*
Y3201084D01*
X1932649Y3184156D01*
X1966505D01*
X1983433Y3201084D01*
X2017289Y3184156D02*
X2051144D01*
X2034216D01*
Y3285724D01*
X2017289Y3268796D01*
X2101928D02*
X2118856Y3285724D01*
X2152711D01*
X2169639Y3268796D01*
Y3251868D01*
X2152711Y3234940D01*
X2169639Y3218012D01*
Y3201084D01*
X2152711Y3184156D01*
X2118856D01*
X2101928Y3201084D01*
Y3218012D01*
X2118856Y3234940D01*
X2101928Y3251868D01*
Y3268796D01*
X2118856Y3234940D02*
X2152711D01*
X1742213Y3818936D02*
X1725285Y3835864D01*
X1691429D01*
X1674501Y3818936D01*
Y3751224D01*
X1691429Y3734297D01*
X1725285D01*
X1742213Y3751224D01*
X1776069Y3734297D02*
X1809924D01*
X1792996D01*
Y3835864D01*
X1776069Y3818936D01*
X1860708Y3835864D02*
X1928419D01*
Y3818936D01*
X1860708Y3751224D01*
Y3734297D01*
X1770752Y4343856D02*
X1753825Y4360784D01*
X1719969D01*
X1703041Y4343856D01*
Y4276144D01*
X1719969Y4259217D01*
X1753825D01*
X1770752Y4276144D01*
X1804608Y4259217D02*
X1838464D01*
X1821536D01*
Y4360784D01*
X1804608Y4343856D01*
X1956959Y4360784D02*
X1923103Y4343856D01*
X1889248Y4310000D01*
Y4276144D01*
X1906176Y4259217D01*
X1940031D01*
X1956959Y4276144D01*
Y4293072D01*
X1940031Y4310000D01*
X1889248D01*
X2598104Y5587892D02*
X2581176Y5570964D01*
Y5537109D01*
X2598104Y5520181D01*
X2665815D01*
X2682743Y5537109D01*
Y5570964D01*
X2665815Y5587892D01*
X2682743Y5621748D02*
Y5655604D01*
Y5638676D01*
X2581176D01*
X2598104Y5621748D01*
X2581176Y5774099D02*
Y5706387D01*
X2631959D01*
X2615032Y5740243D01*
Y5757171D01*
X2631959Y5774099D01*
X2665815D01*
X2682743Y5757171D01*
Y5723315D01*
X2665815Y5706387D01*
X3166544Y5630352D02*
X3149616Y5613425D01*
Y5579569D01*
X3166544Y5562641D01*
X3234256D01*
X3251183Y5579569D01*
Y5613425D01*
X3234256Y5630352D01*
X3251183Y5664208D02*
Y5698064D01*
Y5681136D01*
X3149616D01*
X3166544Y5664208D01*
X3251183Y5799631D02*
X3149616D01*
X3200400Y5748848D01*
Y5816559D01*
X3966144Y5280752D02*
X3949216Y5263825D01*
Y5229969D01*
X3966144Y5213041D01*
X4033856D01*
X4050783Y5229969D01*
Y5263825D01*
X4033856Y5280752D01*
X4050783Y5314608D02*
Y5348464D01*
Y5331536D01*
X3949216D01*
X3966144Y5314608D01*
Y5399248D02*
X3949216Y5416176D01*
Y5450031D01*
X3966144Y5466959D01*
X4033856D01*
X4050783Y5450031D01*
Y5416176D01*
X4033856Y5399248D01*
X3966144D01*
X4663072Y5373856D02*
X4646144Y5390784D01*
X4612289D01*
X4595361Y5373856D01*
Y5306144D01*
X4612289Y5289216D01*
X4646144D01*
X4663072Y5306144D01*
X4696928D02*
X4713856Y5289216D01*
X4747712D01*
X4764639Y5306144D01*
Y5373856D01*
X4747712Y5390784D01*
X4713856D01*
X4696928Y5373856D01*
Y5356928D01*
X4713856Y5340000D01*
X4764639D01*
X5129452Y4443856D02*
X5112524Y4460784D01*
X5078669D01*
X5061741Y4443856D01*
Y4376144D01*
X5078669Y4359217D01*
X5112524D01*
X5129452Y4376144D01*
X5163308Y4443856D02*
X5180236Y4460784D01*
X5214092D01*
X5231020Y4443856D01*
Y4426928D01*
X5214092Y4410000D01*
X5231020Y4393072D01*
Y4376144D01*
X5214092Y4359217D01*
X5180236D01*
X5163308Y4376144D01*
Y4393072D01*
X5180236Y4410000D01*
X5163308Y4426928D01*
Y4443856D01*
X5180236Y4410000D02*
X5214092D01*
X5193072Y3943856D02*
X5176145Y3960784D01*
X5142289D01*
X5125361Y3943856D01*
Y3876144D01*
X5142289Y3859217D01*
X5176145D01*
X5193072Y3876144D01*
X5226928Y3960784D02*
X5294640D01*
Y3943856D01*
X5226928Y3876144D01*
Y3859217D01*
X5153072Y3273856D02*
X5136144Y3290784D01*
X5102289D01*
X5085361Y3273856D01*
Y3206144D01*
X5102289Y3189217D01*
X5136144D01*
X5153072Y3206144D01*
X5254639Y3290784D02*
X5220784Y3273856D01*
X5186928Y3240000D01*
Y3206144D01*
X5203856Y3189217D01*
X5237712D01*
X5254639Y3206144D01*
Y3223072D01*
X5237712Y3240000D01*
X5186928D01*
X3306244Y2370672D02*
X3289316Y2353744D01*
Y2319889D01*
X3306244Y2302961D01*
X3373956D01*
X3390883Y2319889D01*
Y2353744D01*
X3373956Y2370672D01*
X3289316Y2472239D02*
Y2404528D01*
X3340100D01*
X3323172Y2438384D01*
Y2455312D01*
X3340100Y2472239D01*
X3373956D01*
X3390883Y2455312D01*
Y2421456D01*
X3373956Y2404528D01*
X3026844Y2650072D02*
X3009916Y2633144D01*
Y2599289D01*
X3026844Y2582361D01*
X3094556D01*
X3111483Y2599289D01*
Y2633144D01*
X3094556Y2650072D01*
X3111483Y2734712D02*
X3009916D01*
X3060700Y2683928D01*
Y2751639D01*
X4356144Y2335172D02*
X4339216Y2318245D01*
Y2284389D01*
X4356144Y2267461D01*
X4423856D01*
X4440784Y2284389D01*
Y2318245D01*
X4423856Y2335172D01*
X4356144Y2369028D02*
X4339216Y2385956D01*
Y2419812D01*
X4356144Y2436740D01*
X4373072D01*
X4390000Y2419812D01*
Y2402884D01*
Y2419812D01*
X4406928Y2436740D01*
X4423856D01*
X4440784Y2419812D01*
Y2385956D01*
X4423856Y2369028D01*
X4516345Y2343931D02*
X4499417Y2327003D01*
Y2293148D01*
X4516345Y2276220D01*
X4584056D01*
X4600984Y2293148D01*
Y2327003D01*
X4584056Y2343931D01*
X4600984Y2445498D02*
Y2377787D01*
X4533273Y2445498D01*
X4516345D01*
X4499417Y2428570D01*
Y2394715D01*
X4516345Y2377787D01*
X4206144Y2377500D02*
X4189216Y2360573D01*
Y2326717D01*
X4206144Y2309789D01*
X4273856D01*
X4290784Y2326717D01*
Y2360573D01*
X4273856Y2377500D01*
X4290784Y2411356D02*
Y2445212D01*
Y2428284D01*
X4189216D01*
X4206144Y2411356D01*
D71*
X2577500Y2910000D02*
G03*
X2577500Y2910000I-12500J0D01*
G01*
D72*
X3620000Y2730000D02*
X3940000D01*
X3620000Y2230000D02*
X3920000D01*
D73*
X1223523Y8857379D02*
X1189667Y8891234D01*
X1121956D01*
X1088100Y8857379D01*
Y8721956D01*
X1121956Y8688100D01*
X1189667D01*
X1223523Y8721956D01*
X1291234Y8891234D02*
X1426657D01*
X1358945D01*
Y8688100D01*
X1629791Y8857379D02*
X1595936Y8891234D01*
X1528224D01*
X1494368Y8857379D01*
Y8823523D01*
X1528224Y8789667D01*
X1595936D01*
X1629791Y8755811D01*
Y8721956D01*
X1595936Y8688100D01*
X1528224D01*
X1494368Y8721956D01*
X2036060Y8857379D02*
X2002204Y8891234D01*
X1934492D01*
X1900637Y8857379D01*
Y8823523D01*
X1934492Y8789667D01*
X2002204D01*
X2036060Y8755811D01*
Y8721956D01*
X2002204Y8688100D01*
X1934492D01*
X1900637Y8721956D01*
X2103771Y8688100D02*
Y8823523D01*
X2171482Y8891234D01*
X2239194Y8823523D01*
Y8688100D01*
Y8789667D01*
X2103771D01*
X2306905Y8891234D02*
X2442328D01*
X2374617D01*
Y8688100D01*
X2713174D02*
X2780885D01*
X2747029D01*
Y8891234D01*
X2713174Y8857379D01*
X3187154Y8891234D02*
X3119442D01*
X3085586Y8857379D01*
Y8721956D01*
X3119442Y8688100D01*
X3187154D01*
X3221009Y8721956D01*
Y8857379D01*
X3187154Y8891234D01*
X3288721D02*
Y8688100D01*
X3390288D01*
X3424144Y8721956D01*
Y8755811D01*
X3390288Y8789667D01*
X3288721D01*
X3390288D01*
X3424144Y8823523D01*
Y8857379D01*
X3390288Y8891234D01*
X3288721D01*
X3627278Y8857379D02*
X3593422Y8891234D01*
X3525710D01*
X3491855Y8857379D01*
Y8721956D01*
X3525710Y8688100D01*
X3593422D01*
X3627278Y8721956D01*
D74*
X200049Y4580036D02*
D03*
X199976Y4549949D02*
D03*
%TF.MD5,b10e7dce4865a06110f16f20a1b27b05*%
M02*
