G04*
G04 #@! TF.GenerationSoftware,Altium Limited,Altium Designer,21.8.1 (53)*
G04*
G04 Layer_Color=16711935*
%FSLAX44Y44*%
%MOMM*%
G71*
G04*
G04 #@! TF.SameCoordinates,50A5A8F4-FCC5-4A63-BB33-6A8E803C0949*
G04*
G04*
G04 #@! TF.FilePolarity,Positive*
G04*
G01*
G75*
%ADD15C,0.2540*%
D15*
X215300Y96520D02*
X248100D01*
X215300Y128820D02*
X248100D01*
X215300Y96520D02*
Y128820D01*
X248100Y96520D02*
Y128820D01*
X345550Y94340D02*
X378350D01*
X345550Y126640D02*
X378350D01*
X345550Y94340D02*
Y126640D01*
X378350Y94340D02*
Y126640D01*
X876155Y325428D02*
X958655D01*
X876155Y150000D02*
Y325428D01*
X959000D02*
X959000Y901700D01*
X876155Y150000D02*
X959000D01*
Y0D02*
Y150000D01*
X0Y901000D02*
X405000D01*
X812500Y901700D02*
X959000Y901700D01*
X405000Y818750D02*
X812500D01*
Y901250D01*
X405000Y818750D02*
Y901000D01*
X0Y0D02*
Y901000D01*
Y0D02*
X959000D01*
X215300Y96520D02*
X248100D01*
X215300Y128820D02*
X248100D01*
X215300Y96520D02*
Y128820D01*
X248100Y96520D02*
Y128820D01*
X345550Y94340D02*
X378350D01*
X345550Y126640D02*
X378350D01*
X345550Y94340D02*
Y126640D01*
X378350Y94340D02*
Y126640D01*
X876155Y325428D02*
X958655D01*
X876155Y150000D02*
Y325428D01*
X959000D02*
X959000Y901700D01*
X876155Y150000D02*
X959000D01*
Y0D02*
Y150000D01*
X0Y901000D02*
X405000D01*
X812500Y901700D02*
X959000Y901700D01*
X405000Y818750D02*
X812500D01*
Y901250D01*
X405000Y818750D02*
Y901000D01*
X0Y0D02*
Y901000D01*
Y0D02*
X959000D01*
M02*
