%TF.GenerationSoftware,Altium Limited,Altium Designer,21.8.1 (53)*%
G04 Layer_Color=255*
%FSLAX45Y45*%
%MOMM*%
%TF.SameCoordinates,1CF0B822-2DD9-431B-A6BE-AAED35006C4B*%
%TF.FilePolarity,Positive*%
%TF.FileFunction,Pads,Top*%
%TF.Part,Single*%
G01*
G75*
%TA.AperFunction,SMDPad,CuDef*%
%ADD10R,3.42000X1.49000*%
%ADD11R,0.35000X1.40000*%
%ADD12R,0.90000X0.80000*%
%ADD13R,0.55000X0.55000*%
%ADD14R,0.80000X0.80000*%
%ADD15R,1.40000X0.35000*%
%ADD16R,3.05000X3.05000*%
%ADD17R,0.80000X0.80000*%
%ADD18R,3.50000X0.60000*%
%ADD19R,0.60000X3.00000*%
%ADD20R,0.80000X0.90000*%
%ADD21R,0.60000X3.50000*%
%ADD22R,0.35000X1.35000*%
%ADD23R,1.35000X0.35000*%
%ADD24R,0.55000X0.55000*%
%ADD25R,1.50000X1.70000*%
%ADD26R,1.78000X0.42000*%
%TA.AperFunction,ConnectorPad*%
%ADD27R,1.60000X0.80000*%
%ADD28R,3.00000X2.10000*%
%TA.AperFunction,SMDPad,CuDef*%
%ADD29R,1.80000X1.40000*%
%TA.AperFunction,ComponentPad*%
%ADD36C,0.85000*%
%ADD37R,0.85000X0.85000*%
%ADD38C,1.37000*%
%ADD39R,1.37000X1.37000*%
%ADD40R,1.37000X1.37000*%
%ADD41C,6.35000*%
D10*
X4700000Y6575000D02*
D03*
Y7157800D02*
D03*
D11*
X2650000Y7687500D02*
D03*
X2715000D02*
D03*
X2780000D02*
D03*
X2845000D02*
D03*
X2910000D02*
D03*
X2845000Y7112500D02*
D03*
X2910000D02*
D03*
X2975000D02*
D03*
X2780000D02*
D03*
X2715000D02*
D03*
X2650000D02*
D03*
X2585000D02*
D03*
Y7687500D02*
D03*
X2975000D02*
D03*
X6262340Y5615800D02*
D03*
Y6190800D02*
D03*
X6327340D02*
D03*
X6392340D02*
D03*
X6457340D02*
D03*
X6522340D02*
D03*
X6587340D02*
D03*
X6522340Y5615800D02*
D03*
X6587340D02*
D03*
X6652340D02*
D03*
Y6190800D02*
D03*
X6457340Y5615800D02*
D03*
X6392340D02*
D03*
X6327340D02*
D03*
D12*
X215900Y6985000D02*
D03*
Y6845000D02*
D03*
X4090000Y2310000D02*
D03*
Y2450000D02*
D03*
X3830000Y5400000D02*
D03*
Y5260000D02*
D03*
X2280000Y1180000D02*
D03*
Y1040000D02*
D03*
X3420000Y1170000D02*
D03*
Y1030000D02*
D03*
X4240000Y2580000D02*
D03*
Y2720000D02*
D03*
X7310000Y3740000D02*
D03*
Y3880000D02*
D03*
Y4160000D02*
D03*
Y4020000D02*
D03*
X6248900Y5256120D02*
D03*
Y5116120D02*
D03*
X6096500Y5256120D02*
D03*
Y5116120D02*
D03*
X2410000Y7250000D02*
D03*
Y7390000D02*
D03*
X4022500Y6180000D02*
D03*
Y6320000D02*
D03*
X5412500Y6022500D02*
D03*
Y5882500D02*
D03*
X4965000Y5605000D02*
D03*
Y5745000D02*
D03*
X5562500Y6022500D02*
D03*
Y5882500D02*
D03*
X5115000Y5605000D02*
D03*
Y5745000D02*
D03*
X5262500Y6022500D02*
D03*
Y5882500D02*
D03*
X7310000Y3380000D02*
D03*
Y3240000D02*
D03*
Y1190000D02*
D03*
Y1330000D02*
D03*
Y1970000D02*
D03*
Y1830000D02*
D03*
Y1550000D02*
D03*
Y1690000D02*
D03*
Y2650000D02*
D03*
Y2790000D02*
D03*
Y2280000D02*
D03*
Y2140000D02*
D03*
Y3070000D02*
D03*
Y2930000D02*
D03*
X2710000Y8400000D02*
D03*
Y8540000D02*
D03*
X2679900Y6660000D02*
D03*
Y6800000D02*
D03*
X2830000Y6660000D02*
D03*
Y6800000D02*
D03*
X2634499Y5429400D02*
D03*
Y5289400D02*
D03*
X8625000Y355000D02*
D03*
Y495000D02*
D03*
X8600000Y8650000D02*
D03*
Y8510000D02*
D03*
X4540000Y2580000D02*
D03*
Y2720000D02*
D03*
X2890000Y2640000D02*
D03*
Y2780000D02*
D03*
X3340000Y2580000D02*
D03*
Y2720000D02*
D03*
X2882900Y5264000D02*
D03*
Y5404000D02*
D03*
X3033279Y5264719D02*
D03*
Y5404719D02*
D03*
X3187700Y5404000D02*
D03*
Y5264000D02*
D03*
X4390000Y2580000D02*
D03*
Y2720000D02*
D03*
X1550000Y6730000D02*
D03*
Y6870000D02*
D03*
Y6340000D02*
D03*
Y6480000D02*
D03*
X5940000Y6050000D02*
D03*
Y6190000D02*
D03*
X6100000Y6190000D02*
D03*
Y6050000D02*
D03*
X6430000Y6970000D02*
D03*
Y6830000D02*
D03*
X6100000Y5770000D02*
D03*
Y5910000D02*
D03*
D13*
X1673400Y5216700D02*
D03*
Y5126700D02*
D03*
X3480000Y2505000D02*
D03*
Y2595000D02*
D03*
X1714100Y3402400D02*
D03*
Y3492400D02*
D03*
D14*
X1508300Y5286500D02*
D03*
Y5121500D02*
D03*
X1549000Y3390900D02*
D03*
Y3555900D02*
D03*
X215900Y6667400D02*
D03*
Y6502400D02*
D03*
D15*
X4415520Y6352500D02*
D03*
Y6287500D02*
D03*
Y6222500D02*
D03*
Y6157500D02*
D03*
Y6092500D02*
D03*
Y6027500D02*
D03*
Y5962500D02*
D03*
Y5897500D02*
D03*
X4984480D02*
D03*
Y5962500D02*
D03*
Y6027500D02*
D03*
Y6092500D02*
D03*
Y6157500D02*
D03*
Y6222500D02*
D03*
Y6287500D02*
D03*
Y6352500D02*
D03*
D16*
X4700000Y6125000D02*
D03*
D17*
X1742500Y2175000D02*
D03*
X1907500D02*
D03*
X1742500Y1850000D02*
D03*
X1907500D02*
D03*
X1742500Y2525000D02*
D03*
X1907500D02*
D03*
D18*
X6116720Y3760440D02*
D03*
Y3887440D02*
D03*
Y4014440D02*
D03*
Y4141440D02*
D03*
X7016720D02*
D03*
Y4014440D02*
D03*
Y3887440D02*
D03*
Y3760440D02*
D03*
Y3633440D02*
D03*
Y3252440D02*
D03*
Y3379440D02*
D03*
Y3506440D02*
D03*
X6116720Y3633440D02*
D03*
Y3506440D02*
D03*
Y3379440D02*
D03*
Y3252440D02*
D03*
Y1573500D02*
D03*
Y1700500D02*
D03*
Y1827500D02*
D03*
Y1954500D02*
D03*
X7016720D02*
D03*
Y1827500D02*
D03*
Y1700500D02*
D03*
Y1573500D02*
D03*
Y1446500D02*
D03*
Y1065500D02*
D03*
Y1192500D02*
D03*
Y1319500D02*
D03*
X6116720Y1446500D02*
D03*
Y1319500D02*
D03*
Y1192500D02*
D03*
Y1065500D02*
D03*
Y2663160D02*
D03*
Y2790160D02*
D03*
Y2917160D02*
D03*
Y3044160D02*
D03*
X7016720D02*
D03*
Y2917160D02*
D03*
Y2790160D02*
D03*
Y2663160D02*
D03*
Y2536160D02*
D03*
Y2155160D02*
D03*
Y2282160D02*
D03*
Y2409160D02*
D03*
X6116720Y2536160D02*
D03*
Y2409160D02*
D03*
Y2282160D02*
D03*
Y2155160D02*
D03*
D19*
X3629500Y675000D02*
D03*
X4010500D02*
D03*
X3756500D02*
D03*
X3883500D02*
D03*
X3629500Y1525000D02*
D03*
X3756500D02*
D03*
X3883500D02*
D03*
X4010500D02*
D03*
X2483200Y673600D02*
D03*
X2864200D02*
D03*
X2610200D02*
D03*
X2737200D02*
D03*
X2483200Y1523600D02*
D03*
X2610200D02*
D03*
X2737200D02*
D03*
X2864200D02*
D03*
D20*
X2200000Y410000D02*
D03*
X2340000D02*
D03*
X2620000D02*
D03*
X2480000D02*
D03*
X3350000Y390000D02*
D03*
X3490000D02*
D03*
X3770000D02*
D03*
X3630000D02*
D03*
X5610000Y4771633D02*
D03*
X5750000D02*
D03*
X5610000Y4928266D02*
D03*
X5750000D02*
D03*
X4980000Y1820000D02*
D03*
X4840000D02*
D03*
X4560000D02*
D03*
X4700000D02*
D03*
X5320000D02*
D03*
X5460000D02*
D03*
X7860000Y2090000D02*
D03*
X8000000D02*
D03*
X1800000Y7600000D02*
D03*
X1660000D02*
D03*
X1800000Y8110000D02*
D03*
X1660000D02*
D03*
X5020000Y3080000D02*
D03*
X4880000D02*
D03*
X5020000Y2930000D02*
D03*
X4880000D02*
D03*
X5020000Y2780000D02*
D03*
X4880000D02*
D03*
X6710000Y5030000D02*
D03*
X6570000D02*
D03*
X5610000Y4615000D02*
D03*
X5750000D02*
D03*
X5610000Y4458367D02*
D03*
X5750000D02*
D03*
X2430000Y7870000D02*
D03*
X2570000D02*
D03*
X2570000Y8020000D02*
D03*
X2430000D02*
D03*
X5257500Y6167500D02*
D03*
X5397500D02*
D03*
X4680000Y5740000D02*
D03*
X4820000D02*
D03*
X3170000Y7720000D02*
D03*
X3310000D02*
D03*
X8722000Y6143000D02*
D03*
X8582000D02*
D03*
X8722000Y6295400D02*
D03*
X8582000D02*
D03*
X8722000Y6447800D02*
D03*
X8582000D02*
D03*
X8722000Y6600200D02*
D03*
X8582000D02*
D03*
X8582000Y6752600D02*
D03*
X8722000D02*
D03*
X8582000Y6905000D02*
D03*
X8722000D02*
D03*
X8722000Y7057400D02*
D03*
X8582000D02*
D03*
X8582000Y7209800D02*
D03*
X8722000D02*
D03*
X8722000Y5533400D02*
D03*
X8582000D02*
D03*
X8722000Y5685800D02*
D03*
X8582000D02*
D03*
X8722000Y5838200D02*
D03*
X8582000D02*
D03*
X8722000Y5990600D02*
D03*
X8582000D02*
D03*
X8582000Y7362200D02*
D03*
X8722000D02*
D03*
X8752100Y4610400D02*
D03*
X8612100D02*
D03*
X8752100Y4305600D02*
D03*
X8612100D02*
D03*
X8752100Y4458000D02*
D03*
X8612100D02*
D03*
X8752100Y4153200D02*
D03*
X8612100D02*
D03*
X645000Y425000D02*
D03*
X505000D02*
D03*
X355000Y8750000D02*
D03*
X495000D02*
D03*
X2120000Y3080000D02*
D03*
X2260000D02*
D03*
X2070000Y4300000D02*
D03*
X2210000D02*
D03*
X2070000Y3780000D02*
D03*
X2210000D02*
D03*
X1660000Y7350000D02*
D03*
X1800000D02*
D03*
X1660000Y7960000D02*
D03*
X1800000D02*
D03*
X4970000Y3910000D02*
D03*
X4830000D02*
D03*
X4970000Y4410000D02*
D03*
X4830000D02*
D03*
X5070000Y4610000D02*
D03*
X4930000D02*
D03*
X5070000Y4760000D02*
D03*
X4930000D02*
D03*
X5070000Y4910000D02*
D03*
X4930000D02*
D03*
X4740000Y5160000D02*
D03*
X4600000D02*
D03*
X4970000Y3230000D02*
D03*
X4830000D02*
D03*
X5020000Y3460000D02*
D03*
X4880000D02*
D03*
X5020000Y3610000D02*
D03*
X4880000D02*
D03*
X1755000Y2350000D02*
D03*
X1895000D02*
D03*
X1755000Y2025000D02*
D03*
X1895000D02*
D03*
X1755000Y1700000D02*
D03*
X1895000D02*
D03*
X6450000Y6460000D02*
D03*
X6590000D02*
D03*
D21*
X4956880Y626720D02*
D03*
X4829880D02*
D03*
X4702880D02*
D03*
X4575880D02*
D03*
Y1526720D02*
D03*
X4702880D02*
D03*
X4829880D02*
D03*
X4956880D02*
D03*
X5083880D02*
D03*
X5464880D02*
D03*
X5337880D02*
D03*
X5210880D02*
D03*
X5083880Y626720D02*
D03*
X5210880D02*
D03*
X5337880D02*
D03*
X5464880D02*
D03*
D22*
X2640000Y2970000D02*
D03*
X2690000D02*
D03*
X2740000D02*
D03*
X2790000D02*
D03*
X2840000D02*
D03*
X2890000D02*
D03*
X2940000D02*
D03*
X2990000D02*
D03*
X3040000D02*
D03*
X3090000D02*
D03*
X3140000D02*
D03*
X3190000D02*
D03*
X3240000D02*
D03*
X3290000D02*
D03*
X3340000D02*
D03*
X3390000D02*
D03*
X3440000D02*
D03*
X3490000D02*
D03*
X3540000D02*
D03*
X3590000D02*
D03*
X3640000D02*
D03*
X3690000D02*
D03*
X3740000D02*
D03*
X3790000D02*
D03*
X3840000D02*
D03*
X3890000D02*
D03*
X3940000D02*
D03*
X3990000D02*
D03*
X4040000D02*
D03*
X4090000D02*
D03*
X4140000D02*
D03*
X4190000D02*
D03*
X4240000D02*
D03*
X4290000D02*
D03*
X4340000D02*
D03*
X4390000D02*
D03*
Y5095000D02*
D03*
X4340000D02*
D03*
X4290000D02*
D03*
X4240000D02*
D03*
X4190000D02*
D03*
X4140000D02*
D03*
X4090000D02*
D03*
X4040000D02*
D03*
X3990000D02*
D03*
X3940000D02*
D03*
X3890000D02*
D03*
X3840000D02*
D03*
X3790000D02*
D03*
X3740000D02*
D03*
X3690000D02*
D03*
X3640000D02*
D03*
X3590000D02*
D03*
X3540000D02*
D03*
X3490000D02*
D03*
X3440000D02*
D03*
X3390000D02*
D03*
X3340000D02*
D03*
X3290000D02*
D03*
X3240000D02*
D03*
X3190000D02*
D03*
X3140000D02*
D03*
X3090000D02*
D03*
X3040000D02*
D03*
X2990000D02*
D03*
X2940000D02*
D03*
X2890000D02*
D03*
X2840000D02*
D03*
X2790000D02*
D03*
X2740000D02*
D03*
X2690000D02*
D03*
X2640000D02*
D03*
D23*
X4577500Y3157500D02*
D03*
Y3207500D02*
D03*
Y3257500D02*
D03*
Y3307500D02*
D03*
Y3357500D02*
D03*
Y3407500D02*
D03*
Y3457500D02*
D03*
Y3507500D02*
D03*
Y3557500D02*
D03*
Y3607500D02*
D03*
Y3657500D02*
D03*
Y3707500D02*
D03*
Y3757500D02*
D03*
Y3807500D02*
D03*
Y3857500D02*
D03*
Y3907500D02*
D03*
Y3957500D02*
D03*
Y4007500D02*
D03*
Y4057500D02*
D03*
Y4107500D02*
D03*
Y4157500D02*
D03*
Y4207500D02*
D03*
Y4257500D02*
D03*
Y4307500D02*
D03*
Y4357500D02*
D03*
Y4407500D02*
D03*
Y4457500D02*
D03*
Y4507500D02*
D03*
Y4557500D02*
D03*
Y4607500D02*
D03*
Y4657500D02*
D03*
Y4707500D02*
D03*
Y4757500D02*
D03*
Y4807500D02*
D03*
Y4857500D02*
D03*
Y4907500D02*
D03*
X2452500D02*
D03*
Y4857500D02*
D03*
Y4807500D02*
D03*
Y4757500D02*
D03*
Y4707500D02*
D03*
Y4657500D02*
D03*
Y4607500D02*
D03*
Y4557500D02*
D03*
Y4507500D02*
D03*
Y4457500D02*
D03*
Y4407500D02*
D03*
Y4357500D02*
D03*
Y4307500D02*
D03*
Y4257500D02*
D03*
Y4207500D02*
D03*
Y4157500D02*
D03*
Y4107500D02*
D03*
Y4057500D02*
D03*
Y4007500D02*
D03*
Y3957500D02*
D03*
Y3907500D02*
D03*
Y3857500D02*
D03*
Y3807500D02*
D03*
Y3757500D02*
D03*
Y3707500D02*
D03*
Y3657500D02*
D03*
Y3607500D02*
D03*
Y3557500D02*
D03*
Y3507500D02*
D03*
Y3457500D02*
D03*
Y3407500D02*
D03*
Y3357500D02*
D03*
Y3307500D02*
D03*
Y3257500D02*
D03*
Y3207500D02*
D03*
Y3157500D02*
D03*
D24*
X3670000Y2140000D02*
D03*
X3760000D02*
D03*
D25*
X3890000Y2353000D02*
D03*
Y2607000D02*
D03*
X3670000D02*
D03*
Y2353000D02*
D03*
D26*
X6934000Y4562500D02*
D03*
X6346000D02*
D03*
X6934000Y4887500D02*
D03*
Y4822500D02*
D03*
Y4757500D02*
D03*
Y4692500D02*
D03*
Y4627500D02*
D03*
Y4497500D02*
D03*
Y4432500D02*
D03*
X6346000D02*
D03*
Y4497500D02*
D03*
Y4627500D02*
D03*
Y4692500D02*
D03*
Y4757500D02*
D03*
Y4822500D02*
D03*
Y4887500D02*
D03*
D27*
X9085000Y4207500D02*
D03*
Y4582500D02*
D03*
Y4457500D02*
D03*
Y4332500D02*
D03*
Y4082500D02*
D03*
Y3957500D02*
D03*
Y5686400D02*
D03*
Y5811400D02*
D03*
Y5936400D02*
D03*
Y6061400D02*
D03*
Y6186400D02*
D03*
Y6311400D02*
D03*
Y6436400D02*
D03*
Y6561400D02*
D03*
Y6686400D02*
D03*
Y6811400D02*
D03*
Y6936400D02*
D03*
Y7061400D02*
D03*
Y7186400D02*
D03*
Y7311400D02*
D03*
D28*
X9375000Y3702500D02*
D03*
Y4837500D02*
D03*
Y7566400D02*
D03*
Y5431400D02*
D03*
D29*
X200000Y4960000D02*
D03*
Y4700000D02*
D03*
Y4170000D02*
D03*
Y4430000D02*
D03*
D36*
X2050000Y8350000D02*
D03*
Y8225000D02*
D03*
Y8100000D02*
D03*
Y7975000D02*
D03*
Y7850000D02*
D03*
Y7725000D02*
D03*
Y7600000D02*
D03*
Y7475000D02*
D03*
Y7350000D02*
D03*
X3620000Y8355000D02*
D03*
Y8230000D02*
D03*
Y8105000D02*
D03*
Y7980000D02*
D03*
Y7855000D02*
D03*
Y7730000D02*
D03*
Y7605000D02*
D03*
Y7480000D02*
D03*
Y7355000D02*
D03*
D37*
X2050000Y7225000D02*
D03*
X3620000Y7230000D02*
D03*
D38*
X6770000Y150000D02*
D03*
X7024000D02*
D03*
X7278000D02*
D03*
X7532000D02*
D03*
X7786000D02*
D03*
X5050000D02*
D03*
X5304000D02*
D03*
X5558000D02*
D03*
X5812000D02*
D03*
X6066000D02*
D03*
X1016000Y6477000D02*
D03*
Y6223000D02*
D03*
Y5715000D02*
D03*
Y5969000D02*
D03*
Y5207000D02*
D03*
Y4953000D02*
D03*
Y4699000D02*
D03*
Y4191000D02*
D03*
Y4445000D02*
D03*
Y3683000D02*
D03*
Y3175000D02*
D03*
Y3937000D02*
D03*
Y3429000D02*
D03*
Y5461000D02*
D03*
Y6731000D02*
D03*
X1270000Y2667000D02*
D03*
Y3429000D02*
D03*
Y3175000D02*
D03*
Y2921000D02*
D03*
Y3683000D02*
D03*
Y4191000D02*
D03*
Y1651000D02*
D03*
Y2159000D02*
D03*
Y2413000D02*
D03*
Y1905000D02*
D03*
Y3937000D02*
D03*
X1016000Y7747000D02*
D03*
Y6985000D02*
D03*
Y7493000D02*
D03*
X1270000Y7239000D02*
D03*
Y7493000D02*
D03*
X1016000Y7239000D02*
D03*
X1270000Y7747000D02*
D03*
Y6985000D02*
D03*
Y6477000D02*
D03*
Y6223000D02*
D03*
Y5969000D02*
D03*
Y5715000D02*
D03*
Y5461000D02*
D03*
Y5207000D02*
D03*
Y4699000D02*
D03*
Y4445000D02*
D03*
Y6731000D02*
D03*
Y4953000D02*
D03*
X1016000Y2413000D02*
D03*
Y2667000D02*
D03*
Y1905000D02*
D03*
Y2921000D02*
D03*
Y1397000D02*
D03*
Y2159000D02*
D03*
Y1651000D02*
D03*
X508000Y6477000D02*
D03*
Y6223000D02*
D03*
Y5715000D02*
D03*
Y5969000D02*
D03*
Y5207000D02*
D03*
Y4953000D02*
D03*
Y4699000D02*
D03*
Y4191000D02*
D03*
Y4445000D02*
D03*
Y3683000D02*
D03*
Y3175000D02*
D03*
Y3937000D02*
D03*
Y3429000D02*
D03*
Y5461000D02*
D03*
Y6731000D02*
D03*
X762000Y2667000D02*
D03*
Y3429000D02*
D03*
Y3175000D02*
D03*
Y2921000D02*
D03*
Y3683000D02*
D03*
Y4191000D02*
D03*
Y1651000D02*
D03*
Y2159000D02*
D03*
Y2413000D02*
D03*
Y1905000D02*
D03*
Y3937000D02*
D03*
X508000Y7747000D02*
D03*
Y6985000D02*
D03*
Y7493000D02*
D03*
X762000Y7239000D02*
D03*
Y7493000D02*
D03*
X508000Y7239000D02*
D03*
X762000Y7747000D02*
D03*
Y6985000D02*
D03*
Y6477000D02*
D03*
Y6223000D02*
D03*
Y5969000D02*
D03*
Y5715000D02*
D03*
Y5461000D02*
D03*
Y5207000D02*
D03*
Y4699000D02*
D03*
Y4445000D02*
D03*
Y6731000D02*
D03*
Y4953000D02*
D03*
X508000Y2413000D02*
D03*
Y2667000D02*
D03*
Y1905000D02*
D03*
Y2921000D02*
D03*
Y1397000D02*
D03*
Y2159000D02*
D03*
Y1651000D02*
D03*
D39*
X8040000Y150000D02*
D03*
X6320000D02*
D03*
D40*
X1270000Y1397000D02*
D03*
X762000D02*
D03*
D41*
X9082000Y8502000D02*
D03*
Y508000D02*
D03*
X508000Y889000D02*
D03*
Y8248000D02*
D03*
%TF.MD5,0379535aad569109b54fc3de0076742b*%
M02*
