%TF.GenerationSoftware,Altium Limited,Altium Designer,21.8.1 (53)*%
G04 Layer_Color=16711935*
%FSLAX45Y45*%
%MOMM*%
%TF.SameCoordinates,1CF0B822-2DD9-431B-A6BE-AAED35006C4B*%
%TF.FilePolarity,Negative*%
%TF.FileFunction,Soldermask,Bot*%
%TF.Part,Single*%
G01*
G75*
%TA.AperFunction,SMDPad,CuDef*%
%ADD52R,1.46050X0.53340*%
G04:AMPARAMS|DCode=63|XSize=2.0816mm|YSize=0.6316mm|CornerRadius=0.11705mm|HoleSize=0mm|Usage=FLASHONLY|Rotation=0.000|XOffset=0mm|YOffset=0mm|HoleType=Round|Shape=RoundedRectangle|*
%AMROUNDEDRECTD63*
21,1,2.08160,0.39750,0,0,0.0*
21,1,1.84750,0.63160,0,0,0.0*
1,1,0.23410,0.92375,-0.19875*
1,1,0.23410,-0.92375,-0.19875*
1,1,0.23410,-0.92375,0.19875*
1,1,0.23410,0.92375,0.19875*
%
%ADD63ROUNDEDRECTD63*%
%ADD64R,1.00160X0.90160*%
%TA.AperFunction,ComponentPad*%
%ADD65C,1.00240*%
%ADD66R,1.00240X1.00240*%
%ADD67C,1.47160*%
%ADD68R,1.47160X1.47160*%
%ADD69R,1.47160X1.47160*%
%ADD70C,6.45160*%
G36*
X6487620Y7822380D02*
X6262380D01*
Y8137620D01*
X6487620D01*
Y7822380D01*
D02*
G37*
G36*
X4352620D02*
X4127380D01*
Y8137620D01*
X4352620D01*
Y7822380D01*
D02*
G37*
G36*
X8050120Y7822380D02*
X7824880D01*
Y8137620D01*
X8050120D01*
Y7822380D01*
D02*
G37*
G36*
X6915120D02*
X6689880D01*
Y8137620D01*
X6915120D01*
Y7822380D01*
D02*
G37*
G36*
X6167620Y7602380D02*
X6072380D01*
Y7777620D01*
X6167620D01*
Y7602380D01*
D02*
G37*
G36*
X6042620D02*
X5947380D01*
Y7777620D01*
X6042620D01*
Y7602380D01*
D02*
G37*
G36*
X5917620D02*
X5822380D01*
Y7777620D01*
X5917620D01*
Y7602380D01*
D02*
G37*
G36*
X5792620D02*
X5697380D01*
Y7777620D01*
X5792620D01*
Y7602380D01*
D02*
G37*
G36*
X5667620D02*
X5572380D01*
Y7777620D01*
X5667620D01*
Y7602380D01*
D02*
G37*
G36*
X5542620D02*
X5447380D01*
Y7777620D01*
X5542620D01*
Y7602380D01*
D02*
G37*
G36*
X5417620D02*
X5322380D01*
Y7777620D01*
X5417620D01*
Y7602380D01*
D02*
G37*
G36*
X5292620D02*
X5197380D01*
Y7777620D01*
X5292620D01*
Y7602380D01*
D02*
G37*
G36*
X5167620D02*
X5072380D01*
Y7777620D01*
X5167620D01*
Y7602380D01*
D02*
G37*
G36*
X5042620D02*
X4947380D01*
Y7777620D01*
X5042620D01*
Y7602380D01*
D02*
G37*
G36*
X4917620D02*
X4822380D01*
Y7777620D01*
X4917620D01*
Y7602380D01*
D02*
G37*
G36*
X4792620D02*
X4697380D01*
Y7777620D01*
X4792620D01*
Y7602380D01*
D02*
G37*
G36*
X4667620D02*
X4572380D01*
Y7777620D01*
X4667620D01*
Y7602380D01*
D02*
G37*
G36*
X4542620D02*
X4447380D01*
Y7777620D01*
X4542620D01*
Y7602380D01*
D02*
G37*
G36*
X7730120Y7602380D02*
X7634880D01*
Y7777620D01*
X7730120D01*
Y7602380D01*
D02*
G37*
G36*
X7605120D02*
X7509880D01*
Y7777620D01*
X7605120D01*
Y7602380D01*
D02*
G37*
G36*
X7480120D02*
X7384880D01*
Y7777620D01*
X7480120D01*
Y7602380D01*
D02*
G37*
G36*
X7355120D02*
X7259880D01*
Y7777620D01*
X7355120D01*
Y7602380D01*
D02*
G37*
G36*
X7230120D02*
X7134880D01*
Y7777620D01*
X7230120D01*
Y7602380D01*
D02*
G37*
G36*
X7105120D02*
X7009880D01*
Y7777620D01*
X7105120D01*
Y7602380D01*
D02*
G37*
G36*
X8707620Y2979880D02*
X8392380D01*
Y3205120D01*
X8707620D01*
Y2979880D01*
D02*
G37*
G36*
X8347620Y2789880D02*
X8172380D01*
Y2885120D01*
X8347620D01*
Y2789880D01*
D02*
G37*
G36*
Y2664880D02*
X8172380D01*
Y2760120D01*
X8347620D01*
Y2664880D01*
D02*
G37*
G36*
Y2539880D02*
X8172380D01*
Y2635120D01*
X8347620D01*
Y2539880D01*
D02*
G37*
G36*
Y2414880D02*
X8172380D01*
Y2510120D01*
X8347620D01*
Y2414880D01*
D02*
G37*
G36*
Y2289880D02*
X8172380D01*
Y2385120D01*
X8347620D01*
Y2289880D01*
D02*
G37*
G36*
Y2164880D02*
X8172380D01*
Y2260120D01*
X8347620D01*
Y2164880D01*
D02*
G37*
G36*
Y2039880D02*
X8172380D01*
Y2135120D01*
X8347620D01*
Y2039880D01*
D02*
G37*
G36*
Y1914880D02*
X8172380D01*
Y2010120D01*
X8347620D01*
Y1914880D01*
D02*
G37*
G36*
X8707620Y1594880D02*
X8392380D01*
Y1820120D01*
X8707620D01*
Y1594880D01*
D02*
G37*
D52*
X2457585Y7839000D02*
D03*
Y7966000D02*
D03*
Y8093000D02*
D03*
Y8220000D02*
D03*
Y8347000D02*
D03*
Y8474000D02*
D03*
Y8601000D02*
D03*
X3002415D02*
D03*
Y8474000D02*
D03*
Y8347000D02*
D03*
Y8220000D02*
D03*
Y8093000D02*
D03*
Y7966000D02*
D03*
Y7839000D02*
D03*
D63*
X5696000Y6463000D02*
D03*
Y6590000D02*
D03*
Y6717000D02*
D03*
Y6844000D02*
D03*
Y6971000D02*
D03*
Y7098000D02*
D03*
Y7225000D02*
D03*
Y7352000D02*
D03*
X6189000D02*
D03*
Y7225000D02*
D03*
Y7098000D02*
D03*
Y6971000D02*
D03*
Y6844000D02*
D03*
Y6717000D02*
D03*
Y6590000D02*
D03*
Y6463000D02*
D03*
D64*
X3210000Y8370000D02*
D03*
Y8230000D02*
D03*
Y8090000D02*
D03*
Y7950000D02*
D03*
X3360000Y8230000D02*
D03*
Y8090000D02*
D03*
X6590000Y7360000D02*
D03*
Y7220000D02*
D03*
X6440000Y7500000D02*
D03*
Y7360000D02*
D03*
Y7220000D02*
D03*
Y7080000D02*
D03*
X5310000Y6460000D02*
D03*
Y6600000D02*
D03*
X5460000Y6320000D02*
D03*
Y6460000D02*
D03*
Y6600000D02*
D03*
Y6740000D02*
D03*
X5450000Y7090000D02*
D03*
Y6950000D02*
D03*
X5300000Y7230000D02*
D03*
Y7090000D02*
D03*
X5450000Y7370000D02*
D03*
Y7230000D02*
D03*
D65*
X2050000Y8350000D02*
D03*
Y8225000D02*
D03*
Y8100000D02*
D03*
Y7975000D02*
D03*
Y7850000D02*
D03*
Y7725000D02*
D03*
Y7600000D02*
D03*
Y7475000D02*
D03*
Y7350000D02*
D03*
X3620000Y8355000D02*
D03*
Y8230000D02*
D03*
Y8105000D02*
D03*
Y7980000D02*
D03*
Y7855000D02*
D03*
Y7730000D02*
D03*
Y7605000D02*
D03*
Y7480000D02*
D03*
Y7355000D02*
D03*
D66*
X2050000Y7225000D02*
D03*
X3620000Y7230000D02*
D03*
D67*
X6770000Y150000D02*
D03*
X7024000D02*
D03*
X7278000D02*
D03*
X7532000D02*
D03*
X7786000D02*
D03*
X5050000D02*
D03*
X5304000D02*
D03*
X5558000D02*
D03*
X5812000D02*
D03*
X6066000D02*
D03*
X1016000Y6477000D02*
D03*
Y6223000D02*
D03*
Y5715000D02*
D03*
Y5969000D02*
D03*
Y5207000D02*
D03*
Y4953000D02*
D03*
Y4699000D02*
D03*
Y4191000D02*
D03*
Y4445000D02*
D03*
Y3683000D02*
D03*
Y3175000D02*
D03*
Y3937000D02*
D03*
Y3429000D02*
D03*
Y5461000D02*
D03*
Y6731000D02*
D03*
X1270000Y2667000D02*
D03*
Y3429000D02*
D03*
Y3175000D02*
D03*
Y2921000D02*
D03*
Y3683000D02*
D03*
Y4191000D02*
D03*
Y1651000D02*
D03*
Y2159000D02*
D03*
Y2413000D02*
D03*
Y1905000D02*
D03*
Y3937000D02*
D03*
X1016000Y7747000D02*
D03*
Y6985000D02*
D03*
Y7493000D02*
D03*
X1270000Y7239000D02*
D03*
Y7493000D02*
D03*
X1016000Y7239000D02*
D03*
X1270000Y7747000D02*
D03*
Y6985000D02*
D03*
Y6477000D02*
D03*
Y6223000D02*
D03*
Y5969000D02*
D03*
Y5715000D02*
D03*
Y5461000D02*
D03*
Y5207000D02*
D03*
Y4699000D02*
D03*
Y4445000D02*
D03*
Y6731000D02*
D03*
Y4953000D02*
D03*
X1016000Y2413000D02*
D03*
Y2667000D02*
D03*
Y1905000D02*
D03*
Y2921000D02*
D03*
Y1397000D02*
D03*
Y2159000D02*
D03*
Y1651000D02*
D03*
X508000Y6477000D02*
D03*
Y6223000D02*
D03*
Y5715000D02*
D03*
Y5969000D02*
D03*
Y5207000D02*
D03*
Y4953000D02*
D03*
Y4699000D02*
D03*
Y4191000D02*
D03*
Y4445000D02*
D03*
Y3683000D02*
D03*
Y3175000D02*
D03*
Y3937000D02*
D03*
Y3429000D02*
D03*
Y5461000D02*
D03*
Y6731000D02*
D03*
X762000Y2667000D02*
D03*
Y3429000D02*
D03*
Y3175000D02*
D03*
Y2921000D02*
D03*
Y3683000D02*
D03*
Y4191000D02*
D03*
Y1651000D02*
D03*
Y2159000D02*
D03*
Y2413000D02*
D03*
Y1905000D02*
D03*
Y3937000D02*
D03*
X508000Y7747000D02*
D03*
Y6985000D02*
D03*
Y7493000D02*
D03*
X762000Y7239000D02*
D03*
Y7493000D02*
D03*
X508000Y7239000D02*
D03*
X762000Y7747000D02*
D03*
Y6985000D02*
D03*
Y6477000D02*
D03*
Y6223000D02*
D03*
Y5969000D02*
D03*
Y5715000D02*
D03*
Y5461000D02*
D03*
Y5207000D02*
D03*
Y4699000D02*
D03*
Y4445000D02*
D03*
Y6731000D02*
D03*
Y4953000D02*
D03*
X508000Y2413000D02*
D03*
Y2667000D02*
D03*
Y1905000D02*
D03*
Y2921000D02*
D03*
Y1397000D02*
D03*
Y2159000D02*
D03*
Y1651000D02*
D03*
D68*
X8040000Y150000D02*
D03*
X6320000D02*
D03*
D69*
X1270000Y1397000D02*
D03*
X762000D02*
D03*
D70*
X9082000Y8502000D02*
D03*
Y508000D02*
D03*
X508000Y889000D02*
D03*
Y8248000D02*
D03*
%TF.MD5,5d8e8fbc1eba06d8dfad0bdfa01a83fc*%
M02*
