%TF.GenerationSoftware,Altium Limited,Altium Designer,21.8.1 (53)*%
G04 Layer_Physical_Order=4*
G04 Layer_Color=16711680*
%FSLAX45Y45*%
%MOMM*%
%TF.SameCoordinates,1CF0B822-2DD9-431B-A6BE-AAED35006C4B*%
%TF.FilePolarity,Positive*%
%TF.FileFunction,Copper,L4,Bot,Signal*%
%TF.Part,Single*%
G01*
G75*
%TA.AperFunction,SMDPad,CuDef*%
%ADD12R,0.90000X0.80000*%
%TA.AperFunction,Conductor*%
%ADD30C,0.25400*%
%ADD31C,1.00000*%
%ADD32C,0.30000*%
%ADD35C,0.50000*%
%TA.AperFunction,ComponentPad*%
%ADD36C,0.85000*%
%ADD37R,0.85000X0.85000*%
%ADD38C,1.37000*%
%ADD39R,1.37000X1.37000*%
%ADD40R,1.37000X1.37000*%
%ADD41C,6.35000*%
%TA.AperFunction,ViaPad*%
%ADD42C,0.50000*%
%TA.AperFunction,Conductor*%
%ADD51C,0.12192*%
%TA.AperFunction,SMDPad,CuDef*%
%ADD52R,1.46050X0.53340*%
G04:AMPARAMS|DCode=53|XSize=1.98mm|YSize=0.53mm|CornerRadius=0.06625mm|HoleSize=0mm|Usage=FLASHONLY|Rotation=0.000|XOffset=0mm|YOffset=0mm|HoleType=Round|Shape=RoundedRectangle|*
%AMROUNDEDRECTD53*
21,1,1.98000,0.39750,0,0,0.0*
21,1,1.84750,0.53000,0,0,0.0*
1,1,0.13250,0.92375,-0.19875*
1,1,0.13250,-0.92375,-0.19875*
1,1,0.13250,-0.92375,0.19875*
1,1,0.13250,0.92375,0.19875*
%
%ADD53ROUNDEDRECTD53*%
%ADD54R,1.60000X0.80000*%
%ADD55R,3.00000X2.10000*%
%ADD56R,2.10000X3.00000*%
%ADD57R,0.80000X1.60000*%
%TA.AperFunction,Conductor*%
%ADD58C,0.80000*%
G36*
X9590000Y7487297D02*
X9445000D01*
X9435090Y7485326D01*
X9426688Y7479712D01*
X9421074Y7471310D01*
X9419103Y7461400D01*
Y7361400D01*
X9421074Y7351489D01*
X9426688Y7343087D01*
X9435090Y7337474D01*
X9445000Y7335502D01*
X9590000D01*
X9590000Y5662298D01*
X9445000D01*
X9435090Y5660326D01*
X9426688Y5654712D01*
X9421074Y5646311D01*
X9419103Y5636400D01*
Y5536400D01*
X9421074Y5526489D01*
X9426688Y5518088D01*
X9435090Y5512474D01*
X9445000Y5510502D01*
X9590000D01*
Y3254277D01*
X8761553D01*
Y1500000D01*
X9590000D01*
Y0D01*
X0D01*
Y9010000D01*
X4050000D01*
Y8187500D01*
X4319102D01*
Y8155400D01*
X4252699D01*
Y7992700D01*
X4370400D01*
Y8024103D01*
X4445000D01*
X4454911Y8026074D01*
X4463312Y8031688D01*
X4468926Y8040090D01*
X4470898Y8050000D01*
Y8187500D01*
X6144102D01*
Y8050000D01*
X6146074Y8040090D01*
X6151687Y8031688D01*
X6160089Y8026074D01*
X6170000Y8024103D01*
X6244600D01*
Y7992700D01*
X6362299D01*
Y8155400D01*
X6295897D01*
Y8187500D01*
X8125000D01*
Y9017000D01*
X9590000Y9017000D01*
Y7487297D01*
D02*
G37*
%LPC*%
G36*
X3088140Y8640370D02*
X2916690D01*
Y8561630D01*
X3088140D01*
Y8640370D01*
D02*
G37*
G36*
X2457585Y8646882D02*
X2440027Y8643389D01*
X2435509Y8640370D01*
X2371860D01*
Y8561630D01*
X2411704D01*
Y8513370D01*
X2371860D01*
Y8434630D01*
X2435509D01*
X2440027Y8431611D01*
X2457585Y8428119D01*
X2475143Y8431611D01*
X2479662Y8434630D01*
X2543310D01*
Y8489685D01*
X2556010Y8491396D01*
X2570000Y8488613D01*
X2589665Y8492524D01*
X2606336Y8503664D01*
X2617476Y8520335D01*
X2621387Y8540000D01*
X2617476Y8559665D01*
X2606336Y8576336D01*
X2589665Y8587476D01*
X2570000Y8591387D01*
X2556010Y8588604D01*
X2544659Y8596013D01*
X2543310Y8598041D01*
Y8640370D01*
X2479662D01*
X2475143Y8643389D01*
X2457585Y8646882D01*
D02*
G37*
G36*
X3666271Y8585616D02*
X3666270Y8585615D01*
X3212981D01*
X3202799Y8583590D01*
X3194167Y8577822D01*
X3194166Y8577822D01*
X3099873Y8483529D01*
X3088140Y8488389D01*
Y8513370D01*
X2916690D01*
Y8434630D01*
X2963699D01*
X2975808Y8433898D01*
X2977833Y8423716D01*
X2983601Y8415084D01*
Y8405916D01*
X2977833Y8397284D01*
X2975808Y8387102D01*
X2963699Y8386370D01*
X2916690D01*
Y8307630D01*
X3088140D01*
Y8357571D01*
X3094196Y8367637D01*
X3104378Y8369662D01*
X3113010Y8375430D01*
X3127867Y8390286D01*
X3139600Y8385426D01*
Y8382700D01*
X3197300D01*
Y8435400D01*
X3189574D01*
X3184714Y8447133D01*
X3237469Y8499889D01*
X3641783D01*
X3694493Y8447179D01*
Y8274115D01*
X3679043Y8258665D01*
X3666404Y8259910D01*
X3659797Y8269797D01*
X3641538Y8281997D01*
X3620000Y8286282D01*
X3598462Y8281997D01*
X3580203Y8269797D01*
X3568003Y8251538D01*
X3563719Y8230000D01*
X3568003Y8208462D01*
X3580203Y8190203D01*
X3598462Y8178003D01*
X3604743Y8176754D01*
X3611877Y8162386D01*
X3610412Y8159374D01*
X3598462Y8156997D01*
X3580203Y8144797D01*
X3568003Y8126538D01*
X3563719Y8105000D01*
X3568003Y8083462D01*
X3580203Y8065203D01*
X3598462Y8053003D01*
X3620000Y8048718D01*
X3641538Y8053003D01*
X3659797Y8065203D01*
X3671997Y8083462D01*
X3676282Y8105000D01*
X3671997Y8126538D01*
X3668212Y8132204D01*
X3693872Y8157865D01*
X3697295Y8158546D01*
X3705927Y8164313D01*
X3772426Y8230812D01*
X3778194Y8239445D01*
X3780220Y8249627D01*
X3780219Y8249628D01*
Y8471666D01*
X3780220Y8471667D01*
X3778194Y8481849D01*
X3772426Y8490481D01*
X3772426Y8490482D01*
X3685085Y8577822D01*
X3676453Y8583590D01*
X3666271Y8585616D01*
D02*
G37*
G36*
X3280400Y8435400D02*
X3222700D01*
Y8382700D01*
X3280400D01*
Y8435400D01*
D02*
G37*
G36*
Y8357300D02*
X3222700D01*
Y8304600D01*
X3280400D01*
Y8357300D01*
D02*
G37*
G36*
X3197300D02*
X3139600D01*
Y8304600D01*
X3197300D01*
Y8357300D01*
D02*
G37*
G36*
X3620000Y8411282D02*
X3598462Y8406997D01*
X3580203Y8394797D01*
X3568003Y8376538D01*
X3563719Y8355000D01*
X3568003Y8333462D01*
X3580203Y8315203D01*
X3598462Y8303003D01*
X3620000Y8298718D01*
X3641538Y8303003D01*
X3659797Y8315203D01*
X3671997Y8333462D01*
X3676282Y8355000D01*
X3671997Y8376538D01*
X3659797Y8394797D01*
X3641538Y8406997D01*
X3620000Y8411282D01*
D02*
G37*
G36*
X2565400Y8395287D02*
X2545735Y8391376D01*
X2538244Y8386370D01*
X2371860D01*
Y8307630D01*
X2529020D01*
X2529064Y8307564D01*
X2545735Y8296424D01*
X2565400Y8292513D01*
X2585065Y8296424D01*
X2601736Y8307564D01*
X2612876Y8324235D01*
X2616787Y8343900D01*
X2612876Y8363565D01*
X2601736Y8380236D01*
X2585065Y8391376D01*
X2565400Y8395287D01*
D02*
G37*
G36*
X2578100Y8268287D02*
X2558435Y8264376D01*
X2547551Y8257103D01*
X2543310Y8259370D01*
Y8259370D01*
X2371860D01*
Y8180630D01*
X2541720D01*
X2541764Y8180564D01*
X2558435Y8169424D01*
X2578100Y8165513D01*
X2597765Y8169424D01*
X2614436Y8180564D01*
X2625576Y8197235D01*
X2629487Y8216900D01*
X2625576Y8236565D01*
X2614436Y8253236D01*
X2597765Y8264376D01*
X2578100Y8268287D01*
D02*
G37*
G36*
X2050000Y8406282D02*
X2028462Y8401997D01*
X2010203Y8389797D01*
X1998003Y8371538D01*
X1993718Y8350000D01*
X1998003Y8328462D01*
X2010203Y8310203D01*
X2023550Y8301285D01*
X2022699Y8287186D01*
X2015757Y8284311D01*
X2001573Y8273427D01*
X1990689Y8259243D01*
X1983847Y8242725D01*
X1983186Y8237700D01*
X2050000D01*
X2116814D01*
X2116152Y8242725D01*
X2109310Y8259243D01*
X2098427Y8273427D01*
X2084243Y8284311D01*
X2077301Y8287186D01*
X2076450Y8301285D01*
X2089797Y8310203D01*
X2101997Y8328462D01*
X2106282Y8350000D01*
X2101997Y8371538D01*
X2089797Y8389797D01*
X2071538Y8401997D01*
X2050000Y8406282D01*
D02*
G37*
G36*
X3417700Y8282700D02*
X3302300D01*
Y8211050D01*
X3299112Y8206278D01*
X3298432Y8202863D01*
X3271567D01*
X3270888Y8206278D01*
X3267700Y8211050D01*
Y8282700D01*
X3152300D01*
Y8211050D01*
X3149112Y8206278D01*
X3148432Y8202863D01*
X3110748D01*
X3110747Y8202864D01*
X3100565Y8200838D01*
X3088140Y8205192D01*
Y8259370D01*
X2916690D01*
Y8180630D01*
X2963699D01*
X2975808Y8179898D01*
X2977833Y8169716D01*
X2983601Y8161084D01*
Y8151916D01*
X2977833Y8143284D01*
X2975808Y8133102D01*
X2963699Y8132370D01*
X2916690D01*
Y8053630D01*
X3088140D01*
Y8113637D01*
X3120712D01*
X3120713Y8113637D01*
X3130895Y8115662D01*
X3133103Y8117137D01*
X3148432D01*
X3149112Y8113722D01*
X3152300Y8108951D01*
Y8037300D01*
X3267700D01*
Y8108951D01*
X3270888Y8113722D01*
X3271567Y8117137D01*
X3298432D01*
X3299112Y8113722D01*
X3302300Y8108951D01*
Y8037300D01*
X3417700D01*
Y8087574D01*
X3430400Y8092835D01*
X3444523Y8078712D01*
Y7978246D01*
X3444523Y7978245D01*
X3446548Y7968063D01*
X3452316Y7959430D01*
X3529316Y7882431D01*
X3529317Y7882430D01*
X3537949Y7876662D01*
X3548131Y7874637D01*
X3548132Y7874637D01*
X3555427D01*
X3565311Y7863004D01*
X3563719Y7855000D01*
X3568003Y7833462D01*
X3580203Y7815203D01*
X3593550Y7806285D01*
X3592699Y7792186D01*
X3585757Y7789311D01*
X3571573Y7778427D01*
X3560690Y7764243D01*
X3553848Y7747725D01*
X3553186Y7742700D01*
X3620000D01*
X3686814D01*
X3686153Y7747725D01*
X3679311Y7764243D01*
X3668427Y7778427D01*
X3654243Y7789311D01*
X3647302Y7792186D01*
X3646450Y7806285D01*
X3659797Y7815203D01*
X3671997Y7833462D01*
X3676282Y7855000D01*
X3671997Y7876538D01*
X3659797Y7894797D01*
X3641538Y7906997D01*
X3620000Y7911282D01*
X3604442Y7908187D01*
X3595129Y7917500D01*
X3604442Y7926813D01*
X3620000Y7923718D01*
X3641538Y7928003D01*
X3659797Y7940203D01*
X3671997Y7958462D01*
X3676282Y7980000D01*
X3671997Y8001538D01*
X3659797Y8019797D01*
X3641538Y8031997D01*
X3620000Y8036282D01*
X3598462Y8031997D01*
X3580203Y8019797D01*
X3568003Y8001538D01*
X3564917Y7986026D01*
X3551451Y7981531D01*
X3530249Y8002733D01*
Y8103200D01*
X3528224Y8113382D01*
X3522457Y8122014D01*
X3522456Y8122015D01*
X3449400Y8195070D01*
X3440768Y8200838D01*
X3430586Y8202864D01*
X3423486Y8206278D01*
X3417718Y8214910D01*
X3417718Y8214911D01*
X3417700Y8214928D01*
Y8282700D01*
D02*
G37*
G36*
X9082000Y8833221D02*
X9030186Y8829143D01*
X8979647Y8817010D01*
X8931629Y8797120D01*
X8887313Y8769963D01*
X8847792Y8736209D01*
X8814037Y8696687D01*
X8786880Y8652371D01*
X8766990Y8604353D01*
X8754857Y8553814D01*
X8750779Y8502000D01*
X8754857Y8450186D01*
X8766990Y8399647D01*
X8786880Y8351629D01*
X8814037Y8307313D01*
X8847792Y8267791D01*
X8887313Y8234037D01*
X8931629Y8206880D01*
X8979647Y8186990D01*
X9030186Y8174857D01*
X9082000Y8170779D01*
X9133815Y8174857D01*
X9184353Y8186990D01*
X9232371Y8206880D01*
X9276687Y8234037D01*
X9316209Y8267791D01*
X9349964Y8307313D01*
X9377120Y8351629D01*
X9397010Y8399647D01*
X9409143Y8450186D01*
X9413221Y8502000D01*
X9409143Y8553814D01*
X9397010Y8604353D01*
X9377120Y8652371D01*
X9349964Y8696687D01*
X9316209Y8736209D01*
X9276687Y8769963D01*
X9232371Y8797120D01*
X9184353Y8817010D01*
X9133815Y8829143D01*
X9082000Y8833221D01*
D02*
G37*
G36*
X1540000Y8161387D02*
X1520335Y8157476D01*
X1503664Y8146336D01*
X1492524Y8129665D01*
X1488613Y8110000D01*
X1492524Y8090335D01*
X1503664Y8073664D01*
X1520335Y8062524D01*
X1540000Y8058613D01*
X1559665Y8062524D01*
X1576336Y8073664D01*
X1587476Y8090335D01*
X1591387Y8110000D01*
X1587476Y8129665D01*
X1576336Y8146336D01*
X1559665Y8157476D01*
X1540000Y8161387D01*
D02*
G37*
G36*
X6505400Y8155400D02*
X6387699D01*
Y7992700D01*
X6505400D01*
Y8155400D01*
D02*
G37*
G36*
X4227299D02*
X4109600D01*
Y7992700D01*
X4227299D01*
Y8155400D01*
D02*
G37*
G36*
X8067900Y8155400D02*
X7950200D01*
Y7992700D01*
X8067900D01*
Y8155400D01*
D02*
G37*
G36*
X7924800D02*
X7807100D01*
Y7992700D01*
X7924800D01*
Y8155400D01*
D02*
G37*
G36*
X6932900D02*
X6815200D01*
Y7992700D01*
X6932900D01*
Y8155400D01*
D02*
G37*
G36*
X6789800D02*
X6672100D01*
Y7992700D01*
X6789800D01*
Y8155400D01*
D02*
G37*
G36*
X3088140Y8005370D02*
X2916690D01*
Y7926630D01*
X3088140D01*
Y8005370D01*
D02*
G37*
G36*
X508000Y8579221D02*
X456186Y8575143D01*
X405647Y8563010D01*
X357629Y8543120D01*
X313313Y8515963D01*
X273791Y8482209D01*
X240037Y8442687D01*
X212880Y8398371D01*
X192990Y8350353D01*
X180857Y8299814D01*
X176779Y8248000D01*
X180857Y8196186D01*
X192990Y8145647D01*
X212880Y8097629D01*
X240037Y8053313D01*
X273791Y8013791D01*
X313313Y7980037D01*
X357629Y7952880D01*
X405647Y7932990D01*
X456186Y7920857D01*
X508000Y7916779D01*
X559814Y7920857D01*
X610353Y7932990D01*
X658371Y7952880D01*
X702687Y7980037D01*
X742209Y8013791D01*
X775963Y8053313D01*
X803120Y8097629D01*
X823010Y8145647D01*
X835143Y8196186D01*
X839221Y8248000D01*
X835143Y8299814D01*
X823010Y8350353D01*
X803120Y8398371D01*
X775963Y8442687D01*
X742209Y8482209D01*
X702687Y8515963D01*
X658371Y8543120D01*
X610353Y8563010D01*
X559814Y8575143D01*
X508000Y8579221D01*
D02*
G37*
G36*
X2116814Y8212300D02*
X2050000D01*
X1983186D01*
X1983847Y8207275D01*
X1990689Y8190757D01*
X2001573Y8176573D01*
X2015757Y8165690D01*
X2022699Y8162814D01*
X2023550Y8148715D01*
X2010203Y8139797D01*
X1998003Y8121538D01*
X1993718Y8100000D01*
X1998003Y8078462D01*
X2010203Y8060203D01*
X2028462Y8048003D01*
X2050000Y8043718D01*
X2071538Y8048003D01*
X2089797Y8060203D01*
X2090715Y8061578D01*
X2105284Y8062686D01*
X2166659Y8001311D01*
Y7820300D01*
X2169197Y7807541D01*
X2176425Y7796725D01*
X2489825Y7483325D01*
X2489826Y7483324D01*
X2519234Y7453916D01*
X2530050Y7446689D01*
X2542809Y7444151D01*
X3168699D01*
X3399316Y7213534D01*
X3398613Y7210000D01*
X3402524Y7190335D01*
X3413664Y7173664D01*
X3430335Y7162524D01*
X3450000Y7158613D01*
X3469665Y7162524D01*
X3486336Y7173664D01*
X3497476Y7190335D01*
X3501387Y7210000D01*
X3497476Y7229665D01*
X3486336Y7246336D01*
X3469665Y7257476D01*
X3450000Y7261387D01*
X3446466Y7260684D01*
X3206084Y7501067D01*
X3195268Y7508294D01*
X3182509Y7510832D01*
X3010859D01*
X3008793Y7513349D01*
X3011311Y7530306D01*
X3016336Y7533664D01*
X3027476Y7550335D01*
X3031387Y7570000D01*
X3027476Y7589665D01*
X3016336Y7606336D01*
X2999665Y7617476D01*
X2980000Y7621387D01*
X2960335Y7617476D01*
X2943664Y7606336D01*
X2932524Y7589665D01*
X2928613Y7570000D01*
X2932524Y7550335D01*
X2943664Y7533664D01*
X2948689Y7530306D01*
X2951206Y7513349D01*
X2949141Y7510832D01*
X2716684D01*
X2710277Y7523532D01*
X2711093Y7524637D01*
X2716370Y7523587D01*
X2736035Y7527499D01*
X2752706Y7538638D01*
X2763846Y7555310D01*
X2767757Y7574974D01*
X2763846Y7594639D01*
X2752706Y7611311D01*
X2749711Y7613312D01*
Y7802823D01*
X2747173Y7815582D01*
X2739945Y7826398D01*
X2657423Y7908920D01*
X2665519Y7918785D01*
X2678153Y7910343D01*
X2697818Y7906431D01*
X2717483Y7910343D01*
X2734155Y7921482D01*
X2745294Y7938154D01*
X2749206Y7957818D01*
X2745294Y7977483D01*
X2734155Y7994155D01*
X2717483Y8005294D01*
X2697818Y8009206D01*
X2678153Y8005294D01*
X2661482Y7994155D01*
X2660634Y7992886D01*
X2654720Y7992846D01*
X2646502Y7994595D01*
X2640475Y8003615D01*
X2543310Y8100781D01*
Y8132370D01*
X2371860D01*
Y8053630D01*
X2496160D01*
X2531720Y8018070D01*
X2526459Y8005370D01*
X2371860D01*
Y7926630D01*
X2492461D01*
X2494335Y7923826D01*
X2528057Y7890103D01*
X2523197Y7878370D01*
X2371860D01*
Y7799630D01*
X2543310D01*
Y7858257D01*
X2555043Y7863117D01*
X2615926Y7802235D01*
Y7578929D01*
X2612930Y7576927D01*
X2601791Y7560256D01*
X2597879Y7540591D01*
X2601272Y7523532D01*
X2594424Y7510832D01*
X2556619D01*
X2536976Y7530475D01*
X2536975Y7530476D01*
X2233340Y7834110D01*
Y8015121D01*
X2230802Y8027880D01*
X2223575Y8038696D01*
X2138696Y8123575D01*
X2127880Y8130803D01*
X2115121Y8133341D01*
X2094111D01*
X2089797Y8139797D01*
X2076450Y8148715D01*
X2077301Y8162814D01*
X2084243Y8165690D01*
X2098427Y8176573D01*
X2109310Y8190757D01*
X2116152Y8207275D01*
X2116814Y8212300D01*
D02*
G37*
G36*
X3267700Y8002700D02*
X3152300D01*
Y7897300D01*
X3152300D01*
X3148430Y7886203D01*
X3133664Y7876336D01*
X3131328Y7872840D01*
X3088140D01*
Y7878370D01*
X2916690D01*
Y7799630D01*
X3088140D01*
Y7806159D01*
X3131996D01*
X3133664Y7803664D01*
X3150335Y7792524D01*
X3170000Y7788613D01*
X3189665Y7792524D01*
X3206336Y7803664D01*
X3217476Y7820335D01*
X3221387Y7840000D01*
X3220684Y7843534D01*
X3233575Y7856425D01*
X3240803Y7867241D01*
X3243340Y7880000D01*
Y7897300D01*
X3267700D01*
Y7916660D01*
X3281662D01*
X3283664Y7913664D01*
X3300335Y7902524D01*
X3320000Y7898613D01*
X3339665Y7902524D01*
X3356336Y7913664D01*
X3367476Y7930335D01*
X3371387Y7950000D01*
X3367476Y7969665D01*
X3356336Y7986336D01*
X3339665Y7997476D01*
X3320000Y8001387D01*
X3300335Y7997476D01*
X3283664Y7986336D01*
X3281662Y7983341D01*
X3267700D01*
Y8002700D01*
D02*
G37*
G36*
X6505400Y7967300D02*
X6387699D01*
Y7804600D01*
X6505400D01*
Y7967300D01*
D02*
G37*
G36*
X4227299D02*
X4109600D01*
Y7804600D01*
X4227299D01*
Y7967300D01*
D02*
G37*
G36*
X8067900Y7967300D02*
X7950200D01*
Y7804600D01*
X8067900D01*
Y7967300D01*
D02*
G37*
G36*
X7924800D02*
X7807100D01*
Y7804600D01*
X7924800D01*
Y7967300D01*
D02*
G37*
G36*
X6932900D02*
X6815200D01*
Y7804600D01*
X6932900D01*
Y7967300D01*
D02*
G37*
G36*
X6789800D02*
X6672100D01*
Y7804600D01*
X6789800D01*
Y7967300D01*
D02*
G37*
G36*
X1658595Y7902547D02*
X1638930Y7898636D01*
X1622259Y7887496D01*
X1611120Y7870825D01*
X1607208Y7851160D01*
X1611120Y7831495D01*
X1622259Y7814824D01*
X1638930Y7803684D01*
X1658595Y7799773D01*
X1678260Y7803684D01*
X1694932Y7814824D01*
X1706071Y7831495D01*
X1709983Y7851160D01*
X1706071Y7870825D01*
X1694932Y7887496D01*
X1678260Y7898636D01*
X1658595Y7902547D01*
D02*
G37*
G36*
X5120000Y7881387D02*
X5100335Y7877476D01*
X5083664Y7866336D01*
X5072524Y7849665D01*
X5068613Y7830000D01*
X5072524Y7810335D01*
X5081579Y7796784D01*
X5076575Y7785250D01*
X5070017Y7785100D01*
X5060400Y7795400D01*
Y7795400D01*
X5007700D01*
Y7690000D01*
Y7584600D01*
X5060400D01*
Y7587458D01*
X5067300Y7597300D01*
X5073100Y7597300D01*
X5172700D01*
Y7782700D01*
X5162787D01*
X5159472Y7788335D01*
X5157496Y7795400D01*
X5167476Y7810335D01*
X5171387Y7830000D01*
X5167476Y7849665D01*
X5156336Y7866336D01*
X5139665Y7877476D01*
X5120000Y7881387D01*
D02*
G37*
G36*
X7110200Y7782700D02*
X7004800D01*
Y7728025D01*
X7004139Y7727415D01*
X6992100Y7722400D01*
X6979265Y7730976D01*
X6959600Y7734887D01*
X6939935Y7730976D01*
X6923264Y7719836D01*
X6912124Y7703165D01*
X6908213Y7683500D01*
X6912124Y7663835D01*
X6923264Y7647164D01*
X6939935Y7636024D01*
X6959600Y7632113D01*
X6979265Y7636024D01*
X6992100Y7644600D01*
X7004139Y7639585D01*
X7004800Y7638975D01*
Y7597300D01*
X7110200D01*
Y7782700D01*
D02*
G37*
G36*
X7747900Y7795400D02*
X7695200D01*
Y7702700D01*
X7747900D01*
Y7795400D01*
D02*
G37*
G36*
X1270000Y7828901D02*
X1248803Y7826110D01*
X1229050Y7817928D01*
X1212088Y7804913D01*
X1199072Y7787950D01*
X1190890Y7768198D01*
X1188099Y7747000D01*
X1190890Y7725802D01*
X1199072Y7706050D01*
X1212088Y7689087D01*
X1229050Y7676072D01*
X1248803Y7667890D01*
X1270000Y7665099D01*
X1291198Y7667890D01*
X1310951Y7676072D01*
X1327913Y7689087D01*
X1340928Y7706050D01*
X1349110Y7725802D01*
X1351901Y7747000D01*
X1349110Y7768198D01*
X1340928Y7787950D01*
X1327913Y7804913D01*
X1310951Y7817928D01*
X1291198Y7826110D01*
X1270000Y7828901D01*
D02*
G37*
G36*
X1016000D02*
X994803Y7826110D01*
X975050Y7817928D01*
X958088Y7804913D01*
X945072Y7787950D01*
X936890Y7768198D01*
X934099Y7747000D01*
X936890Y7725802D01*
X945072Y7706050D01*
X958088Y7689087D01*
X975050Y7676072D01*
X994803Y7667890D01*
X1016000Y7665099D01*
X1037198Y7667890D01*
X1056951Y7676072D01*
X1073913Y7689087D01*
X1086928Y7706050D01*
X1095110Y7725802D01*
X1097901Y7747000D01*
X1095110Y7768198D01*
X1086928Y7787950D01*
X1073913Y7804913D01*
X1056951Y7817928D01*
X1037198Y7826110D01*
X1016000Y7828901D01*
D02*
G37*
G36*
X762000D02*
X740803Y7826110D01*
X721050Y7817928D01*
X704088Y7804913D01*
X691072Y7787950D01*
X682890Y7768198D01*
X680099Y7747000D01*
X682890Y7725802D01*
X691072Y7706050D01*
X704088Y7689087D01*
X721050Y7676072D01*
X740803Y7667890D01*
X762000Y7665099D01*
X783198Y7667890D01*
X802951Y7676072D01*
X819913Y7689087D01*
X832928Y7706050D01*
X841110Y7725802D01*
X843901Y7747000D01*
X841110Y7768198D01*
X832928Y7787950D01*
X819913Y7804913D01*
X802951Y7817928D01*
X783198Y7826110D01*
X762000Y7828901D01*
D02*
G37*
G36*
X508000D02*
X486803Y7826110D01*
X467050Y7817928D01*
X450088Y7804913D01*
X437072Y7787950D01*
X428890Y7768198D01*
X426099Y7747000D01*
X428890Y7725802D01*
X437072Y7706050D01*
X450088Y7689087D01*
X467050Y7676072D01*
X486803Y7667890D01*
X508000Y7665099D01*
X529198Y7667890D01*
X548951Y7676072D01*
X565913Y7689087D01*
X578928Y7706050D01*
X587110Y7725802D01*
X589901Y7747000D01*
X587110Y7768198D01*
X578928Y7787950D01*
X565913Y7804913D01*
X548951Y7817928D01*
X529198Y7826110D01*
X508000Y7828901D01*
D02*
G37*
G36*
X1660000Y7761387D02*
X1640335Y7757476D01*
X1623664Y7746336D01*
X1612524Y7729665D01*
X1608613Y7710000D01*
X1612524Y7690335D01*
X1623664Y7673664D01*
X1640335Y7662524D01*
X1660000Y7658613D01*
X1679665Y7662524D01*
X1696336Y7673664D01*
X1707476Y7690335D01*
X1711387Y7710000D01*
X1707476Y7729665D01*
X1696336Y7746336D01*
X1679665Y7757476D01*
X1660000Y7761387D01*
D02*
G37*
G36*
X6362299Y7967300D02*
X6244600D01*
Y7935898D01*
X6170000D01*
X6160089Y7933926D01*
X6151687Y7928313D01*
X6146074Y7919911D01*
X6144102Y7910000D01*
Y7782700D01*
X6067300D01*
Y7645457D01*
X6060400Y7639741D01*
X6047700Y7645712D01*
Y7782700D01*
X5948100D01*
X5942300Y7782700D01*
X5935400Y7792542D01*
Y7795400D01*
X5882700D01*
Y7690000D01*
Y7584600D01*
X5935400D01*
Y7587458D01*
X5942300Y7597300D01*
X5948100Y7597300D01*
X6010072D01*
X6010089Y7597282D01*
X6010090Y7597282D01*
X6014637Y7594244D01*
Y7385564D01*
X6002903Y7380704D01*
X5838209Y7545398D01*
X5829577Y7551166D01*
X5819395Y7553192D01*
X5819393Y7553191D01*
X5774905D01*
X5742530Y7585567D01*
X5747390Y7597300D01*
X5797700Y7597300D01*
X5804600Y7587458D01*
Y7584600D01*
X5857300D01*
Y7690000D01*
Y7795400D01*
X5804600D01*
Y7792542D01*
X5797700Y7782700D01*
X5791900Y7782700D01*
X5692300D01*
Y7645457D01*
X5685400Y7639741D01*
X5672700Y7645712D01*
Y7782700D01*
X5573100D01*
X5567300Y7782700D01*
X5560400Y7792542D01*
Y7795400D01*
X5507700D01*
Y7690000D01*
Y7584600D01*
X5560400D01*
Y7587458D01*
X5567300Y7597300D01*
X5573100Y7597300D01*
X5635072D01*
X5635089Y7597282D01*
X5635090Y7597282D01*
X5639637Y7594244D01*
Y7578246D01*
X5639636Y7578245D01*
X5641662Y7568063D01*
X5647430Y7559431D01*
X5731602Y7475259D01*
X5731603Y7475258D01*
X5740235Y7469490D01*
X5750417Y7467465D01*
X5794907D01*
X5949613Y7312759D01*
Y6693220D01*
X5825756Y6569363D01*
X5808704D01*
X5808079Y6570125D01*
Y6609875D01*
X5806579Y6617415D01*
X5802308Y6623807D01*
X5795916Y6628079D01*
X5788375Y6629579D01*
X5603625D01*
X5596085Y6628079D01*
X5589692Y6623807D01*
X5585421Y6617415D01*
X5583921Y6609875D01*
Y6572863D01*
X5521568D01*
X5520888Y6576278D01*
X5517700Y6581050D01*
Y6652700D01*
X5402300D01*
Y6581050D01*
X5399112Y6576278D01*
X5398432Y6572863D01*
X5387790D01*
X5387788Y6572863D01*
X5371568D01*
X5370888Y6576278D01*
X5367700Y6581049D01*
Y6652700D01*
X5252300D01*
Y6547300D01*
X5320912D01*
X5321724Y6543216D01*
X5327492Y6534583D01*
Y6525416D01*
X5321725Y6516784D01*
X5320912Y6512700D01*
X5252300D01*
Y6407300D01*
X5367700D01*
Y6478950D01*
X5370888Y6483722D01*
X5371568Y6487136D01*
X5398433D01*
X5399112Y6483722D01*
X5402300Y6478950D01*
Y6407300D01*
X5517700D01*
Y6478950D01*
X5520888Y6483722D01*
X5521568Y6487137D01*
X5569906D01*
X5572113Y6485662D01*
X5583921Y6482875D01*
Y6443125D01*
X5585421Y6435585D01*
X5589692Y6429193D01*
X5596085Y6424921D01*
X5603625Y6423421D01*
X5788375D01*
X5795916Y6424921D01*
X5802308Y6429193D01*
X5806579Y6435585D01*
X5808079Y6443125D01*
Y6482875D01*
X5808704Y6483637D01*
X5850243D01*
X5850244Y6483637D01*
X5860426Y6485662D01*
X5869058Y6491430D01*
X6027546Y6649918D01*
X6033314Y6658550D01*
X6035339Y6668732D01*
X6035339Y6668733D01*
Y7288327D01*
X6047072Y7293187D01*
X6082195Y7258064D01*
X6078421Y7252415D01*
X6076921Y7244875D01*
Y7205125D01*
X6078421Y7197585D01*
X6082692Y7191193D01*
X6089084Y7186921D01*
X6096625Y7185421D01*
X6281375D01*
X6288915Y7186921D01*
X6295307Y7191193D01*
X6299579Y7197585D01*
X6301079Y7205125D01*
Y7244875D01*
X6301704Y7245637D01*
X6330005D01*
X6330006Y7245637D01*
X6337548Y7247137D01*
X6378433D01*
X6379112Y7243722D01*
X6382300Y7238950D01*
Y7167300D01*
X6497700D01*
Y7238950D01*
X6500888Y7243722D01*
X6501568Y7247137D01*
X6528432D01*
X6529112Y7243722D01*
X6532300Y7238950D01*
Y7167300D01*
X6647700D01*
Y7272700D01*
X6579088D01*
X6578276Y7276784D01*
X6574157Y7282948D01*
X6573158Y7290000D01*
X6574157Y7297052D01*
X6578275Y7303216D01*
X6579088Y7307300D01*
X6647700D01*
Y7412700D01*
X6532300D01*
Y7341050D01*
X6529112Y7336278D01*
X6528432Y7332863D01*
X6501568D01*
X6500888Y7336278D01*
X6497700Y7341050D01*
Y7412700D01*
X6382300D01*
Y7341050D01*
X6379112Y7336278D01*
X6378433Y7332863D01*
X6318039D01*
X6313730Y7332006D01*
X6301079Y7339181D01*
Y7371875D01*
X6299579Y7379415D01*
X6295307Y7385807D01*
X6288915Y7390079D01*
X6281375Y7391579D01*
X6100363D01*
Y7594244D01*
X6104910Y7597282D01*
X6104929Y7597300D01*
X6172700D01*
Y7704102D01*
X6270000D01*
X6279910Y7706074D01*
X6288312Y7711688D01*
X6293926Y7720089D01*
X6295897Y7730000D01*
Y7804600D01*
X6362299D01*
Y7967300D01*
D02*
G37*
G36*
X5482300Y7795400D02*
X5429600D01*
Y7792542D01*
X5422700Y7782700D01*
X5416900Y7782700D01*
X5317300D01*
Y7645457D01*
X5310400Y7639741D01*
X5297700Y7645712D01*
Y7782700D01*
X5192300D01*
Y7597300D01*
X5260072D01*
X5260089Y7597282D01*
X5260090Y7597282D01*
X5264637Y7594244D01*
Y7537093D01*
X5156186Y7428643D01*
X5153933Y7425271D01*
X5151396Y7422109D01*
X5151069Y7420984D01*
X5150418Y7420011D01*
X5149627Y7416034D01*
X5148494Y7412141D01*
X5144820Y7370027D01*
X5145003Y7368359D01*
X5143902Y7360000D01*
X5144300Y7356977D01*
X5144740Y7344334D01*
X5148401Y7197494D01*
X5149468Y7192753D01*
X5150418Y7187975D01*
X5150606Y7187695D01*
X5150680Y7187366D01*
X5153482Y7183391D01*
X5156186Y7179343D01*
X5210599Y7124931D01*
X5210599Y7124930D01*
X5219231Y7119162D01*
X5229414Y7117137D01*
X5238432D01*
X5239112Y7113722D01*
X5242300Y7108950D01*
Y7037300D01*
X5357700D01*
Y7108950D01*
X5360888Y7113722D01*
X5361568Y7117137D01*
X5388432D01*
X5389112Y7113722D01*
X5392300Y7108950D01*
Y7037300D01*
X5507700D01*
Y7108950D01*
X5510888Y7113722D01*
X5511568Y7117137D01*
X5569460D01*
X5569461Y7117137D01*
X5571221Y7117487D01*
X5583921Y7109149D01*
Y7078125D01*
X5585421Y7070585D01*
X5589692Y7064193D01*
X5596085Y7059921D01*
X5603625Y7058421D01*
X5788375D01*
X5795916Y7059921D01*
X5802308Y7064193D01*
X5806579Y7070585D01*
X5808079Y7078125D01*
Y7117875D01*
X5806579Y7125415D01*
X5802308Y7131807D01*
X5795916Y7136079D01*
X5788375Y7137579D01*
X5681515D01*
X5669448Y7138102D01*
X5667422Y7148284D01*
X5663239Y7154546D01*
X5662052Y7160940D01*
X5662811Y7168650D01*
X5666864Y7174716D01*
X5668890Y7184898D01*
X5680957Y7185421D01*
X5788375D01*
X5795916Y7186921D01*
X5802308Y7191193D01*
X5806579Y7197585D01*
X5808079Y7205125D01*
Y7244875D01*
X5806579Y7252415D01*
X5802308Y7258807D01*
X5795916Y7263079D01*
X5788375Y7264579D01*
X5603625D01*
X5596085Y7263079D01*
X5589692Y7258807D01*
X5585421Y7252415D01*
X5583921Y7244875D01*
Y7205125D01*
X5583296Y7204363D01*
X5557495D01*
X5557494Y7204364D01*
X5549953Y7202863D01*
X5511568D01*
X5510888Y7206278D01*
X5507700Y7211050D01*
Y7282700D01*
X5392300D01*
Y7211050D01*
X5389112Y7206278D01*
X5388432Y7202863D01*
X5361568D01*
X5360888Y7206278D01*
X5357700Y7211050D01*
Y7282700D01*
X5242300D01*
X5232039Y7288588D01*
X5230122Y7359188D01*
X5230459Y7359198D01*
X5231002Y7363531D01*
X5230331Y7363612D01*
X5230330Y7363613D01*
X5232816Y7384037D01*
X5342569Y7493791D01*
X5342570Y7493791D01*
X5348338Y7502423D01*
X5350363Y7512605D01*
X5350363Y7512607D01*
Y7586491D01*
X5361797Y7597300D01*
X5416900D01*
X5422700Y7597300D01*
X5429600Y7587458D01*
Y7584600D01*
X5482300D01*
Y7690000D01*
Y7795400D01*
D02*
G37*
G36*
X2500000Y7741387D02*
X2480335Y7737476D01*
X2463664Y7726336D01*
X2452524Y7709665D01*
X2448613Y7690000D01*
X2452524Y7670335D01*
X2463664Y7653664D01*
X2480335Y7642524D01*
X2500000Y7638613D01*
X2519665Y7642524D01*
X2536336Y7653664D01*
X2547476Y7670335D01*
X2551387Y7690000D01*
X2547476Y7709665D01*
X2536336Y7726336D01*
X2519665Y7737476D01*
X2500000Y7741387D01*
D02*
G37*
G36*
X4807500Y7795604D02*
X4789226Y7793198D01*
X4772198Y7786145D01*
X4767709Y7782700D01*
X4692300D01*
Y7597300D01*
X4736896D01*
Y7462500D01*
X4739302Y7444226D01*
X4746355Y7427198D01*
X4757575Y7412575D01*
X4929396Y7240755D01*
Y7125000D01*
Y7050000D01*
Y6975000D01*
X4931802Y6956726D01*
X4938855Y6939698D01*
X4950075Y6925076D01*
X4964698Y6913855D01*
X4981726Y6906802D01*
X5000000Y6904396D01*
X5018273Y6906802D01*
X5035302Y6913855D01*
X5049924Y6925076D01*
X5061145Y6939698D01*
X5068198Y6956726D01*
X5070604Y6975000D01*
Y7050000D01*
Y7125000D01*
Y7200000D01*
Y7270000D01*
X5068198Y7288273D01*
X5061145Y7305302D01*
X5049924Y7319924D01*
X4878104Y7491745D01*
Y7588320D01*
X4887084Y7597300D01*
X4922700Y7597300D01*
X4929600Y7587458D01*
Y7584600D01*
X4982300D01*
Y7690000D01*
Y7795400D01*
X4929600D01*
Y7792542D01*
X4922700Y7782700D01*
X4916900Y7782700D01*
X4847291D01*
X4842802Y7786145D01*
X4825773Y7793198D01*
X4807500Y7795604D01*
D02*
G37*
G36*
X7747900Y7677300D02*
X7695200D01*
Y7584600D01*
X7747900D01*
Y7677300D01*
D02*
G37*
G36*
X7669800Y7795400D02*
X7617100D01*
Y7792542D01*
X7610200Y7782700D01*
X7604400Y7782700D01*
X7504800D01*
Y7597300D01*
X7604400D01*
X7610200Y7597300D01*
X7617100Y7587458D01*
Y7584600D01*
X7669800D01*
Y7690000D01*
Y7795400D01*
D02*
G37*
G36*
X6510400Y7565400D02*
X6452701D01*
Y7512700D01*
X6510400D01*
Y7565400D01*
D02*
G37*
G36*
X6427301D02*
X6369600D01*
Y7512700D01*
X6427301D01*
Y7565400D01*
D02*
G37*
G36*
X3686814Y7717300D02*
X3620000D01*
X3553186D01*
X3553848Y7712275D01*
X3560690Y7695757D01*
X3571573Y7681573D01*
X3585757Y7670690D01*
X3592699Y7667814D01*
X3593550Y7653715D01*
X3580203Y7644797D01*
X3568003Y7626538D01*
X3563719Y7605000D01*
X3568003Y7583462D01*
X3580203Y7565203D01*
X3593550Y7556285D01*
X3592699Y7542186D01*
X3585757Y7539311D01*
X3571573Y7528427D01*
X3560690Y7514243D01*
X3553848Y7497725D01*
X3553186Y7492700D01*
X3620000D01*
X3686814D01*
X3686153Y7497725D01*
X3679311Y7514243D01*
X3668427Y7528427D01*
X3654243Y7539311D01*
X3647302Y7542186D01*
X3646450Y7556285D01*
X3659797Y7565203D01*
X3671997Y7583462D01*
X3676282Y7605000D01*
X3671997Y7626538D01*
X3659797Y7644797D01*
X3646450Y7653715D01*
X3647302Y7667814D01*
X3654243Y7670690D01*
X3668427Y7681573D01*
X3679311Y7695757D01*
X3686153Y7712275D01*
X3686814Y7717300D01*
D02*
G37*
G36*
X7235200Y7782700D02*
X7129800D01*
Y7597300D01*
X7146660D01*
Y7578338D01*
X7143664Y7576336D01*
X7132524Y7559665D01*
X7128613Y7540000D01*
X7132524Y7520335D01*
X7143664Y7503664D01*
X7160335Y7492524D01*
X7180000Y7488613D01*
X7199665Y7492524D01*
X7216336Y7503664D01*
X7227476Y7520335D01*
X7231387Y7540000D01*
X7227476Y7559665D01*
X7216336Y7576336D01*
X7213341Y7578338D01*
Y7597300D01*
X7235200D01*
Y7782700D01*
D02*
G37*
G36*
X6510400Y7487300D02*
X6452701D01*
Y7434600D01*
X6510400D01*
Y7487300D01*
D02*
G37*
G36*
X6427301D02*
X6369600D01*
Y7434600D01*
X6427301D01*
Y7487300D01*
D02*
G37*
G36*
X1270000Y7574901D02*
X1248803Y7572110D01*
X1229050Y7563928D01*
X1212088Y7550913D01*
X1199072Y7533950D01*
X1190890Y7514198D01*
X1188099Y7493000D01*
X1190890Y7471802D01*
X1199072Y7452050D01*
X1212088Y7435087D01*
X1229050Y7422072D01*
X1248803Y7413890D01*
X1270000Y7411099D01*
X1291198Y7413890D01*
X1310951Y7422072D01*
X1327913Y7435087D01*
X1340928Y7452050D01*
X1349110Y7471802D01*
X1351901Y7493000D01*
X1349110Y7514198D01*
X1340928Y7533950D01*
X1327913Y7550913D01*
X1310951Y7563928D01*
X1291198Y7572110D01*
X1270000Y7574901D01*
D02*
G37*
G36*
X1016000D02*
X994803Y7572110D01*
X975050Y7563928D01*
X958088Y7550913D01*
X945072Y7533950D01*
X936890Y7514198D01*
X934099Y7493000D01*
X936890Y7471802D01*
X945072Y7452050D01*
X958088Y7435087D01*
X975050Y7422072D01*
X994803Y7413890D01*
X1016000Y7411099D01*
X1037198Y7413890D01*
X1056951Y7422072D01*
X1073913Y7435087D01*
X1086928Y7452050D01*
X1095110Y7471802D01*
X1097901Y7493000D01*
X1095110Y7514198D01*
X1086928Y7533950D01*
X1073913Y7550913D01*
X1056951Y7563928D01*
X1037198Y7572110D01*
X1016000Y7574901D01*
D02*
G37*
G36*
X762000D02*
X740803Y7572110D01*
X721050Y7563928D01*
X704088Y7550913D01*
X691072Y7533950D01*
X682890Y7514198D01*
X680099Y7493000D01*
X682890Y7471802D01*
X691072Y7452050D01*
X704088Y7435087D01*
X721050Y7422072D01*
X740803Y7413890D01*
X762000Y7411099D01*
X783198Y7413890D01*
X802951Y7422072D01*
X819913Y7435087D01*
X832928Y7452050D01*
X841110Y7471802D01*
X843901Y7493000D01*
X841110Y7514198D01*
X832928Y7533950D01*
X819913Y7550913D01*
X802951Y7563928D01*
X783198Y7572110D01*
X762000Y7574901D01*
D02*
G37*
G36*
X508000D02*
X486803Y7572110D01*
X467050Y7563928D01*
X450088Y7550913D01*
X437072Y7533950D01*
X428890Y7514198D01*
X426099Y7493000D01*
X428890Y7471802D01*
X437072Y7452050D01*
X450088Y7435087D01*
X467050Y7422072D01*
X486803Y7413890D01*
X508000Y7411099D01*
X529198Y7413890D01*
X548951Y7422072D01*
X565913Y7435087D01*
X578928Y7452050D01*
X587110Y7471802D01*
X589901Y7493000D01*
X587110Y7514198D01*
X578928Y7533950D01*
X565913Y7550913D01*
X548951Y7563928D01*
X529198Y7572110D01*
X508000Y7574901D01*
D02*
G37*
G36*
X1549400Y7493587D02*
X1529735Y7489676D01*
X1513064Y7478536D01*
X1501924Y7461865D01*
X1498013Y7442200D01*
X1501924Y7422535D01*
X1513064Y7405864D01*
X1529735Y7394724D01*
X1549400Y7390813D01*
X1569065Y7394724D01*
X1585736Y7405864D01*
X1596876Y7422535D01*
X1600787Y7442200D01*
X1596876Y7461865D01*
X1585736Y7478536D01*
X1569065Y7489676D01*
X1549400Y7493587D01*
D02*
G37*
G36*
X5520400Y7435400D02*
X5462700D01*
Y7382699D01*
X5520400D01*
Y7435400D01*
D02*
G37*
G36*
X5437300D02*
X5379600D01*
Y7382699D01*
X5437300D01*
Y7435400D01*
D02*
G37*
G36*
X5788375Y7404527D02*
X5708700D01*
Y7364700D01*
X5821027D01*
Y7371875D01*
X5818542Y7384371D01*
X5811464Y7394964D01*
X5800871Y7402042D01*
X5788375Y7404527D01*
D02*
G37*
G36*
X5683300D02*
X5603625D01*
X5591129Y7402042D01*
X5580536Y7394964D01*
X5573458Y7384371D01*
X5570973Y7371875D01*
Y7364700D01*
X5683300D01*
Y7404527D01*
D02*
G37*
G36*
X9305000Y7487297D02*
X9125000D01*
X9115089Y7485326D01*
X9106688Y7479712D01*
X9101074Y7471310D01*
X9099102Y7461400D01*
Y7361400D01*
X9101074Y7351489D01*
X9106688Y7343087D01*
X9115089Y7337474D01*
X9125000Y7335502D01*
X9305000D01*
X9314911Y7337474D01*
X9323313Y7343087D01*
X9328926Y7351489D01*
X9330898Y7361400D01*
Y7461400D01*
X9328926Y7471310D01*
X9323313Y7479712D01*
X9314911Y7485326D01*
X9305000Y7487297D01*
D02*
G37*
G36*
X5520400Y7357299D02*
X5462700D01*
Y7304600D01*
X5520400D01*
Y7357299D01*
D02*
G37*
G36*
X5437300D02*
X5379600D01*
Y7304600D01*
X5437300D01*
Y7357299D01*
D02*
G37*
G36*
X5821027Y7339300D02*
X5708700D01*
Y7299473D01*
X5788375D01*
X5800871Y7301958D01*
X5811464Y7309036D01*
X5818542Y7319630D01*
X5821027Y7332125D01*
Y7339300D01*
D02*
G37*
G36*
X5683300D02*
X5570973D01*
Y7332125D01*
X5573458Y7319630D01*
X5580536Y7309036D01*
X5591129Y7301958D01*
X5603625Y7299473D01*
X5683300D01*
Y7339300D01*
D02*
G37*
G36*
X7485200Y7782700D02*
X7379800D01*
Y7597300D01*
X7399159D01*
Y7490000D01*
X7401697Y7477241D01*
X7408925Y7466425D01*
X7532925Y7342424D01*
X7543741Y7335197D01*
X7556500Y7332659D01*
X7796690D01*
X7823133Y7306216D01*
X7822488Y7304727D01*
X7815647Y7295742D01*
X7805600Y7297741D01*
X7519510D01*
X7340841Y7476410D01*
Y7597300D01*
X7360200D01*
Y7782700D01*
X7254800D01*
Y7597300D01*
X7274159D01*
Y7462600D01*
X7276697Y7449841D01*
X7283925Y7439025D01*
X7482125Y7240825D01*
X7492941Y7233597D01*
X7505700Y7231059D01*
X7791790D01*
X8310559Y6712290D01*
Y6324838D01*
X8307564Y6322836D01*
X8296424Y6306165D01*
X8292513Y6286500D01*
X8296424Y6266835D01*
X8307564Y6250164D01*
X8324235Y6239024D01*
X8343900Y6235113D01*
X8363565Y6239024D01*
X8380236Y6250164D01*
X8386759Y6259926D01*
X8399459Y6256074D01*
Y6185138D01*
X8396464Y6183136D01*
X8385324Y6166465D01*
X8381413Y6146800D01*
X8385324Y6127135D01*
X8396464Y6110464D01*
X8413135Y6099324D01*
X8432800Y6095413D01*
X8452465Y6099324D01*
X8469136Y6110464D01*
X8480276Y6127135D01*
X8484187Y6146800D01*
X8480276Y6166465D01*
X8469136Y6183136D01*
X8466141Y6185138D01*
Y6743700D01*
X8463603Y6756459D01*
X8456375Y6767275D01*
X7834075Y7389575D01*
X7823259Y7396803D01*
X7810500Y7399341D01*
X7570310D01*
X7465841Y7503810D01*
Y7597300D01*
X7485200D01*
Y7782700D01*
D02*
G37*
G36*
X1016000Y7320901D02*
X994803Y7318110D01*
X975050Y7309928D01*
X958088Y7296913D01*
X945072Y7279950D01*
X936890Y7260198D01*
X934099Y7239000D01*
X936890Y7217802D01*
X945072Y7198050D01*
X958088Y7181087D01*
X975050Y7168072D01*
X994803Y7159890D01*
X1016000Y7157099D01*
X1037198Y7159890D01*
X1056951Y7168072D01*
X1073913Y7181087D01*
X1086928Y7198050D01*
X1095110Y7217802D01*
X1097901Y7239000D01*
X1095110Y7260198D01*
X1086928Y7279950D01*
X1073913Y7296913D01*
X1056951Y7309928D01*
X1037198Y7318110D01*
X1016000Y7320901D01*
D02*
G37*
G36*
X762000D02*
X740803Y7318110D01*
X721050Y7309928D01*
X704088Y7296913D01*
X691072Y7279950D01*
X682890Y7260198D01*
X680099Y7239000D01*
X682890Y7217802D01*
X691072Y7198050D01*
X704088Y7181087D01*
X721050Y7168072D01*
X740803Y7159890D01*
X762000Y7157099D01*
X783198Y7159890D01*
X802951Y7168072D01*
X819913Y7181087D01*
X832928Y7198050D01*
X841110Y7217802D01*
X843901Y7239000D01*
X841110Y7260198D01*
X832928Y7279950D01*
X819913Y7296913D01*
X802951Y7309928D01*
X783198Y7318110D01*
X762000Y7320901D01*
D02*
G37*
G36*
X508000D02*
X486803Y7318110D01*
X467050Y7309928D01*
X450088Y7296913D01*
X437072Y7279950D01*
X428890Y7260198D01*
X426099Y7239000D01*
X428890Y7217802D01*
X437072Y7198050D01*
X450088Y7181087D01*
X467050Y7168072D01*
X486803Y7159890D01*
X508000Y7157099D01*
X529198Y7159890D01*
X548951Y7168072D01*
X565913Y7181087D01*
X578928Y7198050D01*
X587110Y7217802D01*
X589901Y7239000D01*
X587110Y7260198D01*
X578928Y7279950D01*
X565913Y7296913D01*
X548951Y7309928D01*
X529198Y7318110D01*
X508000Y7320901D01*
D02*
G37*
G36*
X6340000Y7141387D02*
X6320335Y7137476D01*
X6305167Y7127341D01*
X6298292D01*
X6295307Y7131807D01*
X6288915Y7136079D01*
X6281375Y7137579D01*
X6096625D01*
X6089084Y7136079D01*
X6082692Y7131807D01*
X6078421Y7125415D01*
X6076921Y7117875D01*
Y7078125D01*
X6078421Y7070585D01*
X6082692Y7064193D01*
X6089084Y7059921D01*
X6096625Y7058421D01*
X6281375D01*
X6288915Y7059921D01*
X6301560Y7056812D01*
X6303664Y7053664D01*
X6320335Y7042524D01*
X6340000Y7038613D01*
X6359665Y7042524D01*
X6369600Y7049163D01*
X6382300Y7042375D01*
X6382300Y7030020D01*
X6372669Y7021903D01*
X6369665Y7022476D01*
X6369292Y7022550D01*
X6350000Y7026387D01*
X6330335Y7022476D01*
X6313664Y7011336D01*
X6310326Y7006341D01*
X6293013D01*
X6288915Y7009079D01*
X6281375Y7010579D01*
X6096625D01*
X6089084Y7009079D01*
X6082692Y7004807D01*
X6078421Y6998415D01*
X6076921Y6990875D01*
Y6951125D01*
X6078421Y6943585D01*
X6082692Y6937193D01*
X6089084Y6932921D01*
X6096625Y6931421D01*
X6281375D01*
X6288915Y6932921D01*
X6295307Y6937193D01*
X6296956Y6939659D01*
X6312999D01*
X6313664Y6938664D01*
X6330335Y6927524D01*
X6350000Y6923613D01*
X6369665Y6927524D01*
X6386336Y6938664D01*
X6397476Y6955335D01*
X6401387Y6975000D01*
X6397476Y6994665D01*
X6386336Y7011336D01*
X6380068Y7015525D01*
X6385304Y7027300D01*
X6394169Y7027300D01*
X6497700D01*
Y7036660D01*
X6511662D01*
X6513664Y7033664D01*
X6530335Y7022524D01*
X6550000Y7018613D01*
X6569665Y7022524D01*
X6586336Y7033664D01*
X6597476Y7050335D01*
X6601387Y7070000D01*
X6597476Y7089665D01*
X6586336Y7106336D01*
X6569665Y7117476D01*
X6550000Y7121387D01*
X6530335Y7117476D01*
X6513664Y7106336D01*
X6511662Y7103341D01*
X6497700D01*
Y7132700D01*
X6382301D01*
X6382300Y7132700D01*
Y7132700D01*
X6369600Y7130837D01*
X6359665Y7137476D01*
X6340000Y7141387D01*
D02*
G37*
G36*
X2500000Y7181387D02*
X2480335Y7177476D01*
X2463664Y7166336D01*
X2452524Y7149665D01*
X2448613Y7130000D01*
X2452524Y7110335D01*
X2463664Y7093664D01*
X2480335Y7082524D01*
X2500000Y7078613D01*
X2519665Y7082524D01*
X2536336Y7093664D01*
X2547476Y7110335D01*
X2551387Y7130000D01*
X2547476Y7149665D01*
X2536336Y7166336D01*
X2519665Y7177476D01*
X2500000Y7181387D01*
D02*
G37*
G36*
X2050000Y8031282D02*
X2028462Y8026997D01*
X2010203Y8014797D01*
X1998003Y7996538D01*
X1993718Y7975000D01*
X1995233Y7967384D01*
X1916425Y7888575D01*
X1909197Y7877759D01*
X1906659Y7865000D01*
Y7178338D01*
X1903664Y7176336D01*
X1892524Y7159665D01*
X1888613Y7140000D01*
X1892524Y7120335D01*
X1903664Y7103664D01*
X1920335Y7092524D01*
X1940000Y7088613D01*
X1959665Y7092524D01*
X1976336Y7103664D01*
X1987476Y7120335D01*
X1991387Y7140000D01*
X1988752Y7153249D01*
X1987476Y7159665D01*
X1988085Y7160807D01*
X1987476Y7159665D01*
X1987779Y7158140D01*
X1989470Y7162890D01*
X1995781Y7169590D01*
X2003735Y7169800D01*
X2006770Y7169800D01*
X2105200D01*
Y7280200D01*
X1994800D01*
X1994800Y7181556D01*
X1982208Y7171301D01*
X1979339Y7171842D01*
X1976336Y7176336D01*
X1973340Y7178338D01*
Y7449454D01*
X1986040Y7451980D01*
X1990689Y7440757D01*
X2001573Y7426573D01*
X2015757Y7415690D01*
X2022699Y7412814D01*
X2023550Y7398715D01*
X2010203Y7389797D01*
X1998003Y7371538D01*
X1993718Y7350000D01*
X1998003Y7328462D01*
X2010203Y7310203D01*
X2028462Y7298003D01*
X2050000Y7293718D01*
X2071538Y7298003D01*
X2089797Y7310203D01*
X2101997Y7328462D01*
X2106282Y7350000D01*
X2101997Y7371538D01*
X2089797Y7389797D01*
X2076450Y7398715D01*
X2077301Y7412814D01*
X2084243Y7415690D01*
X2098427Y7426573D01*
X2109310Y7440757D01*
X2116152Y7457275D01*
X2117486Y7467403D01*
X2130895Y7471955D01*
X2274773Y7328076D01*
X2285590Y7320849D01*
X2298349Y7318311D01*
X3134539D01*
X3339316Y7113534D01*
X3338613Y7110000D01*
X3342524Y7090335D01*
X3353664Y7073664D01*
X3368313Y7063875D01*
X3367561Y7054909D01*
X3366201Y7051175D01*
X1755339D01*
X1673257Y7133258D01*
X1653411Y7146519D01*
X1630000Y7151175D01*
X1444340D01*
X1351202Y7244314D01*
X1349110Y7260198D01*
X1340928Y7279950D01*
X1327913Y7296913D01*
X1310951Y7309928D01*
X1291198Y7318110D01*
X1270000Y7320901D01*
X1248803Y7318110D01*
X1229050Y7309928D01*
X1212088Y7296913D01*
X1199072Y7279950D01*
X1190890Y7260198D01*
X1188099Y7239000D01*
X1190890Y7217802D01*
X1199072Y7198050D01*
X1212088Y7181087D01*
X1229050Y7168072D01*
X1248803Y7159890D01*
X1264687Y7157799D01*
X1375742Y7046743D01*
X1395589Y7033481D01*
X1419000Y7028825D01*
X1500052D01*
X1506841Y7016125D01*
X1502524Y7009665D01*
X1498613Y6990000D01*
X1502524Y6970335D01*
X1513664Y6953664D01*
X1530335Y6942524D01*
X1550000Y6938613D01*
X1569665Y6942524D01*
X1586336Y6953664D01*
X1597476Y6970335D01*
X1601387Y6990000D01*
X1597824Y7007911D01*
X1598464Y7011300D01*
X1604732Y7021665D01*
X1610974Y7022511D01*
X1686742Y6946743D01*
X1706589Y6933481D01*
X1730000Y6928825D01*
X3450000D01*
X3473411Y6933481D01*
X3493257Y6946743D01*
X3660758Y7114243D01*
X3674019Y7134089D01*
X3678676Y7157500D01*
Y7217432D01*
X3681176Y7230000D01*
X3676519Y7253411D01*
X3675200Y7255385D01*
Y7285200D01*
X3645385D01*
X3643411Y7286519D01*
X3633589Y7288473D01*
Y7301422D01*
X3641538Y7303003D01*
X3659797Y7315203D01*
X3671997Y7333462D01*
X3676282Y7355000D01*
X3671997Y7376538D01*
X3659797Y7394797D01*
X3646450Y7403715D01*
X3647302Y7417814D01*
X3654243Y7420690D01*
X3668427Y7431573D01*
X3679311Y7445757D01*
X3686153Y7462275D01*
X3686814Y7467300D01*
X3620000D01*
X3553186D01*
X3553848Y7462275D01*
X3560690Y7445757D01*
X3571573Y7431573D01*
X3585757Y7420690D01*
X3592699Y7417814D01*
X3593550Y7403715D01*
X3580203Y7394797D01*
X3568003Y7376538D01*
X3563719Y7355000D01*
X3568003Y7333462D01*
X3580203Y7315203D01*
X3598462Y7303003D01*
X3606412Y7301422D01*
Y7288473D01*
X3596589Y7286519D01*
X3594616Y7285200D01*
X3564800D01*
Y7256626D01*
X3560981Y7250911D01*
X3556325Y7227500D01*
Y7182840D01*
X3425584Y7052099D01*
X3417341Y7053037D01*
X3414995Y7066086D01*
X3426336Y7073664D01*
X3437476Y7090335D01*
X3441387Y7110000D01*
X3437476Y7129665D01*
X3426336Y7146336D01*
X3409665Y7157476D01*
X3390000Y7161387D01*
X3386466Y7160684D01*
X3171924Y7375227D01*
X3161108Y7382454D01*
X3148349Y7384992D01*
X2312159D01*
X2104767Y7592384D01*
X2106282Y7600000D01*
X2101997Y7621538D01*
X2089797Y7639797D01*
X2076450Y7648715D01*
X2077301Y7662814D01*
X2084243Y7665690D01*
X2098427Y7676573D01*
X2109310Y7690757D01*
X2116152Y7707275D01*
X2116814Y7712300D01*
X2050000D01*
Y7737700D01*
X2116814D01*
X2116152Y7742725D01*
X2109310Y7759243D01*
X2098427Y7773427D01*
X2084243Y7784311D01*
X2077301Y7787186D01*
X2076450Y7801285D01*
X2089797Y7810203D01*
X2101997Y7828462D01*
X2106282Y7850000D01*
X2101997Y7871538D01*
X2089797Y7889797D01*
X2071538Y7901997D01*
X2057705Y7904749D01*
X2057589Y7904822D01*
X2052094Y7918661D01*
X2052505Y7919217D01*
X2071538Y7923003D01*
X2089797Y7935203D01*
X2101997Y7953462D01*
X2106282Y7975000D01*
X2101997Y7996538D01*
X2089797Y8014797D01*
X2071538Y8026997D01*
X2050000Y8031282D01*
D02*
G37*
G36*
X5880000Y7011387D02*
X5860335Y7007476D01*
X5846225Y6998047D01*
X5806652D01*
X5806579Y6998415D01*
X5802308Y7004807D01*
X5795916Y7009079D01*
X5788375Y7010579D01*
X5603625D01*
X5596085Y7009079D01*
X5589692Y7004807D01*
X5585421Y6998415D01*
X5583921Y6990875D01*
Y6951125D01*
X5585421Y6943585D01*
X5589692Y6937193D01*
X5596085Y6932921D01*
X5603625Y6931421D01*
X5702016D01*
X5702293Y6931366D01*
X5838517D01*
X5843664Y6923664D01*
X5860335Y6912524D01*
X5880000Y6908613D01*
X5899665Y6912524D01*
X5916336Y6923664D01*
X5927476Y6940335D01*
X5931387Y6960000D01*
X5927476Y6979665D01*
X5916336Y6996336D01*
X5899665Y7007476D01*
X5880000Y7011387D01*
D02*
G37*
G36*
X4370400Y7967300D02*
X4252699D01*
Y7804600D01*
X4319102D01*
Y7730000D01*
X4321074Y7720089D01*
X4326688Y7711688D01*
X4335089Y7706074D01*
X4345000Y7704102D01*
X4442300D01*
Y7597300D01*
X4486896D01*
Y7536745D01*
X4270076Y7319924D01*
X4258855Y7305302D01*
X4251802Y7288273D01*
X4249396Y7270000D01*
Y6975000D01*
X4251802Y6956726D01*
X4258855Y6939698D01*
X4270076Y6925076D01*
X4284698Y6913855D01*
X4301726Y6906802D01*
X4320000Y6904396D01*
X4338274Y6906802D01*
X4355302Y6913855D01*
X4369924Y6925076D01*
X4381145Y6939698D01*
X4388198Y6956726D01*
X4390604Y6975000D01*
Y7240755D01*
X4607424Y7457575D01*
X4618645Y7472198D01*
X4625698Y7489226D01*
X4628104Y7507500D01*
Y7597300D01*
X4672700D01*
Y7782700D01*
X4597291D01*
X4592802Y7786145D01*
X4575773Y7793198D01*
X4557500Y7795604D01*
X4539226Y7793198D01*
X4522198Y7786145D01*
X4517709Y7782700D01*
X4470898D01*
Y7910000D01*
X4468926Y7919911D01*
X4463312Y7928313D01*
X4454911Y7933926D01*
X4445000Y7935898D01*
X4370400D01*
Y7967300D01*
D02*
G37*
G36*
X1270000Y7066901D02*
X1248803Y7064110D01*
X1229050Y7055928D01*
X1212088Y7042913D01*
X1199072Y7025950D01*
X1190890Y7006198D01*
X1188099Y6985000D01*
X1190890Y6963802D01*
X1199072Y6944050D01*
X1212088Y6927087D01*
X1229050Y6914072D01*
X1248803Y6905890D01*
X1270000Y6903099D01*
X1291198Y6905890D01*
X1310951Y6914072D01*
X1327913Y6927087D01*
X1340928Y6944050D01*
X1349110Y6963802D01*
X1351901Y6985000D01*
X1349110Y7006198D01*
X1340928Y7025950D01*
X1327913Y7042913D01*
X1310951Y7055928D01*
X1291198Y7064110D01*
X1270000Y7066901D01*
D02*
G37*
G36*
X1016000D02*
X994803Y7064110D01*
X975050Y7055928D01*
X958088Y7042913D01*
X945072Y7025950D01*
X936890Y7006198D01*
X934099Y6985000D01*
X936890Y6963802D01*
X945072Y6944050D01*
X958088Y6927087D01*
X975050Y6914072D01*
X994803Y6905890D01*
X1016000Y6903099D01*
X1037198Y6905890D01*
X1056951Y6914072D01*
X1073913Y6927087D01*
X1086928Y6944050D01*
X1095110Y6963802D01*
X1097901Y6985000D01*
X1095110Y7006198D01*
X1086928Y7025950D01*
X1073913Y7042913D01*
X1056951Y7055928D01*
X1037198Y7064110D01*
X1016000Y7066901D01*
D02*
G37*
G36*
X762000D02*
X740803Y7064110D01*
X721050Y7055928D01*
X704088Y7042913D01*
X691072Y7025950D01*
X682890Y7006198D01*
X680099Y6985000D01*
X682890Y6963802D01*
X691072Y6944050D01*
X704088Y6927087D01*
X721050Y6914072D01*
X740803Y6905890D01*
X762000Y6903099D01*
X783198Y6905890D01*
X802951Y6914072D01*
X819913Y6927087D01*
X832928Y6944050D01*
X841110Y6963802D01*
X843901Y6985000D01*
X841110Y7006198D01*
X832928Y7025950D01*
X819913Y7042913D01*
X802951Y7055928D01*
X783198Y7064110D01*
X762000Y7066901D01*
D02*
G37*
G36*
X508000D02*
X486803Y7064110D01*
X467050Y7055928D01*
X450088Y7042913D01*
X437072Y7025950D01*
X428890Y7006198D01*
X426099Y6985000D01*
X428890Y6963802D01*
X437072Y6944050D01*
X450088Y6927087D01*
X467050Y6914072D01*
X486803Y6905890D01*
X508000Y6903099D01*
X529198Y6905890D01*
X548951Y6914072D01*
X565913Y6927087D01*
X578928Y6944050D01*
X587110Y6963802D01*
X589901Y6985000D01*
X587110Y7006198D01*
X578928Y7025950D01*
X565913Y7042913D01*
X548951Y7055928D01*
X529198Y7064110D01*
X508000Y7066901D01*
D02*
G37*
G36*
X8418700Y6952738D02*
X8399035Y6948827D01*
X8382364Y6937687D01*
X8371224Y6921016D01*
X8367313Y6901351D01*
X8371224Y6881686D01*
X8382364Y6865015D01*
X8399035Y6853875D01*
X8418700Y6849964D01*
X8438365Y6853875D01*
X8455036Y6865015D01*
X8466176Y6881686D01*
X8470087Y6901351D01*
X8466176Y6921016D01*
X8455036Y6937687D01*
X8438365Y6948827D01*
X8418700Y6952738D01*
D02*
G37*
G36*
X6281375Y6883579D02*
X6096625D01*
X6089084Y6882079D01*
X6082692Y6877807D01*
X6078421Y6871415D01*
X6076921Y6863875D01*
Y6824125D01*
X6078421Y6816585D01*
X6082692Y6810193D01*
X6089084Y6805921D01*
X6096625Y6804421D01*
X6281375D01*
X6288915Y6805921D01*
X6295307Y6810193D01*
X6299579Y6816585D01*
X6301079Y6824125D01*
Y6863875D01*
X6299579Y6871415D01*
X6295307Y6877807D01*
X6288915Y6882079D01*
X6281375Y6883579D01*
D02*
G37*
G36*
X5507700Y7002700D02*
X5392300D01*
Y6897300D01*
X5414314D01*
Y6840747D01*
X5413524Y6839565D01*
X5409613Y6819900D01*
X5412497Y6805400D01*
X5404448Y6792700D01*
X5402300D01*
Y6687300D01*
X5517700D01*
Y6792375D01*
X5526699Y6801636D01*
X5540335Y6792524D01*
X5560000Y6788613D01*
X5579665Y6792524D01*
X5596336Y6803664D01*
X5597638Y6805612D01*
X5603625Y6804421D01*
X5788375D01*
X5795916Y6805921D01*
X5802308Y6810193D01*
X5806579Y6816585D01*
X5808079Y6824125D01*
Y6863875D01*
X5806579Y6871415D01*
X5802308Y6877807D01*
X5795916Y6882079D01*
X5788375Y6883579D01*
X5603625D01*
X5596085Y6882079D01*
X5591913Y6879292D01*
X5579665Y6887476D01*
X5560000Y6891387D01*
X5540335Y6887476D01*
X5523664Y6876336D01*
X5512524Y6859665D01*
X5512019Y6857122D01*
X5498536Y6854440D01*
X5497336Y6856236D01*
X5485686Y6864021D01*
Y6897300D01*
X5507700D01*
Y7002700D01*
D02*
G37*
G36*
X5870000Y6761387D02*
X5850335Y6757476D01*
X5834418Y6746840D01*
X5804958D01*
X5802308Y6750807D01*
X5795916Y6755079D01*
X5788375Y6756579D01*
X5603625D01*
X5596085Y6755079D01*
X5589692Y6750807D01*
X5585421Y6744415D01*
X5583921Y6736875D01*
Y6697125D01*
X5585421Y6689585D01*
X5589692Y6683193D01*
X5596085Y6678921D01*
X5603625Y6677421D01*
X5788375D01*
X5795916Y6678921D01*
X5797768Y6680159D01*
X5829324D01*
X5833664Y6673664D01*
X5850335Y6662524D01*
X5870000Y6658613D01*
X5889665Y6662524D01*
X5906336Y6673664D01*
X5917476Y6690335D01*
X5921387Y6710000D01*
X5917476Y6729665D01*
X5906336Y6746336D01*
X5889665Y6757476D01*
X5870000Y6761387D01*
D02*
G37*
G36*
X6281375Y6756579D02*
X6096625D01*
X6089084Y6755079D01*
X6082692Y6750807D01*
X6078421Y6744415D01*
X6076921Y6736875D01*
Y6697125D01*
X6078421Y6689585D01*
X6082692Y6683193D01*
X6089084Y6678921D01*
X6096625Y6677421D01*
X6281375D01*
X6288915Y6678921D01*
X6295307Y6683193D01*
X6299579Y6689585D01*
X6301079Y6697125D01*
Y6736875D01*
X6299579Y6744415D01*
X6295307Y6750807D01*
X6288915Y6755079D01*
X6281375Y6756579D01*
D02*
G37*
G36*
X6430000Y6761387D02*
X6410335Y6757476D01*
X6393664Y6746336D01*
X6382524Y6729665D01*
X6378613Y6710000D01*
X6382524Y6690335D01*
X6393664Y6673664D01*
X6410335Y6662524D01*
X6430000Y6658613D01*
X6449665Y6662524D01*
X6466336Y6673664D01*
X6477476Y6690335D01*
X6481387Y6710000D01*
X6477476Y6729665D01*
X6466336Y6746336D01*
X6449665Y6757476D01*
X6430000Y6761387D01*
D02*
G37*
G36*
X1270000Y6812901D02*
X1248803Y6810110D01*
X1229050Y6801928D01*
X1212088Y6788913D01*
X1199072Y6771950D01*
X1190890Y6752198D01*
X1188099Y6731000D01*
X1190890Y6709802D01*
X1199072Y6690050D01*
X1212088Y6673087D01*
X1229050Y6660072D01*
X1248803Y6651890D01*
X1270000Y6649099D01*
X1291198Y6651890D01*
X1310951Y6660072D01*
X1327913Y6673087D01*
X1340928Y6690050D01*
X1349110Y6709802D01*
X1351901Y6731000D01*
X1349110Y6752198D01*
X1340928Y6771950D01*
X1327913Y6788913D01*
X1310951Y6801928D01*
X1291198Y6810110D01*
X1270000Y6812901D01*
D02*
G37*
G36*
X1016000D02*
X994803Y6810110D01*
X975050Y6801928D01*
X958088Y6788913D01*
X945072Y6771950D01*
X936890Y6752198D01*
X934099Y6731000D01*
X936890Y6709802D01*
X945072Y6690050D01*
X958088Y6673087D01*
X975050Y6660072D01*
X994803Y6651890D01*
X1016000Y6649099D01*
X1037198Y6651890D01*
X1056951Y6660072D01*
X1073913Y6673087D01*
X1086928Y6690050D01*
X1095110Y6709802D01*
X1097901Y6731000D01*
X1095110Y6752198D01*
X1086928Y6771950D01*
X1073913Y6788913D01*
X1056951Y6801928D01*
X1037198Y6810110D01*
X1016000Y6812901D01*
D02*
G37*
G36*
X762000D02*
X740803Y6810110D01*
X721050Y6801928D01*
X704088Y6788913D01*
X691072Y6771950D01*
X682890Y6752198D01*
X680099Y6731000D01*
X682890Y6709802D01*
X691072Y6690050D01*
X704088Y6673087D01*
X721050Y6660072D01*
X740803Y6651890D01*
X762000Y6649099D01*
X783198Y6651890D01*
X802951Y6660072D01*
X819913Y6673087D01*
X832928Y6690050D01*
X841110Y6709802D01*
X843901Y6731000D01*
X841110Y6752198D01*
X832928Y6771950D01*
X819913Y6788913D01*
X802951Y6801928D01*
X783198Y6810110D01*
X762000Y6812901D01*
D02*
G37*
G36*
X508000D02*
X486803Y6810110D01*
X467050Y6801928D01*
X450088Y6788913D01*
X437072Y6771950D01*
X428890Y6752198D01*
X426099Y6731000D01*
X428890Y6709802D01*
X437072Y6690050D01*
X450088Y6673087D01*
X467050Y6660072D01*
X486803Y6651890D01*
X508000Y6649099D01*
X529198Y6651890D01*
X548951Y6660072D01*
X565913Y6673087D01*
X578928Y6690050D01*
X587110Y6709802D01*
X589901Y6731000D01*
X587110Y6752198D01*
X578928Y6771950D01*
X565913Y6788913D01*
X548951Y6801928D01*
X529198Y6810110D01*
X508000Y6812901D01*
D02*
G37*
G36*
X3530000Y6601387D02*
X3510335Y6597476D01*
X3493664Y6586336D01*
X3491662Y6583341D01*
X2868338D01*
X2866336Y6586336D01*
X2849665Y6597476D01*
X2830000Y6601387D01*
X2810335Y6597476D01*
X2793664Y6586336D01*
X2782524Y6569665D01*
X2778613Y6550000D01*
X2782524Y6530335D01*
X2793664Y6513664D01*
X2805073Y6506041D01*
X2801220Y6493341D01*
X2776847D01*
X2741188Y6528999D01*
X2741387Y6530000D01*
X2737476Y6549665D01*
X2726336Y6566336D01*
X2709665Y6577476D01*
X2690000Y6581387D01*
X2670335Y6577476D01*
X2653664Y6566336D01*
X2642524Y6549665D01*
X2638613Y6530000D01*
X2642524Y6510335D01*
X2653664Y6493664D01*
X2670335Y6482524D01*
X2690000Y6478613D01*
X2696067Y6479819D01*
X2739462Y6436425D01*
X2750278Y6429197D01*
X2763037Y6426659D01*
X3561662D01*
X3563664Y6423664D01*
X3580335Y6412524D01*
X3600000Y6408613D01*
X3619665Y6412524D01*
X3636336Y6423664D01*
X3647476Y6440335D01*
X3651387Y6460000D01*
X3647476Y6479665D01*
X3636336Y6496336D01*
X3619665Y6507476D01*
X3600000Y6511387D01*
X3580335Y6507476D01*
X3569882Y6500491D01*
X3569607Y6500575D01*
X3566639Y6512454D01*
X3566983Y6514632D01*
X3577476Y6530335D01*
X3581387Y6550000D01*
X3577476Y6569665D01*
X3566336Y6586336D01*
X3549665Y6597476D01*
X3530000Y6601387D01*
D02*
G37*
G36*
X6281375Y6629579D02*
X6096625D01*
X6089084Y6628079D01*
X6082692Y6623807D01*
X6078421Y6617415D01*
X6076921Y6609875D01*
Y6570125D01*
X6078421Y6562585D01*
X6082692Y6556193D01*
X6089084Y6551921D01*
X6096625Y6550421D01*
X6281375D01*
X6288915Y6551921D01*
X6295307Y6556193D01*
X6299579Y6562585D01*
X6301079Y6570125D01*
Y6609875D01*
X6299579Y6617415D01*
X6295307Y6623807D01*
X6288915Y6628079D01*
X6281375Y6629579D01*
D02*
G37*
G36*
X8245382Y6636769D02*
X8225717Y6632857D01*
X8209045Y6621718D01*
X8207044Y6618722D01*
X6955382D01*
X6942623Y6616184D01*
X6931806Y6608957D01*
X6681910Y6359060D01*
X5586641D01*
X5573882Y6356522D01*
X5563066Y6349295D01*
X5542133Y6328362D01*
X5530400Y6333223D01*
Y6385400D01*
X5472700D01*
Y6320000D01*
X5460000D01*
Y6307300D01*
X5389600D01*
Y6287940D01*
X5217852D01*
X5217834Y6287953D01*
X5205075Y6290491D01*
X4882492D01*
X4869733Y6287953D01*
X4858917Y6280725D01*
X4588433Y6010241D01*
X4334842D01*
X4327994Y6022941D01*
X4331387Y6040000D01*
X4327476Y6059665D01*
X4316336Y6076336D01*
X4313341Y6078338D01*
Y6359534D01*
X4323021Y6369214D01*
X4339665Y6372524D01*
X4356336Y6383664D01*
X4367476Y6400335D01*
X4371387Y6420000D01*
X4367476Y6439665D01*
X4356336Y6456336D01*
X4339665Y6467476D01*
X4320000Y6471387D01*
X4300335Y6467476D01*
X4283664Y6456336D01*
X4272524Y6439665D01*
X4268613Y6420000D01*
X4270420Y6410914D01*
X4256425Y6396919D01*
X4249197Y6386103D01*
X4246660Y6373344D01*
Y6078338D01*
X4243664Y6076336D01*
X4232524Y6059665D01*
X4228613Y6040000D01*
X4232006Y6022941D01*
X4225158Y6010241D01*
X3536510D01*
X3183175Y6363575D01*
X3172359Y6370803D01*
X3159600Y6373341D01*
X1718338D01*
X1716336Y6376336D01*
X1699665Y6387476D01*
X1680000Y6391387D01*
X1660335Y6387476D01*
X1643664Y6376336D01*
X1632524Y6359665D01*
X1628613Y6340000D01*
X1632524Y6320335D01*
X1643664Y6303664D01*
X1660335Y6292524D01*
X1680000Y6288613D01*
X1699665Y6292524D01*
X1716336Y6303664D01*
X1718338Y6306659D01*
X1836048D01*
X1841308Y6293959D01*
X1819234Y6271885D01*
X1815700Y6272587D01*
X1796035Y6268676D01*
X1779364Y6257536D01*
X1768224Y6240865D01*
X1764313Y6221200D01*
X1768224Y6201535D01*
X1779364Y6184864D01*
X1796035Y6173725D01*
X1815700Y6169813D01*
X1835365Y6173725D01*
X1852036Y6184864D01*
X1863176Y6201535D01*
X1867087Y6221200D01*
X1866384Y6224734D01*
X1888310Y6246659D01*
X3141133D01*
X3481367Y5906425D01*
X3492184Y5899197D01*
X3504942Y5896660D01*
X4481549D01*
X4486809Y5883960D01*
X4414290Y5811440D01*
X3068736D01*
X3066735Y5814436D01*
X3050063Y5825576D01*
X3030398Y5829487D01*
X3010733Y5825576D01*
X2994062Y5814436D01*
X2992060Y5811440D01*
X2789464D01*
X2788327Y5813143D01*
X2771656Y5824282D01*
X2751991Y5828194D01*
X2732326Y5824282D01*
X2715654Y5813143D01*
X2704515Y5796472D01*
X2700603Y5776807D01*
X2704515Y5757142D01*
X2715654Y5740470D01*
X2732326Y5729331D01*
X2751991Y5725419D01*
X2771656Y5729331D01*
X2788327Y5740470D01*
X2791193Y5744759D01*
X2992060D01*
X2994062Y5741764D01*
X3010733Y5730624D01*
X3030398Y5726713D01*
X3050063Y5730624D01*
X3066735Y5741764D01*
X3068736Y5744759D01*
X4401015D01*
X4405876Y5733026D01*
X4370390Y5697541D01*
X2921238D01*
X2919236Y5700536D01*
X2902565Y5711676D01*
X2882900Y5715587D01*
X2863235Y5711676D01*
X2846564Y5700536D01*
X2835424Y5683865D01*
X2831513Y5664200D01*
X2835424Y5644535D01*
X2846564Y5627864D01*
X2863235Y5616724D01*
X2882900Y5612813D01*
X2902565Y5616724D01*
X2919236Y5627864D01*
X2921238Y5630859D01*
X4357115D01*
X4361976Y5619126D01*
X4116055Y5373206D01*
X4109665Y5377476D01*
X4090000Y5381387D01*
X4070335Y5377476D01*
X4053664Y5366336D01*
X4042524Y5349665D01*
X4038613Y5330000D01*
X4042524Y5310335D01*
X4053664Y5293664D01*
X4060209Y5289291D01*
X4067069Y5277318D01*
X4065889Y5271384D01*
X4063158Y5257653D01*
X4067069Y5237989D01*
X4078209Y5221317D01*
X4094880Y5210178D01*
X4114545Y5206266D01*
X4124755Y5208297D01*
X4127751Y5193235D01*
X4138890Y5176564D01*
X4155562Y5165424D01*
X4175227Y5161513D01*
X4194892Y5165424D01*
X4211563Y5176564D01*
X4222702Y5193235D01*
X4226614Y5212900D01*
X4225911Y5216434D01*
X4456137Y5446659D01*
X6411662D01*
X6413664Y5443664D01*
X6430335Y5432524D01*
X6450000Y5428613D01*
X6469665Y5432524D01*
X6486336Y5443664D01*
X6497476Y5460335D01*
X6501387Y5480000D01*
X6497476Y5499665D01*
X6486336Y5516336D01*
X6469665Y5527476D01*
X6450000Y5531387D01*
X6430335Y5527476D01*
X6413664Y5516336D01*
X6411662Y5513341D01*
X5108888D01*
X5103628Y5526041D01*
X5114247Y5536659D01*
X6210000D01*
X6222759Y5539197D01*
X6233575Y5546425D01*
X6386466Y5699315D01*
X6390000Y5698613D01*
X6409665Y5702524D01*
X6426336Y5713664D01*
X6437476Y5730335D01*
X6441387Y5750000D01*
X6437476Y5769665D01*
X6426336Y5786336D01*
X6409665Y5797476D01*
X6390000Y5801387D01*
X6370335Y5797476D01*
X6360216Y5790714D01*
X6349573Y5789838D01*
X6344405Y5794261D01*
X6336336Y5806336D01*
X6319665Y5817476D01*
X6300000Y5821387D01*
X6280335Y5817476D01*
X6263664Y5806336D01*
X6259324Y5799841D01*
X5014842D01*
X5007994Y5812541D01*
X5011387Y5829600D01*
X5010684Y5833134D01*
X5101175Y5923624D01*
X5109304Y5918193D01*
X5128969Y5914282D01*
X5148634Y5918193D01*
X5165305Y5929333D01*
X5176444Y5946004D01*
X5180356Y5965669D01*
X5176963Y5982728D01*
X5183811Y5995428D01*
X5610826D01*
X5623585Y5997966D01*
X5634402Y6005193D01*
X5675868Y6046659D01*
X6105427D01*
X6279952Y5872135D01*
X6290768Y5864907D01*
X6303527Y5862370D01*
X6560480D01*
X6916425Y5506425D01*
X6927241Y5499198D01*
X6940000Y5496660D01*
X7660000D01*
X7664567Y5497568D01*
X8429824D01*
X8431826Y5494572D01*
X8448497Y5483433D01*
X8468162Y5479521D01*
X8487827Y5483433D01*
X8504498Y5494572D01*
X8515638Y5511244D01*
X8519549Y5530909D01*
X8515638Y5550574D01*
X8504498Y5567245D01*
X8487827Y5578384D01*
X8468162Y5582296D01*
X8448497Y5578384D01*
X8431826Y5567245D01*
X8429824Y5564249D01*
X7660908D01*
X7656341Y5563341D01*
X6953810D01*
X6872224Y5644926D01*
X6877085Y5656660D01*
X8431662D01*
X8433664Y5653664D01*
X8450335Y5642524D01*
X8470000Y5638613D01*
X8489665Y5642524D01*
X8506336Y5653664D01*
X8517476Y5670335D01*
X8521387Y5690000D01*
X8517476Y5709665D01*
X8506336Y5726336D01*
X8489665Y5737476D01*
X8470000Y5741387D01*
X8450335Y5737476D01*
X8433664Y5726336D01*
X8431662Y5723341D01*
X6863810D01*
X6566675Y6020475D01*
X6555859Y6027703D01*
X6543100Y6030241D01*
X6374842D01*
X6367994Y6042941D01*
X6371387Y6060000D01*
X6367476Y6079665D01*
X6356336Y6096336D01*
X6339665Y6107476D01*
X6320000Y6111387D01*
X6300335Y6107476D01*
X6283664Y6096336D01*
X6274001Y6081874D01*
X6260177Y6077736D01*
X6188619Y6149295D01*
X6177802Y6156523D01*
X6165043Y6159061D01*
X6074842D01*
X6067994Y6171761D01*
X6071387Y6188820D01*
X6067994Y6205879D01*
X6074842Y6218579D01*
X6734520D01*
X6742125Y6220092D01*
X6749766Y6208667D01*
X6747024Y6204565D01*
X6743113Y6184900D01*
X6747024Y6165235D01*
X6758164Y6148564D01*
X6774835Y6137424D01*
X6794500Y6133513D01*
X6814165Y6137424D01*
X6830836Y6148564D01*
X6841976Y6165235D01*
X6845887Y6184900D01*
X6841976Y6204565D01*
X6830836Y6221236D01*
X6814165Y6232376D01*
X6794500Y6236287D01*
X6781391Y6233680D01*
X6775135Y6245384D01*
X6956410Y6426659D01*
X8201662D01*
X8203664Y6423664D01*
X8220335Y6412524D01*
X8240000Y6408613D01*
X8259665Y6412524D01*
X8276336Y6423664D01*
X8287476Y6440335D01*
X8291387Y6460000D01*
X8287476Y6479665D01*
X8276336Y6496336D01*
X8259665Y6507476D01*
X8240000Y6511387D01*
X8220335Y6507476D01*
X8203664Y6496336D01*
X8201662Y6493341D01*
X6942600D01*
X6929841Y6490803D01*
X6919025Y6483575D01*
X6727959Y6292509D01*
X6727170Y6292706D01*
X6723795Y6306644D01*
X6969192Y6552041D01*
X8207044D01*
X8209045Y6549045D01*
X8225717Y6537906D01*
X8245382Y6533994D01*
X8265046Y6537906D01*
X8281718Y6549045D01*
X8292857Y6565717D01*
X8296769Y6585382D01*
X8292857Y6605046D01*
X8281718Y6621718D01*
X8265046Y6632857D01*
X8245382Y6636769D01*
D02*
G37*
G36*
X6450000Y6631387D02*
X6430335Y6627476D01*
X6413664Y6616336D01*
X6402524Y6599665D01*
X6398613Y6580000D01*
X6402524Y6560335D01*
X6413664Y6543664D01*
X6430335Y6532524D01*
X6450000Y6528613D01*
X6469665Y6532524D01*
X6486336Y6543664D01*
X6497476Y6560335D01*
X6501387Y6580000D01*
X6497476Y6599665D01*
X6486336Y6616336D01*
X6469665Y6627476D01*
X6450000Y6631387D01*
D02*
G37*
G36*
X6370000Y6521387D02*
X6350335Y6517476D01*
X6333664Y6506336D01*
X6329323Y6499840D01*
X6290768D01*
X6288915Y6501079D01*
X6281375Y6502579D01*
X6096625D01*
X6089084Y6501079D01*
X6082692Y6496807D01*
X6078421Y6490415D01*
X6076921Y6482875D01*
Y6443125D01*
X6078421Y6435585D01*
X6082692Y6429193D01*
X6089084Y6424921D01*
X6096625Y6423421D01*
X6281375D01*
X6288915Y6424921D01*
X6295307Y6429193D01*
X6297958Y6433159D01*
X6334419D01*
X6350335Y6422524D01*
X6370000Y6418613D01*
X6389665Y6422524D01*
X6406336Y6433664D01*
X6417476Y6450335D01*
X6421387Y6470000D01*
X6417476Y6489665D01*
X6406336Y6506336D01*
X6389665Y6517476D01*
X6370000Y6521387D01*
D02*
G37*
G36*
X1270000Y6558901D02*
X1248803Y6556110D01*
X1229050Y6547928D01*
X1212088Y6534913D01*
X1199072Y6517950D01*
X1190890Y6498198D01*
X1188099Y6477000D01*
X1190890Y6455802D01*
X1199072Y6436050D01*
X1212088Y6419087D01*
X1229050Y6406072D01*
X1248803Y6397890D01*
X1270000Y6395099D01*
X1291198Y6397890D01*
X1310951Y6406072D01*
X1327913Y6419087D01*
X1340928Y6436050D01*
X1349110Y6455802D01*
X1351901Y6477000D01*
X1349110Y6498198D01*
X1340928Y6517950D01*
X1327913Y6534913D01*
X1310951Y6547928D01*
X1291198Y6556110D01*
X1270000Y6558901D01*
D02*
G37*
G36*
X1016000D02*
X994803Y6556110D01*
X975050Y6547928D01*
X958088Y6534913D01*
X945072Y6517950D01*
X936890Y6498198D01*
X934099Y6477000D01*
X936890Y6455802D01*
X945072Y6436050D01*
X958088Y6419087D01*
X975050Y6406072D01*
X994803Y6397890D01*
X1016000Y6395099D01*
X1037198Y6397890D01*
X1056951Y6406072D01*
X1073913Y6419087D01*
X1086928Y6436050D01*
X1095110Y6455802D01*
X1097901Y6477000D01*
X1095110Y6498198D01*
X1086928Y6517950D01*
X1073913Y6534913D01*
X1056951Y6547928D01*
X1037198Y6556110D01*
X1016000Y6558901D01*
D02*
G37*
G36*
X762000D02*
X740803Y6556110D01*
X721050Y6547928D01*
X704088Y6534913D01*
X691072Y6517950D01*
X682890Y6498198D01*
X680099Y6477000D01*
X682890Y6455802D01*
X691072Y6436050D01*
X704088Y6419087D01*
X721050Y6406072D01*
X740803Y6397890D01*
X762000Y6395099D01*
X783198Y6397890D01*
X802951Y6406072D01*
X819913Y6419087D01*
X832928Y6436050D01*
X841110Y6455802D01*
X843901Y6477000D01*
X841110Y6498198D01*
X832928Y6517950D01*
X819913Y6534913D01*
X802951Y6547928D01*
X783198Y6556110D01*
X762000Y6558901D01*
D02*
G37*
G36*
X508000D02*
X486803Y6556110D01*
X467050Y6547928D01*
X450088Y6534913D01*
X437072Y6517950D01*
X428890Y6498198D01*
X426099Y6477000D01*
X428890Y6455802D01*
X437072Y6436050D01*
X450088Y6419087D01*
X467050Y6406072D01*
X486803Y6397890D01*
X508000Y6395099D01*
X529198Y6397890D01*
X548951Y6406072D01*
X565913Y6419087D01*
X578928Y6436050D01*
X587110Y6455802D01*
X589901Y6477000D01*
X587110Y6498198D01*
X578928Y6517950D01*
X565913Y6534913D01*
X548951Y6547928D01*
X529198Y6556110D01*
X508000Y6558901D01*
D02*
G37*
G36*
X5447300Y6385400D02*
X5389600D01*
Y6332700D01*
X5447300D01*
Y6385400D01*
D02*
G37*
G36*
X1550000Y6271387D02*
X1530335Y6267476D01*
X1513664Y6256336D01*
X1502524Y6239665D01*
X1498613Y6220000D01*
X1502524Y6200335D01*
X1513664Y6183664D01*
X1530335Y6172524D01*
X1550000Y6168613D01*
X1569665Y6172524D01*
X1586336Y6183664D01*
X1597476Y6200335D01*
X1601387Y6220000D01*
X1597476Y6239665D01*
X1586336Y6256336D01*
X1569665Y6267476D01*
X1550000Y6271387D01*
D02*
G37*
G36*
X1270000Y6304901D02*
X1248803Y6302110D01*
X1229050Y6293928D01*
X1212088Y6280913D01*
X1199072Y6263950D01*
X1190890Y6244198D01*
X1188099Y6223000D01*
X1190890Y6201802D01*
X1199072Y6182050D01*
X1212088Y6165087D01*
X1229050Y6152072D01*
X1248803Y6143890D01*
X1270000Y6141099D01*
X1291198Y6143890D01*
X1310951Y6152072D01*
X1327913Y6165087D01*
X1340928Y6182050D01*
X1349110Y6201802D01*
X1351901Y6223000D01*
X1349110Y6244198D01*
X1340928Y6263950D01*
X1327913Y6280913D01*
X1310951Y6293928D01*
X1291198Y6302110D01*
X1270000Y6304901D01*
D02*
G37*
G36*
X1016000D02*
X994803Y6302110D01*
X975050Y6293928D01*
X958088Y6280913D01*
X945072Y6263950D01*
X936890Y6244198D01*
X934099Y6223000D01*
X936890Y6201802D01*
X945072Y6182050D01*
X958088Y6165087D01*
X975050Y6152072D01*
X994803Y6143890D01*
X1016000Y6141099D01*
X1037198Y6143890D01*
X1056951Y6152072D01*
X1073913Y6165087D01*
X1086928Y6182050D01*
X1095110Y6201802D01*
X1097901Y6223000D01*
X1095110Y6244198D01*
X1086928Y6263950D01*
X1073913Y6280913D01*
X1056951Y6293928D01*
X1037198Y6302110D01*
X1016000Y6304901D01*
D02*
G37*
G36*
X762000D02*
X740803Y6302110D01*
X721050Y6293928D01*
X704088Y6280913D01*
X691072Y6263950D01*
X682890Y6244198D01*
X680099Y6223000D01*
X682890Y6201802D01*
X691072Y6182050D01*
X704088Y6165087D01*
X721050Y6152072D01*
X740803Y6143890D01*
X762000Y6141099D01*
X783198Y6143890D01*
X802951Y6152072D01*
X819913Y6165087D01*
X832928Y6182050D01*
X841110Y6201802D01*
X843901Y6223000D01*
X841110Y6244198D01*
X832928Y6263950D01*
X819913Y6280913D01*
X802951Y6293928D01*
X783198Y6302110D01*
X762000Y6304901D01*
D02*
G37*
G36*
X508000D02*
X486803Y6302110D01*
X467050Y6293928D01*
X450088Y6280913D01*
X437072Y6263950D01*
X428890Y6244198D01*
X426099Y6223000D01*
X428890Y6201802D01*
X437072Y6182050D01*
X450088Y6165087D01*
X467050Y6152072D01*
X486803Y6143890D01*
X508000Y6141099D01*
X529198Y6143890D01*
X548951Y6152072D01*
X565913Y6165087D01*
X578928Y6182050D01*
X587110Y6201802D01*
X589901Y6223000D01*
X587110Y6244198D01*
X578928Y6263950D01*
X565913Y6280913D01*
X548951Y6293928D01*
X529198Y6302110D01*
X508000Y6304901D01*
D02*
G37*
G36*
X4127500Y6210887D02*
X4107835Y6206976D01*
X4091164Y6195836D01*
X4080024Y6179165D01*
X4076113Y6159500D01*
X4080024Y6139835D01*
X4091164Y6123164D01*
X4107835Y6112024D01*
X4127500Y6108113D01*
X4147165Y6112024D01*
X4163836Y6123164D01*
X4174976Y6139835D01*
X4178887Y6159500D01*
X4174976Y6179165D01*
X4163836Y6195836D01*
X4147165Y6206976D01*
X4127500Y6210887D01*
D02*
G37*
G36*
X8480000Y6031387D02*
X8460335Y6027476D01*
X8443664Y6016336D01*
X8432524Y5999665D01*
X8428613Y5980000D01*
X8432524Y5960335D01*
X8443664Y5943664D01*
X8460335Y5932524D01*
X8480000Y5928613D01*
X8499665Y5932524D01*
X8516336Y5943664D01*
X8527476Y5960335D01*
X8531387Y5980000D01*
X8527476Y5999665D01*
X8516336Y6016336D01*
X8499665Y6027476D01*
X8480000Y6031387D01*
D02*
G37*
G36*
X1270000Y6050901D02*
X1248803Y6048110D01*
X1229050Y6039928D01*
X1212088Y6026913D01*
X1199072Y6009950D01*
X1190890Y5990198D01*
X1188099Y5969000D01*
X1190890Y5947802D01*
X1199072Y5928050D01*
X1212088Y5911087D01*
X1229050Y5898072D01*
X1248803Y5889890D01*
X1270000Y5887099D01*
X1291198Y5889890D01*
X1310951Y5898072D01*
X1327913Y5911087D01*
X1340928Y5928050D01*
X1349110Y5947802D01*
X1351901Y5969000D01*
X1349110Y5990198D01*
X1340928Y6009950D01*
X1327913Y6026913D01*
X1310951Y6039928D01*
X1291198Y6048110D01*
X1270000Y6050901D01*
D02*
G37*
G36*
X1016000D02*
X994803Y6048110D01*
X975050Y6039928D01*
X958088Y6026913D01*
X945072Y6009950D01*
X936890Y5990198D01*
X934099Y5969000D01*
X936890Y5947802D01*
X945072Y5928050D01*
X958088Y5911087D01*
X975050Y5898072D01*
X994803Y5889890D01*
X1016000Y5887099D01*
X1037198Y5889890D01*
X1056951Y5898072D01*
X1073913Y5911087D01*
X1086928Y5928050D01*
X1095110Y5947802D01*
X1097901Y5969000D01*
X1095110Y5990198D01*
X1086928Y6009950D01*
X1073913Y6026913D01*
X1056951Y6039928D01*
X1037198Y6048110D01*
X1016000Y6050901D01*
D02*
G37*
G36*
X762000D02*
X740803Y6048110D01*
X721050Y6039928D01*
X704088Y6026913D01*
X691072Y6009950D01*
X682890Y5990198D01*
X680099Y5969000D01*
X682890Y5947802D01*
X691072Y5928050D01*
X704088Y5911087D01*
X721050Y5898072D01*
X740803Y5889890D01*
X762000Y5887099D01*
X783198Y5889890D01*
X802951Y5898072D01*
X819913Y5911087D01*
X832928Y5928050D01*
X841110Y5947802D01*
X843901Y5969000D01*
X841110Y5990198D01*
X832928Y6009950D01*
X819913Y6026913D01*
X802951Y6039928D01*
X783198Y6048110D01*
X762000Y6050901D01*
D02*
G37*
G36*
X508000D02*
X486803Y6048110D01*
X467050Y6039928D01*
X450088Y6026913D01*
X437072Y6009950D01*
X428890Y5990198D01*
X426099Y5969000D01*
X428890Y5947802D01*
X437072Y5928050D01*
X450088Y5911087D01*
X467050Y5898072D01*
X486803Y5889890D01*
X508000Y5887099D01*
X529198Y5889890D01*
X548951Y5898072D01*
X565913Y5911087D01*
X578928Y5928050D01*
X587110Y5947802D01*
X589901Y5969000D01*
X587110Y5990198D01*
X578928Y6009950D01*
X565913Y6026913D01*
X548951Y6039928D01*
X529198Y6048110D01*
X508000Y6050901D01*
D02*
G37*
G36*
X5676900Y5931487D02*
X5657235Y5927576D01*
X5640564Y5916436D01*
X5629424Y5899765D01*
X5625513Y5880100D01*
X5629424Y5860435D01*
X5640564Y5843764D01*
X5657235Y5832624D01*
X5676900Y5828713D01*
X5696565Y5832624D01*
X5713236Y5843764D01*
X5724376Y5860435D01*
X5728287Y5880100D01*
X5724376Y5899765D01*
X5713236Y5916436D01*
X5696565Y5927576D01*
X5676900Y5931487D01*
D02*
G37*
G36*
X1270000Y5796901D02*
X1248803Y5794110D01*
X1229050Y5785928D01*
X1212088Y5772913D01*
X1199072Y5755950D01*
X1190890Y5736198D01*
X1188099Y5715000D01*
X1190890Y5693802D01*
X1199072Y5674050D01*
X1212088Y5657087D01*
X1229050Y5644072D01*
X1248803Y5635890D01*
X1270000Y5633099D01*
X1291198Y5635890D01*
X1310951Y5644072D01*
X1327913Y5657087D01*
X1340928Y5674050D01*
X1349110Y5693802D01*
X1351901Y5715000D01*
X1349110Y5736198D01*
X1340928Y5755950D01*
X1327913Y5772913D01*
X1310951Y5785928D01*
X1291198Y5794110D01*
X1270000Y5796901D01*
D02*
G37*
G36*
X1016000D02*
X994803Y5794110D01*
X975050Y5785928D01*
X958088Y5772913D01*
X945072Y5755950D01*
X936890Y5736198D01*
X934099Y5715000D01*
X936890Y5693802D01*
X945072Y5674050D01*
X958088Y5657087D01*
X975050Y5644072D01*
X994803Y5635890D01*
X1016000Y5633099D01*
X1037198Y5635890D01*
X1056951Y5644072D01*
X1073913Y5657087D01*
X1086928Y5674050D01*
X1095110Y5693802D01*
X1097901Y5715000D01*
X1095110Y5736198D01*
X1086928Y5755950D01*
X1073913Y5772913D01*
X1056951Y5785928D01*
X1037198Y5794110D01*
X1016000Y5796901D01*
D02*
G37*
G36*
X762000D02*
X740803Y5794110D01*
X721050Y5785928D01*
X704088Y5772913D01*
X691072Y5755950D01*
X682890Y5736198D01*
X680099Y5715000D01*
X682890Y5693802D01*
X691072Y5674050D01*
X704088Y5657087D01*
X721050Y5644072D01*
X740803Y5635890D01*
X762000Y5633099D01*
X783198Y5635890D01*
X802951Y5644072D01*
X819913Y5657087D01*
X832928Y5674050D01*
X841110Y5693802D01*
X843901Y5715000D01*
X841110Y5736198D01*
X832928Y5755950D01*
X819913Y5772913D01*
X802951Y5785928D01*
X783198Y5794110D01*
X762000Y5796901D01*
D02*
G37*
G36*
X508000D02*
X486803Y5794110D01*
X467050Y5785928D01*
X450088Y5772913D01*
X437072Y5755950D01*
X428890Y5736198D01*
X426099Y5715000D01*
X428890Y5693802D01*
X437072Y5674050D01*
X450088Y5657087D01*
X467050Y5644072D01*
X486803Y5635890D01*
X508000Y5633099D01*
X529198Y5635890D01*
X548951Y5644072D01*
X565913Y5657087D01*
X578928Y5674050D01*
X587110Y5693802D01*
X589901Y5715000D01*
X587110Y5736198D01*
X578928Y5755950D01*
X565913Y5772913D01*
X548951Y5785928D01*
X529198Y5794110D01*
X508000Y5796901D01*
D02*
G37*
G36*
X9305000Y5662298D02*
X9125000D01*
X9115089Y5660326D01*
X9106688Y5654712D01*
X9101074Y5646311D01*
X9099102Y5636400D01*
Y5536400D01*
X9101074Y5526489D01*
X9106688Y5518088D01*
X9115089Y5512474D01*
X9125000Y5510502D01*
X9305000D01*
X9314911Y5512474D01*
X9323313Y5518088D01*
X9328926Y5526489D01*
X9330898Y5536400D01*
Y5636400D01*
X9328926Y5646311D01*
X9323313Y5654712D01*
X9314911Y5660326D01*
X9305000Y5662298D01*
D02*
G37*
G36*
X1270000Y5542901D02*
X1248803Y5540110D01*
X1229050Y5531928D01*
X1212088Y5518913D01*
X1199072Y5501950D01*
X1190890Y5482198D01*
X1188099Y5461000D01*
X1190890Y5439802D01*
X1199072Y5420050D01*
X1212088Y5403087D01*
X1229050Y5390072D01*
X1248803Y5381890D01*
X1270000Y5379099D01*
X1291198Y5381890D01*
X1310951Y5390072D01*
X1327913Y5403087D01*
X1340928Y5420050D01*
X1349110Y5439802D01*
X1351901Y5461000D01*
X1349110Y5482198D01*
X1340928Y5501950D01*
X1327913Y5518913D01*
X1310951Y5531928D01*
X1291198Y5540110D01*
X1270000Y5542901D01*
D02*
G37*
G36*
X1016000D02*
X994803Y5540110D01*
X975050Y5531928D01*
X958088Y5518913D01*
X945072Y5501950D01*
X936890Y5482198D01*
X934099Y5461000D01*
X936890Y5439802D01*
X945072Y5420050D01*
X958088Y5403087D01*
X975050Y5390072D01*
X994803Y5381890D01*
X1016000Y5379099D01*
X1037198Y5381890D01*
X1056951Y5390072D01*
X1073913Y5403087D01*
X1086928Y5420050D01*
X1095110Y5439802D01*
X1097901Y5461000D01*
X1095110Y5482198D01*
X1086928Y5501950D01*
X1073913Y5518913D01*
X1056951Y5531928D01*
X1037198Y5540110D01*
X1016000Y5542901D01*
D02*
G37*
G36*
X762000D02*
X740803Y5540110D01*
X721050Y5531928D01*
X704088Y5518913D01*
X691072Y5501950D01*
X682890Y5482198D01*
X680099Y5461000D01*
X682890Y5439802D01*
X691072Y5420050D01*
X704088Y5403087D01*
X721050Y5390072D01*
X740803Y5381890D01*
X762000Y5379099D01*
X783198Y5381890D01*
X802951Y5390072D01*
X819913Y5403087D01*
X832928Y5420050D01*
X841110Y5439802D01*
X843901Y5461000D01*
X841110Y5482198D01*
X832928Y5501950D01*
X819913Y5518913D01*
X802951Y5531928D01*
X783198Y5540110D01*
X762000Y5542901D01*
D02*
G37*
G36*
X508000D02*
X486803Y5540110D01*
X467050Y5531928D01*
X450088Y5518913D01*
X437072Y5501950D01*
X428890Y5482198D01*
X426099Y5461000D01*
X428890Y5439802D01*
X437072Y5420050D01*
X450088Y5403087D01*
X467050Y5390072D01*
X486803Y5381890D01*
X508000Y5379099D01*
X529198Y5381890D01*
X548951Y5390072D01*
X565913Y5403087D01*
X578928Y5420050D01*
X587110Y5439802D01*
X589901Y5461000D01*
X587110Y5482198D01*
X578928Y5501950D01*
X565913Y5518913D01*
X548951Y5531928D01*
X529198Y5540110D01*
X508000Y5542901D01*
D02*
G37*
G36*
X5410000Y5431387D02*
X5390335Y5427476D01*
X5373664Y5416336D01*
X5362524Y5399665D01*
X5358613Y5380000D01*
X5362524Y5360335D01*
X5373664Y5343664D01*
X5390335Y5332524D01*
X5410000Y5328613D01*
X5429665Y5332524D01*
X5446336Y5343664D01*
X5448338Y5346659D01*
X6212461D01*
X6215682Y5341839D01*
X6232353Y5330700D01*
X6252018Y5326788D01*
X6271683Y5330700D01*
X6288354Y5341839D01*
X6299494Y5358510D01*
X6303405Y5378175D01*
X6299494Y5397840D01*
X6288354Y5414512D01*
X6271683Y5425651D01*
X6252018Y5429563D01*
X6232353Y5425651D01*
X6215682Y5414512D01*
X6214899Y5413340D01*
X5448338D01*
X5446336Y5416336D01*
X5429665Y5427476D01*
X5410000Y5431387D01*
D02*
G37*
G36*
X1676400Y5372687D02*
X1656735Y5368776D01*
X1640064Y5357636D01*
X1628924Y5340965D01*
X1625013Y5321300D01*
X1628924Y5301635D01*
X1640064Y5284964D01*
X1656735Y5273824D01*
X1676400Y5269913D01*
X1696065Y5273824D01*
X1712736Y5284964D01*
X1723876Y5301635D01*
X1727787Y5321300D01*
X1723876Y5340965D01*
X1712736Y5357636D01*
X1696065Y5368776D01*
X1676400Y5372687D01*
D02*
G37*
G36*
X2527300Y5334587D02*
X2507635Y5330676D01*
X2490964Y5319536D01*
X2479824Y5302865D01*
X2475913Y5283200D01*
X2479824Y5263535D01*
X2490964Y5246864D01*
X2507635Y5235724D01*
X2527300Y5231813D01*
X2546965Y5235724D01*
X2563636Y5246864D01*
X2574776Y5263535D01*
X2578687Y5283200D01*
X2574776Y5302865D01*
X2563636Y5319536D01*
X2546965Y5330676D01*
X2527300Y5334587D01*
D02*
G37*
G36*
X774701Y5300038D02*
Y5219700D01*
X855039D01*
X853483Y5231513D01*
X844022Y5254355D01*
X828970Y5273970D01*
X809355Y5289021D01*
X786513Y5298483D01*
X774701Y5300038D01*
D02*
G37*
G36*
X520701D02*
Y5219700D01*
X601039D01*
X599483Y5231513D01*
X590022Y5254355D01*
X574970Y5273970D01*
X555355Y5289021D01*
X532513Y5298483D01*
X520701Y5300038D01*
D02*
G37*
G36*
X749301Y5300038D02*
X737487Y5298483D01*
X714645Y5289021D01*
X695030Y5273970D01*
X679979Y5254355D01*
X670517Y5231513D01*
X668962Y5219700D01*
X749301D01*
Y5300038D01*
D02*
G37*
G36*
X495301D02*
X483487Y5298483D01*
X460645Y5289021D01*
X441030Y5273970D01*
X425979Y5254355D01*
X416517Y5231513D01*
X414962Y5219700D01*
X495301D01*
Y5300038D01*
D02*
G37*
G36*
X3730462Y5313065D02*
X3710798Y5309153D01*
X3694126Y5298014D01*
X3682987Y5281343D01*
X3679075Y5261678D01*
X3682987Y5242013D01*
X3694126Y5225342D01*
X3710798Y5214202D01*
X3730462Y5210291D01*
X3750127Y5214202D01*
X3766799Y5225342D01*
X3777938Y5242013D01*
X3781850Y5261678D01*
X3777938Y5281343D01*
X3766799Y5298014D01*
X3750127Y5309153D01*
X3730462Y5313065D01*
D02*
G37*
G36*
X5980000Y5301387D02*
X5960335Y5297476D01*
X5943664Y5286336D01*
X5932524Y5269665D01*
X5928613Y5250000D01*
X5932524Y5230335D01*
X5943664Y5213664D01*
X5960335Y5202524D01*
X5980000Y5198613D01*
X5999665Y5202524D01*
X6016336Y5213664D01*
X6027476Y5230335D01*
X6031387Y5250000D01*
X6027476Y5269665D01*
X6016336Y5286336D01*
X5999665Y5297476D01*
X5980000Y5301387D01*
D02*
G37*
G36*
X3263900Y5283787D02*
X3244235Y5279876D01*
X3227564Y5268736D01*
X3216424Y5252065D01*
X3212513Y5232400D01*
X3216424Y5212735D01*
X3227564Y5196064D01*
X3244235Y5184924D01*
X3263900Y5181013D01*
X3283565Y5184924D01*
X3300236Y5196064D01*
X3311376Y5212735D01*
X3315287Y5232400D01*
X3311376Y5252065D01*
X3300236Y5268736D01*
X3283565Y5279876D01*
X3263900Y5283787D01*
D02*
G37*
G36*
X1270000Y5288901D02*
X1248803Y5286110D01*
X1229050Y5277928D01*
X1212088Y5264913D01*
X1199072Y5247950D01*
X1190890Y5228198D01*
X1188099Y5207000D01*
X1190890Y5185802D01*
X1199072Y5166050D01*
X1212088Y5149087D01*
X1229050Y5136072D01*
X1248803Y5127890D01*
X1270000Y5125099D01*
X1291198Y5127890D01*
X1310951Y5136072D01*
X1327913Y5149087D01*
X1340928Y5166050D01*
X1349110Y5185802D01*
X1351901Y5207000D01*
X1349110Y5228198D01*
X1340928Y5247950D01*
X1327913Y5264913D01*
X1310951Y5277928D01*
X1291198Y5286110D01*
X1270000Y5288901D01*
D02*
G37*
G36*
X1016000D02*
X994803Y5286110D01*
X975050Y5277928D01*
X958088Y5264913D01*
X945072Y5247950D01*
X936890Y5228198D01*
X934099Y5207000D01*
X936890Y5185802D01*
X945072Y5166050D01*
X958088Y5149087D01*
X975050Y5136072D01*
X994803Y5127890D01*
X1016000Y5125099D01*
X1037198Y5127890D01*
X1056951Y5136072D01*
X1073913Y5149087D01*
X1086928Y5166050D01*
X1095110Y5185802D01*
X1097901Y5207000D01*
X1095110Y5228198D01*
X1086928Y5247950D01*
X1073913Y5264913D01*
X1056951Y5277928D01*
X1037198Y5286110D01*
X1016000Y5288901D01*
D02*
G37*
G36*
X855038Y5194300D02*
X774701D01*
Y5113962D01*
X786513Y5115517D01*
X809355Y5124979D01*
X828970Y5140030D01*
X844022Y5159645D01*
X853483Y5182487D01*
X855038Y5194300D01*
D02*
G37*
G36*
X601038D02*
X520701D01*
Y5113962D01*
X532513Y5115517D01*
X555355Y5124979D01*
X574970Y5140030D01*
X590022Y5159645D01*
X599483Y5182487D01*
X601038Y5194300D01*
D02*
G37*
G36*
X749301D02*
X668962D01*
X670517Y5182487D01*
X679979Y5159645D01*
X695030Y5140030D01*
X714645Y5124979D01*
X737487Y5115517D01*
X749301Y5113962D01*
Y5194300D01*
D02*
G37*
G36*
X495301D02*
X414962D01*
X416517Y5182487D01*
X425979Y5159645D01*
X441030Y5140030D01*
X460645Y5124979D01*
X483487Y5115517D01*
X495301Y5113962D01*
Y5194300D01*
D02*
G37*
G36*
X6439430Y5194872D02*
X6419765Y5190961D01*
X6403094Y5179821D01*
X6401092Y5176826D01*
X4393485D01*
X4380726Y5174288D01*
X4369910Y5167061D01*
X4193534Y4990684D01*
X4190000Y4991387D01*
X4170335Y4987476D01*
X4153664Y4976336D01*
X4142524Y4959665D01*
X4138613Y4940000D01*
X4142524Y4920335D01*
X4153664Y4903664D01*
X4170335Y4892524D01*
X4190000Y4888613D01*
X4209665Y4892524D01*
X4226336Y4903664D01*
X4237476Y4920335D01*
X4241387Y4940000D01*
X4240684Y4943534D01*
X4407295Y5110144D01*
X6401092D01*
X6403094Y5107149D01*
X6419765Y5096009D01*
X6439430Y5092098D01*
X6459095Y5096009D01*
X6475767Y5107149D01*
X6486906Y5123820D01*
X6490818Y5143485D01*
X6486906Y5163150D01*
X6475767Y5179821D01*
X6459095Y5190961D01*
X6439430Y5194872D01*
D02*
G37*
G36*
X7700000Y5131387D02*
X7680335Y5127476D01*
X7663664Y5116336D01*
X7661662Y5113341D01*
X6616700D01*
X6603941Y5110803D01*
X6593125Y5103575D01*
X6489790Y5000241D01*
X5809191D01*
X5755857Y5053575D01*
X5745040Y5060803D01*
X5732281Y5063341D01*
X4940000D01*
X4927241Y5060803D01*
X4916425Y5053575D01*
X4709260Y4846410D01*
X3177362D01*
X3175340Y4849436D01*
X3158669Y4860575D01*
X3139004Y4864487D01*
X3119339Y4860575D01*
X3102667Y4849436D01*
X3091528Y4832765D01*
X3087616Y4813100D01*
X3088916Y4806569D01*
X3084495Y4802224D01*
X3077697Y4797867D01*
X3060000Y4801387D01*
X3040335Y4797476D01*
X3023664Y4786336D01*
X3012524Y4769665D01*
X3008613Y4750000D01*
X3012524Y4730335D01*
X3023664Y4713664D01*
X3040335Y4702524D01*
X3060000Y4698613D01*
X3079665Y4702524D01*
X3096336Y4713664D01*
X3098338Y4716659D01*
X4737300D01*
X4750059Y4719197D01*
X4760875Y4726425D01*
X4981110Y4946659D01*
X5148605D01*
X5155394Y4933959D01*
X5152524Y4929665D01*
X5148613Y4910000D01*
X5152524Y4890335D01*
X5163664Y4873664D01*
X5180335Y4862524D01*
X5200000Y4858613D01*
X5219665Y4862524D01*
X5236336Y4873664D01*
X5238338Y4876660D01*
X5615141D01*
X5621930Y4863960D01*
X5615413Y4854207D01*
X5611502Y4834542D01*
X5615413Y4814877D01*
X5626553Y4798206D01*
X5643224Y4787066D01*
X5648380Y4786040D01*
X5647129Y4773340D01*
X5235020D01*
X5226336Y4786336D01*
X5209665Y4797476D01*
X5190000Y4801387D01*
X5170335Y4797476D01*
X5153664Y4786336D01*
X5142524Y4769665D01*
X5138613Y4750000D01*
X5142524Y4730335D01*
X5153664Y4713664D01*
X5170335Y4702524D01*
X5190000Y4698613D01*
X5209665Y4702524D01*
X5216158Y4706863D01*
X5217179Y4706659D01*
X6741662D01*
X6743664Y4703664D01*
X6760335Y4692524D01*
X6780000Y4688613D01*
X6799665Y4692524D01*
X6816336Y4703664D01*
X6818338Y4706659D01*
X7033086D01*
X7041390Y4693959D01*
X7038613Y4680000D01*
X7042524Y4660335D01*
X7043857Y4658341D01*
X7037870Y4647141D01*
X6554238D01*
X6552236Y4650136D01*
X6535565Y4661276D01*
X6515900Y4665187D01*
X6496235Y4661276D01*
X6479564Y4650136D01*
X6477562Y4647141D01*
X5232481D01*
X5226336Y4656336D01*
X5209665Y4667476D01*
X5190000Y4671387D01*
X5170335Y4667476D01*
X5153664Y4656336D01*
X5142524Y4639665D01*
X5138613Y4620000D01*
X5142524Y4600335D01*
X5153664Y4583664D01*
X5170335Y4572524D01*
X5190000Y4568613D01*
X5209665Y4572524D01*
X5221541Y4580459D01*
X6057506D01*
X6063221Y4567759D01*
X6054987Y4555436D01*
X6051075Y4535771D01*
X6054987Y4516106D01*
X6066126Y4499435D01*
X6082797Y4488296D01*
X6102462Y4484384D01*
X6122127Y4488296D01*
X6138798Y4499435D01*
X6140295Y4501674D01*
X6153599Y4498726D01*
X6163664Y4483664D01*
X6180335Y4472524D01*
X6200000Y4468613D01*
X6219665Y4472524D01*
X6236336Y4483664D01*
X6247476Y4500335D01*
X6248153Y4503741D01*
X7048338D01*
X7051632Y4498272D01*
X7053089Y4491041D01*
X7040390Y4478341D01*
X6506672D01*
X6493913Y4475803D01*
X6483096Y4468575D01*
X6357862Y4343341D01*
X5838338D01*
X5836336Y4346336D01*
X5819665Y4357476D01*
X5800000Y4361387D01*
X5780335Y4357476D01*
X5763664Y4346336D01*
X5752524Y4329665D01*
X5748613Y4310000D01*
X5752524Y4290335D01*
X5763664Y4273664D01*
X5780335Y4262524D01*
X5800000Y4258613D01*
X5819665Y4262524D01*
X5836336Y4273664D01*
X5838338Y4276659D01*
X6371672D01*
X6384430Y4279197D01*
X6395247Y4286425D01*
X6520481Y4411659D01*
X7054200D01*
X7066958Y4414197D01*
X7077775Y4421425D01*
X7092284Y4435934D01*
X7096225D01*
X7110335Y4426505D01*
X7130000Y4422594D01*
X7149665Y4426505D01*
X7166336Y4437645D01*
X7177476Y4454316D01*
X7181387Y4473981D01*
X7177994Y4491040D01*
X7184842Y4503741D01*
X7272809D01*
X7368434Y4408116D01*
X7373664Y4396336D01*
X7362524Y4379665D01*
X7358613Y4360000D01*
X7362524Y4340335D01*
X7373664Y4323664D01*
X7390335Y4312524D01*
X7410000Y4308613D01*
X7429665Y4312524D01*
X7446336Y4323664D01*
X7457476Y4340335D01*
X7461387Y4360000D01*
X7457476Y4379665D01*
X7446336Y4396336D01*
X7443340Y4398338D01*
Y4413700D01*
X7440802Y4426459D01*
X7433575Y4437275D01*
X7310194Y4560656D01*
X7299378Y4567884D01*
X7301253Y4580459D01*
X7672500D01*
X7672524Y4580335D01*
X7683664Y4563664D01*
X7700335Y4552524D01*
X7720000Y4548613D01*
X7739665Y4552524D01*
X7756336Y4563664D01*
X7767476Y4580335D01*
X7771387Y4600000D01*
X7767476Y4619665D01*
X7756336Y4636336D01*
X7739665Y4647476D01*
X7720000Y4651387D01*
X7700335Y4647476D01*
X7699767Y4647096D01*
X7699543Y4647141D01*
X7502130D01*
X7496143Y4658341D01*
X7497476Y4660335D01*
X7501387Y4680000D01*
X7497476Y4699665D01*
X7487925Y4713959D01*
X7492006Y4726659D01*
X7551662D01*
X7553664Y4723664D01*
X7570335Y4712524D01*
X7590000Y4708613D01*
X7609665Y4712524D01*
X7626336Y4723664D01*
X7637476Y4740335D01*
X7641387Y4760000D01*
X7637476Y4779665D01*
X7626336Y4796336D01*
X7609665Y4807476D01*
X7590000Y4811387D01*
X7570335Y4807476D01*
X7553664Y4796336D01*
X7551662Y4793340D01*
X7164842D01*
X7157994Y4806041D01*
X7161387Y4823100D01*
X7157476Y4842765D01*
X7156010Y4844959D01*
X7161996Y4856159D01*
X7299743D01*
X7312502Y4858697D01*
X7315707Y4860839D01*
X7326900Y4858613D01*
X7346565Y4862524D01*
X7363236Y4873664D01*
X7374376Y4890335D01*
X7378287Y4910000D01*
X7374376Y4929665D01*
X7363236Y4946336D01*
X7346565Y4957476D01*
X7326900Y4961387D01*
X7307235Y4957476D01*
X7290564Y4946336D01*
X7279424Y4929665D01*
X7278067Y4922841D01*
X7001475D01*
X6994814Y4935541D01*
X6998287Y4953000D01*
X6994814Y4970459D01*
X7001475Y4983159D01*
X7546020D01*
X7548613Y4980000D01*
X7552524Y4960335D01*
X7563664Y4943664D01*
X7580335Y4932524D01*
X7600000Y4928613D01*
X7619665Y4932524D01*
X7636336Y4943664D01*
X7647476Y4960335D01*
X7651387Y4980000D01*
X7647476Y4999665D01*
X7636336Y5016336D01*
X7619665Y5027476D01*
X7605425Y5030308D01*
X7602893Y5033959D01*
X7609530Y5046640D01*
X7609574Y5046659D01*
X7661662D01*
X7663664Y5043664D01*
X7680335Y5032524D01*
X7700000Y5028613D01*
X7719665Y5032524D01*
X7736336Y5043664D01*
X7747476Y5060335D01*
X7751387Y5080000D01*
X7747476Y5099665D01*
X7736336Y5116336D01*
X7719665Y5127476D01*
X7700000Y5131387D01*
D02*
G37*
G36*
X4577500Y5073887D02*
X4557835Y5069976D01*
X4541164Y5058836D01*
X4530024Y5042165D01*
X4526113Y5022500D01*
X4530024Y5002835D01*
X4541164Y4986164D01*
X4557835Y4975024D01*
X4577500Y4971113D01*
X4597165Y4975024D01*
X4613836Y4986164D01*
X4624976Y5002835D01*
X4628887Y5022500D01*
X4624976Y5042165D01*
X4613836Y5058836D01*
X4597165Y5069976D01*
X4577500Y5073887D01*
D02*
G37*
G36*
X774701Y5046038D02*
Y4965700D01*
X855039D01*
X853483Y4977513D01*
X844022Y5000355D01*
X828970Y5019970D01*
X809355Y5035021D01*
X786513Y5044483D01*
X774701Y5046038D01*
D02*
G37*
G36*
X520701D02*
Y4965700D01*
X601039D01*
X599483Y4977513D01*
X590022Y5000355D01*
X574970Y5019970D01*
X555355Y5035021D01*
X532513Y5044483D01*
X520701Y5046038D01*
D02*
G37*
G36*
X749301Y5046038D02*
X737487Y5044483D01*
X714645Y5035021D01*
X695030Y5019970D01*
X679979Y5000355D01*
X670517Y4977513D01*
X668962Y4965700D01*
X749301D01*
Y5046038D01*
D02*
G37*
G36*
X495301D02*
X483487Y5044483D01*
X460645Y5035021D01*
X441030Y5019970D01*
X425979Y5000355D01*
X416517Y4977513D01*
X414962Y4965700D01*
X495301D01*
Y5046038D01*
D02*
G37*
G36*
X1270000Y5034901D02*
X1248803Y5032110D01*
X1229050Y5023928D01*
X1212088Y5010913D01*
X1199072Y4993950D01*
X1190890Y4974198D01*
X1188099Y4953000D01*
X1190890Y4931802D01*
X1199072Y4912050D01*
X1212088Y4895087D01*
X1229050Y4882072D01*
X1248803Y4873890D01*
X1270000Y4871099D01*
X1291198Y4873890D01*
X1310951Y4882072D01*
X1327913Y4895087D01*
X1340928Y4912050D01*
X1349110Y4931802D01*
X1351901Y4953000D01*
X1349110Y4974198D01*
X1340928Y4993950D01*
X1327913Y5010913D01*
X1310951Y5023928D01*
X1291198Y5032110D01*
X1270000Y5034901D01*
D02*
G37*
G36*
X1016000D02*
X994803Y5032110D01*
X975050Y5023928D01*
X958088Y5010913D01*
X945072Y4993950D01*
X936890Y4974198D01*
X934099Y4953000D01*
X936890Y4931802D01*
X945072Y4912050D01*
X958088Y4895087D01*
X975050Y4882072D01*
X994803Y4873890D01*
X1016000Y4871099D01*
X1037198Y4873890D01*
X1056951Y4882072D01*
X1073913Y4895087D01*
X1086928Y4912050D01*
X1095110Y4931802D01*
X1097901Y4953000D01*
X1095110Y4974198D01*
X1086928Y4993950D01*
X1073913Y5010913D01*
X1056951Y5023928D01*
X1037198Y5032110D01*
X1016000Y5034901D01*
D02*
G37*
G36*
X855038Y4940300D02*
X774701D01*
Y4859962D01*
X786513Y4861517D01*
X809355Y4870979D01*
X828970Y4886030D01*
X844022Y4905645D01*
X853483Y4928487D01*
X855038Y4940300D01*
D02*
G37*
G36*
X601038D02*
X520701D01*
Y4859962D01*
X532513Y4861517D01*
X555355Y4870979D01*
X574970Y4886030D01*
X590022Y4905645D01*
X599483Y4928487D01*
X601038Y4940300D01*
D02*
G37*
G36*
X749301D02*
X668962D01*
X670517Y4928487D01*
X679979Y4905645D01*
X695030Y4886030D01*
X714645Y4870979D01*
X737487Y4861517D01*
X749301Y4859962D01*
Y4940300D01*
D02*
G37*
G36*
X495301D02*
X414962D01*
X416517Y4928487D01*
X425979Y4905645D01*
X441030Y4886030D01*
X460645Y4870979D01*
X483487Y4861517D01*
X495301Y4859962D01*
Y4940300D01*
D02*
G37*
G36*
X1270000Y4780901D02*
X1248803Y4778110D01*
X1229050Y4769928D01*
X1212088Y4756913D01*
X1199072Y4739950D01*
X1190890Y4720198D01*
X1188099Y4699000D01*
X1190890Y4677802D01*
X1199072Y4658050D01*
X1212088Y4641087D01*
X1229050Y4628072D01*
X1248803Y4619890D01*
X1270000Y4617099D01*
X1291198Y4619890D01*
X1310951Y4628072D01*
X1327913Y4641087D01*
X1340928Y4658050D01*
X1349110Y4677802D01*
X1351901Y4699000D01*
X1349110Y4720198D01*
X1340928Y4739950D01*
X1327913Y4756913D01*
X1310951Y4769928D01*
X1291198Y4778110D01*
X1270000Y4780901D01*
D02*
G37*
G36*
X1016000D02*
X994803Y4778110D01*
X975050Y4769928D01*
X958088Y4756913D01*
X945072Y4739950D01*
X936890Y4720198D01*
X934099Y4699000D01*
X936890Y4677802D01*
X945072Y4658050D01*
X958088Y4641087D01*
X975050Y4628072D01*
X994803Y4619890D01*
X1016000Y4617099D01*
X1037198Y4619890D01*
X1056951Y4628072D01*
X1073913Y4641087D01*
X1086928Y4658050D01*
X1095110Y4677802D01*
X1097901Y4699000D01*
X1095110Y4720198D01*
X1086928Y4739950D01*
X1073913Y4756913D01*
X1056951Y4769928D01*
X1037198Y4778110D01*
X1016000Y4780901D01*
D02*
G37*
G36*
X762000D02*
X740803Y4778110D01*
X721050Y4769928D01*
X704088Y4756913D01*
X691072Y4739950D01*
X682890Y4720198D01*
X680099Y4699000D01*
X682890Y4677802D01*
X691072Y4658050D01*
X704088Y4641087D01*
X721050Y4628072D01*
X740803Y4619890D01*
X762000Y4617099D01*
X783198Y4619890D01*
X802951Y4628072D01*
X819913Y4641087D01*
X832928Y4658050D01*
X841110Y4677802D01*
X843901Y4699000D01*
X841110Y4720198D01*
X832928Y4739950D01*
X819913Y4756913D01*
X802951Y4769928D01*
X783198Y4778110D01*
X762000Y4780901D01*
D02*
G37*
G36*
X508000D02*
X486803Y4778110D01*
X467050Y4769928D01*
X450088Y4756913D01*
X437072Y4739950D01*
X428890Y4720198D01*
X426099Y4699000D01*
X428890Y4677802D01*
X437072Y4658050D01*
X450088Y4641087D01*
X467050Y4628072D01*
X486803Y4619890D01*
X508000Y4617099D01*
X529198Y4619890D01*
X548951Y4628072D01*
X565913Y4641087D01*
X578928Y4658050D01*
X587110Y4677802D01*
X589901Y4699000D01*
X587110Y4720198D01*
X578928Y4739950D01*
X565913Y4756913D01*
X548951Y4769928D01*
X529198Y4778110D01*
X508000Y4780901D01*
D02*
G37*
G36*
X5499100Y4496387D02*
X5479435Y4492476D01*
X5462764Y4481336D01*
X5451624Y4464665D01*
X5447713Y4445000D01*
X5451624Y4425335D01*
X5462764Y4408664D01*
X5479435Y4397524D01*
X5499100Y4393613D01*
X5518765Y4397524D01*
X5535436Y4408664D01*
X5546576Y4425335D01*
X5550487Y4445000D01*
X5546576Y4464665D01*
X5535436Y4481336D01*
X5518765Y4492476D01*
X5499100Y4496387D01*
D02*
G37*
G36*
X1270000Y4526901D02*
X1248803Y4524110D01*
X1229050Y4515928D01*
X1212088Y4502913D01*
X1199072Y4485950D01*
X1190890Y4466198D01*
X1188099Y4445000D01*
X1190890Y4423802D01*
X1199072Y4404050D01*
X1212088Y4387087D01*
X1229050Y4374072D01*
X1248803Y4365890D01*
X1270000Y4363099D01*
X1291198Y4365890D01*
X1310951Y4374072D01*
X1327913Y4387087D01*
X1340928Y4404050D01*
X1349110Y4423802D01*
X1351901Y4445000D01*
X1349110Y4466198D01*
X1340928Y4485950D01*
X1327913Y4502913D01*
X1310951Y4515928D01*
X1291198Y4524110D01*
X1270000Y4526901D01*
D02*
G37*
G36*
X1016000D02*
X994803Y4524110D01*
X975050Y4515928D01*
X958088Y4502913D01*
X945072Y4485950D01*
X936890Y4466198D01*
X934099Y4445000D01*
X936890Y4423802D01*
X945072Y4404050D01*
X958088Y4387087D01*
X975050Y4374072D01*
X994803Y4365890D01*
X1016000Y4363099D01*
X1037198Y4365890D01*
X1056951Y4374072D01*
X1073913Y4387087D01*
X1086928Y4404050D01*
X1095110Y4423802D01*
X1097901Y4445000D01*
X1095110Y4466198D01*
X1086928Y4485950D01*
X1073913Y4502913D01*
X1056951Y4515928D01*
X1037198Y4524110D01*
X1016000Y4526901D01*
D02*
G37*
G36*
X762000D02*
X740803Y4524110D01*
X721050Y4515928D01*
X704088Y4502913D01*
X691072Y4485950D01*
X682890Y4466198D01*
X680099Y4445000D01*
X682890Y4423802D01*
X691072Y4404050D01*
X704088Y4387087D01*
X721050Y4374072D01*
X740803Y4365890D01*
X762000Y4363099D01*
X783198Y4365890D01*
X802951Y4374072D01*
X819913Y4387087D01*
X832928Y4404050D01*
X841110Y4423802D01*
X843901Y4445000D01*
X841110Y4466198D01*
X832928Y4485950D01*
X819913Y4502913D01*
X802951Y4515928D01*
X783198Y4524110D01*
X762000Y4526901D01*
D02*
G37*
G36*
X508000D02*
X486803Y4524110D01*
X467050Y4515928D01*
X450088Y4502913D01*
X437072Y4485950D01*
X428890Y4466198D01*
X426099Y4445000D01*
X428890Y4423802D01*
X437072Y4404050D01*
X450088Y4387087D01*
X467050Y4374072D01*
X486803Y4365890D01*
X508000Y4363099D01*
X529198Y4365890D01*
X548951Y4374072D01*
X565913Y4387087D01*
X578928Y4404050D01*
X587110Y4423802D01*
X589901Y4445000D01*
X587110Y4466198D01*
X578928Y4485950D01*
X565913Y4502913D01*
X548951Y4515928D01*
X529198Y4524110D01*
X508000Y4526901D01*
D02*
G37*
G36*
X4702500Y4458887D02*
X4682835Y4454976D01*
X4666164Y4443836D01*
X4655024Y4427165D01*
X4651113Y4407500D01*
X4655024Y4387835D01*
X4666164Y4371164D01*
X4682835Y4360024D01*
X4702500Y4356113D01*
X4722165Y4360024D01*
X4738836Y4371164D01*
X4749976Y4387835D01*
X4753887Y4407500D01*
X4749976Y4427165D01*
X4738836Y4443836D01*
X4722165Y4454976D01*
X4702500Y4458887D01*
D02*
G37*
G36*
X6920000Y4341387D02*
X6900335Y4337476D01*
X6883664Y4326336D01*
X6872524Y4309665D01*
X6868613Y4290000D01*
X6869326Y4286414D01*
X6783547Y4200634D01*
X6783356Y4200507D01*
X6766190Y4183341D01*
X5558338D01*
X5556336Y4186336D01*
X5539665Y4197476D01*
X5520000Y4201387D01*
X5500335Y4197476D01*
X5483664Y4186336D01*
X5472524Y4169665D01*
X5468613Y4150000D01*
X5472006Y4132941D01*
X5465157Y4120241D01*
X2970409D01*
X2966336Y4126336D01*
X2949665Y4137476D01*
X2930000Y4141387D01*
X2910335Y4137476D01*
X2893664Y4126336D01*
X2882524Y4109665D01*
X2878613Y4090000D01*
X2882524Y4070335D01*
X2893664Y4053664D01*
X2905073Y4046040D01*
X2901220Y4033340D01*
X2888338D01*
X2886336Y4036336D01*
X2869665Y4047476D01*
X2850000Y4051387D01*
X2830335Y4047476D01*
X2813664Y4036336D01*
X2802524Y4019665D01*
X2798613Y4000000D01*
X2802524Y3980335D01*
X2813664Y3963664D01*
X2830335Y3952524D01*
X2850000Y3948613D01*
X2869665Y3952524D01*
X2886336Y3963664D01*
X2888338Y3966659D01*
X4691220D01*
X4695072Y3953959D01*
X4683664Y3946336D01*
X4672524Y3929665D01*
X4668613Y3910000D01*
X4672524Y3890335D01*
X4683664Y3873664D01*
X4700335Y3862524D01*
X4720000Y3858613D01*
X4739665Y3862524D01*
X4756336Y3873664D01*
X4767476Y3890335D01*
X4771387Y3910000D01*
X4767476Y3929665D01*
X4756336Y3946336D01*
X4744928Y3953959D01*
X4748780Y3966659D01*
X4883853D01*
X4927188Y3923325D01*
X4938004Y3916098D01*
X4950763Y3913560D01*
X8573820D01*
X8590335Y3902524D01*
X8610000Y3898613D01*
X8629665Y3902524D01*
X8646336Y3913664D01*
X8657476Y3930335D01*
X8661387Y3950000D01*
X8657476Y3969665D01*
X8646336Y3986336D01*
X8629665Y3997476D01*
X8610000Y4001387D01*
X8590335Y3997476D01*
X8573664Y3986336D01*
X8569591Y3980241D01*
X4964573D01*
X4921239Y4023575D01*
X4910422Y4030802D01*
X4897663Y4033340D01*
X2958780D01*
X2954927Y4046040D01*
X2966180Y4053560D01*
X5673359D01*
X5679888Y4049197D01*
X5692647Y4046659D01*
X8414762D01*
X8416764Y4043664D01*
X8433435Y4032524D01*
X8453100Y4028613D01*
X8472765Y4032524D01*
X8489436Y4043664D01*
X8500576Y4060335D01*
X8504487Y4080000D01*
X8500576Y4099665D01*
X8489436Y4116336D01*
X8472765Y4127476D01*
X8453100Y4131387D01*
X8433435Y4127476D01*
X8416764Y4116336D01*
X8414762Y4113341D01*
X6806853D01*
X6803000Y4126041D01*
X6803575Y4126425D01*
X6830379Y4153229D01*
X6830570Y4153356D01*
X6916519Y4239305D01*
X6920000Y4238613D01*
X6939665Y4242524D01*
X6956336Y4253664D01*
X6967476Y4270335D01*
X6971387Y4290000D01*
X6967476Y4309665D01*
X6956336Y4326336D01*
X6939665Y4337476D01*
X6920000Y4341387D01*
D02*
G37*
G36*
X2650000Y4361387D02*
X2630335Y4357476D01*
X2613664Y4346336D01*
X2602524Y4329665D01*
X2598613Y4310000D01*
X2602524Y4290335D01*
X2613664Y4273664D01*
X2630335Y4262524D01*
X2650000Y4258613D01*
X2669665Y4262524D01*
X2686336Y4273664D01*
X2688338Y4276659D01*
X4388214D01*
X4391481Y4260235D01*
X4402620Y4243564D01*
X4402335Y4229823D01*
X4395864Y4223341D01*
X2751438D01*
X2749436Y4226336D01*
X2732765Y4237476D01*
X2713100Y4241387D01*
X2693435Y4237476D01*
X2676764Y4226336D01*
X2665624Y4209665D01*
X2661713Y4190000D01*
X2665624Y4170335D01*
X2676764Y4153664D01*
X2693435Y4142524D01*
X2713100Y4138613D01*
X2732765Y4142524D01*
X2749436Y4153664D01*
X2751438Y4156659D01*
X4401662D01*
X4403664Y4153664D01*
X4420335Y4142524D01*
X4440000Y4138613D01*
X4459665Y4142524D01*
X4476336Y4153664D01*
X4487476Y4170335D01*
X4491387Y4190000D01*
X4487476Y4209665D01*
X4476336Y4226336D01*
X4472427Y4228949D01*
Y4241649D01*
X4475293Y4243564D01*
X4486432Y4260235D01*
X4490344Y4279900D01*
X4486432Y4299565D01*
X4475293Y4316236D01*
X4458622Y4327376D01*
X4438957Y4331287D01*
X4429870Y4329480D01*
X4425775Y4333575D01*
X4414959Y4340803D01*
X4402200Y4343341D01*
X2688338D01*
X2686336Y4346336D01*
X2669665Y4357476D01*
X2650000Y4361387D01*
D02*
G37*
G36*
X7310000Y4321387D02*
X7290335Y4317476D01*
X7273664Y4306336D01*
X7262524Y4289665D01*
X7258613Y4270000D01*
X7262524Y4250335D01*
X7273664Y4233664D01*
X7290335Y4222524D01*
X7310000Y4218613D01*
X7329665Y4222524D01*
X7346336Y4233664D01*
X7357476Y4250335D01*
X7361387Y4270000D01*
X7357476Y4289665D01*
X7346336Y4306336D01*
X7329665Y4317476D01*
X7310000Y4321387D01*
D02*
G37*
G36*
X2213385Y4249413D02*
X2193720Y4245501D01*
X2177049Y4234362D01*
X2165910Y4217690D01*
X2161998Y4198025D01*
X2165910Y4178360D01*
X2177049Y4161689D01*
X2193720Y4150550D01*
X2213385Y4146638D01*
X2233050Y4150550D01*
X2249721Y4161689D01*
X2260861Y4178360D01*
X2264772Y4198025D01*
X2260861Y4217690D01*
X2249721Y4234362D01*
X2233050Y4245501D01*
X2213385Y4249413D01*
D02*
G37*
G36*
X1270000Y4272901D02*
X1248803Y4270110D01*
X1229050Y4261928D01*
X1212088Y4248913D01*
X1199072Y4231950D01*
X1190890Y4212198D01*
X1188099Y4191000D01*
X1190890Y4169802D01*
X1199072Y4150050D01*
X1212088Y4133087D01*
X1229050Y4120072D01*
X1248803Y4111890D01*
X1270000Y4109099D01*
X1291198Y4111890D01*
X1310951Y4120072D01*
X1327913Y4133087D01*
X1340928Y4150050D01*
X1349110Y4169802D01*
X1351901Y4191000D01*
X1349110Y4212198D01*
X1340928Y4231950D01*
X1327913Y4248913D01*
X1310951Y4261928D01*
X1291198Y4270110D01*
X1270000Y4272901D01*
D02*
G37*
G36*
X1016000D02*
X994803Y4270110D01*
X975050Y4261928D01*
X958088Y4248913D01*
X945072Y4231950D01*
X936890Y4212198D01*
X934099Y4191000D01*
X936890Y4169802D01*
X945072Y4150050D01*
X958088Y4133087D01*
X975050Y4120072D01*
X994803Y4111890D01*
X1016000Y4109099D01*
X1037198Y4111890D01*
X1056951Y4120072D01*
X1073913Y4133087D01*
X1086928Y4150050D01*
X1095110Y4169802D01*
X1097901Y4191000D01*
X1095110Y4212198D01*
X1086928Y4231950D01*
X1073913Y4248913D01*
X1056951Y4261928D01*
X1037198Y4270110D01*
X1016000Y4272901D01*
D02*
G37*
G36*
X762000D02*
X740803Y4270110D01*
X721050Y4261928D01*
X704088Y4248913D01*
X691072Y4231950D01*
X682890Y4212198D01*
X680099Y4191000D01*
X682890Y4169802D01*
X691072Y4150050D01*
X704088Y4133087D01*
X721050Y4120072D01*
X740803Y4111890D01*
X762000Y4109099D01*
X783198Y4111890D01*
X802951Y4120072D01*
X819913Y4133087D01*
X832928Y4150050D01*
X841110Y4169802D01*
X843901Y4191000D01*
X841110Y4212198D01*
X832928Y4231950D01*
X819913Y4248913D01*
X802951Y4261928D01*
X783198Y4270110D01*
X762000Y4272901D01*
D02*
G37*
G36*
X508000D02*
X486803Y4270110D01*
X467050Y4261928D01*
X450088Y4248913D01*
X437072Y4231950D01*
X428890Y4212198D01*
X426099Y4191000D01*
X428890Y4169802D01*
X437072Y4150050D01*
X450088Y4133087D01*
X467050Y4120072D01*
X486803Y4111890D01*
X508000Y4109099D01*
X529198Y4111890D01*
X548951Y4120072D01*
X565913Y4133087D01*
X578928Y4150050D01*
X587110Y4169802D01*
X589901Y4191000D01*
X587110Y4212198D01*
X578928Y4231950D01*
X565913Y4248913D01*
X548951Y4261928D01*
X529198Y4270110D01*
X508000Y4272901D01*
D02*
G37*
G36*
X1674978Y4089845D02*
X1655313Y4085934D01*
X1638641Y4074794D01*
X1627502Y4058123D01*
X1623590Y4038458D01*
X1627502Y4018793D01*
X1638641Y4002122D01*
X1655313Y3990982D01*
X1674978Y3987071D01*
X1694643Y3990982D01*
X1701771Y3995745D01*
X1706461Y3993093D01*
X1712064Y3987348D01*
X1708613Y3970000D01*
X1712524Y3950335D01*
X1723664Y3933664D01*
X1740335Y3922524D01*
X1760000Y3918613D01*
X1779665Y3922524D01*
X1796336Y3933664D01*
X1798338Y3936659D01*
X2075427D01*
X2102346Y3909740D01*
X2113162Y3902513D01*
X2125921Y3899975D01*
X2238346D01*
X2240348Y3896980D01*
X2257019Y3885840D01*
X2276684Y3881928D01*
X2296349Y3885840D01*
X2313020Y3896980D01*
X2324160Y3913651D01*
X2328071Y3933316D01*
X2324160Y3952981D01*
X2315018Y3966662D01*
X2317500Y3977044D01*
X2319609Y3980524D01*
X2329665Y3982524D01*
X2346336Y3993664D01*
X2357476Y4010335D01*
X2361387Y4030000D01*
X2357476Y4049665D01*
X2346336Y4066336D01*
X2329665Y4077476D01*
X2310000Y4081387D01*
X2290335Y4077476D01*
X2275510Y4067570D01*
X1716141D01*
X1711314Y4074794D01*
X1694643Y4085934D01*
X1674978Y4089845D01*
D02*
G37*
G36*
X1270000Y4018901D02*
X1248803Y4016110D01*
X1229050Y4007928D01*
X1212088Y3994913D01*
X1199072Y3977950D01*
X1190890Y3958198D01*
X1188099Y3937000D01*
X1190890Y3915802D01*
X1199072Y3896050D01*
X1212088Y3879087D01*
X1229050Y3866072D01*
X1248803Y3857890D01*
X1270000Y3855099D01*
X1291198Y3857890D01*
X1310951Y3866072D01*
X1327913Y3879087D01*
X1340928Y3896050D01*
X1349110Y3915802D01*
X1351901Y3937000D01*
X1349110Y3958198D01*
X1340928Y3977950D01*
X1327913Y3994913D01*
X1310951Y4007928D01*
X1291198Y4016110D01*
X1270000Y4018901D01*
D02*
G37*
G36*
X1016000D02*
X994803Y4016110D01*
X975050Y4007928D01*
X958088Y3994913D01*
X945072Y3977950D01*
X936890Y3958198D01*
X934099Y3937000D01*
X936890Y3915802D01*
X945072Y3896050D01*
X958088Y3879087D01*
X975050Y3866072D01*
X994803Y3857890D01*
X1016000Y3855099D01*
X1037198Y3857890D01*
X1056951Y3866072D01*
X1073913Y3879087D01*
X1086928Y3896050D01*
X1095110Y3915802D01*
X1097901Y3937000D01*
X1095110Y3958198D01*
X1086928Y3977950D01*
X1073913Y3994913D01*
X1056951Y4007928D01*
X1037198Y4016110D01*
X1016000Y4018901D01*
D02*
G37*
G36*
X762000D02*
X740803Y4016110D01*
X721050Y4007928D01*
X704088Y3994913D01*
X691072Y3977950D01*
X682890Y3958198D01*
X680099Y3937000D01*
X682890Y3915802D01*
X691072Y3896050D01*
X704088Y3879087D01*
X721050Y3866072D01*
X740803Y3857890D01*
X762000Y3855099D01*
X783198Y3857890D01*
X802951Y3866072D01*
X819913Y3879087D01*
X832928Y3896050D01*
X841110Y3915802D01*
X843901Y3937000D01*
X841110Y3958198D01*
X832928Y3977950D01*
X819913Y3994913D01*
X802951Y4007928D01*
X783198Y4016110D01*
X762000Y4018901D01*
D02*
G37*
G36*
X508000D02*
X486803Y4016110D01*
X467050Y4007928D01*
X450088Y3994913D01*
X437072Y3977950D01*
X428890Y3958198D01*
X426099Y3937000D01*
X428890Y3915802D01*
X437072Y3896050D01*
X450088Y3879087D01*
X467050Y3866072D01*
X486803Y3857890D01*
X508000Y3855099D01*
X529198Y3857890D01*
X548951Y3866072D01*
X565913Y3879087D01*
X578928Y3896050D01*
X587110Y3915802D01*
X589901Y3937000D01*
X587110Y3958198D01*
X578928Y3977950D01*
X565913Y3994913D01*
X548951Y4007928D01*
X529198Y4016110D01*
X508000Y4018901D01*
D02*
G37*
G36*
X9093200Y3924887D02*
X9073535Y3920976D01*
X9056864Y3909836D01*
X9045724Y3893165D01*
X9041813Y3873500D01*
X9045724Y3853835D01*
X9056864Y3837164D01*
X9073535Y3826024D01*
X9093200Y3822113D01*
X9112865Y3826024D01*
X9129536Y3837164D01*
X9140676Y3853835D01*
X9144587Y3873500D01*
X9140676Y3893165D01*
X9129536Y3909836D01*
X9112865Y3920976D01*
X9093200Y3924887D01*
D02*
G37*
G36*
X8250000Y3851387D02*
X8230335Y3847476D01*
X8213820Y3836440D01*
X4863100D01*
X4850341Y3833902D01*
X4839524Y3826675D01*
X4756190Y3743340D01*
X2608338D01*
X2606336Y3746336D01*
X2589665Y3757476D01*
X2570000Y3761387D01*
X2550335Y3757476D01*
X2533664Y3746336D01*
X2522524Y3729665D01*
X2518613Y3710000D01*
X2522524Y3690335D01*
X2533664Y3673664D01*
X2550335Y3662524D01*
X2570000Y3658613D01*
X2589665Y3662524D01*
X2606336Y3673664D01*
X2608338Y3676659D01*
X4770000D01*
X4782759Y3679197D01*
X4793575Y3686425D01*
X4876910Y3769759D01*
X4965158D01*
X4972006Y3757059D01*
X4968613Y3740000D01*
X4972524Y3720335D01*
X4983664Y3703664D01*
X5000335Y3692524D01*
X5020000Y3688613D01*
X5023534Y3689315D01*
X5130627Y3582222D01*
X5124371Y3570518D01*
X5120000Y3571387D01*
X5100335Y3567476D01*
X5083664Y3556336D01*
X5072524Y3539665D01*
X5068613Y3520000D01*
X5072524Y3500335D01*
X5080004Y3489141D01*
X5073355Y3476441D01*
X4773100D01*
X4760341Y3473903D01*
X4749525Y3466675D01*
X4742297Y3455859D01*
X4741588Y3452296D01*
X4736979Y3447686D01*
X4720335Y3444376D01*
X4703664Y3433236D01*
X4692524Y3416565D01*
X4688613Y3396900D01*
X4692524Y3377235D01*
X4700004Y3366041D01*
X4693355Y3353341D01*
X4197139D01*
X4066904Y3483575D01*
X4056087Y3490803D01*
X4043328Y3493340D01*
X2608338D01*
X2606336Y3496336D01*
X2589665Y3507476D01*
X2570000Y3511387D01*
X2550335Y3507476D01*
X2533664Y3496336D01*
X2522524Y3479665D01*
X2518613Y3460000D01*
X2522524Y3440335D01*
X2533664Y3423664D01*
X2550335Y3412524D01*
X2556725Y3411253D01*
X2555474Y3398553D01*
X1981038D01*
X1979036Y3401549D01*
X1962365Y3412688D01*
X1942700Y3416600D01*
X1923035Y3412688D01*
X1906363Y3401549D01*
X1895224Y3384878D01*
X1891312Y3365213D01*
X1895224Y3345548D01*
X1906363Y3328877D01*
X1910608Y3326041D01*
X1906755Y3313341D01*
X1888734D01*
X1887476Y3319665D01*
X1876336Y3336336D01*
X1859665Y3347476D01*
X1840000Y3351387D01*
X1820335Y3347476D01*
X1803664Y3336336D01*
X1792524Y3319665D01*
X1788613Y3300000D01*
X1792524Y3280335D01*
X1803664Y3263664D01*
X1820335Y3252524D01*
X1840000Y3248613D01*
X1851384Y3250877D01*
X1853897Y3249197D01*
X1866656Y3246659D01*
X3021662D01*
X3023664Y3243664D01*
X3040335Y3232524D01*
X3060000Y3228613D01*
X3079665Y3232524D01*
X3096336Y3243664D01*
X3107476Y3260335D01*
X3111387Y3280000D01*
X3108352Y3295257D01*
X3119146Y3303319D01*
X3120335Y3302524D01*
X3140000Y3298613D01*
X3159665Y3302524D01*
X3176336Y3313664D01*
X3187476Y3330335D01*
X3191387Y3350000D01*
X3187476Y3369665D01*
X3176336Y3386336D01*
X3159665Y3397476D01*
X3140000Y3401387D01*
X3121942Y3397795D01*
X3118131Y3398553D01*
X2584526D01*
X2583275Y3411253D01*
X2589665Y3412524D01*
X2606336Y3423664D01*
X2608338Y3426659D01*
X4029518D01*
X4159753Y3296424D01*
X4170570Y3289197D01*
X4183328Y3286659D01*
X4668605D01*
X4675394Y3273959D01*
X4672524Y3269665D01*
X4668613Y3250000D01*
X4672524Y3230335D01*
X4683664Y3213664D01*
X4700335Y3202524D01*
X4720000Y3198613D01*
X4739665Y3202524D01*
X4756336Y3213664D01*
X4767476Y3230335D01*
X4771387Y3250000D01*
X4767476Y3269665D01*
X4764606Y3273959D01*
X4771395Y3286659D01*
X5611662D01*
X5613664Y3283664D01*
X5630335Y3272524D01*
X5650000Y3268613D01*
X5669665Y3272524D01*
X5686336Y3283664D01*
X5697476Y3300335D01*
X5701387Y3320000D01*
X5697476Y3339665D01*
X5686336Y3356336D01*
X5669665Y3367476D01*
X5650000Y3371387D01*
X5630335Y3367476D01*
X5613664Y3356336D01*
X5611662Y3353341D01*
X4786645D01*
X4779996Y3366041D01*
X4787476Y3377235D01*
X4791387Y3396900D01*
X4791176Y3397961D01*
X4801170Y3409759D01*
X6334628D01*
X6340615Y3398559D01*
X6337817Y3394372D01*
X6333906Y3374707D01*
X6337817Y3355042D01*
X6348957Y3338371D01*
X6365628Y3327231D01*
X6385293Y3323320D01*
X6404958Y3327231D01*
X6421629Y3338371D01*
X6422059Y3339013D01*
X6539090D01*
X6542664Y3333664D01*
X6559335Y3322524D01*
X6579000Y3318613D01*
X6598665Y3322524D01*
X6615336Y3333664D01*
X6626476Y3350335D01*
X6630387Y3370000D01*
X6626476Y3389665D01*
X6621535Y3397060D01*
X6628323Y3409759D01*
X7391940D01*
X7398788Y3397059D01*
X7395395Y3380000D01*
X7399307Y3360335D01*
X7410446Y3343664D01*
X7427117Y3332524D01*
X7446782Y3328613D01*
X7466447Y3332524D01*
X7483118Y3343664D01*
X7494258Y3360335D01*
X7498169Y3380000D01*
X7494776Y3397059D01*
X7501625Y3409759D01*
X7712909D01*
X7723664Y3393664D01*
X7740335Y3382524D01*
X7760000Y3378613D01*
X7779665Y3382524D01*
X7796336Y3393664D01*
X7807476Y3410335D01*
X7807610Y3411011D01*
X7821970Y3418105D01*
X7829237Y3416659D01*
X7873362D01*
X7875364Y3413664D01*
X7892035Y3402524D01*
X7911700Y3398613D01*
X7931365Y3402524D01*
X7948036Y3413664D01*
X7950038Y3416659D01*
X8081662D01*
X8083664Y3413664D01*
X8100335Y3402524D01*
X8120000Y3398613D01*
X8139665Y3402524D01*
X8156336Y3413664D01*
X8167476Y3430335D01*
X8171387Y3450000D01*
X8167476Y3469665D01*
X8156336Y3486336D01*
X8139665Y3497476D01*
X8120000Y3501387D01*
X8100335Y3497476D01*
X8083664Y3486336D01*
X8081662Y3483341D01*
X7950038D01*
X7948036Y3486336D01*
X7931365Y3497476D01*
X7911700Y3501387D01*
X7892035Y3497476D01*
X7875364Y3486336D01*
X7873362Y3483341D01*
X7850756D01*
X7846374Y3488921D01*
X7849272Y3500897D01*
X7850954Y3503386D01*
X7866336Y3513664D01*
X7868338Y3516659D01*
X8151662D01*
X8153664Y3513664D01*
X8170335Y3502524D01*
X8190000Y3498613D01*
X8209665Y3502524D01*
X8226336Y3513664D01*
X8237476Y3530335D01*
X8241387Y3550000D01*
X8237476Y3569665D01*
X8226336Y3586336D01*
X8209665Y3597476D01*
X8190000Y3601387D01*
X8170335Y3597476D01*
X8153664Y3586336D01*
X8151662Y3583341D01*
X7868338D01*
X7866336Y3586336D01*
X7849665Y3597476D01*
X7830000Y3601387D01*
X7810335Y3597476D01*
X7793664Y3586336D01*
X7791662Y3583341D01*
X7352006D01*
X7347924Y3596041D01*
X7357476Y3610335D01*
X7361387Y3630000D01*
X7357476Y3649665D01*
X7346336Y3666336D01*
X7329665Y3677476D01*
X7310000Y3681387D01*
X7290335Y3677476D01*
X7273664Y3666336D01*
X7262524Y3649665D01*
X7258613Y3630000D01*
X7262524Y3610335D01*
X7272076Y3596041D01*
X7267994Y3583341D01*
X5223810D01*
X5070685Y3736466D01*
X5071387Y3740000D01*
X5067994Y3757059D01*
X5074843Y3769759D01*
X8209591D01*
X8213664Y3763664D01*
X8230335Y3752524D01*
X8250000Y3748613D01*
X8269665Y3752524D01*
X8286336Y3763664D01*
X8297476Y3780335D01*
X8301387Y3800000D01*
X8297476Y3819665D01*
X8286336Y3836336D01*
X8269665Y3847476D01*
X8250000Y3851387D01*
D02*
G37*
G36*
X2212017Y3738935D02*
X2192352Y3735024D01*
X2175681Y3723884D01*
X2164542Y3707213D01*
X2160630Y3687548D01*
X2164542Y3667883D01*
X2175681Y3651212D01*
X2192352Y3640072D01*
X2212017Y3636161D01*
X2231682Y3640072D01*
X2248353Y3651212D01*
X2259493Y3667883D01*
X2263404Y3687548D01*
X2259493Y3707213D01*
X2248353Y3723884D01*
X2231682Y3735024D01*
X2212017Y3738935D01*
D02*
G37*
G36*
X1270000Y3764901D02*
X1248803Y3762110D01*
X1229050Y3753928D01*
X1212088Y3740913D01*
X1199072Y3723950D01*
X1190890Y3704198D01*
X1188099Y3683000D01*
X1190890Y3661802D01*
X1199072Y3642050D01*
X1212088Y3625087D01*
X1229050Y3612072D01*
X1248803Y3603890D01*
X1270000Y3601099D01*
X1291198Y3603890D01*
X1310951Y3612072D01*
X1327913Y3625087D01*
X1340928Y3642050D01*
X1349110Y3661802D01*
X1351901Y3683000D01*
X1349110Y3704198D01*
X1340928Y3723950D01*
X1327913Y3740913D01*
X1310951Y3753928D01*
X1291198Y3762110D01*
X1270000Y3764901D01*
D02*
G37*
G36*
X1016000D02*
X994803Y3762110D01*
X975050Y3753928D01*
X958088Y3740913D01*
X945072Y3723950D01*
X936890Y3704198D01*
X934099Y3683000D01*
X936890Y3661802D01*
X945072Y3642050D01*
X958088Y3625087D01*
X975050Y3612072D01*
X994803Y3603890D01*
X1016000Y3601099D01*
X1037198Y3603890D01*
X1056951Y3612072D01*
X1073913Y3625087D01*
X1086928Y3642050D01*
X1095110Y3661802D01*
X1097901Y3683000D01*
X1095110Y3704198D01*
X1086928Y3723950D01*
X1073913Y3740913D01*
X1056951Y3753928D01*
X1037198Y3762110D01*
X1016000Y3764901D01*
D02*
G37*
G36*
X762000D02*
X740803Y3762110D01*
X721050Y3753928D01*
X704088Y3740913D01*
X691072Y3723950D01*
X682890Y3704198D01*
X680099Y3683000D01*
X682890Y3661802D01*
X691072Y3642050D01*
X704088Y3625087D01*
X721050Y3612072D01*
X740803Y3603890D01*
X762000Y3601099D01*
X783198Y3603890D01*
X802951Y3612072D01*
X819913Y3625087D01*
X832928Y3642050D01*
X841110Y3661802D01*
X843901Y3683000D01*
X841110Y3704198D01*
X832928Y3723950D01*
X819913Y3740913D01*
X802951Y3753928D01*
X783198Y3762110D01*
X762000Y3764901D01*
D02*
G37*
G36*
X508000D02*
X486803Y3762110D01*
X467050Y3753928D01*
X450088Y3740913D01*
X437072Y3723950D01*
X428890Y3704198D01*
X426099Y3683000D01*
X428890Y3661802D01*
X437072Y3642050D01*
X450088Y3625087D01*
X467050Y3612072D01*
X486803Y3603890D01*
X508000Y3601099D01*
X529198Y3603890D01*
X548951Y3612072D01*
X565913Y3625087D01*
X578928Y3642050D01*
X587110Y3661802D01*
X589901Y3683000D01*
X587110Y3704198D01*
X578928Y3723950D01*
X565913Y3740913D01*
X548951Y3753928D01*
X529198Y3762110D01*
X508000Y3764901D01*
D02*
G37*
G36*
X1714500Y3632787D02*
X1694835Y3628876D01*
X1678164Y3617736D01*
X1667024Y3601065D01*
X1663113Y3581400D01*
X1667024Y3561735D01*
X1678164Y3545064D01*
X1694835Y3533924D01*
X1714500Y3530013D01*
X1734165Y3533924D01*
X1750836Y3545064D01*
X1761976Y3561735D01*
X1765887Y3581400D01*
X1761976Y3601065D01*
X1750836Y3617736D01*
X1734165Y3628876D01*
X1714500Y3632787D01*
D02*
G37*
G36*
X1270000Y3510901D02*
X1248803Y3508110D01*
X1229050Y3499928D01*
X1212088Y3486913D01*
X1199072Y3469950D01*
X1190890Y3450198D01*
X1188099Y3429000D01*
X1190890Y3407802D01*
X1199072Y3388050D01*
X1212088Y3371087D01*
X1229050Y3358072D01*
X1248803Y3349890D01*
X1270000Y3347099D01*
X1291198Y3349890D01*
X1310951Y3358072D01*
X1327913Y3371087D01*
X1340928Y3388050D01*
X1349110Y3407802D01*
X1351901Y3429000D01*
X1349110Y3450198D01*
X1340928Y3469950D01*
X1327913Y3486913D01*
X1310951Y3499928D01*
X1291198Y3508110D01*
X1270000Y3510901D01*
D02*
G37*
G36*
X1016000D02*
X994803Y3508110D01*
X975050Y3499928D01*
X958088Y3486913D01*
X945072Y3469950D01*
X936890Y3450198D01*
X934099Y3429000D01*
X936890Y3407802D01*
X945072Y3388050D01*
X958088Y3371087D01*
X975050Y3358072D01*
X994803Y3349890D01*
X1016000Y3347099D01*
X1037198Y3349890D01*
X1056951Y3358072D01*
X1073913Y3371087D01*
X1086928Y3388050D01*
X1095110Y3407802D01*
X1097901Y3429000D01*
X1095110Y3450198D01*
X1086928Y3469950D01*
X1073913Y3486913D01*
X1056951Y3499928D01*
X1037198Y3508110D01*
X1016000Y3510901D01*
D02*
G37*
G36*
X762000D02*
X740803Y3508110D01*
X721050Y3499928D01*
X704088Y3486913D01*
X691072Y3469950D01*
X682890Y3450198D01*
X680099Y3429000D01*
X682890Y3407802D01*
X691072Y3388050D01*
X704088Y3371087D01*
X721050Y3358072D01*
X740803Y3349890D01*
X762000Y3347099D01*
X783198Y3349890D01*
X802951Y3358072D01*
X819913Y3371087D01*
X832928Y3388050D01*
X841110Y3407802D01*
X843901Y3429000D01*
X841110Y3450198D01*
X832928Y3469950D01*
X819913Y3486913D01*
X802951Y3499928D01*
X783198Y3508110D01*
X762000Y3510901D01*
D02*
G37*
G36*
X508000D02*
X486803Y3508110D01*
X467050Y3499928D01*
X450088Y3486913D01*
X437072Y3469950D01*
X428890Y3450198D01*
X426099Y3429000D01*
X428890Y3407802D01*
X437072Y3388050D01*
X450088Y3371087D01*
X467050Y3358072D01*
X486803Y3349890D01*
X508000Y3347099D01*
X529198Y3349890D01*
X548951Y3358072D01*
X565913Y3371087D01*
X578928Y3388050D01*
X587110Y3407802D01*
X589901Y3429000D01*
X587110Y3450198D01*
X578928Y3469950D01*
X565913Y3486913D01*
X548951Y3499928D01*
X529198Y3508110D01*
X508000Y3510901D01*
D02*
G37*
G36*
X7680000Y3291387D02*
X7660335Y3287476D01*
X7643664Y3276336D01*
X7632524Y3259665D01*
X7628613Y3240000D01*
X7629315Y3236466D01*
X7506190Y3113340D01*
X7482504D01*
X7478536Y3125964D01*
X7489676Y3142635D01*
X7493587Y3162300D01*
X7489676Y3181965D01*
X7478536Y3198636D01*
X7461865Y3209776D01*
X7442200Y3213687D01*
X7422535Y3209776D01*
X7405864Y3198636D01*
X7394724Y3181965D01*
X7390813Y3162300D01*
X7394724Y3142635D01*
X7405864Y3125964D01*
X7401896Y3113340D01*
X5278338D01*
X5276336Y3116336D01*
X5259665Y3127476D01*
X5240000Y3131387D01*
X5220335Y3127476D01*
X5203664Y3116336D01*
X5192524Y3099665D01*
X5188613Y3080000D01*
X5192524Y3060335D01*
X5203664Y3043664D01*
X5220335Y3032524D01*
X5240000Y3028613D01*
X5259665Y3032524D01*
X5276336Y3043664D01*
X5278338Y3046659D01*
X5862311D01*
X5867572Y3033959D01*
X5796953Y2963341D01*
X5228338D01*
X5226336Y2966336D01*
X5209665Y2977476D01*
X5190000Y2981387D01*
X5170335Y2977476D01*
X5153664Y2966336D01*
X5142524Y2949665D01*
X5138613Y2930000D01*
X5142524Y2910335D01*
X5153664Y2893664D01*
X5170335Y2882524D01*
X5190000Y2878613D01*
X5209665Y2882524D01*
X5226336Y2893664D01*
X5228338Y2896659D01*
X5810763D01*
X5823522Y2899197D01*
X5834338Y2906425D01*
X5914573Y2986660D01*
X8011662D01*
X8013664Y2983664D01*
X8030335Y2972524D01*
X8050000Y2968613D01*
X8069665Y2972524D01*
X8086336Y2983664D01*
X8097476Y3000335D01*
X8101387Y3020000D01*
X8097476Y3039665D01*
X8086336Y3056336D01*
X8069665Y3067476D01*
X8050000Y3071387D01*
X8030335Y3067476D01*
X8013664Y3056336D01*
X8011662Y3053341D01*
X7558451D01*
X7553191Y3066041D01*
X7676466Y3189316D01*
X7680000Y3188613D01*
X7699665Y3192524D01*
X7716336Y3203664D01*
X7727476Y3220335D01*
X7731387Y3240000D01*
X7727476Y3259665D01*
X7716336Y3276336D01*
X7699665Y3287476D01*
X7680000Y3291387D01*
D02*
G37*
G36*
X8725400Y3222900D02*
X8562700D01*
Y3105200D01*
X8725400D01*
Y3222900D01*
D02*
G37*
G36*
X8537300D02*
X8374600D01*
Y3105200D01*
X8537300D01*
Y3222900D01*
D02*
G37*
G36*
X1270000Y3256901D02*
X1248803Y3254110D01*
X1229050Y3245928D01*
X1212088Y3232913D01*
X1199072Y3215950D01*
X1190890Y3196198D01*
X1188099Y3175000D01*
X1190890Y3153802D01*
X1199072Y3134050D01*
X1212088Y3117087D01*
X1229050Y3104072D01*
X1248803Y3095890D01*
X1270000Y3093099D01*
X1291198Y3095890D01*
X1310951Y3104072D01*
X1327913Y3117087D01*
X1340928Y3134050D01*
X1349110Y3153802D01*
X1351901Y3175000D01*
X1349110Y3196198D01*
X1340928Y3215950D01*
X1327913Y3232913D01*
X1310951Y3245928D01*
X1291198Y3254110D01*
X1270000Y3256901D01*
D02*
G37*
G36*
X1016000D02*
X994803Y3254110D01*
X975050Y3245928D01*
X958088Y3232913D01*
X945072Y3215950D01*
X936890Y3196198D01*
X934099Y3175000D01*
X936890Y3153802D01*
X945072Y3134050D01*
X958088Y3117087D01*
X975050Y3104072D01*
X994803Y3095890D01*
X1016000Y3093099D01*
X1037198Y3095890D01*
X1056951Y3104072D01*
X1073913Y3117087D01*
X1086928Y3134050D01*
X1095110Y3153802D01*
X1097901Y3175000D01*
X1095110Y3196198D01*
X1086928Y3215950D01*
X1073913Y3232913D01*
X1056951Y3245928D01*
X1037198Y3254110D01*
X1016000Y3256901D01*
D02*
G37*
G36*
X762000D02*
X740803Y3254110D01*
X721050Y3245928D01*
X704088Y3232913D01*
X691072Y3215950D01*
X682890Y3196198D01*
X680099Y3175000D01*
X682890Y3153802D01*
X691072Y3134050D01*
X704088Y3117087D01*
X721050Y3104072D01*
X740803Y3095890D01*
X762000Y3093099D01*
X783198Y3095890D01*
X802951Y3104072D01*
X819913Y3117087D01*
X832928Y3134050D01*
X841110Y3153802D01*
X843901Y3175000D01*
X841110Y3196198D01*
X832928Y3215950D01*
X819913Y3232913D01*
X802951Y3245928D01*
X783198Y3254110D01*
X762000Y3256901D01*
D02*
G37*
G36*
X508000D02*
X486803Y3254110D01*
X467050Y3245928D01*
X450088Y3232913D01*
X437072Y3215950D01*
X428890Y3196198D01*
X426099Y3175000D01*
X428890Y3153802D01*
X437072Y3134050D01*
X450088Y3117087D01*
X467050Y3104072D01*
X486803Y3095890D01*
X508000Y3093099D01*
X529198Y3095890D01*
X548951Y3104072D01*
X565913Y3117087D01*
X578928Y3134050D01*
X587110Y3153802D01*
X589901Y3175000D01*
X587110Y3196198D01*
X578928Y3215950D01*
X565913Y3232913D01*
X548951Y3245928D01*
X529198Y3254110D01*
X508000Y3256901D01*
D02*
G37*
G36*
X8725400Y3079800D02*
X8562700D01*
Y2962100D01*
X8725400D01*
Y3079800D01*
D02*
G37*
G36*
X8537300D02*
X8374600D01*
Y2962100D01*
X8537300D01*
Y3079800D01*
D02*
G37*
G36*
X2260600Y3023187D02*
X2240935Y3019276D01*
X2224264Y3008136D01*
X2213124Y2991465D01*
X2209213Y2971800D01*
X2213124Y2952135D01*
X2224264Y2935464D01*
X2240935Y2924324D01*
X2260600Y2920413D01*
X2280265Y2924324D01*
X2296936Y2935464D01*
X2308076Y2952135D01*
X2311987Y2971800D01*
X2308076Y2991465D01*
X2296936Y3008136D01*
X2280265Y3019276D01*
X2260600Y3023187D01*
D02*
G37*
G36*
X7970000Y2971387D02*
X7950335Y2967476D01*
X7933664Y2956336D01*
X7931662Y2953341D01*
X5990000D01*
X5977241Y2950803D01*
X5966425Y2943575D01*
X5838747Y2815898D01*
X5219347D01*
X5217345Y2818893D01*
X5200674Y2830033D01*
X5181009Y2833944D01*
X5161344Y2830033D01*
X5144673Y2818893D01*
X5133534Y2802222D01*
X5129622Y2782557D01*
X5133534Y2762892D01*
X5144673Y2746221D01*
X5161344Y2735081D01*
X5181009Y2731170D01*
X5200674Y2735081D01*
X5217345Y2746221D01*
X5219347Y2749216D01*
X5852557D01*
X5865316Y2751754D01*
X5876132Y2758982D01*
X6003810Y2886659D01*
X7931662D01*
X7933664Y2883664D01*
X7950335Y2872524D01*
X7970000Y2868613D01*
X7989665Y2872524D01*
X8006336Y2883664D01*
X8017476Y2900335D01*
X8021387Y2920000D01*
X8017476Y2939665D01*
X8006336Y2956336D01*
X7989665Y2967476D01*
X7970000Y2971387D01*
D02*
G37*
G36*
X1270000Y3002901D02*
X1248803Y3000110D01*
X1229050Y2991928D01*
X1212088Y2978913D01*
X1199072Y2961950D01*
X1190890Y2942198D01*
X1188099Y2921000D01*
X1190890Y2899802D01*
X1199072Y2880050D01*
X1212088Y2863087D01*
X1229050Y2850072D01*
X1248803Y2841890D01*
X1270000Y2839099D01*
X1291198Y2841890D01*
X1310951Y2850072D01*
X1327913Y2863087D01*
X1340928Y2880050D01*
X1349110Y2899802D01*
X1351901Y2921000D01*
X1349110Y2942198D01*
X1340928Y2961950D01*
X1327913Y2978913D01*
X1310951Y2991928D01*
X1291198Y3000110D01*
X1270000Y3002901D01*
D02*
G37*
G36*
X1016000D02*
X994803Y3000110D01*
X975050Y2991928D01*
X958088Y2978913D01*
X945072Y2961950D01*
X936890Y2942198D01*
X934099Y2921000D01*
X936890Y2899802D01*
X945072Y2880050D01*
X958088Y2863087D01*
X975050Y2850072D01*
X994803Y2841890D01*
X1016000Y2839099D01*
X1037198Y2841890D01*
X1056951Y2850072D01*
X1073913Y2863087D01*
X1086928Y2880050D01*
X1095110Y2899802D01*
X1097901Y2921000D01*
X1095110Y2942198D01*
X1086928Y2961950D01*
X1073913Y2978913D01*
X1056951Y2991928D01*
X1037198Y3000110D01*
X1016000Y3002901D01*
D02*
G37*
G36*
X762000D02*
X740803Y3000110D01*
X721050Y2991928D01*
X704088Y2978913D01*
X691072Y2961950D01*
X682890Y2942198D01*
X680099Y2921000D01*
X682890Y2899802D01*
X691072Y2880050D01*
X704088Y2863087D01*
X721050Y2850072D01*
X740803Y2841890D01*
X762000Y2839099D01*
X783198Y2841890D01*
X802951Y2850072D01*
X819913Y2863087D01*
X832928Y2880050D01*
X841110Y2899802D01*
X843901Y2921000D01*
X841110Y2942198D01*
X832928Y2961950D01*
X819913Y2978913D01*
X802951Y2991928D01*
X783198Y3000110D01*
X762000Y3002901D01*
D02*
G37*
G36*
X508000D02*
X486803Y3000110D01*
X467050Y2991928D01*
X450088Y2978913D01*
X437072Y2961950D01*
X428890Y2942198D01*
X426099Y2921000D01*
X428890Y2899802D01*
X437072Y2880050D01*
X450088Y2863087D01*
X467050Y2850072D01*
X486803Y2841890D01*
X508000Y2839099D01*
X529198Y2841890D01*
X548951Y2850072D01*
X565913Y2863087D01*
X578928Y2880050D01*
X587110Y2899802D01*
X589901Y2921000D01*
X587110Y2942198D01*
X578928Y2961950D01*
X565913Y2978913D01*
X548951Y2991928D01*
X529198Y3000110D01*
X508000Y3002901D01*
D02*
G37*
G36*
X8352700Y2890200D02*
X8167300D01*
Y2784800D01*
X8352700D01*
Y2890200D01*
D02*
G37*
G36*
X4241800Y2870787D02*
X4222135Y2866876D01*
X4205464Y2855736D01*
X4194324Y2839065D01*
X4190413Y2819400D01*
X4194324Y2799735D01*
X4205464Y2783064D01*
X4222135Y2771924D01*
X4241800Y2768013D01*
X4261465Y2771924D01*
X4278136Y2783064D01*
X4289276Y2799735D01*
X4293187Y2819400D01*
X4289276Y2839065D01*
X4278136Y2855736D01*
X4261465Y2866876D01*
X4241800Y2870787D01*
D02*
G37*
G36*
X2550000Y2851387D02*
X2530335Y2847476D01*
X2513664Y2836336D01*
X2502524Y2819665D01*
X2498613Y2800000D01*
X2498765Y2799233D01*
X2075218Y2375686D01*
X2036771D01*
X2036336Y2376336D01*
X2019665Y2387476D01*
X2000000Y2391387D01*
X1980335Y2387476D01*
X1963664Y2376336D01*
X1952524Y2359665D01*
X1948613Y2340000D01*
X1952524Y2320335D01*
X1963664Y2303664D01*
X1980335Y2292524D01*
X2000000Y2288613D01*
X2019665Y2292524D01*
X2036336Y2303664D01*
X2036771Y2304314D01*
X2090000D01*
X2103656Y2307031D01*
X2115234Y2314766D01*
X2499437Y2698970D01*
X2511142Y2692714D01*
X2508613Y2680000D01*
X2508765Y2679233D01*
X2000544Y2171011D01*
X1992808Y2159434D01*
X1990092Y2145777D01*
Y2056399D01*
X1989441Y2055964D01*
X1978302Y2039293D01*
X1974390Y2019628D01*
X1978302Y1999963D01*
X1989441Y1983292D01*
X2006112Y1972153D01*
X2025777Y1968241D01*
X2045442Y1972153D01*
X2062113Y1983292D01*
X2073253Y1999963D01*
X2077165Y2019628D01*
X2073253Y2039293D01*
X2062113Y2055964D01*
X2061463Y2056399D01*
Y2130996D01*
X2559233Y2628765D01*
X2560000Y2628613D01*
X2579665Y2632524D01*
X2596336Y2643664D01*
X2607476Y2660335D01*
X2611387Y2680000D01*
X2607476Y2699665D01*
X2596336Y2716336D01*
X2579665Y2727476D01*
X2560000Y2731387D01*
X2547286Y2728858D01*
X2541386Y2739897D01*
X2549626Y2748687D01*
X2550000Y2748613D01*
X2569665Y2752524D01*
X2586336Y2763664D01*
X2597476Y2780335D01*
X2601387Y2800000D01*
X2597476Y2819665D01*
X2586336Y2836336D01*
X2569665Y2847476D01*
X2550000Y2851387D01*
D02*
G37*
G36*
X3009900Y2832687D02*
X2990235Y2828776D01*
X2973564Y2817636D01*
X2962424Y2800965D01*
X2958513Y2781300D01*
X2962424Y2761635D01*
X2973564Y2744964D01*
X2990235Y2733824D01*
X3009900Y2729913D01*
X3029565Y2733824D01*
X3046236Y2744964D01*
X3057376Y2761635D01*
X3061287Y2781300D01*
X3057376Y2800965D01*
X3046236Y2817636D01*
X3029565Y2828776D01*
X3009900Y2832687D01*
D02*
G37*
G36*
X4673600Y2769187D02*
X4653935Y2765276D01*
X4637264Y2754136D01*
X4626124Y2737465D01*
X4622213Y2717800D01*
X4626124Y2698135D01*
X4637264Y2681464D01*
X4653935Y2670324D01*
X4673600Y2666413D01*
X4693265Y2670324D01*
X4709936Y2681464D01*
X4721076Y2698135D01*
X4724987Y2717800D01*
X4721076Y2737465D01*
X4709936Y2754136D01*
X4693265Y2765276D01*
X4673600Y2769187D01*
D02*
G37*
G36*
X3225800D02*
X3206135Y2765276D01*
X3189464Y2754136D01*
X3178324Y2737465D01*
X3174413Y2717800D01*
X3178324Y2698135D01*
X3189464Y2681464D01*
X3206135Y2670324D01*
X3225800Y2666413D01*
X3245465Y2670324D01*
X3262136Y2681464D01*
X3273276Y2698135D01*
X3277187Y2717800D01*
X3273276Y2737465D01*
X3262136Y2754136D01*
X3245465Y2765276D01*
X3225800Y2769187D01*
D02*
G37*
G36*
X8352700Y2765200D02*
X8167300D01*
Y2659800D01*
X8352700D01*
Y2765200D01*
D02*
G37*
G36*
Y2640200D02*
X8167300D01*
Y2598741D01*
X7963138D01*
X7961136Y2601736D01*
X7944465Y2612876D01*
X7924800Y2616787D01*
X7905135Y2612876D01*
X7888464Y2601736D01*
X7877324Y2585065D01*
X7873413Y2565400D01*
X7877324Y2545735D01*
X7888464Y2529064D01*
X7905135Y2517924D01*
X7924800Y2514013D01*
X7944465Y2517924D01*
X7961136Y2529064D01*
X7963138Y2532059D01*
X8237900D01*
X8250659Y2534597D01*
X8250962Y2534800D01*
X8352700D01*
Y2640200D01*
D02*
G37*
G36*
X1270000Y2748901D02*
X1248803Y2746110D01*
X1229050Y2737928D01*
X1212088Y2724913D01*
X1199072Y2707950D01*
X1190890Y2688198D01*
X1188099Y2667000D01*
X1190890Y2645802D01*
X1199072Y2626050D01*
X1212088Y2609087D01*
X1229050Y2596072D01*
X1248803Y2587890D01*
X1270000Y2585099D01*
X1291198Y2587890D01*
X1310951Y2596072D01*
X1327913Y2609087D01*
X1340928Y2626050D01*
X1349110Y2645802D01*
X1351901Y2667000D01*
X1349110Y2688198D01*
X1340928Y2707950D01*
X1327913Y2724913D01*
X1310951Y2737928D01*
X1291198Y2746110D01*
X1270000Y2748901D01*
D02*
G37*
G36*
X1016000D02*
X994803Y2746110D01*
X975050Y2737928D01*
X958088Y2724913D01*
X945072Y2707950D01*
X936890Y2688198D01*
X934099Y2667000D01*
X936890Y2645802D01*
X945072Y2626050D01*
X958088Y2609087D01*
X975050Y2596072D01*
X994803Y2587890D01*
X1016000Y2585099D01*
X1037198Y2587890D01*
X1056951Y2596072D01*
X1073913Y2609087D01*
X1086928Y2626050D01*
X1095110Y2645802D01*
X1097901Y2667000D01*
X1095110Y2688198D01*
X1086928Y2707950D01*
X1073913Y2724913D01*
X1056951Y2737928D01*
X1037198Y2746110D01*
X1016000Y2748901D01*
D02*
G37*
G36*
X762000D02*
X740803Y2746110D01*
X721050Y2737928D01*
X704088Y2724913D01*
X691072Y2707950D01*
X682890Y2688198D01*
X680099Y2667000D01*
X682890Y2645802D01*
X691072Y2626050D01*
X704088Y2609087D01*
X721050Y2596072D01*
X740803Y2587890D01*
X762000Y2585099D01*
X783198Y2587890D01*
X802951Y2596072D01*
X819913Y2609087D01*
X832928Y2626050D01*
X841110Y2645802D01*
X843901Y2667000D01*
X841110Y2688198D01*
X832928Y2707950D01*
X819913Y2724913D01*
X802951Y2737928D01*
X783198Y2746110D01*
X762000Y2748901D01*
D02*
G37*
G36*
X508000D02*
X486803Y2746110D01*
X467050Y2737928D01*
X450088Y2724913D01*
X437072Y2707950D01*
X428890Y2688198D01*
X426099Y2667000D01*
X428890Y2645802D01*
X437072Y2626050D01*
X450088Y2609087D01*
X467050Y2596072D01*
X486803Y2587890D01*
X508000Y2585099D01*
X529198Y2587890D01*
X548951Y2596072D01*
X565913Y2609087D01*
X578928Y2626050D01*
X587110Y2645802D01*
X589901Y2667000D01*
X587110Y2688198D01*
X578928Y2707950D01*
X565913Y2724913D01*
X548951Y2737928D01*
X529198Y2746110D01*
X508000Y2748901D01*
D02*
G37*
G36*
X8352700Y2515200D02*
X8167300D01*
Y2497141D01*
X7886938D01*
X7884936Y2500136D01*
X7868265Y2511276D01*
X7848600Y2515187D01*
X7828935Y2511276D01*
X7812264Y2500136D01*
X7801124Y2483465D01*
X7797213Y2463800D01*
X7801124Y2444135D01*
X7812264Y2427464D01*
X7828935Y2416324D01*
X7848600Y2412413D01*
X7868265Y2416324D01*
X7884936Y2427464D01*
X7886938Y2430459D01*
X8167300D01*
Y2409800D01*
X8352700D01*
Y2515200D01*
D02*
G37*
G36*
X7310000Y2591387D02*
X7290335Y2587476D01*
X7273664Y2576336D01*
X7262524Y2559665D01*
X7258613Y2540000D01*
X7262524Y2520335D01*
X7273664Y2503664D01*
X7290335Y2492524D01*
X7310000Y2488613D01*
X7329665Y2492524D01*
X7346336Y2503664D01*
X7357476Y2520335D01*
X7361387Y2540000D01*
X7357476Y2559665D01*
X7346336Y2576336D01*
X7329665Y2587476D01*
X7310000Y2591387D01*
D02*
G37*
G36*
X1270000Y2494901D02*
X1248803Y2492110D01*
X1229050Y2483928D01*
X1212088Y2470913D01*
X1199072Y2453950D01*
X1190890Y2434198D01*
X1188099Y2413000D01*
X1190890Y2391802D01*
X1199072Y2372050D01*
X1212088Y2355087D01*
X1229050Y2342072D01*
X1248803Y2333890D01*
X1270000Y2331099D01*
X1291198Y2333890D01*
X1310951Y2342072D01*
X1327913Y2355087D01*
X1340928Y2372050D01*
X1349110Y2391802D01*
X1351901Y2413000D01*
X1349110Y2434198D01*
X1340928Y2453950D01*
X1327913Y2470913D01*
X1310951Y2483928D01*
X1291198Y2492110D01*
X1270000Y2494901D01*
D02*
G37*
G36*
X1016000D02*
X994803Y2492110D01*
X975050Y2483928D01*
X958088Y2470913D01*
X945072Y2453950D01*
X936890Y2434198D01*
X934099Y2413000D01*
X936890Y2391802D01*
X945072Y2372050D01*
X958088Y2355087D01*
X975050Y2342072D01*
X994803Y2333890D01*
X1016000Y2331099D01*
X1037198Y2333890D01*
X1056951Y2342072D01*
X1073913Y2355087D01*
X1086928Y2372050D01*
X1095110Y2391802D01*
X1097901Y2413000D01*
X1095110Y2434198D01*
X1086928Y2453950D01*
X1073913Y2470913D01*
X1056951Y2483928D01*
X1037198Y2492110D01*
X1016000Y2494901D01*
D02*
G37*
G36*
X762000D02*
X740803Y2492110D01*
X721050Y2483928D01*
X704088Y2470913D01*
X691072Y2453950D01*
X682890Y2434198D01*
X680099Y2413000D01*
X682890Y2391802D01*
X691072Y2372050D01*
X704088Y2355087D01*
X721050Y2342072D01*
X740803Y2333890D01*
X762000Y2331099D01*
X783198Y2333890D01*
X802951Y2342072D01*
X819913Y2355087D01*
X832928Y2372050D01*
X841110Y2391802D01*
X843901Y2413000D01*
X841110Y2434198D01*
X832928Y2453950D01*
X819913Y2470913D01*
X802951Y2483928D01*
X783198Y2492110D01*
X762000Y2494901D01*
D02*
G37*
G36*
X508000D02*
X486803Y2492110D01*
X467050Y2483928D01*
X450088Y2470913D01*
X437072Y2453950D01*
X428890Y2434198D01*
X426099Y2413000D01*
X428890Y2391802D01*
X437072Y2372050D01*
X450088Y2355087D01*
X467050Y2342072D01*
X486803Y2333890D01*
X508000Y2331099D01*
X529198Y2333890D01*
X548951Y2342072D01*
X565913Y2355087D01*
X578928Y2372050D01*
X587110Y2391802D01*
X589901Y2413000D01*
X587110Y2434198D01*
X578928Y2453950D01*
X565913Y2470913D01*
X548951Y2483928D01*
X529198Y2492110D01*
X508000Y2494901D01*
D02*
G37*
G36*
X7440000Y2391387D02*
X7420335Y2387476D01*
X7403664Y2376336D01*
X7392524Y2359665D01*
X7388613Y2340000D01*
X7392524Y2320335D01*
X7403664Y2303664D01*
X7420335Y2292524D01*
X7440000Y2288613D01*
X7459665Y2292524D01*
X7476336Y2303664D01*
X7487476Y2320335D01*
X7491387Y2340000D01*
X7487476Y2359665D01*
X7476336Y2376336D01*
X7459665Y2387476D01*
X7440000Y2391387D01*
D02*
G37*
G36*
X8352700Y2390200D02*
X8167300D01*
Y2284800D01*
X8352700D01*
Y2390200D01*
D02*
G37*
G36*
X3560000Y2381387D02*
X3540335Y2377476D01*
X3523664Y2366336D01*
X3512524Y2349665D01*
X3508613Y2330000D01*
X3512524Y2310335D01*
X3523664Y2293664D01*
X3540335Y2282524D01*
X3560000Y2278613D01*
X3579665Y2282524D01*
X3596336Y2293664D01*
X3607476Y2310335D01*
X3611387Y2330000D01*
X3607476Y2349665D01*
X3596336Y2366336D01*
X3579665Y2377476D01*
X3560000Y2381387D01*
D02*
G37*
G36*
X6330000Y2331387D02*
X6310335Y2327476D01*
X6293664Y2316336D01*
X6282524Y2299665D01*
X6278613Y2280000D01*
X6282524Y2260335D01*
X6293664Y2243664D01*
X6310335Y2232524D01*
X6330000Y2228613D01*
X6349665Y2232524D01*
X6365806Y2243309D01*
X6525324D01*
X6529564Y2236964D01*
X6546235Y2225824D01*
X6565900Y2221913D01*
X6585565Y2225824D01*
X6602236Y2236964D01*
X6613376Y2253635D01*
X6617287Y2273300D01*
X6613376Y2292965D01*
X6602236Y2309636D01*
X6585565Y2320776D01*
X6565900Y2324687D01*
X6546235Y2320776D01*
X6530094Y2309991D01*
X6370576D01*
X6366336Y2316336D01*
X6349665Y2327476D01*
X6330000Y2331387D01*
D02*
G37*
G36*
X3670000Y2271387D02*
X3650335Y2267476D01*
X3633664Y2256336D01*
X3622524Y2239665D01*
X3618613Y2220000D01*
X3622524Y2200335D01*
X3633664Y2183664D01*
X3650335Y2172524D01*
X3670000Y2168613D01*
X3689665Y2172524D01*
X3706336Y2183664D01*
X3717476Y2200335D01*
X3721387Y2220000D01*
X3717476Y2239665D01*
X3706336Y2256336D01*
X3689665Y2267476D01*
X3670000Y2271387D01*
D02*
G37*
G36*
X8352700Y2265200D02*
X8167300D01*
Y2159800D01*
X8352700D01*
Y2265200D01*
D02*
G37*
G36*
X3910000Y2251387D02*
X3890335Y2247476D01*
X3873664Y2236336D01*
X3862524Y2219665D01*
X3858613Y2200000D01*
X3862524Y2180335D01*
X3873664Y2163664D01*
X3890335Y2152524D01*
X3910000Y2148613D01*
X3929665Y2152524D01*
X3946336Y2163664D01*
X3957476Y2180335D01*
X3961387Y2200000D01*
X3957476Y2219665D01*
X3946336Y2236336D01*
X3929665Y2247476D01*
X3910000Y2251387D01*
D02*
G37*
G36*
X1270000Y2240901D02*
X1248803Y2238110D01*
X1229050Y2229928D01*
X1212088Y2216913D01*
X1199072Y2199950D01*
X1190890Y2180198D01*
X1188099Y2159000D01*
X1190890Y2137802D01*
X1199072Y2118050D01*
X1212088Y2101087D01*
X1229050Y2088072D01*
X1248803Y2079890D01*
X1270000Y2077099D01*
X1291198Y2079890D01*
X1310951Y2088072D01*
X1327913Y2101087D01*
X1340928Y2118050D01*
X1349110Y2137802D01*
X1351901Y2159000D01*
X1349110Y2180198D01*
X1340928Y2199950D01*
X1327913Y2216913D01*
X1310951Y2229928D01*
X1291198Y2238110D01*
X1270000Y2240901D01*
D02*
G37*
G36*
X1016000D02*
X994803Y2238110D01*
X975050Y2229928D01*
X958088Y2216913D01*
X945072Y2199950D01*
X936890Y2180198D01*
X934099Y2159000D01*
X936890Y2137802D01*
X945072Y2118050D01*
X958088Y2101087D01*
X975050Y2088072D01*
X994803Y2079890D01*
X1016000Y2077099D01*
X1037198Y2079890D01*
X1056951Y2088072D01*
X1073913Y2101087D01*
X1086928Y2118050D01*
X1095110Y2137802D01*
X1097901Y2159000D01*
X1095110Y2180198D01*
X1086928Y2199950D01*
X1073913Y2216913D01*
X1056951Y2229928D01*
X1037198Y2238110D01*
X1016000Y2240901D01*
D02*
G37*
G36*
X762000D02*
X740803Y2238110D01*
X721050Y2229928D01*
X704088Y2216913D01*
X691072Y2199950D01*
X682890Y2180198D01*
X680099Y2159000D01*
X682890Y2137802D01*
X691072Y2118050D01*
X704088Y2101087D01*
X721050Y2088072D01*
X740803Y2079890D01*
X762000Y2077099D01*
X783198Y2079890D01*
X802951Y2088072D01*
X819913Y2101087D01*
X832928Y2118050D01*
X841110Y2137802D01*
X843901Y2159000D01*
X841110Y2180198D01*
X832928Y2199950D01*
X819913Y2216913D01*
X802951Y2229928D01*
X783198Y2238110D01*
X762000Y2240901D01*
D02*
G37*
G36*
X508000D02*
X486803Y2238110D01*
X467050Y2229928D01*
X450088Y2216913D01*
X437072Y2199950D01*
X428890Y2180198D01*
X426099Y2159000D01*
X428890Y2137802D01*
X437072Y2118050D01*
X450088Y2101087D01*
X467050Y2088072D01*
X486803Y2079890D01*
X508000Y2077099D01*
X529198Y2079890D01*
X548951Y2088072D01*
X565913Y2101087D01*
X578928Y2118050D01*
X587110Y2137802D01*
X589901Y2159000D01*
X587110Y2180198D01*
X578928Y2199950D01*
X565913Y2216913D01*
X548951Y2229928D01*
X529198Y2238110D01*
X508000Y2240901D01*
D02*
G37*
G36*
X8110000Y2141387D02*
X8090335Y2137476D01*
X8073664Y2126336D01*
X8062524Y2109665D01*
X8058613Y2090000D01*
X8062524Y2070335D01*
X8073664Y2053664D01*
X8090335Y2042524D01*
X8110000Y2038613D01*
X8129665Y2042524D01*
X8146336Y2053664D01*
X8148338Y2056659D01*
X8167300D01*
Y2034800D01*
X8352700D01*
Y2140200D01*
X8167300D01*
Y2123340D01*
X8148338D01*
X8146336Y2126336D01*
X8129665Y2137476D01*
X8110000Y2141387D01*
D02*
G37*
G36*
X5800000Y2011387D02*
X5780335Y2007476D01*
X5763664Y1996336D01*
X5761662Y1993340D01*
X4758338D01*
X4756336Y1996336D01*
X4739665Y2007476D01*
X4720000Y2011387D01*
X4700335Y2007476D01*
X4683664Y1996336D01*
X4672524Y1979665D01*
X4668613Y1960000D01*
X4672524Y1940335D01*
X4683664Y1923664D01*
X4700335Y1912524D01*
X4720000Y1908613D01*
X4739665Y1912524D01*
X4756336Y1923664D01*
X4758338Y1926659D01*
X5761662D01*
X5763664Y1923664D01*
X5780335Y1912524D01*
X5800000Y1908613D01*
X5819665Y1912524D01*
X5836336Y1923664D01*
X5847476Y1940335D01*
X5851387Y1960000D01*
X5847476Y1979665D01*
X5836336Y1996336D01*
X5819665Y2007476D01*
X5800000Y2011387D01*
D02*
G37*
G36*
X7430000Y2081387D02*
X7410335Y2077476D01*
X7393664Y2066336D01*
X7382524Y2049665D01*
X7378613Y2030000D01*
X7382524Y2010335D01*
X7393664Y1993664D01*
X7410335Y1982524D01*
X7430000Y1978613D01*
X7449665Y1982524D01*
X7466336Y1993664D01*
X7477476Y2010335D01*
X7481387Y2030000D01*
X7477476Y2049665D01*
X7466336Y2066336D01*
X7449665Y2077476D01*
X7430000Y2081387D01*
D02*
G37*
G36*
X8352700Y2015200D02*
X8167300D01*
Y1909800D01*
X8352700D01*
Y2015200D01*
D02*
G37*
G36*
X5210000Y1871387D02*
X5190335Y1867476D01*
X5173664Y1856336D01*
X5162524Y1839665D01*
X5160480Y1829386D01*
X5147531D01*
X5147476Y1829665D01*
X5136336Y1846336D01*
X5119665Y1857476D01*
X5100000Y1861387D01*
X5080335Y1857476D01*
X5063664Y1846336D01*
X5052524Y1829665D01*
X5048613Y1810000D01*
X5052524Y1790335D01*
X5063664Y1773664D01*
X5080335Y1762524D01*
X5100000Y1758613D01*
X5119665Y1762524D01*
X5136336Y1773664D01*
X5147476Y1790335D01*
X5149520Y1800613D01*
X5162469D01*
X5162524Y1800335D01*
X5173664Y1783664D01*
X5190335Y1772524D01*
X5210000Y1768613D01*
X5229665Y1772524D01*
X5246336Y1783664D01*
X5257476Y1800335D01*
X5261387Y1820000D01*
X5257476Y1839665D01*
X5246336Y1856336D01*
X5229665Y1867476D01*
X5210000Y1871387D01*
D02*
G37*
G36*
X1270000Y1986901D02*
X1248803Y1984110D01*
X1229050Y1975928D01*
X1212088Y1962913D01*
X1199072Y1945950D01*
X1190890Y1926198D01*
X1188099Y1905000D01*
X1190890Y1883802D01*
X1199072Y1864050D01*
X1212088Y1847087D01*
X1229050Y1834072D01*
X1248803Y1825890D01*
X1270000Y1823099D01*
X1291198Y1825890D01*
X1310951Y1834072D01*
X1327913Y1847087D01*
X1340928Y1864050D01*
X1349110Y1883802D01*
X1351901Y1905000D01*
X1349110Y1926198D01*
X1340928Y1945950D01*
X1327913Y1962913D01*
X1310951Y1975928D01*
X1291198Y1984110D01*
X1270000Y1986901D01*
D02*
G37*
G36*
X1016000D02*
X994803Y1984110D01*
X975050Y1975928D01*
X958088Y1962913D01*
X945072Y1945950D01*
X936890Y1926198D01*
X934099Y1905000D01*
X936890Y1883802D01*
X945072Y1864050D01*
X958088Y1847087D01*
X975050Y1834072D01*
X994803Y1825890D01*
X1016000Y1823099D01*
X1037198Y1825890D01*
X1056951Y1834072D01*
X1073913Y1847087D01*
X1086928Y1864050D01*
X1095110Y1883802D01*
X1097901Y1905000D01*
X1095110Y1926198D01*
X1086928Y1945950D01*
X1073913Y1962913D01*
X1056951Y1975928D01*
X1037198Y1984110D01*
X1016000Y1986901D01*
D02*
G37*
G36*
X762000D02*
X740803Y1984110D01*
X721050Y1975928D01*
X704088Y1962913D01*
X691072Y1945950D01*
X682890Y1926198D01*
X680099Y1905000D01*
X682890Y1883802D01*
X691072Y1864050D01*
X704088Y1847087D01*
X721050Y1834072D01*
X740803Y1825890D01*
X762000Y1823099D01*
X783198Y1825890D01*
X802951Y1834072D01*
X819913Y1847087D01*
X832928Y1864050D01*
X841110Y1883802D01*
X843901Y1905000D01*
X841110Y1926198D01*
X832928Y1945950D01*
X819913Y1962913D01*
X802951Y1975928D01*
X783198Y1984110D01*
X762000Y1986901D01*
D02*
G37*
G36*
X508000D02*
X486803Y1984110D01*
X467050Y1975928D01*
X450088Y1962913D01*
X437072Y1945950D01*
X428890Y1926198D01*
X426099Y1905000D01*
X428890Y1883802D01*
X437072Y1864050D01*
X450088Y1847087D01*
X467050Y1834072D01*
X486803Y1825890D01*
X508000Y1823099D01*
X529198Y1825890D01*
X548951Y1834072D01*
X565913Y1847087D01*
X578928Y1864050D01*
X587110Y1883802D01*
X589901Y1905000D01*
X587110Y1926198D01*
X578928Y1945950D01*
X565913Y1962913D01*
X548951Y1975928D01*
X529198Y1984110D01*
X508000Y1986901D01*
D02*
G37*
G36*
X4450000Y1871387D02*
X4430335Y1867476D01*
X4413664Y1856336D01*
X4402524Y1839665D01*
X4398613Y1820000D01*
X4402524Y1800335D01*
X4413664Y1783664D01*
X4430335Y1772524D01*
X4450000Y1768613D01*
X4469665Y1772524D01*
X4486336Y1783664D01*
X4497476Y1800335D01*
X4501387Y1820000D01*
X4497476Y1839665D01*
X4486336Y1856336D01*
X4469665Y1867476D01*
X4450000Y1871387D01*
D02*
G37*
G36*
X2700000Y2741387D02*
X2680335Y2737476D01*
X2663664Y2726336D01*
X2652524Y2709665D01*
X2648613Y2690000D01*
X2652524Y2670335D01*
X2663664Y2653664D01*
X2666659Y2651662D01*
Y2393810D01*
X2023534Y1750684D01*
X2020000Y1751387D01*
X2000335Y1747476D01*
X1983664Y1736336D01*
X1972524Y1719665D01*
X1968613Y1700000D01*
X1972524Y1680335D01*
X1983664Y1663664D01*
X2000335Y1652524D01*
X2020000Y1648613D01*
X2039665Y1652524D01*
X2056336Y1663664D01*
X2067476Y1680335D01*
X2071387Y1700000D01*
X2070684Y1703534D01*
X2723575Y2356425D01*
X2730803Y2367241D01*
X2733340Y2380000D01*
Y2651662D01*
X2736336Y2653664D01*
X2747476Y2670335D01*
X2751387Y2690000D01*
X2747476Y2709665D01*
X2736336Y2726336D01*
X2719665Y2737476D01*
X2700000Y2741387D01*
D02*
G37*
G36*
X8725400Y1837900D02*
X8562700D01*
Y1720200D01*
X8725400D01*
Y1837900D01*
D02*
G37*
G36*
X8537300D02*
X8374600D01*
Y1720200D01*
X8537300D01*
Y1837900D01*
D02*
G37*
G36*
X3620000Y1801387D02*
X3600335Y1797476D01*
X3583664Y1786336D01*
X3572524Y1769665D01*
X3568613Y1750000D01*
X3572524Y1730335D01*
X3583664Y1713664D01*
X3600335Y1702524D01*
X3620000Y1698613D01*
X3639665Y1702524D01*
X3656336Y1713664D01*
X3667476Y1730335D01*
X3671387Y1750000D01*
X3667476Y1769665D01*
X3656336Y1786336D01*
X3639665Y1797476D01*
X3620000Y1801387D01*
D02*
G37*
G36*
X8725400Y1694800D02*
X8562700D01*
Y1577100D01*
X8725400D01*
Y1694800D01*
D02*
G37*
G36*
X8537300D02*
X8374600D01*
Y1577100D01*
X8537300D01*
Y1694800D01*
D02*
G37*
G36*
X1270000Y1732901D02*
X1248803Y1730110D01*
X1229050Y1721928D01*
X1212088Y1708913D01*
X1199072Y1691950D01*
X1190890Y1672198D01*
X1188099Y1651000D01*
X1190890Y1629802D01*
X1199072Y1610050D01*
X1212088Y1593087D01*
X1229050Y1580072D01*
X1248803Y1571890D01*
X1270000Y1569099D01*
X1291198Y1571890D01*
X1310951Y1580072D01*
X1327913Y1593087D01*
X1340928Y1610050D01*
X1349110Y1629802D01*
X1351901Y1651000D01*
X1349110Y1672198D01*
X1340928Y1691950D01*
X1327913Y1708913D01*
X1310951Y1721928D01*
X1291198Y1730110D01*
X1270000Y1732901D01*
D02*
G37*
G36*
X1016000D02*
X994803Y1730110D01*
X975050Y1721928D01*
X958088Y1708913D01*
X945072Y1691950D01*
X936890Y1672198D01*
X934099Y1651000D01*
X936890Y1629802D01*
X945072Y1610050D01*
X958088Y1593087D01*
X975050Y1580072D01*
X994803Y1571890D01*
X1016000Y1569099D01*
X1037198Y1571890D01*
X1056951Y1580072D01*
X1073913Y1593087D01*
X1086928Y1610050D01*
X1095110Y1629802D01*
X1097901Y1651000D01*
X1095110Y1672198D01*
X1086928Y1691950D01*
X1073913Y1708913D01*
X1056951Y1721928D01*
X1037198Y1730110D01*
X1016000Y1732901D01*
D02*
G37*
G36*
X762000D02*
X740803Y1730110D01*
X721050Y1721928D01*
X704088Y1708913D01*
X691072Y1691950D01*
X682890Y1672198D01*
X680099Y1651000D01*
X682890Y1629802D01*
X691072Y1610050D01*
X704088Y1593087D01*
X721050Y1580072D01*
X740803Y1571890D01*
X762000Y1569099D01*
X783198Y1571890D01*
X802951Y1580072D01*
X819913Y1593087D01*
X832928Y1610050D01*
X841110Y1629802D01*
X843901Y1651000D01*
X841110Y1672198D01*
X832928Y1691950D01*
X819913Y1708913D01*
X802951Y1721928D01*
X783198Y1730110D01*
X762000Y1732901D01*
D02*
G37*
G36*
X508000D02*
X486803Y1730110D01*
X467050Y1721928D01*
X450088Y1708913D01*
X437072Y1691950D01*
X428890Y1672198D01*
X426099Y1651000D01*
X428890Y1629802D01*
X437072Y1610050D01*
X450088Y1593087D01*
X467050Y1580072D01*
X486803Y1571890D01*
X508000Y1569099D01*
X529198Y1571890D01*
X548951Y1580072D01*
X565913Y1593087D01*
X578928Y1610050D01*
X587110Y1629802D01*
X589901Y1651000D01*
X587110Y1672198D01*
X578928Y1691950D01*
X565913Y1708913D01*
X548951Y1721928D01*
X529198Y1730110D01*
X508000Y1732901D01*
D02*
G37*
G36*
X7450000Y1571387D02*
X7430335Y1567476D01*
X7413664Y1556336D01*
X7402524Y1539665D01*
X7398613Y1520000D01*
X7402524Y1500335D01*
X7413664Y1483664D01*
X7430335Y1472524D01*
X7450000Y1468613D01*
X7469665Y1472524D01*
X7486336Y1483664D01*
X7497476Y1500335D01*
X7501387Y1520000D01*
X7497476Y1539665D01*
X7486336Y1556336D01*
X7469665Y1567476D01*
X7450000Y1571387D01*
D02*
G37*
G36*
X6770000Y2026266D02*
X6750335Y2022355D01*
X6733664Y2011215D01*
X6722524Y1994544D01*
X6718613Y1974879D01*
X6722524Y1955214D01*
X6733664Y1938543D01*
X6736659Y1936541D01*
Y1383810D01*
X6676190Y1323341D01*
X4618338D01*
X4616336Y1326336D01*
X4599665Y1337476D01*
X4580000Y1341387D01*
X4560335Y1337476D01*
X4543664Y1326336D01*
X4541662Y1323341D01*
X3788338D01*
X3786336Y1326336D01*
X3769665Y1337476D01*
X3750000Y1341387D01*
X3730335Y1337476D01*
X3713664Y1326336D01*
X3711662Y1323341D01*
X2648338D01*
X2646336Y1326336D01*
X2629665Y1337476D01*
X2610000Y1341387D01*
X2590335Y1337476D01*
X2573664Y1326336D01*
X2562524Y1309665D01*
X2558613Y1290000D01*
X2562524Y1270335D01*
X2573664Y1253664D01*
X2590335Y1242524D01*
X2610000Y1238613D01*
X2629665Y1242524D01*
X2646336Y1253664D01*
X2648338Y1256659D01*
X3711662D01*
X3713664Y1253664D01*
X3730335Y1242524D01*
X3750000Y1238613D01*
X3769665Y1242524D01*
X3786336Y1253664D01*
X3788338Y1256659D01*
X4541662D01*
X4543664Y1253664D01*
X4560335Y1242524D01*
X4580000Y1238613D01*
X4599665Y1242524D01*
X4616336Y1253664D01*
X4618338Y1256659D01*
X6690000D01*
X6702759Y1259197D01*
X6713575Y1266425D01*
X6793575Y1346425D01*
X6800803Y1357241D01*
X6803340Y1370000D01*
Y1936541D01*
X6806336Y1938543D01*
X6817476Y1955214D01*
X6821387Y1974879D01*
X6817476Y1994544D01*
X6806336Y2011215D01*
X6789665Y2022355D01*
X6770000Y2026266D01*
D02*
G37*
G36*
X1351200Y1478200D02*
X1188800D01*
Y1315800D01*
X1351200D01*
Y1478200D01*
D02*
G37*
G36*
X843200D02*
X680800D01*
Y1315800D01*
X843200D01*
Y1478200D01*
D02*
G37*
G36*
X1016000Y1478901D02*
X994803Y1476110D01*
X975050Y1467928D01*
X958088Y1454913D01*
X945072Y1437950D01*
X936890Y1418198D01*
X934099Y1397000D01*
X936890Y1375802D01*
X945072Y1356050D01*
X958088Y1339087D01*
X975050Y1326072D01*
X994803Y1317890D01*
X1016000Y1315099D01*
X1037198Y1317890D01*
X1056951Y1326072D01*
X1073913Y1339087D01*
X1086928Y1356050D01*
X1095110Y1375802D01*
X1097901Y1397000D01*
X1095110Y1418198D01*
X1086928Y1437950D01*
X1073913Y1454913D01*
X1056951Y1467928D01*
X1037198Y1476110D01*
X1016000Y1478901D01*
D02*
G37*
G36*
X508000D02*
X486803Y1476110D01*
X467050Y1467928D01*
X450088Y1454913D01*
X437072Y1437950D01*
X428890Y1418198D01*
X426099Y1397000D01*
X428890Y1375802D01*
X437072Y1356050D01*
X450088Y1339087D01*
X467050Y1326072D01*
X486803Y1317890D01*
X508000Y1315099D01*
X529198Y1317890D01*
X548951Y1326072D01*
X565913Y1339087D01*
X578928Y1356050D01*
X587110Y1375802D01*
X589901Y1397000D01*
X587110Y1418198D01*
X578928Y1437950D01*
X565913Y1454913D01*
X548951Y1467928D01*
X529198Y1476110D01*
X508000Y1478901D01*
D02*
G37*
G36*
X6620000Y1241387D02*
X6600335Y1237476D01*
X6583664Y1226336D01*
X6581662Y1223340D01*
X6368338D01*
X6366336Y1226336D01*
X6349665Y1237476D01*
X6330000Y1241387D01*
X6310335Y1237476D01*
X6293664Y1226336D01*
X6282524Y1209665D01*
X6278613Y1190000D01*
X6282524Y1170335D01*
X6293664Y1153664D01*
X6296659Y1151662D01*
Y1093810D01*
X6136190Y933341D01*
X5378338D01*
X5376336Y936336D01*
X5359665Y947476D01*
X5340000Y951387D01*
X5320335Y947476D01*
X5303664Y936336D01*
X5301662Y933341D01*
X4143810D01*
X4063192Y1013959D01*
X4066677Y1026445D01*
X4066853Y1026659D01*
X5431662D01*
X5433664Y1023664D01*
X5450335Y1012524D01*
X5470000Y1008613D01*
X5489665Y1012524D01*
X5506336Y1023664D01*
X5508338Y1026659D01*
X5861662D01*
X5863664Y1023664D01*
X5880335Y1012524D01*
X5900000Y1008613D01*
X5919665Y1012524D01*
X5936336Y1023664D01*
X5947476Y1040335D01*
X5951387Y1060000D01*
X5947476Y1079665D01*
X5936336Y1096336D01*
X5919665Y1107476D01*
X5900000Y1111387D01*
X5880335Y1107476D01*
X5863664Y1096336D01*
X5861662Y1093340D01*
X5508338D01*
X5506336Y1096336D01*
X5489665Y1107476D01*
X5470000Y1111387D01*
X5450335Y1107476D01*
X5433664Y1096336D01*
X5431662Y1093340D01*
X4073047D01*
X4035912Y1130475D01*
X4025096Y1137703D01*
X4012337Y1140241D01*
X3912784D01*
X3898622Y1149704D01*
X3878957Y1153615D01*
X3859292Y1149704D01*
X3845130Y1140241D01*
X3344842D01*
X3337994Y1152941D01*
X3341387Y1170000D01*
X3337476Y1189665D01*
X3326336Y1206336D01*
X3309665Y1217476D01*
X3290000Y1221387D01*
X3270335Y1217476D01*
X3253664Y1206336D01*
X3242524Y1189665D01*
X3238613Y1170000D01*
X3239974Y1163158D01*
X3231917Y1153341D01*
X2798338D01*
X2796336Y1156336D01*
X2779665Y1167476D01*
X2760000Y1171387D01*
X2740335Y1167476D01*
X2723664Y1156336D01*
X2712524Y1139665D01*
X2708613Y1120000D01*
X2712524Y1100335D01*
X2723664Y1083664D01*
X2740335Y1072524D01*
X2760000Y1068613D01*
X2779665Y1072524D01*
X2796336Y1083664D01*
X2798338Y1086659D01*
X3236953D01*
X3240288Y1083325D01*
X3251104Y1076097D01*
X3263863Y1073559D01*
X3833739D01*
X3839257Y1065746D01*
X3834104Y1053341D01*
X2908338D01*
X2906336Y1056336D01*
X2889665Y1067476D01*
X2870000Y1071387D01*
X2850335Y1067476D01*
X2833664Y1056336D01*
X2822524Y1039665D01*
X2818613Y1020000D01*
X2822524Y1000335D01*
X2833664Y983664D01*
X2850335Y972524D01*
X2870000Y968613D01*
X2889665Y972524D01*
X2906336Y983664D01*
X2908338Y986659D01*
X3971662D01*
X3973664Y983664D01*
X3990335Y972524D01*
X4010000Y968613D01*
X4013534Y969316D01*
X4106425Y876425D01*
X4117241Y869197D01*
X4130000Y866659D01*
X5301662D01*
X5303664Y863664D01*
X5320335Y852524D01*
X5340000Y848613D01*
X5359665Y852524D01*
X5376336Y863664D01*
X5378338Y866659D01*
X6150000D01*
X6162759Y869197D01*
X6173575Y876425D01*
X6353575Y1056425D01*
X6360803Y1067241D01*
X6363341Y1080000D01*
Y1151662D01*
X6366336Y1153664D01*
X6368338Y1156659D01*
X6581662D01*
X6583664Y1153664D01*
X6600335Y1142524D01*
X6620000Y1138613D01*
X6639665Y1142524D01*
X6656336Y1153664D01*
X6667476Y1170335D01*
X6671387Y1190000D01*
X6667476Y1209665D01*
X6656336Y1226336D01*
X6639665Y1237476D01*
X6620000Y1241387D01*
D02*
G37*
G36*
X2460000Y1301387D02*
X2440335Y1297476D01*
X2423664Y1286336D01*
X2412524Y1269665D01*
X2408613Y1250000D01*
X2412524Y1230335D01*
X2423664Y1213664D01*
X2440335Y1202524D01*
X2460000Y1198613D01*
X2479665Y1202524D01*
X2496336Y1213664D01*
X2507476Y1230335D01*
X2511387Y1250000D01*
X2507476Y1269665D01*
X2496336Y1286336D01*
X2479665Y1297476D01*
X2460000Y1301387D01*
D02*
G37*
G36*
X7310000Y1121387D02*
X7290335Y1117476D01*
X7273664Y1106336D01*
X7262524Y1089665D01*
X7258613Y1070000D01*
X7262524Y1050335D01*
X7273664Y1033664D01*
X7290335Y1022524D01*
X7310000Y1018613D01*
X7329665Y1022524D01*
X7346336Y1033664D01*
X7357476Y1050335D01*
X7361387Y1070000D01*
X7357476Y1089665D01*
X7346336Y1106336D01*
X7329665Y1117476D01*
X7310000Y1121387D01*
D02*
G37*
G36*
X508000Y1220221D02*
X456186Y1216143D01*
X405647Y1204010D01*
X357629Y1184120D01*
X313313Y1156963D01*
X273791Y1123209D01*
X240037Y1083687D01*
X212880Y1039371D01*
X192990Y991353D01*
X180857Y940814D01*
X176779Y889000D01*
X180857Y837186D01*
X192990Y786647D01*
X212880Y738629D01*
X240037Y694313D01*
X273791Y654791D01*
X313313Y621037D01*
X357629Y593880D01*
X405647Y573990D01*
X456186Y561857D01*
X508000Y557779D01*
X559814Y561857D01*
X610353Y573990D01*
X658371Y593880D01*
X702687Y621037D01*
X742209Y654791D01*
X775963Y694313D01*
X803120Y738629D01*
X823010Y786647D01*
X835143Y837186D01*
X839221Y889000D01*
X835143Y940814D01*
X823010Y991353D01*
X803120Y1039371D01*
X775963Y1083687D01*
X742209Y1123209D01*
X702687Y1156963D01*
X658371Y1184120D01*
X610353Y1204010D01*
X559814Y1216143D01*
X508000Y1220221D01*
D02*
G37*
G36*
X2200000Y581387D02*
X2180335Y577476D01*
X2163664Y566336D01*
X2152524Y549665D01*
X2148613Y530000D01*
X2152524Y510335D01*
X2163664Y493664D01*
X2180335Y482524D01*
X2200000Y478613D01*
X2219665Y482524D01*
X2236336Y493664D01*
X2247476Y510335D01*
X2251387Y530000D01*
X2247476Y549665D01*
X2236336Y566336D01*
X2219665Y577476D01*
X2200000Y581387D01*
D02*
G37*
G36*
X3352800Y559387D02*
X3333135Y555476D01*
X3316464Y544336D01*
X3305324Y527665D01*
X3301413Y508000D01*
X3305324Y488335D01*
X3316464Y471664D01*
X3333135Y460524D01*
X3352800Y456613D01*
X3372465Y460524D01*
X3389136Y471664D01*
X3400276Y488335D01*
X3404187Y508000D01*
X3400276Y527665D01*
X3389136Y544336D01*
X3372465Y555476D01*
X3352800Y559387D01*
D02*
G37*
G36*
X9082000Y839221D02*
X9030186Y835143D01*
X8979647Y823010D01*
X8931629Y803120D01*
X8887313Y775963D01*
X8847792Y742209D01*
X8814037Y702687D01*
X8786880Y658371D01*
X8766990Y610353D01*
X8754857Y559814D01*
X8750779Y508000D01*
X8754857Y456186D01*
X8766990Y405647D01*
X8786880Y357629D01*
X8814037Y313313D01*
X8847792Y273791D01*
X8887313Y240037D01*
X8931629Y212880D01*
X8979647Y192990D01*
X9030186Y180857D01*
X9082000Y176779D01*
X9133815Y180857D01*
X9184353Y192990D01*
X9232371Y212880D01*
X9276687Y240037D01*
X9316209Y273791D01*
X9349964Y313313D01*
X9377120Y357629D01*
X9397010Y405647D01*
X9409143Y456186D01*
X9413221Y508000D01*
X9409143Y559814D01*
X9397010Y610353D01*
X9377120Y658371D01*
X9349964Y702687D01*
X9316209Y742209D01*
X9276687Y775963D01*
X9232371Y803120D01*
X9184353Y823010D01*
X9133815Y835143D01*
X9082000Y839221D01*
D02*
G37*
G36*
X7544700Y243038D02*
Y162700D01*
X7625038D01*
X7623483Y174513D01*
X7614021Y197355D01*
X7598970Y216970D01*
X7579355Y232021D01*
X7556513Y241483D01*
X7544700Y243038D01*
D02*
G37*
G36*
X5316700Y243038D02*
Y162700D01*
X5397038D01*
X5395483Y174513D01*
X5386021Y197355D01*
X5370970Y216970D01*
X5351355Y232021D01*
X5328513Y241483D01*
X5316700Y243038D01*
D02*
G37*
G36*
X6078700D02*
Y162700D01*
X6159038D01*
X6157483Y174513D01*
X6148021Y197355D01*
X6132970Y216970D01*
X6113355Y232021D01*
X6090513Y241483D01*
X6078700Y243038D01*
D02*
G37*
G36*
X5291300D02*
X5279487Y241483D01*
X5256645Y232021D01*
X5237030Y216970D01*
X5221979Y197355D01*
X5212517Y174513D01*
X5210962Y162700D01*
X5291300D01*
Y243038D01*
D02*
G37*
G36*
X6053300D02*
X6041487Y241483D01*
X6018645Y232021D01*
X5999030Y216970D01*
X5983979Y197355D01*
X5974517Y174513D01*
X5972962Y162700D01*
X6053300D01*
Y243038D01*
D02*
G37*
G36*
X7519300D02*
X7507487Y241483D01*
X7484645Y232021D01*
X7465030Y216970D01*
X7449978Y197355D01*
X7440517Y174513D01*
X7438962Y162700D01*
X7519300D01*
Y243038D01*
D02*
G37*
G36*
X8121200Y231200D02*
X7958800D01*
Y68800D01*
X8121200D01*
Y231200D01*
D02*
G37*
G36*
X6401200D02*
X6238800D01*
Y68800D01*
X6401200D01*
Y231200D01*
D02*
G37*
G36*
X7786000Y231901D02*
X7764802Y229110D01*
X7745050Y220928D01*
X7728087Y207912D01*
X7715072Y190950D01*
X7706890Y171198D01*
X7704099Y150000D01*
X7706890Y128802D01*
X7715072Y109050D01*
X7728087Y92087D01*
X7745050Y79072D01*
X7764802Y70890D01*
X7786000Y68099D01*
X7807197Y70890D01*
X7826950Y79072D01*
X7843912Y92087D01*
X7856928Y109050D01*
X7865110Y128802D01*
X7867901Y150000D01*
X7865110Y171198D01*
X7856928Y190950D01*
X7843912Y207912D01*
X7826950Y220928D01*
X7807197Y229110D01*
X7786000Y231901D01*
D02*
G37*
G36*
X7278000D02*
X7256802Y229110D01*
X7237050Y220928D01*
X7220087Y207912D01*
X7207072Y190950D01*
X7198890Y171198D01*
X7196099Y150000D01*
X7198890Y128802D01*
X7207072Y109050D01*
X7220087Y92087D01*
X7237050Y79072D01*
X7256802Y70890D01*
X7278000Y68099D01*
X7299197Y70890D01*
X7318950Y79072D01*
X7335912Y92087D01*
X7348928Y109050D01*
X7357110Y128802D01*
X7359901Y150000D01*
X7357110Y171198D01*
X7348928Y190950D01*
X7335912Y207912D01*
X7318950Y220928D01*
X7299197Y229110D01*
X7278000Y231901D01*
D02*
G37*
G36*
X6824000Y383341D02*
X5250000D01*
X5237241Y380803D01*
X5226425Y373576D01*
X5078807Y225958D01*
X5071198Y229110D01*
X5050000Y231901D01*
X5028802Y229110D01*
X5009050Y220928D01*
X4992088Y207912D01*
X4979072Y190950D01*
X4970890Y171198D01*
X4968099Y150000D01*
X4970890Y128802D01*
X4979072Y109050D01*
X4992088Y92087D01*
X5009050Y79072D01*
X5028802Y70890D01*
X5050000Y68099D01*
X5071198Y70890D01*
X5090950Y79072D01*
X5107913Y92087D01*
X5120928Y109050D01*
X5129110Y128802D01*
X5131901Y150000D01*
X5129110Y171198D01*
X5125958Y178807D01*
X5263810Y316660D01*
X6810190D01*
X6948042Y178807D01*
X6944890Y171198D01*
X6942099Y150000D01*
X6944890Y128802D01*
X6953072Y109050D01*
X6966087Y92087D01*
X6983050Y79072D01*
X7002802Y70890D01*
X7024000Y68099D01*
X7045197Y70890D01*
X7064950Y79072D01*
X7081912Y92087D01*
X7094928Y109050D01*
X7103110Y128802D01*
X7105901Y150000D01*
X7103110Y171198D01*
X7094928Y190950D01*
X7081912Y207912D01*
X7064950Y220928D01*
X7045197Y229110D01*
X7024000Y231901D01*
X7002802Y229110D01*
X6995193Y225958D01*
X6847575Y373575D01*
X6836759Y380803D01*
X6824000Y383341D01*
D02*
G37*
G36*
X6770000Y231901D02*
X6748802Y229110D01*
X6729050Y220928D01*
X6712087Y207912D01*
X6699072Y190950D01*
X6690890Y171198D01*
X6688099Y150000D01*
X6690890Y128802D01*
X6699072Y109050D01*
X6712087Y92087D01*
X6729050Y79072D01*
X6748802Y70890D01*
X6770000Y68099D01*
X6791197Y70890D01*
X6810950Y79072D01*
X6827912Y92087D01*
X6840928Y109050D01*
X6849110Y128802D01*
X6851901Y150000D01*
X6849110Y171198D01*
X6840928Y190950D01*
X6827912Y207912D01*
X6810950Y220928D01*
X6791197Y229110D01*
X6770000Y231901D01*
D02*
G37*
G36*
X5812000D02*
X5790802Y229110D01*
X5771050Y220928D01*
X5754088Y207912D01*
X5741072Y190950D01*
X5732890Y171198D01*
X5730099Y150000D01*
X5732890Y128802D01*
X5741072Y109050D01*
X5754088Y92087D01*
X5771050Y79072D01*
X5790802Y70890D01*
X5812000Y68099D01*
X5833198Y70890D01*
X5852950Y79072D01*
X5869913Y92087D01*
X5882928Y109050D01*
X5891110Y128802D01*
X5893901Y150000D01*
X5891110Y171198D01*
X5882928Y190950D01*
X5869913Y207912D01*
X5852950Y220928D01*
X5833198Y229110D01*
X5812000Y231901D01*
D02*
G37*
G36*
X5558000D02*
X5536802Y229110D01*
X5517050Y220928D01*
X5500088Y207912D01*
X5487072Y190950D01*
X5478890Y171198D01*
X5476099Y150000D01*
X5478890Y128802D01*
X5487072Y109050D01*
X5500088Y92087D01*
X5517050Y79072D01*
X5536802Y70890D01*
X5558000Y68099D01*
X5579198Y70890D01*
X5598950Y79072D01*
X5615913Y92087D01*
X5628928Y109050D01*
X5637110Y128802D01*
X5639901Y150000D01*
X5637110Y171198D01*
X5628928Y190950D01*
X5615913Y207912D01*
X5598950Y220928D01*
X5579198Y229110D01*
X5558000Y231901D01*
D02*
G37*
G36*
X7625038Y137300D02*
X7544700D01*
Y56962D01*
X7556513Y58517D01*
X7579355Y67979D01*
X7598970Y83030D01*
X7614021Y102645D01*
X7623483Y125487D01*
X7625038Y137300D01*
D02*
G37*
G36*
X6159038D02*
X6078700D01*
Y56962D01*
X6090513Y58517D01*
X6113355Y67979D01*
X6132970Y83030D01*
X6148021Y102645D01*
X6157483Y125487D01*
X6159038Y137300D01*
D02*
G37*
G36*
X5397038D02*
X5316700D01*
Y56962D01*
X5328513Y58517D01*
X5351355Y67979D01*
X5370970Y83030D01*
X5386021Y102645D01*
X5395483Y125487D01*
X5397038Y137300D01*
D02*
G37*
G36*
X6053300D02*
X5972962D01*
X5974517Y125487D01*
X5983979Y102645D01*
X5999030Y83030D01*
X6018645Y67979D01*
X6041487Y58517D01*
X6053300Y56962D01*
Y137300D01*
D02*
G37*
G36*
X5291300D02*
X5210962D01*
X5212517Y125487D01*
X5221979Y102645D01*
X5237030Y83030D01*
X5256645Y67979D01*
X5279487Y58517D01*
X5291300Y56962D01*
Y137300D01*
D02*
G37*
G36*
X7519300D02*
X7438962D01*
X7440517Y125487D01*
X7449978Y102645D01*
X7465030Y83030D01*
X7484645Y67979D01*
X7507487Y58517D01*
X7519300Y56962D01*
Y137300D01*
D02*
G37*
%LPD*%
G36*
X5783085Y6174460D02*
X5783944Y6171761D01*
X5774657Y6159061D01*
X5643120D01*
X5630361Y6156523D01*
X5619545Y6149295D01*
X5588820Y6118571D01*
X5214843D01*
X5207994Y6131271D01*
X5211387Y6148330D01*
X5208501Y6162839D01*
X5216547Y6175539D01*
X5770823D01*
X5778021Y6176971D01*
X5783085Y6174460D01*
D02*
G37*
G36*
X5112006Y6165389D02*
X5108613Y6148330D01*
X5112006Y6131271D01*
X5105158Y6118571D01*
X4934188D01*
X4921429Y6116033D01*
X4910613Y6108805D01*
X4705148Y5903340D01*
X4658452D01*
X4653191Y5916040D01*
X4915240Y6178089D01*
X5105158D01*
X5112006Y6165389D01*
D02*
G37*
G36*
X5064521Y5989959D02*
X5065978Y5982728D01*
X4963534Y5880284D01*
X4960000Y5880987D01*
X4940335Y5877076D01*
X4923664Y5865936D01*
X4912524Y5849265D01*
X4908613Y5829600D01*
X4912006Y5812541D01*
X4905158Y5799841D01*
X4809485D01*
X4804624Y5811574D01*
X4988479Y5995428D01*
X5061227D01*
X5064521Y5989959D01*
D02*
G37*
G36*
X6280335Y5722524D02*
X6294580Y5719691D01*
X6299374Y5706525D01*
X6247296Y5654447D01*
X6235592Y5660703D01*
X6236287Y5664200D01*
X6232376Y5683865D01*
X6221236Y5700536D01*
X6204565Y5711676D01*
X6184900Y5715587D01*
X6165235Y5711676D01*
X6148564Y5700536D01*
X6137424Y5683865D01*
X6133513Y5664200D01*
X6137424Y5644535D01*
X6148564Y5627864D01*
X6165235Y5616724D01*
X6168672Y5616041D01*
X6167421Y5603341D01*
X5100437D01*
X5093054Y5601872D01*
X5089376Y5620365D01*
X5078236Y5637036D01*
X5061565Y5648176D01*
X5041900Y5652087D01*
X5022235Y5648176D01*
X5005564Y5637036D01*
X4994424Y5620365D01*
X4990746Y5601872D01*
X4983363Y5603341D01*
X4457085D01*
X4452224Y5615074D01*
X4570310Y5733159D01*
X6264419D01*
X6280335Y5722524D01*
D02*
G37*
G36*
X5730643Y4858325D02*
X5741459Y4851097D01*
X5754218Y4848560D01*
X6599955D01*
X6609735Y4842024D01*
X6621727Y4839639D01*
X6632099Y4826686D01*
X6630926Y4820787D01*
X6634837Y4801122D01*
X6644914Y4786040D01*
X6641485Y4773340D01*
X5678649D01*
X5677398Y4786040D01*
X5682554Y4787066D01*
X5699225Y4798206D01*
X5710364Y4814877D01*
X5714276Y4834542D01*
X5710403Y4854013D01*
X5710370Y4854219D01*
X5716578Y4867768D01*
X5720603Y4868365D01*
X5730643Y4858325D01*
D02*
G37*
G36*
X3022357Y3319172D02*
X3017515Y3313341D01*
X1986305D01*
X1980343Y3326041D01*
X1985185Y3331872D01*
X3016394D01*
X3022357Y3319172D01*
D02*
G37*
D12*
X3210000Y8370000D02*
D03*
Y8230000D02*
D03*
Y8090000D02*
D03*
Y7950000D02*
D03*
X3360000Y8230000D02*
D03*
Y8090000D02*
D03*
X6590000Y7360000D02*
D03*
Y7220000D02*
D03*
X6440000Y7500000D02*
D03*
Y7360000D02*
D03*
Y7220000D02*
D03*
Y7080000D02*
D03*
X5310000Y6460000D02*
D03*
Y6600000D02*
D03*
X5460000Y6320000D02*
D03*
Y6460000D02*
D03*
Y6600000D02*
D03*
Y6740000D02*
D03*
X5450000Y7090000D02*
D03*
Y6950000D02*
D03*
X5300000Y7230000D02*
D03*
Y7090000D02*
D03*
X5450000Y7370000D02*
D03*
Y7230000D02*
D03*
D30*
X2693037Y6530000D02*
X2763037Y6460000D01*
X2690000Y6530000D02*
X2693037D01*
X2751991Y5776807D02*
X2753284Y5778100D01*
X3030398D01*
X2830000Y6550000D02*
X3530000D01*
X8432800Y6146800D02*
Y6743700D01*
X7556500Y7366000D02*
X7810500D01*
X8432800Y6743700D01*
X7432500Y7490000D02*
X7556500Y7366000D01*
X7432500Y7490000D02*
Y7690000D01*
X7307500Y7462600D02*
Y7690000D01*
Y7462600D02*
X7505700Y7264400D01*
X7805600D01*
X8343900Y6726100D01*
X6942600Y6460000D02*
X8240000D01*
X8343900Y6286500D02*
Y6726100D01*
X6576646Y3372354D02*
X6579000Y3370000D01*
X6387646Y3372354D02*
X6576646D01*
X6330000Y2280000D02*
X6333350Y2276650D01*
X6562550D02*
X6565900Y2273300D01*
X6333350Y2276650D02*
X6562550D01*
X8237900Y2565400D02*
X8260000Y2587500D01*
X7924800Y2565400D02*
X8237900D01*
X8258700Y2463800D02*
X8260000Y2462500D01*
X7848600Y2463800D02*
X8258700D01*
X2882900Y5664200D02*
X4384200D01*
X4530000Y5810000D01*
X4432300Y4279900D02*
X4438957D01*
X2650000Y4310000D02*
X4402200D01*
X4432300Y4279900D01*
X5813863Y6251920D02*
X6734520D01*
X6942600Y6460000D01*
X7299743Y4889500D02*
X7320243Y4910000D01*
X6622743Y4889500D02*
X7299743D01*
X7320243Y4910000D02*
X7326900D01*
X6200000Y4520000D02*
X6206657D01*
X2649266Y7540591D02*
Y7816045D01*
X2616900Y7902293D02*
Y7980040D01*
X2716370Y7574974D02*
Y7802823D01*
X2457585Y7966000D02*
X2503940D01*
X2616900Y7902293D02*
X2716370Y7802823D01*
X2517910Y7947401D02*
Y7952030D01*
Y7947401D02*
X2649266Y7816045D01*
X2503940Y7966000D02*
X2517910Y7952030D01*
X2459135Y8218450D02*
X2576550D01*
X2457585Y8220000D02*
X2459135Y8218450D01*
X2576550D02*
X2578100Y8216900D01*
X2562300Y8347000D02*
X2565400Y8343900D01*
X2457585Y8347000D02*
X2562300D01*
X2457585Y8093000D02*
X2503940D01*
X2616900Y7980040D01*
X2542809Y7477491D02*
X3182509D01*
X3450000Y7210000D01*
X2513400Y7506900D02*
X2513400D01*
X2542809Y7477491D01*
X2200000Y7820300D02*
X2513400Y7506900D01*
X2200000Y7820300D02*
Y8015121D01*
X6959600Y7683500D02*
X7051000D01*
X7057500Y7690000D01*
X4426892Y5570000D02*
X4983363D01*
X5015763Y5537600D01*
X4114545Y5257653D02*
X4426892Y5570000D01*
X5100437D02*
X6210000D01*
X5068037Y5537600D02*
X5100437Y5570000D01*
X5015763Y5537600D02*
X5068037D01*
X4124218Y5334218D02*
X4556500Y5766500D01*
X6296500D01*
X6300000Y5770000D01*
X5200000Y4910000D02*
X5726118D01*
X6615143Y4881900D02*
X6622743Y4889500D01*
X5754218Y4881900D02*
X6615143D01*
X5726118Y4910000D02*
X5754218Y4881900D01*
X6540763Y4920000D02*
X6637263Y5016500D01*
X7563500D01*
X7600000Y4980000D01*
X5240000Y3080000D02*
X7520000D01*
X7680000Y3240000D01*
X1815700Y6221200D02*
X1874500Y6280000D01*
X3154943D01*
X2050000Y8100000D02*
X2115121D01*
X2200000Y8015121D01*
X5190000Y4750000D02*
X5194707Y4745293D01*
X5217179Y4740000D02*
X6780000D01*
X5194707Y4745293D02*
X5211886D01*
X5217179Y4740000D01*
X5190000Y4620000D02*
X5194707Y4615293D01*
X5212101D01*
X5213594Y4613800D01*
X6520000D01*
X7699543D01*
X6206657Y4520000D02*
X6223738Y4537081D01*
X7286619D01*
X7410000Y4413700D01*
Y4360000D02*
Y4413700D01*
X7699543Y4613800D02*
X7713343Y4600000D01*
X7720000D01*
X7125293Y4469274D02*
X7130000Y4473981D01*
X7054200Y4445000D02*
X7078474Y4469274D01*
X6506672Y4445000D02*
X7054200D01*
X7078474Y4469274D02*
X7125293D01*
X6371672Y4310000D02*
X6506672Y4445000D01*
X6616700Y5080000D02*
X7700000D01*
X6503600Y4966900D02*
X6616700Y5080000D01*
X5795381Y4966900D02*
X6503600D01*
X4737300Y4750000D02*
X4967300Y4980000D01*
X5710000D01*
X3060000Y4750000D02*
X4737300D01*
X5602630Y6085230D02*
X5643120Y6125720D01*
X4974669Y6028769D02*
X5610826D01*
X5662058Y6080000D02*
X6119237D01*
X5643120Y6125720D02*
X6165043D01*
X4934188Y6085230D02*
X5602630D01*
X5610826Y6028769D02*
X5662058Y6080000D01*
X4755900Y5810000D02*
X4974669Y6028769D01*
X4960000Y5829600D02*
X5091362Y5960962D01*
X5124262D02*
X5128969Y5965669D01*
X5091362Y5960962D02*
X5124262D01*
X5770823Y6208880D02*
X5813863Y6251920D01*
X4901430Y6211430D02*
X5186137D01*
X4882492Y6257150D02*
X5205075D01*
X4602243Y5976900D02*
X4882492Y6257150D01*
X5515521Y6254600D02*
X5586641Y6325720D01*
X4718958Y5870000D02*
X4934188Y6085230D01*
X5188687Y6208880D02*
X5770823D01*
X5186137Y6211430D02*
X5188687Y6208880D01*
X5207625Y6254600D02*
X5515521D01*
X4620000Y5930000D02*
X4901430Y6211430D01*
X5205075Y6257150D02*
X5207625Y6254600D01*
X4530000Y5810000D02*
X4755900D01*
X6165043Y6125720D02*
X6293863Y5996900D01*
X6543100D02*
X6850000Y5690000D01*
X6293863Y5996900D02*
X6543100D01*
X3032577Y5778100D02*
X4428100D01*
X4520000Y5870000D01*
X3522700Y5976900D02*
X4602243D01*
X3154943Y6280000D02*
X3504942Y5930000D01*
X4620000D01*
X3159600Y6340000D02*
X3522700Y5976900D01*
X1680000Y6340000D02*
X3159600D01*
X5586641Y6325720D02*
X6695720D01*
X6955382Y6585382D01*
X4520000Y5870000D02*
X4718958D01*
X6210000Y5570000D02*
X6390000Y5750000D01*
X4280000Y6040000D02*
Y6373344D01*
X7779237Y3500000D02*
X7829237Y3450000D01*
X5126656Y3520000D02*
X5146656Y3500000D01*
X7779237D01*
X5120000Y3520000D02*
X5126656D01*
X5210000Y3550000D02*
X7830000D01*
X5020000Y3740000D02*
X5210000Y3550000D01*
X7180000Y7687500D02*
X7182500Y7690000D01*
X7180000Y7540000D02*
Y7687500D01*
X7109601Y4822701D02*
X7110000Y4823100D01*
X6696657Y4810000D02*
X7034200D01*
X7046900Y4822701D02*
X7109601D01*
X7060763Y4740000D02*
X7080763Y4760000D01*
X7034200Y4810000D02*
X7046900Y4822701D01*
X7080763Y4760000D02*
X7590000D01*
X7090000Y4680000D02*
X7450000D01*
X7830000Y3550000D02*
X8190000D01*
X7900000Y3450000D02*
X8120000D01*
X5900763Y3020000D02*
X8050000D01*
X5810763Y2930000D02*
X5900763Y3020000D01*
X5990000Y2920000D02*
X7970000D01*
X4863100Y3803100D02*
X8246900D01*
X4950763Y3946900D02*
X8606900D01*
X4897663Y4000000D02*
X4950763Y3946900D01*
X8606900D02*
X8610000Y3950000D01*
X8246900Y3803100D02*
X8250000Y3800000D01*
X4770000Y3710000D02*
X4863100Y3803100D01*
X6685870Y4820787D02*
X6696657Y4810000D01*
X6780000Y4740000D02*
X7060763D01*
X6682313Y4820787D02*
X6685870D01*
X6850000Y5690000D02*
X8470000D01*
X6119237Y6080000D02*
X6303527Y5895710D01*
X6574290D01*
X6940000Y5530000D01*
X4090000Y5330000D02*
X4094218Y5334218D01*
X4124218D01*
X6940000Y5530000D02*
X7660000D01*
X7660908Y5530909D02*
X8468162D01*
X7660000Y5530000D02*
X7660908Y5530909D01*
X6955382Y6585382D02*
X8245382D01*
X5852557Y2782557D02*
X5990000Y2920000D01*
X5181009Y2782557D02*
X5852557D01*
X5190000Y2930000D02*
X5810763D01*
X5770000Y4920000D02*
X6540763D01*
X5732281Y5030000D02*
X5795381Y4966900D01*
X5710000Y4980000D02*
X5770000Y4920000D01*
X3139004Y4813100D02*
X3139034Y4813070D01*
X4723070D01*
X4940000Y5030000D01*
X5732281D01*
X4043328Y3460000D02*
X4183328Y3320000D01*
X2570000Y3710000D02*
X4770000D01*
X2570000Y3460000D02*
X4043328D01*
X7829237Y3450000D02*
X7900000D01*
X4773100Y3443100D02*
X7740243D01*
X4773100Y3436657D02*
Y3443100D01*
X4740000Y3396900D02*
Y3403557D01*
X4773100Y3436657D01*
X7753343Y3430000D02*
X7760000D01*
X7740243Y3443100D02*
X7753343Y3430000D01*
X4183328Y3320000D02*
X5650000D01*
X5692647Y4080000D02*
X8453100D01*
X2933100Y4086900D02*
X5685747D01*
X5692647Y4080000D01*
X2850000Y4000000D02*
X4897663D01*
X2930000Y4090000D02*
X2933100Y4086900D01*
X2713100Y4190000D02*
X4440000D01*
X5250000Y350000D02*
X6824000D01*
X7024000Y150000D01*
X5050000D02*
X5250000Y350000D01*
X2610000Y1290000D02*
X3750000D01*
X5470000Y1060000D02*
X5900000D01*
X3750000Y1290000D02*
X4580000D01*
X4059237Y1060000D02*
X5470000D01*
X3263863Y1106900D02*
X4012337D01*
X4059237Y1060000D01*
X4130000Y900000D02*
X6150000D01*
X2870000Y1020000D02*
X4010000D01*
X4130000Y900000D01*
X3250763Y1120000D02*
X3263863Y1106900D01*
X2020000Y1700000D02*
X2700000Y2380000D01*
Y2690000D01*
X4393485Y5143485D02*
X6439430D01*
X4190000Y4940000D02*
X4393485Y5143485D01*
X4442327Y5480000D02*
X6450000D01*
X4175227Y5212900D02*
X4442327Y5480000D01*
X5410000Y5380000D02*
X6250193D01*
X6252018Y5378175D01*
X4280000Y6373344D02*
X4320000Y6413344D01*
Y6420000D01*
X2763037Y6460000D02*
X3600000D01*
X1679206Y4034229D02*
X2305771D01*
X1674978Y4038458D02*
X1679206Y4034229D01*
X1760000Y3970000D02*
X2089237D01*
X2125921Y3933316D01*
X2276684D01*
X2305771Y4034229D02*
X2310000Y4030000D01*
X1846656Y3300000D02*
X1866656Y3280000D01*
X1840000Y3300000D02*
X1846656D01*
X1866656Y3280000D02*
X3060000D01*
X3118131Y3365213D02*
X3133343Y3350000D01*
X1942700Y3365213D02*
X3118131D01*
X3133343Y3350000D02*
X3140000D01*
X1940000Y7140000D02*
Y7865000D01*
X2050000Y7975000D01*
X2298349Y7351651D02*
X3148349D01*
X2050000Y7600000D02*
X2298349Y7351651D01*
X3148349D02*
X3390000Y7110000D01*
X6806995Y4176931D02*
X6920000Y4289937D01*
Y4290000D01*
X6806931Y4176931D02*
X6806995D01*
X5520000Y4150000D02*
X6780000D01*
X6806931Y4176931D01*
X4580000Y1290000D02*
X6690000D01*
X6150000Y900000D02*
X6330000Y1080000D01*
X6690000Y1290000D02*
X6770000Y1370000D01*
Y1974879D01*
X6330000Y1190000D02*
X6620000D01*
X6330000Y1080000D02*
Y1190000D01*
X2760000Y1120000D02*
X3250763D01*
X4720000Y1960000D02*
X5800000D01*
Y4310000D02*
X6371672D01*
X6385293Y3374707D02*
X6387646Y3372354D01*
X8110000Y2090000D02*
X8257500D01*
X8260000Y2087500D01*
X6366500Y6466500D02*
X6370000Y6470000D01*
X6189000Y6463000D02*
X6192500Y6466500D01*
X6366500D01*
X5694000Y6842000D02*
X5696000Y6844000D01*
X5562000Y6842000D02*
X5694000D01*
X5560000Y6840000D02*
X5562000Y6842000D01*
X5866500Y6713500D02*
X5870000Y6710000D01*
X5699500Y6713500D02*
X5866500D01*
X6336000Y7094000D02*
X6340000Y7090000D01*
X6189000Y7098000D02*
X6193000Y7094000D01*
X6336000D01*
X5696000Y6971000D02*
X5702293Y6964707D01*
X5875293D01*
X5880000Y6960000D01*
X5696000Y6717000D02*
X5699500Y6713500D01*
X6450000Y7070000D02*
X6550000D01*
X6440000Y7080000D02*
X6450000Y7070000D01*
X3210000Y7950000D02*
X3320000D01*
X3170000Y7840000D02*
X3210000Y7880000D01*
Y7950000D01*
X3169500Y7839500D02*
X3170000Y7840000D01*
X3002415Y7839000D02*
X3002915Y7839500D01*
X3169500D01*
X6191000Y6973000D02*
X6348000D01*
X6189000Y6971000D02*
X6191000Y6973000D01*
X6348000D02*
X6350000Y6975000D01*
D31*
X4557500Y7507500D02*
Y7725000D01*
X4320000Y6975000D02*
Y7270000D01*
X5000000Y7200000D02*
Y7270000D01*
Y7125000D02*
Y7200000D01*
Y7050000D02*
Y7125000D01*
Y6975000D02*
Y7050000D01*
X4807500Y7462500D02*
Y7725000D01*
Y7462500D02*
X5000000Y7270000D01*
X4320000D02*
X4557500Y7507500D01*
D32*
X5450000Y6836312D02*
Y6950000D01*
Y6836312D02*
X5461000Y6825312D01*
Y6819900D02*
Y6825312D01*
X5460000Y6740000D02*
X5461000Y6741000D01*
Y6819900D01*
X5120000Y7690000D02*
Y7830000D01*
X2025777Y2019628D02*
Y2145777D01*
X2560000Y2680000D01*
X2000000Y2340000D02*
X2090000D01*
X2550000Y2800000D01*
D35*
X2457585Y8537500D02*
Y8601000D01*
Y8474000D02*
Y8537500D01*
X2567500D01*
X2570000Y8540000D01*
D36*
X2050000Y8350000D02*
D03*
Y8225000D02*
D03*
Y8100000D02*
D03*
Y7975000D02*
D03*
Y7850000D02*
D03*
Y7725000D02*
D03*
Y7600000D02*
D03*
Y7475000D02*
D03*
Y7350000D02*
D03*
X3620000Y8355000D02*
D03*
Y8230000D02*
D03*
Y8105000D02*
D03*
Y7980000D02*
D03*
Y7855000D02*
D03*
Y7730000D02*
D03*
Y7605000D02*
D03*
Y7480000D02*
D03*
Y7355000D02*
D03*
D37*
X2050000Y7225000D02*
D03*
X3620000Y7230000D02*
D03*
D38*
X6770000Y150000D02*
D03*
X7024000D02*
D03*
X7278000D02*
D03*
X7532000D02*
D03*
X7786000D02*
D03*
X5050000D02*
D03*
X5304000D02*
D03*
X5558000D02*
D03*
X5812000D02*
D03*
X6066000D02*
D03*
X1016000Y6477000D02*
D03*
Y6223000D02*
D03*
Y5715000D02*
D03*
Y5969000D02*
D03*
Y5207000D02*
D03*
Y4953000D02*
D03*
Y4699000D02*
D03*
Y4191000D02*
D03*
Y4445000D02*
D03*
Y3683000D02*
D03*
Y3175000D02*
D03*
Y3937000D02*
D03*
Y3429000D02*
D03*
Y5461000D02*
D03*
Y6731000D02*
D03*
X1270000Y2667000D02*
D03*
Y3429000D02*
D03*
Y3175000D02*
D03*
Y2921000D02*
D03*
Y3683000D02*
D03*
Y4191000D02*
D03*
Y1651000D02*
D03*
Y2159000D02*
D03*
Y2413000D02*
D03*
Y1905000D02*
D03*
Y3937000D02*
D03*
X1016000Y7747000D02*
D03*
Y6985000D02*
D03*
Y7493000D02*
D03*
X1270000Y7239000D02*
D03*
Y7493000D02*
D03*
X1016000Y7239000D02*
D03*
X1270000Y7747000D02*
D03*
Y6985000D02*
D03*
Y6477000D02*
D03*
Y6223000D02*
D03*
Y5969000D02*
D03*
Y5715000D02*
D03*
Y5461000D02*
D03*
Y5207000D02*
D03*
Y4699000D02*
D03*
Y4445000D02*
D03*
Y6731000D02*
D03*
Y4953000D02*
D03*
X1016000Y2413000D02*
D03*
Y2667000D02*
D03*
Y1905000D02*
D03*
Y2921000D02*
D03*
Y1397000D02*
D03*
Y2159000D02*
D03*
Y1651000D02*
D03*
X508000Y6477000D02*
D03*
Y6223000D02*
D03*
Y5715000D02*
D03*
Y5969000D02*
D03*
Y5207000D02*
D03*
Y4953000D02*
D03*
Y4699000D02*
D03*
Y4191000D02*
D03*
Y4445000D02*
D03*
Y3683000D02*
D03*
Y3175000D02*
D03*
Y3937000D02*
D03*
Y3429000D02*
D03*
Y5461000D02*
D03*
Y6731000D02*
D03*
X762000Y2667000D02*
D03*
Y3429000D02*
D03*
Y3175000D02*
D03*
Y2921000D02*
D03*
Y3683000D02*
D03*
Y4191000D02*
D03*
Y1651000D02*
D03*
Y2159000D02*
D03*
Y2413000D02*
D03*
Y1905000D02*
D03*
Y3937000D02*
D03*
X508000Y7747000D02*
D03*
Y6985000D02*
D03*
Y7493000D02*
D03*
X762000Y7239000D02*
D03*
Y7493000D02*
D03*
X508000Y7239000D02*
D03*
X762000Y7747000D02*
D03*
Y6985000D02*
D03*
Y6477000D02*
D03*
Y6223000D02*
D03*
Y5969000D02*
D03*
Y5715000D02*
D03*
Y5461000D02*
D03*
Y5207000D02*
D03*
Y4699000D02*
D03*
Y4445000D02*
D03*
Y6731000D02*
D03*
Y4953000D02*
D03*
X508000Y2413000D02*
D03*
Y2667000D02*
D03*
Y1905000D02*
D03*
Y2921000D02*
D03*
Y1397000D02*
D03*
Y2159000D02*
D03*
Y1651000D02*
D03*
D39*
X8040000Y150000D02*
D03*
X6320000D02*
D03*
D40*
X1270000Y1397000D02*
D03*
X762000D02*
D03*
D41*
X9082000Y8502000D02*
D03*
Y508000D02*
D03*
X508000Y889000D02*
D03*
Y8248000D02*
D03*
D42*
X2690000Y6530000D02*
D03*
X2751991Y5776807D02*
D03*
X2830000Y6550000D02*
D03*
X3327400Y8382000D02*
D03*
X3736941Y8153058D02*
D03*
X8240000Y6460000D02*
D03*
X8343900Y6286500D02*
D03*
X8432800Y6146800D02*
D03*
X6515900Y4613800D02*
D03*
X6579000Y3370000D02*
D03*
X6565900Y2273300D02*
D03*
X7924800Y2565400D02*
D03*
X7848600Y2463800D02*
D03*
X7911700Y3450000D02*
D03*
X2882900Y5664200D02*
D03*
X6794500Y6184900D02*
D03*
X1549400Y7442200D02*
D03*
X6210000Y4676900D02*
D03*
X5499100Y4445000D02*
D03*
X4438957Y4279900D02*
D03*
X7446782Y3380000D02*
D03*
X3352800Y508000D02*
D03*
X5100000Y1810000D02*
D03*
X5662889Y4834542D02*
D03*
X6102462Y4535771D02*
D03*
X6190000Y4440000D02*
D03*
X6200000Y4520000D02*
D03*
X7442200Y3263900D02*
D03*
Y3162300D02*
D03*
X4241800Y2819400D02*
D03*
X4673600Y2717800D02*
D03*
X2870200Y7912100D02*
D03*
X2697818Y7957818D02*
D03*
X2578100Y8216900D02*
D03*
X2565400Y8343900D02*
D03*
X2716370Y7574974D02*
D03*
X2410000Y7510000D02*
D03*
X2313100Y7870000D02*
D03*
X2649266Y7540591D02*
D03*
X2500000Y7690000D02*
D03*
X6959600Y7683500D02*
D03*
X5041900Y5600700D02*
D03*
X6184900Y5664200D02*
D03*
X5676900Y5880100D02*
D03*
X6629400Y4889500D02*
D03*
X6946900Y4953000D02*
D03*
X9093200Y3873500D02*
D03*
X2527300Y5283200D02*
D03*
X2213385Y4198025D02*
D03*
X2260600Y2971800D02*
D03*
X3009900Y2781300D02*
D03*
X3225800Y2717800D02*
D03*
X3263900Y5232400D02*
D03*
X3730462Y5261678D02*
D03*
X2212017Y3687548D02*
D03*
X2318019Y3851846D02*
D03*
X8549000Y3300000D02*
D03*
X8268100Y3080000D02*
D03*
Y1700000D02*
D03*
X8572100Y1490000D02*
D03*
X381000Y5080000D02*
D03*
Y5334000D02*
D03*
X635000D02*
D03*
X889000D02*
D03*
Y5080000D02*
D03*
X635000D02*
D03*
X330200Y6502400D02*
D03*
X1511300Y5372100D02*
D03*
X1676400Y5321300D02*
D03*
X1815700Y6221200D02*
D03*
X1549400Y3644900D02*
D03*
X1714500Y3581400D02*
D03*
X4925982Y4304018D02*
D03*
X4127500Y6159500D02*
D03*
X5461000Y6819900D02*
D03*
X7130000Y4473981D02*
D03*
X5128969Y5965669D02*
D03*
X5160000Y6148330D02*
D03*
X6020000Y6188820D02*
D03*
X5840000D02*
D03*
X4390000Y5841200D02*
D03*
X4680000Y5636900D02*
D03*
X4280000Y6040000D02*
D03*
X3030398Y5778100D02*
D03*
X7680000Y3240000D02*
D03*
X5240000Y3080000D02*
D03*
X7326900Y4910000D02*
D03*
X7180000Y7540000D02*
D03*
X7110000Y4823100D02*
D03*
X7590000Y4760000D02*
D03*
X7450000Y4680000D02*
D03*
X7720000Y4600000D02*
D03*
X8190000Y3550000D02*
D03*
X8120000Y3450000D02*
D03*
X8050000Y3020000D02*
D03*
X7970000Y2920000D02*
D03*
X7700000Y5080000D02*
D03*
X7600000Y4980000D02*
D03*
X7090000Y4680000D02*
D03*
X6390000Y5750000D02*
D03*
X6720000Y5610000D02*
D03*
X8480000Y5980000D02*
D03*
X5820000Y6015710D02*
D03*
X6200000Y5910000D02*
D03*
X8468162Y5530909D02*
D03*
X8470000Y5690000D02*
D03*
X8245382Y6585382D02*
D03*
X5181009Y2782557D02*
D03*
X5190000Y2930000D02*
D03*
X5200000Y4910000D02*
D03*
X3139004Y4813100D02*
D03*
X3060000Y4750000D02*
D03*
X4420000Y4876170D02*
D03*
X8418700Y6901351D02*
D03*
X1680000Y6340000D02*
D03*
X5120000Y3520000D02*
D03*
X4720000Y3250000D02*
D03*
X7830000Y3550000D02*
D03*
X7760000Y3430000D02*
D03*
X8250000Y3800000D02*
D03*
X8453100Y4080000D02*
D03*
X8610000Y3950000D02*
D03*
X2850000Y4000000D02*
D03*
X2930000Y4090000D02*
D03*
X2650000Y4310000D02*
D03*
X2713100Y4190000D02*
D03*
X4430000Y3860000D02*
D03*
X2570000Y3710000D02*
D03*
X4970000Y4016900D02*
D03*
X4720000Y3910000D02*
D03*
X4440000Y4400000D02*
D03*
X5020000Y3740000D02*
D03*
X3670000Y2220000D02*
D03*
X3560000Y2330000D02*
D03*
X3910000Y2200000D02*
D03*
X4020000D02*
D03*
X4100000Y660000D02*
D03*
X5650000Y3320000D02*
D03*
X4740000Y3396900D02*
D03*
X4450000Y3210000D02*
D03*
X2570000Y3460000D02*
D03*
X4010000Y1020000D02*
D03*
X2020000Y1700000D02*
D03*
X2700000Y2690000D02*
D03*
X2025777Y2019628D02*
D03*
X2560000Y2680000D02*
D03*
X2000000Y2340000D02*
D03*
X2550000Y2800000D02*
D03*
X5990000Y5940000D02*
D03*
X6320000Y6060000D02*
D03*
X6450000Y5030000D02*
D03*
X6439430Y5143485D02*
D03*
X4489921Y5260079D02*
D03*
X5980000Y5250000D02*
D03*
X4577500Y5022500D02*
D03*
X4190000Y4940000D02*
D03*
X6450000Y5480000D02*
D03*
X4740000Y5040000D02*
D03*
X4175227Y5212900D02*
D03*
X4114545Y5257653D02*
D03*
X4090000Y5330000D02*
D03*
X6300000Y5770000D02*
D03*
X4320000Y6420000D02*
D03*
X4960000Y5829600D02*
D03*
X3530000Y6550000D02*
D03*
X3600000Y6460000D02*
D03*
X1760000Y3970000D02*
D03*
X2070000Y3900000D02*
D03*
X2276684Y3933316D02*
D03*
X1674978Y4038458D02*
D03*
X2310000Y4030000D02*
D03*
X2320000Y3216900D02*
D03*
X1840000Y3300000D02*
D03*
X3060000Y3280000D02*
D03*
X3140000Y3350000D02*
D03*
X1942700Y3365213D02*
D03*
X1940000Y7140000D02*
D03*
X3450000Y7210000D02*
D03*
X3390000Y7110000D02*
D03*
X2290000Y8010000D02*
D03*
X6682313Y4820787D02*
D03*
X7050000Y4290000D02*
D03*
X5880000Y4010000D02*
D03*
X5520000Y4150000D02*
D03*
X6920000Y4290000D02*
D03*
X4702500Y4407500D02*
D03*
X3830000Y5520000D02*
D03*
X3890000Y4960000D02*
D03*
X3340000D02*
D03*
X2680000D02*
D03*
X2510000Y5430000D02*
D03*
X2070000Y4410000D02*
D03*
X2330000Y4390000D02*
D03*
X3440000Y3100000D02*
D03*
X4110000Y3090000D02*
D03*
X4440000Y4190000D02*
D03*
X6252018Y5378175D02*
D03*
X5410000Y5380000D02*
D03*
X5190000Y4750000D02*
D03*
Y4620000D02*
D03*
X3750000Y1290000D02*
D03*
X4580000D02*
D03*
X2610000D02*
D03*
X6330000Y1190000D02*
D03*
X6770000Y1974879D02*
D03*
X5470000Y1060000D02*
D03*
X3878957Y1102228D02*
D03*
X2760000Y1120000D02*
D03*
X2870000Y1020000D02*
D03*
X3290000Y1170000D02*
D03*
X5900000Y1060000D02*
D03*
X5340000Y900000D02*
D03*
X7410000Y4360000D02*
D03*
X4720000Y1960000D02*
D03*
X5800000D02*
D03*
Y4310000D02*
D03*
X6780000Y4740000D02*
D03*
X6385293Y3374707D02*
D03*
X6330000Y2280000D02*
D03*
X6540000Y1126900D02*
D03*
X6620000Y1190000D02*
D03*
X8110000Y2090000D02*
D03*
X2500000Y7130000D02*
D03*
X3170000Y5510000D02*
D03*
X6550000Y7500000D02*
D03*
X6370000Y6470000D02*
D03*
X5560000Y6840000D02*
D03*
X5870000Y6710000D02*
D03*
X6340000Y7090000D02*
D03*
X6450000Y6580000D02*
D03*
X5880000Y6960000D02*
D03*
X6590000Y6580000D02*
D03*
X6550000Y7070000D02*
D03*
X6430000Y6710000D02*
D03*
X6057500Y7815099D02*
D03*
X5690000Y7820000D02*
D03*
X5310000D02*
D03*
X5260000Y7360000D02*
D03*
X5690000Y7430000D02*
D03*
X5550000Y7370000D02*
D03*
X3710000Y7920000D02*
D03*
X3310000Y7820000D02*
D03*
X2860000Y8180000D02*
D03*
X3320000Y7950000D02*
D03*
X3170000Y7840000D02*
D03*
X2980000Y7570000D02*
D03*
X1540000Y8110000D02*
D03*
X1658595Y7851160D02*
D03*
X1660000Y7710000D02*
D03*
X1550000Y6990000D02*
D03*
Y6220000D02*
D03*
X780000Y420000D02*
D03*
X8490000Y340000D02*
D03*
X6813844Y858469D02*
D03*
X7470000Y1330000D02*
D03*
X4020000Y7980000D02*
D03*
X4230000Y7740000D02*
D03*
X4410000Y7970000D02*
D03*
X5120000Y7830000D02*
D03*
X4990000Y7860000D02*
D03*
X5490000Y7840000D02*
D03*
X5870000Y7850000D02*
D03*
X6170000Y7970000D02*
D03*
X6580000Y7960000D02*
D03*
X6360000Y7730000D02*
D03*
X6790000Y7740000D02*
D03*
X7000000Y7970000D02*
D03*
X7680000Y7850000D02*
D03*
X7740000Y7980000D02*
D03*
X8120000D02*
D03*
X8470000Y8650000D02*
D03*
X9390000Y7380000D02*
D03*
X9380000Y7740000D02*
D03*
X9230000Y7310000D02*
D03*
X9340000Y5230000D02*
D03*
X9250000Y4200000D02*
D03*
X9340000Y5010000D02*
D03*
X9360000Y4650000D02*
D03*
X9380000Y3880000D02*
D03*
X9390000Y3470000D02*
D03*
X5880000Y2910000D02*
D03*
X7310000Y4270000D02*
D03*
Y3630000D02*
D03*
Y2540000D02*
D03*
X7440000Y2340000D02*
D03*
X7430000Y2030000D02*
D03*
X7450000Y1520000D02*
D03*
X7310000Y1070000D02*
D03*
X5880000Y1820000D02*
D03*
X5210000D02*
D03*
X2960000Y650000D02*
D03*
X4700000Y390000D02*
D03*
X4450000Y1820000D02*
D03*
X3620000Y1750000D02*
D03*
X2460000Y1250000D02*
D03*
X2200000Y530000D02*
D03*
X6350000Y6975000D02*
D03*
X4320000Y7270000D02*
D03*
X5000000Y6975000D02*
D03*
Y7050000D02*
D03*
Y7125000D02*
D03*
Y7200000D02*
D03*
X4325000Y6975000D02*
D03*
Y7050000D02*
D03*
Y7125000D02*
D03*
Y7200000D02*
D03*
X5000000Y7270000D02*
D03*
X2570000Y8540000D02*
D03*
D51*
X5203918Y7366827D02*
G03*
X5203525Y7358466I56082J-6827D01*
G01*
X5171327Y7367715D02*
G03*
X5171022Y7357675I88673J-7715D01*
G01*
X3398904Y8183398D02*
Y8196096D01*
X3365000Y8230000D02*
X3398904Y8196096D01*
X3406046Y8176256D02*
X3430586D01*
X3398904Y8183398D02*
X3406046Y8176256D01*
X3360000Y8230000D02*
X3365000D01*
X3357598D02*
X3360000D01*
X3323693Y8183398D02*
Y8196096D01*
X3573756Y7933756D02*
X3620000Y7980000D01*
X3561598Y7933756D02*
X3573756D01*
X3503642Y7991711D02*
Y8103200D01*
X3430586Y8176256D02*
X3503642Y8103200D01*
Y7991711D02*
X3561598Y7933756D01*
X3212402Y8230000D02*
X3246306Y8196096D01*
X3210000Y8230000D02*
X3212402D01*
X3323693Y8196096D02*
X3357598Y8230000D01*
X3316551Y8176256D02*
X3323693Y8183398D01*
X3253448Y8176256D02*
X3316551D01*
X3246306Y8183398D02*
Y8196096D01*
Y8183398D02*
X3253448Y8176256D01*
X3406046Y8143744D02*
X3417119D01*
X3398904Y8136602D02*
X3406046Y8143744D01*
X3398904Y8123904D02*
Y8136602D01*
X3365000Y8090000D02*
X3398904Y8123904D01*
X3357598Y8090000D02*
X3360000D01*
X3323694Y8123904D02*
Y8136602D01*
X3360000Y8090000D02*
X3365000D01*
X3548131Y7901244D02*
X3573756D01*
X3620000Y7855000D01*
X3471130Y7978245D02*
Y8089733D01*
X3417119Y8143744D02*
X3471130Y8089733D01*
Y7978245D02*
X3548131Y7901244D01*
X3253448Y8143744D02*
X3316552D01*
X3246306Y8136602D02*
X3253448Y8143744D01*
X3316552D02*
X3323694Y8136602D01*
X3246306Y8123904D02*
Y8136602D01*
X3323694Y8123904D02*
X3357598Y8090000D01*
X3212402D02*
X3246306Y8123904D01*
X3210000Y8090000D02*
X3212402D01*
X3002415Y8179898D02*
X3009557Y8172756D01*
X3107247D01*
X3110747Y8176256D01*
X3002415Y8179898D02*
Y8220000D01*
X3173693Y8183398D02*
Y8196096D01*
X3166551Y8176256D02*
X3173693Y8183398D01*
X3110747Y8176256D02*
X3166551D01*
X3124213Y8143744D02*
X3166552D01*
X3173694Y8136602D01*
Y8123904D02*
Y8136602D01*
X3120713Y8140244D02*
X3124213Y8143744D01*
X3009557Y8140244D02*
X3120713D01*
X3173694Y8123904D02*
X3207598Y8090000D01*
X3210000D01*
X3002415Y8133102D02*
X3009557Y8140244D01*
X3002415Y8093000D02*
Y8133102D01*
X3207598Y8230000D02*
X3210000D01*
X3173693Y8196096D02*
X3207598Y8230000D01*
X3226448Y8526496D02*
X3652804D01*
X3212981Y8559008D02*
X3666271D01*
X3080729Y8426756D02*
X3212981Y8559008D01*
X3094196Y8394244D02*
X3226448Y8526496D01*
X3009557Y8394244D02*
X3094196D01*
X3002415Y8387102D02*
X3009557Y8394244D01*
X3002415Y8347000D02*
Y8387102D01*
X3009557Y8426756D02*
X3080729D01*
X3002415Y8433898D02*
X3009557Y8426756D01*
X3721100Y8263093D02*
Y8458200D01*
X3002415Y8433898D02*
Y8474000D01*
X3652804Y8526496D02*
X3721100Y8458200D01*
X3753612Y8249627D02*
Y8471667D01*
X3666271Y8559008D02*
X3753612Y8471667D01*
X3633931Y8216069D02*
X3663117D01*
X3620000Y8230000D02*
X3633931Y8216069D01*
X3663117D02*
X3663546Y8215640D01*
X3673646D02*
X3721100Y8263093D01*
X3663546Y8215640D02*
X3673646D01*
X3620000Y8105000D02*
Y8121621D01*
X3681507Y8183128D01*
X3687113D02*
X3753612Y8249627D01*
X3681507Y8183128D02*
X3687113D01*
X5976220Y6682199D02*
Y7323780D01*
X6073756Y7350111D02*
X6119111Y7304756D01*
X5836777Y6542756D02*
X5976220Y6682199D01*
X6041244Y7336644D02*
Y7608954D01*
X6073756Y7350111D02*
Y7608954D01*
X5819395Y7526584D02*
X6008732Y7337247D01*
X6119111Y7304756D02*
X6181858D01*
X5850244Y6510244D02*
X6008732Y6668732D01*
X6041244Y7336644D02*
X6105644Y7272244D01*
X6181858D01*
X6008732Y6668732D02*
Y7337247D01*
X5805928Y7494072D02*
X5976220Y7323780D01*
X5703142Y6542756D02*
X5836777D01*
X5703142Y6510244D02*
X5850244D01*
X5175000Y7198158D02*
X5229414Y7143744D01*
X5207512Y7396362D02*
X5211083Y7399933D01*
X5203525Y7358466D02*
X5207512Y7211625D01*
X5211083Y7208054D02*
X5242881Y7176256D01*
X5203918Y7366827D02*
X5207512Y7396362D01*
X5171327Y7367715D02*
X5175000Y7409829D01*
X5291244Y7526072D01*
X5171022Y7357675D02*
X5175000Y7198158D01*
X5211083Y7399933D02*
X5323756Y7512605D01*
X5207512Y7211625D02*
X5211083Y7208054D01*
X6546552Y7273744D02*
X6553694Y7266602D01*
X6483448Y7273744D02*
X6546552D01*
X6553694Y7253904D02*
Y7266602D01*
X6476306Y7253904D02*
Y7266602D01*
X6483448Y7273744D01*
X6403694Y7253904D02*
X6437598Y7220000D01*
X6553694Y7253904D02*
X6587598Y7220000D01*
X6590000D01*
X6442402D02*
X6476306Y7253904D01*
X6437598Y7220000D02*
X6440000D01*
X6442402D01*
X6331506Y7273744D02*
X6396552D01*
X6330006Y7272244D02*
X6331506Y7273744D01*
X6396552D02*
X6403694Y7266602D01*
X6189000Y7265102D02*
X6196142Y7272244D01*
X6330006D01*
X6403694Y7253904D02*
Y7266602D01*
X6553694Y7326096D02*
X6587598Y7360000D01*
X6590000D01*
X6440000D02*
X6442402D01*
X6437598D02*
X6440000D01*
X6442402D02*
X6476307Y7326096D01*
X6553694Y7313398D02*
Y7326096D01*
X6546552Y7306256D02*
X6553694Y7313398D01*
X6483449Y7306256D02*
X6546552D01*
X6476307Y7313398D02*
Y7326096D01*
X6403694Y7313398D02*
Y7326096D01*
X6476307Y7313398D02*
X6483449Y7306256D01*
X6403694Y7326096D02*
X6437598Y7360000D01*
X6396552Y7306256D02*
X6403694Y7313398D01*
X6316539Y7304756D02*
X6318039Y7306256D01*
X6396552D01*
X6189000Y7311898D02*
X6196142Y7304756D01*
X6316539D01*
X6120000Y7650000D02*
Y7690000D01*
X6086096Y7616096D02*
X6120000Y7650000D01*
X6073756Y7608954D02*
X6080898Y7616096D01*
X6086096D01*
X6189000Y7311898D02*
Y7352000D01*
X5995000Y7650000D02*
Y7690000D01*
X6181858Y7272244D02*
X6189000Y7265102D01*
X6028904Y7616096D02*
X6034102D01*
X5995000Y7650000D02*
X6028904Y7616096D01*
X6189000Y7225000D02*
Y7265102D01*
X6181858Y7304756D02*
X6189000Y7311898D01*
X6034102Y7616096D02*
X6041244Y7608954D01*
X5578795Y6513744D02*
X5582295Y6510244D01*
X5688858D02*
X5696000Y6503102D01*
X5582295Y6510244D02*
X5688858D01*
X5503448Y6513744D02*
X5578795D01*
X5496306Y6506602D02*
X5503448Y6513744D01*
X5496306Y6493904D02*
Y6506602D01*
X5462402Y6460000D02*
X5496306Y6493904D01*
X5460000Y6460000D02*
X5462402D01*
X5401256Y6513744D02*
X5416552D01*
X5401256Y6513744D02*
X5401256Y6513744D01*
X5423694Y6493904D02*
Y6506602D01*
X5416552Y6513744D02*
X5423694Y6506602D01*
X5353449Y6513744D02*
X5401256D01*
X5346307Y6506602D02*
X5353449Y6513744D01*
X5346307Y6493904D02*
Y6506602D01*
X5423694Y6493904D02*
X5457598Y6460000D01*
X5460000D01*
X5312402D02*
X5346307Y6493904D01*
X5310000Y6460000D02*
X5312402D01*
X5462402Y6600000D02*
X5496306Y6566096D01*
X5460000Y6600000D02*
X5462402D01*
X5496306Y6553398D02*
Y6566096D01*
X5688858Y6542756D02*
X5696000Y6549898D01*
X5595762Y6542756D02*
X5688858D01*
X5503448Y6546256D02*
X5592262D01*
X5496306Y6553398D02*
X5503448Y6546256D01*
X5592262D02*
X5595762Y6542756D01*
X5423694Y6566096D02*
X5457598Y6600000D01*
X5460000D01*
X5423694Y6553398D02*
Y6566096D01*
X5310000Y6600000D02*
X5312402D01*
X5346306Y6566096D01*
X5416552Y6546256D02*
X5423694Y6553398D01*
X5387789Y6546256D02*
X5387790Y6546256D01*
X5416552D01*
X5346306Y6553398D02*
X5353448Y6546256D01*
X5346306Y6553398D02*
Y6566096D01*
X5353448Y6546256D02*
X5387789D01*
X5698756Y7591712D02*
X5763884Y7526584D01*
X5819395D01*
X5745000Y7650000D02*
Y7690000D01*
X5711096Y7616096D02*
X5745000Y7650000D01*
X5698756Y7591712D02*
Y7608954D01*
X5620000Y7650000D02*
Y7690000D01*
X5659102Y7616096D02*
X5666244Y7608954D01*
X5698756D02*
X5705898Y7616096D01*
X5666244Y7578245D02*
Y7608954D01*
Y7578245D02*
X5750417Y7494072D01*
X5653904Y7616096D02*
X5659102D01*
X5705898D02*
X5711096D01*
X5750417Y7494072D02*
X5805928D01*
X5620000Y7650000D02*
X5653904Y7616096D01*
X5696000Y6503102D02*
X5703142Y6510244D01*
X5696000Y6463000D02*
Y6503102D01*
Y6549898D02*
X5703142Y6542756D01*
X5696000Y6549898D02*
Y6590000D01*
X5662646Y7225000D02*
X5696000D01*
X5557494Y7177756D02*
X5635140D01*
X5642282Y7184898D02*
Y7204636D01*
X5662646Y7225000D01*
X5635140Y7177756D02*
X5642282Y7184898D01*
X5642841Y7118364D02*
X5663204Y7098000D01*
X5642841Y7118364D02*
Y7138102D01*
X5663204Y7098000D02*
X5696000D01*
X5635699Y7145244D02*
X5642841Y7138102D01*
X5570961Y7145244D02*
X5635699D01*
X5447598Y7230000D02*
X5450000D01*
X5370000Y7650000D02*
Y7690000D01*
X5336096Y7616096D02*
X5370000Y7650000D01*
X5413694Y7196096D02*
X5447598Y7230000D01*
X5413694Y7183398D02*
Y7196096D01*
X5406552Y7176256D02*
X5413694Y7183398D01*
X5336307D02*
X5343449Y7176256D01*
X5336307Y7183398D02*
Y7196096D01*
X5343449Y7176256D02*
X5406552D01*
X5330898Y7616096D02*
X5336096D01*
X5323756Y7608954D02*
X5330898Y7616096D01*
X5323756Y7512605D02*
Y7608954D01*
X5297598Y7230000D02*
X5300000D01*
X5302402D01*
X5263694Y7196096D02*
X5297598Y7230000D01*
X5302402D02*
X5336307Y7196096D01*
X5256552Y7176256D02*
X5263694Y7183398D01*
Y7196096D01*
X5242881Y7176256D02*
X5256552D01*
X5413694Y7123904D02*
Y7136602D01*
X5406552Y7143744D02*
X5413694Y7136602D01*
X5343448Y7143744D02*
X5406552D01*
X5336306Y7136602D02*
X5343448Y7143744D01*
X5336306Y7123904D02*
Y7136602D01*
X5413694Y7123904D02*
X5447598Y7090000D01*
X5450000D01*
X5302402D02*
X5336306Y7123904D01*
X5297598Y7090000D02*
X5300000D01*
X5302402D01*
X5284102Y7616096D02*
X5291244Y7608954D01*
X5278904Y7616096D02*
X5284102D01*
X5291244Y7526072D02*
Y7608954D01*
X5245000Y7650000D02*
Y7690000D01*
Y7650000D02*
X5278904Y7616096D01*
X5263694Y7123904D02*
Y7136602D01*
X5256552Y7143744D02*
X5263694Y7136602D01*
Y7123904D02*
X5297598Y7090000D01*
X5229414Y7143744D02*
X5256552D01*
X5486307Y7183398D02*
Y7196096D01*
Y7183398D02*
X5493448Y7176256D01*
X5555994D02*
X5557494Y7177756D01*
X5450000Y7230000D02*
X5452402D01*
X5486306Y7136602D02*
X5493448Y7143744D01*
X5569461D02*
X5570961Y7145244D01*
X5486306Y7123904D02*
Y7136602D01*
X5452402Y7090000D02*
X5486306Y7123904D01*
X5450000Y7090000D02*
X5452402D01*
X5493448Y7143744D02*
X5569461D01*
X5493448Y7176256D02*
X5555994D01*
X5452402Y7230000D02*
X5486307Y7196096D01*
D52*
X2457585Y7839000D02*
D03*
Y7966000D02*
D03*
Y8093000D02*
D03*
Y8220000D02*
D03*
Y8347000D02*
D03*
Y8474000D02*
D03*
Y8601000D02*
D03*
X3002415D02*
D03*
Y8474000D02*
D03*
Y8347000D02*
D03*
Y8220000D02*
D03*
Y8093000D02*
D03*
Y7966000D02*
D03*
Y7839000D02*
D03*
D53*
X5696000Y6463000D02*
D03*
Y6590000D02*
D03*
Y6717000D02*
D03*
Y6844000D02*
D03*
Y6971000D02*
D03*
Y7098000D02*
D03*
Y7225000D02*
D03*
Y7352000D02*
D03*
X6189000D02*
D03*
Y7225000D02*
D03*
Y7098000D02*
D03*
Y6971000D02*
D03*
Y6844000D02*
D03*
Y6717000D02*
D03*
Y6590000D02*
D03*
Y6463000D02*
D03*
D54*
X8260000Y2837500D02*
D03*
Y2712500D02*
D03*
Y2587500D02*
D03*
Y2462500D02*
D03*
Y2337500D02*
D03*
Y2212500D02*
D03*
Y2087500D02*
D03*
Y1962500D02*
D03*
D55*
X8550000Y1707500D02*
D03*
Y3092500D02*
D03*
D56*
X4240000Y7980000D02*
D03*
X6375000D02*
D03*
X6802500Y7980000D02*
D03*
X7937500D02*
D03*
D57*
X6120000Y7690000D02*
D03*
X5995000D02*
D03*
X5870000D02*
D03*
X5745000D02*
D03*
X5620000D02*
D03*
X5495000D02*
D03*
X5370000D02*
D03*
X5245000D02*
D03*
X5120000D02*
D03*
X4995000D02*
D03*
X4870000D02*
D03*
X4745000D02*
D03*
X4620000D02*
D03*
X4495000D02*
D03*
X7307500Y7690000D02*
D03*
X7682500D02*
D03*
X7557500D02*
D03*
X7432500D02*
D03*
X7182500D02*
D03*
X7057500D02*
D03*
D58*
X1270000Y7239000D02*
X1419000Y7090000D01*
X1630000D01*
X1730000Y6990000D01*
X3617500Y7157500D02*
Y7227500D01*
X3620000Y7230000D01*
X3450000Y6990000D02*
X3617500Y7157500D01*
X1730000Y6990000D02*
X3450000D01*
%TF.MD5,13ead2dba0d35edb7349cdc881d3afee*%
M02*
