G04*
G04 #@! TF.GenerationSoftware,Altium Limited,Altium Designer,21.8.1 (53)*
G04*
G04 Layer_Color=128*
%FSLAX44Y44*%
%MOMM*%
G71*
G04*
G04 #@! TF.SameCoordinates,50A5A8F4-FCC5-4A63-BB33-6A8E803C0949*
G04*
G04*
G04 #@! TF.FilePolarity,Positive*
G04*
G01*
G75*
%ADD15C,0.2540*%
%ADD19R,3.0000X2.1000*%
%ADD20R,1.6000X0.8000*%
%ADD25R,0.9000X0.8000*%
%ADD82R,2.1000X3.0000*%
%ADD83R,0.8000X1.6000*%
%ADD84R,1.4605X0.5334*%
G04:AMPARAMS|DCode=85|XSize=1.98mm|YSize=0.53mm|CornerRadius=0.0663mm|HoleSize=0mm|Usage=FLASHONLY|Rotation=0.000|XOffset=0mm|YOffset=0mm|HoleType=Round|Shape=RoundedRectangle|*
%AMROUNDEDRECTD85*
21,1,1.9800,0.3975,0,0,0.0*
21,1,1.8475,0.5300,0,0,0.0*
1,1,0.1325,0.9237,-0.1988*
1,1,0.1325,-0.9237,-0.1988*
1,1,0.1325,-0.9237,0.1988*
1,1,0.1325,0.9237,0.1988*
%
%ADD85ROUNDEDRECTD85*%
D15*
X215300Y96520D02*
X248100D01*
X215300Y128820D02*
X248100D01*
X215300Y96520D02*
Y128820D01*
X248100Y96520D02*
Y128820D01*
X345550Y94340D02*
X378350D01*
X345550Y126640D02*
X378350D01*
X345550Y94340D02*
Y126640D01*
X378350Y94340D02*
Y126640D01*
X876155Y325428D02*
X958655D01*
X876155Y150000D02*
Y325428D01*
X959000D02*
X959000Y901700D01*
X876155Y150000D02*
X959000D01*
Y0D02*
Y150000D01*
X0Y901000D02*
X405000D01*
X812500Y901700D02*
X959000Y901700D01*
X405000Y818750D02*
X812500D01*
Y901250D01*
X405000Y818750D02*
Y901000D01*
X0Y0D02*
Y901000D01*
Y0D02*
X959000D01*
D19*
X855000Y170750D02*
D03*
Y309250D02*
D03*
D20*
X826000Y283750D02*
D03*
Y271250D02*
D03*
Y258750D02*
D03*
Y246250D02*
D03*
Y233750D02*
D03*
Y221250D02*
D03*
Y208750D02*
D03*
Y196250D02*
D03*
D25*
X321000Y837000D02*
D03*
Y823000D02*
D03*
Y809000D02*
D03*
Y795000D02*
D03*
X336000Y823000D02*
D03*
Y809000D02*
D03*
X659000Y736000D02*
D03*
Y722000D02*
D03*
X644000Y750000D02*
D03*
Y736000D02*
D03*
Y722000D02*
D03*
Y708000D02*
D03*
X531000Y646000D02*
D03*
Y660000D02*
D03*
X546000Y632000D02*
D03*
Y646000D02*
D03*
Y660000D02*
D03*
Y674000D02*
D03*
X545000Y709000D02*
D03*
Y695000D02*
D03*
X530000Y723000D02*
D03*
Y709000D02*
D03*
X545000Y737000D02*
D03*
Y723000D02*
D03*
D82*
X424000Y798000D02*
D03*
X637500D02*
D03*
X680250Y798000D02*
D03*
X793750D02*
D03*
D83*
X612000Y769000D02*
D03*
X599500D02*
D03*
X587000D02*
D03*
X574500D02*
D03*
X562000D02*
D03*
X549500D02*
D03*
X537000D02*
D03*
X524500D02*
D03*
X512000D02*
D03*
X499500D02*
D03*
X487000D02*
D03*
X474500D02*
D03*
X462000D02*
D03*
X449500D02*
D03*
X730750Y769000D02*
D03*
X768250D02*
D03*
X755750D02*
D03*
X743250D02*
D03*
X718250D02*
D03*
X705750D02*
D03*
D84*
X245758Y783900D02*
D03*
Y796600D02*
D03*
Y809300D02*
D03*
Y822000D02*
D03*
Y834700D02*
D03*
Y847400D02*
D03*
Y860100D02*
D03*
X300242D02*
D03*
Y847400D02*
D03*
Y834700D02*
D03*
Y822000D02*
D03*
Y809300D02*
D03*
Y796600D02*
D03*
Y783900D02*
D03*
D85*
X569600Y646300D02*
D03*
Y659000D02*
D03*
Y671700D02*
D03*
Y684400D02*
D03*
Y697100D02*
D03*
Y709800D02*
D03*
Y722500D02*
D03*
Y735200D02*
D03*
X618900D02*
D03*
Y722500D02*
D03*
Y709800D02*
D03*
Y697100D02*
D03*
Y684400D02*
D03*
Y671700D02*
D03*
Y659000D02*
D03*
Y646300D02*
D03*
M02*
