G04*
G04 #@! TF.GenerationSoftware,Altium Limited,Altium Designer,21.8.1 (53)*
G04*
G04 Layer_Color=32896*
%FSLAX44Y44*%
%MOMM*%
G71*
G04*
G04 #@! TF.SameCoordinates,50A5A8F4-FCC5-4A63-BB33-6A8E803C0949*
G04*
G04*
G04 #@! TF.FilePolarity,Positive*
G04*
G01*
G75*
%ADD10C,0.2000*%
%ADD12C,0.1524*%
%ADD13C,0.1270*%
%ADD15C,0.2540*%
%ADD17C,0.2032*%
D10*
X246000Y774000D02*
G03*
X246000Y774000I-1000J0D01*
G01*
X565250Y632750D02*
G03*
X565250Y632750I-1000J0D01*
G01*
X313500Y844000D02*
X328500D01*
X313500Y816000D02*
Y844000D01*
Y816000D02*
X328500D01*
Y844000D01*
X313500Y816000D02*
X328500D01*
X313500Y788000D02*
Y816000D01*
Y788000D02*
X328500D01*
Y816000D01*
X328500Y830000D02*
X343500D01*
X328500Y802000D02*
Y830000D01*
Y802000D02*
X343500D01*
Y830000D01*
X651500Y743000D02*
X666500D01*
X651500Y715000D02*
Y743000D01*
Y715000D02*
X666500D01*
Y743000D01*
X636500Y757000D02*
X651500D01*
X636500Y729000D02*
Y757000D01*
Y729000D02*
X651500D01*
Y757000D01*
X636500Y729000D02*
X651500D01*
X636500Y701000D02*
Y729000D01*
Y701000D02*
X651500D01*
Y729000D01*
X523500Y639000D02*
X538500D01*
Y667000D01*
X523500D02*
X538500D01*
X523500Y639000D02*
Y667000D01*
X538500Y625000D02*
X553500D01*
Y653000D01*
X538500D02*
X553500D01*
X538500Y625000D02*
Y653000D01*
Y653000D02*
X553500D01*
Y681000D01*
X538500D02*
X553500D01*
X538500Y653000D02*
Y681000D01*
X537500Y716000D02*
X552500D01*
X537500Y688000D02*
Y716000D01*
Y688000D02*
X552500D01*
Y716000D01*
X522500Y730000D02*
X537500D01*
X522500Y702000D02*
Y730000D01*
Y702000D02*
X537500D01*
Y730000D01*
X537500Y744000D02*
X552500D01*
X537500Y716000D02*
Y744000D01*
Y716000D02*
X552500D01*
Y744000D01*
D12*
X251791Y866958D02*
X294209D01*
X251791Y777042D02*
X294209D01*
D13*
X644000Y816500D02*
Y819000D01*
X417500Y816500D02*
Y819000D01*
X444950Y746480D02*
X447950Y751480D01*
X450950Y746480D01*
X444950D02*
X450950D01*
X644000Y767000D02*
Y780000D01*
X417500Y767000D02*
Y780000D01*
Y819000D02*
X644000D01*
X417500Y767000D02*
X442300D01*
X619200D02*
X644000D01*
X574250Y640150D02*
X614250D01*
X574250Y741350D02*
X614250D01*
X824000Y164250D02*
Y189050D01*
Y290950D02*
Y315750D01*
X876000Y164250D02*
Y315750D01*
X824000D02*
X837000D01*
X824000Y164250D02*
X837000D01*
X804150Y281700D02*
Y287700D01*
Y281700D02*
X809150Y284700D01*
X804150Y287700D02*
X809150Y284700D01*
X873500Y315750D02*
X876000D01*
X873500Y164250D02*
X876000D01*
X800250Y816500D02*
Y819000D01*
X673750Y816500D02*
Y819000D01*
X702000Y746950D02*
X705000Y751950D01*
X708000Y746950D01*
X702000D02*
X708000D01*
X800250Y767000D02*
Y780000D01*
X673750Y767000D02*
Y780000D01*
Y819000D02*
X800250D01*
X673750Y767000D02*
X698550D01*
X775450D02*
X800250D01*
X202000Y699500D02*
X205000Y704500D01*
X208000Y699500D01*
X202000D02*
X208000D01*
X193500Y850000D02*
X225500D01*
Y707500D02*
Y850000D01*
X193500Y707500D02*
X225500D01*
X193500D02*
Y850000D01*
X359000Y700000D02*
X362000Y705000D01*
X365000Y700000D01*
X359000D02*
X365000D01*
X350500Y850500D02*
X382500D01*
Y708000D02*
Y850500D01*
X350500Y708000D02*
X382500D01*
X350500D02*
Y850500D01*
D15*
X592500Y2250D02*
X592727Y41420D01*
X544750Y2500D02*
X545000Y41000D01*
X509540Y36540D02*
X524775D01*
X509540Y46697D01*
X524775D01*
X509540Y51775D02*
X524775D01*
Y59393D01*
X522236Y61932D01*
X517158D01*
X514618Y59393D01*
Y51775D01*
Y56853D02*
X509540Y61932D01*
X522236Y77167D02*
X524775Y74628D01*
Y69549D01*
X522236Y67010D01*
X519697D01*
X517158Y69549D01*
Y74628D01*
X514618Y77167D01*
X512079D01*
X509540Y74628D01*
Y69549D01*
X512079Y67010D01*
X524775Y82245D02*
Y92402D01*
Y87324D01*
X509540D01*
X625629Y35023D02*
X610394D01*
Y42640D01*
X612933Y45180D01*
X615472D01*
X618012Y42640D01*
Y35023D01*
Y42640D01*
X620551Y45180D01*
X623090D01*
X625629Y42640D01*
Y35023D01*
Y57875D02*
Y52797D01*
X623090Y50258D01*
X612933D01*
X610394Y52797D01*
Y57875D01*
X612933Y60415D01*
X623090D01*
X625629Y57875D01*
Y73110D02*
Y68032D01*
X623090Y65493D01*
X612933D01*
X610394Y68032D01*
Y73110D01*
X612933Y75650D01*
X623090D01*
X625629Y73110D01*
Y80728D02*
Y90885D01*
Y85806D01*
X610394D01*
X743300Y51136D02*
X745839Y53676D01*
X750917D01*
X753457Y51136D01*
Y48597D01*
X750917Y46058D01*
X745839D01*
X743300Y43519D01*
Y40980D01*
X745839Y38441D01*
X750917D01*
X753457Y40980D01*
X738222Y53676D02*
Y38441D01*
X733143Y43519D01*
X728065Y38441D01*
Y53676D01*
X722986D02*
Y38441D01*
X715369D01*
X712830Y40980D01*
Y51136D01*
X715369Y53676D01*
X722986D01*
X851303Y344236D02*
X853842Y346775D01*
X858921D01*
X861460Y344236D01*
Y334079D01*
X858921Y331540D01*
X853842D01*
X851303Y334079D01*
Y339157D01*
X856382D01*
X846225Y331540D02*
Y346775D01*
X838607D01*
X836068Y344236D01*
Y339157D01*
X838607Y336618D01*
X846225D01*
X820833Y344236D02*
X823372Y346775D01*
X828451D01*
X830990Y344236D01*
Y341697D01*
X828451Y339157D01*
X823372D01*
X820833Y336618D01*
Y334079D01*
X823372Y331540D01*
X828451D01*
X830990Y334079D01*
X778303Y738236D02*
X780843Y740775D01*
X785921D01*
X788460Y738236D01*
Y728079D01*
X785921Y725540D01*
X780843D01*
X778303Y728079D01*
X770686Y735697D02*
X765607D01*
X763068Y733158D01*
Y725540D01*
X770686D01*
X773225Y728079D01*
X770686Y730618D01*
X763068D01*
X757990Y725540D02*
Y735697D01*
X755451D01*
X752912Y733158D01*
Y725540D01*
Y733158D01*
X750372Y735697D01*
X747833Y733158D01*
Y725540D01*
X735137D02*
X740216D01*
X742755Y728079D01*
Y733158D01*
X740216Y735697D01*
X735137D01*
X732598Y733158D01*
Y730618D01*
X742755D01*
X727520Y735697D02*
Y725540D01*
Y730618D01*
X724980Y733158D01*
X722441Y735697D01*
X719902D01*
X709745D02*
X704667D01*
X702128Y733158D01*
Y725540D01*
X709745D01*
X712285Y728079D01*
X709745Y730618D01*
X702128D01*
X488460Y744775D02*
Y729540D01*
X480843D01*
X478303Y732079D01*
Y734618D01*
X480843Y737158D01*
X488460D01*
X480843D01*
X478303Y739697D01*
Y742236D01*
X480843Y744775D01*
X488460D01*
X470686Y729540D02*
X465607D01*
X463068Y732079D01*
Y737158D01*
X465607Y739697D01*
X470686D01*
X473225Y737158D01*
Y732079D01*
X470686Y729540D01*
X455451D02*
X450372D01*
X447833Y732079D01*
Y737158D01*
X450372Y739697D01*
X455451D01*
X457990Y737158D01*
Y732079D01*
X455451Y729540D01*
X442755D02*
Y739697D01*
X440216D01*
X437676Y737158D01*
Y729540D01*
Y737158D01*
X435137Y739697D01*
X432598Y737158D01*
Y729540D01*
X262460Y670540D02*
Y680697D01*
X257382Y685775D01*
X252303Y680697D01*
Y670540D01*
Y678158D01*
X262460D01*
X247225Y670540D02*
Y680697D01*
X239607D01*
X237068Y678158D01*
Y670540D01*
X229451Y683236D02*
Y680697D01*
X231990D01*
X226912D01*
X229451D01*
Y673079D01*
X226912Y670540D01*
X211676D02*
X216755D01*
X219294Y673079D01*
Y678158D01*
X216755Y680697D01*
X211676D01*
X209137Y678158D01*
Y675618D01*
X219294D01*
X204059Y670540D02*
Y680697D01*
X196441D01*
X193902Y678158D01*
Y670540D01*
X188824D02*
Y680697D01*
X181206D01*
X178667Y678158D01*
Y670540D01*
X171050Y680697D02*
X165971D01*
X163432Y678158D01*
Y670540D01*
X171050D01*
X173589Y673079D01*
X171050Y675618D01*
X163432D01*
X375460Y671540D02*
Y686775D01*
X370382Y681697D01*
X365303Y686775D01*
Y671540D01*
X360225D02*
Y686775D01*
X352607D01*
X350068Y684236D01*
Y679157D01*
X352607Y676618D01*
X360225D01*
X344990Y686775D02*
X339911D01*
X342451D01*
Y671540D01*
X344990D01*
X339911D01*
X218887Y882617D02*
X223965D01*
X221426D01*
Y869922D01*
X223965Y867383D01*
X226505D01*
X229044Y869922D01*
X213809Y867383D02*
X208730D01*
X211270D01*
Y882617D01*
X213809Y880078D01*
X201113D02*
X198574Y882617D01*
X193495D01*
X190956Y880078D01*
Y877539D01*
X193495Y875000D01*
X196035D01*
X193495D01*
X190956Y872461D01*
Y869922D01*
X193495Y867383D01*
X198574D01*
X201113Y869922D01*
X382887Y872617D02*
X387966D01*
X385426D01*
Y859922D01*
X387966Y857383D01*
X390505D01*
X393044Y859922D01*
X377809Y857383D02*
X372730D01*
X375270D01*
Y872617D01*
X377809Y870078D01*
X365113D02*
X362574Y872617D01*
X357495D01*
X354956Y870078D01*
Y859922D01*
X357495Y857383D01*
X362574D01*
X365113Y859922D01*
Y870078D01*
X215300Y96520D02*
X248100D01*
X215300Y128820D02*
X248100D01*
X215300Y96520D02*
Y128820D01*
X248100Y96520D02*
Y128820D01*
X345550Y94340D02*
X378350D01*
X345550Y126640D02*
X378350D01*
X345550Y94340D02*
Y126640D01*
X378350Y94340D02*
Y126640D01*
X876155Y325428D02*
X958655D01*
X876155Y150000D02*
Y325428D01*
X959000D02*
X959000Y901700D01*
X876155Y150000D02*
X959000D01*
Y0D02*
Y150000D01*
X0Y901000D02*
X405000D01*
X812500Y901700D02*
X959000Y901700D01*
X405000Y818750D02*
X812500D01*
Y901250D01*
X405000Y818750D02*
Y901000D01*
X0Y0D02*
Y901000D01*
Y0D02*
X959000D01*
D17*
X632542Y744922D02*
Y755078D01*
X627464D01*
X625771Y753386D01*
Y750000D01*
X627464Y748307D01*
X632542D01*
X629157D02*
X625771Y744922D01*
X615614D02*
X622386D01*
X615614Y751693D01*
Y753386D01*
X617307Y755078D01*
X620693D01*
X622386Y753386D01*
X612229D02*
X610536Y755078D01*
X607150D01*
X605458Y753386D01*
Y751693D01*
X607150Y750000D01*
X608843D01*
X607150D01*
X605458Y748307D01*
Y746614D01*
X607150Y744922D01*
X610536D01*
X612229Y746614D01*
X639922Y673150D02*
X650078D01*
Y678229D01*
X648386Y679922D01*
X645000D01*
X643307Y678229D01*
Y673150D01*
Y676536D02*
X639922Y679922D01*
Y690078D02*
Y683307D01*
X646693Y690078D01*
X648386D01*
X650078Y688386D01*
Y685000D01*
X648386Y683307D01*
X639922Y693464D02*
Y696850D01*
Y695157D01*
X650078D01*
X648386Y693464D01*
X533696Y733922D02*
Y744078D01*
X528618D01*
X526925Y742386D01*
Y739000D01*
X528618Y737307D01*
X533696D01*
X530310D02*
X526925Y733922D01*
X523539D02*
X520154D01*
X521846D01*
Y744078D01*
X523539Y742386D01*
X515075D02*
X513382Y744078D01*
X509997D01*
X508304Y742386D01*
Y740693D01*
X509997Y739000D01*
X508304Y737307D01*
Y735614D01*
X509997Y733922D01*
X513382D01*
X515075Y735614D01*
Y737307D01*
X513382Y739000D01*
X515075Y740693D01*
Y742386D01*
X513382Y739000D02*
X509997D01*
X518696Y710922D02*
Y721078D01*
X513618D01*
X511925Y719386D01*
Y716000D01*
X513618Y714307D01*
X518696D01*
X515310D02*
X511925Y710922D01*
X508539D02*
X505154D01*
X506846D01*
Y721078D01*
X508539Y719386D01*
X500075Y721078D02*
X493304D01*
Y719386D01*
X500075Y712614D01*
Y710922D01*
X533396Y687072D02*
Y697228D01*
X528317D01*
X526625Y695536D01*
Y692150D01*
X528317Y690457D01*
X533396D01*
X530010D02*
X526625Y687072D01*
X523239D02*
X519854D01*
X521546D01*
Y697228D01*
X523239Y695536D01*
X508004Y697228D02*
X511390Y695536D01*
X514775Y692150D01*
Y688764D01*
X513082Y687072D01*
X509697D01*
X508004Y688764D01*
Y690457D01*
X509697Y692150D01*
X514775D01*
X533396Y623572D02*
Y633728D01*
X528317D01*
X526625Y632036D01*
Y628650D01*
X528317Y626957D01*
X533396D01*
X530010D02*
X526625Y623572D01*
X523239D02*
X519854D01*
X521546D01*
Y633728D01*
X523239Y632036D01*
X508004Y633728D02*
X514775D01*
Y628650D01*
X511390Y630343D01*
X509697D01*
X508004Y628650D01*
Y625264D01*
X509697Y623572D01*
X513082D01*
X514775Y625264D01*
X518156Y647702D02*
Y657858D01*
X513078D01*
X511385Y656166D01*
Y652780D01*
X513078Y651087D01*
X518156D01*
X514770D02*
X511385Y647702D01*
X507999D02*
X504614D01*
X506306D01*
Y657858D01*
X507999Y656166D01*
X494457Y647702D02*
Y657858D01*
X499535Y652780D01*
X492764D01*
X533396Y670562D02*
Y680718D01*
X528317D01*
X526625Y679026D01*
Y675640D01*
X528317Y673947D01*
X533396D01*
X530010D02*
X526625Y670562D01*
X523239D02*
X519854D01*
X521546D01*
Y680718D01*
X523239Y679026D01*
X514775D02*
X513082Y680718D01*
X509697D01*
X508004Y679026D01*
Y677333D01*
X509697Y675640D01*
X511390D01*
X509697D01*
X508004Y673947D01*
Y672254D01*
X509697Y670562D01*
X513082D01*
X514775Y672254D01*
X314922Y848997D02*
X325078D01*
Y854075D01*
X323386Y855768D01*
X320000D01*
X318307Y854075D01*
Y848997D01*
Y852383D02*
X314922Y855768D01*
Y859154D02*
Y862539D01*
Y860846D01*
X325078D01*
X323386Y859154D01*
X314922Y867618D02*
Y871003D01*
Y869310D01*
X325078D01*
X323386Y867618D01*
X316922Y766536D02*
X327078D01*
Y771614D01*
X325386Y773307D01*
X322000D01*
X320307Y771614D01*
Y766536D01*
Y769922D02*
X316922Y773307D01*
X325386Y776693D02*
X327078Y778386D01*
Y781771D01*
X325386Y783464D01*
X323693D01*
X322000Y781771D01*
X320307Y783464D01*
X318614D01*
X316922Y781771D01*
Y778386D01*
X318614Y776693D01*
X320307D01*
X322000Y778386D01*
X323693Y776693D01*
X325386D01*
X322000Y778386D02*
Y781771D01*
X608196Y634078D02*
Y625614D01*
X606503Y623922D01*
X603117D01*
X601425Y625614D01*
Y634078D01*
X598039Y623922D02*
X594654D01*
X596346D01*
Y634078D01*
X598039Y632386D01*
X582804Y634078D02*
X586190Y632386D01*
X589575Y629000D01*
Y625614D01*
X587882Y623922D01*
X584497D01*
X582804Y625614D01*
Y627307D01*
X584497Y629000D01*
X589575D01*
X804922Y177443D02*
Y180828D01*
Y179136D01*
X813386D01*
X815078Y180828D01*
Y182521D01*
X813386Y184214D01*
X806614Y174057D02*
X804922Y172364D01*
Y168979D01*
X806614Y167286D01*
X808307D01*
X810000Y168979D01*
Y170672D01*
Y168979D01*
X811693Y167286D01*
X813386D01*
X815078Y168979D01*
Y172364D01*
X813386Y174057D01*
X670922Y703226D02*
X681078D01*
Y708304D01*
X679386Y709997D01*
X676000D01*
X674307Y708304D01*
Y703226D01*
Y706611D02*
X670922Y709997D01*
Y713382D02*
Y716768D01*
Y715075D01*
X681078D01*
X679386Y713382D01*
X670922Y726925D02*
X681078D01*
X676000Y721846D01*
Y728617D01*
X681078Y738774D02*
X679386Y735389D01*
X676000Y732003D01*
X672614D01*
X670922Y733696D01*
Y737082D01*
X672614Y738774D01*
X674307D01*
X676000Y737082D01*
Y732003D01*
X251160Y878898D02*
Y887362D01*
X252853Y889054D01*
X256238D01*
X257931Y887362D01*
Y878898D01*
X261317Y889054D02*
X264702D01*
X263010D01*
Y878898D01*
X261317Y880590D01*
X269781D02*
X271474Y878898D01*
X274859D01*
X276552Y880590D01*
Y887362D01*
X274859Y889054D01*
X271474D01*
X269781Y887362D01*
Y880590D01*
X331922Y833226D02*
X342078D01*
Y838304D01*
X340386Y839997D01*
X337000D01*
X335307Y838304D01*
Y833226D01*
Y836611D02*
X331922Y839997D01*
Y843382D02*
Y846768D01*
Y845075D01*
X342078D01*
X340386Y843382D01*
Y851846D02*
X342078Y853539D01*
Y856925D01*
X340386Y858617D01*
X338693D01*
X337000Y856925D01*
Y855232D01*
Y856925D01*
X335307Y858617D01*
X333614D01*
X331922Y856925D01*
Y853539D01*
X333614Y851846D01*
X340386Y862003D02*
X342078Y863696D01*
Y867082D01*
X340386Y868774D01*
X333614D01*
X331922Y867082D01*
Y863696D01*
X333614Y862003D01*
X340386D01*
X422443Y758078D02*
X425828D01*
X424136D01*
Y749614D01*
X425828Y747922D01*
X427521D01*
X429214Y749614D01*
X419057Y756386D02*
X417364Y758078D01*
X413979D01*
X412286Y756386D01*
Y754693D01*
X413979Y753000D01*
X412286Y751307D01*
Y749614D01*
X413979Y747922D01*
X417364D01*
X419057Y749614D01*
Y751307D01*
X417364Y753000D01*
X419057Y754693D01*
Y756386D01*
X417364Y753000D02*
X413979D01*
X688693Y761078D02*
X692078D01*
X690386D01*
Y752614D01*
X692078Y750922D01*
X693771D01*
X695464Y752614D01*
X685307Y761078D02*
X678536D01*
Y759386D01*
X685307Y752614D01*
Y750922D01*
M02*
