%TF.GenerationSoftware,Altium Limited,Altium Designer,21.8.1 (53)*%
G04 Layer_Physical_Order=2*
G04 Layer_Color=32768*
%FSLAX45Y45*%
%MOMM*%
%TF.SameCoordinates,FC4AC9FF-6E76-4EA9-8F85-17F13F815CE5*%
%TF.FilePolarity,Negative*%
%TF.FileFunction,Copper,L2,Inr,Plane*%
%TF.Part,Single*%
G01*
G75*
%TA.AperFunction,NonConductor*%
%ADD10C,1.01600*%
%TA.AperFunction,ComponentPad*%
%ADD11C,4.11600*%
%ADD12C,1.91600*%
G04:AMPARAMS|DCode=13|XSize=2.424mm|YSize=2.424mm|CornerRadius=0mm|HoleSize=0mm|Usage=FLASHONLY|Rotation=0.000|XOffset=0mm|YOffset=0mm|HoleType=Round|Shape=Relief|Width=0.254mm|Gap=0.254mm|Entries=4|*
%AMTHD13*
7,0,0,2.42400,1.91600,0.25400,45*
%
%ADD13THD13*%
%ADD14C,1.81600*%
%ADD15O,1.86600X2.41600*%
%ADD16O,1.56600X2.21600*%
%ADD17C,1.82900*%
%ADD18C,2.03600*%
G04:AMPARAMS|DCode=19|XSize=2.544mm|YSize=2.544mm|CornerRadius=0mm|HoleSize=0mm|Usage=FLASHONLY|Rotation=0.000|XOffset=0mm|YOffset=0mm|HoleType=Round|Shape=Relief|Width=0.254mm|Gap=0.254mm|Entries=4|*
%AMTHD19*
7,0,0,2.54400,2.03600,0.25400,45*
%
%ADD19THD19*%
%ADD20C,4.19600*%
%TA.AperFunction,ViaPad*%
%ADD21C,1.26600*%
%ADD22C,1.31600*%
%TA.AperFunction,TestPad*%
%ADD23C,1.26600*%
D10*
X9588500D01*
Y9017000D01*
X0D02*
X9588500D01*
X0Y0D02*
Y9017000D01*
D11*
X3479800Y8178800D02*
D03*
X5978800D02*
D03*
D12*
X4181300Y8051800D02*
D03*
X4318300Y8305800D02*
D03*
X4455300Y8051800D02*
D03*
X4592300Y8305800D02*
D03*
X4866300D02*
D03*
X5140300D02*
D03*
X5277300Y8051800D02*
D03*
D13*
X4729300D02*
D03*
X5003300D02*
D03*
D14*
X7391400Y8496300D02*
D03*
X7891400D02*
D03*
D15*
X7268900Y8391300D02*
D03*
X8013900D02*
D03*
D16*
X7253900Y8771300D02*
D03*
X8028900D02*
D03*
D17*
X762500Y4000300D02*
D03*
Y7385300D02*
D03*
D18*
X8572500Y2667000D02*
D03*
Y2921000D02*
D03*
Y3429000D02*
D03*
Y3175000D02*
D03*
Y3937000D02*
D03*
Y4191000D02*
D03*
Y4445000D02*
D03*
Y4953000D02*
D03*
Y4699000D02*
D03*
Y5461000D02*
D03*
Y5969000D02*
D03*
Y5207000D02*
D03*
Y5715000D02*
D03*
Y3683000D02*
D03*
Y2413000D02*
D03*
X8318500Y6477000D02*
D03*
Y5715000D02*
D03*
Y5969000D02*
D03*
Y6223000D02*
D03*
Y5461000D02*
D03*
Y4953000D02*
D03*
Y7747000D02*
D03*
Y7493000D02*
D03*
Y6985000D02*
D03*
Y6731000D02*
D03*
Y7239000D02*
D03*
Y5207000D02*
D03*
X8572500Y1397000D02*
D03*
Y2159000D02*
D03*
Y1651000D02*
D03*
X8318500Y1905000D02*
D03*
Y1651000D02*
D03*
X8572500Y1905000D02*
D03*
X8318500Y1397000D02*
D03*
Y2159000D02*
D03*
Y2667000D02*
D03*
Y2921000D02*
D03*
Y3175000D02*
D03*
Y3429000D02*
D03*
Y3683000D02*
D03*
Y3937000D02*
D03*
Y4445000D02*
D03*
Y4699000D02*
D03*
Y2413000D02*
D03*
Y4191000D02*
D03*
X8572500Y6731000D02*
D03*
Y6477000D02*
D03*
Y7239000D02*
D03*
Y6223000D02*
D03*
Y7747000D02*
D03*
Y6985000D02*
D03*
Y7493000D02*
D03*
X9080500Y2667000D02*
D03*
Y2921000D02*
D03*
Y3429000D02*
D03*
Y3175000D02*
D03*
Y4445000D02*
D03*
Y4953000D02*
D03*
Y4699000D02*
D03*
Y5461000D02*
D03*
Y5969000D02*
D03*
Y5207000D02*
D03*
Y5715000D02*
D03*
Y3683000D02*
D03*
Y2413000D02*
D03*
X8826500Y6477000D02*
D03*
Y5715000D02*
D03*
Y5969000D02*
D03*
Y6223000D02*
D03*
Y5461000D02*
D03*
Y4953000D02*
D03*
Y7747000D02*
D03*
Y7493000D02*
D03*
Y6985000D02*
D03*
Y6731000D02*
D03*
Y7239000D02*
D03*
Y5207000D02*
D03*
X9080500Y1397000D02*
D03*
Y2159000D02*
D03*
Y1651000D02*
D03*
X8826500Y1905000D02*
D03*
Y1651000D02*
D03*
X9080500Y1905000D02*
D03*
X8826500Y1397000D02*
D03*
Y2159000D02*
D03*
Y2667000D02*
D03*
Y2921000D02*
D03*
Y3175000D02*
D03*
Y3429000D02*
D03*
Y3683000D02*
D03*
Y4445000D02*
D03*
Y4699000D02*
D03*
Y2413000D02*
D03*
X9080500Y6731000D02*
D03*
Y6477000D02*
D03*
Y7239000D02*
D03*
Y6223000D02*
D03*
Y7747000D02*
D03*
Y6985000D02*
D03*
Y7493000D02*
D03*
D19*
Y3937000D02*
D03*
Y4191000D02*
D03*
X8826500Y3937000D02*
D03*
Y4191000D02*
D03*
D20*
X9169400Y469900D02*
D03*
X9080500Y8432800D02*
D03*
X457200Y8305800D02*
D03*
X508000Y889000D02*
D03*
D21*
X6012180Y1625600D02*
D03*
X6446520Y7538720D02*
D03*
X4853940D02*
D03*
X6672580Y8755380D02*
D03*
X4276233Y2292543D02*
D03*
X2994660Y7503160D02*
D03*
X3106420Y7546340D02*
D03*
X1094740Y1833880D02*
D03*
X2288540Y3177540D02*
D03*
X2774312Y6253480D02*
D03*
X5127860Y4020820D02*
D03*
X3680460Y6840220D02*
D03*
X1562500Y3939540D02*
D03*
X2153920Y4493260D02*
D03*
X1774775Y4358281D02*
D03*
X1318660Y3873500D02*
D03*
X1229360Y2994660D02*
D03*
X2915920Y6824980D02*
D03*
X6286500Y7051040D02*
D03*
X6162040Y7226300D02*
D03*
X6055360Y7388860D02*
D03*
X5948680Y6934200D02*
D03*
X6507480Y866140D02*
D03*
X6004560Y871220D02*
D03*
X6769100Y5527040D02*
D03*
X7373620Y2072640D02*
D03*
X2425700Y3868420D02*
D03*
X5923280Y2326640D02*
D03*
X4080678Y1766738D02*
D03*
X4201160Y1300480D02*
D03*
X6380480Y4333240D02*
D03*
X6230620Y4475480D02*
D03*
X6873240Y4302760D02*
D03*
X6045200Y4602480D02*
D03*
X6037580Y4757420D02*
D03*
X6141720Y4838700D02*
D03*
X5349240Y6162040D02*
D03*
X5461000Y6228080D02*
D03*
X5557520Y6294120D02*
D03*
X3769360Y6169660D02*
D03*
X3896360Y6263640D02*
D03*
X4023360Y6355080D02*
D03*
X4305300Y6548120D02*
D03*
X5560060Y6443980D02*
D03*
X2743200Y5595620D02*
D03*
X2611120Y5712460D02*
D03*
X2743200Y5392420D02*
D03*
X3124200Y5712460D02*
D03*
X4196080Y5649360D02*
D03*
X4038600D02*
D03*
X4272280Y5648960D02*
D03*
X2004060Y5704840D02*
D03*
X3685540Y5298440D02*
D03*
X4399280Y6672580D02*
D03*
X4881880Y4986020D02*
D03*
X4968240Y5024120D02*
D03*
X6108700Y5918200D02*
D03*
X5996940Y5895340D02*
D03*
X6405880Y6807200D02*
D03*
X3286760Y6990480D02*
D03*
X2004060Y2225040D02*
D03*
X3121660Y2997200D02*
D03*
X4641490Y3871870D02*
D03*
X3858260Y3942080D02*
D03*
X3517900Y3870960D02*
D03*
X2758440Y3939540D02*
D03*
X3243580D02*
D03*
X2131060D02*
D03*
X4239918Y4018190D02*
D03*
X5433060Y3939540D02*
D03*
X1041400Y2176780D02*
D03*
X6205220Y2687320D02*
D03*
X5933440Y3185160D02*
D03*
X6068553Y3246932D02*
D03*
X5887720Y2413000D02*
D03*
X5768340Y2402840D02*
D03*
X5763260Y2532380D02*
D03*
X6360160Y2463800D02*
D03*
X6220460Y2392680D02*
D03*
X6276340Y2270760D02*
D03*
X3997960Y2062480D02*
D03*
X4126757Y2067959D02*
D03*
X3874751Y2062264D02*
D03*
X2997200Y1178560D02*
D03*
X3197860Y1102360D02*
D03*
X3378200Y2415540D02*
D03*
X4500880Y1399540D02*
D03*
X4081780Y3017520D02*
D03*
X4521200Y3180080D02*
D03*
X4523740Y3014980D02*
D03*
X4284980Y3020060D02*
D03*
X4155440Y3365500D02*
D03*
X5156200Y3352800D02*
D03*
X5283200Y3350260D02*
D03*
X4338320Y1290320D02*
D03*
X3241040Y3030620D02*
D03*
X3395980Y3177540D02*
D03*
X3388360Y2989580D02*
D03*
X1973580Y3009900D02*
D03*
X2291080Y2971800D02*
D03*
X1856740Y3012440D02*
D03*
Y3365500D02*
D03*
X1973580Y3373120D02*
D03*
X2938780Y3388360D02*
D03*
X3065780Y3393440D02*
D03*
X4328160Y909320D02*
D03*
X4244340Y1038860D02*
D03*
X4500880Y698500D02*
D03*
X4033520Y3368040D02*
D03*
X4696460Y848360D02*
D03*
X4651842Y979002D02*
D03*
X1943100Y4384040D02*
D03*
X2196023Y4829617D02*
D03*
X812800Y3172460D02*
D03*
X941979Y3093720D02*
D03*
X693237Y3266623D02*
D03*
X4978400Y3263900D02*
D03*
X4876800Y3175000D02*
D03*
X4960620Y3096260D02*
D03*
X1229360Y3175000D02*
D03*
X5499100Y2700020D02*
D03*
X5793740Y6670040D02*
D03*
X916940Y2379980D02*
D03*
X3835400Y5179060D02*
D03*
X6804660Y1615440D02*
D03*
X6508297Y1622388D02*
D03*
X5501640Y1524000D02*
D03*
X7218680Y782320D02*
D03*
X7132320Y716280D02*
D03*
X6936740Y165100D02*
D03*
X1945640Y4922920D02*
D03*
X2886542Y5302418D02*
D03*
X1877060Y4986020D02*
D03*
X2854960Y5374640D02*
D03*
X3136900Y6004560D02*
D03*
X2712720Y6126480D02*
D03*
X256540Y4107180D02*
D03*
X403860Y4069080D02*
D03*
X3258820Y4251960D02*
D03*
X2975014Y4143233D02*
D03*
X5501640Y975360D02*
D03*
X4338320Y5529580D02*
D03*
X4129029Y5574399D02*
D03*
X3977640Y5369560D02*
D03*
X4008120Y5453380D02*
D03*
X7063740Y3114040D02*
D03*
X3507740Y7495540D02*
D03*
X3586480Y7297420D02*
D03*
X3241040Y5941460D02*
D03*
X5836920Y4572000D02*
D03*
X4882280Y5641340D02*
D03*
Y5445760D02*
D03*
X6979920Y3860800D02*
D03*
X927100Y2545080D02*
D03*
X1844040Y5402580D02*
D03*
X1478280Y5633720D02*
D03*
X1788160Y5308600D02*
D03*
X1282700Y4991100D02*
D03*
X1427480Y4968240D02*
D03*
X739079Y4892800D02*
D03*
X1267460Y5471160D02*
D03*
X1950720Y5473700D02*
D03*
X1016000Y5384800D02*
D03*
X2217420Y5595620D02*
D03*
X2296160Y5521560D02*
D03*
X1270000Y5567680D02*
D03*
X739079Y4692800D02*
D03*
X1612900Y7378700D02*
D03*
X7134860Y1678940D02*
D03*
X7289800Y612140D02*
D03*
X7002780Y1689100D02*
D03*
X4335780Y7355840D02*
D03*
X4483100Y7292340D02*
D03*
X4320540Y6979920D02*
D03*
X7804727Y1357041D02*
D03*
X7482840Y1264920D02*
D03*
X7068820Y1612900D02*
D03*
X7160260Y5019040D02*
D03*
X6908800Y5623560D02*
D03*
X1811020Y7622140D02*
D03*
X1325880Y7538720D02*
D03*
X1447800Y7378700D02*
D03*
X1897380Y6633140D02*
D03*
X2273300Y6761480D02*
D03*
X2159000Y6810140D02*
D03*
X2110740Y7012940D02*
D03*
X6493169Y6074675D02*
D03*
X7002780Y5908040D02*
D03*
X3188802Y6986438D02*
D03*
X762000Y7086600D02*
D03*
X1310640Y7091680D02*
D03*
X751840Y5290820D02*
D03*
X734284Y5687894D02*
D03*
X1262380Y4691380D02*
D03*
X746760Y6286500D02*
D03*
X1579880Y6573520D02*
D03*
X1256195Y6287778D02*
D03*
X1788160Y6664960D02*
D03*
D22*
X3606800Y4127500D02*
D03*
X6885940Y8343900D02*
D03*
X3505200Y1678940D02*
D03*
X7835900Y8280400D02*
D03*
X1558530Y1756170D02*
D03*
X5895340Y2186940D02*
D03*
X2311400Y5854700D02*
D03*
X4727660Y6454140D02*
D03*
X4986020Y4889500D02*
D03*
X4533900Y7133900D02*
D03*
X3103880Y1318260D02*
D03*
X5361940Y2504440D02*
D03*
X4927600Y908220D02*
D03*
X4770120Y1308100D02*
D03*
X4551786Y4678786D02*
D03*
X3048000Y4579620D02*
D03*
X7495540Y868680D02*
D03*
X7581900Y601980D02*
D03*
X7000200Y693420D02*
D03*
X5285740Y1536700D02*
D03*
X5397500Y708660D02*
D03*
X2369820Y5120640D02*
D03*
X1320800Y4292600D02*
D03*
X2865375Y4868925D02*
D03*
X368300Y2514600D02*
D03*
X3290564Y4814564D02*
D03*
X5499100Y1127760D02*
D03*
X4724400Y5854700D02*
D03*
X3239400Y7268700D02*
D03*
X2565400Y7188200D02*
D03*
X8013700Y2514600D02*
D03*
X8026400Y2768600D02*
D03*
X7640320Y1615440D02*
D03*
X7645400Y1485900D02*
D03*
X5346700Y7543800D02*
D03*
X5918200Y7581900D02*
D03*
X2293620Y6383020D02*
D03*
X2710614Y7282614D02*
D03*
X3835400Y7264400D02*
D03*
X3581400Y4254500D02*
D03*
X3187700Y4559300D02*
D03*
X4013200Y4203700D02*
D03*
X4140200Y4864100D02*
D03*
X4290850Y4826000D02*
D03*
X4711700Y5308600D02*
D03*
X279400Y5791200D02*
D03*
X8077200Y4559300D02*
D03*
Y4762500D02*
D03*
X7620000Y4165600D02*
D03*
Y4356100D02*
D03*
X8077200D02*
D03*
Y4165600D02*
D03*
X7404100D02*
D03*
Y4356100D02*
D03*
X1358900Y8521700D02*
D03*
X2540000Y8699500D02*
D03*
X469900Y3619500D02*
D03*
X533400Y1981200D02*
D03*
X7264400Y5867400D02*
D03*
X1828800Y8343900D02*
D03*
X1358900Y7886700D02*
D03*
X177800Y5105400D02*
D03*
X203200Y4292600D02*
D03*
X2603500Y1143000D02*
D03*
X8089900Y1092200D02*
D03*
D23*
X7062295Y4291889D02*
D03*
X7150100Y4363720D02*
D03*
%TF.MD5,d2835d6b731ad552ef779d5b968ad626*%
M02*
