G04*
G04 #@! TF.GenerationSoftware,Altium Limited,Altium Designer,21.8.1 (53)*
G04*
G04 Layer_Physical_Order=5*
G04 Layer_Color=128*
%FSLAX25Y25*%
%MOIN*%
G70*
G04*
G04 #@! TF.SameCoordinates,1DA8EEA3-8410-44CE-929F-920E368E6BCF*
G04*
G04*
G04 #@! TF.FilePolarity,Negative*
G04*
G01*
G75*
%ADD16C,0.01000*%
%ADD19C,0.00800*%
%ADD75C,0.04000*%
%ADD86C,0.05969*%
%ADD87C,0.08016*%
G04:AMPARAMS|DCode=88|XSize=100.157mil|YSize=100.157mil|CornerRadius=0mil|HoleSize=0mil|Usage=FLASHONLY|Rotation=0.000|XOffset=0mil|YOffset=0mil|HoleType=Round|Shape=Relief|Width=10mil|Gap=10mil|Entries=4|*
%AMTHD88*
7,0,0,0.10016,0.08016,0.01000,45*
%
%ADD88THD88*%
%ADD89C,0.08724*%
G04:AMPARAMS|DCode=90|XSize=126.929mil|YSize=126.929mil|CornerRadius=0mil|HoleSize=0mil|Usage=FLASHONLY|Rotation=0.000|XOffset=0mil|YOffset=0mil|HoleType=Round|Shape=Relief|Width=10mil|Gap=10mil|Entries=4|*
%AMTHD90*
7,0,0,0.12693,0.10693,0.01000,45*
%
%ADD90THD90*%
%ADD91C,0.07000*%
G04:AMPARAMS|DCode=92|XSize=79.685mil|YSize=79.685mil|CornerRadius=0mil|HoleSize=0mil|Usage=FLASHONLY|Rotation=0.000|XOffset=0mil|YOffset=0mil|HoleType=Round|Shape=Relief|Width=10mil|Gap=10mil|Entries=4|*
%AMTHD92*
7,0,0,0.07969,0.05969,0.01000,45*
%
%ADD92THD92*%
%ADD93C,0.16520*%
%ADD94C,0.04984*%
D16*
X377559Y0D02*
Y59055D01*
X63976Y335039D02*
Y354724D01*
X377559Y59055D02*
X377559Y355000D01*
X0Y354724D02*
X63976D01*
X332677Y355000D02*
X377559Y355000D01*
X63976Y335039D02*
X332677Y335615D01*
Y355000D01*
X0Y0D02*
Y354724D01*
D19*
X157480Y0D02*
X377559D01*
X0D02*
X110236D01*
X157480D02*
Y19685D01*
X110236D02*
X157480D01*
X110236Y0D02*
Y19685D01*
D75*
X0Y0D02*
X110236D01*
Y19685D01*
X157480D01*
Y0D02*
Y19685D01*
Y0D02*
X377559D01*
X63976Y335039D02*
X339567Y335630D01*
X63976Y335039D02*
Y354724D01*
X0D02*
X63976D01*
X339567Y355000D02*
X377559Y355000D01*
X339567Y335630D02*
Y355000D01*
X377559Y59055D02*
X377559Y0D01*
X377559Y59055D02*
X377559Y355000D01*
X0Y0D02*
Y354724D01*
D86*
X154371Y88704D02*
D03*
Y93625D02*
D03*
X92560Y108192D02*
D03*
Y98350D02*
D03*
Y93428D02*
D03*
Y88507D02*
D03*
Y78665D02*
D03*
Y68822D02*
D03*
Y63901D02*
D03*
X154371Y108389D02*
D03*
Y103468D02*
D03*
Y98546D02*
D03*
Y78861D02*
D03*
Y69019D02*
D03*
Y64098D02*
D03*
D87*
X369508Y131791D02*
D03*
X359508D02*
D03*
X349508D02*
D03*
X329508D02*
D03*
X319508D02*
D03*
X297992D02*
D03*
X287992D02*
D03*
X277992D02*
D03*
X257992D02*
D03*
X247992D02*
D03*
X46535Y27905D02*
D03*
X56535D02*
D03*
X66535D02*
D03*
X86535D02*
D03*
X96535D02*
D03*
X46000Y8000D02*
D03*
X66000D02*
D03*
X76000D02*
D03*
X96000D02*
D03*
X40000Y255000D02*
D03*
Y245000D02*
D03*
Y225000D02*
D03*
Y235000D02*
D03*
Y205000D02*
D03*
Y195000D02*
D03*
Y185000D02*
D03*
Y165000D02*
D03*
Y175000D02*
D03*
Y145000D02*
D03*
Y125000D02*
D03*
Y155000D02*
D03*
Y135000D02*
D03*
Y215000D02*
D03*
Y265000D02*
D03*
X50000Y105000D02*
D03*
Y135000D02*
D03*
Y125000D02*
D03*
Y115000D02*
D03*
Y145000D02*
D03*
Y165000D02*
D03*
Y55000D02*
D03*
Y65000D02*
D03*
Y85000D02*
D03*
Y95000D02*
D03*
Y75000D02*
D03*
Y155000D02*
D03*
X40000Y305000D02*
D03*
Y275000D02*
D03*
Y295000D02*
D03*
X50000Y285000D02*
D03*
Y295000D02*
D03*
X40000Y285000D02*
D03*
X50000Y305000D02*
D03*
Y275000D02*
D03*
Y255000D02*
D03*
Y245000D02*
D03*
Y235000D02*
D03*
Y225000D02*
D03*
Y215000D02*
D03*
Y205000D02*
D03*
Y185000D02*
D03*
Y175000D02*
D03*
Y265000D02*
D03*
Y195000D02*
D03*
X40000Y95000D02*
D03*
Y105000D02*
D03*
Y75000D02*
D03*
Y115000D02*
D03*
Y55000D02*
D03*
Y85000D02*
D03*
Y65000D02*
D03*
X20000Y255000D02*
D03*
Y245000D02*
D03*
Y225000D02*
D03*
Y235000D02*
D03*
Y185000D02*
D03*
Y165000D02*
D03*
Y175000D02*
D03*
Y145000D02*
D03*
Y125000D02*
D03*
Y155000D02*
D03*
Y135000D02*
D03*
Y215000D02*
D03*
Y265000D02*
D03*
X30000Y105000D02*
D03*
Y135000D02*
D03*
Y125000D02*
D03*
Y115000D02*
D03*
Y145000D02*
D03*
Y165000D02*
D03*
Y55000D02*
D03*
Y65000D02*
D03*
Y85000D02*
D03*
Y95000D02*
D03*
Y75000D02*
D03*
Y155000D02*
D03*
X20000Y305000D02*
D03*
Y275000D02*
D03*
Y295000D02*
D03*
X30000Y285000D02*
D03*
Y295000D02*
D03*
X20000Y285000D02*
D03*
X30000Y305000D02*
D03*
Y275000D02*
D03*
Y255000D02*
D03*
Y245000D02*
D03*
Y235000D02*
D03*
Y225000D02*
D03*
Y215000D02*
D03*
Y185000D02*
D03*
Y175000D02*
D03*
Y265000D02*
D03*
X20000Y95000D02*
D03*
Y105000D02*
D03*
Y75000D02*
D03*
Y115000D02*
D03*
Y55000D02*
D03*
Y85000D02*
D03*
Y65000D02*
D03*
D88*
X339508Y131791D02*
D03*
X267992D02*
D03*
X76535Y27905D02*
D03*
X56000Y8000D02*
D03*
X86000D02*
D03*
X20000Y205000D02*
D03*
Y195000D02*
D03*
X30000Y205000D02*
D03*
Y195000D02*
D03*
D89*
X206806Y77048D02*
D03*
X226378Y18504D02*
D03*
X185433D02*
D03*
X265700Y18500D02*
D03*
X328000D02*
D03*
D90*
X196806Y87048D02*
D03*
X216806D02*
D03*
X196806Y67048D02*
D03*
X216806D02*
D03*
X216378Y28504D02*
D03*
X236378D02*
D03*
X216378Y8504D02*
D03*
X236378D02*
D03*
X175433Y28504D02*
D03*
X195433D02*
D03*
X175433Y8504D02*
D03*
X195433D02*
D03*
X255700Y8500D02*
D03*
Y28500D02*
D03*
X275700Y8500D02*
D03*
Y28500D02*
D03*
X318000Y8500D02*
D03*
Y28500D02*
D03*
X338000Y8500D02*
D03*
Y28500D02*
D03*
D91*
X335500Y316500D02*
D03*
X303400Y299500D02*
D03*
D92*
X92560Y103271D02*
D03*
Y83586D02*
D03*
Y73743D02*
D03*
X154371Y83783D02*
D03*
Y73940D02*
D03*
D93*
X357559Y334724D02*
D03*
Y20000D02*
D03*
X20000Y35000D02*
D03*
Y324724D02*
D03*
D94*
X280755Y272748D02*
D03*
X270177Y278642D02*
D03*
X162000Y50700D02*
D03*
X173500Y51900D02*
D03*
X168000Y181500D02*
D03*
X164503Y204198D02*
D03*
X162713Y222720D02*
D03*
X160591Y207638D02*
D03*
X160433Y203642D02*
D03*
X160236Y210925D02*
D03*
X163976Y198835D02*
D03*
X166142Y195768D02*
D03*
X135844Y49756D02*
D03*
X135600Y45100D02*
D03*
X193200Y289400D02*
D03*
X184499Y268799D02*
D03*
X61024Y274824D02*
D03*
Y245476D02*
D03*
X131791Y82109D02*
D03*
X338183Y271716D02*
D03*
X363051Y174331D02*
D03*
X243200Y145700D02*
D03*
X238700Y165700D02*
D03*
X234500Y186700D02*
D03*
X239200Y190500D02*
D03*
X238900Y210800D02*
D03*
X238600Y221700D02*
D03*
X237961Y234500D02*
D03*
X237700Y253900D02*
D03*
X238500Y283300D02*
D03*
X238600Y270600D02*
D03*
X238458Y298742D02*
D03*
X242800Y307900D02*
D03*
X184800Y223900D02*
D03*
X217900Y206200D02*
D03*
X202615Y189315D02*
D03*
X275400Y74300D02*
D03*
X205666Y272324D02*
D03*
X208100Y299800D02*
D03*
X208186Y275000D02*
D03*
X138384Y240748D02*
D03*
X129600Y142575D02*
D03*
X129707Y157307D02*
D03*
X105584Y156500D02*
D03*
X335501Y287015D02*
D03*
X159940Y221659D02*
D03*
X185000Y202516D02*
D03*
X324590Y185518D02*
D03*
X195035Y155654D02*
D03*
X70769Y140075D02*
D03*
X114764Y115574D02*
D03*
X150514Y188484D02*
D03*
X101500Y185000D02*
D03*
X103015Y179015D02*
D03*
X100000Y175000D02*
D03*
X97597Y177406D02*
D03*
X214000Y205000D02*
D03*
X321500Y265012D02*
D03*
X115256Y277532D02*
D03*
X124000Y157000D02*
D03*
X225000Y322500D02*
D03*
X222500D02*
D03*
X219500D02*
D03*
X80000Y295000D02*
D03*
Y297500D02*
D03*
Y292500D02*
D03*
X151000Y287500D02*
D03*
Y285000D02*
D03*
X160000D02*
D03*
X181000Y302500D02*
D03*
X174213Y255542D02*
D03*
X202687Y172413D02*
D03*
X204312Y177382D02*
D03*
X338500Y174898D02*
D03*
X103500Y187500D02*
D03*
X184600Y177400D02*
D03*
X339208Y184409D02*
D03*
X339000Y200500D02*
D03*
X218406Y192165D02*
D03*
X107500Y189500D02*
D03*
X104209Y258600D02*
D03*
X96022Y39522D02*
D03*
X95768Y236024D02*
D03*
X96000Y244000D02*
D03*
X95079Y240748D02*
D03*
X100000Y243500D02*
D03*
X95500Y197000D02*
D03*
X90000Y39500D02*
D03*
X338500Y281000D02*
D03*
X338000Y292000D02*
D03*
X325000Y261000D02*
D03*
X65500Y255000D02*
D03*
Y265000D02*
D03*
X61484Y223721D02*
D03*
X59000Y209100D02*
D03*
X56516Y229232D02*
D03*
X59850Y205000D02*
D03*
X77744Y200256D02*
D03*
X311000Y248500D02*
D03*
X315077Y242923D02*
D03*
X350138Y256201D02*
D03*
X356500Y170000D02*
D03*
X366500Y178500D02*
D03*
X365500Y258500D02*
D03*
X371500Y240000D02*
D03*
X274885Y180549D02*
D03*
X189000Y183000D02*
D03*
X364500Y271750D02*
D03*
Y269250D02*
D03*
Y266750D02*
D03*
X332677Y297638D02*
D03*
X274885Y312832D02*
D03*
X266660Y316266D02*
D03*
X213243Y323757D02*
D03*
X333000Y247500D02*
D03*
X333500Y253500D02*
D03*
X329000Y191000D02*
D03*
X202689Y194926D02*
D03*
X144500Y191000D02*
D03*
X150000Y174000D02*
D03*
X144610Y174579D02*
D03*
X338216Y277716D02*
D03*
X116182Y77773D02*
D03*
X343000Y105500D02*
D03*
X347721Y105691D02*
D03*
X326651Y98743D02*
D03*
X236500Y304000D02*
D03*
X234000D02*
D03*
X231500D02*
D03*
X217421Y299016D02*
D03*
X91987Y311984D02*
D03*
X227362Y293406D02*
D03*
X227596Y287356D02*
D03*
X106693Y297693D02*
D03*
X89500Y249200D02*
D03*
X88700Y170800D02*
D03*
X229823Y50886D02*
D03*
X134252Y245965D02*
D03*
X112402Y48425D02*
D03*
X126969Y48228D02*
D03*
X226547Y249606D02*
D03*
X226378Y243701D02*
D03*
X222835Y280413D02*
D03*
X226575Y218012D02*
D03*
X222835Y215354D02*
D03*
X225243Y207638D02*
D03*
X231890Y210138D02*
D03*
X59169Y134957D02*
D03*
X70965Y252264D02*
D03*
X68209Y241634D02*
D03*
X70374Y120768D02*
D03*
X60827Y129626D02*
D03*
X64764Y125984D02*
D03*
X326279Y93821D02*
D03*
X65551Y212402D02*
D03*
X73622Y230591D02*
D03*
Y111417D02*
D03*
X249213Y98721D02*
D03*
X249114Y93799D02*
D03*
X221949Y164787D02*
D03*
X218110Y162303D02*
D03*
X221457Y199508D02*
D03*
X158957Y217913D02*
D03*
X159902Y214332D02*
D03*
X193373Y316043D02*
D03*
X197563Y316732D02*
D03*
X87205Y321457D02*
D03*
X205341Y296898D02*
D03*
X196236Y235102D02*
D03*
X205709Y241043D02*
D03*
X56595Y163878D02*
D03*
X332677Y159055D02*
D03*
X144882Y156825D02*
D03*
X195079Y161614D02*
D03*
X184344Y245344D02*
D03*
X195075Y149705D02*
D03*
X111110Y275215D02*
D03*
X118200Y258600D02*
D03*
X123859Y63808D02*
D03*
X116182Y63829D02*
D03*
X73063Y98743D02*
D03*
X265453Y282579D02*
D03*
X208661Y229134D02*
D03*
X216240Y330217D02*
D03*
X202854Y316437D02*
D03*
X272093Y317861D02*
D03*
X274828Y225025D02*
D03*
X270084Y230025D02*
D03*
X269980Y185776D02*
D03*
X202749Y302323D02*
D03*
X202658Y277461D02*
D03*
X265349Y150841D02*
D03*
X264764Y238681D02*
D03*
X264604Y195025D02*
D03*
X357185Y74213D02*
D03*
X295374Y103740D02*
D03*
X123917Y77559D02*
D03*
X121300Y89469D02*
D03*
X118741Y86978D02*
D03*
X106733Y60688D02*
D03*
X77205Y88346D02*
D03*
Y74351D02*
D03*
X72835Y68701D02*
D03*
X79232Y217126D02*
D03*
X154565Y149435D02*
D03*
X139700Y258900D02*
D03*
M02*
