%FSTAX23Y23*%
%MOIN*%
%SFA1B1*%

%IPPOS*%
%AMD91*
1,1,0.095433,0.000000,0.000000*
1,0,0.075433,0.000000,0.000000*
4,0,4,0.030200,0.037300,-0.037300,-0.030200,-0.030200,-0.037300,0.037300,0.030200,0.030200,0.037300,0.0*
4,0,4,-0.030200,0.037300,0.037300,-0.030200,0.030200,-0.037300,-0.037300,0.030200,-0.030200,0.037300,0.0*
%
%AMD97*
1,1,0.100157,0.000000,0.000000*
1,0,0.080157,0.000000,0.000000*
4,0,4,0.031800,0.038900,-0.038900,-0.031800,-0.031800,-0.038900,0.038900,0.031800,0.031800,0.038900,0.0*
4,0,4,-0.031800,0.038900,0.038900,-0.031800,0.031800,-0.038900,-0.038900,0.031800,-0.031800,0.038900,0.0*
%
%ADD88C,0.040000*%
%ADD89C,0.162047*%
%ADD90C,0.075433*%
G04~CAMADD=91~12~0.0~0.0~0.0~0.0~0.0~0.0~0~954.3~754.3~0.0~45.0~4~100.0~0.0~0.0~0.0~0~0.0~0.0~0.0~0.0~954.3~954.3*
%ADD91D91*%
%ADD92C,0.071496*%
%ADD93O,0.073464X0.095118*%
%ADD94O,0.061653X0.087244*%
%ADD95C,0.072008*%
%ADD96C,0.080157*%
G04~CAMADD=97~12~0.0~0.0~0.0~0.0~0.0~0.0~0~1001.6~801.6~0.0~45.0~4~100.0~0.0~0.0~0.0~0~0.0~0.0~0.0~0.0~1001.6~1001.6*
%ADD97D97*%
%ADD98C,0.165197*%
%ADD99C,0.049842*%
%ADD100C,0.051811*%
%LNocb_development_board-1*%
%LPD*%
G54D88*
X0Y0D02*
X03775D01*
Y0355*
X0D02*
X03775D01*
X0Y0D02*
Y0355D01*
G54D89*
X0137Y0322D03*
X02353D03*
G54D90*
X01646Y0317D03*
X017Y0327D03*
X01754Y0317D03*
X01807Y0327D03*
X01915D03*
X02023D03*
X02077Y0317D03*
G54D91*
X01861Y0317D03*
X01969D03*
G54D92*
X0291Y03345D03*
X03106D03*
G54D93*
X02861Y03303D03*
X03155D03*
G54D94*
X02855Y03453D03*
X0316D03*
G54D95*
X003Y01574D03*
Y02907D03*
G54D96*
X03375Y0105D03*
Y0115D03*
Y0135D03*
Y0125D03*
Y0155D03*
Y0165D03*
Y0175D03*
Y0195D03*
Y0185D03*
Y0215D03*
Y0235D03*
Y0205D03*
Y0225D03*
Y0145D03*
Y0095D03*
X03275Y0255D03*
Y0225D03*
Y0235D03*
Y0245D03*
Y0215D03*
Y0195D03*
Y0305D03*
Y0295D03*
Y0275D03*
Y0265D03*
Y0285D03*
Y0205D03*
X03375Y0055D03*
Y0085D03*
Y0065D03*
X03275Y0075D03*
Y0065D03*
X03375Y0075D03*
X03275Y0055D03*
Y0085D03*
Y0105D03*
Y0115D03*
Y0125D03*
Y0135D03*
Y0145D03*
Y0155D03*
Y0175D03*
Y0185D03*
Y0095D03*
Y0165D03*
X03375Y0265D03*
Y0255D03*
Y0285D03*
Y0245D03*
Y0305D03*
Y0275D03*
Y0295D03*
X03575Y0105D03*
Y0115D03*
Y0135D03*
Y0125D03*
Y0175D03*
Y0195D03*
Y0185D03*
Y0215D03*
Y0235D03*
Y0205D03*
Y0225D03*
Y0145D03*
Y0095D03*
X03475Y0255D03*
Y0225D03*
Y0235D03*
Y0245D03*
Y0215D03*
Y0195D03*
Y0305D03*
Y0295D03*
Y0275D03*
Y0265D03*
Y0285D03*
Y0205D03*
X03575Y0055D03*
Y0085D03*
Y0065D03*
X03475Y0075D03*
Y0065D03*
X03575Y0075D03*
X03475Y0055D03*
Y0085D03*
Y0105D03*
Y0115D03*
Y0125D03*
Y0135D03*
Y0145D03*
Y0175D03*
Y0185D03*
Y0095D03*
X03575Y0265D03*
Y0255D03*
Y0285D03*
Y0245D03*
Y0305D03*
Y0275D03*
Y0295D03*
G54D97*
X03575Y0155D03*
Y0165D03*
X03475Y0155D03*
Y0165D03*
G54D98*
X0361Y00185D03*
X03575Y0332D03*
X0018Y0327D03*
X002Y0035D03*
G54D99*
X02367Y0064D03*
X02538Y02968D03*
X01911D03*
X02627Y03447D03*
X01683Y00902D03*
X01179Y02954D03*
X01223Y02971D03*
X00431Y00722D03*
X00901Y01251D03*
X01092Y02462D03*
X02018Y01583D03*
X01449Y02693D03*
X00615Y01551D03*
X00848Y01769D03*
X00698Y01715D03*
X00519Y01525D03*
X00484Y01179D03*
X01148Y02687D03*
X02475Y02776D03*
X02426Y02845D03*
X02384Y02909D03*
X02342Y0273D03*
X02562Y00341D03*
X02364Y00343D03*
X02665Y02176D03*
X02903Y00816D03*
X00955Y01523D03*
X02332Y00916D03*
X01606Y00695D03*
X01654Y00512D03*
X02512Y01706D03*
X02453Y01762D03*
X02706Y01694D03*
X0238Y01812D03*
X02377Y01873D03*
X02418Y01905D03*
X02106Y02426D03*
X0215Y02452D03*
X02188Y02478D03*
X01484Y02429D03*
X01534Y02466D03*
X01584Y02502D03*
X01695Y02578D03*
X02189Y02537D03*
X0108Y02203D03*
X01028Y02249D03*
X0108Y02123D03*
X0123Y02249D03*
X01652Y02224D03*
X0159D03*
X01682Y02224D03*
X00789Y02246D03*
X01451Y02086D03*
X01732Y02627D03*
X01922Y01963D03*
X01956Y01978D03*
X02405Y0233D03*
X02361Y02321D03*
X02522Y0268D03*
X01294Y02752D03*
X00789Y00876D03*
X01229Y0118D03*
X01827Y01524D03*
X01519Y01552D03*
X01385Y01524D03*
X01086Y01551D03*
X01277D03*
X00839D03*
X01669Y01581D03*
X02139Y01551D03*
X0041Y00857D03*
X02443Y01058D03*
X02336Y01254D03*
X02389Y01278D03*
X02318Y0095D03*
X02271Y00946D03*
X02269Y00997D03*
X02504Y0097D03*
X02449Y00942D03*
X02471Y00894D03*
X01574Y00812D03*
X01624Y00814D03*
X01525Y00811D03*
X0118Y00464D03*
X01259Y00434D03*
X0133Y00951D03*
X01772Y00551D03*
X01607Y01188D03*
X0178Y01252D03*
X01781Y01187D03*
X01687Y01189D03*
X01636Y01325D03*
X0203Y0132D03*
X0208Y01319D03*
X01708Y00508D03*
X01276Y01193D03*
X01337Y01251D03*
X01334Y01177D03*
X00777Y01185D03*
X00902Y0117D03*
X00731Y01186D03*
Y01325D03*
X00777Y01328D03*
X01157Y01334D03*
X01207Y01336D03*
X01704Y00358D03*
X01671Y00409D03*
X01772Y00275D03*
X01588Y01326D03*
X01849Y00334D03*
X01831Y00385D03*
X00765Y01726D03*
X00864Y01901D03*
X0032Y01249D03*
X0037Y01218D03*
X00272Y01286D03*
X0196Y01285D03*
X0192Y0125D03*
X01953Y01219D03*
X00484Y0125D03*
X02165Y01063D03*
X02281Y02626D03*
X00361Y00937D03*
X0151Y02039D03*
X02679Y00636D03*
X02562Y00638D03*
X02166Y006D03*
X02842Y00308D03*
X02808Y00282D03*
X02731Y00065D03*
X00766Y01938D03*
X01136Y02087D03*
X00739Y01963D03*
X01124Y02116D03*
X01235Y02364D03*
X01068Y02412D03*
X00101Y01617D03*
X00159Y01602D03*
X01283Y01674D03*
X01171Y01631D03*
X02166Y00384D03*
X01708Y02177D03*
X01625Y02194D03*
X01566Y02114D03*
X01578Y02147D03*
X02781Y01226D03*
X01381Y02951D03*
X01412Y02873D03*
X01276Y02339D03*
X02298Y018D03*
X01922Y02221D03*
Y02144D03*
X02748Y0152D03*
X00365Y01002D03*
X00726Y02127D03*
X00582Y02218D03*
X00704Y0209D03*
X00505Y01965D03*
X00562Y01956D03*
X0029Y01926D03*
X00499Y02154D03*
X00768Y02155D03*
X004Y0212D03*
X00873Y02203D03*
X00904Y02173D03*
X005Y02192D03*
X0029Y01847D03*
X00635Y02905D03*
X02809Y00661D03*
X0287Y00241D03*
X02757Y00665D03*
X01707Y02896D03*
X01765Y02871D03*
X01701Y02748D03*
X03072Y00534D03*
X02946Y00498D03*
X02783Y00635D03*
X0278Y01689D03*
X02815Y01718D03*
X02819Y01976D03*
X0272Y02214D03*
X00713Y03D03*
X00522Y02968D03*
X0057Y02905D03*
X00747Y02611D03*
X00895Y02662D03*
X0085Y02681D03*
X00831Y02761D03*
X02556Y02391D03*
X02757Y02326D03*
X01255Y0275D03*
X003Y0279D03*
X00516Y02792D03*
X00296Y02083D03*
X00289Y02239D03*
X00497Y01847D03*
X00294Y02475D03*
X00622Y02588D03*
X00494Y02475D03*
X00704Y02624D03*
G54D100*
X0142Y01625D03*
X02711Y03285D03*
X0138Y00661D03*
X03085Y0326D03*
X00613Y00691D03*
X02321Y00861D03*
X0091Y02305D03*
X01861Y02541D03*
X01963Y01925D03*
X01785Y02808D03*
X01222Y00519D03*
X02111Y00986D03*
X0194Y00357D03*
X01878Y00515D03*
X01792Y01842D03*
X012Y01803D03*
X02951Y00342D03*
X02985Y00237D03*
X02755Y00273D03*
X02081Y00605D03*
X02125Y00279D03*
X00933Y02016D03*
X0052Y0169D03*
X01128Y01916D03*
X00145Y0099D03*
X01295Y01895D03*
X02165Y00444D03*
X0186Y02305D03*
X01275Y02861D03*
X0101Y0283D03*
X03155Y0099D03*
X0316Y0109D03*
X03008Y00636D03*
X0301Y00585D03*
X02105Y0297D03*
X0233Y02985D03*
X00903Y02513D03*
X01067Y02867D03*
X0151Y0286D03*
X0141Y01675D03*
X01255Y01795D03*
X0158Y01655D03*
X0163Y01915D03*
X01689Y019D03*
X01855Y0209D03*
X0011Y0228D03*
X0318Y01795D03*
Y01875D03*
X03Y0164D03*
Y01715D03*
X0318D03*
Y0164D03*
X02915D03*
Y01715D03*
X00535Y03355D03*
X01Y03425D03*
X00185Y01425D03*
X0021Y0078D03*
X0286Y0231D03*
X0072Y03285D03*
X00535Y03105D03*
X0007Y0201D03*
X0008Y0169D03*
X01025Y0045D03*
X03185Y0043D03*
M02*