%FSTAX23Y23*%
%MOIN*%
%SFA1B1*%

%IPPOS*%
%ADD10C,0.010000*%
%ADD11C,0.009843*%
%ADD12C,0.007874*%
%ADD13C,0.006000*%
%ADD14C,0.005000*%
%ADD15C,0.003937*%
%ADD16C,0.008000*%
%ADD17C,0.013000*%
%ADD18C,0.015000*%
%ADD19R,0.015748X0.086614*%
%ADD20R,0.086614X0.015748*%
%LNocb_development_board-1*%
%LPD*%
G36*
X02291Y01582D02*
X02293Y01575D01*
X02296Y01569*
X02297Y01567*
X02303Y01561*
X02309Y0155*
X02314Y01541*
X02316Y01539*
X02318Y01536*
X02319Y01534*
X02322Y01526*
X02324Y01522*
X02329Y01517*
X02331Y01514*
X02334Y01511*
X02334Y01507*
X02322Y01507*
X02318Y01506*
X02253Y01507*
X02251Y01513*
X0225Y01515*
X02248Y01516*
X02246Y01518*
X02241Y01526*
X02238Y01529*
X02237Y01538*
X02231Y01543*
X02228Y01549*
X02227Y01551*
X02224Y01552*
X02217Y01567*
X02216Y01569*
X02212Y01572*
X02209Y0158*
X02209Y01582*
X02217Y01581*
X02221Y01582*
X02229*
X02234Y01583*
X02246Y01582*
X0225Y01581*
X02266Y01582*
X0227Y01581*
X02275Y01583*
X02285Y01579*
X02288Y01583*
X02289Y01583*
X02291Y01582*
G37*
G36*
X0219D02*
X02193Y01574D01*
X02195Y01569*
X02195Y01566*
X02198Y01565*
X02201Y01563*
X02202Y01561*
X02204Y01555*
X02208Y01549*
X0221Y01547*
X02212Y01541*
X02213Y01539*
X02215Y01537*
X02217Y01536*
X02223Y01526*
X02227Y01519*
X02232Y01511*
X02233Y01507*
X02233Y01507*
X02162Y01507*
X02152Y01507*
X0215Y0151*
X02148Y01516*
X02143Y01521*
X0214Y01527*
X02139Y01531*
X02136Y01532*
X02133Y01535*
X02132Y01543*
X02128Y01547*
X02125Y01553*
X02122Y01558*
X02118Y01562*
X02114Y0157*
X02109Y01577*
X0211Y01582*
X02114Y01581*
X02118Y01578*
X02122Y01579*
X02126Y0158*
X0218Y01579*
X02183Y01576*
X02186Y01577*
X02187Y01582*
X02187Y01583*
X0219Y01582*
G37*
G36*
X02039Y0159D02*
X02042Y01587D01*
X02043Y01583*
X02043Y01579*
X02042Y01574*
X0204Y01572*
X02038Y01571*
X02029Y01567*
X02004Y01568*
X02Y01567*
X01992Y01568*
X01974Y01567*
X01922Y01565*
X019Y01564*
X01885Y01562*
X01876Y01561*
X0185Y01558*
X01846Y01557*
X0184Y01556*
X01833Y01555*
X01824Y01554*
X01818Y01553*
X01813Y01551*
X01807Y0155*
X01797Y01549*
X01796*
X01789Y01547*
X01782Y01545*
X01778Y01544*
X01767Y01542*
X01753Y01538*
X01744Y01537*
X01736Y01534*
X01727Y01532*
X01723Y01531*
X01717Y01528*
X01712Y01527*
X01706Y01526*
X01701Y01524*
X01694Y01522*
X01689Y01521*
X01681Y01517*
X01677Y01516*
X01669Y01513*
X01659Y0151*
X01654Y01509*
X01645Y01506*
X01634Y01502*
X01627Y01499*
X01622Y01498*
X01614Y01494*
X01604Y01489*
X01599Y01488*
X01589Y01484*
X01581Y01481*
X01575Y01478*
X01569Y01475*
X01563Y01472*
X01557Y0147*
X01551Y01469*
X01547Y0147*
X01545Y01475*
X01546Y0148*
X01578Y01494*
X0158Y01495*
X01591Y015*
X01594Y01501*
X01602Y01504*
X01608Y01507*
X01616Y0151*
X01629Y01516*
X01634Y01517*
X01636Y0152*
X01645Y01522*
X01658Y01528*
X01666Y01531*
X01675Y01534*
X01683Y01537*
X01689Y01539*
X01698Y01542*
X01718Y01549*
X01728Y01551*
X01734Y01553*
X01738Y01554*
X01747Y01556*
X01753Y01558*
X01759Y0156*
X01765Y01561*
X01775Y01564*
X01779Y01565*
X0179Y01567*
X01796Y01569*
X01801Y01571*
X01819Y01574*
X01825Y01575*
X0183Y01576*
X01838Y01578*
X01843Y01579*
X01849Y0158*
X01855Y01582*
X01866Y01583*
X01877Y01584*
X01883Y01585*
X0189Y01586*
X01905Y01588*
X01924Y0159*
X0194Y01592*
X01952Y01593*
X02033Y01594*
X02039Y0159*
G37*
G36*
X0232Y01585D02*
X02331Y0158D01*
X02335Y01579*
X0234Y01581*
X02353Y01582*
X02359Y0158*
X0239Y01579*
X02395Y0158*
X02398Y01578*
X024Y01569*
X02406Y01561*
X02408Y01554*
X0241Y0155*
X02416Y01543*
X02419Y01534*
X02425Y01531*
X02428Y01523*
X02433Y01518*
X02434Y01513*
X02436Y01511*
X02439Y0151*
X0244Y01509*
X02433Y01507*
X02404*
X02353Y01508*
X02352Y0151*
X0235Y01514*
X02346Y01519*
X02345Y01521*
X02339Y01531*
X02338Y01533*
X02334Y01539*
X02333Y01542*
X02325Y01554*
X02317Y01569*
X02314Y01571*
X0231Y0158*
X02316Y01582*
X02317Y01586*
X0232Y01585*
G37*
G36*
X01501Y01461D02*
X015Y01452D01*
X01499Y01448*
X01497Y01444*
X01496Y0144*
X01495Y01427*
X01493Y01415*
X01491Y01401*
X01489Y01383*
X01488Y01377*
X01486Y0137*
X01484Y01355*
X01479Y01351*
X01471Y0135*
X01468Y01351*
X01466Y01353*
X0147Y01361*
X01471Y0138*
X01472Y01391*
Y01393*
X01473Y01397*
X01475Y01403*
X01477Y01419*
X01478Y01431*
X01479Y01441*
X01481Y01446*
X01482Y01455*
X01488Y01462*
X01494Y01461*
X01499Y01463*
X01501Y01461*
G37*
G36*
X01257Y01477D02*
X01258Y01471D01*
X01257Y01467*
X01256Y01454*
X01255Y01451*
X01254Y01444*
X01257Y0144*
X01265Y0144*
X01269Y01438*
X01268Y01427*
X01262Y01421*
X0126Y01419*
X01254Y01417*
X0125Y01413*
X01249Y01409*
X01248Y01401*
X01249Y01395*
X01251Y01393*
X01262Y01392*
X01264Y0139*
X01262Y01383*
X0126Y01377*
X01257Y01372*
X01249Y01371*
X01243Y01369*
X01242Y01365*
X0124Y01347*
X01239Y01342*
X01238Y0134*
X01236Y01338*
X01235Y01336*
X0123Y01335*
X01222Y01334*
X01217Y01335*
X01215Y0134*
X01218Y0135*
X01219Y01368*
X01216Y01371*
X01198Y01369*
X01196Y01367*
X01195Y01354*
X01192Y01348*
X01191Y0134*
X01187Y01336*
X01182Y01335*
X01171Y01334*
X01169Y01336*
X01168Y0134*
Y01341*
X01171Y01362*
X01173Y01366*
X01171Y01368*
X0117Y0137*
X01159Y01371*
X01157Y01373*
X01159Y01381*
X01163Y01389*
X0117Y01392*
X01172Y01393*
X01176Y01397*
X01177Y01405*
X01178Y0141*
X01178Y01415*
X01173Y01416*
X01165Y01417*
X01163Y01419*
X01164Y0143*
X0117Y01438*
X01177Y01439*
X01181Y01442*
X01184Y01448*
X01186Y01465*
X01188Y01471*
X01194Y01477*
X01202Y01478*
X01206Y01477*
X0121Y01475*
X01211Y0147*
X0121Y01467*
X01207Y01447*
X01208Y01441*
X0121Y0144*
X01221Y0144*
X01226Y0144*
X01229Y01442*
X01231Y01447*
X01232Y01458*
X01234Y01463*
X01235Y0147*
X0124Y01477*
X01252Y01478*
X01257Y01477*
G37*
G36*
X01943Y01461D02*
X01942Y01435D01*
X01945Y01431*
X01975Y0143*
X01977Y01428*
X01976Y01415*
X01973Y0141*
X01967Y01408*
X01959Y01407*
X01955Y01408*
X01951Y01407*
X01941Y01408*
X01938Y01406*
X01937Y01402*
X01936Y01388*
X01935Y01384*
X01933Y01375*
X01934Y01372*
X01939Y01371*
X01967*
X0197Y01368*
X01968Y01359*
X01966Y01354*
X01964Y01352*
X01963Y0135*
X01959Y01349*
X01947Y01348*
X01911Y01349*
X01909Y01351*
X01907Y0136*
X01908Y01364*
X01909Y01375*
X01911Y01383*
X01912Y01394*
X01914Y01399*
X01913Y01405*
X01911Y01407*
X01894Y01408*
X01892Y0141*
X01893Y01423*
X01898Y01429*
X01903Y0143*
X01906Y01431*
X01912Y0143*
X01918Y01433*
X0192Y01441*
X01921Y01457*
X0192Y01461*
X01921Y01464*
X01938Y01465*
X01943Y01461*
G37*
G36*
X01442Y01427D02*
X01454Y01426D01*
X01457Y01423*
X01456Y01399*
X01455Y01396*
X01452Y01381*
X0145Y01368*
X0145Y01362*
X01451Y0136*
X01449Y01356*
X01443Y01354*
X01441Y01351*
X01437Y0135*
X01425Y01351*
X01421Y0135*
X01383Y01351*
X0138Y0135*
X01376Y01351*
X01374Y01352*
X01371Y01355*
X01372Y01373*
X01377Y0138*
X01376Y01389*
X01377Y01393*
X01378Y01395*
X01384Y01396*
X0139Y01398*
X01413Y01397*
X01417Y01398*
X01428Y01397*
X01432Y01398*
X01437Y01401*
X01438Y01405*
X01437Y01409*
X01434Y01412*
X01391Y01412*
X01385Y01412*
X01381Y01416*
X01383Y01427*
X01387Y01428*
X01392Y01426*
X01395*
X01395Y01426*
X01401Y01428*
X01405Y01426*
X01411Y01428*
X0143Y01427*
X01439Y01428*
X01442Y01427*
G37*
G36*
X0252D02*
X02531Y01427D01*
X02538Y01426*
X02544Y01425*
X02546Y01423*
X02545Y01404*
X02543Y01398*
X02542Y01387*
X0254Y01384*
X02532Y0138*
X02482Y01379*
X02478Y01375*
X02479Y01372*
X02481Y0137*
X02486Y01369*
X02529Y01369*
X02533Y01368*
X02537Y01364*
X02537Y01355*
X02537Y01353*
X02535Y01351*
X02532Y0135*
X02528Y01351*
X0247Y01351*
X02464Y01353*
X02461Y01355*
X02462Y0136*
X02463Y01364*
X02462Y0137*
X02464Y01373*
X02465Y01394*
X02469Y01397*
X02468Y01408*
X02469Y01419*
X0247Y01421*
X02471Y01422*
X02473Y01423*
X02475Y01424*
X02483Y01428*
X02498Y01427*
X02502Y01428*
X0252Y01427*
G37*
G36*
X02331D02*
X02343Y01427D01*
X02353Y01426*
X02356Y01423*
X02357Y01418*
X02355Y01412*
X02353Y01401*
X02353Y01396*
X02354Y01393*
X02353Y01382*
X02352Y01379*
X0235Y01369*
X02348Y01362*
X02347Y01355*
X02339Y01351*
X02335Y0135*
X02287Y01351*
X02279Y0135*
X02271Y01355*
X02272Y0137*
X02271Y01375*
X02273Y01379*
X02274Y01383*
X02275Y0139*
X02278Y01395*
X02287Y01398*
X02318Y01397*
X02334Y01398*
X02339Y01403*
X02338Y01409*
X0233Y01412*
X02282Y01413*
X02281Y01415*
Y0142*
Y01422*
X02282Y01427*
X02288Y01428*
X0229Y01426*
X02291Y0142*
X02292Y0142*
X02293Y01427*
X02301Y01428*
X02305Y01427*
X02323Y01428*
X02331Y01427*
G37*
G36*
X02163D02*
X02164Y0142D01*
X02162Y01417*
X02161Y01415*
X02159Y01413*
X02155Y01412*
X02115Y01411*
X02114Y01412*
X02111Y0141*
X02105Y01409*
X02102Y01406*
X02103Y01399*
X02105Y01398*
X02117Y01397*
X0213Y01398*
X02132*
X02136Y01397*
X02151Y01398*
X02157Y01397*
X0216Y01394*
X02158Y01372*
X02157Y01368*
X02155Y01362*
X02154Y01355*
X0215Y01351*
X02137Y01351*
X02083Y01352*
X02079Y01355*
X02079Y01359*
X02081Y01363*
X02079Y01368*
X02085Y0137*
X02089Y01369*
X02134Y01368*
X02137Y01366*
X0214Y01369*
X02141Y01374*
X0214Y01376*
X02135Y01383*
X02127Y01379*
X02123Y0138*
X02093Y0138*
X02088Y01381*
X02084Y01384*
X02082Y01386*
X02083Y01401*
X02085Y01409*
X02086Y01412*
X02088Y0142*
X0209Y01426*
X02093Y01427*
X02098Y01426*
X02107Y01428*
X02123Y01427*
X02133Y01428*
X02136Y01427*
X02144Y01428*
X02151Y01427*
X02155Y01428*
X02163Y01427*
G37*
G36*
X02452D02*
X02452Y01419D01*
X0245Y01413*
X02445Y01412*
X02405Y0141*
X02395Y01409*
X0239Y01404*
X02389Y01399*
X02387Y01393*
X02386Y01389*
X02386Y01375*
X02387Y0137*
X0239Y01368*
X02397Y01369*
X02398Y0137*
X02402Y01369*
X02445Y01368*
X02445Y01366*
X02443Y0136*
X02441Y01354*
X02436Y01351*
X02428Y0135*
X024Y01351*
X02393Y0135*
X02389Y01351*
X02378Y0135*
X02371Y01351*
X02367Y01355*
X02365Y01359*
X02367Y01362*
X02368Y01381*
X02371Y01394*
X02374Y01401*
X02372Y01409*
X02374Y01413*
X02375Y01423*
X02376Y01424*
X02383Y01426*
X02387Y01427*
X02389Y01428*
X02393Y01427*
X02447Y01426*
X02449Y01427*
X0245Y01428*
X02452Y01427*
G37*
G36*
X02242Y01426D02*
X02245Y01427D01*
X02257Y01426*
X0226Y01423*
X02259Y01412*
X02258Y0141*
X02259Y01408*
X02258Y01404*
X02255Y01384*
X02253Y01371*
X02252Y01357*
X02251Y01355*
X02241Y0135*
X02229Y01351*
X02226Y0135*
X02211Y01351*
X02207Y0135*
X02195Y01351*
X0219Y01346*
X02189Y01345*
X02188Y01341*
X02187Y01328*
X02186Y01324*
X02184Y01319*
X02179Y01318*
X02169Y01317*
X02168Y01321*
X02172Y01332*
X02173Y01354*
X02174Y01367*
X02176Y01373*
X02178Y01379*
X02179Y01382*
X02177Y01383*
X02179Y01387*
X0218Y01409*
X02183Y01416*
X02184Y01424*
X02186Y01426*
X02191Y01426*
X02197Y01426*
X022Y01427*
X02235Y01427*
X02242Y01426*
G37*
G36*
X0159Y01424D02*
X0159Y01405D01*
X01589Y01402*
X01588Y01397*
X01587Y01388*
X01586Y01384*
X01584Y01369*
X01583Y01353*
X0158Y01345*
X01579Y0133*
X01578Y01326*
X01576Y01321*
X01573Y01318*
X01565Y01317*
X015Y01318*
X015Y01321*
X01502Y01323*
X01503Y01328*
X01504Y0133*
X01507Y01333*
X01512Y01334*
X01557Y01335*
X01565Y0134*
X01564Y01347*
X01561Y0135*
X01554Y01351*
X0155Y0135*
X01507Y01351*
X01506Y01353*
X01504Y01358*
Y01359*
Y0136*
X01506Y01373*
X01509Y01381*
X0151Y01396*
X01511Y01408*
X01513Y01416*
X01518Y01424*
X01527Y01427*
X01552Y01426*
X01571Y01427*
X01573Y01426*
X01577Y01427*
X0159Y01424*
G37*
G36*
X01345Y01426D02*
X01353Y01426D01*
X01356Y01427*
X01361Y01426*
X01362Y0142*
X01357Y01412*
X01352Y01411*
X01349Y0141*
X01346Y01412*
X01317Y0141*
X01305Y01411*
X01301Y01408*
X013Y01403*
X01298Y0139*
X01296Y01384*
X01294Y01377*
X01296Y01372*
X01297Y0137*
X01302Y01369*
X01334Y0137*
X01338Y01369*
X01355Y01368*
X01356Y01365*
X01355Y01361*
X01354Y01359*
X0135Y01355*
X01348Y01351*
X01329Y0135*
X01325Y01351*
X0131Y0135*
X01281Y01351*
X01278Y01354*
X01277Y01359*
X01278Y01367*
X01277Y0137*
X01278Y01376*
X0128Y01382*
X01282Y01395*
X01283Y01398*
X01282Y01404*
X01283Y01408*
X01284Y01412*
X01286Y01421*
X0129Y01427*
X01309Y01426*
X0131Y01426*
X01322Y01427*
X01341Y01427*
X01345Y01426*
G37*
G36*
X01636Y01427D02*
X01641Y01427D01*
X01644Y01428*
X01659Y01427*
X01673Y01428*
X01677Y01427*
X01684Y01426*
X01685Y01424*
X01687Y01419*
X01685Y01416*
X01684Y01393*
X01683Y01388*
X0168Y01383*
X01678Y01379*
X0168Y01375*
X01678Y01367*
X01677Y01357*
X01676Y01355*
X01673Y01354*
X01665Y0135*
X0165Y01351*
X01647Y0135*
X01635*
X01608Y01351*
X01601Y01354*
X01601Y01362*
X01602Y01366*
X01604Y01377*
X01605Y01383*
X01606Y01395*
X01609Y01397*
X01637Y01397*
X01645Y01397*
X01649Y01398*
X01662Y01397*
X01667Y01399*
X01668Y01404*
X01669Y01407*
X01665Y0141*
X0165Y01412*
X01647Y0141*
X01631Y01412*
X01627Y01411*
X01615Y01412*
X01612Y01413*
X01611Y01422*
X01612Y01426*
X01614Y01428*
X01631Y01428*
X01636Y01427*
G37*
G36*
X01874Y01427D02*
X01878Y01423D01*
X01879Y01422*
X01879Y01411*
X01877Y01405*
X01875Y01391*
X01874Y01376*
X01873Y01369*
X0187Y01359*
X01868Y0133*
X01867Y01326*
X01865Y01324*
X01862Y01318*
X01855Y01317*
X01844Y01317*
X01843Y01318*
X01839Y01317*
X01822Y01317*
X018Y01317*
X01796Y01318*
X01789Y01317*
X01788Y01318*
X01789Y01325*
X01796Y01333*
X01815Y01334*
X01846Y01335*
X01853Y0134*
X01851Y01348*
X01846Y0135*
X0181Y01351*
X018Y0135*
X01795Y01353*
X01793Y0136*
X01795Y01364*
X01796Y01382*
X01798Y01388*
X01799Y01402*
X01801Y01408*
X018Y01412*
X01801Y01419*
X01806Y01427*
X0181Y01428*
X01817Y01427*
X01818Y01416*
X01819Y01404*
X01815Y01396*
X01814Y01388*
X01812Y01379*
X01812Y01373*
X01816Y01368*
X01821Y01369*
X01824Y0137*
X01832Y01369*
X01851Y01368*
X01854Y0137*
X01856Y01379*
X01857Y01388*
X01859Y01394*
X01861Y01409*
X01862Y01423*
X01866Y01428*
X01874Y01427*
G37*
G36*
X01729D02*
X01784Y01427D01*
X01785Y01423*
X01784Y01418*
X01781Y01413*
X0177Y01412*
X01743Y0141*
X01742*
X01725Y01409*
X01724Y01408*
X0172Y01395*
X01719Y0139*
X01718Y01375*
X01717Y01365*
X01716Y01361*
X01714Y01357*
X01709Y01351*
X01701Y0135*
X01697Y01352*
X01699Y01362*
X017Y01373*
X01701Y01383*
X01703Y01388*
X01706Y014*
X01706Y01402*
X01705Y01405*
X01705Y01408*
X01706Y01415*
X01707Y0142*
X0171Y01424*
X01712Y01426*
X01721Y01427*
X01724Y01428*
X01729Y01427*
G37*
G36*
X02067Y0143D02*
X02071Y01427D01*
X02072Y01423*
X02071Y01399*
X0207Y01396*
X02068Y01387*
X02067Y01383*
X02064Y01359*
X02062Y01354*
X02058Y0135*
X0205Y01348*
X01984Y01349*
X01982Y01351*
X0198Y01359*
X01981Y01374*
X01982Y01382*
X01984Y01393*
X01985Y01398*
X01987Y01408*
X01988Y01417*
X0199Y01423*
X01992Y01427*
X01993Y01427*
X01995Y01429*
X02Y01431*
X02067Y0143*
G37*
G36*
X01286Y01308D02*
X01285Y01305D01*
X01283Y01304*
X01281Y01303*
X01276Y01298*
X01274Y01297*
X01271Y01293*
X01268Y01292*
X01264Y01287*
X01261Y01286*
X01258Y01283*
X01252Y01279*
X01249Y01276*
X01247Y01275*
X01246Y01273*
X01244Y01271*
X0124Y0127*
X01238Y01267*
X01235Y01266*
X01236Y0127*
X01241Y01273*
X01242Y01275*
X01247Y01281*
X01253Y01283*
X01254Y01286*
X01255Y01287*
X01258Y01289*
X0126Y01291*
X01261Y01292*
X01264Y01294*
X01265Y01295*
X01266Y01297*
X01268Y01298*
X01271Y013*
X01272Y01302*
X01274Y01304*
X01279Y01307*
X0128Y01309*
X01283Y01311*
X01286Y01308*
G37*
G36*
X01233Y01264D02*
X0123Y01261D01*
X01229*
X01228Y01261*
X01231Y01264*
X01233Y01264*
G37*
G36*
X01226Y01258D02*
Y01257D01*
X01222Y01255*
X01221Y01257*
X01223Y01258*
X01226Y01259*
Y01258*
G37*
G36*
X01219Y01252D02*
X01218Y0125D01*
X01215Y01249*
X01214Y01251*
X01216Y01253*
X01218*
X01219Y01252*
G37*
G36*
X01207Y01242D02*
Y0124D01*
X01206Y01239*
X01204Y01239*
X01205Y01242*
X01207Y01242*
X01207Y01242*
G37*
%LNocb_development_board-2*%
%LPC*%
G36*
X02245Y01546D02*
X02245Y01543D01*
X02245Y01543*
X02248Y01542*
X02248Y01546*
X02245Y01546*
G37*
G36*
X02346Y01549D02*
X02345Y01547D01*
X02343Y01543*
X02345Y01542*
X02347Y01543*
Y01546*
Y01547*
X02346Y01549*
G37*
G36*
X0122Y01416D02*
X01213D01*
X01203Y01415*
X01202Y01409*
X01201Y01397*
X01203Y01393*
X01213Y01394*
X01218Y01393*
X01224Y01397*
X01225Y01405*
X01224Y01415*
X0122Y01416*
G37*
G36*
X01418Y0138D02*
X01417D01*
X01396Y01379*
X01388Y01374*
X0139Y01372*
X01391Y0137*
X01396Y01369*
X01434Y0137*
X01437Y01373*
X01437Y01378*
X01432Y01379*
X01418Y0138*
G37*
G36*
X02486Y01419D02*
X02485Y01418D01*
X02486Y01417*
X02486Y01418*
X02486Y01419*
G37*
G36*
X0248Y01404D02*
X02479Y01403D01*
X0248Y01402*
X0248Y01403*
X0248Y01404*
G37*
G36*
X02499Y01413D02*
X02496Y01412D01*
X02489Y0141*
X02487Y01409*
X02486Y01403*
X02489Y01398*
X02496Y01397*
X02499Y01398*
X02525Y01399*
X02527Y01401*
X02528Y01403*
X0253Y01407*
X02526Y0141*
X02518Y01412*
X02503*
X02502Y01412*
X02499Y01413*
G37*
G36*
X0248Y01391D02*
X02478Y01389D01*
Y01388*
X0248Y01387*
X0248Y0139*
X0248Y01391*
G37*
G36*
X02472Y01364D02*
X02469Y01362D01*
X0247Y01359*
X02473Y01358*
X02473Y01359*
X02474Y01359*
X02475Y01361*
X02472Y01364*
G37*
G36*
X02324Y01381D02*
X02317Y0138D01*
X02313Y01379*
X02307Y01381*
X02302Y0138*
X02296Y01381*
X02292Y01377*
X02289Y01376*
X02289Y01374*
X02293Y0137*
X02295Y01369*
X02299Y01368*
X02303Y01369*
X02306*
X02331Y0137*
X02338Y01373*
X02336Y01375*
X02324Y01381*
G37*
G36*
X02282Y01377D02*
X02281Y01373D01*
X02282Y01371*
X02284Y01373*
Y01375*
X02284Y01376*
X02282Y01377*
G37*
G36*
X02324Y01359D02*
X02324Y01359D01*
X02325Y01358*
X02326Y01359*
X02324Y01359*
G37*
G36*
X02385Y01413D02*
X02384Y01412D01*
X02385Y01412*
X02385Y01412*
X02385Y01413*
G37*
G36*
X02375Y01376D02*
X02374Y01373D01*
X02375Y01371*
X02378Y01372*
X02378Y01375*
X02378Y01376*
X02375Y01376*
G37*
G36*
X02236Y01412D02*
X02221Y0141D01*
X02217Y01412*
X02213Y0141*
X02201Y01409*
X02197Y01405*
X02196Y01386*
X02193Y0138*
X02191Y01376*
X02193Y01373*
X02194Y01371*
X022Y01369*
X02217Y01369*
X02219Y01369*
X02222Y0137*
X0223Y01369*
X02231Y0137*
X02233*
X02239Y01373*
X02238Y01384*
X02239Y01388*
X0224Y01396*
X02241Y01401*
X0224Y01407*
X02236Y01412*
G37*
G36*
X02246Y01376D02*
X02245Y01375D01*
Y01374*
X02245Y01372*
X02247Y01374*
X02246Y01376*
G37*
G36*
X0223Y01363D02*
X02227Y01362D01*
X02226Y01361*
X02228Y01359*
X02231Y01361*
X02232Y01361*
X0223Y01363*
G37*
G36*
X0224Y01361D02*
X02239Y0136D01*
X02241Y01358*
X02241Y01359*
X02242Y0136*
X0224Y01361*
G37*
G36*
X01568Y01412D02*
X01564D01*
X01561Y0141*
X01546Y01411*
X01536Y0141*
X01532Y01408*
X01526Y01403*
X01528Y01393*
X01526Y01389*
X01525Y01383*
X01523Y01381*
X01522Y01379*
X01521Y01375*
X01522Y01372*
X01531Y01369*
X01547Y01369*
X01554Y01369*
X01557Y0137*
X01568Y01371*
X01571Y01372*
X01574Y01373*
X01573Y01376*
X01568Y01379*
X01569Y01384*
X01571Y01388*
X01571Y01406*
X01568Y01412*
G37*
G36*
X01512Y01369D02*
X01511Y01366D01*
X01513Y01365*
X01514Y01367*
X01513Y01368*
X01513Y01368*
X01512Y01369*
G37*
G36*
X01568Y01363D02*
X01566Y01362D01*
X01565Y01362*
X01565Y0136*
X01566Y01358*
X01568Y0136*
X01568Y01363*
G37*
G36*
Y0133D02*
X01565Y01328D01*
X01565Y01326*
X01568Y01327*
X01569Y01329*
X0157Y01329*
X01571Y0133*
X01568Y0133*
G37*
G36*
X01283Y0137D02*
X01282Y01368D01*
X01283Y01366*
X01285Y01368*
X01284Y01369*
X01283Y0137*
G37*
G36*
X01326Y01362D02*
X01326Y01361D01*
X01331Y01359*
X01331Y0136*
X01331Y01361*
X0133Y01361*
X01326Y01362*
G37*
G36*
X01316D02*
X01315Y01361D01*
X01315Y01361*
X01314Y0136*
X01317Y01359*
X01318Y01361*
X01316Y01362*
G37*
G36*
X01613Y01388D02*
X01612Y01388D01*
X01614Y01386*
X01616Y01387*
Y01388*
X01613Y01388*
G37*
G36*
X01655Y01381D02*
X01643Y0138D01*
X01629Y01381*
X01625Y01379*
X01616Y01375*
X01616Y01374*
Y01373*
X01622Y0137*
X0163Y01369*
X0166Y0137*
X01666Y01374*
X01665Y01376*
X01663Y01378*
X0166Y01379*
X01655Y01381*
G37*
G36*
X01607Y01364D02*
X01606D01*
X01605Y01364*
X01607Y01362*
X01608Y01364*
X01607Y01364*
G37*
G36*
X01666Y01362D02*
X01665Y0136D01*
X01665Y01359*
X01666*
X01667Y01361*
X01666Y01362*
G37*
G36*
X01871Y01417D02*
X0187Y01417D01*
X01871Y01416*
X01871Y01417*
X01871Y01417*
G37*
G36*
X0181Y01407D02*
X0181Y01405D01*
Y01404*
X01811Y014*
X01813Y01401*
X01812Y01406*
X0181Y01407*
G37*
G36*
X01827Y01362D02*
X01826Y01362D01*
X01826Y01361*
X01826Y01358*
X0183Y01359*
X0183Y01362*
X01827Y01362*
G37*
G36*
X01811Y01358D02*
X01807Y01358D01*
X01811Y01356*
X01812Y01357*
X01811Y01358*
G37*
G36*
X01855D02*
X01855Y01358D01*
Y01357*
X01855Y01354*
X01858Y01354*
X01857Y01358*
X01855Y01358*
G37*
G36*
X02028Y01408D02*
X02013Y01406D01*
X0201Y01404*
X02009Y01399*
X02008Y01387*
X02007Y01383*
X02006Y01375*
X02007Y01373*
X02009Y01371*
X02019*
X0204Y01372*
X02043Y01375*
X02044Y01387*
X02046Y01398*
X02046Y01405*
X02045Y01407*
X02028Y01408*
G37*
%LNocb_development_board-3*%
%LPD*%
G54D10*
X02091Y03055D02*
D01*
X02091Y03056*
X02091Y03057*
X02091Y03057*
X02091Y03058*
X02091Y03059*
X0209Y03059*
X0209Y0306*
X0209Y03061*
X02089Y03061*
X02089Y03062*
X02088Y03062*
X02088Y03063*
X02087Y03063*
X02087Y03064*
X02086Y03064*
X02085Y03064*
X02085Y03065*
X02084Y03065*
X02084Y03065*
X02083Y03065*
X02082Y03065*
X02081Y03065*
X02081*
X0208Y03065*
X02079Y03065*
X02079Y03065*
X02078Y03065*
X02077Y03065*
X02077Y03064*
X02076Y03064*
X02076Y03064*
X02075Y03063*
X02074Y03063*
X02074Y03062*
X02073Y03062*
X02073Y03061*
X02073Y03061*
X02072Y0306*
X02072Y03059*
X02072Y03059*
X02072Y03058*
X02071Y03057*
X02071Y03057*
X02071Y03056*
X02071Y03055*
X02071Y03055*
X02071Y03054*
X02071Y03053*
X02072Y03053*
X02072Y03052*
X02072Y03051*
X02072Y03051*
X02073Y0305*
X02073Y03049*
X02073Y03049*
X02074Y03048*
X02074Y03048*
X02075Y03047*
X02076Y03047*
X02076Y03047*
X02077Y03046*
X02077Y03046*
X02078Y03046*
X02079Y03046*
X02079Y03045*
X0208Y03045*
X02081Y03045*
X02081*
X02082Y03045*
X02083Y03045*
X02084Y03046*
X02084Y03046*
X02085Y03046*
X02085Y03046*
X02086Y03047*
X02087Y03047*
X02087Y03047*
X02088Y03048*
X02088Y03048*
X02089Y03049*
X02089Y03049*
X0209Y0305*
X0209Y03051*
X0209Y03051*
X02091Y03052*
X02091Y03053*
X02091Y03053*
X02091Y03054*
X02091Y03055*
X02091Y03055*
X03014Y0267D02*
X03004Y0268D01*
X02984*
X02975Y0267*
Y0266*
X02984Y0265*
X03004*
X03014Y0264*
Y0263*
X03004Y02621*
X02984*
X02975Y0263*
X03034Y0268D02*
Y02621D01*
X03054Y0264*
X03074Y02621*
Y0268*
X03094D02*
Y02621D01*
X03124*
X03134Y0263*
Y0267*
X03124Y0268*
X03094*
X01503Y00105D02*
Y00046D01*
X01532*
X01542Y00055*
Y00065*
X01532Y00075*
X01503*
X01532*
X01542Y00085*
Y00095*
X01532Y00105*
X01503*
X01572Y00046D02*
X01592D01*
X01602Y00055*
Y00075*
X01592Y00085*
X01572*
X01562Y00075*
Y00055*
X01572Y00046*
X01632Y00085D02*
X01652D01*
X01662Y00075*
Y00046*
X01632*
X01622Y00055*
X01632Y00065*
X01662*
X01682Y00085D02*
Y00046D01*
Y00065*
X01692Y00075*
X01702Y00085*
X01712*
X01782Y00105D02*
Y00046D01*
X01752*
X01742Y00055*
Y00075*
X01752Y00085*
X01782*
X01862Y00046D02*
Y00105D01*
X01892*
X01902Y00095*
Y00075*
X01892Y00065*
X01862*
X01882D02*
X01902Y00046D01*
X01962Y00105D02*
X01922D01*
Y00046*
X01962*
X01922Y00075D02*
X01942D01*
X01982Y00105D02*
Y00065D01*
X02002Y00046*
X02022Y00065*
Y00105*
X02102Y00046D02*
X02122D01*
X02112*
Y00105*
X02102Y00095*
X02152Y00046D02*
Y00055D01*
X02162*
Y00046*
X02152*
X02202Y00095D02*
X02212Y00105D01*
X02232*
X02242Y00095*
Y00055*
X02232Y00046*
X02212*
X02202Y00055*
Y00095*
X02262Y00046D02*
Y00055D01*
X02272*
Y00046*
X02262*
X02312Y00095D02*
X02322Y00105D01*
X02342*
X02352Y00095*
Y00055*
X02342Y00046*
X02322*
X02312Y00055*
Y00095*
X03071Y03374D02*
X0306D01*
X03066*
Y03342*
X03071Y03347*
X01825Y00872D02*
Y00823D01*
X01835Y00813*
X01855*
X01865Y00823*
Y00872*
X01885Y00813D02*
X01905D01*
X01895*
Y00872*
X01885Y00862*
X01974Y00872D02*
X01954Y00862D01*
X01934Y00843*
Y00823*
X01944Y00813*
X01964*
X01974Y00823*
Y00833*
X01964Y00843*
X01934*
X02743Y03424D02*
X02723D01*
X02733*
Y03375*
X02723Y03365*
X02713*
X02703Y03375*
X02763Y03414D02*
X02773Y03424D01*
X02793*
X02803Y03414*
Y03404*
X02793Y03395*
X02783*
X02793*
X02803Y03385*
Y03375*
X02793Y03365*
X02773*
X02763Y03375*
X00055Y03405D02*
Y03464D01*
X00085*
X00095Y03454*
Y03435*
X00085Y03425*
X00055*
X00075D02*
X00095Y03405D01*
X00144D02*
Y03464D01*
X00114Y03435*
X00154*
X0367Y02095D02*
X0366Y02085D01*
Y02065*
X0367Y02055*
X03709*
X03719Y02065*
Y02085*
X03709Y02095*
X03719Y02115D02*
Y02134D01*
Y02125*
X0366*
X0367Y02115*
X03719Y02164D02*
Y02184D01*
Y02174*
X0366*
X0367Y02164*
X03515Y00469D02*
X03495D01*
X03505*
Y0042*
X03495Y0041*
X03485*
X03475Y0042*
X03574Y00469D02*
X03534D01*
Y0044*
X03554Y00449*
X03564*
X03574Y0044*
Y0042*
X03564Y0041*
X03544*
X03534Y0042*
X03315Y00469D02*
X03295D01*
X03305*
Y0042*
X03295Y0041*
X03285*
X03275Y0042*
X03374Y00469D02*
X03354Y00459D01*
X03334Y0044*
Y0042*
X03344Y0041*
X03364*
X03374Y0042*
Y0043*
X03364Y0044*
X03334*
X02134Y00798D02*
Y00749D01*
X02144Y00739*
X02164*
X02174Y00749*
Y00798*
X02194Y00739D02*
X02214D01*
X02204*
Y00798*
X02194Y00788*
X02283Y00798D02*
X02243D01*
Y00769*
X02263Y00778*
X02273*
X02283Y00769*
Y00749*
X02273Y00739*
X02253*
X02243Y00749*
X02716Y006D02*
Y00551D01*
X02726Y00541*
X02746*
X02756Y00551*
Y006*
X02776Y00541D02*
X02796D01*
X02786*
Y006*
X02776Y0059*
X02825D02*
X02835Y006D01*
X02855*
X02865Y0059*
Y0058*
X02855Y00571*
X02845*
X02855*
X02865Y00561*
Y00551*
X02855Y00541*
X02835*
X02825Y00551*
X01672Y0307D02*
X01652D01*
X01662*
Y03021*
X01652Y03011*
X01642*
X01632Y03021*
X01692Y03011D02*
X01712D01*
X01702*
Y0307*
X01692Y0306*
X01741D02*
X01751Y0307D01*
X01771*
X01781Y0306*
Y03021*
X01771Y03011*
X01751*
X01741Y03021*
Y0306*
X00839D02*
Y03011D01*
X00849Y03001*
X00869*
X00879Y03011*
Y0306*
X00899Y03001D02*
X00919D01*
X00909*
Y0306*
X00899Y0305*
X00948D02*
X00958Y0306D01*
X00978*
X00988Y0305*
Y03011*
X00978Y03001*
X00958*
X00948Y03011*
Y0305*
X00385Y03228D02*
Y03179D01*
X00395Y03169*
X00415*
X00425Y03179*
Y03228*
X00444Y03179D02*
X00454Y03169D01*
X00474*
X00484Y03179*
Y03218*
X00474Y03228*
X00454*
X00444Y03218*
Y03208*
X00454Y03199*
X00484*
X00054Y01268D02*
Y01219D01*
X00064Y01209*
X00084*
X00094Y01219*
Y01268*
X00113Y01258D02*
X00123Y01268D01*
X00143*
X00153Y01258*
Y01248*
X00143Y01239*
X00153Y01229*
Y01219*
X00143Y01209*
X00123*
X00113Y01219*
Y01229*
X00123Y01239*
X00113Y01248*
Y01258*
X00123Y01239D02*
X00143D01*
X00325Y00804D02*
Y00755D01*
X00335Y00745*
X00355*
X00365Y00755*
Y00804*
X00384D02*
X00424D01*
Y00794*
X00384Y00755*
Y00745*
X00892Y01968D02*
Y01919D01*
X00902Y01909*
X00922*
X00932Y01919*
Y01968*
X00951Y01909D02*
X00971D01*
X00961*
Y01968*
X00951Y01958*
X00144Y03053D02*
X00124D01*
X00134*
Y03003*
X00124Y02994*
X00114*
X00105Y03003*
X00164D02*
X00174Y02994D01*
X00194*
X00204Y03003*
Y03043*
X00194Y03053*
X00174*
X00164Y03043*
Y03033*
X00174Y03023*
X00204*
X01082Y00649D02*
X01062D01*
X01072*
Y006*
X01062Y0059*
X01052*
X01042Y006*
X01101Y00639D02*
X01111Y00649D01*
X01131*
X01141Y00639*
Y00629*
X01131Y0062*
X01141Y0061*
Y006*
X01131Y0059*
X01111*
X01101Y006*
Y0061*
X01111Y0062*
X01101Y00629*
Y00639*
X01111Y0062D02*
X01131D01*
X02467Y00204D02*
X02447D01*
X02457*
Y00155*
X02447Y00145*
X02437*
X02427Y00155*
X02487Y00204D02*
X02527D01*
Y00194*
X02487Y00155*
Y00145*
X03085Y02009D02*
X03065D01*
X03075*
Y0196*
X03065Y0195*
X03055*
X03045Y0196*
X03134Y0195D02*
Y02009D01*
X03104Y0198*
X03144*
X02733Y02936D02*
X02713D01*
X02723*
Y02887*
X02713Y02877*
X02703*
X02693Y02887*
X02792Y02877D02*
X02752D01*
X02792Y02916*
Y02926*
X02782Y02936*
X02762*
X02752Y02926*
X01093Y00302D02*
X01073D01*
X01083*
Y00253*
X01073Y00243*
X01063*
X01053Y00253*
X01112Y00243D02*
X01132D01*
X01122*
Y00302*
X01112Y00292*
X0367Y01465D02*
X0366Y01455D01*
Y01435*
X0367Y01425*
X03709*
X03719Y01435*
Y01455*
X03709Y01465*
X03719Y01485D02*
Y01505D01*
Y01495*
X0366*
X0367Y01485*
Y01534D02*
X0366Y01544D01*
Y01564*
X0367Y01574*
X0368*
X0369Y01564*
Y01554*
Y01564*
X03699Y01574*
X03709*
X03719Y01564*
Y01544*
X03709Y01534*
G54D11*
X0101Y01953D02*
D01*
X0101Y01953*
X0101Y01953*
X0101Y01954*
X0101Y01954*
X0101Y01954*
X0101Y01955*
X0101Y01955*
X0101Y01955*
X01009Y01955*
X01009Y01956*
X01009Y01956*
X01009Y01956*
X01009Y01956*
X01008Y01957*
X01008Y01957*
X01008Y01957*
X01007Y01957*
X01007Y01957*
X01007Y01957*
X01006Y01957*
X01006Y01957*
X01006Y01957*
X01005*
X01005Y01957*
X01005Y01957*
X01004Y01957*
X01004Y01957*
X01004Y01957*
X01003Y01957*
X01003Y01957*
X01003Y01957*
X01002Y01956*
X01002Y01956*
X01002Y01956*
X01002Y01956*
X01002Y01955*
X01001Y01955*
X01001Y01955*
X01001Y01955*
X01001Y01954*
X01001Y01954*
X01001Y01954*
X01001Y01953*
X01001Y01953*
X01001Y01953*
X01001Y01952*
X01001Y01952*
X01001Y01952*
X01001Y01951*
X01001Y01951*
X01001Y01951*
X01001Y0195*
X01001Y0195*
X01002Y0195*
X01002Y01949*
X01002Y01949*
X01002Y01949*
X01002Y01949*
X01003Y01948*
X01003Y01948*
X01003Y01948*
X01004Y01948*
X01004Y01948*
X01004Y01948*
X01005Y01948*
X01005Y01948*
X01005Y01948*
X01006*
X01006Y01948*
X01006Y01948*
X01007Y01948*
X01007Y01948*
X01007Y01948*
X01008Y01948*
X01008Y01948*
X01008Y01948*
X01009Y01949*
X01009Y01949*
X01009Y01949*
X01009Y01949*
X01009Y0195*
X0101Y0195*
X0101Y0195*
X0101Y01951*
X0101Y01951*
X0101Y01951*
X0101Y01952*
X0101Y01952*
X0101Y01952*
X0101Y01953*
G54D12*
X01555Y01649D02*
D01*
X01555Y01649*
X01555Y01648*
X01554Y01648*
X01554Y01648*
X01554Y01648*
X01553Y01648*
X01553Y01648*
X01553Y01648*
X01553Y01648*
X01553Y01648*
X01552Y01647*
X01552Y01647*
X01552Y01647*
X01552Y01647*
X01552Y01647*
X01552Y01646*
X01551Y01646*
X01551Y01646*
X01551Y01646*
X01551Y01645*
X01551Y01645*
X01551Y01645*
Y01644*
X01551Y01644*
X01551Y01644*
X01551Y01644*
X01551Y01643*
X01551Y01643*
X01552Y01643*
X01552Y01643*
X01552Y01642*
X01552Y01642*
X01552Y01642*
X01552Y01642*
X01553Y01642*
X01553Y01641*
X01553Y01641*
X01553Y01641*
X01553Y01641*
X01554Y01641*
X01554Y01641*
X01554Y01641*
X01555Y01641*
X01555Y01641*
X01555Y01641*
D01*
X01555Y01641*
X01556Y01641*
X01556Y01641*
X01556Y01641*
X01556Y01641*
X01557Y01641*
X01557Y01641*
X01557Y01641*
X01557Y01641*
X01558Y01642*
X01558Y01642*
X01558Y01642*
X01558Y01642*
X01558Y01642*
X01558Y01643*
X01559Y01643*
X01559Y01643*
X01559Y01643*
X01559Y01644*
X01559Y01644*
X01559Y01644*
X01559Y01644*
Y01645*
X01559Y01645*
X01559Y01645*
X01559Y01646*
X01559Y01646*
X01559Y01646*
X01559Y01646*
X01558Y01647*
X01558Y01647*
X01558Y01647*
X01558Y01647*
X01558Y01647*
X01558Y01648*
X01557Y01648*
X01557Y01648*
X01557Y01648*
X01557Y01648*
X01556Y01648*
X01556Y01648*
X01556Y01648*
X01556Y01648*
X01555Y01649*
X01555Y01649*
X01375Y00736D02*
D01*
X01375Y00737*
X01375Y00737*
X01375Y00737*
X01375Y00738*
X01375Y00738*
X01375Y00738*
X01375Y00738*
X01375Y00739*
X01375Y00739*
X01374Y00739*
X01374Y00739*
X01374Y00739*
X01374Y0074*
X01374Y0074*
X01373Y0074*
X01373Y0074*
X01373Y0074*
X01373Y0074*
X01372Y0074*
X01372Y0074*
X01372Y0074*
X01372Y0074*
X01371*
X01371Y0074*
X01371Y0074*
X01371Y0074*
X0137Y0074*
X0137Y0074*
X0137Y0074*
X0137Y0074*
X01369Y0074*
X01369Y0074*
X01369Y00739*
X01369Y00739*
X01368Y00739*
X01368Y00739*
X01368Y00739*
X01368Y00738*
X01368Y00738*
X01368Y00738*
X01368Y00738*
X01368Y00737*
X01368Y00737*
X01368Y00737*
X01368Y00736*
X01368Y00736*
X01368Y00736*
X01368Y00736*
X01368Y00735*
X01368Y00735*
X01368Y00735*
X01368Y00735*
X01368Y00734*
X01368Y00734*
X01368Y00734*
X01369Y00734*
X01369Y00734*
X01369Y00733*
X01369Y00733*
X0137Y00733*
X0137Y00733*
X0137Y00733*
X0137Y00733*
X01371Y00733*
X01371Y00733*
X01371Y00733*
X01371Y00733*
X01372*
X01372Y00733*
X01372Y00733*
X01372Y00733*
X01373Y00733*
X01373Y00733*
X01373Y00733*
X01373Y00733*
X01374Y00733*
X01374Y00733*
X01374Y00734*
X01374Y00734*
X01374Y00734*
X01375Y00734*
X01375Y00734*
X01375Y00735*
X01375Y00735*
X01375Y00735*
X01375Y00735*
X01375Y00736*
X01375Y00736*
X01375Y00736*
X01375Y00736*
X0217Y01025D02*
D01*
X0217Y01025*
X0217Y01025*
X0217Y01026*
X0217Y01026*
X0217Y01026*
X0217Y01026*
X0217Y01027*
X0217Y01027*
X0217Y01027*
X02169Y01027*
X02169Y01028*
X02169Y01028*
X02169Y01028*
X02169Y01028*
X02168Y01028*
X02168Y01028*
X02168Y01028*
X02168Y01029*
X02167Y01029*
X02167Y01029*
X02167Y01029*
X02167Y01029*
X02166*
X02166Y01029*
X02166Y01029*
X02165Y01029*
X02165Y01029*
X02165Y01028*
X02165Y01028*
X02164Y01028*
X02164Y01028*
X02164Y01028*
X02164Y01028*
X02164Y01028*
X02163Y01027*
X02163Y01027*
X02163Y01027*
X02163Y01027*
X02163Y01026*
X02163Y01026*
X02163Y01026*
X02163Y01026*
X02162Y01025*
X02162Y01025*
X02162Y01025*
X02162Y01025*
X02162Y01024*
X02163Y01024*
X02163Y01024*
X02163Y01023*
X02163Y01023*
X02163Y01023*
X02163Y01023*
X02163Y01022*
X02163Y01022*
X02164Y01022*
X02164Y01022*
X02164Y01022*
X02164Y01022*
X02164Y01021*
X02165Y01021*
X02165Y01021*
X02165Y01021*
X02165Y01021*
X02166Y01021*
X02166Y01021*
X02166Y01021*
X02167*
X02167Y01021*
X02167Y01021*
X02167Y01021*
X02168Y01021*
X02168Y01021*
X02168Y01021*
X02168Y01021*
X02169Y01022*
X02169Y01022*
X02169Y01022*
X02169Y01022*
X02169Y01022*
X0217Y01022*
X0217Y01023*
X0217Y01023*
X0217Y01023*
X0217Y01023*
X0217Y01024*
X0217Y01024*
X0217Y01024*
X0217Y01025*
X0217Y01025*
X02884Y007D02*
D01*
X02884Y00701*
X02884Y00701*
X02884Y00701*
X02884Y00701*
X02884Y00702*
X02884Y00702*
X02884Y00702*
X02884Y00702*
X02884Y00703*
X02883Y00703*
X02883Y00703*
X02883Y00703*
X02883Y00703*
X02883Y00704*
X02882Y00704*
X02882Y00704*
X02882Y00704*
X02882Y00704*
X02881Y00704*
X02881Y00704*
X02881Y00704*
X02881Y00704*
X0288*
X0288Y00704*
X0288Y00704*
X02879Y00704*
X02879Y00704*
X02879Y00704*
X02879Y00704*
X02878Y00704*
X02878Y00704*
X02878Y00703*
X02878Y00703*
X02878Y00703*
X02877Y00703*
X02877Y00703*
X02877Y00702*
X02877Y00702*
X02877Y00702*
X02877Y00702*
X02877Y00701*
X02877Y00701*
X02877Y00701*
X02877Y00701*
X02877Y007*
X02877Y007*
X02877Y007*
X02877Y00699*
X02877Y00699*
X02877Y00699*
X02877Y00699*
X02877Y00698*
X02877Y00698*
X02877Y00698*
X02877Y00698*
X02878Y00698*
X02878Y00697*
X02878Y00697*
X02878Y00697*
X02878Y00697*
X02879Y00697*
X02879Y00697*
X02879Y00697*
X02879Y00696*
X0288Y00696*
X0288Y00696*
X0288Y00696*
X02881*
X02881Y00696*
X02881Y00696*
X02881Y00696*
X02882Y00697*
X02882Y00697*
X02882Y00697*
X02882Y00697*
X02883Y00697*
X02883Y00697*
X02883Y00697*
X02883Y00698*
X02883Y00698*
X02884Y00698*
X02884Y00698*
X02884Y00698*
X02884Y00699*
X02884Y00699*
X02884Y00699*
X02884Y00699*
X02884Y007*
X02884Y007*
X02884Y007*
X00843Y03463D02*
D01*
X00843Y03464*
X00843Y03464*
X00843Y03464*
X00843Y03465*
X00843Y03465*
X00843Y03465*
X00843Y03465*
X00843Y03466*
X00842Y03466*
X00842Y03466*
X00842Y03466*
X00842Y03466*
X00842Y03467*
X00841Y03467*
X00841Y03467*
X00841Y03467*
X00841Y03467*
X0084Y03467*
X0084Y03467*
X0084Y03467*
X0084Y03467*
X00839Y03467*
X00839*
X00839Y03467*
X00839Y03467*
X00838Y03467*
X00838Y03467*
X00838Y03467*
X00838Y03467*
X00837Y03467*
X00837Y03467*
X00837Y03467*
X00837Y03466*
X00836Y03466*
X00836Y03466*
X00836Y03466*
X00836Y03466*
X00836Y03465*
X00836Y03465*
X00836Y03465*
X00835Y03465*
X00835Y03464*
X00835Y03464*
X00835Y03464*
X00835Y03463*
X00835Y03463*
X00835Y03463*
X00835Y03463*
X00835Y03462*
X00836Y03462*
X00836Y03462*
X00836Y03462*
X00836Y03461*
X00836Y03461*
X00836Y03461*
X00836Y03461*
X00837Y03461*
X00837Y0346*
X00837Y0346*
X00837Y0346*
X00838Y0346*
X00838Y0346*
X00838Y0346*
X00838Y0346*
X00839Y0346*
X00839Y0346*
X00839Y0346*
X00839*
X0084Y0346*
X0084Y0346*
X0084Y0346*
X0084Y0346*
X00841Y0346*
X00841Y0346*
X00841Y0346*
X00841Y0346*
X00842Y0346*
X00842Y03461*
X00842Y03461*
X00842Y03461*
X00842Y03461*
X00843Y03461*
X00843Y03462*
X00843Y03462*
X00843Y03462*
X00843Y03462*
X00843Y03463*
X00843Y03463*
X00843Y03463*
X00843Y03463*
X00507Y03051D02*
D01*
X00507Y03052*
X00507Y03052*
X00507Y03052*
X00507Y03052*
X00507Y03053*
X00507Y03053*
X00507Y03053*
X00507Y03053*
X00506Y03054*
X00506Y03054*
X00506Y03054*
X00506Y03054*
X00506Y03054*
X00505Y03055*
X00505Y03055*
X00505Y03055*
X00505Y03055*
X00504Y03055*
X00504Y03055*
X00504Y03055*
X00504Y03055*
X00503Y03055*
X00503*
X00503Y03055*
X00503Y03055*
X00502Y03055*
X00502Y03055*
X00502Y03055*
X00501Y03055*
X00501Y03055*
X00501Y03055*
X00501Y03054*
X00501Y03054*
X005Y03054*
X005Y03054*
X005Y03054*
X005Y03053*
X005Y03053*
X005Y03053*
X005Y03053*
X00499Y03052*
X00499Y03052*
X00499Y03052*
X00499Y03052*
X00499Y03051*
X00499Y03051*
X00499Y03051*
X00499Y03051*
X00499Y0305*
X005Y0305*
X005Y0305*
X005Y0305*
X005Y03049*
X005Y03049*
X005Y03049*
X005Y03049*
X00501Y03048*
X00501Y03048*
X00501Y03048*
X00501Y03048*
X00501Y03048*
X00502Y03048*
X00502Y03048*
X00502Y03048*
X00503Y03048*
X00503Y03047*
X00503Y03047*
X00503*
X00504Y03047*
X00504Y03048*
X00504Y03048*
X00504Y03048*
X00505Y03048*
X00505Y03048*
X00505Y03048*
X00505Y03048*
X00506Y03048*
X00506Y03048*
X00506Y03049*
X00506Y03049*
X00506Y03049*
X00507Y03049*
X00507Y0305*
X00507Y0305*
X00507Y0305*
X00507Y0305*
X00507Y03051*
X00507Y03051*
X00507Y03051*
X00507Y03051*
X00184Y01109D02*
D01*
X00184Y01109*
X00184Y01109*
X00184Y0111*
X00184Y0111*
X00184Y0111*
X00184Y0111*
X00184Y01111*
X00184Y01111*
X00184Y01111*
X00183Y01111*
X00183Y01112*
X00183Y01112*
X00183Y01112*
X00183Y01112*
X00182Y01112*
X00182Y01112*
X00182Y01112*
X00182Y01113*
X00181Y01113*
X00181Y01113*
X00181Y01113*
X0018Y01113*
X0018*
X0018Y01113*
X0018Y01113*
X00179Y01113*
X00179Y01113*
X00179Y01112*
X00179Y01112*
X00178Y01112*
X00178Y01112*
X00178Y01112*
X00178Y01112*
X00177Y01112*
X00177Y01111*
X00177Y01111*
X00177Y01111*
X00177Y01111*
X00177Y0111*
X00177Y0111*
X00177Y0111*
X00176Y0111*
X00176Y01109*
X00176Y01109*
X00176Y01109*
X00176Y01109*
X00176Y01108*
X00176Y01108*
X00177Y01108*
X00177Y01107*
X00177Y01107*
X00177Y01107*
X00177Y01107*
X00177Y01107*
X00177Y01106*
X00177Y01106*
X00178Y01106*
X00178Y01106*
X00178Y01106*
X00178Y01105*
X00179Y01105*
X00179Y01105*
X00179Y01105*
X00179Y01105*
X0018Y01105*
X0018Y01105*
X0018Y01105*
X0018*
X00181Y01105*
X00181Y01105*
X00181Y01105*
X00182Y01105*
X00182Y01105*
X00182Y01105*
X00182Y01105*
X00183Y01106*
X00183Y01106*
X00183Y01106*
X00183Y01106*
X00183Y01106*
X00184Y01107*
X00184Y01107*
X00184Y01107*
X00184Y01107*
X00184Y01107*
X00184Y01108*
X00184Y01108*
X00184Y01108*
X00184Y01109*
X00184Y01109*
X00223Y00724D02*
D01*
X00223Y00724*
X00223Y00724*
X00223Y00724*
X00223Y00725*
X00223Y00725*
X00222Y00725*
X00222Y00726*
X00222Y00726*
X00222Y00726*
X00222Y00726*
X00222Y00726*
X00221Y00727*
X00221Y00727*
X00221Y00727*
X00221Y00727*
X00221Y00727*
X0022Y00727*
X0022Y00727*
X0022Y00727*
X0022Y00728*
X00219Y00728*
X00219Y00728*
X00219*
X00218Y00728*
X00218Y00728*
X00218Y00727*
X00218Y00727*
X00217Y00727*
X00217Y00727*
X00217Y00727*
X00217Y00727*
X00216Y00727*
X00216Y00727*
X00216Y00726*
X00216Y00726*
X00216Y00726*
X00215Y00726*
X00215Y00726*
X00215Y00725*
X00215Y00725*
X00215Y00725*
X00215Y00724*
X00215Y00724*
X00215Y00724*
X00215Y00724*
X00215Y00723*
X00215Y00723*
X00215Y00723*
X00215Y00723*
X00215Y00722*
X00215Y00722*
X00215Y00722*
X00215Y00722*
X00216Y00721*
X00216Y00721*
X00216Y00721*
X00216Y00721*
X00216Y00721*
X00217Y0072*
X00217Y0072*
X00217Y0072*
X00217Y0072*
X00218Y0072*
X00218Y0072*
X00218Y0072*
X00218Y0072*
X00219Y0072*
X00219*
X00219Y0072*
X0022Y0072*
X0022Y0072*
X0022Y0072*
X0022Y0072*
X00221Y0072*
X00221Y0072*
X00221Y0072*
X00221Y00721*
X00221Y00721*
X00222Y00721*
X00222Y00721*
X00222Y00721*
X00222Y00722*
X00222Y00722*
X00222Y00722*
X00223Y00722*
X00223Y00723*
X00223Y00723*
X00223Y00723*
X00223Y00723*
X00223Y00724*
X00107Y02792D02*
D01*
X00107Y02792*
X00107Y02792*
X00107Y02793*
X00107Y02793*
X00107Y02793*
X00106Y02794*
X00106Y02794*
X00106Y02794*
X00106Y02794*
X00106Y02794*
X00106Y02795*
X00105Y02795*
X00105Y02795*
X00105Y02795*
X00105Y02795*
X00105Y02795*
X00104Y02796*
X00104Y02796*
X00104Y02796*
X00104Y02796*
X00103Y02796*
X00103Y02796*
X00103*
X00102Y02796*
X00102Y02796*
X00102Y02796*
X00102Y02796*
X00101Y02796*
X00101Y02795*
X00101Y02795*
X00101Y02795*
X001Y02795*
X001Y02795*
X001Y02795*
X001Y02794*
X001Y02794*
X001Y02794*
X00099Y02794*
X00099Y02794*
X00099Y02793*
X00099Y02793*
X00099Y02793*
X00099Y02792*
X00099Y02792*
X00099Y02792*
X00099Y02792*
X00099Y02791*
X00099Y02791*
X00099Y02791*
X00099Y02791*
X00099Y0279*
X00099Y0279*
X001Y0279*
X001Y0279*
X001Y02789*
X001Y02789*
X001Y02789*
X001Y02789*
X00101Y02789*
X00101Y02789*
X00101Y02788*
X00101Y02788*
X00102Y02788*
X00102Y02788*
X00102Y02788*
X00102Y02788*
X00103Y02788*
X00103*
X00103Y02788*
X00104Y02788*
X00104Y02788*
X00104Y02788*
X00104Y02788*
X00105Y02788*
X00105Y02789*
X00105Y02789*
X00105Y02789*
X00105Y02789*
X00106Y02789*
X00106Y02789*
X00106Y0279*
X00106Y0279*
X00106Y0279*
X00106Y0279*
X00107Y02791*
X00107Y02791*
X00107Y02791*
X00107Y02791*
X00107Y02792*
X00107Y02792*
X00845Y00682D02*
D01*
X00845Y00682*
X00845Y00683*
X00845Y00683*
X00845Y00683*
X00845Y00683*
X00845Y00684*
X00845Y00684*
X00845Y00684*
X00845Y00684*
X00845Y00685*
X00844Y00685*
X00844Y00685*
X00844Y00685*
X00844Y00685*
X00843Y00686*
X00843Y00686*
X00843Y00686*
X00843Y00686*
X00842Y00686*
X00842Y00686*
X00842Y00686*
X00842Y00686*
X00841*
X00841Y00686*
X00841Y00686*
X00841Y00686*
X0084Y00686*
X0084Y00686*
X0084Y00686*
X0084Y00686*
X00839Y00685*
X00839Y00685*
X00839Y00685*
X00839Y00685*
X00838Y00685*
X00838Y00684*
X00838Y00684*
X00838Y00684*
X00838Y00684*
X00838Y00683*
X00838Y00683*
X00838Y00683*
X00838Y00683*
X00838Y00682*
X00838Y00682*
X00838Y00682*
X00838Y00682*
X00838Y00681*
X00838Y00681*
X00838Y00681*
X00838Y00681*
X00838Y0068*
X00838Y0068*
X00838Y0068*
X00838Y0068*
X00839Y00679*
X00839Y00679*
X00839Y00679*
X00839Y00679*
X0084Y00679*
X0084Y00679*
X0084Y00678*
X0084Y00678*
X00841Y00678*
X00841Y00678*
X00841Y00678*
X00841Y00678*
X00842*
X00842Y00678*
X00842Y00678*
X00842Y00678*
X00843Y00678*
X00843Y00678*
X00843Y00679*
X00843Y00679*
X00844Y00679*
X00844Y00679*
X00844Y00679*
X00844Y00679*
X00845Y0068*
X00845Y0068*
X00845Y0068*
X00845Y0068*
X00845Y00681*
X00845Y00681*
X00845Y00681*
X00845Y00681*
X00845Y00682*
X00845Y00682*
X00845Y00682*
X02276Y0069D02*
D01*
X02276Y0069*
X02275Y0069*
X02275Y0069*
X02275Y00691*
X02275Y00691*
X02275Y00691*
X02275Y00691*
X02275Y00692*
X02275Y00692*
X02275Y00692*
X02274Y00692*
X02274Y00692*
X02274Y00693*
X02274Y00693*
X02274Y00693*
X02273Y00693*
X02273Y00693*
X02273Y00693*
X02273Y00693*
X02272Y00693*
X02272Y00693*
X02272Y00693*
X02271*
X02271Y00693*
X02271Y00693*
X02271Y00693*
X0227Y00693*
X0227Y00693*
X0227Y00693*
X0227Y00693*
X02269Y00693*
X02269Y00693*
X02269Y00692*
X02269Y00692*
X02269Y00692*
X02268Y00692*
X02268Y00692*
X02268Y00691*
X02268Y00691*
X02268Y00691*
X02268Y00691*
X02268Y0069*
X02268Y0069*
X02268Y0069*
X02268Y0069*
X02268Y00689*
X02268Y00689*
X02268Y00689*
X02268Y00688*
X02268Y00688*
X02268Y00688*
X02268Y00688*
X02268Y00687*
X02268Y00687*
X02269Y00687*
X02269Y00687*
X02269Y00687*
X02269Y00686*
X02269Y00686*
X0227Y00686*
X0227Y00686*
X0227Y00686*
X0227Y00686*
X02271Y00686*
X02271Y00686*
X02271Y00686*
X02271Y00686*
X02272*
X02272Y00686*
X02272Y00686*
X02273Y00686*
X02273Y00686*
X02273Y00686*
X02273Y00686*
X02274Y00686*
X02274Y00686*
X02274Y00686*
X02274Y00687*
X02274Y00687*
X02275Y00687*
X02275Y00687*
X02275Y00687*
X02275Y00688*
X02275Y00688*
X02275Y00688*
X02275Y00688*
X02275Y00689*
X02275Y00689*
X02276Y00689*
X02276Y0069*
X03278Y03135D02*
D01*
X03278Y03135*
X03278Y03136*
X03278Y03136*
X03278Y03136*
X03278Y03136*
X03278Y03137*
X03278Y03137*
X03278Y03137*
X03278Y03137*
X03278Y03138*
X03277Y03138*
X03277Y03138*
X03277Y03138*
X03277Y03138*
X03276Y03139*
X03276Y03139*
X03276Y03139*
X03276Y03139*
X03275Y03139*
X03275Y03139*
X03275Y03139*
X03275Y03139*
X03274*
X03274Y03139*
X03274Y03139*
X03274Y03139*
X03273Y03139*
X03273Y03139*
X03273Y03139*
X03273Y03139*
X03272Y03138*
X03272Y03138*
X03272Y03138*
X03272Y03138*
X03271Y03138*
X03271Y03137*
X03271Y03137*
X03271Y03137*
X03271Y03137*
X03271Y03136*
X03271Y03136*
X03271Y03136*
X03271Y03136*
X03271Y03135*
X03271Y03135*
X03271Y03135*
X03271Y03135*
X03271Y03134*
X03271Y03134*
X03271Y03134*
X03271Y03134*
X03271Y03133*
X03271Y03133*
X03271Y03133*
X03271Y03133*
X03272Y03132*
X03272Y03132*
X03272Y03132*
X03272Y03132*
X03273Y03132*
X03273Y03132*
X03273Y03131*
X03273Y03131*
X03274Y03131*
X03274Y03131*
X03274Y03131*
X03274Y03131*
X03275*
X03275Y03131*
X03275Y03131*
X03275Y03131*
X03276Y03131*
X03276Y03131*
X03276Y03132*
X03276Y03132*
X03277Y03132*
X03277Y03132*
X03277Y03132*
X03277Y03132*
X03278Y03133*
X03278Y03133*
X03278Y03133*
X03278Y03133*
X03278Y03134*
X03278Y03134*
X03278Y03134*
X03278Y03134*
X03278Y03135*
X03278Y03135*
X03278Y03135*
X03478D02*
D01*
X03478Y03135*
X03478Y03136*
X03478Y03136*
X03478Y03136*
X03478Y03136*
X03478Y03137*
X03478Y03137*
X03478Y03137*
X03478Y03137*
X03478Y03138*
X03477Y03138*
X03477Y03138*
X03477Y03138*
X03477Y03138*
X03476Y03139*
X03476Y03139*
X03476Y03139*
X03476Y03139*
X03475Y03139*
X03475Y03139*
X03475Y03139*
X03475Y03139*
X03474*
X03474Y03139*
X03474Y03139*
X03474Y03139*
X03473Y03139*
X03473Y03139*
X03473Y03139*
X03473Y03139*
X03472Y03138*
X03472Y03138*
X03472Y03138*
X03472Y03138*
X03471Y03138*
X03471Y03137*
X03471Y03137*
X03471Y03137*
X03471Y03137*
X03471Y03136*
X03471Y03136*
X03471Y03136*
X03471Y03136*
X03471Y03135*
X03471Y03135*
X03471Y03135*
X03471Y03135*
X03471Y03134*
X03471Y03134*
X03471Y03134*
X03471Y03134*
X03471Y03133*
X03471Y03133*
X03471Y03133*
X03471Y03133*
X03472Y03132*
X03472Y03132*
X03472Y03132*
X03472Y03132*
X03473Y03132*
X03473Y03132*
X03473Y03131*
X03473Y03131*
X03474Y03131*
X03474Y03131*
X03474Y03131*
X03474Y03131*
X03475*
X03475Y03131*
X03475Y03131*
X03475Y03131*
X03476Y03131*
X03476Y03131*
X03476Y03132*
X03476Y03132*
X03477Y03132*
X03477Y03132*
X03477Y03132*
X03477Y03132*
X03478Y03133*
X03478Y03133*
X03478Y03133*
X03478Y03133*
X03478Y03134*
X03478Y03134*
X03478Y03134*
X03478Y03134*
X03478Y03135*
X03478Y03135*
X03478Y03135*
X02568Y01787D02*
D01*
X02568Y01787*
X02568Y01787*
X02568Y01787*
X02568Y01788*
X02568Y01788*
X02568Y01788*
X02568Y01788*
X02568Y01789*
X02568Y01789*
X02568Y01789*
X02567Y01789*
X02567Y0179*
X02567Y0179*
X02567Y0179*
X02566Y0179*
X02566Y0179*
X02566Y0179*
X02566Y0179*
X02565Y0179*
X02565Y0179*
X02565Y01791*
X02565Y01791*
X02564*
X02564Y01791*
X02564Y0179*
X02564Y0179*
X02563Y0179*
X02563Y0179*
X02563Y0179*
X02563Y0179*
X02562Y0179*
X02562Y0179*
X02562Y0179*
X02562Y01789*
X02561Y01789*
X02561Y01789*
X02561Y01789*
X02561Y01788*
X02561Y01788*
X02561Y01788*
X02561Y01788*
X02561Y01787*
X02561Y01787*
X02561Y01787*
X02561Y01787*
X02561Y01786*
X02561Y01786*
X02561Y01786*
X02561Y01786*
X02561Y01785*
X02561Y01785*
X02561Y01785*
X02561Y01785*
X02561Y01784*
X02561Y01784*
X02562Y01784*
X02562Y01784*
X02562Y01783*
X02562Y01783*
X02563Y01783*
X02563Y01783*
X02563Y01783*
X02563Y01783*
X02564Y01783*
X02564Y01783*
X02564Y01783*
X02564Y01783*
X02565*
X02565Y01783*
X02565Y01783*
X02565Y01783*
X02566Y01783*
X02566Y01783*
X02566Y01783*
X02566Y01783*
X02567Y01783*
X02567Y01783*
X02567Y01784*
X02567Y01784*
X02568Y01784*
X02568Y01784*
X02568Y01785*
X02568Y01785*
X02568Y01785*
X02568Y01785*
X02568Y01786*
X02568Y01786*
X02568Y01786*
X02568Y01786*
X02568Y01787*
X02956Y0239D02*
D01*
X02956Y0239*
X02956Y0239*
X02956Y0239*
X02956Y02391*
X02956Y02391*
X02956Y02391*
X02956Y02391*
X02956Y02392*
X02956Y02392*
X02955Y02392*
X02955Y02392*
X02955Y02392*
X02955Y02393*
X02955Y02393*
X02954Y02393*
X02954Y02393*
X02954Y02393*
X02954Y02393*
X02953Y02393*
X02953Y02393*
X02953Y02393*
X02953Y02393*
X02952*
X02952Y02393*
X02952Y02393*
X02951Y02393*
X02951Y02393*
X02951Y02393*
X02951Y02393*
X0295Y02393*
X0295Y02393*
X0295Y02393*
X0295Y02392*
X0295Y02392*
X02949Y02392*
X02949Y02392*
X02949Y02392*
X02949Y02391*
X02949Y02391*
X02949Y02391*
X02949Y02391*
X02949Y0239*
X02949Y0239*
X02948Y0239*
X02948Y0239*
X02948Y02389*
X02949Y02389*
X02949Y02389*
X02949Y02388*
X02949Y02388*
X02949Y02388*
X02949Y02388*
X02949Y02387*
X02949Y02387*
X02949Y02387*
X0295Y02387*
X0295Y02387*
X0295Y02386*
X0295Y02386*
X0295Y02386*
X02951Y02386*
X02951Y02386*
X02951Y02386*
X02951Y02386*
X02952Y02386*
X02952Y02386*
X02952Y02386*
X02953*
X02953Y02386*
X02953Y02386*
X02953Y02386*
X02954Y02386*
X02954Y02386*
X02954Y02386*
X02954Y02386*
X02955Y02386*
X02955Y02386*
X02955Y02387*
X02955Y02387*
X02955Y02387*
X02956Y02387*
X02956Y02387*
X02956Y02388*
X02956Y02388*
X02956Y02388*
X02956Y02388*
X02956Y02389*
X02956Y02389*
X02956Y02389*
X02956Y0239*
X00958Y00476D02*
D01*
X00958Y00477*
X00958Y00477*
X00958Y00477*
X00958Y00477*
X00958Y00478*
X00958Y00478*
X00958Y00478*
X00958Y00478*
X00958Y00479*
X00958Y00479*
X00957Y00479*
X00957Y00479*
X00957Y0048*
X00957Y0048*
X00956Y0048*
X00956Y0048*
X00956Y0048*
X00956Y0048*
X00955Y0048*
X00955Y0048*
X00955Y0048*
X00955Y0048*
X00954*
X00954Y0048*
X00954Y0048*
X00954Y0048*
X00953Y0048*
X00953Y0048*
X00953Y0048*
X00953Y0048*
X00952Y0048*
X00952Y0048*
X00952Y00479*
X00952Y00479*
X00951Y00479*
X00951Y00479*
X00951Y00478*
X00951Y00478*
X00951Y00478*
X00951Y00478*
X00951Y00477*
X00951Y00477*
X00951Y00477*
X00951Y00477*
X00951Y00476*
X00951Y00476*
X00951Y00476*
X00951Y00476*
X00951Y00475*
X00951Y00475*
X00951Y00475*
X00951Y00475*
X00951Y00474*
X00951Y00474*
X00951Y00474*
X00952Y00474*
X00952Y00473*
X00952Y00473*
X00952Y00473*
X00953Y00473*
X00953Y00473*
X00953Y00473*
X00953Y00473*
X00954Y00473*
X00954Y00473*
X00954Y00472*
X00954Y00472*
X00955*
X00955Y00472*
X00955Y00473*
X00955Y00473*
X00956Y00473*
X00956Y00473*
X00956Y00473*
X00956Y00473*
X00957Y00473*
X00957Y00473*
X00957Y00473*
X00957Y00474*
X00958Y00474*
X00958Y00474*
X00958Y00474*
X00958Y00475*
X00958Y00475*
X00958Y00475*
X00958Y00475*
X00958Y00476*
X00958Y00476*
X00958Y00476*
X00958Y00476*
X01442Y01602D02*
X01523D01*
X01442D02*
Y01647D01*
X01523*
Y01602D02*
Y01647D01*
X01163Y03305D02*
Y03386D01*
X01208*
Y03305D02*
Y03386D01*
X01163Y03305D02*
X01208D01*
X01Y02015D02*
X01759D01*
Y02774*
X01D02*
X01759D01*
X01Y02015D02*
Y02774D01*
X022Y01014D02*
X0237D01*
X022Y00824D02*
X0237D01*
X00515Y03085D02*
Y03255D01*
X00705Y03085D02*
Y03255D01*
X00192Y01156D02*
X00397D01*
Y01353*
X00192D02*
X00397D01*
X00192Y01156D02*
Y01353D01*
X00266Y00507D02*
Y00712D01*
Y00507D02*
X00463D01*
Y00712*
X00266D02*
X00463D01*
X01647Y01006D02*
Y01051D01*
X01566D02*
X01647D01*
X01566Y01006D02*
Y01051D01*
Y01006D02*
X01647D01*
X01788Y01027D02*
Y01072D01*
X01707D02*
X01788D01*
X01707Y01027D02*
Y01072D01*
Y01027D02*
X01788D01*
X03117Y00406D02*
X03162D01*
Y00487*
X03117D02*
X03162D01*
X03117Y00406D02*
Y00487D01*
X02262Y02929D02*
X02307D01*
Y0301*
X02262D02*
X02307D01*
X02262Y02929D02*
Y0301D01*
X02632Y03307D02*
X02677D01*
X02632Y03226D02*
Y03307D01*
Y03226D02*
X02677D01*
Y03307*
X02082Y02952D02*
X02127D01*
X02082Y02871D02*
Y02952D01*
Y02871D02*
X02127D01*
Y02952*
X00742Y03116D02*
X00787D01*
Y03197*
X00742D02*
X00787D01*
X00742Y03116D02*
Y03197D01*
X01117Y03259D02*
X01162D01*
Y0334*
X01117D02*
X01162D01*
X01117Y03259D02*
Y0334D01*
X00161Y00967D02*
Y01012D01*
Y00967D02*
X00242D01*
Y01012*
X00161D02*
X00242D01*
X00142Y008D02*
X00187D01*
X00142Y00719D02*
Y008D01*
Y00719D02*
X00187D01*
Y008*
X0092Y02722D02*
Y02767D01*
X00839D02*
X0092D01*
X00839Y02722D02*
Y02767D01*
Y02722D02*
X0092D01*
X01153Y02867D02*
X01198D01*
Y02948*
X01153D02*
X01198D01*
X01153Y02867D02*
Y02948D01*
X01199Y02867D02*
X01244D01*
Y02948*
X01199D02*
X01244D01*
X01199Y02867D02*
Y02948D01*
X00047Y02026D02*
X00092D01*
Y02107*
X00047D02*
X00092D01*
X00047Y02026D02*
Y02107D01*
X00042Y02224D02*
X00087D01*
Y02305*
X00042D02*
X00087D01*
X00042Y02224D02*
Y02305D01*
X00821Y02422D02*
Y02467D01*
Y02422D02*
X00902D01*
Y02467*
X00821D02*
X00902D01*
X00726Y02392D02*
Y02437D01*
Y02392D02*
X00807D01*
Y02437*
X00726D02*
X00807D01*
X03092Y0111D02*
X03137D01*
X03092Y01029D02*
Y0111D01*
Y01029D02*
X03137D01*
Y0111*
X03092Y00929D02*
X03137D01*
Y0101*
X03092D02*
X03137D01*
X03092Y00929D02*
Y0101D01*
X00819Y02362D02*
Y02407D01*
Y02362D02*
X009D01*
Y02407*
X00819D02*
X009D01*
X0089Y02222D02*
Y02267D01*
X00809D02*
X0089D01*
X00809Y02222D02*
Y02267D01*
Y02222D02*
X0089D01*
X01933Y02152D02*
Y02197D01*
X01852D02*
X01933D01*
X01852Y02152D02*
Y02197D01*
Y02152D02*
X01933D01*
Y02217D02*
Y02262D01*
X01852D02*
X01933D01*
X01852Y02217D02*
Y02262D01*
Y02217D02*
X01933D01*
X00547Y02921D02*
X00592D01*
Y03002*
X00547D02*
X00592D01*
X00547Y02921D02*
Y03002D01*
X00612Y02921D02*
X00657D01*
Y03002*
X00612D02*
X00657D01*
X00612Y02921D02*
Y03002D01*
X00077Y008D02*
X00122D01*
X00077Y00719D02*
Y008D01*
Y00719D02*
X00122D01*
Y008*
X01829Y01072D02*
Y01117D01*
X01748D02*
X01829D01*
X01748Y01072D02*
Y01117D01*
Y01072D02*
X01829D01*
X00161Y00907D02*
Y00952D01*
Y00907D02*
X00242D01*
Y00952*
X00161D02*
X00242D01*
X01748Y01072D02*
Y01117D01*
X01667D02*
X01748D01*
X01667Y01072D02*
Y01117D01*
Y01072D02*
X01748D01*
X01172Y01915D02*
X01217D01*
X01172Y01834D02*
Y01915D01*
Y01834D02*
X01217D01*
Y01915*
X01237Y01834D02*
X01282D01*
Y01915*
X01237D02*
X01282D01*
X01237Y01834D02*
Y01915D01*
X01782Y00601D02*
Y00646D01*
X01701D02*
X01782D01*
X01701Y00601D02*
Y00646D01*
Y00601D02*
X01782D01*
X01742Y00646D02*
Y00691D01*
X01661D02*
X01742D01*
X01661Y00646D02*
Y00691D01*
Y00646D02*
X01742D01*
X01701Y00601D02*
Y00646D01*
X0162D02*
X01701D01*
X0162Y00601D02*
Y00646D01*
Y00601D02*
X01701D01*
X0137D02*
Y00646D01*
Y00601D02*
X01451D01*
Y00646*
X0137D02*
X01451D01*
X0141Y00646D02*
Y00691D01*
Y00646D02*
X01491D01*
Y00691*
X0141D02*
X01491D01*
X01451Y00601D02*
Y00646D01*
Y00601D02*
X01532D01*
Y00646*
X01451D02*
X01532D01*
X01945Y02572D02*
Y02617D01*
X01864D02*
X01945D01*
X01864Y02572D02*
Y02617D01*
Y02572D02*
X01945D01*
X01163Y03224D02*
X01208D01*
Y03305*
X01163D02*
X01208D01*
X01163Y03224D02*
Y03305D01*
X01945Y02632D02*
Y02677D01*
X01864D02*
X01945D01*
X01864Y02632D02*
Y02677D01*
Y02632D02*
X01945D01*
Y02692D02*
Y02737D01*
X01864D02*
X01945D01*
X01864Y02692D02*
Y02737D01*
Y02692D02*
X01945D01*
X03327Y00177D02*
Y00222D01*
Y00177D02*
X03408D01*
Y00222*
X03327D02*
X03408D01*
X00257Y00132D02*
Y00177D01*
X00176D02*
X00257D01*
X00176Y00132D02*
Y00177D01*
Y00132D02*
X00257D01*
X03329Y03332D02*
Y03377D01*
Y03332D02*
X0341D01*
Y03377*
X03329D02*
X0341D01*
X00255Y03412D02*
Y03457D01*
X00174D02*
X00255D01*
X00174Y03412D02*
Y03457D01*
Y03412D02*
X00255D01*
X01033Y0171D02*
X01078D01*
Y01791*
X01033D02*
X01078D01*
X01033Y0171D02*
Y01791D01*
X00987Y0171D02*
X01032D01*
Y01791*
X00987D02*
X01032D01*
X00987Y0171D02*
Y01791D01*
X01078Y01664D02*
Y01709D01*
X00997D02*
X01078D01*
X00997Y01664D02*
Y01709D01*
Y01664D02*
X01078D01*
X00145Y01608D02*
X00192D01*
X00145D02*
Y01656D01*
Y02826D02*
Y02873D01*
X00192*
Y02943*
X00241*
X00192Y01539D02*
Y01608D01*
Y01539D02*
X00241D01*
X00359D02*
X00438D01*
Y01643*
X00418D02*
X00438D01*
X00418D02*
Y01656D01*
Y02826D02*
Y02838D01*
X00438*
Y02943*
X00359D02*
X00438D01*
X00792Y00775D02*
Y00975D01*
X01292Y00775D02*
Y00975D01*
X02365Y0074D02*
X02565D01*
X02365Y0024D02*
X02565D01*
X03241Y00489D02*
X03408D01*
X03241Y0311D02*
X03408D01*
X03441Y00489D02*
X03608D01*
X03441Y0311D02*
X03608D01*
X02515Y0188D02*
Y0208D01*
X03015Y0188D02*
Y0208D01*
X0266Y0234D02*
X0286D01*
X0266Y0284D02*
X0286D01*
X01005Y00184D02*
Y00384D01*
X00505Y00184D02*
Y00384D01*
X0134Y00929D02*
X01385D01*
Y0101*
X0134D02*
X01385D01*
X0134Y00929D02*
Y0101D01*
X02365Y01031D02*
Y01141D01*
Y01031D02*
X02424D01*
Y01141*
X02365D02*
X02424D01*
X02066Y00986D02*
X02111D01*
X02066Y00905D02*
Y00986D01*
Y00905D02*
X02111D01*
Y00986*
X02287Y01033D02*
X02332D01*
Y01114*
X02287D02*
X02332D01*
X02287Y01033D02*
Y01114D01*
X03125Y00852D02*
Y00897D01*
X03044D02*
X03125D01*
X03044Y00852D02*
Y00897D01*
Y00852D02*
X03125D01*
X02985Y00436D02*
Y00481D01*
Y00436D02*
X03066D01*
Y00481*
X02985D02*
X03066D01*
X01117Y03421D02*
X01162D01*
Y03502*
X01117D02*
X01162D01*
X01117Y03421D02*
Y03502D01*
X00394Y03255D02*
X00505D01*
Y03314*
X00394D02*
X00505D01*
X00394Y03255D02*
Y03314D01*
X00432Y03122D02*
X00477D01*
X00432Y03041D02*
Y03122D01*
Y03041D02*
X00477D01*
Y03122*
X00503Y03337D02*
Y03382D01*
X00422D02*
X00503D01*
X00422Y03337D02*
Y03382D01*
Y03337D02*
X00503D01*
X00178Y01362D02*
Y01407D01*
X00097D02*
X00178D01*
X00097Y01362D02*
Y01407D01*
Y01362D02*
X00178D01*
X00504Y00722D02*
Y00767D01*
Y00722D02*
X00585D01*
Y00767*
X00504D02*
X00585D01*
X01372Y01847D02*
X01417D01*
X01372Y01766D02*
Y01847D01*
Y01766D02*
X01417D01*
Y01847*
X00835Y01995D02*
Y0204D01*
Y01995D02*
X00916D01*
Y0204*
X00835D02*
X00916D01*
X00811Y02282D02*
Y02327D01*
Y02282D02*
X00892D01*
Y02327*
X00811D02*
X00892D01*
X00801Y02482D02*
Y02527D01*
Y02482D02*
X00882D01*
Y02527*
X00801D02*
X00882D01*
X01042Y02958D02*
X01087D01*
X01042Y02877D02*
Y02958D01*
Y02877D02*
X01087D01*
Y02958*
X01252Y02948D02*
X01297D01*
X01252Y02867D02*
Y02948D01*
Y02867D02*
X01297D01*
Y02948*
X01487D02*
X01532D01*
X01487Y02867D02*
Y02948D01*
Y02867D02*
X01532D01*
Y02948*
X01886Y02772D02*
Y02817D01*
X01805D02*
X01886D01*
X01805Y02772D02*
Y02817D01*
Y02772D02*
X01886D01*
X0195Y02512D02*
Y02557D01*
X01869D02*
X0195D01*
X01869Y02512D02*
Y02557D01*
Y02512D02*
X0195D01*
X01918Y02322D02*
Y02367D01*
X01837D02*
X01918D01*
X01837Y02322D02*
Y02367D01*
Y02322D02*
X01918D01*
X01957Y02067D02*
Y02112D01*
X01876D02*
X01957D01*
X01876Y02067D02*
Y02112D01*
Y02067D02*
X01957D01*
X01307Y01834D02*
X01352D01*
Y01915*
X01307D02*
X01352D01*
X01307Y01834D02*
Y01915D01*
X01102Y01826D02*
X01147D01*
Y01907*
X01102D02*
X01147D01*
X01102Y01826D02*
Y01907D01*
X01607Y01811D02*
X01652D01*
Y01892*
X01607D02*
X01652D01*
X01607Y01811D02*
Y01892D01*
X01789Y01777D02*
Y01887D01*
X0173D02*
X01789D01*
X0173Y01777D02*
Y01887D01*
Y01777D02*
X01789D01*
X01667Y01811D02*
X01712D01*
Y01892*
X01667D02*
X01712D01*
X01667Y01811D02*
Y01892D01*
G54D13*
X02473Y03097D02*
Y03544D01*
X0125Y03097D02*
X02473D01*
X0125Y03092D02*
Y03544D01*
X00866Y03098D02*
X01033D01*
X00866Y03452D02*
X01033D01*
X02242Y03082D02*
X02202D01*
X02215*
X02242Y03056*
X02222Y03076*
X02202Y03056*
X02612Y0338D02*
X02572D01*
X02585*
X02612Y03353*
X02592Y03373*
X02572Y03353*
X02062Y03022D02*
X02022D01*
X02035*
X02062Y02996*
X02042Y03016*
X02022Y02996*
X01152Y01608D02*
Y01648D01*
Y01635*
X01126Y01608*
X01146Y01628*
X01126Y01648*
G54D14*
X0285Y03511D02*
Y03547D01*
X02851Y03363D02*
Y03405D01*
X02895Y03288D02*
X02937D01*
X03084D02*
X03119D01*
X0285Y03547D02*
X03165D01*
Y03511D02*
Y03547D01*
X03166Y03367D02*
Y03404D01*
X01799Y00776D02*
Y00933D01*
X01401Y00776D02*
Y00933D01*
X02963Y00709D02*
X03116D01*
X02963Y0051D02*
X03116D01*
X02237Y02978D02*
Y02986D01*
X02202Y02978D02*
Y02986D01*
X02607Y03275D02*
Y03284D01*
X02572Y03275D02*
Y03284D01*
X02057Y02918D02*
Y02926D01*
X02022Y02918D02*
Y02926D01*
X01048Y01613D02*
X01056D01*
X01048Y01648D02*
X01056D01*
G54D15*
X01445Y01676D02*
X01563D01*
X01445Y01873D02*
X01571D01*
G54D16*
X00878Y00499D02*
X00838D01*
X00878Y00525*
X00838*
X00878Y00538D02*
X00838D01*
Y00558*
X00844Y00565*
X00858*
X00864Y00558*
Y00538*
Y00552D02*
X00878Y00565D01*
X00844Y00605D02*
X00838Y00598D01*
Y00585*
X00844Y00578*
X00851*
X00858Y00585*
Y00598*
X00864Y00605*
X00871*
X00878Y00598*
Y00585*
X00871Y00578*
X00838Y00618D02*
Y00645D01*
Y00632*
X00878*
X00939Y005D02*
X00979D01*
Y0052*
X00972Y00527*
X00965*
X00959Y0052*
Y005*
Y0052*
X00952Y00527*
X00945*
X00939Y0052*
Y005*
Y0056D02*
Y00547D01*
X00945Y0054*
X00972*
X00979Y00547*
Y0056*
X00972Y00567*
X00945*
X00939Y0056*
Y006D02*
Y00587D01*
X00945Y0058*
X00972*
X00979Y00587*
Y006*
X00972Y00607*
X00945*
X00939Y006*
Y0062D02*
Y00647D01*
Y00633*
X00979*
X01828Y03021D02*
Y0306D01*
X01841Y03047*
X01854Y0306*
Y03021*
X01867D02*
Y0306D01*
X01887*
X01894Y03054*
Y0304*
X01887Y03034*
X01867*
X01907Y0306D02*
X01921D01*
X01914*
Y03021*
X01907*
X01921*
X02937Y03226D02*
Y03193D01*
X02943Y03187*
X02956*
X02963Y03193*
Y03226*
X03003Y0322D02*
X02996Y03226D01*
X02983*
X02976Y0322*
Y03213*
X02983Y03206*
X02996*
X03003Y032*
Y03193*
X02996Y03187*
X02983*
X02976Y03193*
X03016Y03226D02*
Y03187D01*
X03036*
X03043Y03193*
Y032*
X03036Y03206*
X03016*
X03036*
X03043Y03213*
Y0322*
X03036Y03226*
X03016*
X02458Y02577D02*
X02451Y02583D01*
X02438*
X02431Y02577*
Y0255*
X02438Y02543*
X02451*
X02458Y0255*
Y02563*
X02444*
X02471Y02543D02*
Y02583D01*
X02498Y02543*
Y02583*
X02511D02*
Y02543D01*
X02531*
X02538Y0255*
Y02577*
X02531Y02583*
X02511*
X02442Y01656D02*
X02436Y01649D01*
Y01636*
X02442Y0163*
X02469*
X02476Y01636*
Y01649*
X02469Y01656*
X02456*
Y01643*
X02476Y01669D02*
X02436D01*
Y01689*
X02442Y01696*
X02456*
X02462Y01689*
Y01669*
X02442Y01736D02*
X02436Y01729D01*
Y01716*
X02442Y01709*
X02449*
X02456Y01716*
Y01729*
X02462Y01736*
X02469*
X02476Y01729*
Y01716*
X02469Y01709*
X02442Y01816D02*
X02436Y01809D01*
Y01796*
X02442Y01789*
X02469*
X02476Y01796*
Y01809*
X02469Y01816*
X02476Y01836D02*
Y01849D01*
X02469Y01856*
X02456*
X02449Y01849*
Y01836*
X02456Y01829*
X02469*
X02476Y01836*
Y01869D02*
X02449D01*
Y01889*
X02456Y01896*
X02476*
Y01909D02*
X02449D01*
Y01929*
X02456Y01936*
X02476*
Y01969D02*
Y01956D01*
X02469Y01949*
X02456*
X02449Y01956*
Y01969*
X02456Y01976*
X02462*
Y01949*
X02449Y02016D02*
Y01996D01*
X02456Y01989*
X02469*
X02476Y01996*
Y02016*
X02442Y02036D02*
X02449D01*
Y02029*
Y02043*
Y02036*
X02469*
X02476Y02043*
Y02069D02*
Y02083D01*
X02469Y02089*
X02456*
X02449Y02083*
Y02069*
X02456Y02063*
X02469*
X02476Y02069*
X02449Y02103D02*
X02476D01*
X02462*
X02456Y02109*
X02449Y02116*
Y02123*
X026Y00183D02*
Y00222D01*
X02613Y00209*
X02626Y00222*
Y00183*
X02646D02*
X02659D01*
X02666Y00189*
Y00202*
X02659Y00209*
X02646*
X02639Y00202*
Y00189*
X02646Y00183*
X02686Y00216D02*
Y00209D01*
X02679*
X02693*
X02686*
Y00189*
X02693Y00183*
X02719D02*
X02733D01*
X02739Y00189*
Y00202*
X02733Y00209*
X02719*
X02713Y00202*
Y00189*
X02719Y00183*
X02753Y00209D02*
Y00183D01*
Y00196*
X02759Y00202*
X02766Y00209*
X02773*
X00717Y01093D02*
Y01132D01*
X0073Y01119*
X00743Y01132*
Y01093*
X00763D02*
X00776D01*
X00783Y01099*
Y01112*
X00776Y01119*
X00763*
X00756Y01112*
Y01099*
X00763Y01093*
X00803Y01126D02*
Y01119D01*
X00796*
X0081*
X00803*
Y01099*
X0081Y01093*
X00836D02*
X0085D01*
X00856Y01099*
Y01112*
X0085Y01119*
X00836*
X0083Y01112*
Y01099*
X00836Y01093*
X0087Y01119D02*
Y01093D01*
Y01106*
X00876Y01112*
X00883Y01119*
X0089*
X00976Y01132D02*
X0095D01*
Y01093*
X00976*
X0095Y01112D02*
X00963D01*
X0099Y01093D02*
Y01119D01*
X0101*
X01016Y01112*
Y01093*
X01056Y01119D02*
X01036D01*
X0103Y01112*
Y01099*
X01036Y01093*
X01056*
X01076D02*
X0109D01*
X01096Y01099*
Y01112*
X0109Y01119*
X01076*
X0107Y01112*
Y01099*
X01076Y01093*
X01136Y01132D02*
Y01093D01*
X01116*
X0111Y01099*
Y01112*
X01116Y01119*
X01136*
X0117Y01093D02*
X01156D01*
X0115Y01099*
Y01112*
X01156Y01119*
X0117*
X01176Y01112*
Y01106*
X0115*
X0119Y01119D02*
Y01093D01*
Y01106*
X01196Y01112*
X01203Y01119*
X0121*
X0092Y0144D02*
X00913Y01446D01*
X009*
X00894Y0144*
Y01413*
X009Y01407*
X00913*
X0092Y01413*
Y01426*
X00907*
X00933Y01407D02*
Y01446D01*
X0096Y01407*
Y01446*
X00973D02*
Y01407D01*
X00993*
X01Y01413*
Y0144*
X00993Y01446*
X00973*
X02989Y02938D02*
X02982Y02944D01*
X02969*
X02963Y02938*
Y02911*
X02969Y02905*
X02982*
X02989Y02911*
Y02924*
X02976*
X03002Y02905D02*
Y02944D01*
X03029Y02905*
Y02944*
X03042D02*
Y02905D01*
X03062*
X03069Y02911*
Y02938*
X03062Y02944*
X03042*
X02978Y01437D02*
X02971Y01443D01*
X02958*
X02952Y01437*
Y0141*
X02958Y01404*
X02971*
X02978Y0141*
Y01423*
X02965*
X02991Y01404D02*
Y01443D01*
X03018Y01404*
Y01443*
X03031D02*
Y01404D01*
X03051*
X03058Y0141*
Y01437*
X03051Y01443*
X03031*
X01124Y00077D02*
X01117Y00083D01*
X01104*
X01098Y00077*
Y0005*
X01104Y00044*
X01117*
X01124Y0005*
Y00063*
X01111*
X01137Y00044D02*
Y00083D01*
X01164Y00044*
Y00083*
X01177D02*
Y00044D01*
X01197*
X01204Y0005*
Y00077*
X01197Y00083*
X01177*
X02513Y0228D02*
X02506Y02286D01*
X02493*
X02487Y0228*
Y02253*
X02493Y02247*
X02506*
X02513Y02253*
Y02266*
X025*
X02526Y02247D02*
Y02286D01*
X02546*
X02553Y0228*
Y02266*
X02546Y0226*
X02526*
X02593Y0228D02*
X02586Y02286D01*
X02573*
X02566Y0228*
Y02273*
X02573Y02266*
X02586*
X02593Y0226*
Y02253*
X02586Y02247*
X02573*
X02566Y02253*
X02646Y02247D02*
Y02286D01*
X02666*
X02673Y0228*
Y02266*
X02666Y0226*
X02646*
X0266D02*
X02673Y02247D01*
X02686Y02286D02*
X02713Y02247D01*
Y02286D02*
X02686Y02247D01*
X02432Y02207D02*
X02425Y02213D01*
X02412*
X02406Y02207*
Y0218*
X02412Y02174*
X02425*
X02432Y0218*
Y02193*
X02419*
X02445Y02174D02*
Y02213D01*
X02465*
X02472Y02207*
Y02193*
X02465Y02187*
X02445*
X02512Y02207D02*
X02505Y02213D01*
X02492*
X02485Y02207*
Y022*
X02492Y02193*
X02505*
X02512Y02187*
Y0218*
X02505Y02174*
X02492*
X02485Y0218*
X02565Y02213D02*
X02592D01*
X02579*
Y02174*
X02605Y02213D02*
X02632Y02174D01*
Y02213D02*
X02605Y02174D01*
X02621Y03519D02*
X02595D01*
Y03499*
X02608Y03506*
X02614*
X02621Y03499*
Y03486*
X02614Y0348*
X02601*
X02595Y03486*
X02634Y03519D02*
Y03493D01*
X02648Y0348*
X02661Y03493*
Y03519*
X02503Y03273D02*
Y03247D01*
X02523*
X02516Y0326*
Y03266*
X02523Y03273*
X02536*
X02543Y03266*
Y03253*
X02536Y03247*
X02503Y03286D02*
X02529D01*
X02543Y033*
X02529Y03313*
X02503*
X009Y01569D02*
X00893Y01575D01*
X0088*
X00874Y01569*
Y01542*
X0088Y01536*
X00893*
X009Y01542*
Y01555*
X00887*
X00913Y01536D02*
Y01575D01*
X00933*
X0094Y01569*
Y01555*
X00933Y01549*
X00913*
X00993Y01575D02*
Y01536D01*
X0102*
X0106Y01575D02*
X01033D01*
Y01536*
X0106*
X01033Y01555D02*
X01047D01*
X01073Y01575D02*
Y01536D01*
X01093*
X011Y01542*
Y01569*
X01093Y01575*
X01073*
X01865Y02924D02*
X01871Y0293D01*
X01884*
X01891Y02924*
Y02917*
X01884Y0291*
X01878*
X01884*
X01891Y02904*
Y02897*
X01884Y02891*
X01871*
X01865Y02897*
X01904Y0293D02*
Y02904D01*
X01918Y02891*
X01931Y02904*
Y0293*
X01944Y02924D02*
X01951Y0293D01*
X01964*
X01971Y02924*
Y02917*
X01964Y0291*
X01958*
X01964*
X01971Y02904*
Y02897*
X01964Y02891*
X01951*
X01944Y02897*
X02481Y03027D02*
Y03001D01*
X02494Y02988*
X02507Y03001*
Y03027*
X0252D02*
Y02988D01*
X0254*
X02547Y02994*
Y03001*
X0254Y03007*
X0252*
X0254*
X02547Y03014*
Y03021*
X0254Y03027*
X0252*
X0256Y02988D02*
Y03014D01*
X02574Y03027*
X02587Y03014*
Y02988*
Y03007*
X0256*
X026Y03027D02*
X02627D01*
X02614*
Y02988*
X0253Y01664D02*
X02543D01*
X02536*
Y01625*
X0253*
X02543*
X02589D02*
X02563D01*
X02589Y01651*
Y01658*
X02583Y01664*
X02569*
X02563Y01658*
X02629D02*
X02623Y01664D01*
X02609*
X02603Y01658*
Y01631*
X02609Y01625*
X02623*
X02629Y01631*
X02643Y01625D02*
X02656D01*
X02649*
Y01664*
X02643Y01658*
X02743D02*
X02736Y01664D01*
X02723*
X02716Y01658*
Y01651*
X02723Y01644*
X02736*
X02743Y01638*
Y01631*
X02736Y01625*
X02723*
X02716Y01631*
X02783Y01658D02*
X02776Y01664D01*
X02763*
X02756Y01658*
Y01631*
X02763Y01625*
X02776*
X02783Y01631*
X02796Y01664D02*
Y01625D01*
Y01638*
X02823Y01664*
X02803Y01644*
X02823Y01625*
X02686Y01777D02*
X02699D01*
X02692*
Y01738*
X02686*
X02699*
X02745D02*
X02719D01*
X02745Y01764*
Y01771*
X02739Y01777*
X02725*
X02719Y01771*
X02785D02*
X02779Y01777D01*
X02765*
X02759Y01771*
Y01744*
X02765Y01738*
X02779*
X02785Y01744*
X02865Y01771D02*
X02859Y01777D01*
X02845*
X02839Y01771*
Y01764*
X02845Y01757*
X02859*
X02865Y01751*
Y01744*
X02859Y01738*
X02845*
X02839Y01744*
X02879Y01777D02*
Y01738D01*
X02899*
X02905Y01744*
Y01771*
X02899Y01777*
X02879*
X02919Y01738D02*
Y01764D01*
X02932Y01777*
X02945Y01764*
Y01738*
Y01757*
X02919*
X01773Y01137D02*
Y01176D01*
X01793*
X018Y0117*
Y01157*
X01793Y0115*
X01773*
X01787D02*
X018Y01137D01*
X0184D02*
X01813D01*
X0184Y01163*
Y0117*
X01833Y01176*
X0182*
X01813Y0117*
X01853D02*
X0186Y01176D01*
X01873*
X0188Y0117*
Y01163*
X01873Y01157*
X01866*
X01873*
X0188Y0115*
Y01143*
X01873Y01137*
X0186*
X01853Y01143*
X01633Y01139D02*
Y01178D01*
X01653*
X0166Y01172*
Y01159*
X01653Y01152*
X01633*
X01646D02*
X0166Y01139D01*
X01699D02*
X01673D01*
X01699Y01165*
Y01172*
X01693Y01178*
X0168*
X01673Y01172*
X01713Y01139D02*
X01726D01*
X01719*
Y01178*
X01713Y01172*
X0174Y00538D02*
Y00578D01*
X0176*
X01767Y00572*
Y00558*
X0176Y00552*
X0174*
X01754D02*
X01767Y00538D01*
X0178D02*
X01794D01*
X01787*
Y00578*
X0178Y00572*
X01814D02*
X0182Y00578D01*
X01834*
X0184Y00572*
Y00565*
X01834Y00558*
X0184Y00552*
Y00545*
X01834Y00538*
X0182*
X01814Y00545*
Y00552*
X0182Y00558*
X01814Y00565*
Y00572*
X0182Y00558D02*
X01834D01*
X01814Y00662D02*
Y00701D01*
X01834*
X0184Y00695*
Y00682*
X01834Y00675*
X01814*
X01827D02*
X0184Y00662D01*
X01854D02*
X01867D01*
X0186*
Y00701*
X01854Y00695*
X01887Y00701D02*
X01913D01*
Y00695*
X01887Y00668*
Y00662*
X01589Y00538D02*
Y00577D01*
X01609*
X01615Y00571*
Y00558*
X01609Y00551*
X01589*
X01602D02*
X01615Y00538D01*
X01629D02*
X01642D01*
X01635*
Y00577*
X01629Y00571*
X01688Y00577D02*
X01675Y00571D01*
X01662Y00558*
Y00544*
X01668Y00538*
X01682*
X01688Y00544*
Y00551*
X01682Y00558*
X01662*
X01336Y0048D02*
Y00519D01*
X01356*
X01362Y00513*
Y005*
X01356Y00493*
X01336*
X01349D02*
X01362Y0048D01*
X01376D02*
X01389D01*
X01382*
Y00519*
X01376Y00513*
X01435Y00519D02*
X01409D01*
Y005*
X01422Y00506*
X01429*
X01435Y005*
Y00486*
X01429Y0048*
X01415*
X01409Y00486*
X01403Y00541D02*
Y0058D01*
X01423*
X01429Y00574*
Y00561*
X01423Y00554*
X01403*
X01416D02*
X01429Y00541D01*
X01443D02*
X01456D01*
X01449*
Y0058*
X01443Y00574*
X01496Y00541D02*
Y0058D01*
X01476Y00561*
X01502*
X01462Y0048D02*
Y00519D01*
X01482*
X01488Y00513*
Y005*
X01482Y00493*
X01462*
X01475D02*
X01488Y0048D01*
X01502D02*
X01515D01*
X01508*
Y00519*
X01502Y00513*
X01535D02*
X01541Y00519D01*
X01555*
X01561Y00513*
Y00506*
X01555Y005*
X01548*
X01555*
X01561Y00493*
Y00486*
X01555Y0048*
X01541*
X01535Y00486*
X01227Y03022D02*
X01188D01*
Y03042*
X01194Y03049*
X01208*
X01214Y03042*
Y03022*
Y03036D02*
X01227Y03049D01*
Y03062D02*
Y03075D01*
Y03069*
X01188*
X01194Y03062*
X01227Y03095D02*
Y03109D01*
Y03102*
X01188*
X01194Y03095*
X01226Y03136D02*
X01187D01*
Y03156*
X01193Y03163*
X01207*
X01213Y03156*
Y03136*
Y0315D02*
X01226Y03163D01*
X01193Y03176D02*
X01187Y03183D01*
Y03196*
X01193Y03203*
X012*
X01207Y03196*
X01213Y03203*
X0122*
X01226Y03196*
Y03183*
X0122Y03176*
X01213*
X01207Y03183*
X012Y03176*
X01193*
X01207Y03183D02*
Y03196D01*
X03328Y00248D02*
Y00287D01*
X03348*
X03355Y00281*
Y00268*
X03348Y00261*
X03328*
X03342D02*
X03355Y00248D01*
X03368Y00287D02*
X03395D01*
Y00281*
X03368Y00254*
Y00248*
X00137Y00062D02*
Y00101D01*
X00157*
X00164Y00095*
Y00082*
X00157Y00075*
X00137*
X00151D02*
X00164Y00062D01*
X00204Y00101D02*
X0019Y00095D01*
X00177Y00082*
Y00068*
X00184Y00062*
X00197*
X00204Y00068*
Y00075*
X00197Y00082*
X00177*
X03334Y0341D02*
Y03449D01*
X03353*
X0336Y03443*
Y03429*
X03353Y03423*
X03334*
X03347D02*
X0336Y0341D01*
X034Y03449D02*
X03373D01*
Y03429*
X03387Y03436*
X03393*
X034Y03429*
Y03416*
X03393Y0341*
X0338*
X03373Y03416*
X01836Y01015D02*
Y01054D01*
X01856*
X01862Y01048*
Y01035*
X01856Y01028*
X01836*
X01849D02*
X01862Y01015D01*
X01876D02*
X01889D01*
X01882*
Y01054*
X01876Y01048*
X01929Y01015D02*
Y01054D01*
X01909Y01035*
X01935*
X01975Y01054D02*
X01962Y01048D01*
X01949Y01035*
Y01021*
X01955Y01015*
X01969*
X01975Y01021*
Y01028*
X01969Y01035*
X01949*
X01611Y01667D02*
Y01661D01*
X01624Y01648*
X01638Y01661*
Y01667*
X01624Y01648D02*
Y01628D01*
X01651D02*
X01664D01*
X01657*
Y01667*
X01651Y01661*
X01599Y01072D02*
X0156D01*
Y01092*
X01566Y01098*
X0158*
X01586Y01092*
Y01072*
Y01085D02*
X01599Y01098D01*
Y01112D02*
Y01125D01*
Y01118*
X0156*
X01566Y01112*
X01599Y01165D02*
X0156D01*
X0158Y01145*
Y01171*
X01593Y01185D02*
X01599Y01191D01*
Y01205*
X01593Y01211*
X01566*
X0156Y01205*
Y01191*
X01566Y01185*
X01573*
X0158Y01191*
Y01211*
X03081Y00338D02*
Y00377D01*
X03101*
X03107Y00371*
Y00358*
X03101Y00351*
X03081*
X03094D02*
X03107Y00338D01*
X03121D02*
X03134D01*
X03127*
Y00377*
X03121Y00371*
X03154D02*
X0316Y00377D01*
X03174*
X0318Y00371*
Y00364*
X03174Y00358*
X03167*
X03174*
X0318Y00351*
Y00344*
X03174Y00338*
X0316*
X03154Y00344*
X03194Y00377D02*
X0322D01*
Y00371*
X03194Y00344*
Y00338*
X02304Y0276D02*
X02265D01*
Y0278*
X02271Y02786*
X02285*
X02291Y0278*
Y0276*
Y02773D02*
X02304Y02786D01*
Y028D02*
Y02813D01*
Y02806*
X02265*
X02271Y028*
Y02833D02*
X02265Y02839D01*
Y02853*
X02271Y02859*
X02278*
X02285Y02853*
Y02846*
Y02853*
X02291Y02859*
X02298*
X02304Y02853*
Y02839*
X02298Y02833*
X02265Y02899D02*
X02271Y02886D01*
X02285Y02873*
X02298*
X02304Y02879*
Y02893*
X02298Y02899*
X02291*
X02285Y02893*
Y02873*
X02645Y03169D02*
Y03208D01*
X02665*
X02671Y03202*
Y03189*
X02665Y03182*
X02645*
X02658D02*
X02671Y03169D01*
X02685D02*
X02698D01*
X02691*
Y03208*
X02685Y03202*
X02718D02*
X02724Y03208D01*
X02738*
X02744Y03202*
Y03195*
X02738Y03189*
X02731*
X02738*
X02744Y03182*
Y03175*
X02738Y03169*
X02724*
X02718Y03175*
X02784Y03208D02*
X02758D01*
Y03189*
X02771Y03195*
X02778*
X02784Y03189*
Y03175*
X02778Y03169*
X02764*
X02758Y03175*
X02129Y02715D02*
X0209D01*
Y02735*
X02096Y02741*
X0211*
X02116Y02735*
Y02715*
Y02728D02*
X02129Y02741D01*
Y02755D02*
Y02768D01*
Y02761*
X0209*
X02096Y02755*
Y02788D02*
X0209Y02794D01*
Y02808*
X02096Y02814*
X02103*
X0211Y02808*
Y02801*
Y02808*
X02116Y02814*
X02123*
X02129Y02808*
Y02794*
X02123Y02788*
X02129Y02848D02*
X0209D01*
X0211Y02828*
Y02854*
X00784Y02951D02*
X00745D01*
Y02971*
X00751Y02978*
X00765*
X00771Y02971*
Y02951*
Y02965D02*
X00784Y02978D01*
Y02991D02*
Y03005D01*
Y02998*
X00745*
X00751Y02991*
Y03024D02*
X00745Y03031D01*
Y03044*
X00751Y03051*
X00758*
X00765Y03044*
Y03038*
Y03044*
X00771Y03051*
X00778*
X00784Y03044*
Y03031*
X00778Y03024*
X00784Y03064D02*
Y03078D01*
Y03071*
X00745*
X00751Y03064*
X01162Y03045D02*
X01123D01*
Y03065*
X01129Y03071*
X01143*
X01149Y03065*
Y03045*
Y03058D02*
X01162Y03071D01*
Y03085D02*
Y03098D01*
Y03091*
X01123*
X01129Y03085*
Y03118D02*
X01123Y03124D01*
Y03138*
X01129Y03144*
X01136*
X01143Y03138*
Y03131*
Y03138*
X01149Y03144*
X01156*
X01162Y03138*
Y03124*
X01156Y03118*
X01129Y03158D02*
X01123Y03164D01*
Y03178*
X01129Y03184*
X01156*
X01162Y03178*
Y03164*
X01156Y03158*
X01129*
X00126Y00972D02*
X00087D01*
Y00992*
X00093Y00998*
X00107*
X00113Y00992*
Y00972*
Y00985D02*
X00126Y00998D01*
Y01012D02*
Y01025D01*
Y01018*
X00087*
X00093Y01012*
X00126Y01071D02*
Y01045D01*
X001Y01071*
X00093*
X00087Y01065*
Y01051*
X00093Y01045*
X0012Y01085D02*
X00126Y01091D01*
Y01105*
X0012Y01111*
X00093*
X00087Y01105*
Y01091*
X00093Y01085*
X001*
X00107Y01091*
Y01111*
X00169Y00815D02*
Y00854D01*
X00189*
X00195Y00848*
Y00835*
X00189Y00828*
X00169*
X00182D02*
X00195Y00815D01*
X00209D02*
X00222D01*
X00215*
Y00854*
X00209Y00848*
X00268Y00815D02*
X00242D01*
X00268Y00841*
Y00848*
X00262Y00854*
X00248*
X00242Y00848*
X00282D02*
X00288Y00854D01*
X00302*
X00308Y00848*
Y00841*
X00302Y00835*
X00308Y00828*
Y00821*
X00302Y00815*
X00288*
X00282Y00821*
Y00828*
X00288Y00835*
X00282Y00841*
Y00848*
X00288Y00835D02*
X00302D01*
X00683Y02725D02*
Y02764D01*
X00703*
X0071Y02758*
Y02745*
X00703Y02738*
X00683*
X00696D02*
X0071Y02725D01*
X00723D02*
X00736D01*
X0073*
Y02764*
X00723Y02758*
X00756Y02725D02*
X00769D01*
X00763*
Y02764*
X00756Y02758*
X00816Y02764D02*
X00803Y02758D01*
X00789Y02745*
Y02731*
X00796Y02725*
X00809*
X00816Y02731*
Y02738*
X00809Y02745*
X00789*
X01358Y02866D02*
X01319D01*
Y02886*
X01325Y02892*
X01339*
X01345Y02886*
Y02866*
Y02879D02*
X01358Y02892D01*
Y02906D02*
Y02919D01*
Y02912*
X01319*
X01325Y02906*
Y02939D02*
X01319Y02945D01*
Y02959*
X01325Y02965*
X01352*
X01358Y02959*
Y02945*
X01352Y02939*
X01325*
X01352Y02979D02*
X01358Y02985D01*
Y02999*
X01352Y03005*
X01325*
X01319Y02999*
Y02985*
X01325Y02979*
X01332*
X01339Y02985*
Y03005*
X0141Y02867D02*
X01371D01*
Y02887*
X01377Y02893*
X01391*
X01397Y02887*
Y02867*
Y0288D02*
X0141Y02893D01*
Y02907D02*
Y0292D01*
Y02913*
X01371*
X01377Y02907*
Y0294D02*
X01371Y02946D01*
Y0296*
X01377Y02966*
X01404*
X0141Y0296*
Y02946*
X01404Y0294*
X01377*
X01371Y0298D02*
Y03006D01*
X01377*
X01404Y0298*
X0141*
X00094Y01881D02*
X00055D01*
Y01901*
X00061Y01908*
X00075*
X00081Y01901*
Y01881*
Y01895D02*
X00094Y01908D01*
X00088Y01921D02*
X00094Y01928D01*
Y01941*
X00088Y01948*
X00061*
X00055Y01941*
Y01928*
X00061Y01921*
X00068*
X00075Y01928*
Y01948*
X00055Y01961D02*
Y01988D01*
X00061*
X00088Y01961*
X00094*
X00084Y02336D02*
X00045D01*
Y02356*
X00051Y02363*
X00065*
X00071Y02356*
Y02336*
Y0235D02*
X00084Y02363D01*
X00078Y02376D02*
X00084Y02383D01*
Y02396*
X00078Y02403*
X00051*
X00045Y02396*
Y02383*
X00051Y02376*
X00058*
X00065Y02383*
Y02403*
X00045Y02443D02*
X00051Y02429D01*
X00065Y02416*
X00078*
X00084Y02423*
Y02436*
X00078Y02443*
X00071*
X00065Y02436*
Y02416*
X00611Y02465D02*
Y02504D01*
X00631*
X00638Y02498*
Y02485*
X00631Y02478*
X00611*
X00625D02*
X00638Y02465D01*
X00651Y02471D02*
X00658Y02465D01*
X00671*
X00678Y02471*
Y02498*
X00671Y02504*
X00658*
X00651Y02498*
Y02491*
X00658Y02485*
X00678*
X00711Y02465D02*
Y02504D01*
X00691Y02485*
X00718*
X00541Y02406D02*
Y02445D01*
X00561*
X00568Y02439*
Y02426*
X00561Y02419*
X00541*
X00555D02*
X00568Y02406D01*
X00581Y02412D02*
X00588Y02406D01*
X00601*
X00608Y02412*
Y02439*
X00601Y02445*
X00588*
X00581Y02439*
Y02432*
X00588Y02426*
X00608*
X00621Y02439D02*
X00628Y02445D01*
X00641*
X00648Y02439*
Y02432*
X00641Y02426*
X00634*
X00641*
X00648Y02419*
Y02412*
X00641Y02406*
X00628*
X00621Y02412*
X02966Y01055D02*
Y01094D01*
X02986*
X02993Y01088*
Y01075*
X02986Y01068*
X02966*
X0298D02*
X02993Y01055D01*
X03006Y01061D02*
X03013Y01055D01*
X03026*
X03033Y01061*
Y01088*
X03026Y01094*
X03013*
X03006Y01088*
Y01081*
X03013Y01075*
X03033*
X03073Y01055D02*
X03046D01*
X03073Y01081*
Y01088*
X03066Y01094*
X03053*
X03046Y01088*
X02978Y0095D02*
Y00989D01*
X02998*
X03005Y00983*
Y0097*
X02998Y00963*
X02978*
X02991D02*
X03005Y0095D01*
X03018Y00956D02*
X03025Y0095D01*
X03038*
X03044Y00956*
Y00983*
X03038Y00989*
X03025*
X03018Y00983*
Y00976*
X03025Y0097*
X03044*
X03058Y0095D02*
X03071D01*
X03064*
Y00989*
X03058Y00983*
X00608Y02348D02*
Y02387D01*
X00628*
X00635Y02381*
Y02368*
X00628Y02361*
X00608*
X00622D02*
X00635Y02348D01*
X00648Y02354D02*
X00655Y02348D01*
X00668*
X00675Y02354*
Y02381*
X00668Y02387*
X00655*
X00648Y02381*
Y02374*
X00655Y02368*
X00675*
X00688Y02381D02*
X00695Y02387D01*
X00708*
X00715Y02381*
Y02354*
X00708Y02348*
X00695*
X00688Y02354*
Y02381*
X00664Y02223D02*
Y02262D01*
X00684*
X00691Y02256*
Y02243*
X00684Y02236*
X00664*
X00678D02*
X00691Y02223D01*
X00704Y02262D02*
X00731D01*
Y02256*
X00704Y02229*
Y02223*
X00744Y02256D02*
X00751Y02262D01*
X00764*
X00771Y02256*
Y02249*
X00764Y02243*
X00771Y02236*
Y02229*
X00764Y02223*
X00751*
X00744Y02229*
Y02236*
X00751Y02243*
X00744Y02249*
Y02256*
X00751Y02243D02*
X00764D01*
X01957Y02153D02*
Y02192D01*
X01977*
X01984Y02186*
Y02173*
X01977Y02166*
X01957*
X01971D02*
X01984Y02153D01*
X02024Y02192D02*
X01997D01*
Y02173*
X02011Y02179*
X02017*
X02024Y02173*
Y02159*
X02017Y02153*
X02004*
X01997Y02159*
X02037Y02186D02*
X02044Y02192D01*
X02057*
X02064Y02186*
Y02159*
X02057Y02153*
X02044*
X02037Y02159*
Y02186*
X01953Y02219D02*
Y02258D01*
X01973*
X0198Y02252*
Y02239*
X01973Y02232*
X01953*
X01967D02*
X0198Y02219D01*
X02013D02*
Y02258D01*
X01993Y02239*
X0202*
X02033Y02252D02*
X0204Y02258D01*
X02053*
X0206Y02252*
Y02245*
X02053Y02239*
X0206Y02232*
Y02225*
X02053Y02219*
X0204*
X02033Y02225*
Y02232*
X0204Y02239*
X02033Y02245*
Y02252*
X0204Y02239D02*
X02053D01*
X00589Y02786D02*
X0055D01*
Y02806*
X00556Y02813*
X0057*
X00576Y02806*
Y02786*
Y028D02*
X00589Y02813D01*
Y02846D02*
X0055D01*
X0057Y02826*
Y02853*
X0055Y02893D02*
X00556Y02879D01*
X0057Y02866*
X00583*
X00589Y02873*
Y02886*
X00583Y02893*
X00576*
X0057Y02886*
Y02866*
X00654Y02791D02*
X00615D01*
Y02811*
X00621Y02817*
X00635*
X00641Y02811*
Y02791*
Y02804D02*
X00654Y02817D01*
Y02851D02*
X00615D01*
X00635Y02831*
Y02857*
X00621Y02871D02*
X00615Y02877D01*
Y02891*
X00621Y02897*
X00628*
X00635Y02891*
Y02884*
Y02891*
X00641Y02897*
X00648*
X00654Y02891*
Y02877*
X00648Y02871*
X0006Y00716D02*
X00021D01*
Y00736*
X00027Y00743*
X00041*
X00047Y00736*
Y00716*
Y0073D02*
X0006Y00743D01*
Y00783D02*
Y00756D01*
X00034Y00783*
X00027*
X00021Y00776*
Y00763*
X00027Y00756*
X0006Y00816D02*
X00021D01*
X00041Y00796*
Y00823*
X00261Y0091D02*
Y00949D01*
X00281*
X00288Y00943*
Y0093*
X00281Y00923*
X00261*
X00275D02*
X00288Y0091D01*
X00328D02*
X00301D01*
X00328Y00936*
Y00943*
X00321Y00949*
X00308*
X00301Y00943*
X00368Y0091D02*
X00341D01*
X00368Y00936*
Y00943*
X00361Y00949*
X00348*
X00341Y00943*
X01215Y0171D02*
X01176D01*
Y0173*
X01182Y01737*
X01196*
X01202Y0173*
Y0171*
Y01724D02*
X01215Y01737D01*
Y01777D02*
Y0175D01*
X01189Y01777*
X01182*
X01176Y0177*
Y01757*
X01182Y0175*
Y0179D02*
X01176Y01797D01*
Y0181*
X01182Y01817*
X01209*
X01215Y0181*
Y01797*
X01209Y0179*
X01182*
X01284Y01711D02*
X01245D01*
Y01731*
X01251Y01737*
X01265*
X01271Y01731*
Y01711*
Y01724D02*
X01284Y01737D01*
Y01751D02*
Y01764D01*
Y01757*
X01245*
X01251Y01751*
X01278Y01784D02*
X01284Y0179D01*
Y01804*
X01278Y0181*
X01251*
X01245Y01804*
Y0179*
X01251Y01784*
X01258*
X01265Y0179*
Y0181*
X01967Y02575D02*
Y02614D01*
X01987*
X01993Y02608*
Y02595*
X01987Y02588*
X01967*
X0198D02*
X01993Y02575D01*
X02007D02*
X0202D01*
X02013*
Y02614*
X02007Y02608*
X02067Y02575D02*
X0204D01*
X02067Y02601*
Y02608*
X0206Y02614*
X02047*
X0204Y02608*
X01967Y02635D02*
Y02674D01*
X01987*
X01993Y02668*
Y02655*
X01987Y02648*
X01967*
X0198D02*
X01993Y02635D01*
X02007D02*
X0202D01*
X02013*
Y02674*
X02007Y02668*
X0204D02*
X02047Y02674D01*
X0206*
X02067Y02668*
Y02641*
X0206Y02635*
X02047*
X0204Y02641*
Y02668*
X01971Y027D02*
Y02739D01*
X01991*
X01998Y02733*
Y0272*
X01991Y02713*
X01971*
X01985D02*
X01998Y027D01*
X02011Y02706D02*
X02018Y027D01*
X02031*
X02038Y02706*
Y02733*
X02031Y02739*
X02018*
X02011Y02733*
Y02726*
X02018Y0272*
X02038*
X01079Y01813D02*
X0104D01*
Y01833*
X01046Y0184*
X0106*
X01066Y01833*
Y01813*
Y01827D02*
X01079Y0184D01*
X01046Y01853D02*
X0104Y0186D01*
Y01873*
X01046Y0188*
X01053*
X0106Y01873*
Y01866*
Y01873*
X01066Y0188*
X01073*
X01079Y01873*
Y0186*
X01073Y01853*
X01019Y01813D02*
X0098D01*
Y01833*
X00986Y0184*
X01*
X01006Y01833*
Y01813*
Y01827D02*
X01019Y0184D01*
Y0188D02*
Y01853D01*
X00993Y0188*
X00986*
X0098Y01873*
Y0186*
X00986Y01853*
X00899Y01673D02*
Y01712D01*
X00919*
X00926Y01706*
Y01693*
X00919Y01686*
X00899*
X00912D02*
X00926Y01673D01*
X00939D02*
X00952D01*
X00945*
Y01712*
X00939Y01706*
X022Y02836D02*
X02239D01*
Y02856*
X02233Y02863*
X02206*
X022Y02856*
Y02836*
Y02903D02*
Y02876D01*
X0222*
X02213Y02889*
Y02896*
X0222Y02903*
X02233*
X02239Y02896*
Y02883*
X02233Y02876*
X02571Y03134D02*
X0261D01*
Y03154*
X02604Y03161*
X02577*
X02571Y03154*
Y03134*
X0261Y03194D02*
X02571D01*
X02591Y03174*
Y03201*
X02015Y02781D02*
X02054D01*
Y02801*
X02048Y02808*
X02021*
X02015Y02801*
Y02781*
X02021Y02821D02*
X02015Y02828D01*
Y02841*
X02021Y02848*
X02028*
X02035Y02841*
Y02834*
Y02841*
X02041Y02848*
X02048*
X02054Y02841*
Y02828*
X02048Y02821*
X00903Y01653D02*
Y01614D01*
X00923*
X0093Y0162*
Y01647*
X00923Y01653*
X00903*
X00943Y01614D02*
X00956D01*
X00949*
Y01653*
X00943Y01647*
X01349Y01071D02*
X01343Y01064D01*
Y01051*
X01349Y01044*
X01376*
X01382Y01051*
Y01064*
X01376Y01071*
X01382Y01104D02*
X01343D01*
X01363Y01084*
Y01111*
X01343Y01151D02*
X01349Y01137D01*
X01363Y01124*
X01376*
X01382Y01131*
Y01144*
X01376Y01151*
X01369*
X01363Y01144*
Y01124*
X02473Y01125D02*
X02466Y01131D01*
X02453*
X02446Y01125*
Y01098*
X02453Y01092*
X02466*
X02473Y01098*
X02506Y01092D02*
Y01131D01*
X02486Y01112*
X02513*
X02553Y01131D02*
X02526D01*
Y01112*
X02539Y01118*
X02546*
X02553Y01112*
Y01098*
X02546Y01092*
X02533*
X02526Y01098*
X01959Y00952D02*
X01952Y00958D01*
X01939*
X01932Y00952*
Y00925*
X01939Y00919*
X01952*
X01959Y00925*
X01992Y00919D02*
Y00958D01*
X01972Y00939*
X01999*
X02032Y00919D02*
Y00958D01*
X02012Y00939*
X02039*
X02227Y01068D02*
X02221Y01061D01*
Y01048*
X02227Y01041*
X02254*
X0226Y01048*
Y01061*
X02254Y01068*
X0226Y01101D02*
X02221D01*
X02241Y01081*
Y01108*
X02227Y01121D02*
X02221Y01128D01*
Y01141*
X02227Y01148*
X02234*
X02241Y01141*
Y01134*
Y01141*
X02247Y01148*
X02254*
X0226Y01141*
Y01128*
X02254Y01121*
X02918Y00888D02*
X02911Y00894D01*
X02898*
X02891Y00888*
Y00861*
X02898Y00855*
X02911*
X02918Y00861*
X02931Y00888D02*
X02938Y00894D01*
X02951*
X02958Y00888*
Y00881*
X02951Y00875*
X02945*
X02951*
X02958Y00868*
Y00861*
X02951Y00855*
X02938*
X02931Y00861*
X02971Y00888D02*
X02978Y00894D01*
X02991*
X02998Y00888*
Y00881*
X02991Y00875*
X02998Y00868*
Y00861*
X02991Y00855*
X02978*
X02971Y00861*
Y00868*
X02978Y00875*
X02971Y00881*
Y00888*
X02978Y00875D02*
X02991D01*
X02888Y00788D02*
X02881Y00794D01*
X02868*
X02861Y00788*
Y00761*
X02868Y00755*
X02881*
X02888Y00761*
X02901Y00788D02*
X02908Y00794D01*
X02921*
X02928Y00788*
Y00781*
X02921Y00775*
X02915*
X02921*
X02928Y00768*
Y00761*
X02921Y00755*
X02908*
X02901Y00761*
X02941Y00794D02*
X02968D01*
Y00788*
X02941Y00761*
Y00755*
X0289Y00447D02*
X02883Y00453D01*
X0287*
X02863Y00447*
Y0042*
X0287Y00414*
X02883*
X0289Y0042*
X02903Y00447D02*
X0291Y00453D01*
X02923*
X0293Y00447*
Y0044*
X02923Y00434*
X02917*
X02923*
X0293Y00427*
Y0042*
X02923Y00414*
X0291*
X02903Y0042*
X0297Y00453D02*
X02956Y00447D01*
X02943Y00434*
Y0042*
X0295Y00414*
X02963*
X0297Y0042*
Y00427*
X02963Y00434*
X02943*
X0119Y03454D02*
X01184Y03447D01*
Y03434*
X0119Y03427*
X01217*
X01223Y03434*
Y03447*
X01217Y03454*
X0119Y03467D02*
X01184Y03474D01*
Y03487*
X0119Y03494*
X01197*
X01204Y03487*
Y03481*
Y03487*
X0121Y03494*
X01217*
X01223Y03487*
Y03474*
X01217Y03467*
X01223Y03534D02*
Y03507D01*
X01197Y03534*
X0119*
X01184Y03527*
Y03514*
X0119Y03507*
X00431Y03438D02*
X00424Y03444D01*
X00411*
X00404Y03438*
Y03411*
X00411Y03405*
X00424*
X00431Y03411*
X00444Y03438D02*
X00451Y03444D01*
X00464*
X0047Y03438*
Y03431*
X00464Y03425*
X00457*
X00464*
X0047Y03418*
Y03411*
X00464Y03405*
X00451*
X00444Y03411*
X00484Y03405D02*
X00497D01*
X0049*
Y03444*
X00484Y03438*
X00328Y03091D02*
X00321Y03097D01*
X00308*
X00301Y03091*
Y03064*
X00308Y03058*
X00321*
X00328Y03064*
X00341Y03091D02*
X00348Y03097D01*
X00361*
X00368Y03091*
Y03084*
X00361Y03078*
X00355*
X00361*
X00368Y03071*
Y03064*
X00361Y03058*
X00348*
X00341Y03064*
X00381Y03091D02*
X00388Y03097D01*
X00401*
X00408Y03091*
Y03064*
X00401Y03058*
X00388*
X00381Y03064*
Y03091*
X00423Y03498D02*
X00416Y03504D01*
X00403*
X00396Y03498*
Y03471*
X00403Y03465*
X00416*
X00423Y03471*
X00463Y03465D02*
X00436D01*
X00463Y03491*
Y03498*
X00456Y03504*
X00443*
X00436Y03498*
X00476Y03471D02*
X00483Y03465D01*
X00496*
X00503Y03471*
Y03498*
X00496Y03504*
X00483*
X00476Y03498*
Y03491*
X00483Y03485*
X00503*
X00073Y01463D02*
X00066Y01469D01*
X00053*
X00046Y01463*
Y01436*
X00053Y0143*
X00066*
X00073Y01436*
X00113Y0143D02*
X00086D01*
X00113Y01456*
Y01463*
X00106Y01469*
X00093*
X00086Y01463*
X00126D02*
X00133Y01469D01*
X00146*
X00153Y01463*
Y01456*
X00146Y0145*
X00153Y01443*
Y01436*
X00146Y0143*
X00133*
X00126Y01436*
Y01443*
X00133Y0145*
X00126Y01456*
Y01463*
X00133Y0145D02*
X00146D01*
X00525Y00823D02*
X00518Y00829D01*
X00505*
X00498Y00823*
Y00796*
X00505Y0079*
X00518*
X00525Y00796*
X00565Y0079D02*
X00538D01*
X00565Y00816*
Y00823*
X00558Y00829*
X00545*
X00538Y00823*
X00578Y00829D02*
X00605D01*
Y00823*
X00578Y00796*
Y0079*
X01366Y01671D02*
X0136Y01664D01*
Y01651*
X01366Y01644*
X01393*
X01399Y01651*
Y01664*
X01393Y01671*
X01399Y0171D02*
Y01684D01*
X01373Y0171*
X01366*
X0136Y01704*
Y01691*
X01366Y01684*
X01399Y01724D02*
Y01737D01*
Y0173*
X0136*
X01366Y01724*
X01398Y01574D02*
X01391Y0158D01*
X01378*
X01371Y01574*
Y01547*
X01378Y01541*
X01391*
X01398Y01547*
X01438Y01541D02*
X01411D01*
X01438Y01567*
Y01574*
X01431Y0158*
X01418*
X01411Y01574*
X01451D02*
X01458Y0158D01*
X01471*
X01478Y01574*
Y01547*
X01471Y01541*
X01458*
X01451Y01547*
Y01574*
X00794Y02092D02*
X00788Y02098D01*
X00774*
X00768Y02092*
Y02065*
X00774Y02059*
X00788*
X00794Y02065*
X00808Y02059D02*
X00821D01*
X00814*
Y02098*
X00808Y02092*
X00841D02*
X00847Y02098D01*
X00861*
X00867Y02092*
Y02085*
X00861Y02079*
X00867Y02072*
Y02065*
X00861Y02059*
X00847*
X00841Y02065*
Y02072*
X00847Y02079*
X00841Y02085*
Y02092*
X00847Y02079D02*
X00861D01*
X00695Y0232D02*
X00689Y02326D01*
X00675*
X00669Y0232*
Y02293*
X00675Y02287*
X00689*
X00695Y02293*
X00709Y02287D02*
X00722D01*
X00715*
Y02326*
X00709Y0232*
X00742Y02326D02*
X00768D01*
Y0232*
X00742Y02293*
Y02287*
X00813Y0259D02*
X00807Y02596D01*
X00793*
X00787Y0259*
Y02563*
X00793Y02557*
X00807*
X00813Y02563*
X00827Y02557D02*
X0084D01*
X00833*
Y02596*
X00827Y0259*
X00886Y02596D02*
X00873Y0259D01*
X0086Y02577*
Y02563*
X00866Y02557*
X0088*
X00886Y02563*
Y0257*
X0088Y02577*
X0086*
X0105Y03007D02*
X01044Y03001D01*
Y02987*
X0105Y02981*
X01077*
X01083Y02987*
Y03001*
X01077Y03007*
X01083Y03021D02*
Y03034D01*
Y03027*
X01044*
X0105Y03021*
X01044Y0308D02*
Y03054D01*
X01064*
X01057Y03067*
Y03074*
X01064Y0308*
X01077*
X01083Y03074*
Y0306*
X01077Y03054*
X01433Y02954D02*
X01427Y02948D01*
Y02934*
X01433Y02928*
X0146*
X01466Y02934*
Y02948*
X0146Y02954*
X01466Y02968D02*
Y02981D01*
Y02974*
X01427*
X01433Y02968*
X01466Y03021D02*
X01427D01*
X01447Y03001*
Y03027*
X01573Y02976D02*
X01567Y02982D01*
X01553*
X01547Y02976*
Y02949*
X01553Y02943*
X01567*
X01573Y02949*
X01587Y02943D02*
X016D01*
X01593*
Y02982*
X01587Y02976*
X0162D02*
X01626Y02982D01*
X0164*
X01646Y02976*
Y02949*
X0164Y02943*
X01626*
X0162Y02949*
Y02976*
X01931Y02808D02*
X01924Y02814D01*
X01911*
X01904Y02808*
Y02781*
X01911Y02775*
X01924*
X01931Y02781*
X01944D02*
X01951Y02775D01*
X01964*
X01971Y02781*
Y02808*
X01964Y02814*
X01951*
X01944Y02808*
Y02801*
X01951Y02795*
X01971*
X02Y02548D02*
X01993Y02554D01*
X0198*
X01973Y02548*
Y02521*
X0198Y02515*
X01993*
X02Y02521*
X02013Y02548D02*
X0202Y02554D01*
X02033*
X0204Y02548*
Y02541*
X02033Y02535*
X0204Y02528*
Y02521*
X02033Y02515*
X0202*
X02013Y02521*
Y02528*
X0202Y02535*
X02013Y02541*
Y02548*
X0202Y02535D02*
X02033D01*
X0197Y02358D02*
X01963Y02364D01*
X0195*
X01943Y02358*
Y02331*
X0195Y02325*
X01963*
X0197Y02331*
X01983Y02364D02*
X0201D01*
Y02358*
X01983Y02331*
Y02325*
X02005Y02103D02*
X01998Y02109D01*
X01985*
X01978Y02103*
Y02076*
X01985Y0207*
X01998*
X02005Y02076*
X02045Y02109D02*
X02031Y02103D01*
X02018Y0209*
Y02076*
X02025Y0207*
X02038*
X02045Y02076*
Y02083*
X02038Y0209*
X02018*
X01315Y01753D02*
X01309Y01746D01*
Y01733*
X01315Y01726*
X01342*
X01348Y01733*
Y01746*
X01342Y01753*
X01309Y01793D02*
Y01766D01*
X01329*
X01322Y01779*
Y01786*
X01329Y01793*
X01342*
X01348Y01786*
Y01773*
X01342Y01766*
X0111Y01746D02*
X01104Y01739D01*
Y01726*
X0111Y01719*
X01137*
X01143Y01726*
Y01739*
X01137Y01746*
X01143Y01779D02*
X01104D01*
X01124Y01759*
Y01786*
X01616Y01728D02*
X0161Y01721D01*
Y01708*
X01616Y01701*
X01643*
X01649Y01708*
Y01721*
X01643Y01728*
X01616Y01741D02*
X0161Y01748D01*
Y01761*
X01616Y01768*
X01623*
X0163Y01761*
Y01754*
Y01761*
X01636Y01768*
X01643*
X01649Y01761*
Y01748*
X01643Y01741*
X0175Y01711D02*
X01744Y01705D01*
Y01691*
X0175Y01685*
X01777*
X01784Y01691*
Y01705*
X01777Y01711*
X01784Y01751D02*
Y01725D01*
X01757Y01751*
X0175*
X01744Y01745*
Y01731*
X0175Y01725*
X01676Y01745D02*
X0167Y01738D01*
Y01725*
X01676Y01718*
X01703*
X01709Y01725*
Y01738*
X01703Y01745*
X01709Y01758D02*
Y01771D01*
Y01764*
X0167*
X01676Y01758*
G54D17*
X00568Y01738D02*
X00555Y01724D01*
Y01698*
X00568Y01685*
X00621*
X00635Y01698*
Y01724*
X00621Y01738*
X00581Y01778D02*
Y01804D01*
X00595Y01818*
X00635*
Y01778*
X00621Y01764*
X00608Y01778*
Y01818*
X00635Y01844D02*
X00581D01*
Y01858*
X00595Y01871*
X00635*
X00595*
X00581Y01884*
X00595Y01898*
X00635*
Y01964D02*
Y01938D01*
X00621Y01924*
X00595*
X00581Y01938*
Y01964*
X00595Y01978*
X00608*
Y01924*
X00581Y02004D02*
X00635D01*
X00608*
X00595Y02018*
X00581Y02031*
Y02044*
Y02098D02*
Y02124D01*
X00595Y02138*
X00635*
Y02098*
X00621Y02084*
X00608Y02098*
Y02138*
G54D18*
X01243Y00228D02*
X01229Y00241D01*
X01203*
X0119Y00228*
Y00175*
X01203Y00162*
X01229*
X01243Y00175*
X01269Y00241D02*
X01323D01*
X01296*
Y00162*
X01403Y00228D02*
X01389Y00241D01*
X01363*
X01349Y00228*
Y00215*
X01363Y00201*
X01389*
X01403Y00188*
Y00175*
X01389Y00162*
X01363*
X01349Y00175*
X01563Y00228D02*
X01549Y00241D01*
X01523*
X01509Y00228*
Y00215*
X01523Y00201*
X01549*
X01563Y00188*
Y00175*
X01549Y00162*
X01523*
X01509Y00175*
X01589Y00162D02*
Y00215D01*
X01616Y00241*
X01643Y00215*
Y00162*
Y00201*
X01589*
X01669Y00241D02*
X01723D01*
X01696*
Y00162*
X01829D02*
X01856D01*
X01843*
Y00241*
X01829Y00228*
X02016Y00241D02*
X01989D01*
X01976Y00228*
Y00175*
X01989Y00162*
X02016*
X02029Y00175*
Y00228*
X02016Y00241*
X02056D02*
Y00162D01*
X02096*
X02109Y00175*
Y00188*
X02096Y00201*
X02056*
X02096*
X02109Y00215*
Y00228*
X02096Y00241*
X02056*
X02189Y00228D02*
X02176Y00241D01*
X02149*
X02136Y00228*
Y00175*
X02149Y00162*
X02176*
X02189Y00175*
G54D19*
X03168Y0078D03*
G54D20*
X0369Y01797D03*
Y01837D03*
M02*