%FSTAX23Y23*%
%MOIN*%
%SFA1B1*%

%IPPOS*%
%ADD10C,0.010000*%
%ADD12C,0.007874*%
%ADD13C,0.006000*%
%ADD14C,0.005000*%
%ADD16C,0.008000*%
%LNocb_development_board-1*%
%LPD*%
G54D10*
X02091Y03055D02*
D01*
X02091Y03056*
X02091Y03057*
X02091Y03057*
X02091Y03058*
X02091Y03059*
X0209Y03059*
X0209Y0306*
X0209Y03061*
X02089Y03061*
X02089Y03062*
X02088Y03062*
X02088Y03063*
X02087Y03063*
X02087Y03064*
X02086Y03064*
X02085Y03064*
X02085Y03065*
X02084Y03065*
X02084Y03065*
X02083Y03065*
X02082Y03065*
X02081Y03065*
X02081*
X0208Y03065*
X02079Y03065*
X02079Y03065*
X02078Y03065*
X02077Y03065*
X02077Y03064*
X02076Y03064*
X02076Y03064*
X02075Y03063*
X02074Y03063*
X02074Y03062*
X02073Y03062*
X02073Y03061*
X02073Y03061*
X02072Y0306*
X02072Y03059*
X02072Y03059*
X02072Y03058*
X02071Y03057*
X02071Y03057*
X02071Y03056*
X02071Y03055*
X02071Y03055*
X02071Y03054*
X02071Y03053*
X02072Y03053*
X02072Y03052*
X02072Y03051*
X02072Y03051*
X02073Y0305*
X02073Y03049*
X02073Y03049*
X02074Y03048*
X02074Y03048*
X02075Y03047*
X02076Y03047*
X02076Y03047*
X02077Y03046*
X02077Y03046*
X02078Y03046*
X02079Y03046*
X02079Y03045*
X0208Y03045*
X02081Y03045*
X02081*
X02082Y03045*
X02083Y03045*
X02084Y03046*
X02084Y03046*
X02085Y03046*
X02085Y03046*
X02086Y03047*
X02087Y03047*
X02087Y03047*
X02088Y03048*
X02088Y03048*
X02089Y03049*
X02089Y03049*
X0209Y0305*
X0209Y03051*
X0209Y03051*
X02091Y03052*
X02091Y03053*
X02091Y03053*
X02091Y03054*
X02091Y03055*
X02091Y03055*
X01284Y00664D02*
Y00615D01*
X01274Y00605*
X01254*
X01244Y00615*
Y00664*
X01224Y00605D02*
X01205D01*
X01215*
Y00664*
X01224Y00654*
X01135Y00605D02*
X01175D01*
X01135Y00644*
Y00654*
X01145Y00664*
X01165*
X01175Y00654*
X03041Y00509D02*
Y0046D01*
X03031Y0045*
X03011*
X03001Y0046*
Y00509*
X02981Y0045D02*
X02962D01*
X02972*
Y00509*
X02981Y00499*
X02902Y0045D02*
Y00509D01*
X02932Y0048*
X02892*
X02045Y00975D02*
Y00925D01*
X02035Y00915*
X02015*
X02005Y00925*
Y00975*
X01946D02*
X01966Y00965D01*
X01986Y00945*
Y00925*
X01976Y00915*
X01956*
X01946Y00925*
Y00935*
X01956Y00945*
X01986*
X01565Y00975D02*
Y00925D01*
X01555Y00915*
X01535*
X01525Y00925*
Y00975*
X01466D02*
X01506D01*
Y00945*
X01486Y00955*
X01476*
X01466Y00945*
Y00925*
X01476Y00915*
X01496*
X01506Y00925*
X01927Y00253D02*
Y00204D01*
X01917Y00194*
X01897*
X01887Y00204*
Y00253*
X01838Y00194D02*
Y00253D01*
X01868Y00224*
X01828*
X01128Y00975D02*
Y00925D01*
X01118Y00915*
X01098*
X01088Y00925*
Y00975*
X01069Y00965D02*
X01059Y00975D01*
X01039*
X01029Y00965*
Y00955*
X01039Y00945*
X01049*
X01039*
X01029Y00935*
Y00925*
X01039Y00915*
X01059*
X01069Y00925*
X00661Y00975D02*
Y00925D01*
X00651Y00915*
X00631*
X00621Y00925*
Y00975*
X00562Y00915D02*
X00602D01*
X00562Y00955*
Y00965*
X00572Y00975*
X00592*
X00602Y00965*
G54D12*
X01303Y01449D02*
D01*
X01303Y01449*
X01303Y01449*
X01303Y01449*
X01303Y0145*
X01303Y0145*
X01302Y0145*
X01302Y0145*
X01302Y01451*
X01302Y01451*
X01302Y01451*
X01302Y01451*
X01302Y01452*
X01301Y01452*
X01301Y01452*
X01301Y01452*
X01301Y01452*
X013Y01452*
X013Y01452*
X013Y01452*
X013Y01453*
X01299Y01453*
X01299Y01453*
X01299*
X01298Y01453*
X01298Y01453*
X01298Y01452*
X01298Y01452*
X01297Y01452*
X01297Y01452*
X01297Y01452*
X01297Y01452*
X01296Y01452*
X01296Y01452*
X01296Y01451*
X01296Y01451*
X01296Y01451*
X01296Y01451*
X01295Y0145*
X01295Y0145*
X01295Y0145*
X01295Y0145*
X01295Y01449*
X01295Y01449*
X01295Y01449*
X01295Y01449*
X01295Y01448*
X01295Y01448*
X01295Y01448*
X01295Y01448*
X01295Y01447*
X01295Y01447*
X01295Y01447*
X01296Y01447*
X01296Y01446*
X01296Y01446*
X01296Y01446*
X01296Y01446*
X01296Y01446*
X01297Y01445*
X01297Y01445*
X01297Y01445*
X01297Y01445*
X01298Y01445*
X01298Y01445*
X01298Y01445*
X01298Y01445*
X01299Y01445*
X01299*
X01299Y01445*
X013Y01445*
X013Y01445*
X013Y01445*
X013Y01445*
X01301Y01445*
X01301Y01445*
X01301Y01445*
X01301Y01446*
X01302Y01446*
X01302Y01446*
X01302Y01446*
X01302Y01446*
X01302Y01447*
X01302Y01447*
X01302Y01447*
X01303Y01447*
X01303Y01448*
X01303Y01448*
X01303Y01448*
X01303Y01448*
X01303Y01449*
X00871D02*
D01*
X00871Y01449*
X00871Y01449*
X00871Y01449*
X00871Y0145*
X00871Y0145*
X0087Y0145*
X0087Y0145*
X0087Y01451*
X0087Y01451*
X0087Y01451*
X0087Y01451*
X0087Y01452*
X00869Y01452*
X00869Y01452*
X00869Y01452*
X00869Y01452*
X00868Y01452*
X00868Y01452*
X00868Y01452*
X00868Y01453*
X00867Y01453*
X00867Y01453*
X00867*
X00866Y01453*
X00866Y01453*
X00866Y01452*
X00866Y01452*
X00865Y01452*
X00865Y01452*
X00865Y01452*
X00865Y01452*
X00864Y01452*
X00864Y01452*
X00864Y01451*
X00864Y01451*
X00864Y01451*
X00864Y01451*
X00863Y0145*
X00863Y0145*
X00863Y0145*
X00863Y0145*
X00863Y01449*
X00863Y01449*
X00863Y01449*
X00863Y01449*
X00863Y01448*
X00863Y01448*
X00863Y01448*
X00863Y01448*
X00863Y01447*
X00863Y01447*
X00863Y01447*
X00864Y01447*
X00864Y01446*
X00864Y01446*
X00864Y01446*
X00864Y01446*
X00864Y01446*
X00865Y01445*
X00865Y01445*
X00865Y01445*
X00865Y01445*
X00866Y01445*
X00866Y01445*
X00866Y01445*
X00866Y01445*
X00867Y01445*
X00867*
X00867Y01445*
X00868Y01445*
X00868Y01445*
X00868Y01445*
X00868Y01445*
X00869Y01445*
X00869Y01445*
X00869Y01445*
X00869Y01446*
X0087Y01446*
X0087Y01446*
X0087Y01446*
X0087Y01446*
X0087Y01447*
X0087Y01447*
X0087Y01447*
X00871Y01447*
X00871Y01448*
X00871Y01448*
X00871Y01448*
X00871Y01448*
X00871Y01449*
X02649Y00591D02*
D01*
X02649Y00591*
X02649Y00591*
X02649Y00591*
X02649Y00592*
X02649Y00592*
X02649Y00592*
X02649Y00592*
X02649Y00593*
X02649Y00593*
X02649Y00593*
X02648Y00593*
X02648Y00593*
X02648Y00594*
X02648Y00594*
X02647Y00594*
X02647Y00594*
X02647Y00594*
X02647Y00594*
X02646Y00594*
X02646Y00594*
X02646Y00594*
X02646Y00594*
X02645*
X02645Y00594*
X02645Y00594*
X02645Y00594*
X02644Y00594*
X02644Y00594*
X02644Y00594*
X02644Y00594*
X02643Y00594*
X02643Y00594*
X02643Y00593*
X02643Y00593*
X02642Y00593*
X02642Y00593*
X02642Y00593*
X02642Y00592*
X02642Y00592*
X02642Y00592*
X02642Y00592*
X02642Y00591*
X02642Y00591*
X02642Y00591*
X02642Y00591*
X02642Y0059*
X02642Y0059*
X02642Y0059*
X02642Y00589*
X02642Y00589*
X02642Y00589*
X02642Y00589*
X02642Y00588*
X02642Y00588*
X02642Y00588*
X02643Y00588*
X02643Y00588*
X02643Y00587*
X02643Y00587*
X02644Y00587*
X02644Y00587*
X02644Y00587*
X02644Y00587*
X02645Y00587*
X02645Y00587*
X02645Y00587*
X02645Y00587*
X02646*
X02646Y00587*
X02646Y00587*
X02646Y00587*
X02647Y00587*
X02647Y00587*
X02647Y00587*
X02647Y00587*
X02648Y00587*
X02648Y00587*
X02648Y00588*
X02648Y00588*
X02649Y00588*
X02649Y00588*
X02649Y00588*
X02649Y00589*
X02649Y00589*
X02649Y00589*
X02649Y00589*
X02649Y0059*
X02649Y0059*
X02649Y0059*
X02649Y00591*
X0109Y00378D02*
D01*
X0109Y00378*
X0109Y00379*
X0109Y00379*
X0109Y00379*
X0109Y0038*
X0109Y0038*
X0109Y0038*
X0109Y0038*
X0109Y00381*
X01089Y00381*
X01089Y00381*
X01089Y00381*
X01089Y00381*
X01089Y00381*
X01088Y00382*
X01088Y00382*
X01088Y00382*
X01088Y00382*
X01087Y00382*
X01087Y00382*
X01087Y00382*
X01087Y00382*
X01086*
X01086Y00382*
X01086Y00382*
X01085Y00382*
X01085Y00382*
X01085Y00382*
X01085Y00382*
X01084Y00382*
X01084Y00381*
X01084Y00381*
X01084Y00381*
X01084Y00381*
X01083Y00381*
X01083Y00381*
X01083Y0038*
X01083Y0038*
X01083Y0038*
X01083Y0038*
X01083Y00379*
X01083Y00379*
X01082Y00379*
X01082Y00378*
X01082Y00378*
X01082Y00378*
X01082Y00378*
X01083Y00377*
X01083Y00377*
X01083Y00377*
X01083Y00377*
X01083Y00376*
X01083Y00376*
X01083Y00376*
X01083Y00376*
X01084Y00375*
X01084Y00375*
X01084Y00375*
X01084Y00375*
X01084Y00375*
X01085Y00375*
X01085Y00375*
X01085Y00374*
X01085Y00374*
X01086Y00374*
X01086Y00374*
X01086Y00374*
X01087*
X01087Y00374*
X01087Y00374*
X01087Y00374*
X01088Y00374*
X01088Y00375*
X01088Y00375*
X01088Y00375*
X01089Y00375*
X01089Y00375*
X01089Y00375*
X01089Y00375*
X01089Y00376*
X0109Y00376*
X0109Y00376*
X0109Y00376*
X0109Y00377*
X0109Y00377*
X0109Y00377*
X0109Y00377*
X0109Y00378*
X0109Y00378*
X0109Y00378*
X01745Y01449D02*
D01*
X01745Y01449*
X01745Y01449*
X01745Y01449*
X01745Y0145*
X01745Y0145*
X01744Y0145*
X01744Y0145*
X01744Y01451*
X01744Y01451*
X01744Y01451*
X01744Y01451*
X01744Y01452*
X01743Y01452*
X01743Y01452*
X01743Y01452*
X01743Y01452*
X01742Y01452*
X01742Y01452*
X01742Y01452*
X01742Y01453*
X01741Y01453*
X01741Y01453*
X01741*
X0174Y01453*
X0174Y01453*
X0174Y01452*
X0174Y01452*
X01739Y01452*
X01739Y01452*
X01739Y01452*
X01739Y01452*
X01738Y01452*
X01738Y01452*
X01738Y01451*
X01738Y01451*
X01738Y01451*
X01738Y01451*
X01737Y0145*
X01737Y0145*
X01737Y0145*
X01737Y0145*
X01737Y01449*
X01737Y01449*
X01737Y01449*
X01737Y01449*
X01737Y01448*
X01737Y01448*
X01737Y01448*
X01737Y01448*
X01737Y01447*
X01737Y01447*
X01737Y01447*
X01738Y01447*
X01738Y01446*
X01738Y01446*
X01738Y01446*
X01738Y01446*
X01738Y01446*
X01739Y01445*
X01739Y01445*
X01739Y01445*
X01739Y01445*
X0174Y01445*
X0174Y01445*
X0174Y01445*
X0174Y01445*
X01741Y01445*
X01741*
X01741Y01445*
X01742Y01445*
X01742Y01445*
X01742Y01445*
X01742Y01445*
X01743Y01445*
X01743Y01445*
X01743Y01445*
X01743Y01446*
X01744Y01446*
X01744Y01446*
X01744Y01446*
X01744Y01446*
X01744Y01447*
X01744Y01447*
X01744Y01447*
X01745Y01447*
X01745Y01448*
X01745Y01448*
X01745Y01448*
X01745Y01448*
X01745Y01449*
X02003Y00516D02*
D01*
X02003Y00516*
X02003Y00516*
X02003Y00516*
X02002Y00517*
X02002Y00517*
X02002Y00517*
X02002Y00517*
X02002Y00518*
X02002Y00518*
X02002Y00518*
X02002Y00518*
X02001Y00519*
X02001Y00519*
X02001Y00519*
X02001Y00519*
X02Y00519*
X02Y00519*
X02Y00519*
X02Y00519*
X01999Y00519*
X01999Y0052*
X01999Y0052*
X01999*
X01998Y0052*
X01998Y00519*
X01998Y00519*
X01997Y00519*
X01997Y00519*
X01997Y00519*
X01997Y00519*
X01996Y00519*
X01996Y00519*
X01996Y00519*
X01996Y00518*
X01996Y00518*
X01995Y00518*
X01995Y00518*
X01995Y00517*
X01995Y00517*
X01995Y00517*
X01995Y00517*
X01995Y00516*
X01995Y00516*
X01995Y00516*
X01995Y00516*
X01995Y00515*
X01995Y00515*
X01995Y00515*
X01995Y00515*
X01995Y00514*
X01995Y00514*
X01995Y00514*
X01995Y00514*
X01995Y00513*
X01996Y00513*
X01996Y00513*
X01996Y00513*
X01996Y00513*
X01996Y00512*
X01997Y00512*
X01997Y00512*
X01997Y00512*
X01997Y00512*
X01998Y00512*
X01998Y00512*
X01998Y00512*
X01999Y00512*
X01999*
X01999Y00512*
X01999Y00512*
X02Y00512*
X02Y00512*
X02Y00512*
X02Y00512*
X02001Y00512*
X02001Y00512*
X02001Y00513*
X02001Y00513*
X02002Y00513*
X02002Y00513*
X02002Y00513*
X02002Y00514*
X02002Y00514*
X02002Y00514*
X02002Y00514*
X02002Y00515*
X02003Y00515*
X02003Y00515*
X02003Y00515*
X02003Y00516*
X00442Y01449D02*
D01*
X00442Y01449*
X00442Y01449*
X00442Y01449*
X00442Y0145*
X00442Y0145*
X00441Y0145*
X00441Y0145*
X00441Y01451*
X00441Y01451*
X00441Y01451*
X00441Y01451*
X00441Y01452*
X0044Y01452*
X0044Y01452*
X0044Y01452*
X0044Y01452*
X00439Y01452*
X00439Y01452*
X00439Y01452*
X00439Y01453*
X00438Y01453*
X00438Y01453*
X00438*
X00437Y01453*
X00437Y01453*
X00437Y01452*
X00437Y01452*
X00436Y01452*
X00436Y01452*
X00436Y01452*
X00436Y01452*
X00435Y01452*
X00435Y01452*
X00435Y01451*
X00435Y01451*
X00435Y01451*
X00435Y01451*
X00434Y0145*
X00434Y0145*
X00434Y0145*
X00434Y0145*
X00434Y01449*
X00434Y01449*
X00434Y01449*
X00434Y01449*
X00434Y01448*
X00434Y01448*
X00434Y01448*
X00434Y01448*
X00434Y01447*
X00434Y01447*
X00434Y01447*
X00435Y01447*
X00435Y01446*
X00435Y01446*
X00435Y01446*
X00435Y01446*
X00435Y01446*
X00436Y01445*
X00436Y01445*
X00436Y01445*
X00436Y01445*
X00437Y01445*
X00437Y01445*
X00437Y01445*
X00437Y01445*
X00438Y01445*
X00438*
X00438Y01445*
X00439Y01445*
X00439Y01445*
X00439Y01445*
X00439Y01445*
X0044Y01445*
X0044Y01445*
X0044Y01445*
X0044Y01446*
X00441Y01446*
X00441Y01446*
X00441Y01446*
X00441Y01446*
X00441Y01447*
X00441Y01447*
X00441Y01447*
X00442Y01447*
X00442Y01448*
X00442Y01448*
X00442Y01448*
X00442Y01448*
X00442Y01449*
X01309Y01126D02*
Y01394D01*
X01714Y01126D02*
Y01394D01*
X00877Y01126D02*
Y01394D01*
X01282Y01126D02*
Y01394D01*
X0112Y0039D02*
X0129D01*
X0112Y0058D02*
X0129D01*
X02156Y01126D02*
Y01394D01*
X01751Y01126D02*
Y01394D01*
X00853Y01126D02*
Y01394D01*
X00448Y01126D02*
Y01394D01*
X00808Y00473D02*
X00853D01*
X00808D02*
Y00554D01*
X00853*
Y00473D02*
Y00554D01*
X00872D02*
X00917D01*
Y00473D02*
Y00554D01*
X00872Y00473D02*
X00917D01*
X00872D02*
Y00554D01*
X00812Y00413D02*
X00857D01*
Y00333D02*
Y00413D01*
X00812Y00333D02*
X00857D01*
X00812D02*
Y00413D01*
X00872Y00333D02*
X00917D01*
X00872D02*
Y00413D01*
X00917*
Y00333D02*
Y00413D01*
X02972Y00217D02*
Y00262D01*
X02891Y00217D02*
X02972D01*
X02891D02*
Y00262D01*
X02972*
Y00282D02*
Y00327D01*
X02891Y00282D02*
X02972D01*
X02891D02*
Y00327D01*
X02972*
X02787Y00087D02*
Y00132D01*
X02706Y00087D02*
X02787D01*
X02706D02*
Y00132D01*
X02787*
X02809Y00087D02*
Y00132D01*
X0289*
Y00087D02*
Y00132D01*
X02809Y00087D02*
X0289D01*
X01974Y01528D02*
Y01573D01*
X02055*
Y01528D02*
Y01573D01*
X01974Y01528D02*
X02055D01*
X02136D02*
Y01573D01*
X02055Y01528D02*
X02136D01*
X02055D02*
Y01573D01*
X02136*
X0153Y01528D02*
Y01573D01*
X01611*
Y01528D02*
Y01573D01*
X0153Y01528D02*
X01611D01*
X01692D02*
Y01573D01*
X01611Y01528D02*
X01692D01*
X01611D02*
Y01573D01*
X01692*
X02017Y00626D02*
X02062D01*
Y00545D02*
Y00626D01*
X02017Y00545D02*
X02062D01*
X02017D02*
Y00626D01*
X02148Y00423D02*
Y00468D01*
X02067Y00423D02*
X02148D01*
X02067D02*
Y00468D01*
X02148*
Y003D02*
Y00345D01*
X02067Y003D02*
X02148D01*
X02067D02*
Y00345D01*
X02148*
X01098Y01528D02*
Y01573D01*
X01179*
Y01528D02*
Y01573D01*
X01098Y01528D02*
X01179D01*
X0067D02*
Y01573D01*
X00751*
Y01528D02*
Y01573D01*
X0067Y01528D02*
X00751D01*
X0126D02*
Y01573D01*
X01179Y01528D02*
X0126D01*
X01179D02*
Y01573D01*
X0126*
X00832Y01528D02*
Y01573D01*
X00751Y01528D02*
X00832D01*
X00751D02*
Y01573D01*
X00832*
X01372Y02012D02*
Y02057D01*
X01453*
Y02012D02*
Y02057D01*
X01372Y02012D02*
X01453D01*
X02148Y00362D02*
Y00407D01*
X02067Y00362D02*
X02148D01*
X02067D02*
Y00407D01*
X02148*
Y00485D02*
Y0053D01*
X02067Y00485D02*
X02148D01*
X02067D02*
Y0053D01*
X02148*
X01957Y00626D02*
X02002D01*
Y00545D02*
Y00626D01*
X01957Y00545D02*
X02002D01*
X01957D02*
Y00626D01*
X02978Y00367D02*
Y00412D01*
X02897Y00367D02*
X02978D01*
X02897D02*
Y00412D01*
X02978*
X02811Y00147D02*
Y00192D01*
X02892*
Y00147D02*
Y00192D01*
X02811Y00147D02*
X02892D01*
X02764Y00152D02*
Y00262D01*
X02705Y00152D02*
X02764D01*
X02705D02*
Y00262D01*
X02764*
X02728Y00679D02*
Y0079D01*
X02787*
Y00679D02*
Y0079D01*
X02728Y00679D02*
X02787D01*
X0137Y00279D02*
Y0039D01*
X01429*
Y00279D02*
Y0039D01*
X0137Y00279D02*
X01429D01*
X01002Y0043D02*
X01047D01*
Y00349D02*
Y0043D01*
X01002Y00349D02*
X01047D01*
X01002D02*
Y0043D01*
X0185Y01528D02*
Y01573D01*
X01769Y01528D02*
X0185D01*
X01769D02*
Y01573D01*
X0185*
X01405Y01528D02*
Y01573D01*
X01324Y01528D02*
X01405D01*
X01324D02*
Y01573D01*
X01405*
X01836Y00525D02*
Y0057D01*
X01917*
Y00525D02*
Y0057D01*
X01836Y00525D02*
X01917D01*
X00973Y01528D02*
Y01573D01*
X00892Y01528D02*
X00973D01*
X00892D02*
Y01573D01*
X00973*
X005Y01528D02*
Y01573D01*
X00581*
Y01528D02*
Y01573D01*
X005Y01528D02*
X00581D01*
X01453Y01952D02*
Y01997D01*
X01372Y01952D02*
X01453D01*
X01372D02*
Y01997D01*
X01453*
X01302Y00383D02*
X01347D01*
Y00302D02*
Y00383D01*
X01302Y00302D02*
X01347D01*
X01302D02*
Y00383D01*
G54D13*
X01873Y00496D02*
D01*
X01873Y00495*
X01873Y00494*
X01873Y00493*
X01873Y00492*
X01873Y00491*
X01874Y00491*
X01874Y0049*
X01874Y00489*
X01875Y00488*
X01875Y00488*
X01876Y00487*
X01876Y00487*
X01877Y00486*
X01878Y00486*
X01879Y00485*
X01879Y00485*
X0188Y00484*
X01881Y00484*
X01882Y00484*
X01882Y00484*
X01883Y00484*
X01884Y00484*
X01885*
X01886Y00484*
X01887Y00484*
X01887Y00484*
X01888Y00484*
X01889Y00484*
X0189Y00485*
X01891Y00485*
X01891Y00486*
X01892Y00486*
X01893Y00487*
X01893Y00487*
X01894Y00488*
X01894Y00488*
X01895Y00489*
X01895Y0049*
X01895Y00491*
X01896Y00491*
X01896Y00492*
X01896Y00493*
X01896Y00494*
X01896Y00495*
X01897Y00496*
X02664Y00393D02*
Y00556D01*
X02875Y00393D02*
Y00556D01*
X01814Y003D02*
X01956D01*
X01814Y00496D02*
X01873D01*
X01897*
X01956*
G54D14*
X02397Y00541D02*
X02543D01*
X02397Y00408D02*
X02543D01*
G54D16*
X01527Y00334D02*
X01534Y0034D01*
X01547*
X01554Y00334*
Y00307*
X01547Y00301*
X01534*
X01527Y00307*
X01514Y00334D02*
X01507Y0034D01*
X01494*
X01487Y00334*
Y00327*
X01494Y00321*
X01501*
X01494*
X01487Y00314*
Y00307*
X01494Y00301*
X01507*
X01514Y00307*
X01454Y00301D02*
Y0034D01*
X01474Y00321*
X01447*
X01084Y00306D02*
X01091Y00312D01*
X01104*
X01111Y00306*
Y00279*
X01104Y00273*
X01091*
X01084Y00279*
X01071Y00306D02*
X01064Y00312D01*
X01051*
X01044Y00306*
Y00299*
X01051Y00293*
X01058*
X01051*
X01044Y00286*
Y00279*
X01051Y00273*
X01064*
X01071Y00279*
X01031Y00306D02*
X01024Y00312D01*
X01011*
X01004Y00306*
Y00299*
X01011Y00293*
X01018*
X01011*
X01004Y00286*
Y00279*
X01011Y00273*
X01024*
X01031Y00279*
X01301Y00259D02*
X01307Y00265D01*
X01321*
X01327Y00259*
Y00232*
X01321Y00226*
X01307*
X01301Y00232*
X01287Y00226D02*
X01274D01*
X01281*
Y00265*
X01287Y00259*
X01228Y00226D02*
X01254D01*
X01228Y00252*
Y00259*
X01234Y00265*
X01248*
X01254Y00259*
X00802Y00607D02*
X00841D01*
Y00627*
X00835Y00633*
X00822*
X00815Y00627*
Y00607*
Y0062D02*
X00802Y00633D01*
Y00647D02*
Y0066D01*
Y00653*
X00841*
X00835Y00647*
X00841Y00706D02*
Y0068D01*
X00822*
X00828Y00693*
Y007*
X00822Y00706*
X00808*
X00802Y007*
Y00686*
X00808Y0068*
X00835Y0072D02*
X00841Y00726D01*
Y0074*
X00835Y00746*
X00808*
X00802Y0074*
Y00726*
X00808Y0072*
X00835*
X00878Y00607D02*
X00917D01*
Y00627*
X00911Y00633*
X00898*
X00891Y00627*
Y00607*
Y0062D02*
X00878Y00633D01*
Y00647D02*
Y0066D01*
Y00653*
X00917*
X00911Y00647*
X00878Y007D02*
X00917D01*
X00898Y0068*
Y00706*
X00911Y0072D02*
X00917Y00726D01*
Y0074*
X00911Y00746*
X00904*
X00898Y0074*
X00891Y00746*
X00884*
X00878Y0074*
Y00726*
X00884Y0072*
X00891*
X00898Y00726*
X00904Y0072*
X00911*
X00898Y00726D02*
Y0074D01*
X00823Y00144D02*
X00862D01*
Y00164*
X00856Y0017*
X00843*
X00836Y00164*
Y00144*
Y00157D02*
X00823Y0017D01*
Y00184D02*
Y00197D01*
Y0019*
X00862*
X00856Y00184*
X00823Y00237D02*
X00862D01*
X00843Y00217*
Y00243*
X00862Y00257D02*
Y00283D01*
X00856*
X00829Y00257*
X00823*
X0088Y00145D02*
X00919D01*
Y00165*
X00913Y00171*
X009*
X00893Y00165*
Y00145*
Y00158D02*
X0088Y00171D01*
Y00185D02*
Y00198D01*
Y00191*
X00919*
X00913Y00185*
X0088Y00238D02*
X00919D01*
X009Y00218*
Y00244*
X00919Y00284D02*
Y00258D01*
X009*
X00906Y00271*
Y00278*
X009Y00284*
X00886*
X0088Y00278*
Y00264*
X00886Y00258*
X02536Y00572D02*
Y00611D01*
X02516*
X0251Y00605*
Y00592*
X02516Y00585*
X02536*
X02523D02*
X0251Y00572D01*
X02496D02*
X02483D01*
X0249*
Y00611*
X02496Y00605*
X02443Y00572D02*
Y00611D01*
X02463Y00592*
X02437*
X02397Y00572D02*
X02423D01*
X02397Y00598*
Y00605*
X02403Y00611*
X02417*
X02423Y00605*
X03128Y00219D02*
Y00258D01*
X03108*
X03101Y00252*
Y00239*
X03108Y00232*
X03128*
X03114D02*
X03101Y00219D01*
X03088D02*
X03074D01*
X03081*
Y00258*
X03088Y00252*
X03035Y00219D02*
Y00258D01*
X03055Y00239*
X03028*
X03015Y00219D02*
X03001D01*
X03008*
Y00258*
X03015Y00252*
X03141Y00284D02*
Y00323D01*
X03121*
X03115Y00317*
Y00304*
X03121Y00297*
X03141*
X03128D02*
X03115Y00284D01*
X03101D02*
X03088D01*
X03095*
Y00323*
X03101Y00317*
X03048Y00284D02*
Y00323D01*
X03068Y00304*
X03042*
X03028Y00317D02*
X03022Y00323D01*
X03008*
X03002Y00317*
Y0029*
X03008Y00284*
X03022*
X03028Y0029*
Y00317*
X02679Y00085D02*
Y00124D01*
X02659*
X02653Y00118*
Y00105*
X02659Y00098*
X02679*
X02666D02*
X02653Y00085D01*
X02639D02*
X02626D01*
X02633*
Y00124*
X02639Y00118*
X02606D02*
X026Y00124D01*
X02586*
X0258Y00118*
Y00111*
X02586Y00105*
X02593*
X02586*
X0258Y00098*
Y00091*
X02586Y00085*
X026*
X02606Y00091*
X02566D02*
X0256Y00085D01*
X02546*
X0254Y00091*
Y00118*
X02546Y00124*
X0256*
X02566Y00118*
Y00111*
X0256Y00105*
X0254*
X02964Y0003D02*
Y00069D01*
X02944*
X02938Y00063*
Y0005*
X02944Y00043*
X02964*
X02951D02*
X02938Y0003D01*
X02924D02*
X02911D01*
X02918*
Y00069*
X02924Y00063*
X02891D02*
X02885Y00069D01*
X02871*
X02865Y00063*
Y00056*
X02871Y0005*
X02878*
X02871*
X02865Y00043*
Y00036*
X02871Y0003*
X02885*
X02891Y00036*
X02851Y00063D02*
X02845Y00069D01*
X02831*
X02825Y00063*
Y00056*
X02831Y0005*
X02825Y00043*
Y00036*
X02831Y0003*
X02845*
X02851Y00036*
Y00043*
X02845Y0005*
X02851Y00056*
Y00063*
X02845Y0005D02*
X02831D01*
X01973Y01593D02*
X02013D01*
Y01613*
X02006Y01619*
X01993*
X01986Y01613*
Y01593*
Y01606D02*
X01973Y01619D01*
Y01633D02*
Y01646D01*
Y01639*
X02013*
X02006Y01633*
X01973Y01692D02*
Y01666D01*
X01999Y01692*
X02006*
X02013Y01686*
Y01672*
X02006Y01666*
X02013Y01706D02*
Y01732D01*
X02006*
X01979Y01706*
X01973*
X02052Y01596D02*
X02091D01*
Y01616*
X02085Y01622*
X02072*
X02065Y01616*
Y01596*
Y01609D02*
X02052Y01622D01*
Y01636D02*
Y01649D01*
Y01642*
X02091*
X02085Y01636*
X02052Y01695D02*
Y01669D01*
X02078Y01695*
X02085*
X02091Y01689*
Y01675*
X02085Y01669*
X02091Y01735D02*
X02085Y01722D01*
X02072Y01709*
X02058*
X02052Y01715*
Y01729*
X02058Y01735*
X02065*
X02072Y01729*
Y01709*
X01522Y01595D02*
X01561D01*
Y01615*
X01555Y01621*
X01542*
X01535Y01615*
Y01595*
Y01608D02*
X01522Y01621D01*
Y01635D02*
Y01648D01*
Y01641*
X01561*
X01555Y01635*
X01522Y01694D02*
Y01668D01*
X01548Y01694*
X01555*
X01561Y01688*
Y01674*
X01555Y01668*
X01561Y01734D02*
Y01708D01*
X01542*
X01548Y01721*
Y01728*
X01542Y01734*
X01528*
X01522Y01728*
Y01714*
X01528Y01708*
X0167Y0161D02*
X01709D01*
Y0163*
X01703Y01636*
X0169*
X01683Y0163*
Y0161*
Y01623D02*
X0167Y01636D01*
Y0165D02*
Y01663D01*
Y01656*
X01709*
X01703Y0165*
X0167Y01709D02*
Y01683D01*
X01696Y01709*
X01703*
X01709Y01703*
Y01689*
X01703Y01683*
X0167Y01743D02*
X01709D01*
X0169Y01723*
Y01749*
X02017Y00652D02*
X02056D01*
Y00672*
X0205Y00678*
X02037*
X0203Y00672*
Y00652*
Y00665D02*
X02017Y00678D01*
Y00692D02*
Y00705D01*
Y00698*
X02056*
X0205Y00692*
X02017Y00751D02*
Y00725D01*
X02043Y00751*
X0205*
X02056Y00745*
Y00731*
X0205Y00725*
Y00765D02*
X02056Y00771D01*
Y00785*
X0205Y00791*
X02043*
X02037Y00785*
Y00778*
Y00785*
X0203Y00791*
X02023*
X02017Y00785*
Y00771*
X02023Y00765*
X02314Y00426D02*
Y00466D01*
X02294*
X02288Y00459*
Y00446*
X02294Y00439*
X02314*
X02301D02*
X02288Y00426D01*
X02274D02*
X02261D01*
X02268*
Y00466*
X02274Y00459*
X02215Y00426D02*
X02241D01*
X02215Y00452*
Y00459*
X02221Y00466*
X02235*
X02241Y00459*
X02175Y00426D02*
X02201D01*
X02175Y00452*
Y00459*
X02181Y00466*
X02195*
X02201Y00459*
X02303Y00303D02*
Y00342D01*
X02283*
X02276Y00336*
Y00323*
X02283Y00316*
X02303*
X02289D02*
X02276Y00303D01*
X02263D02*
X02249D01*
X02256*
Y00342*
X02263Y00336*
X02203Y00303D02*
X0223D01*
X02203Y00329*
Y00336*
X0221Y00342*
X02223*
X0223Y00336*
X0219Y00303D02*
X02176D01*
X02183*
Y00342*
X0219Y00336*
X01124Y0159D02*
X01163D01*
Y0161*
X01157Y01616*
X01144*
X01137Y0161*
Y0159*
Y01603D02*
X01124Y01616D01*
Y0163D02*
Y01643D01*
Y01636*
X01163*
X01157Y0163*
X01124Y01689D02*
Y01663D01*
X0115Y01689*
X01157*
X01163Y01683*
Y01669*
X01157Y01663*
Y01703D02*
X01163Y01709D01*
Y01723*
X01157Y01729*
X0113*
X01124Y01723*
Y01709*
X0113Y01703*
X01157*
X0069Y01594D02*
X00729D01*
Y01614*
X00723Y01621*
X0071*
X00703Y01614*
Y01594*
Y01607D02*
X0069Y01621D01*
Y01634D02*
Y01647D01*
Y01641*
X00729*
X00723Y01634*
X0069Y01667D02*
Y0168D01*
Y01674*
X00729*
X00723Y01667*
X00696Y017D02*
X0069Y01707D01*
Y0172*
X00696Y01727*
X00723*
X00729Y0172*
Y01707*
X00723Y017*
X00716*
X0071Y01707*
Y01727*
X01209Y01591D02*
X01248D01*
Y01611*
X01242Y01618*
X01229*
X01222Y01611*
Y01591*
Y01604D02*
X01209Y01618D01*
Y01631D02*
Y01644D01*
Y01638*
X01248*
X01242Y01631*
X01209Y01664D02*
Y01677D01*
Y01671*
X01248*
X01242Y01664*
Y01697D02*
X01248Y01704D01*
Y01717*
X01242Y01724*
X01235*
X01229Y01717*
X01222Y01724*
X01215*
X01209Y01717*
Y01704*
X01215Y01697*
X01222*
X01229Y01704*
X01235Y01697*
X01242*
X01229Y01704D02*
Y01717D01*
X00787Y01591D02*
X00826D01*
Y01611*
X0082Y01618*
X00807*
X008Y01611*
Y01591*
Y01604D02*
X00787Y01618D01*
Y01631D02*
Y01644D01*
Y01638*
X00826*
X0082Y01631*
X00787Y01664D02*
Y01677D01*
Y01671*
X00826*
X0082Y01664*
X00826Y01697D02*
Y01724D01*
X0082*
X00793Y01697*
X00787*
X01344Y02018D02*
Y02057D01*
X01324*
X01317Y02051*
Y02038*
X01324Y02031*
X01344*
X0133D02*
X01317Y02018D01*
X01284D02*
Y02057D01*
X01304Y02038*
X01277*
X01264Y02051D02*
X01257Y02057D01*
X01244*
X01237Y02051*
Y02024*
X01244Y02018*
X01257*
X01264Y02024*
Y02051*
X02283Y00368D02*
Y00407D01*
X02263*
X02256Y00401*
Y00388*
X02263Y00381*
X02283*
X02269D02*
X02256Y00368D01*
X02216D02*
X02243D01*
X02216Y00394*
Y00401*
X02223Y00407*
X02236*
X02243Y00401*
X02203D02*
X02196Y00407D01*
X02183*
X02176Y00401*
Y00394*
X02183Y00388*
X02176Y00381*
Y00374*
X02183Y00368*
X02196*
X02203Y00374*
Y00381*
X02196Y00388*
X02203Y00394*
Y00401*
X02196Y00388D02*
X02183D01*
X02273Y00493D02*
Y00532D01*
X02253*
X02246Y00526*
Y00513*
X02253Y00506*
X02273*
X02259D02*
X02246Y00493D01*
X02206D02*
X02233D01*
X02206Y00519*
Y00526*
X02213Y00532*
X02226*
X02233Y00526*
X02193Y00532D02*
X02166D01*
Y00526*
X02193Y00499*
Y00493*
X01953Y00653D02*
X01992D01*
Y00673*
X01986Y0068*
X01973*
X01966Y00673*
Y00653*
Y00667D02*
X01953Y0068D01*
Y0072D02*
Y00693D01*
X01979Y0072*
X01986*
X01992Y00713*
Y007*
X01986Y00693*
X01992Y0076D02*
X01986Y00746D01*
X01973Y00733*
X01959*
X01953Y0074*
Y00753*
X01959Y0076*
X01966*
X01973Y00753*
Y00733*
X03084Y00402D02*
X03091Y00408D01*
X03104*
X03111Y00402*
Y00375*
X03104Y00369*
X03091*
X03084Y00375*
X03051Y00369D02*
Y00408D01*
X03071Y00389*
X03044*
X03004Y00369D02*
X03031D01*
X03004Y00395*
Y00402*
X03011Y00408*
X03024*
X03031Y00402*
X03009Y00183D02*
X03016Y00189D01*
X03029*
X03036Y00183*
Y00156*
X03029Y0015*
X03016*
X03009Y00156*
X02976Y0015D02*
Y00189D01*
X02996Y0017*
X0297*
X02956Y0015D02*
X02943D01*
X0295*
Y00189*
X02956Y00183*
X02658Y00247D02*
X02665Y00253D01*
X02678*
X02685Y00247*
Y0022*
X02678Y00214*
X02665*
X02658Y0022*
X02625Y00214D02*
Y00253D01*
X02645Y00234*
X02618*
X02605Y00247D02*
X02598Y00253D01*
X02585*
X02578Y00247*
Y0022*
X02585Y00214*
X02598*
X02605Y0022*
Y00247*
X02684Y0073D02*
X02691Y00736D01*
X02704*
X02711Y0073*
Y00703*
X02704Y00697*
X02691*
X02684Y00703*
X02671Y0073D02*
X02664Y00736D01*
X02651*
X02644Y0073*
Y00723*
X02651Y00717*
X02658*
X02651*
X02644Y0071*
Y00703*
X02651Y00697*
X02664*
X02671Y00703*
X02631D02*
X02624Y00697D01*
X02611*
X02604Y00703*
Y0073*
X02611Y00736*
X02624*
X02631Y0073*
Y00723*
X02624Y00717*
X02604*
X01854Y01621D02*
X01861Y01614D01*
Y01601*
X01854Y01594*
X01827*
X01821Y01601*
Y01614*
X01827Y01621*
X01821Y01661D02*
Y01634D01*
X01847Y01661*
X01854*
X01861Y01654*
Y01641*
X01854Y01634*
X01861Y01701D02*
X01854Y01687D01*
X01841Y01674*
X01827*
X01821Y01681*
Y01694*
X01827Y01701*
X01834*
X01841Y01694*
Y01674*
X01391Y0161D02*
X01397Y01603D01*
Y0159*
X01391Y01583*
X01364*
X01358Y0159*
Y01603*
X01364Y0161*
X01358Y0165D02*
Y01623D01*
X01384Y0165*
X01391*
X01397Y01643*
Y0163*
X01391Y01623*
X01397Y0169D02*
Y01663D01*
X01378*
X01384Y01676*
Y01683*
X01378Y0169*
X01364*
X01358Y01683*
Y0167*
X01364Y01663*
X01864Y00631D02*
X01871Y00637D01*
X01884*
X01891Y00631*
Y00604*
X01884Y00598*
X01871*
X01864Y00604*
X01824Y00598D02*
X01851D01*
X01824Y00624*
Y00631*
X01831Y00637*
X01844*
X01851Y00631*
X01791Y00598D02*
Y00637D01*
X01811Y00618*
X01784*
X0095Y01609D02*
X00956Y01602D01*
Y01589*
X0095Y01582*
X00923*
X00917Y01589*
Y01602*
X00923Y01609*
X00917Y01649D02*
Y01622D01*
X00943Y01649*
X0095*
X00956Y01642*
Y01629*
X0095Y01622*
Y01662D02*
X00956Y01669D01*
Y01682*
X0095Y01689*
X00943*
X00937Y01682*
Y01675*
Y01682*
X0093Y01689*
X00923*
X00917Y01682*
Y01669*
X00923Y01662*
X00557Y01627D02*
X00564Y01633D01*
X00577*
X00584Y01627*
Y016*
X00577Y01594*
X00564*
X00557Y016*
X00517Y01594D02*
X00544D01*
X00517Y0162*
Y01627*
X00524Y01633*
X00537*
X00544Y01627*
X00477Y01594D02*
X00504D01*
X00477Y0162*
Y01627*
X00484Y01633*
X00497*
X00504Y01627*
X01315Y01987D02*
X01321Y01993D01*
X01335*
X01341Y01987*
Y0196*
X01335Y01954*
X01321*
X01315Y0196*
X01301Y01954D02*
X01288D01*
X01295*
Y01993*
X01301Y01987*
X01268Y0196D02*
X01262Y01954D01*
X01248*
X01242Y0196*
Y01987*
X01248Y01993*
X01262*
X01268Y01987*
Y0198*
X01262Y01974*
X01242*
M02*