%FSTAX23Y23*%
%MOIN*%
%SFA1B1*%

%IPPOS*%
%AMD28*
4,1,8,-0.010400,0.036400,-0.010400,-0.036400,-0.007800,-0.039000,0.007800,-0.039000,0.010400,-0.036400,0.010400,0.036400,0.007800,0.039000,-0.007800,0.039000,-0.010400,0.036400,0.0*
1,1,0.005220,-0.007800,0.036400*
1,1,0.005220,-0.007800,-0.036400*
1,1,0.005220,0.007800,-0.036400*
1,1,0.005220,0.007800,0.036400*
%
%AMD30*
4,1,8,0.035800,0.011800,-0.035800,0.011800,-0.038800,0.008900,-0.038800,-0.008900,-0.035800,-0.011800,0.035800,-0.011800,0.038800,-0.008900,0.038800,0.008900,0.035800,0.011800,0.0*
1,1,0.005906,0.035800,0.008900*
1,1,0.005906,-0.035800,0.008900*
1,1,0.005906,-0.035800,-0.008900*
1,1,0.005906,0.035800,-0.008900*
%
%ADD21C,0.045079*%
%ADD22R,0.021654X0.021654*%
%ADD23R,0.021654X0.021654*%
%ADD24R,0.053150X0.013780*%
%ADD25R,0.013780X0.053150*%
%ADD26R,0.017716X0.051181*%
%ADD27R,0.059055X0.066929*%
G04~CAMADD=28~8~0.0~0.0~779.5~208.7~26.1~0.0~15~0.0~0.0~0.0~0.0~0~0.0~0.0~0.0~0.0~0~0.0~0.0~0.0~90.0~210.0~779.0*
%ADD28D28*%
%ADD29R,0.055118X0.013780*%
G04~CAMADD=30~8~0.0~0.0~775.6~236.2~29.5~0.0~15~0.0~0.0~0.0~0.0~0~0.0~0.0~0.0~0.0~0~0.0~0.0~0.0~0.0~775.6~236.2*
%ADD30D30*%
%ADD31R,0.057500X0.021000*%
%ADD32R,0.013780X0.055118*%
%ADD33R,0.023622X0.118110*%
%ADD34R,0.118110X0.023622*%
%ADD35R,0.149606X0.040157*%
%ADD36R,0.050000X0.144882*%
%ADD37R,0.144882X0.050000*%
%ADD38R,0.031496X0.031496*%
%ADD39R,0.031496X0.031496*%
%ADD40R,0.035433X0.031496*%
%ADD41R,0.055118X0.070866*%
%ADD42R,0.031496X0.035433*%
%ADD43R,0.070866X0.055118*%
%LNocb_development_board-1*%
%LPD*%
G54D21*
X00322Y01574D02*
D01*
X00322Y01576*
X00322Y01578*
X00322Y01579*
X00321Y01581*
X00321Y01582*
X0032Y01584*
X0032Y01585*
X00319Y01586*
X00318Y01588*
X00317Y01589*
X00316Y0159*
X00315Y01591*
X00314Y01592*
X00312Y01593*
X00311Y01594*
X0031Y01595*
X00308Y01595*
X00307Y01596*
X00305Y01596*
X00304Y01597*
X00302Y01597*
X003Y01597*
X00299*
X00297Y01597*
X00296Y01597*
X00294Y01596*
X00293Y01596*
X00291Y01595*
X0029Y01595*
X00288Y01594*
X00287Y01593*
X00286Y01592*
X00285Y01591*
X00283Y0159*
X00282Y01589*
X00281Y01588*
X00281Y01586*
X0028Y01585*
X00279Y01584*
X00279Y01582*
X00278Y01581*
X00278Y01579*
X00277Y01578*
X00277Y01576*
X00277Y01574*
X00277Y01573*
X00277Y01571*
X00278Y0157*
X00278Y01568*
X00279Y01567*
X00279Y01565*
X0028Y01564*
X00281Y01562*
X00281Y01561*
X00282Y0156*
X00283Y01559*
X00285Y01558*
X00286Y01557*
X00287Y01556*
X00288Y01555*
X0029Y01554*
X00291Y01554*
X00293Y01553*
X00294Y01553*
X00296Y01552*
X00297Y01552*
X00299Y01552*
X003*
X00302Y01552*
X00304Y01552*
X00305Y01553*
X00307Y01553*
X00308Y01554*
X0031Y01554*
X00311Y01555*
X00312Y01556*
X00314Y01557*
X00315Y01558*
X00316Y01559*
X00317Y0156*
X00318Y01561*
X00319Y01562*
X0032Y01564*
X0032Y01565*
X00321Y01567*
X00321Y01568*
X00322Y0157*
X00322Y01571*
X00322Y01573*
X00322Y01574*
Y02907D02*
D01*
X00322Y02909*
X00322Y0291*
X00322Y02912*
X00321Y02913*
X00321Y02915*
X0032Y02916*
X0032Y02918*
X00319Y02919*
X00318Y0292*
X00317Y02922*
X00316Y02923*
X00315Y02924*
X00314Y02925*
X00312Y02926*
X00311Y02927*
X0031Y02927*
X00308Y02928*
X00307Y02929*
X00305Y02929*
X00304Y02929*
X00302Y0293*
X003Y0293*
X00299*
X00297Y0293*
X00296Y02929*
X00294Y02929*
X00293Y02929*
X00291Y02928*
X0029Y02927*
X00288Y02927*
X00287Y02926*
X00286Y02925*
X00285Y02924*
X00283Y02923*
X00282Y02922*
X00281Y0292*
X00281Y02919*
X0028Y02918*
X00279Y02916*
X00279Y02915*
X00278Y02913*
X00278Y02912*
X00277Y0291*
X00277Y02909*
X00277Y02907*
X00277Y02906*
X00277Y02904*
X00278Y02902*
X00278Y02901*
X00279Y02899*
X00279Y02898*
X0028Y02897*
X00281Y02895*
X00281Y02894*
X00282Y02893*
X00283Y02891*
X00285Y0289*
X00286Y02889*
X00287Y02888*
X00288Y02888*
X0029Y02887*
X00291Y02886*
X00293Y02886*
X00294Y02885*
X00296Y02885*
X00297Y02885*
X00299Y02885*
X003*
X00302Y02885*
X00304Y02885*
X00305Y02885*
X00307Y02886*
X00308Y02886*
X0031Y02887*
X00311Y02888*
X00312Y02888*
X00314Y02889*
X00315Y0289*
X00316Y02891*
X00317Y02893*
X00318Y02894*
X00319Y02895*
X0032Y02897*
X0032Y02898*
X00321Y02899*
X00321Y02901*
X00322Y02902*
X00322Y02904*
X00322Y02906*
X00322Y02907*
G54D22*
X015Y01625D03*
X01465D03*
X01589Y01029D03*
X01625D03*
X0173Y0105D03*
X01766D03*
X0022Y0099D03*
X00184D03*
X00862Y02745D03*
X00897D03*
X0088Y02445D03*
X00844D03*
X00785Y02415D03*
X00749D03*
X00877Y02385D03*
X00842D03*
X00832Y02245D03*
X00867D03*
X01875Y02175D03*
X0191D03*
X01875Y0224D03*
X0191D03*
X01771Y01095D03*
X01806D03*
X0022Y0093D03*
X00184D03*
X0169Y01095D03*
X01726D03*
X01724Y00624D03*
X01759D03*
X01684Y00669D03*
X01719D03*
X01643Y00624D03*
X01679D03*
X01429D03*
X01393D03*
X01468Y00669D03*
X01433D03*
X01509Y00624D03*
X01474D03*
X01887Y02595D03*
X01922D03*
X01887Y02655D03*
X01922D03*
X01887Y02715D03*
X01922D03*
X03385Y002D03*
X0335D03*
X00199Y00155D03*
X00235D03*
X03387Y03355D03*
X03352D03*
X00197Y03435D03*
X00232D03*
X0102Y01687D03*
X01055D03*
X03067Y00875D03*
X03102D03*
X03044Y00459D03*
X03008D03*
X00445Y0336D03*
X0048D03*
X0012Y01385D03*
X00155D03*
X00562Y00745D03*
X00527D03*
X00893Y02018D03*
X00858D03*
X0087Y02305D03*
X00834D03*
X0086Y02505D03*
X00824D03*
X01828Y02795D03*
X01863D03*
X01892Y02535D03*
X01927D03*
X0186Y02345D03*
X01895D03*
X01899Y0209D03*
X01935D03*
G54D23*
X01186Y03328D03*
Y03363D03*
X0314Y00465D03*
Y00429D03*
X02285Y02987D03*
Y02952D03*
X02655Y03249D03*
Y03285D03*
X02105Y02894D03*
Y0293D03*
X00765Y03175D03*
Y03139D03*
X0114Y03317D03*
Y03282D03*
X00165Y00742D03*
Y00777D03*
X01176Y02925D03*
Y0289D03*
X01222Y02925D03*
Y0289D03*
X0007Y02085D03*
Y02049D03*
X00065Y02282D03*
Y02247D03*
X03115Y01052D03*
Y01087D03*
Y00987D03*
Y00952D03*
X0057Y0298D03*
Y02944D03*
X00635Y0298D03*
Y02944D03*
X001Y00742D03*
Y00777D03*
X01195Y01857D03*
Y01892D03*
X0126D03*
Y01857D03*
X01186Y03282D03*
Y03247D03*
X01056Y01768D03*
Y01733D03*
X0101Y01768D03*
Y01733D03*
X01363Y00987D03*
Y00952D03*
X02089Y00928D03*
Y00963D03*
X0231Y01091D03*
Y01056D03*
X0114Y03479D03*
Y03444D03*
X00455Y03064D03*
Y031D03*
X01395Y01789D03*
Y01825D03*
X01065Y029D03*
Y02935D03*
X01275Y0289D03*
Y02925D03*
X0151Y0289D03*
Y02925D03*
X0133Y01892D03*
Y01857D03*
X01125Y01885D03*
Y01849D03*
X0163Y0187D03*
Y01834D03*
X0169Y0187D03*
Y01834D03*
G54D24*
X00961Y0205D03*
Y0207D03*
Y02089D03*
Y02109D03*
Y02129D03*
Y02148D03*
Y02168D03*
Y02188D03*
Y02207D03*
Y02227D03*
Y02247D03*
Y02267D03*
Y02286D03*
Y02306D03*
Y02326D03*
Y02345D03*
Y02365D03*
Y02385D03*
Y02404D03*
Y02424D03*
Y02444D03*
Y02463D03*
Y02483D03*
Y02503D03*
Y02522D03*
Y02542D03*
Y02562D03*
Y02582D03*
Y02601D03*
Y02621D03*
Y02641D03*
Y0266D03*
Y0268D03*
Y027D03*
Y02719D03*
Y02739D03*
X01798D03*
Y02719D03*
Y027D03*
Y0268D03*
Y0266D03*
Y02641D03*
Y02621D03*
Y02601D03*
Y02582D03*
Y02562D03*
Y02542D03*
Y02522D03*
Y02503D03*
Y02483D03*
Y02463D03*
Y02444D03*
Y02424D03*
Y02404D03*
Y02385D03*
Y02365D03*
Y02345D03*
Y02326D03*
Y02306D03*
Y02286D03*
Y02267D03*
Y02247D03*
Y02227D03*
Y02207D03*
Y02188D03*
Y02168D03*
Y02148D03*
Y02129D03*
Y02109D03*
Y02089D03*
Y0207D03*
Y0205D03*
G54D25*
X01035Y02813D03*
X01055D03*
X01074D03*
X01094D03*
X01114D03*
X01133D03*
X01153D03*
X01173D03*
X01192D03*
X01212D03*
X01232D03*
X01252D03*
X01271D03*
X01291D03*
X01311D03*
X0133D03*
X0135D03*
X0137D03*
X01389D03*
X01409D03*
X01429D03*
X01448D03*
X01468D03*
X01488D03*
X01507D03*
X01527D03*
X01547D03*
X01567D03*
X01586D03*
X01606D03*
X01626D03*
X01645D03*
X01665D03*
X01685D03*
X01704D03*
X01724D03*
Y01976D03*
X01704D03*
X01685D03*
X01665D03*
X01645D03*
X01626D03*
X01606D03*
X01586D03*
X01567D03*
X01547D03*
X01527D03*
X01507D03*
X01488D03*
X01468D03*
X01448D03*
X01429D03*
X01409D03*
X01389D03*
X0137D03*
X0135D03*
X0133D03*
X01311D03*
X01291D03*
X01271D03*
X01252D03*
X01232D03*
X01212D03*
X01192D03*
X01173D03*
X01153D03*
X01133D03*
X01114D03*
X01094D03*
X01074D03*
X01055D03*
X01035D03*
G54D26*
X02957Y03303D03*
X02982D03*
X03008D03*
X03034D03*
X03059D03*
G54D27*
X01465Y01725D03*
Y01825D03*
X01551D03*
Y01725D03*
G54D28*
X01425Y00952D03*
X01475D03*
X01525D03*
X01575D03*
X01625D03*
X01675D03*
X01725D03*
X01775D03*
Y00758D03*
X01725D03*
X01675D03*
X01625D03*
X01575D03*
X01525D03*
X01475D03*
X01425D03*
G54D29*
X02171Y0097D03*
Y00944D03*
Y00919D03*
X02398Y00842D03*
X02171D03*
Y00867D03*
Y00893D03*
X02398Y00867D03*
Y00893D03*
Y00919D03*
Y00944D03*
Y0097D03*
Y00995D03*
X02171D03*
G54D30*
X02942Y00685D03*
Y00635D03*
Y00585D03*
Y00535D03*
X03137D03*
Y00585D03*
Y00635D03*
Y00685D03*
G54D31*
X00842Y03425D03*
Y03375D03*
Y03325D03*
Y03275D03*
Y03225D03*
Y03175D03*
Y03125D03*
X01057D03*
Y03175D03*
Y03225D03*
Y03275D03*
Y03325D03*
Y03375D03*
Y03425D03*
G54D32*
X00558Y03056D03*
X00584D03*
X0061D03*
X00686Y03283D03*
Y03056D03*
X00661D03*
X00635D03*
X00661Y03283D03*
X00635D03*
X0061D03*
X00584D03*
X00558D03*
X00533D03*
Y03056D03*
G54D33*
X0037Y01422D03*
X0032D03*
X0027D03*
X0022D03*
X0032Y01087D03*
X0027D03*
X0037D03*
X0022D03*
G54D34*
X00532Y00535D03*
Y00585D03*
Y00635D03*
Y00685D03*
X00197Y00585D03*
Y00635D03*
Y00535D03*
Y00685D03*
G54D35*
X004Y0169D03*
X002D03*
X004Y01768D03*
X002D03*
X004Y01847D03*
X002D03*
X004Y01926D03*
X002D03*
X004Y02005D03*
X002D03*
X004Y02083D03*
X002D03*
X004Y02162D03*
X002D03*
X004Y02241D03*
X002D03*
X004Y0232D03*
X002D03*
X004Y02398D03*
X002D03*
X004Y02477D03*
X002D03*
X004Y02556D03*
X002D03*
X004Y02634D03*
X002D03*
X004Y02713D03*
X002D03*
X004Y02792D03*
X002D03*
G54D36*
X00842Y00778D03*
Y00973D03*
X00942Y00778D03*
Y00973D03*
X01042Y00778D03*
Y00973D03*
X01142Y00778D03*
Y00973D03*
X01242Y00778D03*
Y00973D03*
X02565Y01882D03*
Y02077D03*
X02665Y01882D03*
Y02077D03*
X02765Y01882D03*
Y02077D03*
X02865Y01882D03*
Y02077D03*
X02965Y01882D03*
Y02077D03*
X00955Y00381D03*
Y00186D03*
X00855Y00381D03*
Y00186D03*
X00755Y00381D03*
Y00186D03*
X00655Y00381D03*
Y00186D03*
X00555Y00381D03*
Y00186D03*
G54D37*
X02367Y0069D03*
X02562D03*
X02367Y0059D03*
X02562D03*
X02367Y0049D03*
X02562D03*
X02367Y0039D03*
X02562D03*
X02367Y0029D03*
X02562D03*
X02857Y0239D03*
X02662D03*
X02857Y0249D03*
X02662D03*
X02857Y0259D03*
X02662D03*
X02857Y0269D03*
X02662D03*
X02857Y0279D03*
X02662D03*
G54D38*
X0222Y03015D03*
Y0295D03*
X0259Y03312D03*
Y03247D03*
X0204Y02955D03*
Y0289D03*
G54D39*
X01085Y01631D03*
X0102D03*
G54D40*
X02395Y01059D03*
Y01114D03*
X0176Y0186D03*
Y01804D03*
G54D41*
X03121Y0078D03*
X03018D03*
G54D42*
X00477Y03285D03*
X00422D03*
G54D43*
X0369Y0175D03*
Y01647D03*
Y01885D03*
Y01987D03*
M02*