%FSTAX23Y23*%
%MOIN*%
%SFA1B1*%

%IPPOS*%
%ADD44R,0.025653X0.025653*%
%ADD45R,0.025653X0.025653*%
%ADD51R,0.059118X0.017779*%
%ADD61R,0.039433X0.035496*%
%ADD65C,0.156000*%
%ADD66C,0.065000*%
%ADD67C,0.035496*%
%ADD68O,0.051244X0.098488*%
%ADD69O,0.039433X0.074866*%
%ADD70C,0.049787*%
%ADD71C,0.057937*%
%ADD72R,0.057937X0.057937*%
%ADD73C,0.253999*%
%ADD74C,0.023622*%
%ADD75C,0.027685*%
%ADD102R,0.120078X0.120078*%
%ADD103R,0.013780X0.055118*%
%ADD106R,0.027622X0.141795*%
%ADD107R,0.076079X0.022535*%
%ADD108R,0.062661X0.138645*%
%LNocb_development_board-1*%
%LPD*%
G54D44*
X02914Y0024D03*
X0295D03*
X02914Y00305D03*
X0295D03*
X02729Y0011D03*
X02765D03*
X02867D03*
X02832D03*
X02033Y01551D03*
X01997D03*
X02078D03*
X02113D03*
X01588D03*
X01553D03*
X01634D03*
X01669D03*
X0209Y00446D03*
X02125D03*
X0209Y00323D03*
X02125D03*
X01156Y01551D03*
X01121D03*
X00729D03*
X00693D03*
X01202D03*
X01237D03*
X00774D03*
X00809D03*
X01431Y02035D03*
X01395D03*
X0209Y00384D03*
X02125D03*
X0209Y00508D03*
X02125D03*
X0292Y0039D03*
X02955D03*
X0287Y0017D03*
X02834D03*
X01792Y01551D03*
X01827D03*
X01347D03*
X01383D03*
X01894Y00548D03*
X01859D03*
X00915Y01551D03*
X0095D03*
X00558D03*
X00523D03*
X01395Y01975D03*
X0143D03*
G54D45*
X00831Y00531D03*
Y00496D03*
X00895D03*
Y00531D03*
X00835Y00355D03*
Y00391D03*
X00895D03*
Y00355D03*
X0204Y00568D03*
Y00603D03*
X0198Y00568D03*
Y00603D03*
X01025Y00372D03*
Y00407D03*
X01325Y00325D03*
Y0036D03*
G54D51*
X01091Y00433D03*
Y00459D03*
Y00485D03*
X01318Y00561D03*
X01091D03*
Y00536D03*
Y0051D03*
X01318Y00536D03*
Y0051D03*
Y00485D03*
Y00459D03*
Y00433D03*
Y00408D03*
X01091D03*
G54D61*
X02735Y00179D03*
Y00235D03*
X02758Y00762D03*
Y00707D03*
X014Y00362D03*
Y00307D03*
G54D65*
X0137Y0322D03*
X02353D03*
G54D66*
X01646Y0317D03*
X017Y0327D03*
X01754Y0317D03*
X01807Y0327D03*
X01861Y0317D03*
X01915Y0327D03*
X01969Y0317D03*
X02023Y0327D03*
X02077Y0317D03*
G54D67*
X0291Y03345D03*
X03106D03*
G54D68*
X02861Y03303D03*
X03155D03*
G54D69*
X02855Y03453D03*
X0316D03*
G54D70*
X003Y01574D03*
Y02907D03*
G54D71*
X03375Y0105D03*
Y0115D03*
Y0135D03*
Y0125D03*
Y0155D03*
Y0165D03*
Y0175D03*
Y0195D03*
Y0185D03*
Y0215D03*
Y0235D03*
Y0205D03*
Y0225D03*
Y0145D03*
Y0095D03*
X03275Y0255D03*
Y0225D03*
Y0235D03*
Y0245D03*
Y0215D03*
Y0195D03*
Y0295D03*
Y0275D03*
Y0265D03*
Y0285D03*
Y0205D03*
X03375Y0055D03*
Y0085D03*
Y0065D03*
X03275Y0075D03*
Y0065D03*
X03375Y0075D03*
X03275Y0055D03*
Y0085D03*
Y0105D03*
Y0115D03*
Y0125D03*
Y0135D03*
Y0145D03*
Y0155D03*
Y0175D03*
Y0185D03*
Y0095D03*
Y0165D03*
X03375Y0265D03*
Y0255D03*
Y0285D03*
Y0245D03*
Y0305D03*
Y0275D03*
Y0295D03*
X03575Y0105D03*
Y0115D03*
Y0135D03*
Y0125D03*
Y0155D03*
Y0165D03*
Y0175D03*
Y0195D03*
Y0185D03*
Y0215D03*
Y0235D03*
Y0205D03*
Y0225D03*
Y0145D03*
Y0095D03*
X03475Y0255D03*
Y0225D03*
Y0235D03*
Y0245D03*
Y0215D03*
Y0195D03*
Y0295D03*
Y0275D03*
Y0265D03*
Y0285D03*
Y0205D03*
X03575Y0055D03*
Y0085D03*
Y0065D03*
X03475Y0075D03*
Y0065D03*
X03575Y0075D03*
X03475Y0055D03*
Y0085D03*
Y0105D03*
Y0115D03*
Y0125D03*
Y0135D03*
Y0145D03*
Y0155D03*
Y0175D03*
Y0185D03*
Y0095D03*
Y0165D03*
X03575Y0265D03*
Y0255D03*
Y0285D03*
Y0245D03*
Y0305D03*
Y0275D03*
Y0295D03*
G54D72*
X03275Y0305D03*
X03475D03*
G54D73*
X0361Y00185D03*
X03575Y0332D03*
X0018Y0327D03*
X002Y0035D03*
G54D74*
X00866Y01424D03*
X02931Y02922D03*
X0292Y01423D03*
X01052Y00063D03*
X02538Y02968D03*
X01911D03*
X02627Y03447D03*
X0278Y01689D03*
X02815Y01718D03*
G54D75*
X00431Y00722D03*
X02665Y02176D03*
X0041Y00857D03*
X00361Y00937D03*
X01922Y02221D03*
X0272Y02214D03*
G54D102*
X0277Y00475D03*
G54D103*
X0268Y00363D03*
X02706D03*
X02731D03*
X02757D03*
X02782D03*
X02808D03*
X02833D03*
X02859D03*
Y00587D03*
X02833D03*
X02808D03*
X02782D03*
X02757D03*
X02731D03*
X02706D03*
X0268D03*
G54D106*
X01337Y01083D03*
X01387D03*
X01437D03*
X01487D03*
X01437Y01437D03*
X01387D03*
X01337D03*
X01487D03*
X01537D03*
X01587D03*
X01637D03*
X01687D03*
Y01083D03*
X01637D03*
X01587D03*
X01537D03*
X00905D03*
X00955D03*
X01005D03*
X01055D03*
X01005Y01437D03*
X00955D03*
X00905D03*
X01055D03*
X01105D03*
X01155D03*
X01205D03*
X01255D03*
Y01083D03*
X01205D03*
X01155D03*
X01105D03*
X01979D03*
X02029D03*
X02079D03*
X02129D03*
Y01437D03*
X02079D03*
X02029D03*
X01979D03*
X01929D03*
X01779D03*
X01829D03*
X01879D03*
X01929Y01083D03*
X01879D03*
X01829D03*
X01779D03*
X00676D03*
X00726D03*
X00776D03*
X00826D03*
Y01437D03*
X00776D03*
X00726D03*
X00676D03*
X00626D03*
X00476D03*
X00526D03*
X00576D03*
X00626Y01083D03*
X00576D03*
X00526D03*
X00476D03*
G54D107*
X02Y00487D03*
Y00461D03*
Y00436D03*
Y0041D03*
Y00385D03*
Y00334D03*
Y00308D03*
X01769D03*
Y00334D03*
Y00385D03*
Y0041D03*
Y00436D03*
Y00461D03*
Y00487D03*
X02Y00359D03*
X01769D03*
G54D108*
X02585Y00475D03*
X02355D03*
M02*