%FSTAX23Y23*%
%MOIN*%
%SFA1B1*%

%IPPOS*%
%AMD28*
4,1,8,-0.010400,0.036400,-0.010400,-0.036400,-0.007800,-0.039000,0.007800,-0.039000,0.010400,-0.036400,0.010400,0.036400,0.007800,0.039000,-0.007800,0.039000,-0.010400,0.036400,0.0*
1,1,0.005220,-0.007800,0.036400*
1,1,0.005220,-0.007800,-0.036400*
1,1,0.005220,0.007800,-0.036400*
1,1,0.005220,0.007800,0.036400*
%
%AMD30*
4,1,8,0.035800,0.011800,-0.035800,0.011800,-0.038800,0.008900,-0.038800,-0.008900,-0.035800,-0.011800,0.035800,-0.011800,0.038800,-0.008900,0.038800,0.008900,0.035800,0.011800,0.0*
1,1,0.005906,0.035800,0.008900*
1,1,0.005906,-0.035800,0.008900*
1,1,0.005906,-0.035800,-0.008900*
1,1,0.005906,0.035800,-0.008900*
%
%ADD10C,0.010000*%
%ADD13C,0.006000*%
%ADD18C,0.015000*%
%ADD22R,0.021654X0.021654*%
%ADD23R,0.021654X0.021654*%
%ADD24R,0.053150X0.013780*%
%ADD25R,0.013780X0.053150*%
%ADD26R,0.017716X0.051181*%
%ADD27R,0.059055X0.066929*%
G04~CAMADD=28~8~0.0~0.0~779.5~208.7~26.1~0.0~15~0.0~0.0~0.0~0.0~0~0.0~0.0~0.0~0.0~0~0.0~0.0~0.0~90.0~210.0~779.0*
%ADD28D28*%
%ADD29R,0.055118X0.013780*%
G04~CAMADD=30~8~0.0~0.0~775.6~236.2~29.5~0.0~15~0.0~0.0~0.0~0.0~0~0.0~0.0~0.0~0.0~0~0.0~0.0~0.0~0.0~775.6~236.2*
%ADD30D30*%
%ADD31R,0.057500X0.021000*%
%ADD32R,0.013780X0.055118*%
%ADD33R,0.023622X0.118110*%
%ADD34R,0.118110X0.023622*%
%ADD35R,0.149606X0.040157*%
%ADD36R,0.050000X0.144882*%
%ADD37R,0.144882X0.050000*%
%ADD38R,0.031496X0.031496*%
%ADD39R,0.031496X0.031496*%
%ADD40R,0.035433X0.031496*%
%ADD41R,0.055118X0.070866*%
%ADD42R,0.031496X0.035433*%
%ADD43R,0.070866X0.055118*%
%ADD66C,0.065000*%
%ADD74C,0.023622*%
%ADD76C,0.030000*%
%ADD77C,0.004799*%
%ADD78C,0.020000*%
%ADD79C,0.152000*%
%ADD80C,0.031496*%
%ADD81O,0.047244X0.094488*%
%ADD82O,0.035433X0.070866*%
%ADD83C,0.045787*%
%ADD84C,0.053937*%
%ADD85R,0.053937X0.053937*%
%ADD86C,0.250000*%
%ADD87C,0.019685*%
%LNocb_development_board-1*%
%LPD*%
G36*
X03775Y0D02*
X0D01*
Y0355*
X03775*
Y0*
G37*
%LNocb_development_board-2*%
%LPC*%
G36*
X0116Y035D02*
X01145D01*
Y03484*
X0116*
Y035*
G37*
G36*
X01135D02*
X01119D01*
Y03484*
X01135*
Y035*
G37*
G36*
X0116Y03474D02*
X0114D01*
X01119*
Y03444*
X01114Y0344*
X01096*
Y03445*
X01018*
Y03444*
X01013Y03442*
X01008Y03445*
X01Y03447*
X00991Y03445*
X00984Y0344*
X00979Y03433*
X00977Y03425*
X00979Y03416*
X00984Y03409*
X00991Y03404*
X01Y03402*
X01008Y03404*
X01013Y03407*
X01018Y03405*
Y03404*
X01096*
Y03409*
X01118*
X0114Y03387*
X01165Y03362*
Y0334*
X0116Y03338*
X01119*
Y03319*
X01096*
Y03345*
X01018*
Y03304*
X01045*
X01045Y03304*
X01048Y033*
X01048Y033*
X01048Y03299*
X01045Y03295*
X01045Y03295*
X01018*
Y03254*
X01096*
Y0328*
X01119*
Y03261*
X0116*
X01165Y03259*
Y03252*
X01186*
X01206*
Y03261*
Y03289*
X01207Y03291*
Y03295*
X01318*
X0132Y0329*
X01308Y03281*
X01298Y03268*
X0129Y03253*
X01285Y03236*
X01283Y0322*
X01285Y03203*
X0129Y03186*
X01298Y03171*
X01308Y03158*
X01321Y03148*
X01336Y0314*
X01353Y03135*
X0137Y03133*
X01386Y03135*
X01403Y0314*
X01418Y03148*
X01431Y03158*
X01441Y03171*
X01449Y03186*
X01454Y03203*
X01456Y0322*
X01454Y03236*
X01449Y03253*
X01441Y03268*
X01431Y03281*
X01419Y0329*
X01421Y03295*
X0156*
X01637Y03218*
Y03211*
X01635Y03211*
X01624Y03207*
X01615Y032*
X01609Y03191*
X01604Y03181*
X01603Y0317*
X01604Y03158*
X01609Y03148*
X01615Y03139*
X01624Y03132*
X01635Y03128*
X01646Y03127*
X01657Y03128*
X01667Y03132*
X01676Y03139*
X01683Y03148*
X01687Y03158*
X01689Y0317*
X01687Y03181*
X01683Y03191*
X01676Y032*
X01667Y03207*
X01662Y03209*
Y0322*
X01663*
X01668Y03221*
X01672Y03224*
X0168Y03232*
X01689Y03228*
X017Y03227*
X01711Y03228*
X01721Y03232*
X0173Y03239*
X01737Y03248*
X01741Y03258*
X01742Y0327*
X01741Y03281*
X01737Y03291*
X0173Y033*
X01721Y03307*
X01711Y03311*
X017Y03312*
X01689Y03311*
X01678Y03307*
X01669Y033*
X01662Y03291*
X01658Y03281*
X01657Y0327*
X01658Y03258*
X01658Y03258*
X01654Y03256*
X0158Y0333*
X01576Y03332*
X01571Y03333*
X01206*
Y03384*
X01186*
X01161Y03409*
X01152Y03418*
X01154Y03423*
X0116*
Y03458*
Y03474*
G37*
G36*
X00253Y03455D02*
X00237D01*
Y0344*
X00253*
Y03455*
G37*
G36*
X02627Y03467D02*
X02619Y03465D01*
X02612Y03461*
X02608Y03454*
X02606Y03447*
X02608Y03439*
X02612Y03432*
X02619Y03428*
X02627Y03426*
X02634Y03428*
X02641Y03432*
X02645Y03439*
X02647Y03447*
X02645Y03454*
X02641Y03461*
X02634Y03465*
X02627Y03467*
G37*
G36*
X00253Y0343D02*
X00237D01*
Y03414*
X00253*
Y0343*
G37*
G36*
X0316Y03498D02*
X03153Y03497D01*
X03147Y03495*
X03141Y0349*
X03136Y03484*
X03133Y03478*
X03133Y0347*
Y03435*
X03133Y03428*
X03136Y03421*
X03141Y03415*
X03147Y03411*
X03153Y03408*
X0316Y03407*
X03168Y03408*
X03174Y03411*
X0318Y03415*
X03185Y03421*
X03187Y03428*
X03188Y03435*
Y0347*
X03187Y03478*
X03185Y03484*
X0318Y0349*
X03174Y03495*
X03168Y03497*
X0316Y03498*
G37*
G36*
X02855D02*
X02848Y03497D01*
X02841Y03495*
X02836Y0349*
X02831Y03484*
X02828Y03478*
X02827Y0347*
Y03435*
X02828Y03428*
X02831Y03421*
X02836Y03415*
X02841Y03411*
X02848Y03408*
X02855Y03407*
X02863Y03408*
X02869Y03411*
X02875Y03415*
X0288Y03421*
X02882Y03428*
X02883Y03435*
Y0347*
X02882Y03478*
X0288Y03484*
X02875Y0349*
X02869Y03495*
X02863Y03497*
X02855Y03498*
G37*
G36*
X00881Y03445D02*
X00804D01*
Y03404*
X00881*
Y03445*
G37*
G36*
X03575Y03455D02*
X03553Y03453D01*
X03533Y03448*
X03513Y0344*
X03495Y03429*
X03479Y03415*
X03465Y03399*
X03454Y03381*
X03448Y03367*
X03408*
Y03375*
X03357*
Y03355*
Y03334*
X03408*
Y03337*
X03437*
X0344Y03333*
X03439Y0332*
X03441Y03298*
X03446Y03278*
X03454Y03258*
X03465Y0324*
X03479Y03224*
X03495Y0321*
X03513Y03199*
X03533Y03191*
X03553Y03186*
X03575Y03184*
X03596Y03186*
X03616Y03191*
X03636Y03199*
X03654Y0321*
X0367Y03224*
X03684Y0324*
X03695Y03258*
X03703Y03278*
X03708Y03298*
X0371Y0332*
X03708Y03341*
X03703Y03361*
X03695Y03381*
X03684Y03399*
X0367Y03415*
X03654Y03429*
X03636Y0344*
X03616Y03448*
X03596Y03453*
X03575Y03455*
G37*
G36*
X0044Y0338D02*
X00424D01*
Y03365*
X0044*
Y0338*
G37*
G36*
X03347Y03375D02*
X03331D01*
Y0336*
X03347*
Y03375*
G37*
G36*
X01096Y03395D02*
X01018D01*
Y03354*
X01096*
Y03395*
G37*
G36*
X0291Y0337D02*
X02903Y0337D01*
X02897Y03367*
X02891Y03363*
X02887Y03357*
X02886Y03355*
X02881Y03354*
X02878Y03356*
X0287Y0336*
X02861Y03361*
X02852Y0336*
X02844Y03356*
X02837Y03351*
X02832Y03344*
X02829Y03336*
X02827Y03327*
Y0328*
X02829Y03271*
X02832Y03263*
X02837Y03256*
X02844Y0325*
X02852Y03247*
X02861Y03246*
X0287Y03247*
X02878Y0325*
X02885Y03256*
X02891Y03263*
X02894Y03271*
X02895Y0328*
Y03317*
X029Y0332*
X02903Y03319*
X0291Y03319*
X02916Y03319*
X02922Y03322*
X02928Y03326*
X02932Y03332*
X02933Y03334*
X02938Y03333*
Y03308*
X02952*
Y03339*
X0294*
X02935Y03343*
X02935Y03345*
X02935Y03351*
X02932Y03357*
X02928Y03363*
X02922Y03367*
X02916Y0337*
X0291Y0337*
G37*
G36*
X00881Y03395D02*
X00804D01*
Y0339*
X0061*
X00604Y03389*
X00599Y03385*
X0056Y03347*
X00556Y03349*
X00557Y03355*
X00555Y03363*
X0055Y0337*
X00543Y03375*
X00535Y03377*
X00526Y03375*
X00519Y0337*
X00514Y03363*
X00512Y03355*
X00514Y03346*
X00518Y03339*
Y0332*
X00516*
Y033*
X00503*
Y03312*
X00495*
Y03339*
X00501*
Y0338*
X0045*
Y0336*
Y03339*
X00465*
Y03312*
X00453*
X00451*
X00448*
X00446*
X00427*
Y03285*
Y03257*
X00446*
X00448*
X00451*
X00453*
X00503*
Y03269*
X00516*
Y03245*
X00596*
Y03244*
X00597Y03238*
X00601Y03234*
X00645Y03189*
X0065Y03185*
X00656Y03184*
X00744*
Y03154*
Y03144*
X00765*
X00785*
Y03159*
X00804*
Y03154*
X00827*
Y03145*
X00804*
Y03104*
X00881*
Y03145*
X00858*
Y03154*
X00881*
Y03184*
X00884*
X00889Y03185*
X00894Y03189*
X009Y03195*
X00904Y032*
X00905Y03205*
Y0326*
X00904Y03265*
X009Y0327*
X00891Y0328*
X00886Y03283*
X00881Y03284*
Y03295*
X00804*
Y03254*
X00846*
X00848Y03254*
X00874*
X00874Y03253*
Y03245*
X00804*
Y0324*
X0067*
X0067Y0324*
X00673Y03245*
X00703*
Y03263*
X00708Y03266*
X00711Y03264*
X0072Y03262*
X00728Y03264*
X00735Y03269*
X0074Y03276*
X00742Y03285*
X0074Y03293*
X00735Y033*
X00728Y03305*
X0072Y03307*
X00711Y03305*
X00708Y03303*
X00703Y03306*
Y03314*
X00804*
Y03304*
X00881*
Y03345*
X00804*
Y03345*
X00608*
X00606Y03349*
X00616Y03359*
X00804*
Y03354*
X00881*
Y03395*
G37*
G36*
X0044Y03355D02*
X00424D01*
Y03339*
X0044*
Y03355*
G37*
G36*
X03347Y0335D02*
X03331D01*
Y03334*
X03347*
Y0335*
G37*
G36*
X026Y03338D02*
X02599Y03338D01*
X02595*
Y03317*
X02615*
Y03321*
X02616Y03323*
X02615Y03324*
Y03338*
X02602*
X026Y03338*
G37*
G36*
X02585Y03338D02*
X02564D01*
Y03317*
X02585*
Y03338*
G37*
G36*
X02711Y03307D02*
X02702Y03305D01*
X02695Y033*
X02694Y033*
X02675*
Y03305*
X02634*
Y03264*
X02615*
Y03273*
X02564*
Y03221*
X02615*
Y03234*
X02634*
Y03228*
X02675*
Y03269*
X02694*
X02695Y03269*
X02702Y03264*
X02711Y03262*
X02719Y03264*
X02726Y03269*
X02731Y03276*
X02733Y03285*
X02731Y03293*
X02726Y033*
X02719Y03305*
X02711Y03307*
G37*
G36*
X00417Y03312D02*
X00396D01*
Y0329*
X00417*
Y03312*
G37*
G36*
X02615Y03307D02*
X02595D01*
Y03286*
X02615*
Y03307*
G37*
G36*
X02585D02*
X02564D01*
Y03286*
X02585*
Y03307*
G37*
G36*
X02952Y03298D02*
X02938D01*
Y03268*
X02952*
Y03298*
G37*
G36*
X00417Y0328D02*
X00396D01*
Y03257*
X00417*
Y0328*
G37*
G36*
X03106Y0337D02*
X031Y0337D01*
X03093Y03367*
X03088Y03363*
X03084Y03357*
X03081Y03351*
X0308Y03345*
X03081Y03343*
X03076Y03339*
X02962*
Y03303*
Y03268*
X02997*
X02999Y03263*
X02829Y03093*
X01986*
X01981Y03092*
X01976Y03089*
X01922Y03035*
X01186*
X01181Y03034*
X01176Y03031*
X01107Y02962*
X01104Y02957*
X01103Y02952*
Y02849*
X0109*
Y02855*
X01089Y02861*
X01088Y02862*
X01089Y02867*
X01087Y02875*
X01087Y02876*
X01085Y02879*
Y02914*
Y0293*
X01044*
Y02914*
Y02882*
X01039Y02881*
X01038Y02881*
X01033Y02885*
X01028Y02886*
X01022Y02885*
X01017Y02881*
X01013Y02876*
X01012Y02871*
Y02868*
X01013Y02862*
X01017Y02857*
X01019Y02855*
X01016Y0285*
X0101Y02852*
X01001Y0285*
X00994Y02845*
X00989Y02838*
X00987Y0283*
X00986Y02829*
X00983Y02827*
X00959Y02851*
X00954Y02855*
X00948Y02856*
X00701*
X00695Y02855*
X0069Y02851*
X00568Y0273*
X00484*
Y02743*
X00315*
Y0271*
X0031Y02709*
X00295Y02724*
X0029Y02727*
X00285Y02728*
Y02743*
X00115*
Y02683*
X00285*
Y02684*
X00289Y02686*
X00313Y02663*
X00315Y02661*
Y02631*
X0031Y0263*
X00295Y02645*
X0029Y02648*
X00285Y02649*
Y02665*
X00115*
Y02604*
X00285*
Y02605*
X00289Y02607*
X00312Y02585*
X00315Y02583*
Y02533*
X00299*
X00285Y02547*
Y02586*
X00115*
Y02526*
X00263*
X00277Y02512*
X00275Y02507*
X00115*
Y02447*
X00285*
Y02451*
X0029Y02455*
X00294Y02454*
X00301Y02456*
X00308Y0246*
X0031Y02463*
X00315Y02462*
Y02447*
X00289Y02422*
X00285Y02424*
Y02428*
X00115*
Y02368*
X00285*
Y02387*
X00291*
X00297Y02388*
X00302Y02391*
X0031Y02399*
X00315Y02397*
Y02368*
X00484*
Y02383*
X00505*
X00566Y02322*
Y0223*
X00563Y02225*
X00561Y02218*
X00563Y0221*
X00567Y02203*
X00574Y02199*
X00582Y02197*
X00589Y02199*
X00596Y02203*
X006Y0221*
X00602Y02218*
X006Y02225*
X00597Y0223*
Y02328*
X00596Y02334*
X00592Y02339*
X00522Y02409*
X00517Y02412*
X00511Y02414*
X00484*
Y02422*
X00516*
X00521Y02423*
X00526Y02427*
X00566Y02466*
X00818*
X00823Y02465*
Y0246*
X00709*
X00703Y02459*
X00698Y02455*
X00621Y02378*
X00617Y02373*
X00616Y02368*
Y01747*
X00427Y01557*
X00423Y01552*
X00422Y01547*
Y01039*
X00422Y01038*
Y00891*
X00408Y00876*
X00402Y00875*
X00395Y00871*
X00391Y00864*
X00389Y00857*
X00391Y00849*
X00395Y00842*
X00402Y00838*
X0041Y00836*
X00417Y00838*
X00424Y00842*
X00428Y00849*
X00429Y00855*
X00448Y00874*
X00452Y00879*
X00453Y00884*
Y01038*
X00453Y01039*
Y0154*
X00642Y0173*
X00646Y01735*
X00647Y01741*
Y02361*
X00715Y02429*
X00728*
Y02415*
X00668Y02355*
X00665Y0235*
X00663Y02344*
Y01737*
X00533Y01606*
X00529Y01601*
X00528Y01596*
Y01548*
X00523Y01544*
X00519Y01545*
X00511Y01543*
X00504Y01539*
X005Y01532*
X00498Y01525*
X005Y01517*
X00504Y0151*
X00511Y01506*
X00519Y01504*
X00523Y01505*
X00528Y01501*
Y00841*
X00429Y00741*
X00423Y0074*
X00416Y00736*
X00412Y00729*
X0041Y00722*
X00412Y00714*
X00416Y00707*
X00423Y00703*
X00431Y00701*
X00438Y00703*
X00445Y00707*
X00449Y00714*
X0045Y0072*
X00554Y00824*
X00558Y00829*
X00559Y00835*
Y01589*
X00675Y01706*
X00681Y01705*
X00684Y01701*
X0069Y01697*
X00698Y01695*
X00706Y01697*
X00713Y01701*
X00717Y01708*
X00718Y01714*
X00729Y01724*
X00732Y01729*
X00733Y01735*
Y01936*
X0074Y01943*
X00741Y01943*
X00745Y01939*
X00745Y01938*
X00747Y0193*
X0075Y01926*
Y01739*
X00746Y01733*
X00744Y01726*
X00746Y01718*
X0075Y01711*
X00756Y01708*
X00757Y01702*
X00629Y01574*
X00627Y01572*
X00622Y01569*
X00615Y01571*
X00607Y01569*
X006Y01565*
X00596Y01558*
X00594Y01551*
X00596Y01543*
X006Y01536*
X00607Y01532*
X00615Y0153*
X00619Y01531*
X00624Y01527*
Y00715*
X00619Y00712*
X00613Y00713*
X00605Y00711*
X00597Y00707*
X00597Y00706*
X00542*
Y00724*
X00557*
Y00745*
Y00765*
X00506*
Y00724*
X00511*
Y00706*
X00463*
Y00663*
X00601*
Y00667*
X00606Y0067*
X00613Y00669*
X0062Y0067*
X00625Y00667*
Y00645*
X00626Y00639*
X00629Y00634*
X00819Y00444*
Y00401*
X0082Y00399*
Y00299*
X0089*
Y00463*
X00843*
X00655Y00651*
Y00702*
X00655Y00704*
Y01556*
X00847Y01748*
X00848Y01748*
X00855Y0175*
X00862Y01754*
X00866Y01761*
X00868Y01769*
X00866Y01776*
X00862Y01783*
X00855Y01787*
X00848Y01789*
X0084Y01787*
X00833Y01783*
X00829Y01776*
X00828Y01773*
X00788Y01733*
X00782Y01734*
X0078Y01738*
Y01924*
X00784Y0193*
X00786Y01938*
X00784Y01945*
X0078Y01952*
X00773Y01956*
X00766Y01958*
X00763Y01957*
X00759Y01962*
X00759Y01963*
X00757Y0197*
X00753Y01977*
X00746Y01981*
X00739Y01983*
X00731Y01981*
X00724Y01977*
X0072Y0197*
X00719Y01964*
X00707Y01953*
X00704Y01948*
X00703Y01942*
Y01742*
X00699Y01738*
X00694Y0174*
Y02066*
X00699Y0207*
X00704Y02069*
X00711Y02071*
X00716Y02074*
X00886*
X00887Y0207*
X00888Y02069*
X00884Y02064*
X00883Y02059*
X00884Y02053*
X00888Y02048*
X00893Y02044*
X00896Y02044*
X00897Y02039*
X00896Y02038*
X00863*
Y02018*
Y01997*
X00914*
X00919Y01998*
X00924Y01995*
X00933Y01993*
X00935Y01994*
X00938Y01989*
X00882Y01934*
X00882*
X00876Y01933*
X00871Y01929*
X00862Y01921*
X00856Y0192*
X0085Y01915*
X00845Y01909*
X00844Y01901*
X00845Y01893*
X0085Y01887*
X00856Y01882*
X00864Y01881*
X00872Y01882*
X00878Y01887*
X00882Y01892*
X00886Y01892*
X00887Y01892*
Y01751*
X00675Y01538*
X00671Y01533*
X0067Y01528*
Y00697*
X00671Y00692*
X00675Y00687*
X0092Y00442*
Y00299*
X0099*
Y00463*
X00941*
X00701Y00704*
Y01521*
X00913Y01734*
X00917Y01739*
X00918Y01745*
Y01898*
X01014Y01994*
X01018Y01992*
Y0194*
X0102*
Y01884*
X00998Y01862*
X00994Y01857*
X00993Y01852*
Y01789*
X00989*
Y01747*
Y01712*
X00997*
X00999Y01707*
Y01666*
X01004*
Y01656*
X00994*
Y01605*
X01045*
Y01656*
X01035*
Y01666*
X01076*
Y01707*
X01076Y01712*
Y01712*
Y01747*
Y01789*
X01071*
Y0194*
X01114*
X01116Y01935*
X01112Y01932*
X01107Y01925*
X01105Y01916*
X01107Y0191*
X01104Y01905*
Y01864*
Y01854*
X01125*
X01145*
Y01864*
Y01904*
X01148Y01908*
X0115Y01916*
X01148Y01924*
X01149Y01926*
Y0194*
X01197*
Y01916*
X01194Y01913*
X01174*
Y01893*
X01171Y0189*
X0117Y0189*
X0116Y0188*
X01157Y01875*
X01155Y01869*
Y01644*
X01152Y01638*
X01151Y01631*
X01152Y01623*
X01156Y01616*
X01163Y01612*
X01171Y0161*
X01179Y01612*
X01185Y01616*
X01189Y01623*
X01191Y01631*
X01189Y01638*
X01186Y01644*
Y0178*
X0119Y01782*
X01191Y01782*
X012Y0178*
X01208Y01782*
X01215Y01787*
X0122Y01794*
X01222Y01803*
X0122Y01811*
X01215Y01818*
X0121Y01822*
Y01836*
X01215*
Y01871*
Y01891*
X01221Y01897*
X01227Y01898*
X01239Y01886*
Y01836*
X01242*
Y01812*
X01239Y0181*
X01234Y01803*
X01232Y01795*
X01234Y01786*
X01239Y01779*
X01246Y01774*
X01255Y01772*
X01262Y01774*
X01267Y01771*
Y01686*
X01264Y01681*
X01262Y01674*
X01264Y01666*
X01268Y01659*
X01275Y01655*
X01283Y01653*
X0129Y01655*
X01297Y01659*
X01301Y01666*
X01303Y01674*
X01301Y01681*
X01298Y01686*
Y0187*
X01297Y01873*
X01304Y01874*
X01304Y01875*
X01309Y01873*
Y01862*
X0133*
X0135*
Y01871*
Y01909*
Y01909*
X01355Y01911*
X01357Y01909*
X01362Y01905*
X01368Y01904*
X01373Y01905*
X01378Y01909*
X01382Y01914*
X01383Y0192*
Y01923*
X01382Y01929*
X01378Y01934*
X01377Y01935*
X01379Y0194*
X01453*
Y01868*
X01425*
Y0184*
X01415*
Y01845*
X01374*
Y01804*
Y01794*
X01415*
Y01809*
X01425*
Y01781*
X01504*
Y01868*
X01483*
Y0194*
X01603*
Y01976*
X01611*
Y0194*
X0162*
X0162Y01937*
X0162Y01935*
X01614Y0193*
X01609Y01923*
X01607Y01915*
X01609Y01906*
X01614Y01899*
X01614Y01898*
Y0189*
X01609*
Y01849*
Y01839*
X0163*
X0165*
Y01849*
Y0189*
X01645*
Y01898*
X01645Y01899*
X0165Y01906*
X01651Y01908*
X01656Y0191*
X01667Y01899*
X01668Y01891*
X01669Y0189*
X01669Y01886*
Y01849*
Y01839*
X0169*
X0171*
Y01849*
Y0189*
X0171Y01895*
X01711Y019*
X0171Y01905*
X01714Y0191*
X01716Y01909*
X01946*
X01947Y01909*
X01954Y01904*
X01963Y01902*
X01971Y01904*
X01973Y01905*
X01977Y01903*
Y0173*
X01909Y01661*
X01905Y01656*
X01904Y01651*
Y01262*
X01901Y01257*
X01899Y0125*
X01901Y01242*
X01905Y01235*
X01912Y01231*
X0192Y01229*
X01927Y01231*
X01934Y01235*
X01938Y01232*
X01934Y01226*
X01932Y01219*
X01934Y01211*
X01938Y01204*
X01945Y012*
X01953Y01198*
X0196Y012*
X01967Y01204*
X01971Y01211*
X01972Y01216*
X02004Y01248*
X02008Y01253*
X02009Y01259*
Y013*
X02014Y01302*
X02014Y01302*
Y00823*
X0194Y00749*
X01937Y00744*
X01936Y00738*
Y00511*
X01829Y00405*
X01823Y00404*
X01817Y00399*
X01812Y00393*
X01811Y00385*
X01812Y00377*
X01817Y00371*
X01823Y00366*
X01831Y00365*
X01839Y00366*
X01845Y00371*
X0185Y00377*
X01851Y00383*
X01867Y00399*
X01871Y00397*
Y00378*
X01847Y00353*
X01841Y00352*
X01834Y00348*
X0183Y00341*
X01828Y00334*
X0183Y00326*
X01834Y00319*
X01841Y00315*
X01849Y00313*
X01856Y00315*
X01863Y00319*
X01867Y00326*
X01868Y00332*
X01897Y00361*
X01901Y00366*
X01902Y00372*
Y004*
X02001Y00499*
X02004Y00504*
X02005Y0051*
Y00649*
X02067Y00711*
X02071Y00716*
X02072Y00722*
Y00907*
X02084*
Y00928*
X02089*
Y00933*
X02109*
Y00958*
X02111Y00963*
X02119Y00965*
X02126Y0097*
X02129Y00974*
X02134Y00972*
Y00927*
Y00902*
Y00876*
Y0085*
Y00847*
X02171*
X02209*
Y0085*
Y00878*
X02261*
X02267Y00879*
X02272Y00882*
X02307Y00917*
X02311Y00915*
X02313Y00908*
X02317Y00901*
X02324Y00897*
X02332Y00895*
X02339Y00897*
X02346Y00901*
X02346Y00902*
X0236*
Y00857*
X02346*
X02343Y00861*
X02341Y00869*
X02336Y00876*
X02329Y00881*
X02321Y00883*
X02312Y00881*
X02305Y00876*
X023Y00869*
X02298Y00861*
X023Y00852*
X02305Y00845*
X02312Y0084*
X02321Y00838*
X02321Y00838*
X02329Y00831*
X02334Y00828*
X0234Y00826*
X0236*
Y00825*
X02435*
Y0085*
Y00878*
X02458*
X02463Y00875*
X02471Y00873*
X02478Y00875*
X02485Y00879*
X02489Y00886*
X02491Y00894*
X02489Y00901*
X02485Y00908*
X02478Y00912*
X02471Y00914*
X02463Y00912*
X02457Y00909*
X02435*
Y00921*
X0244Y00924*
X02441Y00923*
X02449Y00921*
X02456Y00923*
X02463Y00927*
X02467Y00934*
X02469Y00942*
X02467Y00949*
X02467Y0095*
X02469Y00954*
X02491*
X02496Y00951*
X02504Y00949*
X02511Y00951*
X02518Y00955*
X02522Y00962*
X02524Y0097*
X02522Y00977*
X02518Y00984*
X02511Y00988*
X02504Y0099*
X02496Y00988*
X02491Y00985*
X02435*
Y01012*
X02413*
Y01033*
X02422*
Y01042*
X0243*
X02435Y01039*
X02443Y01037*
X0245Y01039*
X02457Y01043*
X02461Y0105*
X02463Y01058*
X02461Y01065*
X02457Y01072*
X0245Y01076*
X02443Y01078*
X02435Y01076*
X0243Y01073*
X02422*
Y01083*
Y01084*
Y01088*
Y01089*
Y01109*
X02367*
Y01089*
Y01088*
Y01084*
Y01083*
Y01071*
X0233*
Y01086*
X0231*
Y01091*
X02305*
Y01112*
X02289*
X02284Y01112*
Y01699*
X02288Y01701*
X02321Y01668*
Y01268*
X02317Y01261*
X02315Y01254*
X02317Y01246*
X02321Y01239*
X02328Y01235*
X02336Y01233*
X02343Y01235*
X0235Y01239*
X02354Y01246*
X02356Y01254*
X02354Y01261*
X02352Y01265*
Y01675*
X02351Y01678*
X02355Y01681*
X02372Y01664*
Y01289*
X0237Y01286*
X02368Y01278*
X0237Y0127*
X02374Y01264*
X02381Y01259*
X02389Y01258*
X02396Y01259*
X02403Y01264*
X02407Y0127*
X02409Y01278*
X02407Y01286*
X02403Y01292*
X02403Y01292*
Y01671*
X02402Y01676*
X02398Y01681*
X02304Y01776*
X02305Y0178*
X02306Y01781*
X02312Y01785*
X02316Y01792*
X02318Y018*
X02316Y01807*
X02312Y01814*
X02305Y01818*
X02299Y01819*
X02296Y01823*
Y01833*
X02337*
X0236Y0181*
X02361Y01804*
X02365Y01797*
X02372Y01793*
X0238Y01791*
X02387Y01793*
X02394Y01797*
X02398Y01804*
X024Y01812*
X02398Y01819*
X02394Y01826*
X02387Y0183*
X02381Y01831*
X02362Y01851*
X02366Y01855*
X02369Y01854*
X02377Y01852*
X02384Y01854*
X02391Y01858*
X02395Y01865*
X02397Y01873*
X02395Y0188*
X02394Y01883*
X02401Y0189*
X02403Y0189*
X0241Y01886*
X02418Y01884*
X02425Y01886*
X02432Y0189*
X02433Y01892*
X02438Y01891*
Y01776*
X02438Y01776*
X02434Y01769*
X02432Y01762*
X02434Y01754*
X02438Y01747*
X02445Y01743*
X02453Y01741*
X0246Y01743*
X02467Y01747*
X02471Y01754*
X02473Y01762*
X02471Y01769*
X02469Y01773*
Y02339*
X02468Y02344*
X02464Y02349*
X02397Y02416*
Y02541*
X02406Y0255*
X0241Y02548*
Y02507*
X02411Y02501*
X02415Y02496*
X02497Y02413*
Y0172*
X02497Y0172*
X02493Y01713*
X02491Y01706*
X02493Y01698*
X02497Y01691*
X02504Y01687*
X02512Y01685*
X02519Y01687*
X02526Y01691*
X0253Y01698*
X02532Y01706*
X0253Y01713*
X02528Y01717*
Y01795*
X0253Y018*
X02533*
X026*
Y01965*
X02533*
X0253*
X02528Y01969*
Y0199*
X0253Y01995*
X02533*
X026*
Y02159*
X02533*
X0253*
X02528Y02164*
Y0242*
X02527Y02425*
X02523Y0243*
X02441Y02513*
Y02585*
X02469Y02613*
X0258Y02503*
Y02455*
X02741*
Y02425*
X0258*
Y02405*
X02571*
X0257Y02405*
X02564Y0241*
X02556Y02411*
X02548Y0241*
X02542Y02405*
X02537Y02399*
X02536Y02391*
X02537Y02383*
X02542Y02377*
X02548Y02372*
X02556Y02371*
X02564Y02372*
X02566Y02374*
X0258*
Y02355*
X02741*
Y02338*
X02738Y02333*
X02736Y02326*
X02738Y02318*
X02742Y02311*
X02749Y02307*
X02757Y02305*
X02764Y02307*
X02771Y02311*
X02775Y02318*
X02777Y02326*
X02775Y02333*
X02772Y02338*
Y02351*
X02775Y02355*
X02777*
X02844*
Y02326*
X02844Y02325*
X02839Y02318*
X02837Y0231*
X02839Y02301*
X02844Y02294*
X02851Y02289*
X0286Y02287*
X02868Y02289*
X02875Y02294*
X0288Y02301*
X02882Y0231*
X0288Y02318*
X02875Y02325*
X02875Y02326*
Y02355*
X02939*
Y02425*
X02777*
X02775*
X02772Y02428*
Y02451*
X02775Y02455*
X02777*
X02852*
Y0249*
Y02525*
X02775*
Y02516*
X0277Y02514*
X02767Y02517*
X02745Y0254*
Y0257*
X02745Y02571*
Y02625*
X0258*
Y02555*
X02714*
Y02534*
X02715Y0253*
X02712Y02525*
X02601*
X0249Y02636*
Y02763*
X02493Y02768*
X02495Y02776*
X02493Y02783*
X02489Y0279*
X02482Y02794*
X02475Y02796*
X02467Y02794*
X0246Y0279*
X02456Y02783*
X02455Y02777*
X0245Y02775*
X02441Y02784*
Y02832*
X02444Y02837*
X02446Y02845*
X02444Y02852*
X0244Y02859*
X02433Y02863*
X02426Y02865*
X02418Y02863*
X02411Y02859*
X02407Y02852*
X02405Y02845*
X02407Y02837*
X0241Y02832*
Y02821*
X02406Y02819*
X02397Y02828*
Y02894*
X02398Y02894*
X02402Y02901*
X02404Y02909*
X02402Y02916*
X02398Y02923*
X02391Y02927*
X02384Y02929*
X02376Y02927*
X02369Y02923*
X02365Y02916*
X02363Y02909*
X02365Y02901*
X02367Y02898*
Y02732*
X02366Y02732*
X02361Y02735*
X0236Y02737*
X02356Y02744*
X02349Y02748*
X02342Y0275*
X02334Y02748*
X02327Y02744*
X02323Y02737*
X02321Y0273*
X02323Y02722*
X02326Y02717*
Y02588*
X023Y02562*
X02296Y02564*
Y02613*
X02299Y02618*
X02301Y02626*
X02299Y02633*
X02295Y0264*
X02288Y02644*
X02281Y02646*
X02273Y02644*
X02266Y0264*
X02262Y02633*
X0226Y02626*
X02262Y02618*
X02265Y02613*
Y02527*
X02242Y02504*
X02208Y02538*
X02207Y02544*
X02203Y02551*
X02196Y02555*
X02189Y02557*
X02181Y02555*
X02174Y02551*
X0217Y02544*
X02168Y02537*
X0217Y02529*
X02174Y02522*
X02181Y02518*
X02187Y02517*
X02216Y02487*
Y02478*
X02212Y02474*
X02208Y02477*
X02208Y02478*
X02206Y02485*
X02202Y02492*
X02195Y02496*
X02188Y02498*
X0218Y02496*
X02173Y02492*
X02169Y02485*
X02167Y02478*
X02169Y0247*
X02171Y02467*
X0217Y02465*
X02165Y02464*
X02164Y02466*
X02157Y0247*
X0215Y02472*
X02142Y0247*
X02135Y02466*
X02131Y02459*
X02129Y02452*
X02131Y02444*
X02131Y02443*
X02129Y02438*
X02121*
X0212Y0244*
X02113Y02444*
X02106Y02446*
X02098Y02444*
X02091Y0244*
X0209Y02438*
X02084*
Y02607*
X02083Y02612*
X02079Y02617*
X01971Y02725*
X01966Y02729*
X01961Y0273*
X01943*
Y02735*
X01866*
Y02715*
X01839Y02688*
X01834Y0269*
Y02717*
X01798*
Y02722*
X01834*
Y02756*
X018*
Y02777*
X01807*
Y02774*
X01858*
Y02795*
X01863*
Y028*
X01884*
Y02815*
X01878*
Y02839*
X01877Y02845*
X01874Y0285*
X01873Y0285*
X01868Y02854*
X01863Y02855*
X01857Y02854*
X01852Y0285*
X01848Y02845*
X01847Y0284*
X01847Y02838*
Y02815*
X01807*
X01803Y02819*
X018Y02824*
X01793Y02829*
X01785Y0283*
X01776Y02829*
X01769Y02824*
X01764Y02817*
X01762Y02808*
X01764Y028*
X01769Y02792*
X0177Y02792*
X01769Y0279*
Y02756*
X01761*
Y02735*
X01744*
X0174Y02736*
X01734Y02734*
X01729Y02731*
X01725Y02726*
X01724Y0272*
Y0272*
X01725Y02714*
X01729Y02709*
X01734Y02705*
X0174Y02704*
X01761*
Y02663*
Y02624*
Y02584*
Y0255*
X01756Y02548*
X01754Y0255*
X01749Y02554*
X01743Y02555*
X0174*
X01734Y02554*
X01729Y0255*
X01725Y02545*
X01724Y0254*
X01725Y02534*
X01729Y02529*
X01734Y02525*
X01735Y02523*
X01732Y02518*
X01699*
X01693Y02517*
X01688Y02514*
X01579Y02404*
X01575Y02399*
X01574Y02393*
Y02236*
X01571Y02231*
X01569Y02224*
X01571Y02216*
X01575Y02209*
X01582Y02205*
X0159Y02203*
X01597Y02205*
X01602Y02208*
X01607Y02207*
X01608Y02206*
X01608Y02205*
X01606Y02202*
X01605Y02194*
X01606Y02186*
X01611Y0218*
X01617Y02175*
X01625Y02174*
X01633Y02175*
X01639Y0218*
X01644Y02186*
X01645Y02194*
X01644Y022*
X01648Y02204*
X01648Y02204*
X01652Y02203*
X01659Y02205*
X01666Y02209*
X0167Y02207*
X01674Y02205*
X01682Y02203*
X01687Y02204*
X01692Y02201*
Y02189*
X01689Y02184*
X01687Y02177*
X01689Y02169*
X0169Y02167*
X01688Y02163*
X01589*
X01585Y02165*
X01578Y02167*
X0157Y02165*
X01563Y02161*
X01559Y02154*
X01557Y02147*
X01559Y02139*
X0156Y02137*
X01558Y02132*
X01558Y02132*
X01551Y02128*
X01547Y02121*
X01545Y02114*
X01547Y02106*
X01551Y02099*
X01558Y02095*
X01566Y02093*
X01573Y02095*
X01576Y02097*
X01761*
Y02086*
X01754*
X01753Y02087*
X01747Y02088*
X01742Y02087*
X01737Y02083*
X01733Y02078*
X01732Y02072*
X01733Y02067*
X01737Y02062*
X01738Y0206*
X01743Y02057*
X01749Y02056*
X01761*
Y02033*
X01813*
X01856Y0199*
X01861Y01986*
X01867Y01985*
X01909*
X01911Y0198*
X01908Y01978*
X01741*
Y02013*
X01641*
Y0202*
X0164Y02026*
X01636Y02031*
X01629Y02038*
X01629Y0204*
X01625Y02045*
X0162Y02049*
X01615Y0205*
X01609Y02049*
X01604Y02045*
X016Y0204*
X016Y02038*
X01595Y02033*
X01592Y02028*
X01591Y02022*
Y02013*
X01524*
Y02024*
X01524Y02024*
X01528Y02031*
X0153Y02039*
X01528Y02046*
X01524Y02053*
X01517Y02057*
X0151Y02059*
X01502Y02057*
X01495Y02053*
X01491Y02046*
X01489Y02039*
X01491Y02031*
X01493Y02027*
Y02013*
X01464*
Y02048*
X01463Y02054*
X01459Y02059*
X01457Y02062*
X01458Y02066*
X01459Y02067*
X01465Y02071*
X01469Y02078*
X01471Y02086*
X01469Y02093*
X01465Y021*
X01465Y021*
Y02412*
X01467Y02413*
X0147Y02414*
X01476Y0241*
X01484Y02408*
X01491Y0241*
X01498Y02414*
X01502Y02421*
X01504Y02429*
X01502Y02436*
X01499Y02441*
Y02621*
X01587Y02709*
X01591Y02707*
Y02674*
X01523Y02605*
X01519Y026*
X01518Y02595*
Y02478*
X01515Y02473*
X01513Y02466*
X01515Y02458*
X01519Y02451*
X01526Y02447*
X01534Y02445*
X01541Y02447*
X01548Y02451*
X01552Y02458*
X01554Y02466*
X01552Y02473*
X01549Y02478*
Y02588*
X01607Y02646*
X01611Y02644*
Y02634*
X01573Y02595*
X01569Y0259*
X01568Y02585*
Y02514*
X01565Y02509*
X01563Y02502*
X01565Y02494*
X01569Y02487*
X01576Y02483*
X01584Y02481*
X01591Y02483*
X01598Y02487*
X01602Y02494*
X01604Y02502*
X01602Y02509*
X01599Y02514*
Y02578*
X01632Y02611*
X01639Y02611*
X01675Y02576*
X01676Y0257*
X0168Y02563*
X01687Y02559*
X01695Y02557*
X01702Y02559*
X01709Y02563*
X01713Y0257*
X01715Y02578*
X01713Y02585*
X01709Y02592*
X01702Y02596*
X01696Y02597*
X01662Y02632*
Y02668*
X01666Y0267*
X01712Y02625*
X01713Y02619*
X01717Y02612*
X01724Y02608*
X01732Y02606*
X01739Y02608*
X01746Y02612*
X0175Y02619*
X01752Y02627*
X0175Y02634*
X01746Y02641*
X01739Y02645*
X01733Y02646*
X01682Y02698*
Y02731*
X01684Y02732*
X01687Y02733*
X01693Y02729*
X01701Y02727*
X01708Y02729*
X01715Y02733*
X01719Y0274*
X01721Y02748*
X01719Y02755*
X01715Y02762*
X01714Y02762*
Y02763*
X01713Y02769*
X01711Y02771*
X01714Y02776*
X01741*
Y02813*
X01741Y02815*
Y02828*
X01764Y0285*
X01765Y0285*
X01772Y02852*
X01779Y02856*
X01783Y02863*
X01785Y02871*
X01783Y02878*
X01779Y02885*
X01772Y02889*
X01765Y02891*
X01757Y02889*
X0175Y02885*
X01746Y02878*
X01745Y02875*
X01726Y02857*
X01722Y02858*
Y02883*
X01725Y02888*
X01727Y02896*
X01725Y02903*
X01721Y0291*
X01714Y02914*
X01707Y02916*
X01699Y02914*
X01692Y0291*
X01688Y02903*
X01686Y02896*
X01688Y02888*
X01691Y02883*
Y02849*
X01535*
X01531Y02854*
X01532Y0286*
X01531Y02864*
X0153Y02869*
Y02906*
X01541*
X01544Y02905*
X0155Y02904*
X01555Y02905*
X0156Y02908*
X01564Y02913*
X01565Y02919*
X01564Y02925*
X0156Y0293*
X01558Y02932*
X01553Y02936*
X01547Y02937*
X0153*
Y02946*
X01515*
Y02925*
X0151*
Y0292*
X01489*
Y02904*
Y02869*
X01488Y02864*
X01487Y0286*
X01488Y02854*
X01484Y02849*
X01426*
Y02858*
X01426Y02858*
X0143Y02865*
X01432Y02873*
X0143Y0288*
X01426Y02887*
X01419Y02891*
X01412Y02893*
X01404Y02891*
X01401Y02889*
X01396Y02892*
Y02938*
X01399Y02943*
X01401Y02951*
X01399Y02958*
X01395Y02965*
X01388Y02969*
X01381Y02971*
X01373Y02969*
X01366Y02965*
X01362Y02958*
X0136Y02951*
X01362Y02943*
X01365Y02938*
Y02871*
X01366Y02865*
X0137Y0286*
X01372Y02857*
Y02849*
X01329*
Y02859*
X0133Y02865*
X01329Y0287*
X01325Y02875*
X0132Y02879*
X01315Y0288*
X01309Y02879*
X01304Y02875*
X01303Y02874*
X013Y02871*
X01295Y02872*
Y02906*
X01306*
X01309Y02905*
X01315Y02904*
X0132Y02905*
X01325Y02908*
X01329Y02913*
X0133Y02919*
X01329Y02925*
X01325Y0293*
X01323Y02932*
X01318Y02936*
X01312Y02937*
X01295*
Y02946*
X0128*
Y02925*
X01275*
Y0292*
X01254*
Y02904*
Y02869*
X01254Y02868*
X01253Y02861*
X01254Y02854*
X01251Y02849*
X01209*
X01207Y02854*
X01222Y02869*
X01242*
Y02904*
Y02946*
X01237*
Y02957*
X01241Y02963*
X01243Y02971*
X01241Y02978*
X01237Y02985*
X0123Y02989*
X0123Y02989*
X0123Y02994*
X01934*
X01939Y02995*
X01943Y02998*
X01997Y03052*
X0284*
X02845Y03053*
X0285Y03056*
X03037Y03244*
X0304Y03248*
X03041Y03253*
Y03268*
X03056*
X03063Y03261*
X03062Y0326*
X03064Y03251*
X03069Y03244*
X03076Y03239*
X03085Y03237*
X03093Y03239*
X031Y03244*
X03105Y03251*
X03107Y0326*
X03105Y03268*
X031Y03275*
X03093Y0328*
X03086Y03282*
X03078Y03289*
Y03333*
X03083Y03334*
X03084Y03332*
X03088Y03326*
X03093Y03322*
X031Y03319*
X03106Y03319*
X03113Y03319*
X03116Y0332*
X03121Y03317*
Y0328*
X03122Y03271*
X03125Y03263*
X03131Y03256*
X03138Y0325*
X03146Y03247*
X03155Y03246*
X03163Y03247*
X03172Y0325*
X03179Y03256*
X03184Y03263*
X03187Y03271*
X03188Y0328*
Y03327*
X03187Y03336*
X03184Y03344*
X03179Y03351*
X03172Y03356*
X03163Y0336*
X03155Y03361*
X03146Y0336*
X03138Y03356*
X03135Y03354*
X0313Y03355*
X03129Y03357*
X03125Y03363*
X03119Y03367*
X03113Y0337*
X03106Y0337*
G37*
G36*
X02023Y03312D02*
X02012Y03311D01*
X02002Y03307*
X01993Y033*
X01986Y03291*
X01982Y03281*
X0198Y0327*
X01982Y03258*
X01986Y03248*
X01993Y03239*
X02002Y03232*
X02012Y03228*
X02023Y03227*
X02034Y03228*
X02045Y03232*
X02054Y03239*
X0206Y03248*
X02065Y03258*
X02066Y0327*
X02065Y03281*
X0206Y03291*
X02054Y033*
X02045Y03307*
X02034Y03311*
X02023Y03312*
G37*
G36*
X01915D02*
X01904Y03311D01*
X01894Y03307*
X01885Y033*
X01878Y03291*
X01874Y03281*
X01873Y0327*
X01874Y03258*
X01878Y03248*
X01885Y03239*
X01894Y03232*
X01904Y03228*
X01915Y03227*
X01926Y03228*
X01937Y03232*
X01946Y03239*
X01952Y03248*
X01957Y03258*
X01958Y0327*
X01957Y03281*
X01952Y03291*
X01946Y033*
X01937Y03307*
X01926Y03311*
X01915Y03312*
G37*
G36*
X01206Y03242D02*
X01191D01*
Y03226*
X01206*
Y03242*
G37*
G36*
X01181D02*
X01165D01*
Y03226*
X01181*
Y03242*
G37*
G36*
X01807Y03312D02*
X01796Y03311D01*
X01786Y03307*
X01777Y033*
X0177Y03291*
X01766Y03281*
X01765Y0327*
X01766Y03258*
X0177Y03248*
X01777Y03239*
X01785Y03233*
Y0322*
X01785Y03217*
X01785Y03217*
X01781Y03215*
X01773Y03207*
X01765Y03211*
X01754Y03212*
X01742Y03211*
X01732Y03207*
X01723Y032*
X01716Y03191*
X01712Y03181*
X01711Y0317*
X01712Y03158*
X01716Y03148*
X01723Y03139*
X01732Y03132*
X01742Y03128*
X01754Y03127*
X01765Y03128*
X01775Y03132*
X01778Y03128*
X01765Y03116*
X013*
X01232Y03184*
X01202Y03215*
X01197Y03218*
X01193Y03219*
X01096*
Y03245*
X01018*
Y03204*
X01045*
X01045Y03204*
X01048Y032*
X01048Y032*
X01048Y03199*
X01045Y03195*
X01045Y03195*
X01018*
Y03154*
X01096*
Y0318*
X01182*
X01209Y03154*
X01281Y03082*
X01285Y03079*
X0129Y03078*
X01776*
X01781Y03079*
X01785Y03082*
X01818Y03115*
X01821Y03119*
X01822Y03124*
Y03143*
X01827Y03144*
X01831Y03139*
X0184Y03132*
X0185Y03128*
X01856Y03127*
Y0317*
Y03212*
X0185Y03211*
X0184Y03207*
X01831Y032*
X01827Y03195*
X01822Y03196*
Y03208*
X01821Y03213*
X01818Y03217*
X01813Y03222*
X01815Y03228*
X01819Y03228*
X01829Y03232*
X01838Y03239*
X01845Y03248*
X01849Y03258*
X0185Y0327*
X01849Y03281*
X01845Y03291*
X01838Y033*
X01829Y03307*
X01819Y03311*
X01807Y03312*
G37*
G36*
X01974Y03212D02*
Y03175D01*
X02012*
X02011Y03181*
X02006Y03191*
X02Y032*
X01991Y03207*
X0198Y03211*
X01974Y03212*
G37*
G36*
X01866D02*
Y03175D01*
X01904*
X01903Y03181*
X01899Y03191*
X01892Y032*
X01883Y03207*
X01873Y03211*
X01866Y03212*
G37*
G36*
X01964D02*
X01958Y03211D01*
X01948Y03207*
X01939Y032*
X01932Y03191*
X01928Y03181*
X01927Y03175*
X01964*
Y03212*
G37*
G36*
X00227Y03455D02*
X00176D01*
Y03414*
X00183*
Y03408*
X0018Y03405*
X00158Y03403*
X00138Y03398*
X00118Y0339*
X001Y03379*
X00084Y03365*
X0007Y03349*
X00059Y03331*
X00051Y03311*
X00046Y03291*
X00044Y0327*
X00046Y03248*
X00051Y03228*
X00059Y03208*
X0007Y0319*
X00084Y03174*
X001Y0316*
X00118Y03149*
X00138Y03141*
X00158Y03136*
X0018Y03134*
X00201Y03136*
X00221Y03141*
X00241Y03149*
X00259Y0316*
X00275Y03174*
X00289Y0319*
X003Y03208*
X00308Y03228*
X00313Y03248*
X00315Y0327*
X00313Y03291*
X00308Y03311*
X003Y03331*
X00289Y03349*
X00275Y03365*
X00259Y03379*
X00241Y0339*
X00221Y03398*
X00213Y034*
Y03414*
X00227*
Y03435*
Y03455*
G37*
G36*
X02353Y03306D02*
X02337Y03304D01*
X0232Y03299*
X02305Y03291*
X02292Y03281*
X02282Y03268*
X02274Y03253*
X02269Y03236*
X02267Y0322*
X02269Y03203*
X02274Y03186*
X02282Y03171*
X02292Y03158*
X02305Y03148*
X0232Y0314*
X02337Y03135*
X02353Y03133*
X0237Y03135*
X02386Y0314*
X02401Y03148*
X02414Y03158*
X02425Y03171*
X02433Y03186*
X02438Y03203*
X0244Y0322*
X02438Y03236*
X02433Y03253*
X02425Y03268*
X02414Y03281*
X02401Y03291*
X02386Y03299*
X0237Y03304*
X02353Y03306*
G37*
G36*
X02012Y03165D02*
X01974D01*
Y03127*
X0198Y03128*
X01991Y03132*
X02Y03139*
X02006Y03148*
X02011Y03158*
X02012Y03165*
G37*
G36*
X01904D02*
X01866D01*
Y03127*
X01873Y03128*
X01883Y03132*
X01892Y03139*
X01899Y03148*
X01903Y03158*
X01904Y03165*
G37*
G36*
X01964D02*
X01927D01*
X01928Y03158*
X01932Y03148*
X01939Y03139*
X01948Y03132*
X01958Y03128*
X01964Y03127*
Y03165*
G37*
G36*
X02077Y03212D02*
X02066Y03211D01*
X02056Y03207*
X02047Y032*
X0204Y03191*
X02036Y03181*
X02034Y0317*
X02036Y03158*
X0204Y03148*
X02047Y03139*
X02056Y03132*
X02066Y03128*
X02077Y03127*
X02088Y03128*
X02099Y03132*
X02107Y03139*
X02114Y03148*
X02119Y03158*
X0212Y0317*
X02119Y03181*
X02114Y03191*
X02107Y032*
X02099Y03207*
X02088Y03211*
X02077Y03212*
G37*
G36*
X00785Y03134D02*
X0077D01*
Y03118*
X00785*
Y03134*
G37*
G36*
X0076D02*
X00744D01*
Y03118*
X0076*
Y03134*
G37*
G36*
X00535Y03127D02*
X00526Y03125D01*
X00519Y0312*
X00515Y03115*
X00475*
Y0312*
X00434*
Y03079*
Y03069*
X00475*
Y03084*
X00516*
Y03019*
X00543*
Y03011*
X0052Y02987*
X00514Y02986*
X00507Y02982*
X00503Y02975*
X00501Y02968*
X00503Y0296*
X00507Y02953*
X00514Y02949*
X00522Y02947*
X00529Y02949*
X00536Y02953*
X0054Y0296*
X00541Y02965*
X00544Y02966*
X00549Y02964*
Y02923*
X00554*
Y02917*
X00551Y02912*
X00549Y02905*
X00551Y02897*
X00555Y0289*
X00562Y02886*
X0057Y02884*
X00577Y02886*
X00584Y0289*
X00588Y02897*
X0059Y02905*
X00588Y02912*
X00585Y02917*
Y02923*
X0059*
Y02959*
Y02979*
X00595Y02983*
X00598Y02988*
X00599Y02988*
X00603Y0299*
X00614Y02979*
Y02959*
Y02923*
X00619*
Y02917*
X00616Y02912*
X00614Y02905*
X00616Y02897*
X0062Y0289*
X00627Y02886*
X00635Y02884*
X00642Y02886*
X00649Y0289*
X00653Y02897*
X00655Y02905*
X00653Y02912*
X0065Y02917*
Y02923*
X00655*
Y02959*
Y02989*
X00671*
X00672Y02988*
X00677Y02984*
X00683Y02983*
X00702*
X00705Y02982*
X00713Y0298*
X0072Y02982*
X00727Y02986*
X00731Y02993*
X00733Y03*
X00731Y03008*
X00727Y03015*
X0072Y03019*
X00713Y03021*
X00708Y0302*
X00703Y03024*
Y03051*
X00686*
Y03056*
X00681*
Y03094*
X00559*
X00556Y03099*
X00557Y03105*
X00555Y03113*
X0055Y0312*
X00543Y03125*
X00535Y03127*
G37*
G36*
X01096Y03145D02*
X01018D01*
Y03104*
X01096*
Y03145*
G37*
G36*
X00703Y03094D02*
X00691D01*
Y03061*
X00703*
Y03094*
G37*
G36*
X00475Y03059D02*
X0046D01*
Y03043*
X00475*
Y03059*
G37*
G36*
X0045D02*
X00434D01*
Y03043*
X0045*
Y03059*
G37*
G36*
X02245Y0304D02*
X02225D01*
Y0302*
X02245*
Y0304*
G37*
G36*
X02215D02*
X02194D01*
Y0302*
X02215*
Y0304*
G37*
G36*
X03511Y03086D02*
X03438D01*
Y03013*
X03511*
Y03086*
G37*
G36*
X03311D02*
X03238D01*
Y03013*
X03311*
Y03086*
G37*
G36*
X03575Y03087D02*
X03565Y03086D01*
X03556Y03082*
X03548Y03076*
X03542Y03068*
X03538Y03059*
X03537Y0305*
X03538Y0304*
X03542Y03031*
X03548Y03023*
X03556Y03017*
X03565Y03013*
X03575Y03012*
X03584Y03013*
X03593Y03017*
X03601Y03023*
X03607Y03031*
X03611Y0304*
X03612Y0305*
X03611Y03059*
X03607Y03068*
X03601Y03076*
X03593Y03082*
X03584Y03086*
X03575Y03087*
G37*
G36*
X03375D02*
X03365Y03086D01*
X03356Y03082*
X03348Y03076*
X03342Y03068*
X03338Y03059*
X03337Y0305*
X03338Y0304*
X03342Y03031*
X03348Y03023*
X03356Y03017*
X03365Y03013*
X03375Y03012*
X03384Y03013*
X03393Y03017*
X03401Y03023*
X03407Y03031*
X03411Y0304*
X03412Y0305*
X03411Y03059*
X03407Y03068*
X03401Y03076*
X03393Y03082*
X03384Y03086*
X03375Y03087*
G37*
G36*
X02245Y0301D02*
X02225D01*
Y02989*
X02245*
Y0301*
G37*
G36*
X02215D02*
X02194D01*
Y02989*
X02215*
Y0301*
G37*
G36*
X02305Y03008D02*
X02264D01*
Y02967*
X02245*
Y02975*
X02194*
Y02924*
X02245*
Y02936*
X02264*
Y02931*
X02305*
Y02971*
X02313*
X02314Y02969*
X02321Y02964*
X0233Y02962*
X02338Y02964*
X02345Y02969*
X0235Y02976*
X02352Y02985*
X0235Y02993*
X02345Y03*
X02338Y03005*
X0233Y03007*
X02321Y03005*
X02315Y03001*
X02305*
Y03008*
G37*
G36*
X02065Y0298D02*
X02045D01*
Y0296*
X02065*
Y0298*
G37*
G36*
X02035D02*
X02014D01*
Y0296*
X02035*
Y0298*
G37*
G36*
X02538Y02988D02*
X0253Y02986D01*
X02523Y02982*
X02519Y02975*
X02517Y02968*
X02519Y0296*
X02523Y02953*
X0253Y02949*
X02538Y02947*
X02545Y02949*
X02552Y02953*
X02556Y0296*
X02558Y02968*
X02556Y02975*
X02552Y02982*
X02545Y02986*
X02538Y02988*
G37*
G36*
X01911D02*
X01903Y02986D01*
X01896Y02982*
X01892Y02975*
X0189Y02968*
X01892Y0296*
X01896Y02953*
X01903Y02949*
X01911Y02947*
X01918Y02949*
X01925Y02953*
X01929Y0296*
X01931Y02968*
X01929Y02975*
X01925Y02982*
X01918Y02986*
X01911Y02988*
G37*
G36*
X01085Y02956D02*
X0107D01*
Y0294*
X01085*
Y02956*
G37*
G36*
X0106D02*
X01044D01*
Y0294*
X0106*
Y02956*
G37*
G36*
X01505Y02946D02*
X01489D01*
Y0293*
X01505*
Y02946*
G37*
G36*
X0127D02*
X01254D01*
Y0293*
X0127*
Y02946*
G37*
G36*
X02065Y0295D02*
X02045D01*
Y02929*
X02065*
Y0295*
G37*
G36*
X02035D02*
X02014D01*
Y02929*
X02035*
Y0295*
G37*
G36*
X03575Y02987D02*
X03565Y02986D01*
X03556Y02982*
X03548Y02976*
X03542Y02968*
X03538Y02959*
X03537Y0295*
X03538Y0294*
X03542Y02931*
X03548Y02923*
X03556Y02917*
X03565Y02913*
X03575Y02912*
X03584Y02913*
X03593Y02917*
X03601Y02923*
X03607Y02931*
X03611Y0294*
X03612Y0295*
X03611Y02959*
X03607Y02968*
X03601Y02976*
X03593Y02982*
X03584Y02986*
X03575Y02987*
G37*
G36*
X03475D02*
X03465Y02986D01*
X03456Y02982*
X03448Y02976*
X03442Y02968*
X03438Y02959*
X03437Y0295*
X03438Y0294*
X03442Y02931*
X03448Y02923*
X03456Y02917*
X03465Y02913*
X03475Y02912*
X03484Y02913*
X03493Y02917*
X03501Y02923*
X03507Y02931*
X03511Y0294*
X03512Y0295*
X03511Y02959*
X03507Y02968*
X03501Y02976*
X03493Y02982*
X03484Y02986*
X03475Y02987*
G37*
G36*
X03375D02*
X03365Y02986D01*
X03356Y02982*
X03348Y02976*
X03342Y02968*
X03338Y02959*
X03337Y0295*
X03338Y0294*
X03342Y02931*
X03348Y02923*
X03356Y02917*
X03365Y02913*
X03375Y02912*
X03384Y02913*
X03393Y02917*
X03401Y02923*
X03407Y02931*
X03411Y0294*
X03412Y0295*
X03411Y02959*
X03407Y02968*
X03401Y02976*
X03393Y02982*
X03384Y02986*
X03375Y02987*
G37*
G36*
X03275D02*
X03265Y02986D01*
X03256Y02982*
X03248Y02976*
X03242Y02968*
X03238Y02959*
X03237Y0295*
X03238Y0294*
X03242Y02931*
X03248Y02923*
X03256Y02917*
X03265Y02913*
X03275Y02912*
X03284Y02913*
X03293Y02917*
X03301Y02923*
X03307Y02931*
X03311Y0294*
X03312Y0295*
X03311Y02959*
X03307Y02968*
X03301Y02976*
X03293Y02982*
X03284Y02986*
X03275Y02987*
G37*
G36*
X02105Y02992D02*
X02096Y0299D01*
X02089Y02985*
X02084Y02978*
X02082Y0297*
X02084Y02961*
X02088Y02955*
X02086Y02951*
X02086Y0295*
X02084*
Y02909*
X02065*
Y02915*
X02014*
Y02864*
X02065*
Y02879*
X02084*
Y02873*
X02125*
Y02909*
Y0295*
X02123*
X02123Y02951*
X02121Y02955*
X02125Y02961*
X02127Y0297*
X02125Y02978*
X0212Y02985*
X02113Y0299*
X02105Y02992*
G37*
G36*
X003Y0294D02*
X00291Y02939D01*
X00283Y02936*
X00276Y02931*
X00271Y02924*
X00268Y02916*
X00267Y02907*
X00268Y02899*
X00271Y02891*
X00276Y02884*
X00283Y02878*
X00291Y02875*
X003Y02874*
X00308Y02875*
X00316Y02878*
X00323Y02884*
X00328Y02891*
X00332Y02899*
X00333Y02907*
X00332Y02916*
X00328Y02924*
X00323Y02931*
X00316Y02936*
X00308Y02939*
X003Y0294*
G37*
G36*
X03575Y02887D02*
X03565Y02886D01*
X03556Y02882*
X03548Y02876*
X03542Y02868*
X03538Y02859*
X03537Y0285*
X03538Y0284*
X03542Y02831*
X03548Y02823*
X03556Y02817*
X03565Y02813*
X03575Y02812*
X03584Y02813*
X03593Y02817*
X03601Y02823*
X03607Y02831*
X03611Y0284*
X03612Y0285*
X03611Y02859*
X03607Y02868*
X03601Y02876*
X03593Y02882*
X03584Y02886*
X03575Y02887*
G37*
G36*
X03475D02*
X03465Y02886D01*
X03456Y02882*
X03448Y02876*
X03442Y02868*
X03438Y02859*
X03437Y0285*
X03438Y0284*
X03442Y02831*
X03448Y02823*
X03456Y02817*
X03465Y02813*
X03475Y02812*
X03484Y02813*
X03493Y02817*
X03501Y02823*
X03507Y02831*
X03511Y0284*
X03512Y0285*
X03511Y02859*
X03507Y02868*
X03501Y02876*
X03493Y02882*
X03484Y02886*
X03475Y02887*
G37*
G36*
X03375D02*
X03365Y02886D01*
X03356Y02882*
X03348Y02876*
X03342Y02868*
X03338Y02859*
X03337Y0285*
X03338Y0284*
X03342Y02831*
X03348Y02823*
X03356Y02817*
X03365Y02813*
X03375Y02812*
X03384Y02813*
X03393Y02817*
X03401Y02823*
X03407Y02831*
X03411Y0284*
X03412Y0285*
X03411Y02859*
X03407Y02868*
X03401Y02876*
X03393Y02882*
X03384Y02886*
X03375Y02887*
G37*
G36*
X03275D02*
X03265Y02886D01*
X03256Y02882*
X03248Y02876*
X03242Y02868*
X03238Y02859*
X03237Y0285*
X03238Y0284*
X03242Y02831*
X03248Y02823*
X03256Y02817*
X03265Y02813*
X03275Y02812*
X03284Y02813*
X03293Y02817*
X03301Y02823*
X03307Y02831*
X03311Y0284*
X03312Y0285*
X03311Y02859*
X03307Y02868*
X03301Y02876*
X03293Y02882*
X03284Y02886*
X03275Y02887*
G37*
G36*
X00484Y02822D02*
X00315D01*
Y02809*
X0031Y02807*
X00307Y02808*
X003Y0281*
X00292Y02808*
X0029Y02807*
X00285Y02809*
Y02822*
X00115*
Y02762*
X00285*
Y0277*
X0029Y02772*
X00292Y02771*
X003Y02769*
X00307Y02771*
X0031Y02772*
X00315Y0277*
Y02762*
X00484*
Y02776*
X00503*
X00508Y02773*
X00516Y02771*
X00523Y02773*
X0053Y02777*
X00534Y02784*
X00536Y02792*
X00534Y02799*
X0053Y02806*
X00523Y0281*
X00516Y02812*
X00508Y0281*
X00503Y02807*
X00484*
Y02822*
G37*
G36*
X02939Y02825D02*
X02862D01*
Y02795*
X02939*
Y02825*
G37*
G36*
X02852D02*
X02775D01*
Y02795*
X02852*
Y02825*
G37*
G36*
X01884Y0279D02*
X01868D01*
Y02774*
X01884*
Y0279*
G37*
G36*
X02939Y02785D02*
X02862D01*
Y02755*
X02939*
Y02785*
G37*
G36*
X02852D02*
X02775D01*
Y02755*
X02852*
Y02785*
G37*
G36*
X02745Y02825D02*
X0258D01*
Y02805*
X02557*
X02551Y02804*
X02546Y028*
X02511Y02765*
X02507Y0276*
X02506Y02755*
Y02692*
X02503Y02687*
X02501Y0268*
X02503Y02672*
X02507Y02665*
X02514Y02661*
X02522Y02659*
X02529Y02661*
X02536Y02665*
X0254Y02672*
X02542Y0268*
X0254Y02687*
X02537Y02692*
Y02748*
X02563Y02774*
X0258*
Y02755*
X02745*
Y02825*
G37*
G36*
X03575Y02787D02*
X03565Y02786D01*
X03556Y02782*
X03548Y02776*
X03542Y02768*
X03538Y02759*
X03537Y0275*
X03538Y0274*
X03542Y02731*
X03548Y02723*
X03556Y02717*
X03565Y02713*
X03575Y02712*
X03584Y02713*
X03593Y02717*
X03601Y02723*
X03607Y02731*
X03611Y0274*
X03612Y0275*
X03611Y02759*
X03607Y02768*
X03601Y02776*
X03593Y02782*
X03584Y02786*
X03575Y02787*
G37*
G36*
X03475D02*
X03465Y02786D01*
X03456Y02782*
X03448Y02776*
X03442Y02768*
X03438Y02759*
X03437Y0275*
X03438Y0274*
X03442Y02731*
X03448Y02723*
X03456Y02717*
X03465Y02713*
X03475Y02712*
X03484Y02713*
X03493Y02717*
X03501Y02723*
X03507Y02731*
X03511Y0274*
X03512Y0275*
X03511Y02759*
X03507Y02768*
X03501Y02776*
X03493Y02782*
X03484Y02786*
X03475Y02787*
G37*
G36*
X03375D02*
X03365Y02786D01*
X03356Y02782*
X03348Y02776*
X03342Y02768*
X03338Y02759*
X03337Y0275*
X03338Y0274*
X03342Y02731*
X03348Y02723*
X03356Y02717*
X03365Y02713*
X03375Y02712*
X03384Y02713*
X03393Y02717*
X03401Y02723*
X03407Y02731*
X03411Y0274*
X03412Y0275*
X03411Y02759*
X03407Y02768*
X03401Y02776*
X03393Y02782*
X03384Y02786*
X03375Y02787*
G37*
G36*
X03275D02*
X03265Y02786D01*
X03256Y02782*
X03248Y02776*
X03242Y02768*
X03238Y02759*
X03237Y0275*
X03238Y0274*
X03242Y02731*
X03248Y02723*
X03256Y02717*
X03265Y02713*
X03275Y02712*
X03284Y02713*
X03293Y02717*
X03301Y02723*
X03307Y02731*
X03311Y0274*
X03312Y0275*
X03311Y02759*
X03307Y02768*
X03301Y02776*
X03293Y02782*
X03284Y02786*
X03275Y02787*
G37*
G36*
X02939Y02725D02*
X02775D01*
Y02655*
X02939*
Y02725*
G37*
G36*
X02745D02*
X0258D01*
Y02655*
X02745*
Y02725*
G37*
G36*
X03575Y02687D02*
X03565Y02686D01*
X03556Y02682*
X03548Y02676*
X03542Y02668*
X03538Y02659*
X03537Y0265*
X03538Y0264*
X03542Y02631*
X03548Y02623*
X03556Y02617*
X03565Y02613*
X03575Y02612*
X03584Y02613*
X03593Y02617*
X03601Y02623*
X03607Y02631*
X03611Y0264*
X03612Y0265*
X03611Y02659*
X03607Y02668*
X03601Y02676*
X03593Y02682*
X03584Y02686*
X03575Y02687*
G37*
G36*
X03475D02*
X03465Y02686D01*
X03456Y02682*
X03448Y02676*
X03442Y02668*
X03438Y02659*
X03437Y0265*
X03438Y0264*
X03442Y02631*
X03448Y02623*
X03456Y02617*
X03465Y02613*
X03475Y02612*
X03484Y02613*
X03493Y02617*
X03501Y02623*
X03507Y02631*
X03511Y0264*
X03512Y0265*
X03511Y02659*
X03507Y02668*
X03501Y02676*
X03493Y02682*
X03484Y02686*
X03475Y02687*
G37*
G36*
X03375D02*
X03365Y02686D01*
X03356Y02682*
X03348Y02676*
X03342Y02668*
X03338Y02659*
X03337Y0265*
X03338Y0264*
X03342Y02631*
X03348Y02623*
X03356Y02617*
X03365Y02613*
X03375Y02612*
X03384Y02613*
X03393Y02617*
X03401Y02623*
X03407Y02631*
X03411Y0264*
X03412Y0265*
X03411Y02659*
X03407Y02668*
X03401Y02676*
X03393Y02682*
X03384Y02686*
X03375Y02687*
G37*
G36*
X03275D02*
X03265Y02686D01*
X03256Y02682*
X03248Y02676*
X03242Y02668*
X03238Y02659*
X03237Y0265*
X03238Y0264*
X03242Y02631*
X03248Y02623*
X03256Y02617*
X03265Y02613*
X03275Y02612*
X03284Y02613*
X03293Y02617*
X03301Y02623*
X03307Y02631*
X03311Y0264*
X03312Y0265*
X03311Y02659*
X03307Y02668*
X03301Y02676*
X03293Y02682*
X03284Y02686*
X03275Y02687*
G37*
G36*
X02939Y02625D02*
X02862D01*
Y02595*
X02939*
Y02625*
G37*
G36*
X02852D02*
X02775D01*
Y02595*
X02852*
Y02625*
G37*
G36*
X02939Y02585D02*
X02862D01*
Y02555*
X02939*
Y02585*
G37*
G36*
X02852D02*
X02775D01*
Y02555*
X02852*
Y02585*
G37*
G36*
X03575Y02587D02*
X03565Y02586D01*
X03556Y02582*
X03548Y02576*
X03542Y02568*
X03538Y02559*
X03537Y0255*
X03538Y0254*
X03542Y02531*
X03548Y02523*
X03556Y02517*
X03565Y02513*
X03575Y02512*
X03584Y02513*
X03593Y02517*
X03601Y02523*
X03607Y02531*
X03611Y0254*
X03612Y0255*
X03611Y02559*
X03607Y02568*
X03601Y02576*
X03593Y02582*
X03584Y02586*
X03575Y02587*
G37*
G36*
X03475D02*
X03465Y02586D01*
X03456Y02582*
X03448Y02576*
X03442Y02568*
X03438Y02559*
X03437Y0255*
X03438Y0254*
X03442Y02531*
X03448Y02523*
X03456Y02517*
X03465Y02513*
X03475Y02512*
X03484Y02513*
X03493Y02517*
X03501Y02523*
X03507Y02531*
X03511Y0254*
X03512Y0255*
X03511Y02559*
X03507Y02568*
X03501Y02576*
X03493Y02582*
X03484Y02586*
X03475Y02587*
G37*
G36*
X03375D02*
X03365Y02586D01*
X03356Y02582*
X03348Y02576*
X03342Y02568*
X03338Y02559*
X03337Y0255*
X03338Y0254*
X03342Y02531*
X03348Y02523*
X03356Y02517*
X03365Y02513*
X03375Y02512*
X03384Y02513*
X03393Y02517*
X03401Y02523*
X03407Y02531*
X03411Y0254*
X03412Y0255*
X03411Y02559*
X03407Y02568*
X03401Y02576*
X03393Y02582*
X03384Y02586*
X03375Y02587*
G37*
G36*
X03275D02*
X03265Y02586D01*
X03256Y02582*
X03248Y02576*
X03242Y02568*
X03238Y02559*
X03237Y0255*
X03238Y0254*
X03242Y02531*
X03248Y02523*
X03256Y02517*
X03265Y02513*
X03275Y02512*
X03284Y02513*
X03293Y02517*
X03301Y02523*
X03307Y02531*
X03311Y0254*
X03312Y0255*
X03311Y02559*
X03307Y02568*
X03301Y02576*
X03293Y02582*
X03284Y02586*
X03275Y02587*
G37*
G36*
X02939Y02525D02*
X02862D01*
Y02495*
X02939*
Y02525*
G37*
G36*
Y02485D02*
X02862D01*
Y02455*
X02939*
Y02485*
G37*
G36*
X03575Y02487D02*
X03565Y02486D01*
X03556Y02482*
X03548Y02476*
X03542Y02468*
X03538Y02459*
X03537Y0245*
X03538Y0244*
X03542Y02431*
X03548Y02423*
X03556Y02417*
X03565Y02413*
X03575Y02412*
X03584Y02413*
X03593Y02417*
X03601Y02423*
X03607Y02431*
X03611Y0244*
X03612Y0245*
X03611Y02459*
X03607Y02468*
X03601Y02476*
X03593Y02482*
X03584Y02486*
X03575Y02487*
G37*
G36*
X03475D02*
X03465Y02486D01*
X03456Y02482*
X03448Y02476*
X03442Y02468*
X03438Y02459*
X03437Y0245*
X03438Y0244*
X03442Y02431*
X03448Y02423*
X03456Y02417*
X03465Y02413*
X03475Y02412*
X03484Y02413*
X03493Y02417*
X03501Y02423*
X03507Y02431*
X03511Y0244*
X03512Y0245*
X03511Y02459*
X03507Y02468*
X03501Y02476*
X03493Y02482*
X03484Y02486*
X03475Y02487*
G37*
G36*
X03375D02*
X03365Y02486D01*
X03356Y02482*
X03348Y02476*
X03342Y02468*
X03338Y02459*
X03337Y0245*
X03338Y0244*
X03342Y02431*
X03348Y02423*
X03356Y02417*
X03365Y02413*
X03375Y02412*
X03384Y02413*
X03393Y02417*
X03401Y02423*
X03407Y02431*
X03411Y0244*
X03412Y0245*
X03411Y02459*
X03407Y02468*
X03401Y02476*
X03393Y02482*
X03384Y02486*
X03375Y02487*
G37*
G36*
X03275D02*
X03265Y02486D01*
X03256Y02482*
X03248Y02476*
X03242Y02468*
X03238Y02459*
X03237Y0245*
X03238Y0244*
X03242Y02431*
X03248Y02423*
X03256Y02417*
X03265Y02413*
X03275Y02412*
X03284Y02413*
X03293Y02417*
X03301Y02423*
X03307Y02431*
X03311Y0244*
X03312Y0245*
X03311Y02459*
X03307Y02468*
X03301Y02476*
X03293Y02482*
X03284Y02486*
X03275Y02487*
G37*
G36*
X00484Y0235D02*
X00405D01*
Y02325*
X00484*
Y0235*
G37*
G36*
X00285D02*
X00205D01*
Y02325*
X00285*
Y0235*
G37*
G36*
X00395D02*
X00315D01*
Y02325*
X00395*
Y0235*
G37*
G36*
X00195D02*
X00115D01*
Y02325*
X00195*
Y0235*
G37*
G36*
X03575Y02387D02*
X03565Y02386D01*
X03556Y02382*
X03548Y02376*
X03542Y02368*
X03538Y02359*
X03537Y0235*
X03538Y0234*
X03542Y02331*
X03548Y02323*
X03556Y02317*
X03565Y02313*
X03575Y02312*
X03584Y02313*
X03593Y02317*
X03601Y02323*
X03607Y02331*
X03611Y0234*
X03612Y0235*
X03611Y02359*
X03607Y02368*
X03601Y02376*
X03593Y02382*
X03584Y02386*
X03575Y02387*
G37*
G36*
X03475D02*
X03465Y02386D01*
X03456Y02382*
X03448Y02376*
X03442Y02368*
X03438Y02359*
X03437Y0235*
X03438Y0234*
X03442Y02331*
X03448Y02323*
X03456Y02317*
X03465Y02313*
X03475Y02312*
X03484Y02313*
X03493Y02317*
X03501Y02323*
X03507Y02331*
X03511Y0234*
X03512Y0235*
X03511Y02359*
X03507Y02368*
X03501Y02376*
X03493Y02382*
X03484Y02386*
X03475Y02387*
G37*
G36*
X03375D02*
X03365Y02386D01*
X03356Y02382*
X03348Y02376*
X03342Y02368*
X03338Y02359*
X03337Y0235*
X03338Y0234*
X03342Y02331*
X03348Y02323*
X03356Y02317*
X03365Y02313*
X03375Y02312*
X03384Y02313*
X03393Y02317*
X03401Y02323*
X03407Y02331*
X03411Y0234*
X03412Y0235*
X03411Y02359*
X03407Y02368*
X03401Y02376*
X03393Y02382*
X03384Y02386*
X03375Y02387*
G37*
G36*
X03275D02*
X03265Y02386D01*
X03256Y02382*
X03248Y02376*
X03242Y02368*
X03238Y02359*
X03237Y0235*
X03238Y0234*
X03242Y02331*
X03248Y02323*
X03256Y02317*
X03265Y02313*
X03275Y02312*
X03284Y02313*
X03293Y02317*
X03301Y02323*
X03307Y02331*
X03311Y0234*
X03312Y0235*
X03311Y02359*
X03307Y02368*
X03301Y02376*
X03293Y02382*
X03284Y02386*
X03275Y02387*
G37*
G36*
X00195Y02315D02*
X00115D01*
Y02305*
X00111Y02301*
X0011Y02302*
X00101Y023*
X00095Y02296*
X00085*
Y02303*
X00044*
Y02261*
Y02226*
X00068*
X00071Y02225*
X00115*
Y02211*
X00285*
Y02215*
X00289Y02219*
X00289Y02219*
X00296Y0222*
X00303Y02225*
X00307Y02231*
X00309Y02239*
X00307Y02247*
X00303Y02253*
X00296Y02258*
X00289Y02259*
X00289Y02259*
X00285Y02262*
Y02271*
X00135*
X00131Y02276*
X00132Y0228*
X00131Y02284*
X00135Y02289*
X00195*
Y02315*
G37*
G36*
X00484D02*
X00405D01*
Y02289*
X00484*
Y02315*
G37*
G36*
X00395D02*
X00315D01*
Y02289*
X00395*
Y02315*
G37*
G36*
X00285D02*
X00205D01*
Y02289*
X00285*
Y02315*
G37*
G36*
X03575Y02287D02*
X03565Y02286D01*
X03556Y02282*
X03548Y02276*
X03542Y02268*
X03538Y02259*
X03537Y0225*
X03538Y0224*
X03542Y02231*
X03548Y02223*
X03556Y02217*
X03565Y02213*
X03575Y02212*
X03584Y02213*
X03593Y02217*
X03601Y02223*
X03607Y02231*
X03611Y0224*
X03612Y0225*
X03611Y02259*
X03607Y02268*
X03601Y02276*
X03593Y02282*
X03584Y02286*
X03575Y02287*
G37*
G36*
X03475D02*
X03465Y02286D01*
X03456Y02282*
X03448Y02276*
X03442Y02268*
X03438Y02259*
X03437Y0225*
X03438Y0224*
X03442Y02231*
X03448Y02223*
X03456Y02217*
X03465Y02213*
X03475Y02212*
X03484Y02213*
X03493Y02217*
X03501Y02223*
X03507Y02231*
X03511Y0224*
X03512Y0225*
X03511Y02259*
X03507Y02268*
X03501Y02276*
X03493Y02282*
X03484Y02286*
X03475Y02287*
G37*
G36*
X03375D02*
X03365Y02286D01*
X03356Y02282*
X03348Y02276*
X03342Y02268*
X03338Y02259*
X03337Y0225*
X03338Y0224*
X03342Y02231*
X03348Y02223*
X03356Y02217*
X03365Y02213*
X03375Y02212*
X03384Y02213*
X03393Y02217*
X03401Y02223*
X03407Y02231*
X03411Y0224*
X03412Y0225*
X03411Y02259*
X03407Y02268*
X03401Y02276*
X03393Y02282*
X03384Y02286*
X03375Y02287*
G37*
G36*
X03275D02*
X03265Y02286D01*
X03256Y02282*
X03248Y02276*
X03242Y02268*
X03238Y02259*
X03237Y0225*
X03238Y0224*
X03242Y02231*
X03248Y02223*
X03256Y02217*
X03265Y02213*
X03275Y02212*
X03284Y02213*
X03293Y02217*
X03301Y02223*
X03307Y02231*
X03311Y0224*
X03312Y0225*
X03311Y02259*
X03307Y02268*
X03301Y02276*
X03293Y02282*
X03284Y02286*
X03275Y02287*
G37*
G36*
X00285Y02192D02*
X00205D01*
Y02167*
X00285*
Y02192*
G37*
G36*
X00195D02*
X00115D01*
Y02167*
X00195*
Y02192*
G37*
G36*
X0272Y02234D02*
X02712Y02232D01*
X02705Y02228*
X02701Y02221*
X02699Y02214*
X02701Y02206*
X02704Y02201*
Y0216*
X027Y02159*
X02699*
X02683*
X02681Y02164*
X02683Y02168*
X02685Y02176*
X02683Y02183*
X02679Y0219*
X02672Y02194*
X02665Y02196*
X02657Y02194*
X0265Y0219*
X02646Y02183*
X02644Y02176*
X02646Y02168*
X02648Y02164*
X02646Y02159*
X0263*
Y01995*
X02699*
X027*
X02701Y01994*
X02702Y01989*
X02678Y01965*
X0263*
Y018*
X027*
Y01943*
X0273Y01974*
X02734Y01979*
X02735Y01985*
Y01995*
X028*
Y02159*
X02735*
Y02201*
X02738Y02206*
X0274Y02214*
X02738Y02221*
X02734Y02228*
X02727Y02232*
X0272Y02234*
G37*
G36*
X00484Y02271D02*
X00315D01*
Y02211*
X00463*
X00476Y02197*
X00474Y02192*
X00315*
Y02132*
X00378*
X00381Y02128*
Y02127*
X00379Y0212*
X0038Y02117*
X00377Y02113*
X00315*
Y02098*
X0031Y02097*
X0031Y02097*
X00303Y02101*
X00296Y02103*
X0029Y02102*
X00285Y02105*
Y02113*
X00115*
Y021*
X0009*
Y02105*
X00049*
Y02064*
Y02028*
X0005*
X00052Y02023*
X00049Y02018*
X00047Y0201*
X00049Y02001*
X00054Y01994*
X00061Y01989*
X0007Y01987*
X00078Y01989*
X00085Y01994*
X0009Y02001*
X00092Y0201*
X0009Y02018*
X00087Y02023*
X00089Y02028*
X0009*
Y02069*
X00115*
Y02053*
X00285*
Y0206*
X0029Y02063*
X00296Y02062*
X00303Y02064*
X0031Y02068*
X0031Y02068*
X00315Y02067*
Y02053*
X00484*
Y02113*
X00422*
X00419Y02117*
X0042Y0212*
X00418Y02127*
Y02128*
X00421Y02132*
X00484*
Y02134*
X00489Y02136*
X00491Y02135*
X00499Y02133*
X00506Y02135*
X00513Y02139*
X00517Y02146*
X00519Y02154*
X00517Y02161*
X00513Y02168*
X00511Y02169*
Y02175*
X00514Y02177*
X00518Y02184*
X0052Y02192*
X00518Y02199*
X00514Y02206*
X00507Y0221*
X00506Y0221*
X00484Y02232*
Y02271*
G37*
G36*
X00285Y02157D02*
X00205D01*
Y02132*
X00285*
Y02157*
G37*
G36*
X00195D02*
X00115D01*
Y02132*
X00195*
Y02157*
G37*
G36*
X03575Y02187D02*
X03565Y02186D01*
X03556Y02182*
X03548Y02176*
X03542Y02168*
X03538Y02159*
X03537Y0215*
X03538Y0214*
X03542Y02131*
X03548Y02123*
X03556Y02117*
X03565Y02113*
X03575Y02112*
X03584Y02113*
X03593Y02117*
X03601Y02123*
X03607Y02131*
X03611Y0214*
X03612Y0215*
X03611Y02159*
X03607Y02168*
X03601Y02176*
X03593Y02182*
X03584Y02186*
X03575Y02187*
G37*
G36*
X03475D02*
X03465Y02186D01*
X03456Y02182*
X03448Y02176*
X03442Y02168*
X03438Y02159*
X03437Y0215*
X03438Y0214*
X03442Y02131*
X03448Y02123*
X03456Y02117*
X03465Y02113*
X03475Y02112*
X03484Y02113*
X03493Y02117*
X03501Y02123*
X03507Y02131*
X03511Y0214*
X03512Y0215*
X03511Y02159*
X03507Y02168*
X03501Y02176*
X03493Y02182*
X03484Y02186*
X03475Y02187*
G37*
G36*
X03375D02*
X03365Y02186D01*
X03356Y02182*
X03348Y02176*
X03342Y02168*
X03338Y02159*
X03337Y0215*
X03338Y0214*
X03342Y02131*
X03348Y02123*
X03356Y02117*
X03365Y02113*
X03375Y02112*
X03384Y02113*
X03393Y02117*
X03401Y02123*
X03407Y02131*
X03411Y0214*
X03412Y0215*
X03411Y02159*
X03407Y02168*
X03401Y02176*
X03393Y02182*
X03384Y02186*
X03375Y02187*
G37*
G36*
X03275D02*
X03265Y02186D01*
X03256Y02182*
X03248Y02176*
X03242Y02168*
X03238Y02159*
X03237Y0215*
X03238Y0214*
X03242Y02131*
X03248Y02123*
X03256Y02117*
X03265Y02113*
X03275Y02112*
X03284Y02113*
X03293Y02117*
X03301Y02123*
X03307Y02131*
X03311Y0214*
X03312Y0215*
X03311Y02159*
X03307Y02168*
X03301Y02176*
X03293Y02182*
X03284Y02186*
X03275Y02187*
G37*
G36*
X00853Y02038D02*
X00837D01*
Y02023*
X00853*
Y02038*
G37*
G36*
X03575Y02087D02*
X03565Y02086D01*
X03556Y02082*
X03548Y02076*
X03542Y02068*
X03538Y02059*
X03537Y0205*
X03538Y0204*
X03542Y02031*
X03548Y02023*
X03556Y02017*
X03565Y02013*
X03575Y02012*
X03584Y02013*
X03593Y02017*
X03601Y02023*
X03607Y02031*
X03611Y0204*
X03612Y0205*
X03611Y02059*
X03607Y02068*
X03601Y02076*
X03593Y02082*
X03584Y02086*
X03575Y02087*
G37*
G36*
X03475D02*
X03465Y02086D01*
X03456Y02082*
X03448Y02076*
X03442Y02068*
X03438Y02059*
X03437Y0205*
X03438Y0204*
X03442Y02031*
X03448Y02023*
X03456Y02017*
X03465Y02013*
X03475Y02012*
X03484Y02013*
X03493Y02017*
X03501Y02023*
X03507Y02031*
X03511Y0204*
X03512Y0205*
X03511Y02059*
X03507Y02068*
X03501Y02076*
X03493Y02082*
X03484Y02086*
X03475Y02087*
G37*
G36*
X03375D02*
X03365Y02086D01*
X03356Y02082*
X03348Y02076*
X03342Y02068*
X03338Y02059*
X03337Y0205*
X03338Y0204*
X03342Y02031*
X03348Y02023*
X03356Y02017*
X03365Y02013*
X03375Y02012*
X03384Y02013*
X03393Y02017*
X03401Y02023*
X03407Y02031*
X03411Y0204*
X03412Y0205*
X03411Y02059*
X03407Y02068*
X03401Y02076*
X03393Y02082*
X03384Y02086*
X03375Y02087*
G37*
G36*
X03275D02*
X03265Y02086D01*
X03256Y02082*
X03248Y02076*
X03242Y02068*
X03238Y02059*
X03237Y0205*
X03238Y0204*
X03242Y02031*
X03248Y02023*
X03256Y02017*
X03265Y02013*
X03275Y02012*
X03284Y02013*
X03293Y02017*
X03301Y02023*
X03307Y02031*
X03311Y0204*
X03312Y0205*
X03311Y02059*
X03307Y02068*
X03301Y02076*
X03293Y02082*
X03284Y02086*
X03275Y02087*
G37*
G36*
X00285Y02035D02*
X00205D01*
Y0201*
X00285*
Y02035*
G37*
G36*
X00195D02*
X00115D01*
Y0201*
X00195*
Y02035*
G37*
G36*
X00853Y02013D02*
X00837D01*
Y01997*
X00853*
Y02013*
G37*
G36*
X029Y02159D02*
X0283D01*
Y01998*
X02829Y01997*
X02825Y01995*
X02819Y01996*
X02811Y01994*
X02804Y0199*
X028Y01983*
X02798Y01976*
X02799Y0197*
X02797Y01965*
X02796Y01965*
X0273*
Y018*
X028*
Y01959*
X02803Y01961*
X02805Y01961*
X02811Y01957*
X02817Y01956*
X0283Y01943*
Y018*
X029*
Y01965*
X02851*
X02838Y01977*
X02837Y01983*
X02833Y0199*
X02833Y01991*
X02835Y01995*
X029*
Y02159*
G37*
G36*
X03D02*
X0293D01*
Y01995*
X03*
Y02159*
G37*
G36*
X03735Y02024D02*
X03695D01*
Y01992*
X03735*
Y02024*
G37*
G36*
X03685D02*
X03644D01*
Y01992*
X03685*
Y02024*
G37*
G36*
X00285Y02D02*
X00205D01*
Y01974*
X00285*
Y02*
G37*
G36*
X00195D02*
X00115D01*
Y01974*
X00195*
Y02*
G37*
G36*
X03735Y01982D02*
X03695D01*
Y01949*
X03735*
Y01982*
G37*
G36*
X03685D02*
X03644D01*
Y01949*
X03685*
Y01982*
G37*
G36*
X00484Y02035D02*
X00315D01*
Y01974*
X00463*
X00477Y0196*
X00475Y01956*
X00315*
Y01931*
X0031Y01931*
X00309Y01934*
X00305Y0194*
X00298Y01944*
X0029Y01946*
X00289Y01946*
X00285Y01949*
Y01956*
X00115*
Y01896*
X00285*
Y01903*
X00289Y01906*
X0029Y01906*
X00298Y01907*
X00305Y01911*
X00309Y01918*
X0031Y01921*
X00315Y0192*
Y01896*
X00484*
Y0191*
X00532*
X00537Y01911*
X00542Y01915*
X00563Y01936*
X00569Y01937*
X00576Y01941*
X0058Y01948*
X00582Y01956*
X0058Y01963*
X00576Y0197*
X00569Y01974*
X00562Y01976*
X00554Y01974*
X00547Y0197*
X00543Y01963*
X00542Y01957*
X00525Y01941*
X00513*
X00512Y01946*
X00512Y01946*
X00519Y0195*
X00523Y01957*
X00525Y01965*
X00523Y01972*
X00519Y01979*
X00512Y01983*
X00505Y01985*
X00497Y01983*
X00484Y01996*
Y02035*
G37*
G36*
X03575Y01987D02*
X03565Y01986D01*
X03556Y01982*
X03548Y01976*
X03542Y01968*
X03538Y01959*
X03537Y0195*
X03538Y0194*
X03542Y01931*
X03548Y01923*
X03556Y01917*
X03565Y01913*
X03575Y01912*
X03584Y01913*
X03593Y01917*
X03601Y01923*
X03607Y01931*
X03611Y0194*
X03612Y0195*
X03611Y01959*
X03607Y01968*
X03601Y01976*
X03593Y01982*
X03584Y01986*
X03575Y01987*
G37*
G36*
X03475D02*
X03465Y01986D01*
X03456Y01982*
X03448Y01976*
X03442Y01968*
X03438Y01959*
X03437Y0195*
X03438Y0194*
X03442Y01931*
X03448Y01923*
X03456Y01917*
X03465Y01913*
X03475Y01912*
X03484Y01913*
X03493Y01917*
X03501Y01923*
X03507Y01931*
X03511Y0194*
X03512Y0195*
X03511Y01959*
X03507Y01968*
X03501Y01976*
X03493Y01982*
X03484Y01986*
X03475Y01987*
G37*
G36*
X03375D02*
X03365Y01986D01*
X03356Y01982*
X03348Y01976*
X03342Y01968*
X03338Y01959*
X03337Y0195*
X03338Y0194*
X03342Y01931*
X03348Y01923*
X03356Y01917*
X03365Y01913*
X03375Y01912*
X03384Y01913*
X03393Y01917*
X03401Y01923*
X03407Y01931*
X03411Y0194*
X03412Y0195*
X03411Y01959*
X03407Y01968*
X03401Y01976*
X03393Y01982*
X03384Y01986*
X03375Y01987*
G37*
G36*
X03275D02*
X03265Y01986D01*
X03256Y01982*
X03248Y01976*
X03242Y01968*
X03238Y01959*
X03237Y0195*
X03238Y0194*
X03242Y01931*
X03248Y01923*
X03256Y01917*
X03265Y01913*
X03275Y01912*
X03284Y01913*
X03293Y01917*
X03301Y01923*
X03307Y01931*
X03311Y0194*
X03312Y0195*
X03311Y01959*
X03307Y01968*
X03301Y01976*
X03293Y01982*
X03284Y01986*
X03275Y01987*
G37*
G36*
X03735Y01922D02*
X03644D01*
Y01876*
X03638Y0187*
X03605*
X03601Y01876*
X03593Y01882*
X03584Y01886*
X03575Y01887*
X03565Y01886*
X03556Y01882*
X03548Y01876*
X03544Y0187*
X03505*
X03501Y01876*
X03493Y01882*
X03484Y01886*
X03475Y01887*
X03465Y01886*
X03456Y01882*
X03448Y01876*
X03442Y01868*
X03438Y01859*
X03437Y0185*
X03438Y0184*
X03442Y01831*
X03448Y01823*
X03456Y01817*
X03465Y01813*
X03475Y01812*
X03484Y01813*
X03493Y01817*
X03501Y01823*
X03505Y01829*
X03544*
X03548Y01823*
X03556Y01817*
X03565Y01813*
X03575Y01812*
X03584Y01813*
X03593Y01817*
X03601Y01823*
X03605Y01829*
X03647*
X03654Y01831*
X03661Y01835*
X03673Y01847*
X03735*
Y01922*
G37*
G36*
X0318Y01897D02*
X03171Y01895D01*
X03164Y0189*
X03159Y01883*
X03157Y01875*
X03159Y01866*
X03164Y01859*
X03171Y01854*
X0318Y01852*
X03188Y01854*
X03195Y01859*
X032Y01866*
X03202Y01875*
X032Y01883*
X03195Y0189*
X03188Y01895*
X0318Y01897*
G37*
G36*
X00484Y01877D02*
X00315D01*
Y01853*
X0031Y01852*
X00309Y01855*
X00305Y01861*
X00298Y01866*
X0029Y01867*
X00289Y01867*
X00285Y0187*
Y01877*
X00115*
Y01817*
X00285*
Y01824*
X00289Y01827*
X0029Y01827*
X00298Y01828*
X00305Y01833*
X00309Y01839*
X0031Y01842*
X00315Y01841*
Y01817*
X00484*
Y01825*
X00488Y01827*
X00489Y01828*
X00497Y01826*
X00504Y01828*
X00511Y01832*
X00515Y01839*
X00517Y01847*
X00515Y01854*
X00511Y01861*
X00504Y01865*
X00497Y01867*
X00489Y01865*
X00488Y01866*
X00484Y01868*
Y01877*
G37*
G36*
X0135Y01852D02*
X01335D01*
Y01836*
X0135*
Y01852*
G37*
G36*
X01325D02*
X01309D01*
Y01836*
X01325*
Y01852*
G37*
G36*
X0155Y0191D02*
X01544Y01909D01*
X01539Y01905*
X01535Y019*
X01534Y01895*
Y01868*
X01512*
Y0183*
X01551*
X01591*
Y01868*
X01565*
Y01895*
X01564Y019*
X0156Y01905*
X01555Y01909*
X0155Y0191*
G37*
G36*
X01145Y01844D02*
X0113D01*
Y01828*
X01145*
Y01844*
G37*
G36*
X0112D02*
X01104D01*
Y01828*
X0112*
Y01844*
G37*
G36*
X01787Y01885D02*
X01732D01*
Y01835*
Y01834*
Y0183*
Y01809*
X0176*
X01787*
Y01816*
X01791Y01819*
X01792Y01819*
X018Y01821*
X01807Y01826*
X01812Y01833*
X01814Y01842*
X01812Y0185*
X01807Y01857*
X018Y01862*
X01792Y01864*
X01791Y01864*
X01787Y01867*
Y01885*
G37*
G36*
X0171Y01829D02*
X01695D01*
Y01813*
X0171*
Y01829*
G37*
G36*
X01685D02*
X01669D01*
Y01813*
X01685*
Y01829*
G37*
G36*
X0165D02*
X01635D01*
Y01813*
X0165*
Y01829*
G37*
G36*
X01625D02*
X01609D01*
Y01813*
X01625*
Y01829*
G37*
G36*
X03375Y01887D02*
X03365Y01886D01*
X03356Y01882*
X03348Y01876*
X03342Y01868*
X03338Y01859*
X03337Y0185*
X03338Y0184*
X03342Y01831*
X03348Y01823*
X03356Y01817*
X03365Y01813*
X03375Y01812*
X03384Y01813*
X03393Y01817*
X03401Y01823*
X03407Y01831*
X03411Y0184*
X03412Y0185*
X03411Y01859*
X03407Y01868*
X03401Y01876*
X03393Y01882*
X03384Y01886*
X03375Y01887*
G37*
G36*
X03275D02*
X03265Y01886D01*
X03256Y01882*
X03248Y01876*
X03242Y01868*
X03238Y01859*
X03237Y0185*
X03238Y0184*
X03242Y01831*
X03248Y01823*
X03256Y01817*
X03265Y01813*
X03275Y01812*
X03284Y01813*
X03293Y01817*
X03301Y01823*
X03307Y01831*
X03311Y0184*
X03312Y0185*
X03311Y01859*
X03307Y01868*
X03301Y01876*
X03293Y01882*
X03284Y01886*
X03275Y01887*
G37*
G36*
X03Y01965D02*
X0293D01*
Y018*
X03*
Y01965*
G37*
G36*
X01591Y0182D02*
X01556D01*
Y01781*
X01591*
Y0182*
G37*
G36*
X01546D02*
X01512D01*
Y01781*
X01546*
Y0182*
G37*
G36*
X01787Y01799D02*
X01765D01*
Y01779*
X01787*
Y01799*
G37*
G36*
X01755D02*
X01732D01*
Y01779*
X01755*
Y01799*
G37*
G36*
X00484Y01798D02*
X00405D01*
Y01773*
X00484*
Y01798*
G37*
G36*
X00285D02*
X00205D01*
Y01773*
X00285*
Y01798*
G37*
G36*
X00395D02*
X00315D01*
Y01773*
X00395*
Y01798*
G37*
G36*
X00195D02*
X00115D01*
Y01773*
X00195*
Y01798*
G37*
G36*
X0318Y01817D02*
X03171Y01815D01*
X03164Y0181*
X03159Y01803*
X03157Y01795*
X03159Y01786*
X03164Y01779*
X03171Y01774*
X0318Y01772*
X03188Y01774*
X03195Y01779*
X032Y01786*
X03202Y01795*
X032Y01803*
X03195Y0181*
X03188Y01815*
X0318Y01817*
G37*
G36*
X03735Y01787D02*
X03644D01*
Y0177*
X03605*
X03601Y01776*
X03593Y01782*
X03584Y01786*
X03575Y01787*
X03565Y01786*
X03556Y01782*
X03548Y01776*
X03542Y01768*
X03538Y01759*
X03537Y0175*
X03538Y0174*
X03542Y01731*
X03548Y01723*
X03556Y01717*
X03565Y01713*
X03575Y01712*
X03584Y01713*
X03593Y01717*
X03601Y01723*
X03605Y01729*
X03644*
Y01712*
X03735*
Y01787*
G37*
G36*
X01415Y01784D02*
X014D01*
Y01768*
X01415*
Y01784*
G37*
G36*
X0139D02*
X01374D01*
Y01768*
X0139*
Y01784*
G37*
G36*
X00484Y01763D02*
X00405D01*
Y01738*
X00484*
Y01763*
G37*
G36*
X00395D02*
X00315D01*
Y01738*
X00395*
Y01763*
G37*
G36*
X00285D02*
X00205D01*
Y01738*
X00285*
Y01763*
G37*
G36*
X00195D02*
X00115D01*
Y01738*
X00195*
Y01763*
G37*
G36*
X03475Y01787D02*
X03465Y01786D01*
X03456Y01782*
X03448Y01776*
X03442Y01768*
X03438Y01759*
X03437Y0175*
X03438Y0174*
X03442Y01731*
X03448Y01723*
X03456Y01717*
X03465Y01713*
X03475Y01712*
X03484Y01713*
X03493Y01717*
X03501Y01723*
X03507Y01731*
X03511Y0174*
X03512Y0175*
X03511Y01759*
X03507Y01768*
X03501Y01776*
X03493Y01782*
X03484Y01786*
X03475Y01787*
G37*
G36*
X03375D02*
X03365Y01786D01*
X03356Y01782*
X03348Y01776*
X03342Y01768*
X03338Y01759*
X03337Y0175*
X03338Y0174*
X03342Y01731*
X03348Y01723*
X03356Y01717*
X03365Y01713*
X03375Y01712*
X03384Y01713*
X03393Y01717*
X03401Y01723*
X03407Y01731*
X03411Y0174*
X03412Y0175*
X03411Y01759*
X03407Y01768*
X03401Y01776*
X03393Y01782*
X03384Y01786*
X03375Y01787*
G37*
G36*
X03275D02*
X03265Y01786D01*
X03256Y01782*
X03248Y01776*
X03242Y01768*
X03238Y01759*
X03237Y0175*
X03238Y0174*
X03242Y01731*
X03248Y01723*
X03256Y01717*
X03265Y01713*
X03275Y01712*
X03284Y01713*
X03293Y01717*
X03301Y01723*
X03307Y01731*
X03311Y0174*
X03312Y0175*
X03311Y01759*
X03307Y01768*
X03301Y01776*
X03293Y01782*
X03284Y01786*
X03275Y01787*
G37*
G36*
X00285Y0172D02*
X00115D01*
Y01707*
X00092*
X00088Y0171*
X0008Y01712*
X00071Y0171*
X00064Y01705*
X00059Y01698*
X00057Y0169*
X00059Y01681*
X00064Y01674*
X00071Y01669*
X0008Y01667*
X00088Y01669*
X00092Y01672*
X00115*
Y0166*
X00285*
Y0172*
G37*
G36*
X02815Y01738D02*
X02807Y01736D01*
X028Y01732*
X02796Y01725*
X02794Y01718*
X02796Y0171*
X02798Y01707*
X02798Y01707*
X02794Y01704*
X02793Y01704*
X02788Y01708*
X0278Y01709*
X02772Y01708*
X02766Y01704*
X02761Y01697*
X0276Y01689*
X02761Y01681*
X02765Y01676*
Y01538*
X0276Y01535*
X02755Y01538*
X02748Y0154*
X0274Y01538*
X02733Y01534*
X02729Y01527*
X02727Y0152*
X02729Y01512*
X02732Y01508*
Y00974*
X02733Y00969*
X02736Y00964*
X02854Y00845*
Y00649*
X02855Y00643*
X02859Y00638*
X02865Y00631*
Y00418*
X02859Y00411*
X02855Y00406*
X02854Y00401*
Y00329*
X02849Y00326*
X02842Y00328*
X02834Y00326*
X02827Y00322*
X02823Y00315*
X02821Y00308*
X02822Y00301*
X02818Y00298*
X02815Y003*
X02808Y00302*
X028Y003*
X02793Y00296*
X02789Y00289*
X02787Y00282*
X02789Y00274*
X02793Y00267*
X028Y00263*
X02808Y00261*
X02815Y00263*
X02822Y00267*
X02826Y00274*
X02828Y00282*
X02827Y00288*
X02831Y00291*
X02834Y00289*
X02842Y00287*
X02849Y00289*
X0285Y00289*
X02854Y00287*
Y00253*
X02851Y00248*
X02849Y00241*
X02851Y00233*
X02855Y00226*
X02862Y00222*
X0287Y0022*
X02877Y00222*
X02884Y00226*
X02888Y00233*
X0289Y00241*
X02888Y00248*
X02885Y00253*
Y00313*
Y00394*
X02891Y004*
X02894Y00405*
X02896Y00411*
Y00511*
X02901Y00514*
X02901Y00513*
X02906Y00512*
X02926*
X02928Y00507*
X02927Y00505*
X02925Y00498*
X02927Y0049*
X02931Y00483*
X02938Y00479*
X02946Y00477*
X02953Y00479*
X0296Y00483*
X02964Y0049*
X02966Y00498*
X02964Y00505*
X02963Y00507*
X02965Y00512*
X02978*
X02983Y00513*
X02987Y00516*
X02988Y00518*
X02993Y00516*
Y00479*
X02987*
Y00438*
X03039*
Y00459*
Y00479*
X03024*
Y00568*
X03025Y00569*
X0303Y00576*
X03032Y00585*
X0303Y00593*
X03025Y006*
X03018Y00605*
X0301Y00607*
X03001Y00605*
X02994Y006*
X02992Y006*
X02989Y006*
X02987Y00603*
X02983Y00606*
X02978Y00607*
X02906*
X02902Y00606*
X02898Y00608*
X02897Y00608*
Y00611*
X02898Y00611*
X02902Y00613*
X02906Y00612*
X02978*
X02983Y00613*
X02987Y00616*
X02988Y00617*
X02994Y00618*
X02999Y00615*
X03008Y00613*
X03016Y00615*
X03023Y0062*
X03028Y00627*
X0303Y00636*
X03028Y00644*
X03023Y00651*
X03016Y00656*
X03008Y00658*
X02999Y00656*
X02993Y00652*
X02987Y00653*
X02983Y00656*
X02978Y00657*
X02906*
X02901Y00656*
X02897Y00653*
X02896Y00651*
X02895Y0065*
X0289Y0065*
X0289Y0065*
X02885Y00655*
Y00798*
X0289Y008*
X02895Y00797*
X02903Y00795*
X0291Y00797*
X02917Y00801*
X02921Y00808*
X02923Y00816*
X02921Y00823*
X02918Y00828*
Y01037*
X02917Y01042*
X02913Y01047*
X02796Y01165*
Y01213*
X02799Y01218*
X028Y0122*
X02804Y01221*
X03084Y00942*
X03089Y00938*
X03094Y00937*
Y00931*
X03135*
Y00934*
X03241*
X03242Y00931*
X03248Y00923*
X03256Y00917*
X03265Y00913*
X03275Y00912*
X03284Y00913*
X03293Y00917*
X03301Y00923*
X03307Y00931*
X03311Y0094*
X03312Y0095*
X03311Y00959*
X03307Y00968*
X03301Y00976*
X03293Y00982*
X03284Y00986*
X03275Y00987*
X03265Y00986*
X03256Y00982*
X03248Y00976*
X03242Y00968*
X03241Y00965*
X03166*
X03164Y0097*
X0317Y00974*
X03175Y00981*
X03177Y0099*
X03175Y00998*
X0317Y01005*
X03163Y0101*
X03155Y01012*
X03146Y0101*
X0314Y01006*
X03135Y01008*
X03094*
Y00981*
X03089Y0098*
X02795Y01273*
Y01676*
X02799Y01681*
X028Y01689*
X02799Y01697*
X02797Y017*
X02797Y017*
X028Y01703*
X02801Y01703*
X02807Y01699*
X02813Y01698*
X02827Y01683*
Y01323*
X02828Y01318*
X02832Y01313*
X0309Y01054*
X03091Y01054*
X03094Y01051*
Y01031*
X03135*
Y01034*
X03241*
X03242Y01031*
X03248Y01023*
X03256Y01017*
X03265Y01013*
X03275Y01012*
X03284Y01013*
X03293Y01017*
X03301Y01023*
X03307Y01031*
X03311Y0104*
X03312Y0105*
X03311Y01059*
X03307Y01068*
X03301Y01076*
X03293Y01082*
X03284Y01086*
X03275Y01087*
X03265Y01086*
X03256Y01082*
X03248Y01076*
X03242Y01068*
X03241Y01065*
X03171*
X03169Y0107*
X03175Y01074*
X0318Y01081*
X03182Y0109*
X0318Y01098*
X03175Y01105*
X03168Y0111*
X0316Y01112*
X03151Y0111*
X03144Y01105*
X03143Y01104*
X03135*
Y01108*
X03094*
Y011*
X03089Y01098*
X02858Y0133*
Y0169*
X02857Y01695*
X02853Y017*
X02834Y01719*
X02833Y01725*
X02829Y01732*
X02822Y01736*
X02815Y01738*
G37*
G36*
X01504Y01768D02*
X01425D01*
Y01703*
X01417Y01695*
X0141Y01697*
X01401Y01695*
X01394Y0169*
X01389Y01683*
X01387Y01675*
X01389Y01666*
X01394Y01659*
X01401Y01654*
X0141Y01652*
X01418Y01654*
X01425Y01659*
X01429Y01664*
X01432Y01666*
X01447Y01681*
X01504*
Y01768*
G37*
G36*
X0318Y01737D02*
X03171Y01735D01*
X03164Y0173*
X03159Y01723*
X03157Y01715*
X03159Y01706*
X03164Y01699*
X03171Y01694*
X0318Y01692*
X03188Y01694*
X03195Y01699*
X032Y01706*
X03202Y01715*
X032Y01723*
X03195Y0173*
X03188Y01735*
X0318Y01737*
G37*
G36*
X03D02*
X02991Y01735D01*
X02984Y0173*
X02979Y01723*
X02977Y01715*
X02979Y01706*
X02984Y01699*
X02991Y01694*
X03Y01692*
X03008Y01694*
X03015Y01699*
X0302Y01706*
X03022Y01715*
X0302Y01723*
X03015Y0173*
X03008Y01735*
X03Y01737*
G37*
G36*
X02915D02*
X02906Y01735D01*
X02899Y0173*
X02894Y01723*
X02892Y01715*
X02894Y01706*
X02899Y01699*
X02906Y01694*
X02915Y01692*
X02923Y01694*
X0293Y01699*
X02935Y01706*
X02937Y01715*
X02935Y01723*
X0293Y0173*
X02923Y01735*
X02915Y01737*
G37*
G36*
X00484Y0172D02*
X00315D01*
Y0166*
X00484*
Y01672*
X00507*
X00511Y01669*
X0052Y01667*
X00528Y01669*
X00535Y01674*
X0054Y01681*
X00542Y0169*
X0054Y01698*
X00535Y01705*
X00528Y0171*
X0052Y01712*
X00511Y0171*
X00507Y01707*
X00484*
Y0172*
G37*
G36*
X0358Y01686D02*
Y01655D01*
X03611*
X03611Y01659*
X03607Y01668*
X03601Y01676*
X03593Y01682*
X03584Y01686*
X0358Y01686*
G37*
G36*
X0348D02*
Y01655D01*
X03511*
X03511Y01659*
X03507Y01668*
X03501Y01676*
X03493Y01682*
X03484Y01686*
X0348Y01686*
G37*
G36*
X0357D02*
X03565Y01686D01*
X03556Y01682*
X03548Y01676*
X03542Y01668*
X03538Y01659*
X03538Y01655*
X0357*
Y01686*
G37*
G36*
X0347D02*
X03465Y01686D01*
X03456Y01682*
X03448Y01676*
X03442Y01668*
X03438Y01659*
X03438Y01655*
X0347*
Y01686*
G37*
G36*
X03735Y01685D02*
X03695D01*
Y01652*
X03735*
Y01685*
G37*
G36*
X03685D02*
X03644D01*
Y01652*
X03685*
Y01685*
G37*
G36*
X0111Y01656D02*
X0109D01*
Y01636*
X0111*
Y01656*
G37*
G36*
X0108D02*
X01059D01*
Y01636*
X0108*
Y01656*
G37*
G36*
X01591Y01768D02*
X01512D01*
Y01681*
X0156*
Y01665*
X01559Y01663*
X01557Y01655*
X01559Y01646*
X01564Y01639*
X01571Y01634*
X0158Y01632*
X01588Y01634*
X01595Y01639*
X016Y01646*
X01602Y01655*
X016Y01663*
X01595Y0167*
X01591Y01673*
Y017*
X01591Y01701*
Y01768*
G37*
G36*
X01521Y01645D02*
X01505D01*
Y0163*
X01521*
Y01645*
G37*
G36*
X0318Y01662D02*
X03171Y0166D01*
X03164Y01655*
X03159Y01648*
X03157Y0164*
X03159Y01631*
X03164Y01624*
X03171Y01619*
X0318Y01617*
X03188Y01619*
X03195Y01624*
X032Y01631*
X03202Y0164*
X032Y01648*
X03195Y01655*
X03188Y0166*
X0318Y01662*
G37*
G36*
X03D02*
X02991Y0166D01*
X02984Y01655*
X02979Y01648*
X02977Y0164*
X02979Y01631*
X02984Y01624*
X02991Y01619*
X03Y01617*
X03008Y01619*
X03015Y01624*
X0302Y01631*
X03022Y0164*
X0302Y01648*
X03015Y01655*
X03008Y0166*
X03Y01662*
G37*
G36*
X02915D02*
X02906Y0166D01*
X02899Y01655*
X02894Y01648*
X02892Y0164*
X02894Y01631*
X02899Y01624*
X02906Y01619*
X02915Y01617*
X02923Y01619*
X0293Y01624*
X02935Y01631*
X02937Y0164*
X02935Y01648*
X0293Y01655*
X02923Y0166*
X02915Y01662*
G37*
G36*
X03611Y01645D02*
X0358D01*
Y01613*
X03584Y01613*
X03593Y01617*
X03601Y01623*
X03607Y01631*
X03611Y0164*
X03611Y01645*
G37*
G36*
X03511D02*
X0348D01*
Y01613*
X03484Y01613*
X03493Y01617*
X03501Y01623*
X03507Y01631*
X03511Y0164*
X03511Y01645*
G37*
G36*
X0357D02*
X03538D01*
X03538Y0164*
X03542Y01631*
X03548Y01623*
X03556Y01617*
X03565Y01613*
X0357Y01613*
Y01645*
G37*
G36*
X0347D02*
X03438D01*
X03438Y0164*
X03442Y01631*
X03448Y01623*
X03456Y01617*
X03465Y01613*
X0347Y01613*
Y01645*
G37*
G36*
X03375Y01687D02*
X03365Y01686D01*
X03356Y01682*
X03348Y01676*
X03342Y01668*
X03338Y01659*
X03337Y0165*
X03338Y0164*
X03342Y01631*
X03348Y01623*
X03356Y01617*
X03365Y01613*
X03375Y01612*
X03384Y01613*
X03393Y01617*
X03401Y01623*
X03407Y01631*
X03411Y0164*
X03412Y0165*
X03411Y01659*
X03407Y01668*
X03401Y01676*
X03393Y01682*
X03384Y01686*
X03375Y01687*
G37*
G36*
X03275D02*
X03265Y01686D01*
X03256Y01682*
X03248Y01676*
X03242Y01668*
X03238Y01659*
X03237Y0165*
X03238Y0164*
X03242Y01631*
X03248Y01623*
X03256Y01617*
X03265Y01613*
X03275Y01612*
X03284Y01613*
X03293Y01617*
X03301Y01623*
X03307Y01631*
X03311Y0164*
X03312Y0165*
X03311Y01659*
X03307Y01668*
X03301Y01676*
X03293Y01682*
X03284Y01686*
X03275Y01687*
G37*
G36*
X03735Y01642D02*
X03695D01*
Y0161*
X03735*
Y01642*
G37*
G36*
X03685D02*
X03644D01*
Y0161*
X03685*
Y01642*
G37*
G36*
X0111Y01626D02*
X0109D01*
Y01605*
X0111*
Y01626*
G37*
G36*
X0108D02*
X01059D01*
Y01605*
X0108*
Y01626*
G37*
G36*
X01521Y0162D02*
X01505D01*
Y01604*
X01521*
Y0162*
G37*
G36*
X0142Y01647D02*
X01411Y01645D01*
X01404Y0164*
X01399Y01633*
X01397Y01625*
X01399Y01616*
X01404Y01609*
X01411Y01604*
X0142Y01602*
X01428Y01604*
X01435Y01609*
X01436Y01609*
X01444*
Y01604*
X01495*
Y01625*
Y01645*
X01444*
Y0164*
X01436*
X01435Y0164*
X01428Y01645*
X0142Y01647*
G37*
G36*
X01669Y01602D02*
X01661Y016D01*
X01654Y01596*
X0165Y01589*
X01649Y01581*
X0165Y01574*
X01654Y01567*
X01661Y01563*
X01669Y01561*
X01677Y01563*
X01683Y01567*
X01687Y01574*
X01689Y01581*
X01687Y01589*
X01683Y01596*
X01677Y016*
X01669Y01602*
G37*
G36*
X0358Y01586D02*
Y01555D01*
X03611*
X03611Y01559*
X03607Y01568*
X03601Y01576*
X03593Y01582*
X03584Y01586*
X0358Y01586*
G37*
G36*
X0348D02*
Y01555D01*
X03511*
X03511Y01559*
X03507Y01568*
X03501Y01576*
X03493Y01582*
X03484Y01586*
X0348Y01586*
G37*
G36*
X0357D02*
X03565Y01586D01*
X03556Y01582*
X03548Y01576*
X03542Y01568*
X03538Y01559*
X03538Y01555*
X0357*
Y01586*
G37*
G36*
X0347D02*
X03465Y01586D01*
X03456Y01582*
X03448Y01576*
X03442Y01568*
X03438Y01559*
X03438Y01555*
X0347*
Y01586*
G37*
G36*
X003Y01608D02*
X00291Y01606D01*
X00283Y01603*
X00276Y01598*
X00271Y01591*
X00268Y01583*
X00267Y01574*
X00268Y01566*
X00271Y01558*
X00276Y01551*
X00283Y01546*
X00291Y01542*
X003Y01541*
X00308Y01542*
X00316Y01546*
X00323Y01551*
X00328Y01558*
X00332Y01566*
X00333Y01574*
X00332Y01583*
X00328Y01591*
X00323Y01598*
X00316Y01603*
X00308Y01606*
X003Y01608*
G37*
G36*
X01519Y01572D02*
X01511Y0157D01*
X01504Y01566*
X015Y01559*
X01498Y01552*
X015Y01544*
X01504Y01537*
X01511Y01533*
X01519Y01531*
X01526Y01533*
X01533Y01537*
X01537Y01544*
X01539Y01552*
X01537Y01559*
X01533Y01566*
X01526Y0157*
X01519Y01572*
G37*
G36*
X01277Y01571D02*
X01269Y01569D01*
X01262Y01565*
X01258Y01558*
X01256Y01551*
X01258Y01543*
X01262Y01536*
X01269Y01532*
X01277Y0153*
X01284Y01532*
X01291Y01536*
X01295Y01543*
X01297Y01551*
X01295Y01558*
X01291Y01565*
X01284Y01569*
X01277Y01571*
G37*
G36*
X01086D02*
X01078Y01569D01*
X01071Y01565*
X01067Y01558*
X01065Y01551*
X01067Y01543*
X01071Y01536*
X01078Y01532*
X01086Y0153*
X01093Y01532*
X011Y01536*
X01104Y01543*
X01106Y01551*
X01104Y01558*
X011Y01565*
X01093Y01569*
X01086Y01571*
G37*
G36*
X00839D02*
X00831Y01569D01*
X00824Y01565*
X0082Y01558*
X00818Y01551*
X0082Y01543*
X00824Y01536*
X00831Y01532*
X00839Y0153*
X00846Y01532*
X00853Y01536*
X00857Y01543*
X00859Y01551*
X00857Y01558*
X00853Y01565*
X00846Y01569*
X00839Y01571*
G37*
G36*
X03611Y01545D02*
X0358D01*
Y01513*
X03584Y01513*
X03593Y01517*
X03601Y01523*
X03607Y01531*
X03611Y0154*
X03611Y01545*
G37*
G36*
X03511D02*
X0348D01*
Y01513*
X03484Y01513*
X03493Y01517*
X03501Y01523*
X03507Y01531*
X03511Y0154*
X03511Y01545*
G37*
G36*
X0357D02*
X03538D01*
X03538Y0154*
X03542Y01531*
X03548Y01523*
X03556Y01517*
X03565Y01513*
X0357Y01513*
Y01545*
G37*
G36*
X0347D02*
X03438D01*
X03438Y0154*
X03442Y01531*
X03448Y01523*
X03456Y01517*
X03465Y01513*
X0347Y01513*
Y01545*
G37*
G36*
X03375Y01587D02*
X03365Y01586D01*
X03356Y01582*
X03348Y01576*
X03342Y01568*
X03338Y01559*
X03337Y0155*
X03338Y0154*
X03342Y01531*
X03348Y01523*
X03356Y01517*
X03365Y01513*
X03375Y01512*
X03384Y01513*
X03393Y01517*
X03401Y01523*
X03407Y01531*
X03411Y0154*
X03412Y0155*
X03411Y01559*
X03407Y01568*
X03401Y01576*
X03393Y01582*
X03384Y01586*
X03375Y01587*
G37*
G36*
X03275D02*
X03265Y01586D01*
X03256Y01582*
X03248Y01576*
X03242Y01568*
X03238Y01559*
X03237Y0155*
X03238Y0154*
X03242Y01531*
X03248Y01523*
X03256Y01517*
X03265Y01513*
X03275Y01512*
X03284Y01513*
X03293Y01517*
X03301Y01523*
X03307Y01531*
X03311Y0154*
X03312Y0155*
X03311Y01559*
X03307Y01568*
X03301Y01576*
X03293Y01582*
X03284Y01586*
X03275Y01587*
G37*
G36*
X01827Y01544D02*
X01819Y01543D01*
X01813Y01538*
X01808Y01532*
X01807Y01524*
X01808Y01516*
X01813Y0151*
X01819Y01505*
X01827Y01504*
X01835Y01505*
X01841Y0151*
X01846Y01516*
X01847Y01524*
X01846Y01532*
X01841Y01538*
X01835Y01543*
X01827Y01544*
G37*
G36*
X01385Y01544D02*
X01377Y01542D01*
X0137Y01538*
X01366Y01531*
X01364Y01524*
X01366Y01516*
X0137Y01509*
X01377Y01505*
X01385Y01503*
X01392Y01505*
X01399Y01509*
X01403Y01516*
X01405Y01524*
X01403Y01531*
X01399Y01538*
X01392Y01542*
X01385Y01544*
G37*
G36*
X00955Y01543D02*
X00947Y01541D01*
X0094Y01537*
X00936Y0153*
X00934Y01523*
X00936Y01515*
X0094Y01508*
X00947Y01504*
X00955Y01502*
X00962Y01504*
X00969Y01508*
X00973Y01515*
X00975Y01523*
X00973Y0153*
X00969Y01537*
X00962Y01541*
X00955Y01543*
G37*
G36*
X00241Y01491D02*
X00198D01*
Y01447*
X00194Y01445*
X00193Y01445*
X00185Y01447*
X00176Y01445*
X00169Y0144*
X00164Y01433*
X00162Y01425*
X00164Y01416*
X00164Y01415*
X00154Y01405*
X00125*
Y01385*
Y01364*
X00176*
Y01384*
X00193Y01401*
X00193*
X00198Y01399*
Y01353*
X00241*
Y01491*
G37*
G36*
X03575Y01487D02*
X03565Y01486D01*
X03556Y01482*
X03548Y01476*
X03542Y01468*
X03538Y01459*
X03537Y0145*
X03538Y0144*
X03542Y01431*
X03548Y01423*
X03556Y01417*
X03565Y01413*
X03575Y01412*
X03584Y01413*
X03593Y01417*
X03601Y01423*
X03607Y01431*
X03611Y0144*
X03612Y0145*
X03611Y01459*
X03607Y01468*
X03601Y01476*
X03593Y01482*
X03584Y01486*
X03575Y01487*
G37*
G36*
X03475D02*
X03465Y01486D01*
X03456Y01482*
X03448Y01476*
X03442Y01468*
X03438Y01459*
X03437Y0145*
X03438Y0144*
X03442Y01431*
X03448Y01423*
X03456Y01417*
X03465Y01413*
X03475Y01412*
X03484Y01413*
X03493Y01417*
X03501Y01423*
X03507Y01431*
X03511Y0144*
X03512Y0145*
X03511Y01459*
X03507Y01468*
X03501Y01476*
X03493Y01482*
X03484Y01486*
X03475Y01487*
G37*
G36*
X03375D02*
X03365Y01486D01*
X03356Y01482*
X03348Y01476*
X03342Y01468*
X03338Y01459*
X03337Y0145*
X03338Y0144*
X03342Y01431*
X03348Y01423*
X03356Y01417*
X03365Y01413*
X03375Y01412*
X03384Y01413*
X03393Y01417*
X03401Y01423*
X03407Y01431*
X03411Y0144*
X03412Y0145*
X03411Y01459*
X03407Y01468*
X03401Y01476*
X03393Y01482*
X03384Y01486*
X03375Y01487*
G37*
G36*
X03275D02*
X03265Y01486D01*
X03256Y01482*
X03248Y01476*
X03242Y01468*
X03238Y01459*
X03237Y0145*
X03238Y0144*
X03242Y01431*
X03248Y01423*
X03256Y01417*
X03265Y01413*
X03275Y01412*
X03284Y01413*
X03293Y01417*
X03301Y01423*
X03307Y01431*
X03311Y0144*
X03312Y0145*
X03311Y01459*
X03307Y01468*
X03301Y01476*
X03293Y01482*
X03284Y01486*
X03275Y01487*
G37*
G36*
X00291Y01491D02*
X00248D01*
Y01353*
X00291*
Y01491*
G37*
G36*
X01207Y01356D02*
X01199Y01354D01*
X01192Y0135*
X01188Y01343*
X01186Y01336*
X01187Y01332*
X01182Y01329*
X01176Y01335*
X01175Y01341*
X01171Y01348*
X01164Y01352*
X01157Y01354*
X01149Y01352*
X01142Y01348*
X01138Y01341*
X01136Y01334*
X01138Y01326*
X01142Y01319*
X01149Y01315*
X01155Y01314*
X01213Y01255*
Y01192*
X0121Y01187*
X01208Y0118*
X0121Y01172*
X01214Y01165*
X01221Y01161*
X01229Y01159*
X01236Y01161*
X01243Y01165*
X01247Y01172*
X01249Y0118*
X01247Y01187*
X01244Y01192*
Y01262*
X01243Y01267*
X01239Y01272*
X01204Y01308*
X01205Y01313*
X01207Y01313*
X0126Y0126*
Y01205*
X01257Y012*
X01255Y01193*
X01257Y01185*
X01261Y01178*
X01268Y01174*
X01276Y01172*
X01283Y01174*
X0129Y01178*
X01294Y01185*
X01296Y01193*
X01294Y012*
X01291Y01205*
Y01267*
X0129Y01272*
X01286Y01277*
X01226Y01337*
X01225Y01343*
X01221Y0135*
X01214Y01354*
X01207Y01356*
G37*
G36*
X03575Y01387D02*
X03565Y01386D01*
X03556Y01382*
X03548Y01376*
X03542Y01368*
X03538Y01359*
X03537Y0135*
X03538Y0134*
X03542Y01331*
X03548Y01323*
X03556Y01317*
X03565Y01313*
X03575Y01312*
X03584Y01313*
X03593Y01317*
X03601Y01323*
X03607Y01331*
X03611Y0134*
X03612Y0135*
X03611Y01359*
X03607Y01368*
X03601Y01376*
X03593Y01382*
X03584Y01386*
X03575Y01387*
G37*
G36*
X03475D02*
X03465Y01386D01*
X03456Y01382*
X03448Y01376*
X03442Y01368*
X03438Y01359*
X03437Y0135*
X03438Y0134*
X03442Y01331*
X03448Y01323*
X03456Y01317*
X03465Y01313*
X03475Y01312*
X03484Y01313*
X03493Y01317*
X03501Y01323*
X03507Y01331*
X03511Y0134*
X03512Y0135*
X03511Y01359*
X03507Y01368*
X03501Y01376*
X03493Y01382*
X03484Y01386*
X03475Y01387*
G37*
G36*
X03375D02*
X03365Y01386D01*
X03356Y01382*
X03348Y01376*
X03342Y01368*
X03338Y01359*
X03337Y0135*
X03338Y0134*
X03342Y01331*
X03348Y01323*
X03356Y01317*
X03365Y01313*
X03375Y01312*
X03384Y01313*
X03393Y01317*
X03401Y01323*
X03407Y01331*
X03411Y0134*
X03412Y0135*
X03411Y01359*
X03407Y01368*
X03401Y01376*
X03393Y01382*
X03384Y01386*
X03375Y01387*
G37*
G36*
X03275D02*
X03265Y01386D01*
X03256Y01382*
X03248Y01376*
X03242Y01368*
X03238Y01359*
X03237Y0135*
X03238Y0134*
X03242Y01331*
X03248Y01323*
X03256Y01317*
X03265Y01313*
X03275Y01312*
X03284Y01313*
X03293Y01317*
X03301Y01323*
X03307Y01331*
X03311Y0134*
X03312Y0135*
X03311Y01359*
X03307Y01368*
X03301Y01376*
X03293Y01382*
X03284Y01386*
X03275Y01387*
G37*
G36*
X00341Y01491D02*
X00298D01*
Y01353*
X00304*
Y01261*
X00301Y01256*
X00299Y01249*
X00301Y01241*
X00305Y01234*
X00312Y0123*
X0032Y01228*
X00327Y0123*
X00334Y01234*
X00338Y01241*
X0034Y01249*
X00338Y01256*
X00335Y01261*
Y01353*
X00341*
Y01491*
G37*
G36*
X03575Y01287D02*
X03565Y01286D01*
X03556Y01282*
X03548Y01276*
X03542Y01268*
X03538Y01259*
X03537Y0125*
X03538Y0124*
X03542Y01231*
X03548Y01223*
X03556Y01217*
X03565Y01213*
X03575Y01212*
X03584Y01213*
X03593Y01217*
X03601Y01223*
X03607Y01231*
X03611Y0124*
X03612Y0125*
X03611Y01259*
X03607Y01268*
X03601Y01276*
X03593Y01282*
X03584Y01286*
X03575Y01287*
G37*
G36*
X03475D02*
X03465Y01286D01*
X03456Y01282*
X03448Y01276*
X03442Y01268*
X03438Y01259*
X03437Y0125*
X03438Y0124*
X03442Y01231*
X03448Y01223*
X03456Y01217*
X03465Y01213*
X03475Y01212*
X03484Y01213*
X03493Y01217*
X03501Y01223*
X03507Y01231*
X03511Y0124*
X03512Y0125*
X03511Y01259*
X03507Y01268*
X03501Y01276*
X03493Y01282*
X03484Y01286*
X03475Y01287*
G37*
G36*
X03375D02*
X03365Y01286D01*
X03356Y01282*
X03348Y01276*
X03342Y01268*
X03338Y01259*
X03337Y0125*
X03338Y0124*
X03342Y01231*
X03348Y01223*
X03356Y01217*
X03365Y01213*
X03375Y01212*
X03384Y01213*
X03393Y01217*
X03401Y01223*
X03407Y01231*
X03411Y0124*
X03412Y0125*
X03411Y01259*
X03407Y01268*
X03401Y01276*
X03393Y01282*
X03384Y01286*
X03375Y01287*
G37*
G36*
X03275D02*
X03265Y01286D01*
X03256Y01282*
X03248Y01276*
X03242Y01268*
X03238Y01259*
X03237Y0125*
X03238Y0124*
X03242Y01231*
X03248Y01223*
X03256Y01217*
X03265Y01213*
X03275Y01212*
X03284Y01213*
X03293Y01217*
X03301Y01223*
X03307Y01231*
X03311Y0124*
X03312Y0125*
X03311Y01259*
X03307Y01268*
X03301Y01276*
X03293Y01282*
X03284Y01286*
X03275Y01287*
G37*
G36*
X00391Y01491D02*
X00348D01*
Y01353*
X00354*
Y01228*
X00352Y01225*
X0035Y01218*
X00352Y0121*
X00356Y01203*
X00363Y01199*
X0037Y01197*
X00378Y01199*
X00385Y01203*
X00389Y0121*
X00391Y01218*
X00389Y01225*
X00385Y01232*
X00384Y01232*
Y01353*
X00391*
Y01491*
G37*
G36*
X01588Y01346D02*
X0158Y01344D01*
X01573Y0134*
X01569Y01333*
X01567Y01326*
X01569Y01318*
X01573Y01311*
X0158Y01307*
X01586Y01306*
X01591Y013*
Y012*
X01588Y01195*
X01586Y01188*
X01588Y0118*
X01592Y01173*
X01599Y01169*
X01607Y01167*
X01614Y01169*
X01621Y01173*
X01625Y0118*
X01627Y01188*
X01625Y01195*
X01622Y012*
Y01304*
X01627Y01306*
X01628Y01306*
X01634Y01305*
X01671Y01267*
Y01201*
X01668Y01196*
X01666Y01189*
X01668Y01181*
X01672Y01174*
X01679Y0117*
X01687Y01168*
X01694Y0117*
X01701Y01174*
X01705Y01181*
X01707Y01189*
X01705Y01196*
X01702Y01201*
Y01274*
X01701Y01279*
X01697Y01284*
X01655Y01326*
X01654Y01332*
X0165Y01339*
X01643Y01343*
X01636Y01345*
X01628Y01343*
X01621Y01339*
X01617Y01332*
X01616Y01326*
X01611Y01324*
X01607Y01327*
X01606Y01333*
X01602Y0134*
X01595Y01344*
X01588Y01346*
G37*
G36*
X0178Y01272D02*
X01772Y0127D01*
X01765Y01266*
X01761Y01259*
X01759Y01252*
X01761Y01244*
X01765Y01238*
Y01199*
X01762Y01194*
X0176Y01187*
X01762Y01179*
X01766Y01172*
X01773Y01168*
X01781Y01166*
X01788Y01168*
X01795Y01172*
X01799Y01179*
X01801Y01187*
X01799Y01194*
X01795Y012*
Y01239*
X01798Y01244*
X018Y01252*
X01798Y01259*
X01794Y01266*
X01787Y0127*
X0178Y01272*
G37*
G36*
X00731Y01345D02*
X00723Y01343D01*
X00716Y01339*
X00712Y01332*
X0071Y01325*
X00712Y01317*
X00715Y01312*
Y01198*
X00712Y01193*
X0071Y01186*
X00712Y01178*
X00716Y01171*
X00723Y01167*
X00731Y01165*
X00738Y01167*
X00745Y01171*
X00749Y01178*
X00751Y01186*
X00749Y01193*
X00746Y01198*
Y01312*
X00749Y01317*
X00751Y01325*
X00749Y01332*
X00745Y01339*
X00738Y01343*
X00731Y01345*
G37*
G36*
X00777Y01348D02*
X00769Y01346D01*
X00762Y01342*
X00758Y01335*
X00756Y01328*
X00758Y0132*
X00761Y01315*
Y01197*
X00758Y01192*
X00756Y01185*
X00758Y01177*
X00762Y0117*
X00769Y01166*
X00777Y01164*
X00784Y01166*
X00791Y0117*
X00795Y01177*
X00797Y01185*
X00795Y01192*
X00792Y01197*
Y01315*
X00795Y0132*
X00797Y01328*
X00795Y01335*
X00791Y01342*
X00784Y01346*
X00777Y01348*
G37*
G36*
X00484Y0127D02*
X00476Y01268D01*
X00469Y01264*
X00465Y01257*
X00463Y0125*
X00465Y01242*
X00468Y01237*
Y01191*
X00465Y01186*
X00463Y01179*
X00465Y01171*
X00469Y01164*
X00476Y0116*
X00484Y01158*
X00491Y0116*
X00498Y01164*
X00502Y01171*
X00504Y01179*
X00502Y01186*
X00499Y01191*
Y01237*
X00502Y01242*
X00504Y0125*
X00502Y01257*
X00498Y01264*
X00491Y01268*
X00484Y0127*
G37*
G36*
X01337Y01271D02*
X01329Y01269D01*
X01322Y01265*
X01318Y01258*
X01316Y01251*
X01318Y01243*
X0132Y0124*
Y01191*
X01319Y01191*
X01315Y01184*
X01313Y01177*
X01315Y01169*
X01319Y01162*
X01326Y01158*
X01334Y01156*
X01341Y01158*
X01348Y01162*
X01352Y01169*
X01354Y01177*
X01352Y01184*
X0135Y01187*
Y01236*
X01351Y01236*
X01355Y01243*
X01357Y01251*
X01355Y01258*
X01351Y01265*
X01344Y01269*
X01337Y01271*
G37*
G36*
X00901D02*
X00893Y01269D01*
X00886Y01265*
X00882Y01258*
X0088Y01251*
X00882Y01243*
X00886Y01237*
Y01182*
X00883Y01177*
X00881Y0117*
X00883Y01162*
X00887Y01155*
X00894Y01151*
X00902Y01149*
X00909Y01151*
X00916Y01155*
X0092Y01162*
X00922Y0117*
X0092Y01177*
X00916Y01183*
Y01238*
X00919Y01243*
X00921Y01251*
X00919Y01258*
X00915Y01265*
X00908Y01269*
X00901Y01271*
G37*
G36*
X02422Y01139D02*
X024D01*
Y01119*
X02422*
Y01139*
G37*
G36*
X0239D02*
X02367D01*
Y01119*
X0239*
Y01139*
G37*
G36*
X03575Y01187D02*
X03565Y01186D01*
X03556Y01182*
X03548Y01176*
X03542Y01168*
X03538Y01159*
X03537Y0115*
X03538Y0114*
X03542Y01131*
X03548Y01123*
X03556Y01117*
X03565Y01113*
X03575Y01112*
X03584Y01113*
X03593Y01117*
X03601Y01123*
X03607Y01131*
X03611Y0114*
X03612Y0115*
X03611Y01159*
X03607Y01168*
X03601Y01176*
X03593Y01182*
X03584Y01186*
X03575Y01187*
G37*
G36*
X03475D02*
X03465Y01186D01*
X03456Y01182*
X03448Y01176*
X03442Y01168*
X03438Y01159*
X03437Y0115*
X03438Y0114*
X03442Y01131*
X03448Y01123*
X03456Y01117*
X03465Y01113*
X03475Y01112*
X03484Y01113*
X03493Y01117*
X03501Y01123*
X03507Y01131*
X03511Y0114*
X03512Y0115*
X03511Y01159*
X03507Y01168*
X03501Y01176*
X03493Y01182*
X03484Y01186*
X03475Y01187*
G37*
G36*
X03375D02*
X03365Y01186D01*
X03356Y01182*
X03348Y01176*
X03342Y01168*
X03338Y01159*
X03337Y0115*
X03338Y0114*
X03342Y01131*
X03348Y01123*
X03356Y01117*
X03365Y01113*
X03375Y01112*
X03384Y01113*
X03393Y01117*
X03401Y01123*
X03407Y01131*
X03411Y0114*
X03412Y0115*
X03411Y01159*
X03407Y01168*
X03401Y01176*
X03393Y01182*
X03384Y01186*
X03375Y01187*
G37*
G36*
X03275D02*
X03265Y01186D01*
X03256Y01182*
X03248Y01176*
X03242Y01168*
X03238Y01159*
X03237Y0115*
X03238Y0114*
X03242Y01131*
X03248Y01123*
X03256Y01117*
X03265Y01113*
X03275Y01112*
X03284Y01113*
X03293Y01117*
X03301Y01123*
X03307Y01131*
X03311Y0114*
X03312Y0115*
X03311Y01159*
X03307Y01168*
X03301Y01176*
X03293Y01182*
X03284Y01186*
X03275Y01187*
G37*
G36*
X01827Y01115D02*
X01811D01*
Y011*
X01827*
Y01115*
G37*
G36*
X0233Y01112D02*
X02315D01*
Y01096*
X0233*
Y01112*
G37*
G36*
X00391Y01156D02*
X00375D01*
Y01092*
X00391*
Y01156*
G37*
G36*
X00365D02*
X00348D01*
Y01092*
X00365*
Y01156*
G37*
G36*
X01827Y0109D02*
X01811D01*
Y01074*
X01827*
Y0109*
G37*
G36*
X03575Y01087D02*
X03565Y01086D01*
X03556Y01082*
X03548Y01076*
X03542Y01068*
X03538Y01059*
X03537Y0105*
X03538Y0104*
X03542Y01031*
X03548Y01023*
X03556Y01017*
X03565Y01013*
X03575Y01012*
X03584Y01013*
X03593Y01017*
X03601Y01023*
X03607Y01031*
X03611Y0104*
X03612Y0105*
X03611Y01059*
X03607Y01068*
X03601Y01076*
X03593Y01082*
X03584Y01086*
X03575Y01087*
G37*
G36*
X03475D02*
X03465Y01086D01*
X03456Y01082*
X03448Y01076*
X03442Y01068*
X03438Y01059*
X03437Y0105*
X03438Y0104*
X03442Y01031*
X03448Y01023*
X03456Y01017*
X03465Y01013*
X03475Y01012*
X03484Y01013*
X03493Y01017*
X03501Y01023*
X03507Y01031*
X03511Y0104*
X03512Y0105*
X03511Y01059*
X03507Y01068*
X03501Y01076*
X03493Y01082*
X03484Y01086*
X03475Y01087*
G37*
G36*
X03375D02*
X03365Y01086D01*
X03356Y01082*
X03348Y01076*
X03342Y01068*
X03338Y01059*
X03337Y0105*
X03338Y0104*
X03342Y01031*
X03348Y01023*
X03356Y01017*
X03365Y01013*
X03375Y01012*
X03384Y01013*
X03393Y01017*
X03401Y01023*
X03407Y01031*
X03411Y0104*
X03412Y0105*
X03411Y01059*
X03407Y01068*
X03401Y01076*
X03393Y01082*
X03384Y01086*
X03375Y01087*
G37*
G36*
X01383Y01008D02*
X01368D01*
Y00992*
X01383*
Y01008*
G37*
G36*
X01358D02*
X01342D01*
Y00992*
X01358*
Y01008*
G37*
G36*
X01746Y01115D02*
D01*
X01745*
X01669*
Y0111*
X01623*
X01617Y01109*
X01612Y01105*
X01578Y01072*
X01575Y01067*
X01574Y01061*
Y01049*
X01568*
Y01044*
X01473*
X01467Y01043*
X01462Y01039*
X01424Y01001*
X01417*
X01412Y01*
X01408Y00997*
X01405Y00993*
X01404Y00988*
Y00967*
X01383*
Y00982*
X01363*
X01342*
Y00972*
X01338Y0097*
X01337Y00969*
X0133Y00971*
X01322Y00969*
X01315Y00965*
X01311Y00958*
X01309Y00951*
X01311Y00943*
X01315Y00936*
X01322Y00932*
X0133Y0093*
X01337Y00932*
X01342Y00931*
X01383*
Y00936*
X01404*
Y00915*
X01405Y0091*
X01408Y00906*
X01412Y00903*
X01417Y00902*
X01433*
X01438Y00903*
X01442Y00906*
X01445Y0091*
X01446Y00915*
Y00979*
X0145Y00983*
X01454Y00981*
Y00915*
X01455Y0091*
X01458Y00906*
X01462Y00903*
X01467Y00902*
X01483*
X01488Y00903*
X01492Y00906*
X01495Y0091*
X01496Y00915*
Y00988*
X01495Y00993*
X01492Y00997*
X01488Y01*
X01483Y01001*
X01474*
X01472Y01005*
X0148Y01013*
X01568*
Y01008*
X01609*
Y00998*
X01608Y00997*
X01605Y00993*
X01604Y00988*
Y00915*
X01605Y0091*
X01608Y00906*
X01612Y00903*
X01617Y00902*
X01633*
X01638Y00903*
X01642Y00906*
X01645Y0091*
X01646Y00915*
Y00988*
X01645Y00993*
X01642Y00997*
X0164Y00998*
Y01008*
X01645*
Y01049*
X01604*
Y01055*
X01629Y01079*
X01669*
Y01074*
X01706*
X01709Y0107*
Y01029*
X01731*
Y01001*
X01717*
X01712Y01*
X01708Y00997*
X01705Y00993*
X01704Y00988*
Y00915*
X01699Y00913*
X01697Y00916*
X01696Y00918*
Y00946*
X01696Y00946*
Y00988*
X01695Y00993*
X01692Y00997*
X01688Y01*
X01683Y01001*
X01667*
X01662Y01*
X01658Y00997*
X01655Y00993*
X01654Y00988*
Y00915*
X01655Y0091*
X01658Y00906*
X01662Y00903*
X01663Y00902*
X01663Y00902*
X01664Y00894*
X01666Y00892*
X01663Y00888*
X01329*
X01326Y0089*
X01322Y00893*
X01317Y00894*
X01277*
Y01055*
X01207*
Y0089*
X01237*
Y00884*
X01238Y00879*
X0124Y00875*
X01241Y00875*
X0124Y00875*
X01238Y00871*
X01237Y00866*
Y0086*
X01208*
Y00862*
X01207Y00867*
X01204Y00871*
X01185Y0089*
X01181Y00893*
X01177Y00894*
Y0095*
X01177Y00951*
Y01055*
X01107*
Y0089*
X01151*
Y00884*
X01152Y00879*
X01155Y00875*
X01155Y00875*
X01155Y00875*
X01152Y00871*
X01151Y00866*
Y0086*
X0111*
Y0086*
X01109Y00865*
X01106Y00869*
X01085Y0089*
X01081Y00893*
X01077Y00894*
Y0095*
X01077Y00951*
Y01055*
X01007*
Y0089*
X01051*
Y00884*
X01052Y00879*
X01055Y00875*
X01055Y00875*
X01055Y00875*
X01052Y00871*
X01051Y00866*
Y0086*
X01007*
X01006Y00865*
Y00876*
X01005Y00882*
X01001Y00887*
X00977Y00912*
Y01055*
X00907*
Y0089*
X00955*
X00975Y0087*
Y0086*
X00947*
Y00778*
X00942*
X00947*
Y00695*
X00975*
Y00653*
X00976Y00647*
X0098Y00642*
X01062Y00559*
X01064Y00557*
X01148Y00473*
X0115Y00471*
X0116Y00462*
X01161Y00456*
X01162Y00454*
X01159Y00449*
X01108*
X00866Y00691*
X00868Y00695*
X00877*
Y0086*
X0081*
X0081*
X00809*
X00807Y00865*
X00832Y0089*
X00877*
Y01055*
X00807*
Y00932*
X00806Y00931*
X00807Y00929*
Y00922*
X00774Y0089*
X0077Y00883*
X00768Y00876*
X0077Y00868*
X00774Y00861*
X00781Y00857*
X00789Y00855*
X00796Y00857*
X00802Y0086*
X00806Y00859*
X00807Y00858*
Y00856*
Y00695*
X00826*
Y00694*
X00827Y00688*
X00831Y00683*
X01091Y00423*
X01096Y00419*
X01102Y00418*
X01246*
X01251Y00415*
X01259Y00413*
X01266Y00415*
X01273Y00419*
X01277Y00426*
X01279Y00434*
X01277Y00441*
X01273Y00448*
X01266Y00452*
X01259Y00454*
X01251Y00452*
X01246Y00449*
X012*
X01197Y00454*
X01198Y00456*
X012Y00464*
X01198Y00471*
X01194Y00478*
X01187Y00482*
X01181Y00483*
X0117Y00494*
X01168Y00496*
X01087Y00577*
X01086Y00579*
X01006Y00659*
Y0069*
X01007Y00695*
X01011*
X01072*
Y00673*
X01073Y00668*
X01076Y00664*
X0118Y0056*
X01184Y00557*
X01189Y00556*
X01674*
X01678Y00557*
X01683Y0056*
X01716Y00594*
X01719Y00598*
X0172Y00603*
Y00603*
X01754*
Y00624*
Y00644*
X01744*
X0174Y00648*
Y00689*
X01721*
Y00708*
X01733*
X01738Y00709*
X01742Y00712*
X01745Y00716*
X01746Y00721*
Y00794*
X01745Y00799*
X01742Y00803*
X01738Y00806*
X01733Y00807*
X01717*
X01712Y00806*
X01708Y00803*
X01705Y00799*
X01704Y00794*
Y00769*
X017Y00766*
X017Y00766*
X017Y00766*
X01696Y00769*
Y00794*
X01695Y00799*
X01692Y00803*
X01688Y00806*
X01683Y00807*
X01667*
X01662Y00806*
X01658Y00803*
X01655Y00799*
X01654Y00794*
Y00721*
X01655Y00716*
X01658Y00712*
X01662Y00709*
X01667Y00708*
X01682*
X01682Y00708*
X01682Y00707*
Y00689*
X01663*
Y00657*
X01658Y00657*
X01657Y00661*
X01654Y00666*
X01626Y00694*
X01626Y00695*
X01625Y00703*
X01624Y00704*
X01626Y00708*
X01633*
X01638Y00709*
X01642Y00712*
X01645Y00716*
X01646Y00721*
Y00794*
X01645Y00799*
X01642Y00803*
X01641Y00803*
X01643Y00806*
X01644Y00814*
X01643Y00821*
X01639Y00828*
X01632Y00832*
X01624Y00834*
X01616Y00832*
X0161Y00828*
X01606Y00821*
X01604Y00814*
X01606Y00806*
X01608Y00803*
X01605Y00799*
X01604Y00794*
Y00721*
X01605Y00716*
X01605Y00715*
X01599Y00714*
X01598Y00714*
X01595Y00717*
X01596Y00721*
Y00794*
X01595Y00799*
X01592Y00803*
X01592Y00803*
X01592Y00804*
X01594Y00812*
X01592Y00819*
X01588Y00826*
X01581Y0083*
X01574Y00832*
X01566Y0083*
X01559Y00826*
X01555Y00819*
X01553Y00812*
X01555Y00804*
X01557Y00801*
X01555Y00799*
X01554Y00794*
Y00721*
X01555Y00716*
X01558Y00712*
X01562Y00709*
X01567Y00708*
X01583*
X01585Y00709*
X01588Y00704*
X01587Y00703*
X01586Y00697*
X01533Y00643*
X0153Y00644*
X01493*
X01489Y00648*
Y00689*
X0147*
Y00708*
X01483*
X01488Y00709*
X01492Y00712*
X01495Y00716*
X01496Y00721*
Y00794*
X01495Y00799*
X01492Y00803*
X01488Y00806*
X01483Y00807*
X01467*
X01462Y00806*
X01461Y00805*
X01457Y00803*
X01453Y00805*
X01444Y00815*
X0144Y00818*
X01435Y00819*
X01405*
X014Y00818*
X01396Y00815*
X01316Y00735*
X01313Y00731*
X01312Y00726*
Y00703*
X01288Y00679*
X01214*
X01208Y00685*
Y00695*
X01277*
Y00856*
X01307*
X01309Y00854*
X01313Y00851*
X01318Y0085*
X01716*
X01721Y00851*
X01725Y00854*
X01765Y00893*
X01768Y00898*
X01769Y00902*
X01783*
X01788Y00903*
X01792Y00906*
X01795Y0091*
X01796Y00915*
Y00988*
X01795Y00993*
X01792Y00997*
X01788Y01*
X01783Y01001*
X01769*
Y01029*
X01786*
Y0107*
X0179Y01074*
X01801*
Y01095*
Y01115*
X01751*
X0175*
X01746*
G37*
G36*
X03575Y00987D02*
X03565Y00986D01*
X03556Y00982*
X03548Y00976*
X03542Y00968*
X03538Y00959*
X03537Y0095*
X03538Y0094*
X03542Y00931*
X03548Y00923*
X03556Y00917*
X03565Y00913*
X03575Y00912*
X03584Y00913*
X03593Y00917*
X03601Y00923*
X03607Y00931*
X03611Y0094*
X03612Y0095*
X03611Y00959*
X03607Y00968*
X03601Y00976*
X03593Y00982*
X03584Y00986*
X03575Y00987*
G37*
G36*
X03475D02*
X03465Y00986D01*
X03456Y00982*
X03448Y00976*
X03442Y00968*
X03438Y00959*
X03437Y0095*
X03438Y0094*
X03442Y00931*
X03448Y00923*
X03456Y00917*
X03465Y00913*
X03475Y00912*
X03484Y00913*
X03493Y00917*
X03501Y00923*
X03507Y00931*
X03511Y0094*
X03512Y0095*
X03511Y00959*
X03507Y00968*
X03501Y00976*
X03493Y00982*
X03484Y00986*
X03475Y00987*
G37*
G36*
X03375D02*
X03365Y00986D01*
X03356Y00982*
X03348Y00976*
X03342Y00968*
X03338Y00959*
X03337Y0095*
X03338Y0094*
X03342Y00931*
X03348Y00923*
X03356Y00917*
X03365Y00913*
X03375Y00912*
X03384Y00913*
X03393Y00917*
X03401Y00923*
X03407Y00931*
X03411Y0094*
X03412Y0095*
X03411Y00959*
X03407Y00968*
X03401Y00976*
X03393Y00982*
X03384Y00986*
X03375Y00987*
G37*
G36*
X02109Y00923D02*
X02094D01*
Y00907*
X02109*
Y00923*
G37*
G36*
X01583Y01001D02*
X01567D01*
X01562Y01*
X01558Y00997*
X01555Y00993*
X01554Y00988*
Y00915*
X01555Y0091*
X01558Y00906*
X01562Y00903*
X01567Y00902*
X01583*
X01588Y00903*
X01592Y00906*
X01595Y0091*
X01596Y00915*
Y00988*
X01595Y00993*
X01592Y00997*
X01588Y01*
X01583Y01001*
G37*
G36*
X01533D02*
X01517D01*
X01512Y01*
X01508Y00997*
X01505Y00993*
X01504Y00988*
Y00915*
X01505Y0091*
X01508Y00906*
X01512Y00903*
X01517Y00902*
X01533*
X01538Y00903*
X01542Y00906*
X01545Y0091*
X01546Y00915*
Y00988*
X01545Y00993*
X01542Y00997*
X01538Y01*
X01533Y01001*
G37*
G36*
X03062Y00895D02*
X03046D01*
Y0088*
X03062*
Y00895*
G37*
G36*
Y0087D02*
X03046D01*
Y00854*
X03062*
Y0087*
G37*
G36*
X03575Y00887D02*
X03565Y00886D01*
X03556Y00882*
X03548Y00876*
X03542Y00868*
X03538Y00859*
X03537Y0085*
X03538Y0084*
X03542Y00831*
X03548Y00823*
X03556Y00817*
X03565Y00813*
X03575Y00812*
X03584Y00813*
X03593Y00817*
X03601Y00823*
X03607Y00831*
X03611Y0084*
X03612Y0085*
X03611Y00859*
X03607Y00868*
X03601Y00876*
X03593Y00882*
X03584Y00886*
X03575Y00887*
G37*
G36*
X03475D02*
X03465Y00886D01*
X03456Y00882*
X03448Y00876*
X03442Y00868*
X03438Y00859*
X03437Y0085*
X03438Y0084*
X03442Y00831*
X03448Y00823*
X03456Y00817*
X03465Y00813*
X03475Y00812*
X03484Y00813*
X03493Y00817*
X03501Y00823*
X03507Y00831*
X03511Y0084*
X03512Y0085*
X03511Y00859*
X03507Y00868*
X03501Y00876*
X03493Y00882*
X03484Y00886*
X03475Y00887*
G37*
G36*
X02209Y00837D02*
X02171D01*
X02134*
Y00825*
X02149*
Y0081*
X0215Y00804*
X02154Y00799*
X02159Y00796*
X02165Y00795*
X0217Y00796*
X02175Y00799*
X02179Y00804*
X0218Y0081*
Y00825*
X02209*
Y00837*
G37*
G36*
X03056Y00825D02*
X03023D01*
Y00785*
X03056*
Y00825*
G37*
G36*
X03013D02*
X02981D01*
Y00785*
X03013*
Y00825*
G37*
G36*
X00937Y0086D02*
X00907D01*
Y00783*
X00937*
Y0086*
G37*
G36*
X01783Y00807D02*
X0178D01*
Y00763*
X01796*
Y00794*
X01795Y00799*
X01792Y00803*
X01788Y00806*
X01783Y00807*
G37*
G36*
X0177D02*
X01767D01*
X01762Y00806*
X01758Y00803*
X01755Y00799*
X01754Y00794*
Y00763*
X0177*
Y00807*
G37*
G36*
X00583Y00765D02*
X00567D01*
Y0075*
X00583*
Y00765*
G37*
G36*
X03056Y00775D02*
X03023D01*
Y00734*
X03056*
Y00775*
G37*
G36*
X03013D02*
X02981D01*
Y00734*
X03013*
Y00775*
G37*
G36*
X00583Y0074D02*
X00567D01*
Y00724*
X00583*
Y0074*
G37*
G36*
X03575Y00787D02*
X03565Y00786D01*
X03556Y00782*
X03548Y00776*
X03542Y00768*
X03538Y00759*
X03537Y0075*
X03538Y0074*
X03542Y00731*
X03548Y00723*
X03556Y00717*
X03565Y00713*
X03575Y00712*
X03584Y00713*
X03593Y00717*
X03601Y00723*
X03607Y00731*
X03611Y0074*
X03612Y0075*
X03611Y00759*
X03607Y00768*
X03601Y00776*
X03593Y00782*
X03584Y00786*
X03575Y00787*
G37*
G36*
X03195Y0091D02*
X03125D01*
X03123Y00909*
X03122Y00909*
X03121Y00909*
X03121Y00909*
X0312Y00908*
X03118Y00907*
X03118Y00907*
X03118Y00907*
X03117Y00905*
X03116Y00904*
X03114Y009*
X03114Y00899*
X03114Y00899*
X03113Y00898*
X03113Y00896*
X03108Y00895*
X03072*
Y00875*
Y00854*
X03079*
Y00825*
X0308Y00821*
X03082Y00818*
X03083Y00817*
Y00742*
X03082Y00741*
X0308Y00738*
X03079Y00734*
Y00707*
X0308Y00706*
X0308Y00704*
X0308Y00704*
X0308Y00703*
X03081Y00702*
X03082Y00701*
X03082Y00701*
X03082Y007*
X03084Y00699*
X03085Y00698*
X03088Y00696*
X03088Y00693*
Y00676*
X03088Y00673*
X03085Y00671*
X03084Y0067*
X03083Y00669*
X03082Y00669*
X03082Y00668*
X03081Y00667*
X03081Y00666*
X0308Y00665*
X0308Y00665*
X0308Y00663*
X0308Y00662*
Y00657*
X0308Y00656*
X0308Y00654*
X0308Y00654*
X03081Y00653*
X03081Y00652*
X03082Y00651*
X03082Y0065*
X03083Y0065*
X03084Y00649*
X03085Y00648*
X03088Y00646*
X03088Y00643*
Y00626*
X03088Y00623*
X03085Y00621*
X03084Y0062*
X03083Y00619*
X03082Y00619*
X03082Y00618*
X03081Y00617*
X03081Y00616*
X0308Y00615*
X0308Y00615*
X0308Y00613*
X0308Y00612*
Y00607*
X0308Y00606*
X0308Y00604*
X0308Y00604*
X03081Y00603*
X03081Y00602*
X03082Y00601*
X03082Y006*
X03083Y006*
X03084Y00599*
X03085Y00598*
X03088Y00596*
X03088Y00593*
Y00576*
X03089Y00571*
X03092Y00566*
X03096Y00563*
X03101Y00562*
X03173*
X03178Y00563*
X0318Y00565*
X03182Y00563*
X03182Y00563*
X03182Y00562*
X03184Y00561*
X03185Y00561*
X03185Y0056*
X03186Y0056*
X03187Y0056*
X03189Y00559*
X03189Y00559*
X0319Y00559*
X03195*
X03198Y0056*
X03202Y00562*
X03204Y00566*
X03205Y0057*
Y00689*
X03261*
X03262Y00684*
X03256Y00682*
X03248Y00676*
X03242Y00668*
X03238Y00659*
X03237Y0065*
X03238Y0064*
X03242Y00631*
X03248Y00623*
X03256Y00617*
X03265Y00613*
X03275Y00612*
X03284Y00613*
X03293Y00617*
X03301Y00623*
X03307Y00631*
X03311Y0064*
X03312Y0065*
X03311Y00659*
X03307Y00668*
X03301Y00676*
X03293Y00682*
X03287Y00684*
X03288Y00689*
X03361*
X03362Y00684*
X03356Y00682*
X03348Y00676*
X03342Y00668*
X03338Y00659*
X03337Y0065*
X03338Y0064*
X03342Y00631*
X03348Y00623*
X03356Y00617*
X03365Y00613*
X03375Y00612*
X03384Y00613*
X03393Y00617*
X03401Y00623*
X03407Y00631*
X03411Y0064*
X03412Y0065*
X03411Y00659*
X03407Y00668*
X03401Y00676*
X03393Y00682*
X03387Y00684*
X03388Y00689*
X03423*
X03427Y0069*
X0343Y00692*
X03433Y00696*
X03433Y00697*
X03434Y00701*
Y00739*
X03438Y0074*
X03442Y00731*
X03448Y00723*
X03456Y00717*
X03465Y00713*
X03475Y00712*
X03484Y00713*
X03493Y00717*
X03501Y00723*
X03507Y00731*
X03511Y0074*
X03512Y0075*
X03511Y00759*
X03507Y00768*
X03501Y00776*
X03493Y00782*
X03484Y00786*
X03475Y00787*
X03465Y00786*
X03456Y00782*
X03448Y00776*
X03442Y00768*
X03438Y00759*
X03434Y0076*
Y00801*
X03433Y00804*
X03431Y00808*
X03427Y0081*
X03424Y00811*
X0339*
X03389Y00816*
X03393Y00817*
X03401Y00823*
X03407Y00831*
X03411Y0084*
X03412Y0085*
X03411Y00859*
X03407Y00868*
X03401Y00876*
X03393Y00882*
X03384Y00886*
X03375Y00887*
X03365Y00886*
X03356Y00882*
X03348Y00876*
X03342Y00868*
X03338Y00859*
X03337Y0085*
X03338Y0084*
X03342Y00831*
X03348Y00823*
X03356Y00817*
X0336Y00816*
X03359Y00811*
X0329*
X03289Y00816*
X03293Y00817*
X03301Y00823*
X03307Y00831*
X03311Y0084*
X03312Y0085*
X03311Y00859*
X03307Y00868*
X03301Y00876*
X03293Y00882*
X03284Y00886*
X03275Y00887*
X03265Y00886*
X03256Y00882*
X03248Y00876*
X03242Y00868*
X03238Y00859*
X03237Y0085*
X03238Y0084*
X03242Y00831*
X03248Y00823*
X03256Y00817*
X0326Y00816*
X03259Y00811*
X03205*
Y009*
X03204Y00903*
X03202Y00907*
X03198Y00909*
X03195Y0091*
G37*
G36*
X01796Y00753D02*
X0178D01*
Y00708*
X01783*
X01788Y00709*
X01792Y00712*
X01795Y00716*
X01796Y00721*
Y00753*
G37*
G36*
X0177D02*
X01754D01*
Y00721*
X01755Y00716*
X01758Y00712*
X01762Y00709*
X01767Y00708*
X0177*
Y00753*
G37*
G36*
X01525Y00832D02*
X01517Y0083D01*
X01511Y00826*
X01506Y00819*
X01505Y00811*
X01506Y00804*
X01507Y00802*
X01505Y00799*
X01504Y00794*
Y00721*
X01505Y00716*
X01508Y00712*
X01512Y00709*
X01517Y00708*
X01533*
X01538Y00709*
X01542Y00712*
X01545Y00716*
X01546Y00721*
Y00794*
X01545Y00799*
X01542Y00802*
X01544Y00804*
X01545Y00811*
X01544Y00819*
X01539Y00826*
X01533Y0083*
X01525Y00832*
G37*
G36*
X00937Y00773D02*
X00907D01*
Y00695*
X00937*
Y00773*
G37*
G36*
X02978Y00707D02*
X02947D01*
Y0069*
X02991*
Y00693*
X0299Y00698*
X02987Y00703*
X02983Y00706*
X02978Y00707*
G37*
G36*
X02937D02*
X02906D01*
X02901Y00706*
X02897Y00703*
X02894Y00698*
X02893Y00693*
Y0069*
X02937*
Y00707*
G37*
G36*
X02991Y0068D02*
X02947D01*
Y00662*
X02978*
X02983Y00663*
X02987Y00666*
X0299Y00671*
X02991Y00676*
Y0068*
G37*
G36*
X02937D02*
X02893D01*
Y00676*
X02894Y00671*
X02897Y00666*
X02901Y00663*
X02906Y00662*
X02937*
Y0068*
G37*
G36*
X02706Y01714D02*
X02698Y01712D01*
X02691Y01708*
X02687Y01701*
X02685Y01694*
X02687Y01686*
X0269Y01681*
Y00945*
X02691Y00939*
X02695Y00934*
X02793Y00835*
Y00673*
X0279Y00668*
X02788Y00661*
X02789Y00658*
X02785Y00654*
X02783Y00655*
X02779Y00654*
X02778Y00655*
X02776Y00658*
X02777Y00665*
X02775Y00672*
X02771Y00679*
X02764Y00683*
X02757Y00685*
X02749Y00683*
X02742Y00679*
X02738Y00672*
X02736Y00665*
X02738Y00657*
X02739Y00655*
X02737Y0065*
X02692*
X02686Y00654*
X02679Y00656*
X02671Y00654*
X02664Y0065*
X0266Y00643*
X02658Y00636*
X0266Y00628*
X02664Y00621*
X02671Y00617*
X02679Y00615*
X02686Y00617*
X02691Y0062*
X02769*
X02775Y00616*
X02783Y00614*
X0279Y00616*
X02797Y0062*
X02801Y00627*
X02803Y00635*
X02802Y00637*
X02806Y00641*
X02809Y0064*
X02816Y00642*
X02823Y00646*
X02827Y00653*
X02829Y00661*
X02827Y00668*
X02824Y00673*
Y00842*
X02823Y00847*
X02819Y00852*
X02721Y00951*
Y01681*
X02724Y01686*
X02726Y01694*
X02724Y01701*
X0272Y01708*
X02713Y01712*
X02706Y01714*
G37*
G36*
X0178Y00644D02*
X01764D01*
Y00629*
X0178*
Y00644*
G37*
G36*
X02644Y00725D02*
X0248D01*
Y00655*
X02536*
Y00639*
X02536Y00638*
Y00625*
X0248*
Y00615*
X0245*
Y00625*
X02393*
Y00655*
X0245*
Y00725*
X02285*
Y00655*
X02342*
Y00625*
X02285*
Y00555*
X0245*
Y00564*
X0248*
Y00555*
X02644*
Y00625*
X02587*
Y00638*
X02587Y00638*
Y00655*
X02644*
Y00725*
G37*
G36*
X00101Y01637D02*
X00093Y01635D01*
X00086Y01631*
X00082Y01624*
X00081Y01618*
X00042Y01579*
X00038Y01574*
X00037Y01569*
Y00931*
X00038Y00925*
X00042Y0092*
X00084Y00877*
Y00798*
X00079*
Y00756*
Y00721*
X0012*
Y00726*
X00144*
Y00721*
X00164*
X00174Y00711*
X00172Y00706*
X00128*
Y00663*
X00129Y00661*
X00128Y00656*
Y00613*
X00266*
Y00635*
X00299Y00668*
X00303Y00673*
X00304Y00679*
Y00998*
X00305Y00999*
X00306Y01005*
Y01018*
X00341*
Y01156*
X00298*
Y01044*
X00293Y01042*
X00291Y01043*
Y01156*
X00286*
Y01271*
X00287Y01271*
X00291Y01278*
X00293Y01286*
X00291Y01293*
X00287Y013*
X0028Y01304*
X00272Y01306*
X00265Y01304*
X00258Y013*
X00254Y01293*
X00252Y01286*
X00254Y01278*
X00256Y01275*
Y01156*
X00248*
Y01018*
X0027*
X00275Y01013*
Y0101*
X00274Y01009*
X00273Y01003*
Y00687*
X00271Y00685*
X00266Y00688*
Y00706*
X00212*
Y00709*
X00211Y00715*
X00208Y0072*
X00185Y00743*
Y00763*
X00195*
X00201Y00759*
X0021Y00757*
X00218Y00759*
X00225Y00764*
X0023Y00771*
X00232Y0078*
X0023Y00788*
X00225Y00795*
X00218Y008*
X0021Y00802*
X00201Y008*
X00194Y00795*
X00193Y00794*
X00185*
Y00798*
X00144*
Y00757*
X0012*
Y00798*
X00115*
Y00884*
X00114Y00889*
X0011Y00894*
X00084Y00921*
Y00938*
X00088Y0094*
X0011Y00919*
X00115Y00915*
X00121Y00914*
X00163*
Y00909*
X0024*
Y0095*
X00235*
Y00969*
X0024*
Y0101*
X00235*
Y01018*
X00241*
Y01156*
X00198*
Y01018*
X00204*
Y0101*
X00163*
Y01009*
X00158Y01007*
X00153Y0101*
X00145Y01012*
X00136Y0101*
X00129Y01005*
X00124Y00998*
X00122Y0099*
X00124Y00981*
X00129Y00974*
X00136Y00969*
X00145Y00967*
X00153Y00969*
X00158Y00972*
X00163Y0097*
Y00969*
X00204*
Y0095*
X00163*
Y00945*
X00127*
X00105Y00967*
Y01364*
X00115*
Y01385*
Y01405*
X00105*
Y01526*
X0016Y01582*
X00166Y01583*
X00173Y01587*
X00177Y01594*
X00179Y01602*
X00177Y01609*
X00173Y01616*
X00166Y0162*
X00159Y01622*
X00151Y0162*
X00144Y01616*
X0014Y01609*
X00139Y01603*
X00079Y01543*
X00068Y01554*
Y01562*
X00102Y01597*
X00108Y01598*
X00115Y01602*
X00119Y01609*
X00121Y01617*
X00119Y01624*
X00115Y01631*
X00108Y01635*
X00101Y01637*
G37*
G36*
X03575Y00687D02*
X03565Y00686D01*
X03556Y00682*
X03548Y00676*
X03542Y00668*
X03538Y00659*
X03537Y0065*
X03538Y0064*
X03542Y00631*
X03548Y00623*
X03556Y00617*
X03565Y00613*
X03575Y00612*
X03584Y00613*
X03593Y00617*
X03601Y00623*
X03607Y00631*
X03611Y0064*
X03612Y0065*
X03611Y00659*
X03607Y00668*
X03601Y00676*
X03593Y00682*
X03584Y00686*
X03575Y00687*
G37*
G36*
X03475D02*
X03465Y00686D01*
X03456Y00682*
X03448Y00676*
X03442Y00668*
X03438Y00659*
X03437Y0065*
X03438Y0064*
X03442Y00631*
X03448Y00623*
X03456Y00617*
X03465Y00613*
X03475Y00612*
X03484Y00613*
X03493Y00617*
X03501Y00623*
X03507Y00631*
X03511Y0064*
X03512Y0065*
X03511Y00659*
X03507Y00668*
X03501Y00676*
X03493Y00682*
X03484Y00686*
X03475Y00687*
G37*
G36*
X0178Y00619D02*
X01764D01*
Y00603*
X0178*
Y00619*
G37*
G36*
X02081Y00627D02*
X02072Y00625D01*
X02065Y0062*
X0206Y00613*
X02058Y00605*
X0206Y00596*
X02065Y00589*
X02072Y00584*
X02081Y00582*
X02089Y00584*
X02096Y00589*
X02101Y00596*
X02103Y00605*
X02101Y00613*
X02096Y0062*
X02089Y00625*
X02081Y00627*
G37*
G36*
X00391Y01082D02*
X0037D01*
X00348*
Y01018*
X00348Y01013*
X00346Y01009*
X00345Y01003*
X00316Y00974*
X00312Y00969*
X00311Y00964*
Y00666*
X00312Y0066*
X00316Y00655*
X00447Y00524*
X00452Y0052*
X00458Y00519*
X00463*
Y00513*
X00601*
Y00556*
X00463*
X00459Y00555*
X00342Y00672*
Y00701*
X00344Y00702*
X00347Y00702*
X0035Y00698*
X00463Y00585*
Y00563*
X00601*
Y00606*
Y00656*
X00463*
Y00634*
X00458Y00633*
X00376Y00715*
Y00924*
X00379Y00929*
X00381Y00937*
X00379Y00944*
X00375Y00951*
X00368Y00955*
X00361Y00957*
X00353Y00955*
X00347Y00952*
X00343Y00954*
X00342Y00958*
X00366Y00982*
X00372Y00983*
X00379Y00987*
X00383Y00994*
X00385Y01002*
X00383Y01009*
X00381Y01013*
X00383Y01018*
X00391*
Y01082*
G37*
G36*
X00266Y00606D02*
X00128D01*
Y00563*
X00266*
Y00606*
G37*
G36*
X03173Y00557D02*
X03101D01*
X03096Y00556*
X03092Y00553*
X0309Y0055*
X03084*
X0308Y00552*
X03072Y00554*
X03064Y00552*
X03058Y00548*
X03054Y00542*
X03052Y00534*
X03054Y00526*
X03058Y00519*
X03064Y00515*
X03072Y00514*
X0308Y00515*
X03085Y00518*
X03091Y00518*
X03092Y00516*
X03096Y00513*
X03101Y00512*
X03124*
Y00485*
X03119*
Y00444*
Y00408*
X0316*
Y00414*
X03169*
X03169Y00414*
X03176Y00409*
X03185Y00407*
X03193Y00409*
X032Y00414*
X03205Y00421*
X03207Y0043*
X03205Y00438*
X032Y00445*
X03193Y0045*
X03185Y00452*
X03176Y0045*
X03169Y00445*
X03168Y00445*
X0316*
Y00485*
X03155*
Y00512*
X03173*
X03178Y00513*
X03182Y00516*
X03185Y00521*
X03186Y00526*
Y00543*
X03185Y00548*
X03182Y00553*
X03178Y00556*
X03173Y00557*
G37*
G36*
X00266Y00556D02*
X00202D01*
Y0054*
X00266*
Y00556*
G37*
G36*
X00192D02*
X00128D01*
Y0054*
X00192*
Y00556*
G37*
G36*
X00266Y0053D02*
X00202D01*
Y00513*
X00266*
Y0053*
G37*
G36*
X00192D02*
X00128D01*
Y00513*
X00192*
Y0053*
G37*
G36*
X03575Y00587D02*
X03565Y00586D01*
X03556Y00582*
X03548Y00576*
X03542Y00568*
X03538Y00559*
X03537Y0055*
X03538Y0054*
X03542Y00531*
X03548Y00523*
X03556Y00517*
X03565Y00513*
X03575Y00512*
X03584Y00513*
X03593Y00517*
X03601Y00523*
X03607Y00531*
X03611Y0054*
X03612Y0055*
X03611Y00559*
X03607Y00568*
X03601Y00576*
X03593Y00582*
X03584Y00586*
X03575Y00587*
G37*
G36*
X03475D02*
X03465Y00586D01*
X03456Y00582*
X03448Y00576*
X03442Y00568*
X03438Y00559*
X03437Y0055*
X03438Y0054*
X03442Y00531*
X03448Y00523*
X03456Y00517*
X03465Y00513*
X03475Y00512*
X03484Y00513*
X03493Y00517*
X03501Y00523*
X03507Y00531*
X03511Y0054*
X03512Y0055*
X03511Y00559*
X03507Y00568*
X03501Y00576*
X03493Y00582*
X03484Y00586*
X03475Y00587*
G37*
G36*
X03375D02*
X03365Y00586D01*
X03356Y00582*
X03348Y00576*
X03342Y00568*
X03338Y00559*
X03337Y0055*
X03338Y0054*
X03342Y00531*
X03348Y00523*
X03356Y00517*
X03365Y00513*
X03375Y00512*
X03384Y00513*
X03393Y00517*
X03401Y00523*
X03407Y00531*
X03411Y0054*
X03412Y0055*
X03411Y00559*
X03407Y00568*
X03401Y00576*
X03393Y00582*
X03384Y00586*
X03375Y00587*
G37*
G36*
X03275D02*
X03265Y00586D01*
X03256Y00582*
X03248Y00576*
X03242Y00568*
X03238Y00559*
X03237Y0055*
X03238Y0054*
X03242Y00531*
X03248Y00523*
X03256Y00517*
X03265Y00513*
X03275Y00512*
X03284Y00513*
X03293Y00517*
X03301Y00523*
X03307Y00531*
X03311Y0054*
X03312Y0055*
X03311Y00559*
X03307Y00568*
X03301Y00576*
X03293Y00582*
X03284Y00586*
X03275Y00587*
G37*
G36*
X01222Y00541D02*
X01213Y00539D01*
X01206Y00534*
X01201Y00527*
X01199Y00519*
X01201Y0051*
X01206Y00503*
X01213Y00498*
X01222Y00496*
X0123Y00498*
X01237Y00503*
X01242Y0051*
X01244Y00519*
X01242Y00527*
X01237Y00534*
X0123Y00539*
X01222Y00541*
G37*
G36*
X02644Y00525D02*
X02567D01*
Y00495*
X02644*
Y00525*
G37*
G36*
X0245D02*
X02372D01*
Y00495*
X0245*
Y00525*
G37*
G36*
X02557D02*
X0248D01*
Y00495*
X02557*
Y00525*
G37*
G36*
X02362D02*
X02285D01*
Y00495*
X02362*
Y00525*
G37*
G36*
X01878Y00537D02*
X01869Y00535D01*
X01862Y0053*
X01857Y00523*
X01855Y00515*
X01857Y00506*
X01862Y00499*
X01869Y00494*
X01878Y00492*
X01886Y00494*
X01893Y00499*
X01898Y00506*
X019Y00515*
X01898Y00523*
X01893Y0053*
X01886Y00535*
X01878Y00537*
G37*
G36*
X03064Y00479D02*
X03049D01*
Y00464*
X03064*
Y00479*
G37*
G36*
X02644Y00485D02*
X02567D01*
Y00455*
X02644*
Y00485*
G37*
G36*
X02557D02*
X0248D01*
Y00455*
X02557*
Y00485*
G37*
G36*
X0245D02*
X02372D01*
Y00455*
X0245*
Y00485*
G37*
G36*
X02362D02*
X02285D01*
Y00455*
X02362*
Y00485*
G37*
G36*
X03064Y00454D02*
X03049D01*
Y00438*
X03064*
Y00454*
G37*
G36*
X01025Y00472D02*
X01016Y0047D01*
X01009Y00465*
X01004Y00458*
X01002Y0045*
X01004Y00441*
X01009Y00434*
X01016Y00429*
X01025Y00427*
X01033Y00429*
X0104Y00434*
X01045Y00441*
X01047Y0045*
X01045Y00458*
X0104Y00465*
X01033Y0047*
X01025Y00472*
G37*
G36*
X02166Y0062D02*
X02158Y00618D01*
X02151Y00614*
X02147Y00607*
X02146Y00601*
X02123Y00578*
X02119Y00573*
X02118Y00568*
Y00416*
X02119Y0041*
X02123Y00405*
X02146Y00382*
X02147Y00376*
X02151Y00369*
X02158Y00365*
X02166Y00363*
X02173Y00365*
X0218Y00369*
X02184Y00376*
X02186Y00384*
X02184Y00391*
X0218Y00398*
X02173Y00402*
X02167Y00403*
X02152Y00419*
X02152Y00419*
X02153Y0042*
X02158Y00423*
X02165Y00421*
X02173Y00423*
X0218Y00428*
X02185Y00435*
X02187Y00444*
X02185Y00452*
X0218Y00459*
X02173Y00464*
X02165Y00466*
X02156Y00464*
X02153Y00462*
X02149Y00465*
Y00561*
X02167Y0058*
X02173Y00581*
X0218Y00585*
X02184Y00592*
X02186Y006*
X02184Y00607*
X0218Y00614*
X02173Y00618*
X02166Y0062*
G37*
G36*
X02644Y00425D02*
X0248D01*
Y00415*
X0245*
Y00425*
X02285*
Y00355*
X02338*
Y00325*
X02285*
Y00255*
X0245*
Y00325*
X02389*
Y00355*
X0245*
Y00364*
X0248*
Y00355*
X02536*
Y00325*
X0248*
Y00255*
X02644*
Y00325*
X02587*
Y00355*
X02644*
Y00425*
G37*
G36*
X03044Y00428D02*
X03038Y00427D01*
X03033Y00424*
X0303Y00419*
X03029Y00413*
X0303Y00407*
X03033Y00402*
X03034Y00402*
X03039Y00398*
X03045Y00397*
X0305Y00398*
X03055Y00402*
X03059Y00407*
X0306Y00413*
X03059Y00418*
X03055Y00423*
X03055Y00424*
X0305Y00427*
X03044Y00428*
G37*
G36*
X01654Y00532D02*
X01646Y0053D01*
X01639Y00526*
X01635Y00519*
X01633Y00512*
X01635Y00504*
X01638Y00499*
Y00426*
X01639Y0042*
X01643Y00415*
X01651Y00407*
X01652Y00401*
X01656Y00394*
X01663Y0039*
X01671Y00388*
X01678Y0039*
X01685Y00394*
X01687Y00398*
X01692Y00396*
Y00374*
X01689Y00372*
X01685Y00365*
X01683Y00358*
X01685Y0035*
X01689Y00343*
X01696Y00339*
X01704Y00337*
X01711Y00339*
X01718Y00343*
X01722Y0035*
X01724Y00358*
X01723Y00363*
X01723Y00364*
Y00495*
X01726Y005*
X01728Y00508*
X01726Y00515*
X01722Y00522*
X01715Y00526*
X01708Y00528*
X017Y00526*
X01693Y00522*
X01689Y00515*
X01687Y00508*
X01689Y005*
X01692Y00495*
Y00421*
X01687Y00419*
X01685Y00423*
X01678Y00427*
X01672Y00428*
X01669Y00432*
Y00499*
X01672Y00504*
X01674Y00512*
X01672Y00519*
X01668Y00526*
X01661Y0053*
X01654Y00532*
G37*
G36*
X0194Y00379D02*
X01931Y00378D01*
X01924Y00373*
X01919Y00366*
X01917Y00357*
X01919Y00349*
X01924Y00341*
X01931Y00337*
X0194Y00335*
X01948Y00337*
X01955Y00341*
X0196Y00349*
X01962Y00357*
X0196Y00366*
X01955Y00373*
X01948Y00378*
X0194Y00379*
G37*
G36*
X02951Y00364D02*
X02942Y00362D01*
X02935Y00357*
X0293Y0035*
X02928Y00342*
X0293Y00333*
X02935Y00326*
X02942Y00321*
X02951Y00319*
X02959Y00321*
X02966Y00326*
X02971Y00333*
X02973Y00342*
X02971Y0035*
X02966Y00357*
X02959Y00362*
X02951Y00364*
G37*
G36*
X0079Y00463D02*
X0072D01*
Y00299*
X0079*
Y00463*
G37*
G36*
X0069D02*
X0062D01*
Y00299*
X0069*
Y00463*
G37*
G36*
X0059D02*
X0052D01*
Y00299*
X0059*
Y00463*
G37*
G36*
X02125Y00301D02*
X02116Y00299D01*
X02109Y00294*
X02104Y00287*
X02102Y00279*
X02104Y0027*
X02109Y00263*
X02116Y00258*
X02125Y00256*
X02133Y00258*
X0214Y00263*
X02145Y0027*
X02147Y00279*
X02145Y00287*
X0214Y00294*
X02133Y00299*
X02125Y00301*
G37*
G36*
X01772Y00571D02*
X01764Y00569D01*
X01757Y00565*
X01753Y00558*
X01751Y00551*
X01753Y00543*
X01756Y00538*
Y00287*
X01753Y00282*
X01751Y00275*
X01753Y00267*
X01757Y0026*
X01764Y00256*
X01772Y00254*
X01779Y00256*
X01786Y0026*
X0179Y00267*
X01792Y00275*
X0179Y00282*
X01787Y00287*
Y00538*
X0179Y00543*
X01792Y00551*
X0179Y00558*
X01786Y00565*
X01779Y00569*
X01772Y00571*
G37*
G36*
X02755Y00295D02*
X02747Y00293D01*
X0274Y00288*
X02735Y00281*
X02733Y00273*
X02735Y00264*
X0274Y00257*
X02747Y00252*
X02755Y0025*
X02764Y00252*
X02771Y00257*
X02776Y00264*
X02778Y00273*
X02776Y00281*
X02771Y00288*
X02764Y00293*
X02755Y00295*
G37*
G36*
X0361Y0032D02*
X03588Y00318D01*
X03568Y00313*
X03548Y00305*
X0353Y00294*
X03514Y0028*
X035Y00264*
X03489Y00246*
X03481Y00226*
X03478Y00215*
X03406*
Y0022*
X03355*
Y002*
Y00179*
X03406*
Y00184*
X03474*
X03476Y00163*
X03481Y00143*
X03489Y00123*
X035Y00105*
X03514Y00089*
X0353Y00075*
X03548Y00064*
X03568Y00056*
X03588Y00051*
X0361Y00049*
X03631Y00051*
X03651Y00056*
X03671Y00064*
X03689Y00075*
X03705Y00089*
X03719Y00105*
X0373Y00123*
X03738Y00143*
X03743Y00163*
X03745Y00185*
X03743Y00206*
X03738Y00226*
X0373Y00246*
X03719Y00264*
X03705Y0028*
X03689Y00294*
X03671Y00305*
X03651Y00313*
X03631Y00318*
X0361Y0032*
G37*
G36*
X02985Y00259D02*
X02976Y00257D01*
X02969Y00252*
X02964Y00245*
X02962Y00237*
X02964Y00228*
X02969Y00221*
X02976Y00216*
X02985Y00214*
X02993Y00216*
X03Y00221*
X03005Y00228*
X03007Y00237*
X03005Y00245*
X03Y00252*
X02993Y00257*
X02985Y00259*
G37*
G36*
X03345Y0022D02*
X03329D01*
Y00205*
X03345*
Y0022*
G37*
G36*
X0099Y00269D02*
X0096D01*
Y00191*
X0099*
Y00269*
G37*
G36*
X0095D02*
X0092D01*
Y00191*
X0095*
Y00269*
G37*
G36*
X0089D02*
X0086D01*
Y00191*
X0089*
Y00269*
G37*
G36*
X0085D02*
X0082D01*
Y00191*
X0085*
Y00269*
G37*
G36*
X03345Y00195D02*
X03329D01*
Y00179*
X03345*
Y00195*
G37*
G36*
X00255Y00175D02*
X0024D01*
Y0016*
X00255*
Y00175*
G37*
G36*
X0099Y00181D02*
X0096D01*
Y00104*
X0099*
Y00181*
G37*
G36*
X0095D02*
X0092D01*
Y00104*
X0095*
Y00181*
G37*
G36*
X0089D02*
X0086D01*
Y00104*
X0089*
Y00181*
G37*
G36*
X0085D02*
X0082D01*
Y00104*
X0085*
Y00181*
G37*
G36*
X0079Y00269D02*
X0072D01*
Y00104*
X0079*
Y00269*
G37*
G36*
X0069D02*
X0062D01*
Y00104*
X0069*
Y00269*
G37*
G36*
X0059D02*
X0052D01*
Y00104*
X0059*
Y00269*
G37*
G36*
X002Y00485D02*
X00178Y00483D01*
X00158Y00478*
X00138Y0047*
X0012Y00459*
X00104Y00445*
X0009Y00429*
X00079Y00411*
X00071Y00391*
X00066Y00371*
X00064Y0035*
X00066Y00328*
X00071Y00308*
X00079Y00288*
X0009Y0027*
X00104Y00254*
X0012Y0024*
X00138Y00229*
X00158Y00221*
X00178Y00216*
X00184Y00215*
Y00175*
X00178*
Y00134*
X00219*
Y00095*
X0022Y00089*
X00224Y00084*
X00229Y0008*
X00235Y00079*
X0024Y0008*
X00245Y00084*
X00249Y00089*
X0025Y00095*
Y00134*
X00255*
Y0015*
X00235*
Y00155*
X0023*
Y00175*
X00215*
Y00215*
X00221Y00216*
X00241Y00221*
X00261Y00229*
X00279Y0024*
X00295Y00254*
X00309Y0027*
X0032Y00288*
X00328Y00308*
X00333Y00328*
X00335Y0035*
X00333Y00371*
X00328Y00391*
X0032Y00411*
X00309Y00429*
X00295Y00445*
X00279Y00459*
X00261Y0047*
X00241Y00478*
X00221Y00483*
X002Y00485*
G37*
G36*
X02731Y00085D02*
X02723Y00083D01*
X02716Y00079*
X02712Y00072*
X0271Y00065*
X02712Y00057*
X02716Y0005*
X02723Y00046*
X02731Y00044*
X02738Y00046*
X02745Y0005*
X02749Y00057*
X02751Y00065*
X02749Y00072*
X02745Y00079*
X02738Y00083*
X02731Y00085*
G37*
%LNocb_development_board-3*%
%LPD*%
G36*
X01571Y02737D02*
X01473Y02638D01*
X0147Y02634*
X01467Y02634*
X01465Y02635*
Y02681*
X01467Y02685*
X01469Y02693*
X01467Y027*
X01463Y02707*
X01456Y02711*
X01449Y02713*
X01441Y02711*
X01434Y02707*
X0143Y027*
X01428Y02693*
X0143Y02685*
X01434Y02678*
X01434Y02678*
Y02097*
X01432Y02094*
X01431Y02093*
X01427Y02092*
X01305Y02213*
X013Y02217*
X01295Y02218*
X01092*
X01087Y02221*
X0108Y02223*
X01072Y02221*
X01065Y02217*
X01061Y0221*
X01059Y02203*
X01061Y02195*
X01065Y02188*
X01072Y02184*
X0108Y02182*
X01087Y02184*
X01092Y02187*
X01288*
X01433Y02042*
Y02013*
X01351*
X0135Y02013*
X01348Y02013*
X01131*
Y0206*
X01138Y02067*
X01144Y02068*
X0115Y02073*
X01155Y02079*
X01156Y02087*
X01155Y02095*
X0115Y02101*
X01144Y02106*
X01143Y02111*
X01144Y02116*
X01142Y02123*
X01138Y0213*
X01131Y02134*
X01124Y02136*
X01116Y02134*
X01109Y0213*
X01105Y02123*
X01105Y02122*
X011Y02123*
X01098Y0213*
X01094Y02137*
X01087Y02141*
X0108Y02143*
X01072Y02141*
X01065Y02137*
X01061Y0213*
X01059Y02123*
X0106Y02119*
X01059Y02115*
Y02013*
X01039*
X01037Y02017*
X01042Y02022*
X01046Y02027*
X01047Y02033*
Y02151*
X01046Y02156*
X01042Y02161*
X01024Y02179*
X01019Y02183*
X01014Y02184*
X00998*
Y0223*
Y02269*
Y0231*
X01005*
X01021Y02295*
X01026Y02291*
X01032Y0229*
X01037Y02291*
X01042Y02295*
X01046Y023*
X01047Y02306*
X01046Y02311*
X01042Y02316*
X01033Y02326*
X01035Y0233*
X01117*
X0112Y02328*
X01124Y02325*
X0113Y02323*
X01263*
X01268Y0232*
X01276Y02318*
X01283Y0232*
X0129Y02324*
X01294Y02331*
X01296Y02339*
X01294Y02346*
X0129Y02353*
X01283Y02357*
X01276Y02359*
X01268Y02357*
X01263Y02354*
X01258*
X01254Y02359*
X01255Y02364*
X01253Y02371*
X01249Y02378*
X01242Y02382*
X01235Y02384*
X01227Y02382*
X01225Y02381*
X00998*
Y02427*
Y02466*
Y02507*
X01023*
X01029Y02508*
X01034Y02512*
X01034Y02512*
X01038Y02517*
X01039Y02522*
X01038Y02528*
X01034Y02533*
X01029Y02537*
X01023Y02538*
X01023Y02538*
X00998*
Y02565*
Y02604*
Y02643*
Y02683*
Y02734*
X01002Y02736*
X01116Y02623*
X01121Y02619*
X01127Y02618*
X01177*
X01179Y02614*
X01056Y02491*
X01053Y02486*
X01052Y0248*
Y02448*
X01052Y02445*
Y02424*
X01049Y02419*
X01047Y02412*
X01049Y02404*
X01053Y02397*
X0106Y02393*
X01068Y02391*
X01075Y02393*
X01082Y02397*
X01086Y02404*
X01088Y02412*
X01086Y02419*
X01083Y02424*
Y02438*
X01088Y02442*
X01092Y02441*
X01099Y02443*
X01106Y02447*
X0111Y02454*
X01112Y0246*
X01361Y02709*
X01364Y02714*
X01365Y0272*
Y02776*
X01514*
Y0275*
X01515Y02744*
X01519Y02739*
X01524Y02736*
X0153Y02734*
X01535Y02736*
X0154Y02739*
X01544Y02744*
X01545Y0275*
Y02776*
X01571*
Y02737*
G37*
G36*
X00952Y02814D02*
X0095Y0281D01*
X00748*
X00742Y02809*
X00737Y02805*
X0062Y02689*
X00484*
Y02699*
X00575*
X0058Y027*
X00585Y02704*
X00707Y02825*
X00941*
X00952Y02814*
G37*
G36*
X00815Y02777D02*
X00816Y02774D01*
X00812Y02768*
X0081Y02761*
X00812Y02753*
X00816Y02746*
X00823Y02742*
X00829Y02741*
X00836Y02734*
X00841Y0273*
X00841Y0273*
Y02724*
X00918*
Y02729*
X00925*
Y02715*
X00865*
X00859Y02714*
X00854Y0271*
X00853Y02708*
X00844Y027*
X00842Y02699*
X00835Y02695*
X00831Y02688*
X00829Y02681*
X00831Y02673*
X00833Y0267*
X0083Y02665*
X00646*
X00644Y02669*
X00754Y02779*
X00814*
X00815Y02777*
G37*
G36*
X00684Y02629D02*
X00684Y02625D01*
X00647Y02588*
X00641Y0259*
X0064Y02595*
X00636Y02602*
X00629Y02606*
X00622Y02608*
X0062Y02607*
X00617Y0261*
X00611Y02611*
X00484*
Y02634*
X00681*
X00684Y02629*
G37*
G36*
X02053Y026D02*
Y02576D01*
X02038Y02561*
X01943Y02655*
Y02675*
X01876*
X01874Y0268*
X01888Y02694*
X01943*
Y02699*
X01954*
X02053Y026*
G37*
G36*
X00722Y02606D02*
X00719Y02602D01*
X00718Y02597*
Y0259*
X00661Y02533*
X00484*
Y0254*
X00636*
X00642Y02542*
X00647Y02545*
X00705Y02604*
X00711Y02605*
X00718Y02609*
X00722Y02606*
G37*
G36*
X00894Y02571D02*
X00899Y02567D01*
X00904Y02566*
X00925*
Y02528*
X0092Y02526*
X00918Y02528*
X00911Y02533*
X00903Y02535*
X00894Y02533*
X00887Y02528*
X00885Y02526*
X0088Y02525*
X00829*
Y02505*
X00824*
Y025*
X00803*
Y02496*
X00559*
X00553Y02495*
X00548Y02492*
X0051Y02454*
X00508Y02454*
X00507Y0246*
X00508Y02461*
X00513Y02467*
X00514Y02475*
X00513Y02483*
X00508Y02489*
X00502Y02494*
X00494Y02495*
X00489Y02494*
X00485Y02497*
X00486Y02502*
X00668*
X00673Y02503*
X00678Y02507*
X00744Y02573*
X00747Y02577*
X00749Y02583*
Y0259*
X0075Y02591*
X00754Y02592*
X00761Y02597*
X00765Y02603*
X00767Y02611*
X00765Y02619*
X00761Y02625*
X00755Y02629*
X00755Y02632*
X00756Y02634*
X0083*
X00894Y02571*
G37*
G36*
X01866Y02594D02*
Y02574D01*
X01921*
X01935Y0256*
X01933Y02555*
X01932*
Y0254*
X01948*
Y02541*
X01953Y02542*
X01977Y02518*
Y0199*
X01972Y01988*
X0197Y01992*
X01963Y01996*
X01957Y01997*
X01943Y02011*
X01938Y02015*
X01933Y02016*
X01873*
X01834Y02055*
Y02071*
X01837Y02073*
X01839Y02073*
X01846Y02069*
X01855Y02067*
X01863Y02069*
X0187Y02074*
X01871Y02074*
X01878*
Y02069*
X0193*
Y0209*
Y0211*
X01878*
Y02105*
X01871*
X0187Y02105*
X01863Y0211*
X01855Y02112*
X01846Y0211*
X01839Y02106*
X01837Y02106*
X01834Y02108*
Y02132*
Y02166*
X01839Y02168*
X01844Y02164*
X01849Y0216*
X01854Y02159*
Y02154*
X019*
Y02152*
X01902Y02146*
X01902Y02146*
X01901Y02144*
X01903Y02136*
X01907Y02129*
X01914Y02125*
X01922Y02123*
X01929Y02125*
X01936Y02129*
X0194Y02136*
X01942Y02144*
X0194Y02151*
X01936Y02158*
X01931Y02161*
Y02169*
X01931Y0217*
Y02195*
X01859*
X01857Y022*
X01875Y02219*
X01902*
X01903Y02213*
X01907Y02206*
X01914Y02202*
X01922Y022*
X01929Y02202*
X01936Y02206*
X0194Y02213*
X01942Y02221*
X0194Y02228*
X01936Y02235*
X01933Y02237*
X01931Y0224*
Y0226*
X01854*
Y0224*
X01839Y02226*
X01834Y02228*
Y0225*
Y02295*
X01837Y02295*
X01839Y02295*
X01844Y02289*
X01851Y02284*
X0186Y02282*
X01868Y02284*
X01875Y02289*
X0188Y02296*
X01882Y02305*
X0188Y02313*
X01876Y02319*
X01878Y02323*
X01878Y02324*
X01894*
X01906Y02311*
X01906Y0231*
X01904Y02305*
X01906Y02299*
X01909Y02294*
X01914Y0229*
X0192Y02289*
X01926Y0229*
X01931Y02294*
X01933Y02296*
X01936Y02301*
X01937Y02307*
Y02318*
X01936Y02323*
X01933Y02328*
X01916Y02345*
Y02365*
X019*
Y02345*
X0189*
Y02365*
X01839*
X01834Y02367*
Y02407*
Y02447*
Y02486*
Y02525*
X01845*
X01845Y02525*
X01852Y0252*
X01861Y02518*
X01866Y02519*
X01867Y02519*
X01871*
Y02514*
X01922*
Y02535*
Y02555*
X01877*
X01877Y02556*
X01869Y02561*
X01861Y02563*
X01852Y02561*
X01845Y02556*
X01845Y02556*
X01834*
Y02606*
X01854*
X01866Y02594*
G37*
G36*
X01761Y02387D02*
Y0234D01*
X01751*
X01745Y02338*
X0174Y02335*
X01736Y02331*
X01734Y02331*
X01729Y02327*
X01728Y02326*
X01723Y02328*
Y02387*
X01743Y02407*
X01761*
Y02387*
G37*
G36*
X00821Y02364D02*
X00898D01*
Y02369*
X0091*
X00915Y0237*
X0092Y02373*
X00925Y02372*
Y02327*
X0092Y02324*
X00918Y02325*
X0091Y02327*
X00901Y02325*
X00895Y02321*
X00891Y02323*
X0089Y02323*
Y02325*
X00839*
Y02305*
Y02284*
X0089*
Y02286*
X00891Y02286*
X00895Y02288*
X00901Y02284*
X0091Y02282*
X00918Y02284*
X00919Y02284*
X00923Y02282*
X00924Y02281*
X00923Y02279*
X00919Y02275*
X00903Y0226*
X00888*
Y02265*
X00811*
Y0226*
X00802*
X00796Y02264*
X00789Y02266*
X00781Y02264*
X00774Y0226*
X0077Y02253*
X00768Y02246*
X0077Y02238*
X00774Y02231*
X00781Y02227*
X00789Y02225*
X00796Y02227*
X00801Y0223*
X00811*
Y02224*
X00859*
X00861Y02219*
X00858Y02217*
X00854Y0221*
X00852Y02203*
X00854Y02195*
X00858Y02188*
X00865Y02184*
X00873Y02182*
X0088Y02184*
X00881Y02184*
X00884Y02182*
X00885Y02181*
X00883Y02173*
X00884Y02169*
X0088Y02164*
X00785*
X00782Y02169*
X00775Y02173*
X00768Y02175*
X0076Y02173*
X00753Y02169*
X00749Y02162*
X00747Y02155*
X00749Y02147*
X0075Y02146*
X00747Y02141*
X00739*
X00733Y02145*
X00726Y02147*
X00718Y02145*
X00711Y02141*
X00707Y02134*
X00705Y02127*
X00707Y02119*
X0071Y02113*
X00708Y02109*
Y02109*
X00704Y0211*
X00699Y02109*
X00694Y02113*
Y02338*
X0075Y02394*
X00805*
Y02399*
X00821*
Y02364*
G37*
G36*
X01761Y02307D02*
Y02289D01*
Y0225*
Y0221*
Y02163*
X01727*
X01725Y02167*
X01726Y02169*
X01728Y02177*
X01726Y02184*
X01723Y02189*
Y02306*
X01728Y02307*
X01729Y02306*
X01734Y02302*
X0174Y02301*
X01743*
X01749Y02302*
X01754Y02306*
X01756Y02308*
X01761Y02307*
G37*
G36*
X02149Y01784D02*
Y01573D01*
X02144Y0157*
X02139Y01571*
X02131Y01569*
X02124Y01565*
X0212Y01558*
X02118Y01551*
X0212Y01543*
X02124Y01536*
X02131Y01532*
X02139Y0153*
X02144Y01531*
X02149Y01528*
Y01075*
X02146Y0107*
X02144Y01063*
X02146Y01055*
X0215Y01048*
X02157Y01044*
X02163Y01043*
X02189Y01017*
X02187Y01012*
X02134*
Y01011*
X02124*
X02118Y0101*
X02114Y01007*
X02111Y01008*
X02102Y01006*
X02095Y01001*
X0209Y00994*
X02088Y00986*
X02083Y00984*
X02072*
Y01289*
X02081Y01299*
X02087Y013*
X02094Y01304*
X02098Y01311*
X021Y01319*
X02098Y01326*
X02094Y01333*
X02087Y01337*
X0208Y01339*
X02072Y01337*
X02065Y01333*
X02061Y01326*
X0206Y0132*
X02054Y01314*
X02049Y01317*
X0205Y0132*
X02048Y01327*
X02044Y01334*
X02037Y01338*
X0203Y0134*
X02022Y01338*
X02015Y01334*
X02014Y01332*
X02009Y01333*
Y01559*
X02014Y01563*
X02018Y01562*
X02026Y01564*
X02033Y01568*
X02037Y01575*
X02039Y01583*
X02037Y0159*
X02033Y01597*
X02026Y01601*
X02018Y01603*
X02015Y01602*
X02011Y01605*
X02011Y0161*
X02079Y01679*
X02083Y01684*
X02084Y0169*
Y01703*
X02085*
Y01828*
X02086Y01833*
X021*
X02149Y01784*
G37*
G36*
X02253Y01708D02*
Y01009D01*
X0225Y01004*
X02249Y00999*
X02239Y00989*
X02234Y00991*
Y01009*
X02233Y01014*
X02229Y01019*
X02184Y01064*
X02183Y0107*
X0218Y01075*
Y01775*
X02184Y01777*
X02253Y01708*
G37*
G36*
X02367Y01033D02*
X02382D01*
Y01012*
X0236*
Y00978*
Y00932*
X02342*
X02339Y00934*
X02337Y00935*
X02335Y00939*
X02336Y00942*
X02338Y0095*
X02336Y00957*
X02332Y00964*
X02325Y00968*
X02318Y0097*
X0231Y00968*
X02303Y00964*
X02299Y00957*
X02298Y00953*
X02294Y0095*
X02289Y00952*
X02289Y00953*
X02285Y0096*
X02278Y00964*
X02271Y00966*
X02265Y00965*
X02262Y00969*
X02269Y00976*
X02276Y00978*
X02283Y00982*
X02287Y00989*
X02289Y00997*
X02287Y01004*
X02284Y01009*
Y01035*
X02289Y01035*
X0233*
Y0104*
X02367*
Y01033*
G37*
G36*
X02041Y008D02*
Y00728D01*
X01979Y00666*
X01976Y00661*
X01975Y00655*
Y00516*
X01971Y00513*
X01966Y00514*
Y00732*
X02036Y00802*
X02041Y008*
G37*
G36*
X0277Y01148D02*
X02887Y0103D01*
Y00861*
X02882Y0086*
X0288Y00863*
X02762Y00981*
Y0115*
X02767Y01152*
X0277Y01148*
G37*
G36*
X01404Y00763D02*
Y00721D01*
X01405Y00716*
X01408Y00712*
X01412Y00709*
X01417Y00708*
X01431*
Y00689*
X01412*
Y00648*
X01408Y00644*
X01401*
X01398Y00649*
X014Y00652*
X01402Y00661*
X014Y00669*
X01395Y00676*
X01388Y00681*
X0138Y00683*
X01371Y00681*
X01364Y00676*
X01359Y00669*
X01357Y00661*
X01359Y00652*
X01364Y00645*
X01371Y0064*
X01372Y0064*
Y00629*
X01393*
Y00624*
X01398*
Y00603*
X01449*
X01453*
X0153*
Y00608*
X01535*
X0154Y00609*
X01545Y00613*
X01605Y00672*
X01627Y00649*
X01626Y00644*
X01622*
Y00603*
X01665*
X01667Y00598*
X01663Y00594*
X012*
X0111Y00684*
Y00695*
X0117*
Y00674*
X01171Y00669*
X01173Y00665*
X01194Y00645*
X01198Y00642*
X01203Y00641*
X01299*
X01304Y00642*
X01308Y00645*
X01346Y00683*
X01349Y00687*
X0135Y00692*
Y00715*
X014Y00765*
X01404Y00763*
G37*
G36*
X03195Y00801D02*
X03424D01*
Y00701*
X03423Y007*
X03195*
Y0057*
X0319*
X03186Y00575*
X03186Y00576*
Y0058*
X03137*
Y00585*
X03132*
Y00607*
X03101*
X03096Y00606*
X03095Y00605*
X0309Y00607*
Y00612*
X03095Y00614*
X03096Y00613*
X03101Y00612*
X03132*
Y00635*
Y00657*
X03101*
X03096Y00656*
X03095Y00655*
X0309Y00657*
Y00662*
X03095Y00664*
X03096Y00663*
X03101Y00662*
X03132*
Y00685*
Y00707*
X03101*
X03096Y00706*
X03095Y00705*
X0309Y00707*
Y00734*
X03116*
Y0078*
Y00825*
X0309*
Y00854*
X03097*
Y00875*
X03102*
Y0088*
X03123*
Y00895*
X03125Y009*
X03195*
Y00801*
G37*
%LNocb_development_board-4*%
%LPC*%
G36*
X0123Y02269D02*
X01222Y02267D01*
X01217Y02264*
X01084*
X01084Y02264*
X01041*
X01035Y02267*
X01028Y02269*
X0102Y02267*
X01013Y02263*
X01009Y02256*
X01007Y02249*
X01009Y02241*
X01013Y02234*
X0102Y0223*
X01028Y02228*
X01035Y0223*
X0104Y02233*
X01084*
X01085Y02233*
X01217*
X01222Y0223*
X0123Y02228*
X01237Y0223*
X01244Y02234*
X01248Y02241*
X0125Y02249*
X01248Y02256*
X01244Y02263*
X01237Y02267*
X0123Y02269*
G37*
G36*
X00819Y02525D02*
X00803D01*
Y0251*
X00819*
Y02525*
G37*
G36*
X01948Y0253D02*
X01932D01*
Y02514*
X01948*
Y0253*
G37*
G36*
X01955Y0211D02*
X0194D01*
Y02095*
X01955*
Y0211*
G37*
G36*
Y02085D02*
X0194D01*
Y02069*
X01955*
Y02085*
G37*
G36*
X00829Y02325D02*
X00813D01*
Y0231*
X00829*
Y02325*
G37*
G36*
Y023D02*
X00813D01*
Y02284*
X00829*
Y023*
G37*
G36*
X01388Y00619D02*
X01372D01*
Y00603*
X01388*
Y00619*
G37*
G36*
X03123Y0087D02*
X03107D01*
Y00854*
X03123*
Y0087*
G37*
G36*
X03158Y00825D02*
X03126D01*
Y00785*
X03158*
Y00825*
G37*
G36*
X0338Y00786D02*
Y00755D01*
X03411*
X03409Y00764*
X03404Y00772*
X03397Y00779*
X03389Y00784*
X0338Y00786*
G37*
G36*
X0328D02*
Y00755D01*
X03311*
X03309Y00764*
X03304Y00772*
X03297Y00779*
X03289Y00784*
X0328Y00786*
G37*
G36*
X0337D02*
X0336Y00784D01*
X03352Y00779*
X03345Y00772*
X0334Y00764*
X03338Y00755*
X0337*
Y00786*
G37*
G36*
X0327D02*
X0326Y00784D01*
X03252Y00779*
X03245Y00772*
X0324Y00764*
X03238Y00755*
X0327*
Y00786*
G37*
G36*
X03158Y00775D02*
X03126D01*
Y00734*
X03158*
Y00775*
G37*
G36*
X03311Y00745D02*
X0328D01*
Y00713*
X03289Y00715*
X03297Y0072*
X03304Y00727*
X03309Y00735*
X03311Y00745*
G37*
G36*
X03411D02*
X0338D01*
Y00713*
X03389Y00715*
X03397Y0072*
X03404Y00727*
X03409Y00735*
X03411Y00745*
G37*
G36*
X0337D02*
X03338D01*
X0334Y00735*
X03345Y00727*
X03352Y0072*
X0336Y00715*
X0337Y00713*
Y00745*
G37*
G36*
X0327D02*
X03238D01*
X0324Y00735*
X03245Y00727*
X03252Y0072*
X0326Y00715*
X0327Y00713*
Y00745*
G37*
G36*
X03173Y00707D02*
X03142D01*
Y0069*
X03186*
Y00693*
X03185Y00698*
X03182Y00703*
X03178Y00706*
X03173Y00707*
G37*
G36*
X03186Y0068D02*
X03142D01*
Y00662*
X03173*
X03178Y00663*
X03182Y00666*
X03185Y00671*
X03186Y00676*
Y0068*
G37*
G36*
X03173Y00657D02*
X03142D01*
Y0064*
X03186*
Y00643*
X03185Y00648*
X03182Y00653*
X03178Y00656*
X03173Y00657*
G37*
G36*
X03186Y0063D02*
X03142D01*
Y00612*
X03173*
X03178Y00613*
X03182Y00616*
X03185Y00621*
X03186Y00626*
Y0063*
G37*
G36*
X03173Y00607D02*
X03142D01*
Y0059*
X03186*
Y00593*
X03185Y00598*
X03182Y00603*
X03178Y00606*
X03173Y00607*
G37*
%LNocb_development_board-5*%
%LPD*%
G54D10*
X015Y01624D02*
X015Y01625D01*
X0142D02*
X01465D01*
X02105Y0293D02*
Y0297D01*
X00071Y02241D02*
X002D01*
X00065Y02247D02*
X00071Y02241D01*
X02655Y03285D02*
X02711D01*
X01122Y03426D02*
X01151Y03398D01*
X01186Y03363D01*
X00531Y03285D02*
X00534Y03287D01*
X01605Y00694D02*
X01643Y00655D01*
X01605Y00694D02*
X01606Y00695D01*
X01535Y00624D02*
X01605Y00694D01*
X01683Y00902D02*
Y00905D01*
X0168Y00907D02*
Y00946D01*
Y00907D02*
X01683Y00905D01*
X00942Y00925D02*
X00991Y00876D01*
Y00653D02*
X01075Y00568D01*
X00991Y00653D02*
Y00876D01*
X01643Y00624D02*
Y00655D01*
X0222Y03015D02*
X0223Y03025D01*
X03059Y03286D02*
X03085Y03261D01*
Y0326D02*
Y03261D01*
X03059Y03286D02*
Y03303D01*
X01174Y0284D02*
Y02842D01*
X01222Y0289*
X01154Y02851D02*
X01173Y0287D01*
X01153Y02813D02*
X01154Y02813D01*
Y02851*
X01173Y02887D02*
X01176Y0289D01*
X01173Y0287D02*
Y02887D01*
X01177Y02952D02*
X01179Y02954D01*
X01177Y02927D02*
Y02952D01*
X01176Y02925D02*
X01177Y02927D01*
X01222Y0297D02*
X01223Y02971D01*
X01222Y02925D02*
X01222Y02926D01*
Y0297*
X00431Y00722D02*
X00544Y00835D01*
X00901Y01251D02*
X00901Y0125D01*
Y0117D02*
Y0125D01*
Y0117D02*
X00902Y0117D01*
X01092Y02462D02*
X0135Y0272D01*
Y02813*
X01272Y02774D02*
Y0279D01*
Y02774D02*
X01294Y02752D01*
X01252Y02756D02*
X01255Y02753D01*
X01252Y02756D02*
Y02813D01*
X01023Y02522D02*
X01023Y02522D01*
X00961Y02522D02*
X01023D01*
X00961D02*
X00962Y02523D01*
X01067Y0248D02*
X0133Y02743D01*
X01067Y02448D02*
X01068Y02448D01*
X01067Y02448D02*
Y0248D01*
X01068Y02412D02*
Y02448D01*
X0192Y0125D02*
Y01651D01*
X01993Y01724*
X01994Y01615D02*
X02069Y0169D01*
X01953Y01219D02*
X01994Y01259D01*
Y01615*
X02069Y0169D02*
Y02607D01*
X01961Y02715D02*
X02069Y02607D01*
X00701Y02841D02*
X00948D01*
X00575Y02715D02*
X00701Y02841D01*
X00948D02*
X01127Y02662D01*
X0041Y02715D02*
X00575D01*
X0145Y02087D02*
Y02692D01*
X01449Y02693D02*
X0145Y02692D01*
Y02087D02*
X01451Y02086D01*
X02843Y01323D02*
Y0169D01*
X02815Y01718D02*
X02843Y0169D01*
Y01323D02*
X03101Y01065D01*
X02781Y01159D02*
X02903Y01037D01*
Y00816D02*
Y01037D01*
X02781Y01159D02*
Y01226D01*
X02809Y00661D02*
Y00842D01*
X02706Y00945D02*
Y01694D01*
Y00945D02*
X02809Y00842D01*
X00835Y00401D02*
Y00451D01*
X0064Y00645D02*
Y00702D01*
Y00645D02*
X00835Y00451D01*
Y00401D02*
X00855Y00381D01*
X0064Y00702D02*
X0064Y00702D01*
X0053Y00688D02*
X0061D01*
X0064Y00702D02*
Y01563D01*
X00529Y00687D02*
X0053Y00688D01*
X0061D02*
X00613Y00691D01*
X0064Y01563D02*
X00845Y01769D01*
X00903Y01745D02*
Y01904D01*
X00686Y01528D02*
X00903Y01745D01*
X00686Y00697D02*
Y01528D01*
X00845Y01769D02*
X00848D01*
X00544Y01596D02*
X00679Y01731D01*
Y02344*
X00698Y01715D02*
X00718Y01735D01*
Y01942*
X00544Y00835D02*
Y01596D01*
X00484Y01179D02*
Y0125D01*
X00966Y02795D02*
X01127Y02634D01*
X00748Y02795D02*
X00966D01*
X01094Y0274D02*
Y02799D01*
X01127Y02662D02*
X01166D01*
X01094Y0274D02*
X01148Y02687D01*
X01127Y02634D02*
X01185D01*
X02475Y0263D02*
X02615Y0249D01*
X02475Y0263D02*
Y02776D01*
X02513Y01707D02*
Y0242D01*
X02426Y02507D02*
Y02845D01*
Y02507D02*
X02513Y0242D01*
X01863Y02795D02*
X01863Y02795D01*
X01863Y02795D02*
Y02839D01*
X01863Y0284D02*
X01863Y02839D01*
X02382Y02907D02*
X02384Y02909D01*
X02382Y0241D02*
Y02907D01*
Y0241D02*
X02454Y02339D01*
X02342Y02414D02*
Y0273D01*
X02322Y02394D02*
X02342Y02414D01*
X02665Y02077D02*
Y02176D01*
X01012Y02326D02*
X01032Y02306D01*
X00983Y02326D02*
X01012D01*
X0288Y00411D02*
Y00638D01*
X0287Y00401D02*
X0288Y00411D01*
X0287Y00313D02*
Y00401D01*
Y00649D02*
X0288Y00638D01*
X0287Y00649D02*
Y00852D01*
X02747Y00974D02*
X0287Y00852D01*
X01028Y02868D02*
X01053Y02843D01*
X01028Y02868D02*
Y02871D01*
X02396Y00917D02*
X02398Y00919D01*
X02333Y00917D02*
X02396D01*
X02332Y00916D02*
X02333Y00917D01*
X0234Y00842D02*
X02398D01*
X02321Y00861D02*
X02321D01*
X0234Y00842*
X00842Y00694D02*
Y00778D01*
X01102Y00434D02*
X01259D01*
X00842Y00694D02*
X01102Y00434D01*
X01654Y00426D02*
Y00512D01*
Y00426D02*
X01671Y00409D01*
X01509Y00624D02*
X01535D01*
X02388Y01279D02*
X02389Y01278D01*
X02388Y01279D02*
Y01671D01*
X02232Y01827D02*
X02388Y01671D01*
X01749Y02071D02*
X01776D01*
X01747Y02072D02*
X01749Y02071D01*
X01776D02*
X01778Y0207D01*
X02512Y01706D02*
X02513Y01707D01*
X02453Y01762D02*
X02454Y01763D01*
Y02339*
X02322Y01869D02*
Y02394D01*
Y01869D02*
X0238Y01812D01*
X02361Y02318D02*
X02377Y02302D01*
X02361Y02318D02*
Y02321D01*
X02377Y01873D02*
Y02302D01*
X02418Y01905D02*
Y02314D01*
X02405Y02327D02*
X02418Y02314D01*
X02405Y02327D02*
Y0233D01*
X02106Y01849D02*
X02165Y0179D01*
X02106Y01849D02*
Y02426D01*
X0215Y01833D02*
Y02452D01*
Y01833D02*
X02269Y01714D01*
X02188Y01824D02*
X02336Y01675D01*
X02188Y01824D02*
Y02478D01*
X01484Y02628D02*
X01586Y0273D01*
X01484Y02429D02*
Y02628D01*
X01534Y02466D02*
Y02595D01*
X01607Y02668*
X01584Y02502D02*
Y02585D01*
X01627Y02628*
X01647Y02626D02*
Y02794D01*
Y02626D02*
X01695Y02578D01*
X02189Y02537D02*
X02232Y02494D01*
Y01827D02*
Y02494D01*
X01927Y02535D02*
X01927Y02534D01*
X0108Y02203D02*
X01295D01*
X01449Y02048*
X01028Y02249D02*
X01028Y02248D01*
X01084*
X01084Y02249*
X0123*
X0108Y0212D02*
Y02123D01*
X01074Y01976D02*
Y02115D01*
X0108Y0212*
X0159Y02224D02*
Y02393D01*
X01652Y02224D02*
Y02399D01*
X0168Y02225D02*
X01682Y02224D01*
X0168Y02225D02*
Y02232D01*
X00831Y02245D02*
X00832Y02245D01*
X00789Y02245D02*
X00831D01*
X00789Y02246D02*
X00789Y02245D01*
X0091Y02305D02*
X0091Y02305D01*
X0087Y02305D02*
X0091D01*
X01449Y01998D02*
Y02048D01*
X01627Y02628D02*
Y02812D01*
X01667Y02692D02*
X01732Y02627D01*
X01667Y02692D02*
Y02811D01*
X0174Y0254D02*
X01743D01*
X01758Y02524*
X01861Y02541D02*
X01863D01*
X01864Y0254*
X01825Y02541D02*
X01861D01*
X01758Y02524D02*
X01796D01*
X01626Y02813D02*
X01627Y02812D01*
X01607Y02668D02*
Y0279D01*
X01586Y0273D02*
Y02813D01*
X01726Y01963D02*
X01922D01*
X01724Y01964D02*
Y01976D01*
Y01964D02*
X01726Y01963D01*
X01867Y02001D02*
X01933D01*
X01817Y02051D02*
X01867Y02001D01*
X01933D02*
X01956Y01978D01*
X01704Y01936D02*
Y0195D01*
Y01936D02*
X01716Y01925D01*
X01963*
X01922Y02595D02*
X01993Y02524D01*
Y01724D02*
Y02524D01*
X0196Y01285D02*
Y01627D01*
X02033Y017*
Y02544*
X01928Y02649D02*
X02033Y02544D01*
X02557Y0279D02*
X02662D01*
X02522Y02755D02*
X02557Y0279D01*
X02522Y0268D02*
Y02755D01*
X0153Y0275D02*
Y028D01*
X01787Y02792D02*
Y02806D01*
X01785Y02808D02*
X01787Y02806D01*
X00822Y00931D02*
X00842Y00951D01*
X01157Y01334D02*
X01229Y01262D01*
Y0118D02*
Y01262D01*
X02057Y00722D02*
Y01296D01*
X0199Y0051D02*
Y00655D01*
X02057Y00722*
X0041Y00857D02*
D01*
X00437Y00884D02*
Y01038D01*
X0041Y00857D02*
X00437Y00884D01*
Y01038D02*
X00438Y01039D01*
X02396Y01058D02*
X02398Y01055D01*
X02395Y01059D02*
X02396Y01058D01*
X02443*
X02336Y01254D02*
X02336Y01254D01*
Y01675*
X0231Y01056D02*
X02392D01*
X02395Y01059*
X02269Y00997D02*
Y01714D01*
X02261Y00893D02*
X02318Y0095D01*
X02171Y00893D02*
X02261D01*
X02244Y00919D02*
X02271Y00946D01*
X02171Y00919D02*
X02244D01*
X02216Y00944D02*
X02268Y00997D01*
X02269*
X02172Y00944D02*
X02216D01*
X02398Y0097D02*
X02398Y0097D01*
X02503*
X02504Y0097*
X02165Y0081D02*
Y0084D01*
X02398Y00944D02*
X02399Y00943D01*
X02447*
X02449Y00942*
X02398Y00893D02*
X02398Y00893D01*
X0247*
X02471Y00894*
X01574Y00758D02*
X01575Y00758D01*
X01574Y00812D02*
X01574Y00811D01*
Y00758D02*
Y00811D01*
X01624Y00758D02*
Y00814D01*
Y00758D02*
X01625Y00758D01*
X01525Y00811D02*
X01525Y00811D01*
X01525Y00758D02*
Y00811D01*
X01675Y00952D02*
X0168Y00946D01*
X01075Y00568D02*
Y00568D01*
Y00568D02*
X01159Y00483D01*
X0116*
X0118Y00464*
X0203Y00817D02*
Y0132D01*
X01951Y00738D02*
X0203Y00817D01*
X01831Y00385D02*
X01951Y00505D01*
Y00738*
X02057Y01296D02*
X0208Y01319D01*
X02111Y00985D02*
Y00986D01*
X00942Y00925D02*
Y00973D01*
X01425Y0098D02*
X01473Y01029D01*
X01589*
X01425Y00952D02*
Y0098D01*
X01589Y01029D02*
Y01061D01*
X01623Y01095*
X0169*
X01362Y00951D02*
X01363Y00952D01*
X0133Y00951D02*
X01362D01*
X0133Y00951D02*
X0133Y00951D01*
X01363Y00952D02*
X01425D01*
X01425Y00952*
X01625Y00952D02*
Y01028D01*
X00686Y00697D02*
X00955Y00428D01*
Y00381D02*
Y00428D01*
X01887Y00407D02*
X0199Y0051D01*
X01607Y01188D02*
Y01307D01*
X01588Y01326D02*
X01607Y01307D01*
X0178Y01187D02*
Y01251D01*
Y01187D02*
X01781Y01187D01*
X0178Y01252D02*
X0178Y01251D01*
X01636Y01325D02*
X01687Y01274D01*
Y01189D02*
Y01274D01*
X01708Y00364D02*
Y00508D01*
X01887Y00372D02*
Y00407D01*
X01772Y00275D02*
Y00551D01*
X01704Y0036D02*
X01708Y00364D01*
X01704Y00358D02*
Y0036D01*
X01276Y01193D02*
Y01267D01*
X01207Y01336D02*
X01276Y01267D01*
X01335Y01249D02*
X01337Y01251D01*
X01335Y01178D02*
Y01249D01*
X01334Y01177D02*
X01335Y01178D01*
X00777Y01185D02*
Y01328D01*
X00731Y01186D02*
Y01325D01*
X01849Y00334D02*
X01887Y00372D01*
X00718Y01942D02*
X00739Y01963D01*
X00765Y01937D02*
X00766Y01938D01*
X00765Y01726D02*
X00765Y01726D01*
Y01937*
X00632Y02368D02*
X00709Y02445D01*
X00438Y01547D02*
X00632Y01741D01*
Y02368*
X01032Y02033D02*
Y02151D01*
X00903Y01904D02*
X01032Y02033D01*
X01014Y02169D02*
X01032Y02151D01*
X00882Y01919D02*
X00889D01*
X01012Y02042*
X00864Y01901D02*
X00882Y01919D01*
X0032Y01249D02*
Y01422D01*
X00369Y01219D02*
X0037Y01218D01*
X00369Y01219D02*
Y01421D01*
X00271Y01284D02*
X00272Y01286D01*
X0027Y01087D02*
X00271Y01089D01*
Y01284*
X02165Y01063D02*
X02219Y01009D01*
Y00989D02*
Y01009D01*
X02202Y00972D02*
X02219Y00989D01*
X02165Y01063D02*
Y0179D01*
X01953Y01219D02*
X01953D01*
X00438Y01039D02*
Y01547D01*
X02089Y00963D02*
X02111Y00985D01*
Y00986D02*
X02114D01*
X02124Y00995D02*
X02171D01*
X02114Y00986D02*
X02124Y00995D01*
X02398Y00995D02*
Y01055D01*
X02165Y0084D02*
X02166Y00842D01*
X02173Y00972D02*
X02202D01*
X02171Y0097D02*
X02173Y00972D01*
X02171Y00995D02*
X02171Y00995D01*
Y00944D02*
X02172Y00944D01*
X02166Y00842D02*
X02171D01*
X01778Y0207D02*
X01794D01*
X0177Y01849D02*
X01781D01*
X01788Y01842*
X0176Y0186D02*
X0177Y01849D01*
X01788Y01842D02*
X01792D01*
X0176Y01804D02*
X0176Y01805D01*
X00469Y02226D02*
X00498Y02197D01*
Y02193D02*
X005Y02192D01*
X00469Y02226D02*
D01*
X00498Y02193D02*
Y02197D01*
X00516Y02438D02*
X00559Y02481D01*
X00327Y02438D02*
X00516D01*
X00291Y02402D02*
X00327Y02438D01*
X002Y02398D02*
X00203Y02402D01*
X00291*
X00668Y02518D02*
X00733Y02583D01*
X00255Y02556D02*
X00293Y02518D01*
X00668*
X00323Y02596D02*
X00611D01*
X002Y02634D02*
X002Y02634D01*
X00284*
X00323Y02596*
X00619Y02588D02*
X00622D01*
X00611Y02596D02*
X00619Y02588D01*
X002Y02713D02*
X00284D01*
X00324Y02674D02*
X00627D01*
X002Y02713D02*
X002Y02713D01*
X00284D02*
X00324Y02674D01*
X00627D02*
X00748Y02795D01*
X004Y02634D02*
X00415Y0265D01*
X00837D02*
X00904Y02582D01*
X00415Y0265D02*
X00837D01*
X00408Y02713D02*
X0041Y02715D01*
X01166Y02662D02*
X0121Y02705D01*
X004Y02713D02*
X00408D01*
X0121Y02705D02*
Y02797D01*
X0123Y02679D02*
Y02792D01*
X01185Y02634D02*
X0123Y02679D01*
X00327Y00964D02*
X00365Y01002D01*
X00327Y00666D02*
Y00964D01*
Y00666D02*
X00458Y00535D01*
X02281Y01817D02*
X02298Y018D01*
X02281Y01817D02*
Y02626D01*
X01743Y02317D02*
X01751Y02324D01*
X0174Y02317D02*
X01743D01*
X01751Y02324D02*
X01768D01*
X01195Y01811D02*
Y01857D01*
X012Y01803D02*
Y01806D01*
X01195Y01811D02*
X012Y01806D01*
X01171Y01869D02*
X01181Y01879D01*
X01171Y01631D02*
Y01869D01*
X01687Y02776D02*
Y02786D01*
Y02776D02*
X01699Y02763D01*
Y02749D02*
Y02763D01*
X00645Y03004D02*
X00677D01*
X00683Y02998D02*
X00711D01*
X00677Y03004D02*
X00683Y02998D01*
X01508Y01977D02*
Y02037D01*
X0151Y02039*
X01507Y01976D02*
X01508Y01977D01*
X03044Y00413D02*
X03045Y00413D01*
X03044Y00459D02*
X03044Y00458D01*
X03009Y00459D02*
Y00584D01*
X03008Y00459D02*
X03009Y00459D01*
Y00584D02*
X0301Y00585D01*
X02679Y00636D02*
X02679Y00635D01*
X02782*
X02783Y00635*
X02134Y00568D02*
X02166Y006D01*
X02134Y00416D02*
Y00568D01*
Y00416D02*
X02166Y00384D01*
X01395Y01825D02*
X01465D01*
X01121Y03425D02*
X0114Y03444D01*
X01057Y03425D02*
X01121D01*
X01139Y03478D02*
X0114Y03479D01*
X03018Y0078D02*
Y00787D01*
X0314Y00429D02*
X03184D01*
X0314Y00429D02*
X0314Y00429D01*
X03184D02*
X03185Y0043D01*
X0287Y00241D02*
Y00313D01*
X02866Y00309D02*
X0287Y00313D01*
X02842Y00308D02*
X02843Y00309D01*
X02866*
X01056Y01768D02*
Y01955D01*
X01035Y01878D02*
Y01976D01*
X01035Y01956D02*
Y0197D01*
X01009Y01852D02*
X01035Y01878D01*
X01009Y01769D02*
Y01852D01*
Y01769D02*
X0101Y01768D01*
X0102Y01631D02*
Y01687D01*
Y01631D02*
X0102Y01631D01*
X01055Y01732D02*
X01056Y01733D01*
X01055Y01687D02*
Y01732D01*
X01055Y01687D02*
X01055Y01687D01*
X0101Y01733D02*
X01056D01*
X00894Y02017D02*
X00932D01*
X0094Y02026D02*
Y02048D01*
X00933Y02016D02*
Y02019D01*
X00893Y02018D02*
X00894Y02017D01*
X00933Y02019D02*
X0094Y02026D01*
X00932Y02017D02*
X00933Y02016D01*
X0094Y02048D02*
X00942Y0205D01*
X01012Y02042D02*
Y02103D01*
X01352Y01939D02*
Y01995D01*
X01368Y0192D02*
Y01923D01*
X01352Y01939D02*
X01368Y01923D01*
X0135Y01998D02*
X01352Y01995D01*
X00989Y02109D02*
X01006D01*
X01012Y02103*
X00986Y02169D02*
X01014D01*
X00911Y02069D02*
X00934D01*
X009Y02059D02*
X00911Y02069D01*
X00899Y02059D02*
X009D01*
X00704Y02089D02*
X00961D01*
X00704Y0209D02*
X00704Y02089D01*
X00961D02*
X00961Y02089D01*
X00857Y02017D02*
X00858Y02018D01*
X00942Y0205D02*
X00961D01*
X004Y0169D02*
X004Y0169D01*
X01116Y02067D02*
X01136Y02087D01*
X01116Y01998D02*
Y02067D01*
X01096Y02088D02*
X01124Y02116D01*
X01096Y02002D02*
Y02088D01*
X01133Y01926D02*
Y01976D01*
X01125Y01915D02*
X01129Y01912D01*
X01128Y0192D02*
X01133Y01926D01*
X01128Y01916D02*
Y0192D01*
X01129Y01895D02*
Y01912D01*
X0123Y02366D02*
X01232Y02364D01*
X00962Y02366D02*
X0123D01*
X01232Y02364D02*
X01235D01*
X00961Y02365D02*
X00962Y02366D01*
X004Y01768D02*
X00401Y0177D01*
X00053Y01569D02*
X00101Y01617D01*
X00053Y00931D02*
Y01569D01*
X0009Y00961D02*
Y01533D01*
X00159Y01602*
X0009Y00961D02*
X00121Y0093D01*
X001Y00777D02*
Y00884D01*
X00053Y00931D02*
X001Y00884D01*
X00121Y0093D02*
X00184D01*
X0159Y02393D02*
X01699Y02503D01*
X01741*
X01741Y02504*
X01625Y02401D02*
X01708Y02483D01*
X01652Y02399D02*
X01716Y02463D01*
X01724Y02443D02*
X01797D01*
X0168Y02399D02*
X01724Y02443D01*
X01708Y02483D02*
X01798D01*
X01716Y02463D02*
X01773D01*
X01741Y02504D02*
X01778D01*
X01625Y02194D02*
Y02401D01*
X01708Y02394D02*
X01736Y02423D01*
X01774*
X0168Y02232D02*
Y02399D01*
X01708Y02177D02*
Y02394D01*
X01468Y01828D02*
Y01976D01*
X01465Y01825D02*
X01468Y01828D01*
X00145Y0099D02*
X00184D01*
X00361Y00709D02*
Y00937D01*
Y00709D02*
X00485Y00585D01*
X00458Y00535D02*
X00532D01*
X00527Y0069D02*
Y00745D01*
Y0069D02*
X00532Y00685D01*
X01283Y01674D02*
Y0187D01*
X0126Y01892D02*
X01273Y01879D01*
X01273*
X01296Y01894D02*
X01329D01*
X0133Y01893*
X01273Y01879D02*
X01283Y0187D01*
X01295Y01895D02*
X01296Y01894D01*
X01181Y01879D02*
X01195Y01892D01*
X01181Y01879D02*
X01181D01*
X0168Y02232D02*
X0168Y02232D01*
X01578Y02147D02*
X01578Y02147D01*
X01797*
X01798Y02148*
X01797Y02443D02*
X01798Y02444D01*
X01567Y02112D02*
X01772D01*
X01566Y02114D02*
X01567Y02112D01*
X0278Y01267D02*
X03095Y00952D01*
X0278Y01267D02*
Y01689D01*
X03101Y01065D02*
X03115Y01052D01*
X03101Y01065D02*
X03101D01*
X02747Y00974D02*
Y01519D01*
X01388Y02832D02*
Y02864D01*
X01381Y02871D02*
X01388Y02864D01*
X01381Y02871D02*
Y02951D01*
X01409Y02813D02*
X0141Y02814D01*
Y02871*
X01412Y02873*
X00974Y02346D02*
X01123D01*
X0113Y02339D02*
X01276D01*
X01123Y02346D02*
X0113Y02339D01*
X0186Y02305D02*
Y02345D01*
X0192Y02305D02*
X01922Y02307D01*
X01895Y02345D02*
X01922Y02318D01*
Y02307D02*
Y02318D01*
X01665Y02813D02*
X01667Y02811D01*
X01699Y02749D02*
X01701Y02748D01*
X01785Y02741D02*
Y0279D01*
X01786Y02739D02*
X01798D01*
X01785Y02741D02*
X01786Y02739D01*
X01825Y02792D02*
X01828Y02795D01*
X01787Y02792D02*
X01825D01*
X01785Y0279D02*
X01787Y02792D01*
X01916Y02152D02*
X01922Y02146D01*
Y02144D02*
Y02146D01*
X0191Y0224D02*
X0192Y0223D01*
X01916Y02152D02*
Y02169D01*
X0192Y02222D02*
Y0223D01*
Y02222D02*
X01922Y02221D01*
X01922Y02655D02*
X01928Y02649D01*
D01*
X01922Y02715D02*
X01961D01*
X0191Y02175D02*
X01916Y02169D01*
X01Y03425D02*
X01057D01*
X02747Y01519D02*
X02748Y0152D01*
X00289Y00679D02*
Y01003D01*
X0027Y0104D02*
X0029Y01019D01*
X00244Y00635D02*
X00289Y00679D01*
Y01003D02*
X0029Y01005D01*
Y01019*
X00369Y01421D02*
X0037Y01422D01*
X0027Y0104D02*
Y01087D01*
X00485Y00585D02*
X00532D01*
X00197Y00635D02*
X00244D01*
X0037Y01087D02*
X00372Y01085D01*
X00679Y02344D02*
X00749Y02415D01*
X00726Y02126D02*
X00965D01*
X00726Y02127D02*
X00726Y02126D01*
X00709Y02445D02*
X00844D01*
X00511Y02398D02*
X00582Y02328D01*
Y02218D02*
Y02328D01*
X004Y02398D02*
X00511D01*
X00503Y01966D02*
X00505Y01965D01*
X004Y01926D02*
X00532D01*
X00562Y01956*
X00492Y01966D02*
X00503D01*
X00454Y02005D02*
X00492Y01966D01*
X004Y02005D02*
X00454D01*
X004Y02162D02*
X00488D01*
X00497Y02154D02*
X00499D01*
X00488Y02162D02*
X00497Y02154D01*
X00768Y02155D02*
X0077D01*
X00776Y02149*
X00961*
X004Y02083D02*
Y0212D01*
X00961Y02149D02*
X00961Y02148D01*
X00874Y02204D02*
X00897D01*
X00873Y02203D02*
X00874Y02204D01*
X00906Y02173D02*
X00921Y02188D01*
X00961*
X00904Y02173D02*
X00906D01*
X00961Y02188D02*
X00961Y02188D01*
X004Y02241D02*
X00454D01*
X00469Y02226*
X00785Y02415D02*
X0091D01*
X00919Y02424*
X01275Y02861D02*
X01275Y02861D01*
X01275Y02861D02*
Y02889D01*
X0101Y0283D02*
X0103D01*
X00635Y02905D02*
Y02944D01*
X00842Y03125D02*
Y03175D01*
X03116Y00988D02*
X03153D01*
X03155Y0099*
X03115Y00987D02*
X03116Y00988D01*
Y01088D02*
X03158D01*
X0316Y0109*
X02942Y00635D02*
X02943Y00635D01*
X03007D02*
X03008Y00636D01*
X02943Y00635D02*
X03007D01*
X03095Y00952D02*
X03114D01*
X01707Y0284D02*
Y02896D01*
X01703Y02836D02*
X01707Y0284D01*
X01762Y02871D02*
X01765D01*
X01726Y02834D02*
X01762Y02871D01*
X01724Y02813D02*
X01726Y02815D01*
Y02834*
X03072Y00534D02*
X03073Y00535D01*
X03137*
X02946Y00498D02*
Y00531D01*
X02942Y00535D02*
X02946Y00531D01*
X02942Y00585D02*
X0301D01*
X0314Y00465D02*
Y00532D01*
X03137Y00535D02*
X0314Y00532D01*
X01065Y02865D02*
Y029D01*
X02615Y0249D02*
X02662D01*
X03114Y00952D02*
X03115Y00952D01*
X01834Y02662D02*
X01887Y02715D01*
X018Y02662D02*
X01834D01*
X02819Y01976D02*
D01*
X02865Y01882D02*
Y0193D01*
X02819Y01976D02*
X02865Y0193D01*
X02665D02*
X0272Y01985D01*
Y02214*
X02665Y01882D02*
Y0193D01*
X00711Y02998D02*
X00713Y03D01*
X00558Y03004D02*
Y03056D01*
X00522Y02968D02*
X00558Y03004D01*
X00635Y03014D02*
X00645Y03004D01*
X01064Y02935D02*
X01065Y02935D01*
X0057Y02905D02*
Y02944D01*
X01275Y02925D02*
X01278Y02922D01*
X01312*
X01315Y02919*
X0174Y0272D02*
Y0272D01*
Y0272D02*
X0177D01*
X0133Y02743D02*
Y02785D01*
X00747Y0261D02*
Y02611D01*
X00961Y02661D02*
X00961Y0266D01*
X00895Y02662D02*
X00895Y02661D01*
X00961*
X0085Y02681D02*
Y02683D01*
X00865Y02699D02*
Y027D01*
X0085Y02683D02*
X00865Y02699D01*
Y027D02*
X00961D01*
X00904Y02582D02*
X00961D01*
X00733Y02583D02*
Y02597D01*
X00747Y0261*
X02556Y02391D02*
X02557Y0239D01*
X02662*
X0271Y0259D02*
X0273Y0257D01*
Y02534D02*
Y0257D01*
X02757Y02326D02*
Y02507D01*
X02662Y0259D02*
X0271D01*
X0273Y02534D02*
X02757Y02507D01*
X01798Y02621D02*
X0186D01*
X01887Y02595*
X00831Y02761D02*
X00847Y02745D01*
X00862*
X01547Y02922D02*
X0155Y02919D01*
X0151Y02925D02*
X01513Y02922D01*
X01547*
X01255Y0275D02*
Y02753D01*
X0121Y02797D02*
X0121Y02797D01*
X002Y02792D02*
X00202Y0279D01*
X003*
X004Y02792D02*
X004Y02792D01*
X00516*
X01313Y0284D02*
Y02863D01*
X01315Y02865*
X02328Y02986D02*
X0233Y02985D01*
X02286Y02986D02*
X02328D01*
X02285Y02987D02*
X02286Y02986D01*
X00405Y02315D02*
X00406Y02316D01*
X00897Y02204D02*
X0092Y02226D01*
X002Y01847D02*
X0029D01*
X004Y01926D02*
X004Y01926D01*
X002Y01926D02*
X0029D01*
X002Y02005D02*
X002Y02005D01*
X0096Y02226D02*
X00961Y02227D01*
X0092Y02226D02*
X0096D01*
X002Y02083D02*
X00201Y02083D01*
X00296*
X00202Y02239D02*
X00289D01*
X002Y02241D02*
X00202Y02239D01*
X004Y0232D02*
X00405Y02315D01*
X00559Y02481D02*
X00959D01*
X00961Y02483*
X004Y01847D02*
X00497D01*
X004Y01847D02*
X004Y01847D01*
X00199Y02085D02*
X002Y02083D01*
X0007Y02085D02*
X00199D01*
X00824Y02505D02*
X00824Y02505D01*
X00906Y02513D02*
X00917Y02502D01*
X0086Y02505D02*
X00865Y0251D01*
X009*
X00903Y02513*
X00917Y02502D02*
X00934D01*
X00903Y02513D02*
X00906D01*
X00202Y02475D02*
X00294D01*
X002Y02477D02*
X00202Y02475D01*
X00492Y02477D02*
X00494Y02475D01*
X004Y02477D02*
X00492D01*
X002Y02556D02*
X00255D01*
X00636D02*
X00704Y02624D01*
X004Y02556D02*
X00636D01*
X0121Y02811D02*
X01212Y02813D01*
X0121Y02797D02*
Y02811D01*
X00936Y02745D02*
X00942Y02739D01*
X00961*
X00897Y02745D02*
X00936D01*
X01067Y02863D02*
Y02867D01*
X01053Y02815D02*
Y02843D01*
X01075Y0284D02*
Y02855D01*
X01053Y02815D02*
X01055Y02813D01*
X01067Y02863D02*
X01075Y02855D01*
X0151Y0286D02*
Y0289D01*
X01508Y02814D02*
Y02858D01*
X0151Y0286*
X01507Y02813D02*
X01508Y02814D01*
X0153Y028D02*
X0153Y028D01*
Y02805*
X01275Y02858D02*
Y02861D01*
Y02858D02*
X01289Y02843D01*
X01275Y0289D02*
X01275Y02889D01*
X01289Y02815D02*
Y02843D01*
Y02815D02*
X01291Y02813D01*
X01855Y0209D02*
X01899D01*
X01854Y02089D02*
X01855Y0209D01*
X01798Y02089D02*
X01854D01*
X0186Y02655D02*
X01887D01*
X01821Y02641D02*
X01847D01*
X0186Y02655*
X0182Y02642D02*
X01821Y02641D01*
X01835Y0221D02*
X01845D01*
X01825Y02189D02*
X0184D01*
X01855Y02175*
X01875*
X01845Y0221D02*
X01875Y0224D01*
X01859Y02345D02*
X0186Y02345D01*
X01798Y02345D02*
X01859D01*
X01861Y02541D02*
X01867Y02535D01*
X01892*
X01798Y0266D02*
X018Y02662D01*
X01796Y02524D02*
X01798Y02522D01*
X00867Y02245D02*
X0091D01*
X0155Y01826D02*
Y01895D01*
X0163Y0187D02*
Y01915D01*
X01689Y0187D02*
Y01899D01*
X01232Y01915D02*
X01255Y01892D01*
X01195D02*
X01212Y0191D01*
X01689Y019D02*
X01689Y01899D01*
X01665Y01922D02*
X01686Y01901D01*
X0133Y01893D02*
Y01976D01*
X01665Y01922D02*
Y01976D01*
X01212Y0191D02*
Y01976D01*
X01232Y01915D02*
Y0195D01*
X0163Y01918D02*
X01645Y01933D01*
Y0195*
X0133Y01976D02*
X0133Y01976D01*
X0163Y01915D02*
Y01918D01*
X01606Y02022D02*
X01615Y02031D01*
X01626Y0202*
X01606Y01976D02*
Y02022D01*
X01626Y01976D02*
Y0202D01*
X01615Y02031D02*
Y02035D01*
X0088Y02445D02*
X0088Y02444D01*
X00961D02*
X00961Y02444D01*
X0091Y02385D02*
X00927Y02402D01*
X0088Y02444D02*
X00961D01*
X00919Y02424D02*
X00935D01*
X00927Y02402D02*
X00959D01*
X00877Y02385D02*
X0091D01*
X00959Y02402D02*
X00961Y02404D01*
X00961Y0205D02*
X00961Y0205D01*
X00959Y02265D02*
X00961Y02267D01*
X0091Y02245D02*
X0093Y02265D01*
X00959*
X01798Y02345D02*
X01798Y02345D01*
X01834Y02209D02*
X01835Y0221D01*
X01798Y02207D02*
X018Y02209D01*
X01834*
X0096Y02305D02*
X00961Y02306D01*
X0091Y02305D02*
X0096D01*
X01798Y02089D02*
X01798Y02089D01*
X01257Y01854D02*
X0126Y01857D01*
X01255Y01795D02*
X01257Y01797D01*
Y01854*
X01412Y01677D02*
X01421D01*
X01465Y01721D02*
Y01725D01*
X01421Y01677D02*
X01465Y01721D01*
X0141Y01675D02*
X01412Y01677D01*
X01689Y0187D02*
X0169Y0187D01*
X0158Y01655D02*
Y01658D01*
X0155Y01826D02*
X01551Y01825D01*
X01576Y01662D02*
Y017D01*
Y01662D02*
X0158Y01658D01*
X01551Y01725D02*
X01576Y017D01*
X0007Y0201D02*
Y02049D01*
X00197Y0216D02*
X002Y02162D01*
X00066Y02281D02*
X00108D01*
X00065Y02282D02*
X00066Y02281D01*
X00108D02*
X0011Y0228D01*
X03115Y01087D02*
X03116Y01088D01*
X00635Y03014D02*
Y03056D01*
X0022Y0093D02*
Y0099D01*
Y01087*
X001Y00742D02*
X00165D01*
X00197Y00685D02*
Y00709D01*
X00165Y00742D02*
X00197Y00709D01*
X00848Y03269D02*
X0088D01*
X0089Y0326*
X00842Y03275D02*
X00848Y03269D01*
X00884Y032D02*
X0089Y03205D01*
X00656Y032D02*
X00884D01*
X0089Y03205D02*
Y0326D01*
X00611Y03244D02*
X00656Y032D01*
X00611Y03244D02*
Y03281D01*
X0061Y03283D02*
X00611Y03281D01*
X00635Y0325D02*
X0066Y03225D01*
X00842*
X00635Y0325D02*
Y03282D01*
X00635Y03283*
X006Y0333D02*
X00837D01*
X00842Y03325*
X00585Y03315D02*
X006Y0333D01*
X00585Y03283D02*
Y03315D01*
X00584Y03283D02*
X00585Y03283D01*
X00558Y03323D02*
X0061Y03375D01*
X00842*
X00558Y03283D02*
Y03323D01*
X00534Y03354D02*
X00535Y03355D01*
X00534Y03287D02*
Y03354D01*
X00531Y03285D02*
X00533Y03283D01*
X00477Y03285D02*
X00531D01*
X03682Y01885D02*
X0369D01*
X03115Y0095D02*
X03275D01*
X03115Y0105D02*
X03275D01*
X0061Y03005D02*
Y03056D01*
Y03005D02*
X00635Y0298D01*
X00584Y02994D02*
Y03056D01*
X0057Y0298D02*
X00584Y02994D01*
X00765Y03175D02*
X00842D01*
X00526Y031D02*
X00531Y03105D01*
X00535*
X00455Y031D02*
X00526D01*
X00534Y03057D02*
Y03104D01*
X00533Y03056D02*
X00534Y03057D01*
Y03104D02*
X00535Y03105D01*
X00477Y03285D02*
X0048Y03287D01*
Y0336*
X00686Y03283D02*
X00688Y03285D01*
X0072*
X00197Y03435D02*
X00198Y03433D01*
Y03251D02*
Y03433D01*
Y03251D02*
X002Y0325D01*
X03385Y002D02*
X03575D01*
X03572Y03352D02*
X03575Y0335D01*
X03387Y03355D02*
X0339Y03352D01*
X03572*
X03351Y03353D02*
X03352Y03355D01*
X02857Y0239D02*
X0286Y02387D01*
Y0231D02*
Y02387D01*
X00155Y01385D02*
X00182Y01411D01*
Y01422*
X00185Y01425*
X00217*
X0022Y01422*
X00199Y0177D02*
X002Y01768D01*
X002Y0169D02*
X002Y0169D01*
X00165Y00777D02*
X00166Y00778D01*
X00208*
X0021Y0078*
X00199Y00349D02*
X002Y0035D01*
X00199Y00155D02*
X00199Y00155D01*
Y00349*
X00235Y00095D02*
Y00155D01*
X02044Y02894D02*
X02105D01*
X0204Y0289D02*
X02044Y02894D01*
X0222Y0295D02*
X02222Y02952D01*
X02285*
X0259Y03312D02*
X026Y03323D01*
X02592Y03249D02*
X02655D01*
X0259Y03247D02*
X02592Y03249D01*
X02957Y03286D02*
Y03303D01*
G54D13*
X0284Y03066D02*
X03028Y03253D01*
X01992Y03066D02*
X0284D01*
X01934Y03008D02*
X01992Y03066D01*
X02835Y0308D02*
X03014Y03259D01*
X01986Y0308D02*
X02835D01*
X01928Y03022D02*
X01986Y0308D01*
X01117Y02816D02*
Y02952D01*
X01186Y03022*
X01131Y02947D02*
X01192Y03008D01*
X01114Y02813D02*
X01117Y02816D01*
X01131D02*
X01133Y02813D01*
X01131Y02816D02*
Y02947D01*
X01186Y03022D02*
X01928D01*
X01192Y03008D02*
X01934D01*
X03028Y03253D02*
Y03297D01*
X03034Y03303*
X03014Y03259D02*
Y03297D01*
X03008Y03303D02*
X03014Y03297D01*
G54D18*
X01625Y01029D02*
X01625Y01028D01*
Y00952D02*
X01625Y00952D01*
X004Y0169D02*
X0052D01*
X0008D02*
X002D01*
G54D22*
X015Y01625D03*
X01465D03*
X01589Y01029D03*
X01625D03*
X0173Y0105D03*
X01766D03*
X0022Y0099D03*
X00184D03*
X00862Y02745D03*
X00897D03*
X0088Y02445D03*
X00844D03*
X00785Y02415D03*
X00749D03*
X00877Y02385D03*
X00842D03*
X00832Y02245D03*
X00867D03*
X01875Y02175D03*
X0191D03*
X01875Y0224D03*
X0191D03*
X01771Y01095D03*
X01806D03*
X0022Y0093D03*
X00184D03*
X0169Y01095D03*
X01726D03*
X01724Y00624D03*
X01759D03*
X01684Y00669D03*
X01719D03*
X01643Y00624D03*
X01679D03*
X01429D03*
X01393D03*
X01468Y00669D03*
X01433D03*
X01509Y00624D03*
X01474D03*
X01887Y02595D03*
X01922D03*
X01887Y02655D03*
X01922D03*
X01887Y02715D03*
X01922D03*
X03385Y002D03*
X0335D03*
X00199Y00155D03*
X00235D03*
X03387Y03355D03*
X03352D03*
X00197Y03435D03*
X00232D03*
X0102Y01687D03*
X01055D03*
X03067Y00875D03*
X03102D03*
X03044Y00459D03*
X03008D03*
X00445Y0336D03*
X0048D03*
X0012Y01385D03*
X00155D03*
X00562Y00745D03*
X00527D03*
X00893Y02018D03*
X00858D03*
X0087Y02305D03*
X00834D03*
X0086Y02505D03*
X00824D03*
X01828Y02795D03*
X01863D03*
X01892Y02535D03*
X01927D03*
X0186Y02345D03*
X01895D03*
X01899Y0209D03*
X01935D03*
G54D23*
X01186Y03328D03*
Y03363D03*
X0314Y00465D03*
Y00429D03*
X02285Y02987D03*
Y02952D03*
X02655Y03249D03*
Y03285D03*
X02105Y02894D03*
Y0293D03*
X00765Y03175D03*
Y03139D03*
X0114Y03317D03*
Y03282D03*
X00165Y00742D03*
Y00777D03*
X01176Y02925D03*
Y0289D03*
X01222Y02925D03*
Y0289D03*
X0007Y02085D03*
Y02049D03*
X00065Y02282D03*
Y02247D03*
X03115Y01052D03*
Y01087D03*
Y00987D03*
Y00952D03*
X0057Y0298D03*
Y02944D03*
X00635Y0298D03*
Y02944D03*
X001Y00742D03*
Y00777D03*
X01195Y01857D03*
Y01892D03*
X0126D03*
Y01857D03*
X01186Y03282D03*
Y03247D03*
X01056Y01768D03*
Y01733D03*
X0101Y01768D03*
Y01733D03*
X01363Y00987D03*
Y00952D03*
X02089Y00928D03*
Y00963D03*
X0231Y01091D03*
Y01056D03*
X0114Y03479D03*
Y03444D03*
X00455Y03064D03*
Y031D03*
X01395Y01789D03*
Y01825D03*
X01065Y029D03*
Y02935D03*
X01275Y0289D03*
Y02925D03*
X0151Y0289D03*
Y02925D03*
X0133Y01892D03*
Y01857D03*
X01125Y01885D03*
Y01849D03*
X0163Y0187D03*
Y01834D03*
X0169Y0187D03*
Y01834D03*
G54D24*
X00961Y0205D03*
Y0207D03*
Y02089D03*
Y02109D03*
Y02129D03*
Y02148D03*
Y02168D03*
Y02188D03*
Y02207D03*
Y02227D03*
Y02247D03*
Y02267D03*
Y02286D03*
Y02306D03*
Y02326D03*
Y02345D03*
Y02365D03*
Y02385D03*
Y02404D03*
Y02424D03*
Y02444D03*
Y02463D03*
Y02483D03*
Y02503D03*
Y02522D03*
Y02542D03*
Y02562D03*
Y02582D03*
Y02601D03*
Y02621D03*
Y02641D03*
Y0266D03*
Y0268D03*
Y027D03*
Y02719D03*
Y02739D03*
X01798D03*
Y02719D03*
Y027D03*
Y0268D03*
Y0266D03*
Y02641D03*
Y02621D03*
Y02601D03*
Y02582D03*
Y02562D03*
Y02542D03*
Y02522D03*
Y02503D03*
Y02483D03*
Y02463D03*
Y02444D03*
Y02424D03*
Y02404D03*
Y02385D03*
Y02365D03*
Y02345D03*
Y02326D03*
Y02306D03*
Y02286D03*
Y02267D03*
Y02247D03*
Y02227D03*
Y02207D03*
Y02188D03*
Y02168D03*
Y02148D03*
Y02129D03*
Y02109D03*
Y02089D03*
Y0207D03*
Y0205D03*
G54D25*
X01035Y02813D03*
X01055D03*
X01074D03*
X01094D03*
X01114D03*
X01133D03*
X01153D03*
X01173D03*
X01192D03*
X01212D03*
X01232D03*
X01252D03*
X01271D03*
X01291D03*
X01311D03*
X0133D03*
X0135D03*
X0137D03*
X01389D03*
X01409D03*
X01429D03*
X01448D03*
X01468D03*
X01488D03*
X01507D03*
X01527D03*
X01547D03*
X01567D03*
X01586D03*
X01606D03*
X01626D03*
X01645D03*
X01665D03*
X01685D03*
X01704D03*
X01724D03*
Y01976D03*
X01704D03*
X01685D03*
X01665D03*
X01645D03*
X01626D03*
X01606D03*
X01586D03*
X01567D03*
X01547D03*
X01527D03*
X01507D03*
X01488D03*
X01468D03*
X01448D03*
X01429D03*
X01409D03*
X01389D03*
X0137D03*
X0135D03*
X0133D03*
X01311D03*
X01291D03*
X01271D03*
X01252D03*
X01232D03*
X01212D03*
X01192D03*
X01173D03*
X01153D03*
X01133D03*
X01114D03*
X01094D03*
X01074D03*
X01055D03*
X01035D03*
G54D26*
X02957Y03303D03*
X02982D03*
X03008D03*
X03034D03*
X03059D03*
G54D27*
X01465Y01725D03*
Y01825D03*
X01551D03*
Y01725D03*
G54D28*
X01425Y00952D03*
X01475D03*
X01525D03*
X01575D03*
X01625D03*
X01675D03*
X01725D03*
X01775D03*
Y00758D03*
X01725D03*
X01675D03*
X01625D03*
X01575D03*
X01525D03*
X01475D03*
X01425D03*
G54D29*
X02171Y0097D03*
Y00944D03*
Y00919D03*
X02398Y00842D03*
X02171D03*
Y00867D03*
Y00893D03*
X02398Y00867D03*
Y00893D03*
Y00919D03*
Y00944D03*
Y0097D03*
Y00995D03*
X02171D03*
G54D30*
X02942Y00685D03*
Y00635D03*
Y00585D03*
Y00535D03*
X03137D03*
Y00585D03*
Y00635D03*
Y00685D03*
G54D31*
X00842Y03425D03*
Y03375D03*
Y03325D03*
Y03275D03*
Y03225D03*
Y03175D03*
Y03125D03*
X01057D03*
Y03175D03*
Y03225D03*
Y03275D03*
Y03325D03*
Y03375D03*
Y03425D03*
G54D32*
X00558Y03056D03*
X00584D03*
X0061D03*
X00686Y03283D03*
Y03056D03*
X00661D03*
X00635D03*
X00661Y03283D03*
X00635D03*
X0061D03*
X00584D03*
X00558D03*
X00533D03*
Y03056D03*
G54D33*
X0037Y01422D03*
X0032D03*
X0027D03*
X0022D03*
X0032Y01087D03*
X0027D03*
X0037D03*
X0022D03*
G54D34*
X00532Y00535D03*
Y00585D03*
Y00635D03*
Y00685D03*
X00197Y00585D03*
Y00635D03*
Y00535D03*
Y00685D03*
G54D35*
X004Y0169D03*
X002D03*
X004Y01768D03*
X002D03*
X004Y01847D03*
X002D03*
X004Y01926D03*
X002D03*
X004Y02005D03*
X002D03*
X004Y02083D03*
X002D03*
X004Y02162D03*
X002D03*
X004Y02241D03*
X002D03*
X004Y0232D03*
X002D03*
X004Y02398D03*
X002D03*
X004Y02477D03*
X002D03*
X004Y02556D03*
X002D03*
X004Y02634D03*
X002D03*
X004Y02713D03*
X002D03*
X004Y02792D03*
X002D03*
G54D36*
X00842Y00778D03*
Y00973D03*
X00942Y00778D03*
Y00973D03*
X01042Y00778D03*
Y00973D03*
X01142Y00778D03*
Y00973D03*
X01242Y00778D03*
Y00973D03*
X02565Y01882D03*
Y02077D03*
X02665Y01882D03*
Y02077D03*
X02765Y01882D03*
Y02077D03*
X02865Y01882D03*
Y02077D03*
X02965Y01882D03*
Y02077D03*
X00955Y00381D03*
Y00186D03*
X00855Y00381D03*
Y00186D03*
X00755Y00381D03*
Y00186D03*
X00655Y00381D03*
Y00186D03*
X00555Y00381D03*
Y00186D03*
G54D37*
X02367Y0069D03*
X02562D03*
X02367Y0059D03*
X02562D03*
X02367Y0049D03*
X02562D03*
X02367Y0039D03*
X02562D03*
X02367Y0029D03*
X02562D03*
X02857Y0239D03*
X02662D03*
X02857Y0249D03*
X02662D03*
X02857Y0259D03*
X02662D03*
X02857Y0269D03*
X02662D03*
X02857Y0279D03*
X02662D03*
G54D38*
X0222Y03015D03*
Y0295D03*
X0259Y03312D03*
Y03247D03*
X0204Y02955D03*
Y0289D03*
G54D39*
X01085Y01631D03*
X0102D03*
G54D40*
X02395Y01059D03*
Y01114D03*
X0176Y0186D03*
Y01804D03*
G54D41*
X03121Y0078D03*
X03018D03*
G54D42*
X00477Y03285D03*
X00422D03*
G54D43*
X0369Y0175D03*
Y01647D03*
Y01885D03*
Y01987D03*
G54D66*
X01646Y0317D03*
X017Y0327D03*
X01754Y0317D03*
X01807Y0327D03*
X01861Y0317D03*
X01915Y0327D03*
X01969Y0317D03*
X02023Y0327D03*
X02077Y0317D03*
G54D74*
X0142Y01625D03*
X0199Y02955D03*
X02711Y03285D03*
X0138Y00661D03*
X01772Y00684D03*
X02172Y03014D03*
X03085Y0326D03*
X01096Y03483D03*
X03346Y03312D03*
X00591Y01529D03*
X00613Y00745D03*
X00613Y00691D03*
X01863Y0284D03*
X0041Y01085D03*
X01192Y00992D03*
X02089Y01182D03*
X01976Y00273D03*
X02023Y00271D03*
X02059Y00351D03*
X01936Y00401D03*
X01893Y00592D03*
X01797Y00597D03*
X01778Y00829D03*
X01032Y02306D03*
X00826Y02546D03*
X01927Y02507D03*
X0259Y0336D03*
X01235Y03248D03*
X0101Y02939D03*
X01117Y01679D03*
X01122Y01802D03*
X0133Y01818D03*
X0246Y00439D03*
X02463Y0054D03*
X02852Y00475D03*
X02917Y03298D03*
X02964Y00775D03*
X01022Y00183D03*
X00852Y00073D03*
X00955Y00073D03*
X01028Y02871D03*
X02321Y00861D03*
X00948Y00661D03*
X02087Y00851D03*
X01747Y02072D03*
X0091Y02305D03*
X0174Y0254D03*
X01861Y02541D03*
X01963Y01925D03*
X0153Y0275D03*
X01785Y02808D03*
X02395Y01169D03*
X02165Y0081D03*
X01222Y00519D03*
X02111Y00986D03*
X0194Y00357D03*
X01878Y00515D03*
X0231Y01134D03*
X01792Y01842D03*
X0181Y01805D03*
X012Y01803D03*
X01325Y0028D03*
X01409Y00267D03*
X02951Y00342D03*
X02985Y00237D03*
X02755Y00273D03*
X02081Y00605D03*
X00976Y03241D03*
X02125Y00279D03*
X00933Y02016D03*
X01368Y0192D03*
X00899Y02059D03*
X00798Y02017D03*
X0052Y0169D03*
X01128Y01916D03*
X0052Y0177D03*
X01423Y01919D03*
X00145Y0099D03*
X01295Y01895D03*
X0174Y02317D03*
X02165Y00444D03*
X0302Y00875D03*
X0192Y02305D03*
X0186D03*
X0194Y0205D03*
X00792Y02305D03*
X01275Y02861D03*
X0101Y0283D03*
X03155Y0099D03*
X0316Y0109D03*
X03008Y00636D03*
X02758Y00814D03*
X0301Y00585D03*
X0335Y00155D03*
X02251Y00405D03*
X01315Y02919D03*
X0174Y0272D03*
X0297Y0279D03*
X0155Y02919D03*
X0297Y0249D03*
X02105Y0297D03*
X01315Y02865D03*
X0233Y02985D03*
X003Y02002D03*
X005Y02319D03*
X00903Y02513D03*
X01067Y02867D03*
X0151Y0286D03*
X0155Y01895D03*
X0141Y01675D03*
X01395Y0175D03*
X01255Y01795D03*
X0158Y01655D03*
X0163Y01915D03*
X01689Y019D03*
X01855Y0209D03*
X01615Y02035D03*
X0169Y0179D03*
X0163D03*
X00095Y0216D03*
X003Y0232D03*
X0011Y0228D03*
X0318Y01795D03*
Y01875D03*
X03Y0164D03*
Y01715D03*
X0318D03*
Y0164D03*
X02915D03*
Y01715D03*
X00535Y03355D03*
X01Y03425D03*
X00455Y03015D03*
X02251Y0054D03*
X00133Y01344D03*
X00185Y01425D03*
X0021Y0078D03*
X00095Y00535D03*
X0286Y0231D03*
X0072Y03285D03*
X00535Y03105D03*
X0007Y0201D03*
X0008Y0169D03*
X01025Y0045D03*
X03185Y0043D03*
X02252Y00469D03*
X02465Y0049D03*
X00285Y03435D03*
X00394Y03361D03*
X00375Y03285D03*
X0008Y0177D03*
X0072Y03055D03*
X00765Y03095D03*
X02675Y0018D03*
X0292Y0011D03*
Y0017D03*
X0299Y00389D03*
X03008Y0069D03*
X02975Y0259D03*
X0369Y0206D03*
Y01585D03*
X02678Y00477D03*
X01075Y00368D03*
X00235Y00095D03*
G54D76*
X02562Y00638D02*
Y0069D01*
X02367Y0059D02*
Y0069D01*
X02364Y00343D02*
Y00386D01*
Y00293D02*
Y00343D01*
X02562Y00341D02*
Y00389D01*
Y0029D02*
Y00341D01*
Y0029D02*
X02562Y0029D01*
X02562Y00389D02*
X02562Y0039D01*
X02364Y00293D02*
X02367Y0029D01*
X02364Y00386D02*
X02367Y0039D01*
X02562Y0059D02*
Y00638D01*
X02367Y0039D02*
X02562D01*
X02367Y0059D02*
X02562D01*
G54D77*
X01743Y00949D02*
Y01036D01*
X01757Y01041D02*
X01766Y0105D01*
X0173D02*
X01743Y01036D01*
X01756Y00949D02*
Y01038D01*
X01757Y01039*
Y01041*
X01218Y03162D02*
X0129Y03091D01*
X01223Y03175D02*
X01295Y03103D01*
X01771*
X01797Y0313*
X0129Y03091D02*
X01776D01*
X0181Y03124*
X01223Y03175D02*
D01*
X01218Y03162D02*
D01*
X01187Y03193D02*
X01218Y03162D01*
X01173Y03309D02*
X01177Y03313D01*
Y03319D02*
X01186Y03328D01*
X01154Y03296D02*
X01174D01*
X01177Y03313D02*
Y03319D01*
X0114Y03317D02*
X01148Y03309D01*
X01173*
X0114Y03282D02*
X01154Y03296D01*
X01194Y03305D02*
X01197Y03308D01*
X01194Y03291D02*
Y03305D01*
X01192Y03321D02*
X01571D01*
X01186Y03328D02*
X01192Y03321D01*
X01197Y03308D02*
X01566D01*
X0165Y03224*
X01571Y03321D02*
X01659Y03233D01*
X01177Y03291D02*
Y03293D01*
X0165Y03174D02*
Y03224D01*
X01646Y0317D02*
X0165Y03174D01*
X01186Y03282D02*
X01194Y03291D01*
X0106Y03293D02*
X01128D01*
X01057Y0329D02*
X0106Y03293D01*
X01128D02*
X01131Y0329D01*
Y0329D02*
X0114Y03282D01*
X01131Y0329D02*
Y0329D01*
X01057Y03275D02*
Y0329D01*
X01663Y03233D02*
X017Y0327D01*
X01659Y03233D02*
X01663D01*
X01131Y03309D02*
X0114Y03317D01*
X01057Y03309D02*
Y03325D01*
X01131Y03309D02*
Y03309D01*
X01128Y03306D02*
X01131Y03309D01*
X01057D02*
X0106Y03306D01*
X01128*
X01177Y03291D02*
X01186Y03282D01*
X01174Y03296D02*
X01177Y03293D01*
X01756Y00949D02*
X01759Y00952D01*
X01775*
X01756Y00902D02*
Y00949D01*
X01318Y00862D02*
X01716D01*
X01252Y00869D02*
X01312D01*
X01249Y00866D02*
X01252Y00869D01*
X01312D02*
X01318Y00862D01*
X01716D02*
X01756Y00902D01*
X01249Y00785D02*
Y00866D01*
X01242Y00778D02*
X01249Y00785D01*
X01741Y00952D02*
X01743Y00949D01*
Y00908D02*
Y00949D01*
X01725Y00952D02*
X01741D01*
X01242Y00973D02*
X01249Y00965D01*
Y00884D02*
Y00965D01*
X01711Y00875D02*
X01743Y00908D01*
X01317Y00881D02*
X01323Y00875D01*
X01711*
X01249Y00884D02*
X01252Y00881D01*
X01317*
X01763Y01087D02*
X01771Y01095D01*
X01754Y01084D02*
X01757Y01087D01*
X01754Y01073D02*
Y01084D01*
X01757Y01058D02*
X01757D01*
X01754Y01061D02*
X01757Y01058D01*
X01741Y01078D02*
X01742Y01079D01*
X01754Y01061D02*
Y01073D01*
X01754Y01073*
X01733Y01087D02*
X01739D01*
X01726Y01095D02*
X01733Y01087D01*
X01738Y01058D02*
X01739D01*
X01757D02*
X01766Y0105D01*
X0173D02*
X01738Y01058D01*
X01757Y01087D02*
X01763D01*
X01741Y01061D02*
Y01078D01*
X01742Y01079D02*
Y01084D01*
X01739Y01058D02*
X01741Y01061D01*
X01739Y01087D02*
X01742Y01084D01*
X01444Y0068D02*
Y00714D01*
X01443Y00714D02*
X01444Y00714D01*
X01441Y00677D02*
X01444Y0068D01*
X01443Y00714D02*
Y00755D01*
X01441Y00758D02*
X01443Y00755D01*
X01441Y00677D02*
X01441D01*
X01445Y00634D02*
Y00639D01*
X01444Y0064D02*
X01445Y00639D01*
X01442Y00631D02*
X01445Y00634D01*
X01441Y0066D02*
X01444Y00657D01*
X01441Y0066D02*
X01441D01*
X01444Y0064D02*
Y00657D01*
X01425Y00758D02*
X01441D01*
X01433Y00669D02*
X01441Y00677D01*
X01433Y00669D02*
X01441Y0066D01*
X01436Y00631D02*
X01442D01*
X01429Y00624D02*
X01436Y00631D01*
X0146Y00677D02*
X01468Y00669D01*
X0146Y00677D02*
X0146D01*
X0146Y0066D02*
X0146D01*
X01466Y00631D02*
X01474Y00624D01*
X0146Y0066D02*
X01468Y00669D01*
X01457Y00634D02*
X0146Y00631D01*
X01466*
X01456Y00755D02*
X01459Y00758D01*
X01457Y0068D02*
Y00719D01*
X01456Y0072D02*
Y00755D01*
Y0072D02*
X01457Y00719D01*
Y00657D02*
X0146Y0066D01*
X01457Y0068D02*
X0146Y00677D01*
X01457Y00634D02*
Y00645D01*
X01457Y00645D02*
Y00657D01*
Y00645D02*
X01457Y00645D01*
X01182Y00674D02*
Y00857D01*
X01171Y00869D02*
X01182Y00857D01*
X01167Y00869D02*
X01171D01*
X01164Y008D02*
Y00866D01*
X01195Y0068D02*
X01208Y00667D01*
X01167Y00881D02*
X01176D01*
X01164Y00884D02*
X01167Y00881D01*
X01164Y00884D02*
Y0095D01*
X01176Y00881D02*
X01195Y00862D01*
X01182Y00674D02*
X01203Y00654D01*
X01142Y00973D02*
X01164Y0095D01*
Y00866D02*
X01167Y00869D01*
X01195Y0068D02*
Y00862D01*
X01208Y00667D02*
X01294D01*
X01142Y00778D02*
X01164Y008D01*
X01203Y00654D02*
X01299D01*
X01294Y00667D02*
X01325Y00698D01*
X01299Y00654D02*
X01338Y00692D01*
X01325Y00726D02*
X01405Y00806D01*
X01435*
X01338Y00692D02*
Y00721D01*
X01325Y00698D02*
Y00726D01*
X01338Y00721D02*
X0141Y00793D01*
X01417D02*
X01425Y00785D01*
X01447Y0077D02*
X01459Y00758D01*
X01435Y00806D02*
X01447Y00794D01*
X0141Y00793D02*
X01417D01*
X01447Y0077D02*
Y00794D01*
X01459Y00758D02*
X01475D01*
X01425D02*
Y00785D01*
X01695Y0068D02*
Y00711D01*
X01693Y00713D02*
X01695Y00711D01*
X01692Y00677D02*
X01695Y0068D01*
X01693Y00713D02*
Y00755D01*
X01691Y00758D02*
X01693Y00755D01*
X01692Y00677D02*
X01692D01*
X01695Y0065D02*
Y00657D01*
X01692Y0066D02*
X01695Y00657D01*
X01695Y0065D02*
X01695Y0065D01*
X01695Y00634D02*
Y0065D01*
X01692Y0066D02*
X01692D01*
X01692Y00631D02*
X01695Y00634D01*
X01684Y00669D02*
X01692Y00677D01*
X01675Y00758D02*
X01691D01*
X01684Y00669D02*
X01692Y0066D01*
X01686Y00631D02*
X01692D01*
X01679Y00624D02*
X01686Y00631D01*
X01709Y00758D02*
X01725D01*
X01711Y00677D02*
X01719Y00669D01*
X01711Y00677D02*
X01711D01*
X01708Y0068D02*
X01711Y00677D01*
Y0066D02*
X01711D01*
X01716Y00631D02*
X01724Y00624D01*
X01711Y0066D02*
X01719Y00669D01*
X0171Y00631D02*
X01716D01*
X01706Y00755D02*
X01709Y00758D01*
X01708Y0068D02*
Y00716D01*
X01706Y00718D02*
Y00755D01*
Y00718D02*
X01708Y00716D01*
Y00657D02*
X01711Y0066D01*
X01708Y00645D02*
X01708Y00645D01*
X01708Y00634D02*
X0171Y00631D01*
X01708Y00645D02*
Y00657D01*
X01708Y00634D02*
Y00645D01*
X01085Y00673D02*
Y00855D01*
X01067Y00869D02*
X01071D01*
X01064Y00884D02*
Y0095D01*
Y00884D02*
X01067Y00881D01*
X01076*
X01064Y008D02*
Y00866D01*
X01067Y00869*
X01042Y00973D02*
X01064Y0095D01*
X01071Y00869D02*
X01085Y00855D01*
X01076Y00881D02*
X01098Y0086D01*
X01042Y00778D02*
X01064Y008D01*
X01098Y00679D02*
Y0086D01*
Y00679D02*
X01195Y00582D01*
X01085Y00673D02*
X01189Y00569D01*
X01674*
X01195Y00582D02*
X01668D01*
X0171Y00615D02*
X01715D01*
X01724Y00624*
X01687Y00615D02*
X01692D01*
X01679Y00624D02*
X01687Y00615D01*
X01668Y00582D02*
X01695Y00608D01*
Y00612*
X01692Y00615D02*
X01695Y00612D01*
X01708Y00603D02*
Y00612D01*
X01674Y00569D02*
X01708Y00603D01*
Y00612D02*
X0171Y00615D01*
X01057Y03209D02*
Y03225D01*
Y0319D02*
X0106Y03193D01*
X01057Y03175D02*
Y0319D01*
X0106Y03193D02*
X01187D01*
X01057Y03209D02*
X0106Y03206D01*
X01193D02*
X01223Y03175D01*
X0106Y03206D02*
X01193D01*
X0181Y03124D02*
Y03208D01*
X01797Y0313D02*
Y03202D01*
X01798Y0322D02*
X0181Y03208D01*
X01798Y0322D02*
Y0326D01*
X01754Y0317D02*
X0179Y03206D01*
X01794*
X01798Y0326D02*
X01807Y0327D01*
X01794Y03206D02*
X01797Y03202D01*
G54D78*
X00827Y0091D02*
X00842Y00925D01*
X00823Y0091D02*
X00827D01*
X00842Y00925D02*
Y00951D01*
X00789Y00876D02*
X00823Y0091D01*
X00842Y00951D02*
Y00973D01*
X03475Y0185D02*
X03575D01*
X03647D02*
X03682Y01885D01*
X03575Y0185D02*
X03647D01*
X03575Y0175D02*
X0369D01*
G54D79*
X0137Y0322D03*
X02353D03*
G54D80*
X0291Y03345D03*
X03106D03*
G54D81*
X02861Y03303D03*
X03155D03*
G54D82*
X02855Y03453D03*
X0316D03*
G54D83*
X003Y01574D03*
Y02907D03*
G54D84*
X03375Y0105D03*
Y0115D03*
Y0135D03*
Y0125D03*
Y0155D03*
Y0165D03*
Y0175D03*
Y0195D03*
Y0185D03*
Y0215D03*
Y0235D03*
Y0205D03*
Y0225D03*
Y0145D03*
Y0095D03*
X03275Y0255D03*
Y0225D03*
Y0235D03*
Y0245D03*
Y0215D03*
Y0195D03*
Y0295D03*
Y0275D03*
Y0265D03*
Y0285D03*
Y0205D03*
X03375Y0055D03*
Y0085D03*
Y0065D03*
X03275Y0075D03*
Y0065D03*
X03375Y0075D03*
X03275Y0055D03*
Y0085D03*
Y0105D03*
Y0115D03*
Y0125D03*
Y0135D03*
Y0145D03*
Y0155D03*
Y0175D03*
Y0185D03*
Y0095D03*
Y0165D03*
X03375Y0265D03*
Y0255D03*
Y0285D03*
Y0245D03*
Y0305D03*
Y0275D03*
Y0295D03*
X03575Y0105D03*
Y0115D03*
Y0135D03*
Y0125D03*
Y0155D03*
Y0165D03*
Y0175D03*
Y0195D03*
Y0185D03*
Y0215D03*
Y0235D03*
Y0205D03*
Y0225D03*
Y0145D03*
Y0095D03*
X03475Y0255D03*
Y0225D03*
Y0235D03*
Y0245D03*
Y0215D03*
Y0195D03*
Y0295D03*
Y0275D03*
Y0265D03*
Y0285D03*
Y0205D03*
X03575Y0055D03*
Y0085D03*
Y0065D03*
X03475Y0075D03*
Y0065D03*
X03575Y0075D03*
X03475Y0055D03*
Y0085D03*
Y0105D03*
Y0115D03*
Y0125D03*
Y0135D03*
Y0145D03*
Y0155D03*
Y0175D03*
Y0185D03*
Y0095D03*
Y0165D03*
X03575Y0265D03*
Y0255D03*
Y0285D03*
Y0245D03*
Y0305D03*
Y0275D03*
Y0295D03*
G54D85*
X03275Y0305D03*
X03475D03*
G54D86*
X0361Y00185D03*
X03575Y0332D03*
X0018Y0327D03*
X002Y0035D03*
G54D87*
X00653Y01664D03*
X00954Y01882D03*
X02537Y00787D03*
X02464Y0085D03*
X02367Y0064D03*
X0015Y00152D03*
Y01052D03*
Y02852D03*
X00225Y03002D03*
X0015Y03452D03*
X003Y00152D03*
X00375Y00302D03*
X003Y02552D03*
Y02852D03*
X00375Y03002D03*
X003Y03152D03*
X0045Y00152D03*
Y00452D03*
X00525Y01802D03*
X0045Y02852D03*
Y03152D03*
Y03452D03*
X006Y03152D03*
Y03452D03*
X00825Y00602D03*
X0075Y00752D03*
X00825Y01802D03*
X0075Y02252D03*
Y02552D03*
Y03452D03*
X00975Y00602D03*
X009Y01652D03*
Y02552D03*
Y03152D03*
X00975Y03302D03*
X009Y03452D03*
X0105Y00152D03*
X01125Y00302D03*
X012Y00152D03*
X01275Y00302D03*
X012Y01652D03*
Y03452D03*
X0135Y00152D03*
Y01652D03*
Y02552D03*
Y03452D03*
X015Y00152D03*
X01575Y00302D03*
X015Y00452D03*
Y03152D03*
Y03452D03*
X0165Y00152D03*
X01725Y01502D03*
X0165Y01652D03*
Y02552D03*
Y03452D03*
X018Y00152D03*
X01875Y00302D03*
X018Y01652D03*
X01875Y01802D03*
X018Y03452D03*
X0195Y00152D03*
X02025Y03002D03*
X0195Y03452D03*
X021Y00152D03*
X02175Y00302D03*
Y03302D03*
X021Y03452D03*
X0225Y00152D03*
Y02552D03*
Y03452D03*
X024Y00152D03*
X02475Y01202D03*
Y03002D03*
Y03302D03*
X024Y03452D03*
X0255Y00152D03*
Y01652D03*
Y02852D03*
Y03152D03*
Y03452D03*
X027Y00752D03*
Y02852D03*
Y03152D03*
X02775Y03302D03*
X027Y03452D03*
X0285Y01052D03*
X02925Y01202D03*
Y01502D03*
X0285Y02252D03*
Y02852D03*
X03Y00152D03*
Y01352D03*
X03075Y01502D03*
Y01802D03*
Y02102D03*
X03Y02252D03*
X03075Y02402D03*
X03Y02552D03*
X03075Y02702D03*
X03Y02852D03*
X03075Y03002D03*
X03Y03452D03*
X0315Y00152D03*
X03225Y00302D03*
Y00602D03*
Y00902D03*
Y01202D03*
X0315Y01352D03*
X03225Y01502D03*
Y02102D03*
X0315Y02252D03*
X03225Y02402D03*
X0315Y02552D03*
X03225Y02702D03*
X0315Y02852D03*
X03225Y03002D03*
Y03302D03*
X033Y00152D03*
X03375Y00302D03*
X033Y00452D03*
X03375Y00602D03*
Y00902D03*
Y01202D03*
Y01502D03*
Y02102D03*
Y02402D03*
Y02702D03*
Y03002D03*
Y03302D03*
X033Y03452D03*
X0345Y00152D03*
Y00452D03*
X03525Y00602D03*
Y01202D03*
Y01502D03*
Y02102D03*
Y02402D03*
Y02702D03*
Y03002D03*
X0345Y03452D03*
X036Y00452D03*
X03675Y00602D03*
Y00902D03*
Y01202D03*
Y01502D03*
Y02102D03*
Y02402D03*
Y02702D03*
Y03002D03*
X00519Y00902D03*
X0142Y02703D03*
X0075Y02867D03*
X009D03*
X02925Y03002D03*
X02625D03*
X0345Y03152D03*
X033D03*
X02775Y03002D03*
X0315Y03152D03*
X036D03*
X0285D03*
X03D03*
X0225D03*
X00652Y02745D03*
X00779Y02768D03*
X00579Y02404D03*
X02096Y00555D03*
X01464Y00825D03*
X01018Y01542D03*
X00866Y01424D03*
X02931Y02922D03*
X0292Y01423D03*
X01052Y00063D03*
X02538Y02968D03*
X01911D03*
X02627Y03447D03*
X01683Y00902D03*
X0133Y00901D03*
X016Y00898D03*
X01294Y00721D03*
X01474Y00507D03*
X01179Y02954D03*
X01223Y02971D03*
X0255Y02632D03*
X02673Y00429D03*
X01108Y03372D03*
X01128Y03244D03*
X00411Y0062D03*
X02214Y01628D03*
X01732Y01186D03*
X01453Y01179D03*
X00874Y01189D03*
X00151Y01496D03*
X00262Y00988D03*
X00146Y00858D03*
X00776Y0166D03*
X00745Y00586D03*
X01175Y0051D03*
X01366Y00411D03*
X01988Y00705D03*
X01538Y01625D03*
X00431Y00722D03*
X00901Y01251D03*
X02068Y00687D03*
X00616Y00488D03*
X0059Y01334D03*
X00487Y01331D03*
X0059Y01186D03*
X00728Y0091D03*
X00589Y00899D03*
X00477Y00942D03*
X00301Y02734D03*
X00981Y01322D03*
X01373D03*
X01806Y01319D03*
X01537Y02303D03*
X01413Y023D03*
X0133Y02644D03*
X01221Y02544D03*
X01259Y02296D03*
X01224Y02177D03*
X01023Y02522D03*
X01034Y02487D03*
X01092Y02462D03*
X01153Y02606D03*
X00586Y02625D03*
X0203Y02597D03*
X02351Y02061D03*
X02504Y02502D03*
X02615Y02019D03*
X02917Y01976D03*
X02088Y01619D03*
X02216Y01719D03*
X02303Y01626D03*
X02018Y01583D03*
X01449Y02693D03*
X00615Y01551D03*
X00848Y01769D03*
X00698Y01715D03*
X00519Y01525D03*
X00484Y01179D03*
X01148Y02687D03*
X02475Y02776D03*
X02407Y0242D03*
X02426Y02845D03*
X02384Y02909D03*
X02342Y0273D03*
X00298Y02129D03*
X02562Y00341D03*
X02364Y00343D03*
X02665Y02176D03*
X02903Y00816D03*
X00955Y01523D03*
X02332Y00916D03*
X0164Y01178D03*
X0134Y00611D03*
X01029Y00556D03*
X01606Y00695D03*
X01654Y00512D03*
X02363Y01575D03*
X02512Y01706D03*
X02453Y01762D03*
X02706Y01694D03*
X0238Y01812D03*
X02377Y01873D03*
X02418Y01905D03*
X02106Y02426D03*
X0215Y02452D03*
X02188Y02478D03*
X01484Y02429D03*
X01534Y02466D03*
X01584Y02502D03*
X01695Y02578D03*
X02189Y02537D03*
X0108Y02203D03*
X01028Y02249D03*
X0108Y02123D03*
X0123Y02249D03*
X01652Y02224D03*
X0159D03*
X01682Y02224D03*
X00789Y02246D03*
X01451Y02086D03*
X01732Y02627D03*
X01922Y01963D03*
X01956Y01978D03*
X02405Y0233D03*
X02361Y02321D03*
X02522Y0268D03*
X01294Y02752D03*
X0119Y00937D03*
X01191Y01175D03*
X00789Y00876D03*
X00788Y00991D03*
X00889Y00913D03*
X01083Y01179D03*
X01229Y0118D03*
X01827Y01524D03*
X01519Y01552D03*
X01385Y01524D03*
X01086Y01551D03*
X01277D03*
X00839D03*
X00877Y0155D03*
X0135Y01591D03*
X01792Y01592D03*
X01669Y01581D03*
X02139Y01551D03*
X0041Y00857D03*
X02443Y01058D03*
X02336Y01254D03*
X02389Y01278D03*
X02318Y0095D03*
X02271Y00946D03*
X02269Y00997D03*
X02504Y0097D03*
X02449Y00942D03*
X02471Y00894D03*
X01834Y00981D03*
X01574Y00812D03*
X01624Y00814D03*
X01525Y00811D03*
X0118Y00464D03*
X01259Y00434D03*
X0133Y00951D03*
X01772Y00551D03*
X01607Y01188D03*
X0178Y01252D03*
X01781Y01187D03*
X01687Y01189D03*
X01636Y01325D03*
X0203Y0132D03*
X0208Y01319D03*
X01708Y00508D03*
X01276Y01193D03*
X01337Y01251D03*
X01334Y01177D03*
X00777Y01185D03*
X00902Y0117D03*
X00731Y01186D03*
Y01325D03*
X00777Y01328D03*
X01157Y01334D03*
X01207Y01336D03*
X01704Y00358D03*
X01671Y00409D03*
X01772Y00275D03*
X01588Y01326D03*
X01849Y00334D03*
X01831Y00385D03*
X00765Y01726D03*
X00864Y01901D03*
X0032Y01249D03*
X0037Y01218D03*
X00272Y01286D03*
X0196Y01285D03*
X0192Y0125D03*
X01953Y01219D03*
X00484Y0125D03*
X02165Y01063D03*
X02281Y02626D03*
X00321Y00556D03*
X00413Y01151D03*
X00408Y01376D03*
X003Y01691D03*
X00301Y01768D03*
X00598Y0204D03*
X00298Y02049D03*
X00299Y02202D03*
X00293Y02281D03*
Y02439D03*
X003Y02575D03*
X00298Y02664D03*
X00766Y03279D03*
X00361Y00937D03*
X0151Y02039D03*
X03045Y00413D03*
X02679Y00636D03*
X02562Y00638D03*
X02166Y006D03*
X02842Y00308D03*
X02808Y00282D03*
X02731Y00065D03*
X00766Y01938D03*
X01136Y02087D03*
X00739Y01963D03*
X01124Y02116D03*
X01235Y02364D03*
X01068Y02412D03*
X00101Y01617D03*
X00159Y01602D03*
X01283Y01674D03*
X01171Y01631D03*
X02166Y00384D03*
X01708Y02177D03*
X01625Y02194D03*
X01566Y02114D03*
X01578Y02147D03*
X02781Y01226D03*
X01381Y02951D03*
X01412Y02873D03*
X01276Y02339D03*
X02298Y018D03*
X01922Y02221D03*
Y02144D03*
X02748Y0152D03*
X00365Y01002D03*
X00726Y02127D03*
X00582Y02218D03*
X00704Y0209D03*
X00505Y01965D03*
X00562Y01956D03*
X0029Y01926D03*
X00499Y02154D03*
X00768Y02155D03*
X004Y0212D03*
X00873Y02203D03*
X00904Y02173D03*
X005Y02192D03*
X0029Y01847D03*
X00635Y02905D03*
X02809Y00661D03*
X0287Y00241D03*
X02757Y00665D03*
X01707Y02896D03*
X01765Y02871D03*
X01701Y02748D03*
X03072Y00534D03*
X02946Y00498D03*
X02783Y00635D03*
X0278Y01689D03*
X02815Y01718D03*
X02819Y01976D03*
X0272Y02214D03*
X00713Y03D03*
X00522Y02968D03*
X0057Y02905D03*
X00747Y02611D03*
X00895Y02662D03*
X0085Y02681D03*
X00831Y02761D03*
X02556Y02391D03*
X02757Y02326D03*
X01255Y0275D03*
X003Y0279D03*
X00516Y02792D03*
X00296Y02083D03*
X00289Y02239D03*
X00497Y01847D03*
X00294Y02475D03*
X00622Y02588D03*
X00494Y02475D03*
X00704Y02624D03*
M02*