%FSTAX23Y23*%
%MOIN*%
%SFA1B1*%

%IPPOS*%
%AMD91*
1,1,0.095433,0.000000,0.000000*
1,0,0.075433,0.000000,0.000000*
4,0,4,0.030200,0.037300,-0.037300,-0.030200,-0.030200,-0.037300,0.037300,0.030200,0.030200,0.037300,0.0*
4,0,4,-0.030200,0.037300,0.037300,-0.030200,0.030200,-0.037300,-0.037300,0.030200,-0.030200,0.037300,0.0*
%
%AMD97*
1,1,0.100157,0.000000,0.000000*
1,0,0.080157,0.000000,0.000000*
4,0,4,0.031800,0.038900,-0.038900,-0.031800,-0.031800,-0.038900,0.038900,0.031800,0.031800,0.038900,0.0*
4,0,4,-0.031800,0.038900,0.038900,-0.031800,0.031800,-0.038900,-0.038900,0.031800,-0.031800,0.038900,0.0*
%
%ADD10C,0.010000*%
%ADD88C,0.040000*%
%ADD89C,0.162047*%
%ADD90C,0.075433*%
G04~CAMADD=91~12~0.0~0.0~0.0~0.0~0.0~0.0~0~954.3~754.3~0.0~45.0~4~100.0~0.0~0.0~0.0~0~0.0~0.0~0.0~0.0~954.3~954.3*
%ADD91D91*%
%ADD92C,0.071496*%
%ADD93O,0.073464X0.095118*%
%ADD94O,0.061653X0.087244*%
%ADD95C,0.072008*%
%ADD96C,0.080157*%
G04~CAMADD=97~12~0.0~0.0~0.0~0.0~0.0~0.0~0~1001.6~801.6~0.0~45.0~4~100.0~0.0~0.0~0.0~0~0.0~0.0~0.0~0.0~1001.6~1001.6*
%ADD97D97*%
%ADD98C,0.165197*%
%ADD99C,0.049842*%
%ADD100C,0.051811*%
%LNocb_development_board-1*%
%LPD*%
G54D10*
X024Y0083D02*
Y01125D01*
X02695*
X0075Y00827D02*
Y0114D01*
X01742*
X01974Y0083D02*
Y0114D01*
X01742D02*
X01974D01*
Y0083D02*
X024D01*
X02585Y00635D02*
X02607Y00657D01*
X0075Y00635D02*
Y00827D01*
Y00635D02*
X02585D01*
X02607Y00657D02*
X02691D01*
X02695Y00661*
Y0021D02*
Y00661D01*
X0225Y02915D02*
X0299D01*
X02175Y0299D02*
X0225Y02915D01*
X0202Y03145D02*
X02175Y0299D01*
X0202Y03145D02*
Y03225D01*
X0305Y012D02*
Y02855D01*
X02828Y01553D02*
Y01703D01*
X02875Y0175*
X0305*
X02783Y01508D02*
X02828Y01553D01*
X02761Y01486D02*
X02783Y01508D01*
X02695Y0142D02*
X02717Y01442D01*
X02761Y01486*
X02695Y01125D02*
Y0142D01*
X02835Y01405D02*
X0305Y0162D01*
X02835Y0021D02*
Y01405D01*
X02695Y0021D02*
X02835D01*
X03325Y01795D02*
X03335Y01805D01*
X03325Y016D02*
Y01795D01*
X03155Y016D02*
X03325D01*
X01855Y0323D02*
X0315D01*
X03335Y01805D02*
X03775D01*
X0315Y01768D02*
Y01882D01*
Y014D02*
Y01539D01*
Y03205D02*
Y0323D01*
Y0309D02*
Y03205D01*
Y02747D02*
Y02911D01*
Y0309*
Y01539D02*
Y01768D01*
Y01882D02*
Y02747D01*
Y014D02*
X0365D01*
Y008D02*
Y014D01*
X03425Y008D02*
X0365D01*
X0299Y02915D02*
X0305Y02855D01*
Y012D02*
X03425D01*
Y008D02*
Y012D01*
X01855Y0323D02*
Y03325D01*
X0046D02*
X01855D01*
X0046D02*
Y0355D01*
G54D88*
X0Y0D02*
X03775D01*
Y0355*
X0D02*
X03775D01*
X0Y0D02*
Y0355D01*
G54D89*
X0137Y0322D03*
X02353D03*
G54D90*
X01646Y0317D03*
X017Y0327D03*
X01754Y0317D03*
X01807Y0327D03*
X01861Y0317D03*
X01969D03*
X02023Y0327D03*
G54D91*
X01915Y0327D03*
X02077Y0317D03*
G54D92*
X0291Y03345D03*
X03106D03*
G54D93*
X02861Y03303D03*
X03155D03*
G54D94*
X02855Y03453D03*
X0316D03*
G54D95*
X003Y01574D03*
Y02907D03*
G54D96*
X03375Y0105D03*
Y0115D03*
Y0135D03*
Y0125D03*
Y0155D03*
Y0165D03*
Y0175D03*
Y0195D03*
Y0185D03*
Y0215D03*
Y0235D03*
Y0205D03*
Y0225D03*
Y0145D03*
Y0095D03*
X03275Y0255D03*
Y0225D03*
Y0235D03*
Y0245D03*
Y0215D03*
Y0195D03*
Y0305D03*
Y0295D03*
Y0275D03*
Y0265D03*
Y0285D03*
Y0205D03*
X03375Y0055D03*
Y0085D03*
Y0065D03*
X03275Y0075D03*
Y0065D03*
X03375Y0075D03*
X03275Y0055D03*
Y0085D03*
Y0105D03*
Y0115D03*
Y0125D03*
Y0135D03*
Y0145D03*
Y0155D03*
Y0175D03*
Y0185D03*
Y0095D03*
Y0165D03*
X03375Y0265D03*
Y0255D03*
Y0285D03*
Y0245D03*
Y0305D03*
Y0275D03*
Y0295D03*
X03575Y0105D03*
Y0115D03*
Y0135D03*
Y0125D03*
Y0155D03*
Y0165D03*
Y0195D03*
Y0215D03*
Y0235D03*
Y0205D03*
Y0225D03*
Y0145D03*
Y0095D03*
X03475Y0255D03*
Y0225D03*
Y0235D03*
Y0245D03*
Y0215D03*
Y0195D03*
Y0305D03*
Y0295D03*
Y0275D03*
Y0265D03*
Y0285D03*
Y0205D03*
X03575Y0055D03*
Y0065D03*
X03475Y0075D03*
Y0065D03*
X03575Y0075D03*
X03475Y0055D03*
Y0105D03*
Y0115D03*
Y0125D03*
Y0135D03*
Y0145D03*
Y0155D03*
Y0095D03*
Y0165D03*
X03575Y0265D03*
Y0255D03*
Y0285D03*
Y0245D03*
Y0305D03*
Y0275D03*
Y0295D03*
G54D97*
X03575Y0175D03*
Y0185D03*
Y0085D03*
X03475D03*
Y0175D03*
Y0185D03*
G54D98*
X0361Y00185D03*
X03575Y0332D03*
X0018Y0327D03*
X002Y0035D03*
G54D99*
X00653Y01664D03*
X00954Y01882D03*
X02537Y00787D03*
X02464Y0085D03*
X02367Y0064D03*
X0015Y00152D03*
Y01052D03*
Y02852D03*
X00225Y03002D03*
X0015Y03452D03*
X003Y00152D03*
X00375Y00302D03*
X003Y02552D03*
Y02852D03*
X00375Y03002D03*
X003Y03152D03*
X0045Y00152D03*
Y00452D03*
X00525Y01802D03*
X0045Y02852D03*
Y03152D03*
Y03452D03*
X006Y03152D03*
Y03452D03*
X00825Y00602D03*
X0075Y00752D03*
X00825Y01802D03*
X0075Y02252D03*
Y02552D03*
Y03452D03*
X00975Y00602D03*
X009Y01652D03*
Y02552D03*
Y03152D03*
X00975Y03302D03*
X009Y03452D03*
X0105Y00152D03*
X01125Y00302D03*
X012Y00152D03*
X01275Y00302D03*
X012Y01652D03*
Y03452D03*
X0135Y00152D03*
Y01652D03*
Y02552D03*
Y03452D03*
X015Y00152D03*
X01575Y00302D03*
X015Y00452D03*
Y03152D03*
Y03452D03*
X0165Y00152D03*
X01725Y01502D03*
X0165Y01652D03*
Y02552D03*
Y03452D03*
X018Y00152D03*
X01875Y00302D03*
X018Y01652D03*
X01875Y01802D03*
X018Y03452D03*
X0195Y00152D03*
X02025Y03002D03*
X0195Y03452D03*
X021Y00152D03*
X02175Y00302D03*
Y03302D03*
X021Y03452D03*
X0225Y00152D03*
Y02552D03*
Y03452D03*
X024Y00152D03*
X02475Y01202D03*
Y03002D03*
Y03302D03*
X024Y03452D03*
X0255Y00152D03*
Y01652D03*
Y02852D03*
Y03152D03*
Y03452D03*
X027Y00752D03*
Y02852D03*
Y03152D03*
X02775Y03302D03*
X027Y03452D03*
X0285Y01052D03*
X02925Y01202D03*
Y01502D03*
X0285Y02252D03*
Y02852D03*
X03Y00152D03*
Y01352D03*
X03075Y01502D03*
Y01802D03*
Y02102D03*
X03Y02252D03*
X03075Y02402D03*
X03Y02552D03*
X03075Y02702D03*
X03Y02852D03*
X03075Y03002D03*
X03Y03452D03*
X0315Y00152D03*
X03225Y00302D03*
Y00602D03*
Y00902D03*
Y01202D03*
X0315Y01352D03*
X03225Y01502D03*
Y02102D03*
X0315Y02252D03*
X03225Y02402D03*
X0315Y02552D03*
X03225Y02702D03*
X0315Y02852D03*
X03225Y03002D03*
Y03302D03*
X033Y00152D03*
X03375Y00302D03*
X033Y00452D03*
X03375Y00602D03*
Y00902D03*
Y01202D03*
Y01502D03*
Y02102D03*
Y02402D03*
Y02702D03*
Y03002D03*
Y03302D03*
X033Y03452D03*
X0345Y00152D03*
Y00452D03*
X03525Y00602D03*
Y01202D03*
Y01502D03*
Y02102D03*
Y02402D03*
Y02702D03*
Y03002D03*
X0345Y03452D03*
X036Y00452D03*
X03675Y00602D03*
Y00902D03*
Y01202D03*
Y01502D03*
Y02102D03*
Y02402D03*
Y02702D03*
Y03002D03*
X00519Y00902D03*
X0142Y02703D03*
X0075Y02867D03*
X009D03*
X02925Y03002D03*
X02625D03*
X0345Y03152D03*
X033D03*
X02775Y03002D03*
X0315Y03152D03*
X036D03*
X0285D03*
X03D03*
X0225D03*
X00652Y02745D03*
X00779Y02768D03*
X00579Y02404D03*
X02096Y00555D03*
X01464Y00825D03*
X01018Y01542D03*
X00866Y01424D03*
X02931Y02922D03*
X0292Y01423D03*
X01052Y00063D03*
X01683Y00902D03*
X0133Y00901D03*
X016Y00898D03*
X01294Y00721D03*
X01474Y00507D03*
X01179Y02954D03*
X01223Y02971D03*
X0255Y02632D03*
X02673Y00429D03*
X01108Y03372D03*
X01128Y03244D03*
X00411Y0062D03*
X02214Y01628D03*
X01732Y01186D03*
X01453Y01179D03*
X00874Y01189D03*
X00151Y01496D03*
X00262Y00988D03*
X00146Y00858D03*
X00776Y0166D03*
X00745Y00586D03*
X01175Y0051D03*
X01366Y00411D03*
X01988Y00705D03*
X01538Y01625D03*
X00431Y00722D03*
X00901Y01251D03*
X02068Y00687D03*
X00616Y00488D03*
X0059Y01334D03*
X00487Y01331D03*
X0059Y01186D03*
X00728Y0091D03*
X00589Y00899D03*
X00477Y00942D03*
X00301Y02734D03*
X00981Y01322D03*
X01373D03*
X01806Y01319D03*
X01537Y02303D03*
X01413Y023D03*
X0133Y02644D03*
X01221Y02544D03*
X01259Y02296D03*
X01224Y02177D03*
X01023Y02522D03*
X01034Y02487D03*
X01092Y02462D03*
X01153Y02606D03*
X00586Y02625D03*
X0203Y02597D03*
X02351Y02061D03*
X02504Y02502D03*
X02615Y02019D03*
X02917Y01976D03*
X02088Y01619D03*
X02216Y01719D03*
X02303Y01626D03*
X01449Y02693D03*
X00848Y01769D03*
X00698Y01715D03*
X00484Y01179D03*
X01148Y02687D03*
X02475Y02776D03*
X02407Y0242D03*
X02426Y02845D03*
X02384Y02909D03*
X02342Y0273D03*
X00298Y02129D03*
X02562Y00341D03*
X02364Y00343D03*
X02665Y02176D03*
X02903Y00816D03*
X02332Y00916D03*
X0164Y01178D03*
X0134Y00611D03*
X01029Y00556D03*
X01654Y00512D03*
X02363Y01575D03*
X02512Y01706D03*
X02453Y01762D03*
X02706Y01694D03*
X0238Y01812D03*
X02377Y01873D03*
X02418Y01905D03*
X02106Y02426D03*
X0215Y02452D03*
X02188Y02478D03*
X01484Y02429D03*
X01534Y02466D03*
X01584Y02502D03*
X01695Y02578D03*
X02189Y02537D03*
X0108Y02203D03*
X01028Y02249D03*
X0108Y02123D03*
X0123Y02249D03*
X01652Y02224D03*
X0159D03*
X01682Y02224D03*
X00789Y02246D03*
X01451Y02086D03*
X01732Y02627D03*
X01922Y01963D03*
X01956Y01978D03*
X02405Y0233D03*
X02361Y02321D03*
X02522Y0268D03*
X01294Y02752D03*
X0119Y00937D03*
X01191Y01175D03*
X00788Y00991D03*
X00889Y00913D03*
X01083Y01179D03*
X01229Y0118D03*
X00877Y0155D03*
X0135Y01591D03*
X01792Y01592D03*
X0041Y00857D03*
X02336Y01254D03*
X02389Y01278D03*
X02318Y0095D03*
X02271Y00946D03*
X02269Y00997D03*
X02504Y0097D03*
X02449Y00942D03*
X02471Y00894D03*
X01834Y00981D03*
X01574Y00812D03*
X01624Y00814D03*
X01525Y00811D03*
X0118Y00464D03*
X01259Y00434D03*
X01772Y00551D03*
X01607Y01188D03*
X0178Y01252D03*
X01781Y01187D03*
X01687Y01189D03*
X01636Y01325D03*
X0203Y0132D03*
X0208Y01319D03*
X01708Y00508D03*
X01276Y01193D03*
X01337Y01251D03*
X01334Y01177D03*
X00777Y01185D03*
X00902Y0117D03*
X00731Y01186D03*
Y01325D03*
X00777Y01328D03*
X01157Y01334D03*
X01207Y01336D03*
X01704Y00358D03*
X01671Y00409D03*
X01772Y00275D03*
X01588Y01326D03*
X01849Y00334D03*
X01831Y00385D03*
X00765Y01726D03*
X00864Y01901D03*
X0032Y01249D03*
X0037Y01218D03*
X00272Y01286D03*
X0196Y01285D03*
X0192Y0125D03*
X01953Y01219D03*
X00484Y0125D03*
X02165Y01063D03*
X02281Y02626D03*
X00321Y00556D03*
X00413Y01151D03*
X00408Y01376D03*
X003Y01691D03*
X00301Y01768D03*
X00598Y0204D03*
X00298Y02049D03*
X00299Y02202D03*
X00293Y02281D03*
Y02439D03*
X003Y02575D03*
X00298Y02664D03*
X00766Y03279D03*
X00361Y00937D03*
X0151Y02039D03*
X03045Y00413D03*
X02679Y00636D03*
X02562Y00638D03*
X02166Y006D03*
X02842Y00308D03*
X02808Y00282D03*
X00766Y01938D03*
X01136Y02087D03*
X00739Y01963D03*
X01124Y02116D03*
X01235Y02364D03*
X01068Y02412D03*
X00101Y01617D03*
X00159Y01602D03*
X01283Y01674D03*
X01171Y01631D03*
X02166Y00384D03*
X01708Y02177D03*
X01625Y02194D03*
X01566Y02114D03*
X01578Y02147D03*
X02781Y01226D03*
X01381Y02951D03*
X01412Y02873D03*
X01276Y02339D03*
X02298Y018D03*
X01922Y02221D03*
Y02144D03*
X02748Y0152D03*
X00365Y01002D03*
X00726Y02127D03*
X00582Y02218D03*
X00704Y0209D03*
X00505Y01965D03*
X00562Y01956D03*
X0029Y01926D03*
X00499Y02154D03*
X00768Y02155D03*
X004Y0212D03*
X00873Y02203D03*
X00904Y02173D03*
X005Y02192D03*
X0029Y01847D03*
X00635Y02905D03*
X02809Y00661D03*
X0287Y00241D03*
X01707Y02896D03*
X01765Y02871D03*
X01701Y02748D03*
X03072Y00534D03*
X02946Y00498D03*
X02783Y00635D03*
X0278Y01689D03*
X02815Y01718D03*
X02819Y01976D03*
X0272Y02214D03*
X00713Y03D03*
X00522Y02968D03*
X0057Y02905D03*
X00747Y02611D03*
X00895Y02662D03*
X0085Y02681D03*
X00831Y02761D03*
X02556Y02391D03*
X02757Y02326D03*
X01255Y0275D03*
X003Y0279D03*
X00516Y02792D03*
X00296Y02083D03*
X00289Y02239D03*
X00497Y01847D03*
X00294Y02475D03*
X00622Y02588D03*
X00494Y02475D03*
X00704Y02624D03*
G54D100*
X0199Y02955D03*
X01772Y00684D03*
X02172Y03014D03*
X01096Y03483D03*
X03346Y03312D03*
X00591Y01529D03*
X00613Y00745D03*
X01863Y0284D03*
X0041Y01085D03*
X01192Y00992D03*
X02089Y01182D03*
X01976Y00273D03*
X02023Y00271D03*
X02059Y00351D03*
X01936Y00401D03*
X01893Y00592D03*
X01797Y00597D03*
X01778Y00829D03*
X01032Y02306D03*
X00826Y02546D03*
X01927Y02507D03*
X0259Y0336D03*
X01235Y03248D03*
X0101Y02939D03*
X01117Y01679D03*
X01122Y01802D03*
X0133Y01818D03*
X0246Y00439D03*
X02463Y0054D03*
X02852Y00475D03*
X02917Y03298D03*
X02964Y00775D03*
X01022Y00183D03*
X00852Y00073D03*
X00955Y00073D03*
X01028Y02871D03*
X00948Y00661D03*
X02087Y00851D03*
X01747Y02072D03*
X0174Y0254D03*
X01963Y01925D03*
X0153Y0275D03*
X02395Y01169D03*
X02165Y0081D03*
X0231Y01134D03*
X0181Y01805D03*
X01325Y0028D03*
X01409Y00267D03*
X00976Y03241D03*
X01368Y0192D03*
X00899Y02059D03*
X00798Y02017D03*
X0052Y0177D03*
X01423Y01919D03*
X0174Y02317D03*
X0302Y00875D03*
X0192Y02305D03*
X0194Y0205D03*
X00792Y02305D03*
X02758Y00814D03*
X0335Y00155D03*
X02251Y00405D03*
X01315Y02919D03*
X0174Y0272D03*
X0297Y0279D03*
X0155Y02919D03*
X0297Y0249D03*
X01315Y02865D03*
X003Y02002D03*
X005Y02319D03*
X0155Y01895D03*
X01395Y0175D03*
X01615Y02035D03*
X0169Y0179D03*
X0163D03*
X00095Y0216D03*
X003Y0232D03*
X00455Y03015D03*
X02251Y0054D03*
X00133Y01344D03*
X00095Y00535D03*
X02252Y00469D03*
X02465Y0049D03*
X00285Y03435D03*
X00394Y03361D03*
X00375Y03285D03*
X0008Y0177D03*
X0072Y03055D03*
X00765Y03095D03*
X02675Y0018D03*
X0292Y0011D03*
Y0017D03*
X0299Y00389D03*
X03008Y0069D03*
X02975Y0259D03*
X0369Y0206D03*
Y01585D03*
X02678Y00477D03*
X01075Y00368D03*
X00235Y00095D03*
M02*