G04*
G04 #@! TF.GenerationSoftware,Altium Limited,Altium Designer,21.8.1 (53)*
G04*
G04 Layer_Color=8421504*
%FSLAX25Y25*%
%MOIN*%
G70*
G04*
G04 #@! TF.SameCoordinates,C3BC6F45-041D-44BD-81EA-7FCEF9ED4BC6*
G04*
G04*
G04 #@! TF.FilePolarity,Positive*
G04*
G01*
G75*
%ADD15R,0.06299X0.03150*%
%ADD16R,0.11811X0.08268*%
%ADD17R,0.07480X0.07480*%
%ADD18R,0.05315X0.01575*%
%ADD19R,0.03937X0.03740*%
%ADD20R,0.03740X0.03937*%
%ADD21R,0.01100X0.05350*%
%ADD22R,0.03543X0.03150*%
%ADD23R,0.03150X0.03543*%
%ADD24R,0.03150X0.03150*%
%ADD25R,0.05350X0.01100*%
%ADD26R,0.06693X0.05906*%
%ADD27R,0.03150X0.03150*%
D15*
X272251Y78703D02*
D03*
Y73782D02*
D03*
Y68861D02*
D03*
Y59018D02*
D03*
Y54097D02*
D03*
Y63939D02*
D03*
X23500Y64936D02*
D03*
Y69858D02*
D03*
Y74779D02*
D03*
Y79700D02*
D03*
Y84621D02*
D03*
Y89543D02*
D03*
Y94464D02*
D03*
Y99385D02*
D03*
Y104306D02*
D03*
Y109228D02*
D03*
Y114149D02*
D03*
Y119070D02*
D03*
Y123991D02*
D03*
Y128913D02*
D03*
D16*
X283668Y88743D02*
D03*
Y44058D02*
D03*
X12083Y54897D02*
D03*
Y138952D02*
D03*
D17*
X289900Y163651D02*
D03*
Y152824D02*
D03*
Y143376D02*
D03*
Y132549D02*
D03*
D18*
X279368Y153218D02*
D03*
Y150659D02*
D03*
Y148100D02*
D03*
Y145541D02*
D03*
Y142982D02*
D03*
D19*
X213440Y58556D02*
D03*
Y53438D02*
D03*
X110100Y108141D02*
D03*
X174700Y155059D02*
D03*
X128795Y154028D02*
D03*
X101900Y80441D02*
D03*
X127810Y39658D02*
D03*
X98283Y22926D02*
D03*
X72692Y91036D02*
D03*
X55960Y36705D02*
D03*
X150448Y39658D02*
D03*
X173700Y39941D02*
D03*
X207535Y29028D02*
D03*
X154800Y155359D02*
D03*
X140605Y172729D02*
D03*
X106157Y147926D02*
D03*
X234600Y121259D02*
D03*
X75645Y155516D02*
D03*
X107141Y46745D02*
D03*
X102220Y58359D02*
D03*
X62850Y122532D02*
D03*
X64818Y140249D02*
D03*
Y135131D02*
D03*
X62850Y117414D02*
D03*
X102220Y63477D02*
D03*
X107141Y41627D02*
D03*
X75645Y160634D02*
D03*
X234600Y116141D02*
D03*
X106157Y153044D02*
D03*
X140605Y167611D02*
D03*
X154800Y150241D02*
D03*
X207535Y23910D02*
D03*
X173700Y45059D02*
D03*
X150448Y44776D02*
D03*
X55960Y41824D02*
D03*
X72692Y85918D02*
D03*
X98283Y28044D02*
D03*
X127810Y44776D02*
D03*
X101900Y85559D02*
D03*
X128795Y148910D02*
D03*
X174700Y149941D02*
D03*
X110100Y113259D02*
D03*
D20*
X214741Y77100D02*
D03*
X219859D02*
D03*
X105566Y121942D02*
D03*
X105341Y99700D02*
D03*
X69346Y59934D02*
D03*
X219359Y132100D02*
D03*
X218959Y106600D02*
D03*
X144149Y10221D02*
D03*
X139031D02*
D03*
X213841Y106600D02*
D03*
X214241Y132100D02*
D03*
X64228Y59934D02*
D03*
X110459Y99700D02*
D03*
X110684Y121942D02*
D03*
D21*
X141590Y139760D02*
D03*
X127810Y54910D02*
D03*
X149464D02*
D03*
X169149D02*
D03*
X194739D02*
D03*
X175054Y139760D02*
D03*
X157338D02*
D03*
X131747D02*
D03*
X127810D02*
D03*
X129779D02*
D03*
X133716D02*
D03*
X135684D02*
D03*
X137653D02*
D03*
X139621D02*
D03*
X143558D02*
D03*
X145527D02*
D03*
X147495D02*
D03*
X149464D02*
D03*
X151432D02*
D03*
X153401D02*
D03*
X155369D02*
D03*
X159306D02*
D03*
X161275D02*
D03*
X163243D02*
D03*
X165212D02*
D03*
X167180D02*
D03*
X169149D02*
D03*
X171117D02*
D03*
X173086D02*
D03*
X177023D02*
D03*
X178991D02*
D03*
X180960D02*
D03*
X182928D02*
D03*
X184897D02*
D03*
X186865D02*
D03*
X188834D02*
D03*
X190802D02*
D03*
X192771D02*
D03*
X194739D02*
D03*
X196708D02*
D03*
Y54910D02*
D03*
X192771D02*
D03*
X190802D02*
D03*
X188834D02*
D03*
X186865D02*
D03*
X184897D02*
D03*
X182928D02*
D03*
X180960D02*
D03*
X178991D02*
D03*
X177023D02*
D03*
X175054D02*
D03*
X173086D02*
D03*
X171117D02*
D03*
X167180D02*
D03*
X165212D02*
D03*
X163243D02*
D03*
X161275D02*
D03*
X159306D02*
D03*
X157338D02*
D03*
X155369D02*
D03*
X153401D02*
D03*
X151432D02*
D03*
X147495D02*
D03*
X145527D02*
D03*
X143558D02*
D03*
X141590D02*
D03*
X139621D02*
D03*
X137653D02*
D03*
X135684D02*
D03*
X133716D02*
D03*
X131747D02*
D03*
X129779D02*
D03*
D22*
X54976Y155319D02*
D03*
X75645Y131981D02*
D03*
X44149Y141430D02*
D03*
X42180Y122729D02*
D03*
X116900Y8244D02*
D03*
X43165Y76863D02*
D03*
X85487Y47926D02*
D03*
X79582Y57178D02*
D03*
X76629Y22729D02*
D03*
X185881Y30209D02*
D03*
X118100Y173756D02*
D03*
Y168244D02*
D03*
X185881Y24698D02*
D03*
X76629Y28241D02*
D03*
X79582Y62690D02*
D03*
X85487Y42414D02*
D03*
X43165Y82375D02*
D03*
X54976Y81391D02*
D03*
Y75879D02*
D03*
X116900Y13756D02*
D03*
X42180Y117217D02*
D03*
X44149Y135918D02*
D03*
X75645Y137493D02*
D03*
X54976Y160831D02*
D03*
D23*
X50156Y90500D02*
D03*
X256956Y125500D02*
D03*
X57731Y135721D02*
D03*
X52220D02*
D03*
X94149Y62887D02*
D03*
X88637D02*
D03*
X99070Y42217D02*
D03*
X93558D02*
D03*
X68558Y161028D02*
D03*
X63046D02*
D03*
X99070Y152453D02*
D03*
X93558D02*
D03*
X127044Y167400D02*
D03*
X132556D02*
D03*
X210291Y151469D02*
D03*
X204779D02*
D03*
X227556Y90100D02*
D03*
X222044D02*
D03*
X226056Y98000D02*
D03*
X220544D02*
D03*
X247256Y117000D02*
D03*
X241744D02*
D03*
X251444Y125500D02*
D03*
X194149Y24501D02*
D03*
X199661D02*
D03*
X50251Y50091D02*
D03*
X55763D02*
D03*
X84700Y28438D02*
D03*
X90212D02*
D03*
X44644Y90500D02*
D03*
X124857Y13174D02*
D03*
X130369D02*
D03*
X50251Y117020D02*
D03*
X55763D02*
D03*
D24*
X235100Y83252D02*
D03*
X236200Y103848D02*
D03*
Y97352D02*
D03*
X235100Y89748D02*
D03*
D25*
X119834Y102257D02*
D03*
X204684Y82572D02*
D03*
Y104225D02*
D03*
Y129816D02*
D03*
Y131784D02*
D03*
Y127847D02*
D03*
Y125879D02*
D03*
Y123910D02*
D03*
Y121942D02*
D03*
Y119973D02*
D03*
Y118005D02*
D03*
Y116036D02*
D03*
Y114068D02*
D03*
Y112099D02*
D03*
Y110131D02*
D03*
Y108162D02*
D03*
Y106194D02*
D03*
Y102257D02*
D03*
Y100288D02*
D03*
Y98320D02*
D03*
Y96351D02*
D03*
Y94383D02*
D03*
Y92414D02*
D03*
Y90446D02*
D03*
Y88477D02*
D03*
Y86509D02*
D03*
Y84540D02*
D03*
Y80603D02*
D03*
Y78635D02*
D03*
Y76666D02*
D03*
Y74698D02*
D03*
Y72729D02*
D03*
Y70761D02*
D03*
Y68792D02*
D03*
Y66824D02*
D03*
Y64855D02*
D03*
Y62887D02*
D03*
X119834D02*
D03*
Y64855D02*
D03*
Y66824D02*
D03*
Y68792D02*
D03*
Y70761D02*
D03*
Y72729D02*
D03*
Y74698D02*
D03*
Y76666D02*
D03*
Y78635D02*
D03*
Y80603D02*
D03*
Y82572D02*
D03*
Y84540D02*
D03*
Y86509D02*
D03*
Y88477D02*
D03*
Y90446D02*
D03*
Y92414D02*
D03*
Y94383D02*
D03*
Y96351D02*
D03*
Y98320D02*
D03*
Y100288D02*
D03*
Y104225D02*
D03*
Y106194D02*
D03*
Y108162D02*
D03*
Y110131D02*
D03*
Y112099D02*
D03*
Y114068D02*
D03*
Y116036D02*
D03*
Y118005D02*
D03*
Y119973D02*
D03*
Y121942D02*
D03*
Y123910D02*
D03*
Y125879D02*
D03*
Y127847D02*
D03*
Y129816D02*
D03*
Y131784D02*
D03*
D26*
X92456Y77257D02*
D03*
X82456D02*
D03*
X92456Y85918D02*
D03*
X82456D02*
D03*
D27*
X210783Y159343D02*
D03*
X204287D02*
D03*
M02*
