G04*
G04 #@! TF.GenerationSoftware,Altium Limited,Altium Designer,21.8.1 (53)*
G04*
G04 Layer_Physical_Order=4*
G04 Layer_Color=16711680*
%FSLAX25Y25*%
%MOIN*%
G70*
G04*
G04 #@! TF.SameCoordinates,C3BC6F45-041D-44BD-81EA-7FCEF9ED4BC6*
G04*
G04*
G04 #@! TF.FilePolarity,Positive*
G04*
G01*
G75*
%ADD41C,0.01181*%
%ADD44C,0.02165*%
%ADD45C,0.05394*%
%ADD46R,0.05394X0.05394*%
%ADD47R,0.05394X0.05394*%
%ADD48C,0.01968*%
%ADD49C,0.02000*%
%ADD50C,0.02362*%
G36*
X295276Y0D02*
X0D01*
Y192913D01*
X295276D01*
Y0D01*
D02*
G37*
%LPC*%
G36*
X196224Y183706D02*
Y180513D01*
X199417D01*
X199169Y181439D01*
X198682Y182282D01*
X197994Y182971D01*
X197151Y183458D01*
X196224Y183706D01*
D02*
G37*
G36*
X195224D02*
X194297Y183458D01*
X193454Y182971D01*
X192765Y182282D01*
X192279Y181439D01*
X192030Y180513D01*
X195224D01*
Y183706D01*
D02*
G37*
G36*
X219220Y183509D02*
X212227D01*
Y176516D01*
X219220D01*
Y183509D01*
D02*
G37*
G36*
X206184D02*
X205263D01*
X204374Y183271D01*
X203576Y182811D01*
X202925Y182160D01*
X202465Y181362D01*
X202227Y180473D01*
Y179552D01*
X202465Y178663D01*
X202925Y177866D01*
X203576Y177214D01*
X204374Y176754D01*
X205263Y176516D01*
X206184D01*
X207073Y176754D01*
X207871Y177214D01*
X208522Y177866D01*
X208982Y178663D01*
X209221Y179552D01*
Y180473D01*
X208982Y181362D01*
X208522Y182160D01*
X207871Y182811D01*
X207073Y183271D01*
X206184Y183509D01*
D02*
G37*
G36*
X186184D02*
X185263D01*
X184374Y183271D01*
X183577Y182811D01*
X182925Y182160D01*
X182465Y181362D01*
X182227Y180473D01*
Y179552D01*
X182465Y178663D01*
X182925Y177866D01*
X183577Y177214D01*
X184374Y176754D01*
X185263Y176516D01*
X186184D01*
X187073Y176754D01*
X187871Y177214D01*
X188522Y177866D01*
X188982Y178663D01*
X189220Y179552D01*
Y180473D01*
X188982Y181362D01*
X188522Y182160D01*
X187871Y182811D01*
X187073Y183271D01*
X186184Y183509D01*
D02*
G37*
G36*
X176184D02*
X175263D01*
X174374Y183271D01*
X173576Y182811D01*
X172925Y182160D01*
X172465Y181362D01*
X172227Y180473D01*
Y179552D01*
X172465Y178663D01*
X172925Y177866D01*
X173576Y177214D01*
X174374Y176754D01*
X175263Y176516D01*
X176184D01*
X177073Y176754D01*
X177871Y177214D01*
X178522Y177866D01*
X178982Y178663D01*
X179220Y179552D01*
Y180473D01*
X178982Y181362D01*
X178522Y182160D01*
X177871Y182811D01*
X177073Y183271D01*
X176184Y183509D01*
D02*
G37*
G36*
X166184D02*
X165263D01*
X164374Y183271D01*
X163576Y182811D01*
X162926Y182160D01*
X162465Y181362D01*
X162227Y180473D01*
Y179552D01*
X162465Y178663D01*
X162926Y177866D01*
X163576Y177214D01*
X164374Y176754D01*
X165263Y176516D01*
X166184D01*
X167073Y176754D01*
X167871Y177214D01*
X168522Y177866D01*
X168982Y178663D01*
X169220Y179552D01*
Y180473D01*
X168982Y181362D01*
X168522Y182160D01*
X167871Y182811D01*
X167073Y183271D01*
X166184Y183509D01*
D02*
G37*
G36*
X199417Y179513D02*
X196224D01*
Y176319D01*
X197151Y176568D01*
X197994Y177054D01*
X198682Y177743D01*
X199169Y178586D01*
X199417Y179513D01*
D02*
G37*
G36*
X195224D02*
X192030D01*
X192279Y178586D01*
X192765Y177743D01*
X193454Y177054D01*
X194297Y176568D01*
X195224Y176319D01*
Y179513D01*
D02*
G37*
G36*
X159458Y168100D02*
X158742D01*
X158080Y167826D01*
X157574Y167320D01*
X157300Y166658D01*
Y165942D01*
X157574Y165280D01*
X158080Y164774D01*
X158742Y164500D01*
X158895D01*
X161882Y161513D01*
Y158928D01*
X161774Y158820D01*
X161500Y158158D01*
Y157442D01*
X161774Y156780D01*
X162280Y156274D01*
X162942Y156000D01*
X163658D01*
X164320Y156274D01*
X164826Y156780D01*
X165100Y157442D01*
Y158158D01*
X164826Y158820D01*
X164718Y158928D01*
Y162100D01*
X164610Y162643D01*
X164303Y163102D01*
X160900Y166505D01*
Y166658D01*
X160626Y167320D01*
X160120Y167826D01*
X159458Y168100D01*
D02*
G37*
G36*
X146869Y172954D02*
X146153D01*
X145491Y172680D01*
X144985Y172174D01*
X144711Y171512D01*
Y170796D01*
X144985Y170135D01*
X145093Y170027D01*
Y162687D01*
X141007Y158600D01*
X140642D01*
X139980Y158326D01*
X139474Y157820D01*
X139200Y157158D01*
Y156442D01*
X139474Y155780D01*
X139980Y155274D01*
X140642Y155000D01*
X141358D01*
X142020Y155274D01*
X142526Y155780D01*
X142758Y156342D01*
X147514Y161097D01*
X147821Y161557D01*
X147929Y162099D01*
Y170027D01*
X148037Y170135D01*
X148311Y170796D01*
Y171512D01*
X148037Y172174D01*
X147531Y172680D01*
X146869Y172954D01*
D02*
G37*
G36*
X281810Y157857D02*
X281061D01*
X280369Y157570D01*
X279839Y157041D01*
X279553Y156349D01*
Y155599D01*
X279839Y154908D01*
X280369Y154378D01*
X281061Y154091D01*
X281810D01*
X282502Y154378D01*
X283032Y154908D01*
X283318Y155599D01*
Y156349D01*
X283032Y157041D01*
X282502Y157570D01*
X281810Y157857D01*
D02*
G37*
G36*
X146494Y152781D02*
X145706D01*
X144978Y152480D01*
X144421Y151922D01*
X144119Y151194D01*
Y150406D01*
X144421Y149678D01*
X144978Y149120D01*
X145706Y148819D01*
X146494D01*
X147222Y149120D01*
X147780Y149678D01*
X148081Y150406D01*
Y151194D01*
X147780Y151922D01*
X147222Y152480D01*
X146494Y152781D01*
D02*
G37*
G36*
X168158Y151700D02*
X167442D01*
X166780Y151426D01*
X166274Y150920D01*
X166000Y150258D01*
Y149542D01*
X166274Y148880D01*
X166780Y148374D01*
X167442Y148100D01*
X168158D01*
X168820Y148374D01*
X169326Y148880D01*
X169600Y149542D01*
Y150258D01*
X169326Y150920D01*
X168820Y151426D01*
X168158Y151700D01*
D02*
G37*
G36*
X136694Y150781D02*
X135906D01*
X135178Y150479D01*
X134620Y149922D01*
X134319Y149194D01*
Y148406D01*
X134620Y147678D01*
X135178Y147120D01*
X135906Y146819D01*
X136694D01*
X137422Y147120D01*
X137979Y147678D01*
X138281Y148406D01*
Y149194D01*
X137979Y149922D01*
X137422Y150479D01*
X136694Y150781D01*
D02*
G37*
G36*
X221758Y149700D02*
X221042D01*
X220380Y149426D01*
X219874Y148920D01*
X219600Y148258D01*
Y147542D01*
X219874Y146880D01*
X220380Y146374D01*
X221042Y146100D01*
X221758D01*
X222420Y146374D01*
X222926Y146880D01*
X223200Y147542D01*
Y148258D01*
X222926Y148920D01*
X222420Y149426D01*
X221758Y149700D01*
D02*
G37*
G36*
X281810Y142109D02*
X281061D01*
X280369Y141822D01*
X279839Y141292D01*
X279553Y140601D01*
Y139851D01*
X279839Y139160D01*
X280369Y138630D01*
X281061Y138343D01*
X281810D01*
X282502Y138630D01*
X283032Y139160D01*
X283318Y139851D01*
Y140601D01*
X283032Y141292D01*
X282502Y141822D01*
X281810Y142109D01*
D02*
G37*
G36*
X269058Y139900D02*
X268342D01*
X267680Y139626D01*
X267174Y139120D01*
X266900Y138458D01*
Y137742D01*
X267174Y137080D01*
X267680Y136574D01*
X268342Y136300D01*
X269058D01*
X269720Y136574D01*
X270226Y137080D01*
X270500Y137742D01*
Y138458D01*
X270226Y139120D01*
X269720Y139626D01*
X269058Y139900D01*
D02*
G37*
G36*
X148461Y183418D02*
X99700D01*
X99157Y183310D01*
X98698Y183002D01*
X80548Y164853D01*
X80240Y164393D01*
X80133Y163850D01*
Y120938D01*
X64838Y105643D01*
X53151D01*
X53042Y105751D01*
X52381Y106025D01*
X51665D01*
X51003Y105751D01*
X50497Y105245D01*
X50223Y104583D01*
Y103867D01*
X50497Y103206D01*
X50985Y102718D01*
X50980Y102620D01*
X50859Y102218D01*
X41400D01*
X40857Y102110D01*
X40398Y101803D01*
X38795Y100200D01*
X38642D01*
X37980Y99926D01*
X37474Y99420D01*
X37200Y98758D01*
Y98042D01*
X37474Y97380D01*
X37980Y96874D01*
X38642Y96600D01*
X39358D01*
X40020Y96874D01*
X40526Y97380D01*
X40800Y98042D01*
Y98195D01*
X41987Y99382D01*
X46183D01*
X46312Y99085D01*
X46337Y98882D01*
X45874Y98420D01*
X45600Y97758D01*
Y97042D01*
X45874Y96380D01*
X46380Y95874D01*
X47042Y95600D01*
X47758D01*
X48420Y95874D01*
X48463Y95918D01*
X69739D01*
X70282Y96026D01*
X70742Y96333D01*
X85506Y111097D01*
X85538Y111145D01*
X86038Y110994D01*
Y102344D01*
X86146Y101802D01*
X86453Y101342D01*
X93431Y94364D01*
X93479Y94332D01*
X93327Y93832D01*
X92073D01*
X86300Y99605D01*
Y99758D01*
X86026Y100420D01*
X85520Y100926D01*
X84858Y101200D01*
X84142D01*
X83480Y100926D01*
X82974Y100420D01*
X82700Y99758D01*
Y99042D01*
X82974Y98380D01*
X83480Y97874D01*
X84142Y97600D01*
X84295D01*
X90483Y91412D01*
X90943Y91104D01*
X91486Y90996D01*
X98799D01*
X105082Y84713D01*
Y81900D01*
X105190Y81357D01*
X105498Y80897D01*
X106189Y80206D01*
X106649Y79898D01*
X106806Y79867D01*
X107548Y79125D01*
X107774Y78580D01*
X108280Y78074D01*
X108942Y77800D01*
X109658D01*
X110320Y78074D01*
X110826Y78580D01*
X111100Y79242D01*
Y79958D01*
X110826Y80620D01*
X110320Y81126D01*
X109658Y81400D01*
X109283D01*
X108473Y82211D01*
X108013Y82518D01*
X107918Y82537D01*
Y83983D01*
X108214Y84111D01*
X108418Y84137D01*
X108880Y83674D01*
X109542Y83400D01*
X110258D01*
X110920Y83674D01*
X111426Y84180D01*
X111700Y84842D01*
Y85558D01*
X111426Y86220D01*
X110920Y86726D01*
X110258Y87000D01*
X110105D01*
X100736Y96369D01*
X100276Y96677D01*
X99733Y96785D01*
X95020D01*
X88874Y102931D01*
Y157869D01*
X109187Y178182D01*
X144368D01*
X151601Y170949D01*
Y170796D01*
X151875Y170135D01*
X152381Y169628D01*
X153043Y169354D01*
X153759D01*
X154420Y169628D01*
X154927Y170135D01*
X155201Y170796D01*
Y171512D01*
X154927Y172174D01*
X154420Y172680D01*
X153759Y172954D01*
X153606D01*
X146440Y180120D01*
X146631Y180582D01*
X147873D01*
X157458Y170998D01*
X157918Y170690D01*
X158461Y170582D01*
X216013D01*
X219482Y167113D01*
Y160100D01*
X219590Y159557D01*
X219898Y159098D01*
X247000Y131995D01*
Y131842D01*
X247274Y131180D01*
X247780Y130674D01*
X248442Y130400D01*
X249158D01*
X249820Y130674D01*
X250326Y131180D01*
X250600Y131842D01*
Y132558D01*
X250326Y133220D01*
X249820Y133726D01*
X249158Y134000D01*
X249005D01*
X222318Y160687D01*
Y167700D01*
X222210Y168243D01*
X221902Y168702D01*
X217602Y173003D01*
X217143Y173310D01*
X216600Y173418D01*
X159048D01*
X149463Y183002D01*
X149003Y183310D01*
X148461Y183418D01*
D02*
G37*
G36*
X109758Y131200D02*
X109042D01*
X108380Y130926D01*
X107874Y130420D01*
X107600Y129758D01*
Y129042D01*
X107874Y128380D01*
X108380Y127874D01*
X109042Y127600D01*
X109758D01*
X110420Y127874D01*
X110926Y128380D01*
X111200Y129042D01*
Y129758D01*
X110926Y130420D01*
X110420Y130926D01*
X109758Y131200D01*
D02*
G37*
G36*
X65176Y130631D02*
X64460D01*
X63798Y130358D01*
X63292Y129851D01*
X63018Y129190D01*
Y128473D01*
X63292Y127812D01*
X63576Y127528D01*
X63665Y127083D01*
X63972Y126623D01*
X71457Y119138D01*
X71300Y118758D01*
Y118042D01*
X71574Y117380D01*
X72080Y116874D01*
X72742Y116600D01*
X73458D01*
X74120Y116874D01*
X74626Y117380D01*
X74900Y118042D01*
Y118758D01*
X74626Y119420D01*
X74354Y119691D01*
X74253Y120199D01*
X73946Y120659D01*
X66476Y128129D01*
X66618Y128473D01*
Y129190D01*
X66344Y129851D01*
X65838Y130358D01*
X65176Y130631D01*
D02*
G37*
G36*
X214658Y115200D02*
X213942D01*
X213280Y114926D01*
X212774Y114420D01*
X212500Y113758D01*
Y113042D01*
X212774Y112380D01*
X213280Y111874D01*
X213942Y111600D01*
X214658D01*
X215320Y111874D01*
X215826Y112380D01*
X216100Y113042D01*
Y113758D01*
X215826Y114420D01*
X215320Y114926D01*
X214658Y115200D01*
D02*
G37*
G36*
X110258Y94600D02*
X109542D01*
X108880Y94326D01*
X108374Y93820D01*
X108100Y93158D01*
Y92442D01*
X108374Y91780D01*
X108880Y91274D01*
X109542Y91000D01*
X110258D01*
X110920Y91274D01*
X111426Y91780D01*
X111700Y92442D01*
Y93158D01*
X111426Y93820D01*
X110920Y94326D01*
X110258Y94600D01*
D02*
G37*
G36*
X249860Y94797D02*
X248940D01*
X248050Y94559D01*
X247253Y94098D01*
X246602Y93447D01*
X246142Y92650D01*
X245903Y91760D01*
Y90840D01*
X246142Y89950D01*
X246602Y89153D01*
X247253Y88502D01*
X248050Y88042D01*
X248940Y87803D01*
X249860D01*
X250750Y88042D01*
X251547Y88502D01*
X252198Y89153D01*
X252659Y89950D01*
X252897Y90840D01*
Y91760D01*
X252659Y92650D01*
X252198Y93447D01*
X251547Y94098D01*
X250750Y94559D01*
X249860Y94797D01*
D02*
G37*
G36*
X215658Y87300D02*
X214942D01*
X214280Y87026D01*
X213774Y86520D01*
X213500Y85858D01*
Y85142D01*
X213774Y84480D01*
X214280Y83974D01*
X214942Y83700D01*
X215658D01*
X216320Y83974D01*
X216826Y84480D01*
X217100Y85142D01*
Y85858D01*
X216826Y86520D01*
X216320Y87026D01*
X215658Y87300D01*
D02*
G37*
G36*
X249860Y84797D02*
X248940D01*
X248050Y84558D01*
X247253Y84098D01*
X246602Y83447D01*
X246142Y82650D01*
X245903Y81760D01*
Y80840D01*
X246142Y79950D01*
X246602Y79153D01*
X247253Y78502D01*
X248050Y78041D01*
X248940Y77803D01*
X249860D01*
X250750Y78041D01*
X251547Y78502D01*
X252198Y79153D01*
X252659Y79950D01*
X252897Y80840D01*
Y81760D01*
X252659Y82650D01*
X252198Y83447D01*
X251547Y84098D01*
X250750Y84558D01*
X249860Y84797D01*
D02*
G37*
G36*
X72158Y78558D02*
X71442D01*
X70780Y78284D01*
X70274Y77778D01*
X70000Y77116D01*
Y76400D01*
X70274Y75739D01*
X70780Y75232D01*
X71442Y74958D01*
X72158D01*
X72820Y75232D01*
X73326Y75739D01*
X73600Y76400D01*
Y77116D01*
X73326Y77778D01*
X72820Y78284D01*
X72158Y78558D01*
D02*
G37*
G36*
X249860Y74797D02*
X248940D01*
X248050Y74559D01*
X247253Y74098D01*
X246602Y73447D01*
X246142Y72650D01*
X245903Y71760D01*
Y70840D01*
X246142Y69950D01*
X246602Y69153D01*
X247253Y68502D01*
X248050Y68041D01*
X248940Y67803D01*
X249860D01*
X250750Y68041D01*
X251547Y68502D01*
X252198Y69153D01*
X252659Y69950D01*
X252897Y70840D01*
Y71760D01*
X252659Y72650D01*
X252198Y73447D01*
X251547Y74098D01*
X250750Y74559D01*
X249860Y74797D01*
D02*
G37*
G36*
X249900Y64993D02*
Y61800D01*
X253093D01*
X252845Y62727D01*
X252358Y63570D01*
X251670Y64258D01*
X250827Y64745D01*
X249900Y64993D01*
D02*
G37*
G36*
X236058Y65400D02*
X235342D01*
X234680Y65126D01*
X234174Y64620D01*
X233900Y63958D01*
Y63242D01*
X234174Y62580D01*
X234680Y62074D01*
X235342Y61800D01*
X236058D01*
X236720Y62074D01*
X237226Y62580D01*
X237500Y63242D01*
Y63958D01*
X237226Y64620D01*
X236720Y65126D01*
X236058Y65400D01*
D02*
G37*
G36*
X248900Y64993D02*
X247973Y64745D01*
X247130Y64258D01*
X246442Y63570D01*
X245955Y62727D01*
X245707Y61800D01*
X248900D01*
Y64993D01*
D02*
G37*
G36*
X253093Y60800D02*
X249900D01*
Y57607D01*
X250827Y57855D01*
X251670Y58342D01*
X252358Y59030D01*
X252845Y59873D01*
X253093Y60800D01*
D02*
G37*
G36*
X248900D02*
X245707D01*
X245955Y59873D01*
X246442Y59030D01*
X247130Y58342D01*
X247973Y57855D01*
X248900Y57607D01*
Y60800D01*
D02*
G37*
G36*
X220658Y59600D02*
X219942D01*
X219280Y59326D01*
X218774Y58820D01*
X218500Y58158D01*
Y57442D01*
X218774Y56780D01*
X219280Y56274D01*
X219942Y56000D01*
X220658D01*
X221320Y56274D01*
X221826Y56780D01*
X222100Y57442D01*
Y58158D01*
X221826Y58820D01*
X221320Y59326D01*
X220658Y59600D01*
D02*
G37*
G36*
X37617Y70592D02*
X36901D01*
X36239Y70318D01*
X35733Y69812D01*
X35459Y69150D01*
Y68434D01*
X35733Y67773D01*
X36239Y67266D01*
X36901Y66992D01*
X36937D01*
X37982Y65947D01*
Y58725D01*
X35429Y56172D01*
X35122Y55712D01*
X35049Y55348D01*
X34749Y55048D01*
X34475Y54386D01*
Y53670D01*
X34749Y53009D01*
X35255Y52502D01*
X35917Y52228D01*
X36633D01*
X37294Y52502D01*
X37801Y53009D01*
X38075Y53670D01*
Y54386D01*
X37951Y54684D01*
X40402Y57135D01*
X40710Y57595D01*
X40818Y58138D01*
Y66534D01*
X40710Y67077D01*
X40402Y67537D01*
X39059Y68880D01*
Y69150D01*
X38785Y69812D01*
X38279Y70318D01*
X37617Y70592D01*
D02*
G37*
G36*
X249860Y54797D02*
X248940D01*
X248050Y54558D01*
X247253Y54098D01*
X246602Y53447D01*
X246142Y52650D01*
X245903Y51760D01*
Y50840D01*
X246142Y49950D01*
X246602Y49153D01*
X247253Y48502D01*
X248050Y48041D01*
X248940Y47803D01*
X249860D01*
X250750Y48041D01*
X251547Y48502D01*
X252198Y49153D01*
X252659Y49950D01*
X252897Y50840D01*
Y51760D01*
X252659Y52650D01*
X252198Y53447D01*
X251547Y54098D01*
X250750Y54558D01*
X249860Y54797D01*
D02*
G37*
G36*
X116358Y47600D02*
X115642D01*
X114980Y47326D01*
X114474Y46820D01*
X114200Y46158D01*
Y45442D01*
X114474Y44780D01*
X114980Y44274D01*
X115642Y44000D01*
X116358D01*
X117020Y44274D01*
X117526Y44780D01*
X117800Y45442D01*
Y46158D01*
X117526Y46820D01*
X117020Y47326D01*
X116358Y47600D01*
D02*
G37*
G36*
X143958Y47500D02*
X143242D01*
X142580Y47226D01*
X142074Y46720D01*
X141800Y46058D01*
Y45342D01*
X142074Y44680D01*
X142580Y44174D01*
X143242Y43900D01*
X143958D01*
X144620Y44174D01*
X145126Y44680D01*
X145400Y45342D01*
Y46058D01*
X145126Y46720D01*
X144620Y47226D01*
X143958Y47500D01*
D02*
G37*
G36*
X181458Y46700D02*
X180742D01*
X180080Y46426D01*
X179574Y45920D01*
X179300Y45258D01*
Y44542D01*
X179574Y43880D01*
X180080Y43374D01*
X180742Y43100D01*
X181458D01*
X182120Y43374D01*
X182626Y43880D01*
X182900Y44542D01*
Y45258D01*
X182626Y45920D01*
X182120Y46426D01*
X181458Y46700D01*
D02*
G37*
G36*
X252897Y44797D02*
X245903D01*
Y37803D01*
X252897D01*
Y44797D01*
D02*
G37*
G36*
X158458Y46200D02*
X157742D01*
X157080Y45926D01*
X156574Y45420D01*
X156300Y44758D01*
Y44042D01*
X156574Y43380D01*
X156682Y43272D01*
Y33420D01*
X155762Y32500D01*
X155642D01*
X154980Y32226D01*
X154474Y31720D01*
X154200Y31058D01*
Y30342D01*
X154474Y29680D01*
X154980Y29174D01*
X155642Y28900D01*
X156358D01*
X157020Y29174D01*
X157526Y29680D01*
X157800Y30342D01*
Y30528D01*
X159102Y31830D01*
X159410Y32291D01*
X159518Y32833D01*
Y43272D01*
X159626Y43380D01*
X159900Y44042D01*
Y44758D01*
X159626Y45420D01*
X159120Y45926D01*
X158458Y46200D01*
D02*
G37*
G36*
X162258Y40600D02*
X161542D01*
X160880Y40326D01*
X160374Y39820D01*
X160100Y39158D01*
Y38442D01*
X160374Y37780D01*
X160482Y37672D01*
Y30428D01*
X160374Y30320D01*
X160100Y29658D01*
Y28942D01*
X160374Y28280D01*
X160880Y27774D01*
X161542Y27500D01*
X162258D01*
X162920Y27774D01*
X163426Y28280D01*
X163700Y28942D01*
Y29658D01*
X163426Y30320D01*
X163318Y30428D01*
Y37672D01*
X163426Y37780D01*
X163700Y38442D01*
Y39158D01*
X163426Y39820D01*
X162920Y40326D01*
X162258Y40600D01*
D02*
G37*
G36*
X134188Y41935D02*
X133472D01*
X132810Y41661D01*
X132304Y41155D01*
X132030Y40493D01*
Y39777D01*
X132304Y39115D01*
X132810Y38609D01*
X132982Y38538D01*
Y26528D01*
X132874Y26420D01*
X132600Y25758D01*
Y25042D01*
X132874Y24380D01*
X133380Y23874D01*
X134042Y23600D01*
X134758D01*
X135420Y23874D01*
X135926Y24380D01*
X136200Y25042D01*
Y25758D01*
X135926Y26420D01*
X135818Y26528D01*
Y39343D01*
X135710Y39886D01*
X135630Y40006D01*
Y40493D01*
X135356Y41155D01*
X134849Y41661D01*
X134188Y41935D01*
D02*
G37*
G36*
X137658Y46100D02*
X136942D01*
X136280Y45826D01*
X135774Y45320D01*
X135500Y44658D01*
Y43942D01*
X135774Y43280D01*
X136039Y43016D01*
Y42118D01*
X136147Y41576D01*
X136454Y41116D01*
X137219Y40350D01*
Y17255D01*
X137111Y17146D01*
X136837Y16485D01*
Y15769D01*
X137111Y15107D01*
X137617Y14601D01*
X138279Y14327D01*
X138995D01*
X139657Y14601D01*
X140163Y15107D01*
X140437Y15769D01*
Y16485D01*
X140163Y17146D01*
X140055Y17255D01*
Y40938D01*
X139947Y41480D01*
X139639Y41940D01*
X138874Y42705D01*
Y43398D01*
X139100Y43942D01*
Y44658D01*
X138826Y45320D01*
X138320Y45826D01*
X137658Y46100D01*
D02*
G37*
%LPD*%
D41*
X99386Y92414D02*
X106500Y85300D01*
X91486Y92414D02*
X99386D01*
X106500Y81900D02*
Y85300D01*
X107470Y81208D02*
X109078Y79600D01*
X106500Y81900D02*
X107192Y81208D01*
X107470D01*
X109078Y79600D02*
X109300D01*
X158100Y32833D02*
Y44400D01*
X156000Y30700D02*
Y30733D01*
X158100Y32833D01*
X161900Y29300D02*
Y38800D01*
X220900Y160100D02*
Y167700D01*
Y160100D02*
X248800Y132200D01*
X216600Y172000D02*
X220900Y167700D01*
X158461Y172000D02*
X216600D01*
X72943Y118557D02*
Y119657D01*
X64818Y128832D02*
X64975Y128675D01*
Y127625D02*
Y128675D01*
Y127625D02*
X72943Y119657D01*
Y118557D02*
X73100Y118400D01*
X41400Y100800D02*
X67800D01*
X69800Y102800D01*
X84500Y99400D02*
X91486Y92414D01*
X87456Y102344D02*
Y158456D01*
Y102344D02*
X94433Y95367D01*
X99733D01*
X109900Y85200D01*
X39000Y98400D02*
X41400Y100800D01*
X108600Y179600D02*
X144955D01*
X87456Y158456D02*
X108600Y179600D01*
X144955D02*
X153401Y171154D01*
X159100Y166300D02*
X163300Y162100D01*
Y157800D02*
Y162100D01*
X148461Y182000D02*
X158461Y172000D01*
X99700Y182000D02*
X148461D01*
X81550Y163850D02*
X99700Y182000D01*
X137300Y44300D02*
X137457Y44143D01*
Y42118D02*
Y44143D01*
X138637Y16627D02*
Y40938D01*
X137457Y42118D02*
X138637Y40938D01*
X134400Y25400D02*
Y39343D01*
X133830Y39913D02*
X134400Y39343D01*
X141212Y156800D02*
X146511Y162099D01*
X141000Y156800D02*
X141212D01*
X146511Y162099D02*
Y171154D01*
X37259Y68675D02*
X39400Y66534D01*
X36432Y55169D02*
X39400Y58138D01*
Y66534D01*
X37259Y68675D02*
Y68792D01*
X36275Y54028D02*
X36432Y54185D01*
Y55169D01*
X133830Y39913D02*
Y40135D01*
X52023Y104225D02*
X65425D01*
X81550Y120350D01*
X69739Y97335D02*
X84503Y112099D01*
X47465Y97335D02*
X69739D01*
X81550Y120350D02*
Y163850D01*
X84503Y112099D02*
Y161312D01*
X90409Y167217D01*
X47400Y97400D02*
X47465Y97335D01*
D44*
X281435Y155974D02*
D03*
Y140226D02*
D03*
D45*
X195724Y180013D02*
D03*
X249400Y61300D02*
D03*
Y91300D02*
D03*
Y81300D02*
D03*
Y71300D02*
D03*
Y51300D02*
D03*
X205724Y180013D02*
D03*
X185724D02*
D03*
X175724D02*
D03*
X165724D02*
D03*
D46*
X249400Y41300D02*
D03*
D47*
X215724Y180013D02*
D03*
D48*
X284626Y173071D02*
D03*
X277126Y158071D02*
D03*
Y128071D02*
D03*
X284626Y113071D02*
D03*
X277126Y98071D02*
D03*
X284626Y53071D02*
D03*
Y23071D02*
D03*
X277126Y8071D02*
D03*
X269626Y173071D02*
D03*
X262126Y158071D02*
D03*
X269626Y143071D02*
D03*
X262126Y128071D02*
D03*
X269626Y113071D02*
D03*
X262126Y98071D02*
D03*
X269626Y83071D02*
D03*
X262126Y38071D02*
D03*
X269626Y23071D02*
D03*
X262126Y8071D02*
D03*
X254626Y173071D02*
D03*
X247126Y158071D02*
D03*
X254626Y143071D02*
D03*
X247126Y128071D02*
D03*
X254626Y113071D02*
D03*
X247126Y98071D02*
D03*
X254626Y23071D02*
D03*
X247126Y8071D02*
D03*
X239626Y173071D02*
D03*
X232126Y158071D02*
D03*
X239626Y113071D02*
D03*
Y83071D02*
D03*
X232126Y68071D02*
D03*
Y38071D02*
D03*
X239626Y23071D02*
D03*
X232126Y8071D02*
D03*
X224626Y113071D02*
D03*
Y83071D02*
D03*
Y23071D02*
D03*
X217126Y8071D02*
D03*
X209626Y143071D02*
D03*
Y113071D02*
D03*
X202126Y8071D02*
D03*
X187126Y128071D02*
D03*
X194626Y113071D02*
D03*
X187126Y98071D02*
D03*
X194626Y83071D02*
D03*
X187126Y68071D02*
D03*
Y8071D02*
D03*
X172126Y128071D02*
D03*
X179626Y113071D02*
D03*
X172126Y98071D02*
D03*
X179626Y83071D02*
D03*
X172126Y68071D02*
D03*
Y8071D02*
D03*
X157126Y128071D02*
D03*
X164626Y113071D02*
D03*
X157126Y98071D02*
D03*
X164626Y83071D02*
D03*
X157126Y68071D02*
D03*
Y8071D02*
D03*
X142126Y128071D02*
D03*
X149626Y113071D02*
D03*
X142126Y98071D02*
D03*
X149626Y83071D02*
D03*
X142126Y68071D02*
D03*
X127126Y158071D02*
D03*
Y128071D02*
D03*
X134626Y113071D02*
D03*
X127126Y98071D02*
D03*
X134626Y83071D02*
D03*
X127126Y68071D02*
D03*
Y8071D02*
D03*
X112126Y158071D02*
D03*
X119626Y143071D02*
D03*
Y53071D02*
D03*
X112126Y8071D02*
D03*
X97126Y158071D02*
D03*
Y128071D02*
D03*
X104626Y113071D02*
D03*
X97126Y98071D02*
D03*
Y38071D02*
D03*
X104626Y23071D02*
D03*
X97126Y8071D02*
D03*
X89626Y53071D02*
D03*
X82126Y38071D02*
D03*
Y8071D02*
D03*
X74626Y173071D02*
D03*
Y143071D02*
D03*
X67126Y38071D02*
D03*
Y8071D02*
D03*
X59626Y173071D02*
D03*
Y143071D02*
D03*
X52126Y128071D02*
D03*
X59626Y113071D02*
D03*
Y53071D02*
D03*
Y23071D02*
D03*
X52126Y8071D02*
D03*
X44626Y173071D02*
D03*
X37126Y158071D02*
D03*
X44626Y113071D02*
D03*
X37126Y8071D02*
D03*
X29626Y173071D02*
D03*
X22126Y158071D02*
D03*
X29626Y143071D02*
D03*
Y53071D02*
D03*
X22126Y38071D02*
D03*
X29626Y23071D02*
D03*
X22126Y8071D02*
D03*
X14626Y173071D02*
D03*
X7126Y158071D02*
D03*
Y128071D02*
D03*
X14626Y113071D02*
D03*
X7126Y98071D02*
D03*
X14626Y83071D02*
D03*
X7126Y68071D02*
D03*
Y38071D02*
D03*
X14626Y23071D02*
D03*
X7126Y8071D02*
D03*
D49*
X109400Y72200D02*
D03*
X109300Y79600D02*
D03*
X56900Y90600D02*
D03*
X156000Y30700D02*
D03*
X161900Y29300D02*
D03*
X215300Y85500D02*
D03*
X200906Y32994D02*
D03*
X236600Y72300D02*
D03*
X268700Y138100D02*
D03*
X248800Y132200D02*
D03*
X242700Y125300D02*
D03*
X221400Y139700D02*
D03*
X227600Y108700D02*
D03*
X227000Y74500D02*
D03*
X235700Y63600D02*
D03*
X220300Y57800D02*
D03*
X213440Y47139D02*
D03*
X121700Y154300D02*
D03*
X168197Y39941D02*
D03*
X120921Y39658D02*
D03*
X15606Y43202D02*
D03*
X148895Y156737D02*
D03*
X45133Y69776D02*
D03*
X34306Y60918D02*
D03*
X285896Y100936D02*
D03*
X256956Y133177D02*
D03*
X285896Y33023D02*
D03*
X112195Y173953D02*
D03*
X64818Y146548D02*
D03*
X44149Y148516D02*
D03*
X15192Y151047D02*
D03*
X69739Y22532D02*
D03*
X193700Y32500D02*
D03*
X240875Y108932D02*
D03*
X194000Y166500D02*
D03*
X109300Y53500D02*
D03*
X209500Y166700D02*
D03*
X259600Y66400D02*
D03*
X109300Y8400D02*
D03*
X91200Y21100D02*
D03*
X69400Y53100D02*
D03*
X143500Y38100D02*
D03*
X181600Y155500D02*
D03*
X133700Y174800D02*
D03*
X106000Y141100D02*
D03*
X151300Y11900D02*
D03*
X100600Y51000D02*
D03*
X92900Y49600D02*
D03*
X63000Y37200D02*
D03*
X86900Y55200D02*
D03*
X98200Y101700D02*
D03*
X103000Y108000D02*
D03*
X98600Y122000D02*
D03*
X77400Y97300D02*
D03*
X48700Y127800D02*
D03*
X74600Y148700D02*
D03*
X54900Y148000D02*
D03*
X76400Y124600D02*
D03*
X55800Y124900D02*
D03*
X73100Y118400D02*
D03*
X69800Y102800D02*
D03*
X84500Y99400D02*
D03*
X109900Y85200D02*
D03*
Y92800D02*
D03*
X39000Y98400D02*
D03*
X163300Y157800D02*
D03*
X167800Y149900D02*
D03*
X137300Y44300D02*
D03*
X143600Y45700D02*
D03*
X158100Y44400D02*
D03*
X161900Y38800D02*
D03*
X134400Y25400D02*
D03*
X181100Y44900D02*
D03*
X141000Y156800D02*
D03*
X159100Y166300D02*
D03*
X214300Y113400D02*
D03*
X109400Y129400D02*
D03*
X138637Y16127D02*
D03*
X221400Y147900D02*
D03*
X37259Y68792D02*
D03*
X52023Y104225D02*
D03*
X64818Y128832D02*
D03*
X71800Y76758D02*
D03*
X47400Y97400D02*
D03*
X90409Y167217D02*
D03*
X146511Y171154D02*
D03*
X153401D02*
D03*
X133830Y40135D02*
D03*
X36275Y54028D02*
D03*
X116000Y45800D02*
D03*
D50*
X146100Y150800D02*
D03*
X136300Y148800D02*
D03*
M02*
