G04*
G04 #@! TF.GenerationSoftware,Altium Limited,Altium Designer,21.8.1 (53)*
G04*
G04 Layer_Color=32768*
%FSLAX25Y25*%
%MOIN*%
G70*
G04*
G04 #@! TF.SameCoordinates,C3BC6F45-041D-44BD-81EA-7FCEF9ED4BC6*
G04*
G04*
G04 #@! TF.FilePolarity,Positive*
G04*
G01*
G75*
%ADD12C,0.00600*%
%ADD60C,0.00394*%
%ADD62C,0.00197*%
G36*
X126260Y56585D02*
X121509D01*
Y61337D01*
X116159D01*
Y133334D01*
X121509D01*
Y138085D01*
X126260D01*
Y143435D01*
X198258D01*
Y138085D01*
X203009D01*
Y133334D01*
X208359D01*
Y61337D01*
X203009D01*
Y56585D01*
X198258D01*
Y51235D01*
X126260D01*
Y56585D01*
D02*
G37*
D12*
X198258D02*
X203009D01*
X198258Y51235D02*
Y56585D01*
X126260Y51235D02*
X198258D01*
X126260D02*
Y56585D01*
X121509D02*
X126260D01*
X198258Y138085D02*
X203009D01*
X198258D02*
Y143435D01*
X126260D02*
X198258D01*
X126260Y138085D02*
Y143435D01*
X121509Y138085D02*
X126260D01*
X203009Y133334D02*
Y138085D01*
Y133334D02*
X208359D01*
Y61337D02*
Y133334D01*
X203009Y61337D02*
X208359D01*
X203009Y56585D02*
Y61337D01*
X121509Y133334D02*
Y138085D01*
X116159Y133334D02*
X121509D01*
X116159Y61337D02*
Y133334D01*
Y61337D02*
X121509D01*
Y56585D02*
Y61337D01*
D60*
X211570Y55997D02*
X215310D01*
X213440Y54127D02*
Y57867D01*
X217300Y75230D02*
Y78970D01*
X215430Y77100D02*
X219170D01*
X49464Y132768D02*
Y138674D01*
Y132768D02*
X60487D01*
X54976Y133851D02*
Y137591D01*
X53105Y135721D02*
X56846D01*
X49464Y138674D02*
X60487D01*
Y132768D02*
Y138674D01*
X62948Y137690D02*
X66688D01*
X64818Y135820D02*
Y139560D01*
X60979Y119973D02*
X64720D01*
X62850Y118103D02*
Y121843D01*
X100350Y60918D02*
X104090D01*
X102220Y59048D02*
Y62788D01*
X85881Y59934D02*
Y65839D01*
Y59934D02*
X96905D01*
X91393Y61016D02*
Y64757D01*
X89523Y62887D02*
X93263D01*
X85881Y65839D02*
X96905D01*
Y59934D02*
Y65839D01*
X90802Y39265D02*
Y45170D01*
Y39265D02*
X101826D01*
X96314Y40347D02*
Y44087D01*
X94444Y42217D02*
X98184D01*
X90802Y45170D02*
X101826D01*
Y39265D02*
Y45170D01*
X105271Y44186D02*
X109011D01*
X107141Y42316D02*
Y46056D01*
X141590Y8351D02*
Y12091D01*
X139720Y10221D02*
X143460D01*
X60290Y158075D02*
Y163980D01*
Y158075D02*
X71314D01*
X65802Y159158D02*
Y162898D01*
X63932Y161028D02*
X67672D01*
X60290Y163980D02*
X71314D01*
Y158075D02*
Y163980D01*
X75645Y156205D02*
Y159945D01*
X73775Y158075D02*
X77515D01*
X216400Y104730D02*
Y108470D01*
X214530Y106600D02*
X218270D01*
X232730Y118700D02*
X236470D01*
X234600Y116830D02*
Y120570D01*
X216800Y130230D02*
Y133970D01*
X214930Y132100D02*
X218670D01*
X90802Y149501D02*
Y155406D01*
Y149501D02*
X101826D01*
X96314Y150584D02*
Y154324D01*
X94444Y152453D02*
X98184D01*
X90802Y155406D02*
X101826D01*
Y149501D02*
Y155406D01*
X104287Y150485D02*
X108027D01*
X106157Y148615D02*
Y152355D01*
X115147Y176512D02*
X121053D01*
X115147Y165488D02*
Y176512D01*
X116230Y171000D02*
X119970D01*
X118100Y169130D02*
Y172870D01*
X121053Y165488D02*
Y176512D01*
X115147Y165488D02*
X121053D01*
X135312Y164447D02*
Y170353D01*
X124288D02*
X135312D01*
X127930Y167400D02*
X131670D01*
X129800Y165530D02*
Y169270D01*
X124288Y164447D02*
X135312D01*
X124288D02*
Y170353D01*
X140605Y168300D02*
Y172040D01*
X138735Y170170D02*
X142476D01*
X154800Y150930D02*
Y154670D01*
X152930Y152800D02*
X156670D01*
X202023Y148516D02*
Y154422D01*
Y148516D02*
X213047D01*
X207535Y149599D02*
Y153339D01*
X205665Y151469D02*
X209405D01*
X202023Y154422D02*
X213047D01*
Y148516D02*
Y154422D01*
X207535Y24599D02*
Y28339D01*
X205665Y26469D02*
X209405D01*
X219288Y87147D02*
Y93053D01*
Y87147D02*
X230312D01*
X222930Y90100D02*
X226670D01*
X224800Y88230D02*
Y91970D01*
X219288Y93053D02*
X230312D01*
Y87147D02*
Y93053D01*
X217788Y95047D02*
Y100953D01*
Y95047D02*
X228812D01*
X221430Y98000D02*
X225170D01*
X223300Y96130D02*
Y99870D01*
X217788Y100953D02*
X228812D01*
Y95047D02*
Y100953D01*
X238988Y114047D02*
Y119953D01*
Y114047D02*
X250012D01*
X242630Y117000D02*
X246370D01*
X244500Y115130D02*
Y118870D01*
X238988Y119953D02*
X250012D01*
Y114047D02*
Y119953D01*
X259712Y122547D02*
Y128453D01*
X248688D02*
X259712D01*
X254200Y123630D02*
Y127370D01*
X252330Y125500D02*
X256070D01*
X248688Y122547D02*
X259712D01*
X248688D02*
Y128453D01*
X173700Y40630D02*
Y44370D01*
X171830Y42500D02*
X175570D01*
X182928Y32965D02*
X188834D01*
X182928Y21942D02*
Y32965D01*
X184011Y27454D02*
X187751D01*
X185881Y25583D02*
Y29324D01*
X188834Y21942D02*
Y32965D01*
X182928Y21942D02*
X188834D01*
X202416Y21548D02*
Y27454D01*
X191393D02*
X202416D01*
X195035Y24501D02*
X198775D01*
X196905Y22631D02*
Y26371D01*
X191393Y21548D02*
X202416D01*
X191393D02*
Y27454D01*
X150448Y40347D02*
Y44087D01*
X148578Y42217D02*
X152318D01*
X58519Y47139D02*
Y53044D01*
X47495D02*
X58519D01*
X51137Y50091D02*
X54877D01*
X53007Y48221D02*
Y51961D01*
X47495Y47139D02*
X58519D01*
X47495D02*
Y53044D01*
X55960Y37394D02*
Y41135D01*
X54090Y39265D02*
X57830D01*
X73676Y19973D02*
X79582D01*
Y30997D01*
X74759Y25485D02*
X78499D01*
X76629Y23615D02*
Y27355D01*
X73676Y19973D02*
Y30997D01*
X79582D01*
X64916Y59934D02*
X68657D01*
X66787Y58064D02*
Y61804D01*
X92968Y25485D02*
Y31391D01*
X81944D02*
X92968D01*
X85586Y28438D02*
X89326D01*
X87456Y26568D02*
Y30308D01*
X81944Y25485D02*
X92968D01*
X81944D02*
Y31391D01*
X76629Y54422D02*
X82535D01*
Y65446D01*
X77712Y59934D02*
X81452D01*
X79582Y58064D02*
Y61804D01*
X76629Y54422D02*
Y65446D01*
X82535D01*
Y50682D02*
X88440D01*
X82535Y39658D02*
Y50682D01*
X83617Y45170D02*
X87357D01*
X85487Y43300D02*
Y47040D01*
X88440Y39658D02*
Y50682D01*
X82535Y39658D02*
X88440D01*
X40212Y74107D02*
X46117D01*
Y85131D01*
X41295Y79619D02*
X45035D01*
X43165Y77749D02*
Y81489D01*
X40212Y74107D02*
Y85131D01*
X46117D01*
X52023Y73123D02*
X57928D01*
Y84146D01*
X54976Y76765D02*
Y80505D01*
X53105Y78635D02*
X56846D01*
X52023Y73123D02*
Y84146D01*
X57928D01*
X52912Y87547D02*
Y93453D01*
X41888D02*
X52912D01*
X47400Y88630D02*
Y92370D01*
X45530Y90500D02*
X49270D01*
X41888Y87547D02*
X52912D01*
X41888D02*
Y93453D01*
X70822Y88477D02*
X74562D01*
X72692Y86607D02*
Y90347D01*
X113947Y5488D02*
X119853D01*
Y16512D01*
X115030Y11000D02*
X118770D01*
X116900Y9130D02*
Y12870D01*
X113947Y5488D02*
Y16512D01*
X119853D01*
X98283Y23615D02*
Y27355D01*
X96413Y25485D02*
X100153D01*
X133125Y10221D02*
Y16127D01*
X122101D02*
X133125D01*
X125743Y13174D02*
X129483D01*
X127613Y11304D02*
Y15044D01*
X122101Y10221D02*
X133125D01*
X122101D02*
Y16127D01*
X127810Y40347D02*
Y44087D01*
X125940Y42217D02*
X129680D01*
X100030Y83000D02*
X103770D01*
X101900Y81130D02*
Y84870D01*
X106030Y99700D02*
X109770D01*
X107900Y97830D02*
Y101570D01*
X39228Y125485D02*
X45133D01*
X39228Y114461D02*
Y125485D01*
X40310Y119973D02*
X44050D01*
X42180Y118103D02*
Y121843D01*
X45133Y114461D02*
Y125485D01*
X39228Y114461D02*
X45133D01*
X58519Y114068D02*
Y119973D01*
X47495D02*
X58519D01*
X51137Y117020D02*
X54877D01*
X53007Y115150D02*
Y118891D01*
X47495Y114068D02*
X58519D01*
X47495D02*
Y119973D01*
X41196Y144186D02*
X47102D01*
X41196Y133162D02*
Y144186D01*
X42279Y138674D02*
X46019D01*
X44149Y136804D02*
Y140544D01*
X47102Y133162D02*
Y144186D01*
X41196Y133162D02*
X47102D01*
X72692Y140249D02*
X78598D01*
X72692Y129225D02*
Y140249D01*
X75645Y132867D02*
Y136607D01*
X73775Y134737D02*
X77515D01*
X78598Y129225D02*
Y140249D01*
X72692Y129225D02*
X78598D01*
X52023Y152563D02*
X57928D01*
Y163587D01*
X53105Y158075D02*
X56846D01*
X54976Y156205D02*
Y159945D01*
X52023Y152563D02*
Y163587D01*
X57928D01*
X128795Y149599D02*
Y153339D01*
X126924Y151469D02*
X130665D01*
X174700Y150630D02*
Y154370D01*
X172830Y152500D02*
X176570D01*
X106255Y121942D02*
X109995D01*
X108125Y120072D02*
Y123812D01*
X110100Y108830D02*
Y112570D01*
X108230Y110700D02*
X111970D01*
D62*
X266464Y36498D02*
Y96302D01*
X296936D01*
X266464Y36498D02*
X296936D01*
Y96302D01*
X275727Y131171D02*
Y165029D01*
Y131171D02*
X285176D01*
X275727Y165029D02*
X285176D01*
Y168376D01*
X294624D01*
Y165029D02*
Y168376D01*
Y165029D02*
X301829D01*
Y131171D02*
Y165029D01*
X294624Y131171D02*
X301829D01*
X294624Y127824D02*
Y131171D01*
X285176Y127824D02*
X294624D01*
X285176D02*
Y131171D01*
X216393Y50682D02*
Y61312D01*
X210487Y50682D02*
Y61312D01*
X216393D01*
X210487Y50682D02*
X216393D01*
X211985Y80053D02*
X222615D01*
X211985Y74147D02*
X222615D01*
X211985D02*
Y80053D01*
X222615Y74147D02*
Y80053D01*
X238956Y94793D02*
Y106407D01*
X233444D02*
X238956D01*
X233444Y94793D02*
Y106407D01*
Y94793D02*
X238956D01*
X201728Y156587D02*
Y162099D01*
X213342D01*
Y156587D02*
Y162099D01*
X201728Y156587D02*
X213342D01*
X61865Y132375D02*
Y143005D01*
X67771Y132375D02*
Y143005D01*
X61865Y132375D02*
X67771D01*
X61865Y143005D02*
X67771D01*
X59897Y114658D02*
Y125288D01*
X65802Y114658D02*
Y125288D01*
X59897Y114658D02*
X65802D01*
X59897Y125288D02*
X65802D01*
X76629Y73320D02*
Y89855D01*
X98283D01*
Y73320D02*
Y89855D01*
X76629Y73320D02*
X98283D01*
X105172Y55603D02*
Y66233D01*
X99267Y55603D02*
Y66233D01*
X105172D01*
X99267Y55603D02*
X105172D01*
X104188Y38871D02*
Y49501D01*
X110094Y38871D02*
Y49501D01*
X104188Y38871D02*
X110094D01*
X104188Y49501D02*
X110094D01*
X136275Y13174D02*
X146905D01*
X136275Y7269D02*
X146905D01*
X136275D02*
Y13174D01*
X146905Y7269D02*
Y13174D01*
X29287Y47338D02*
Y146511D01*
X-1185Y47338D02*
X29287D01*
X-1185Y146511D02*
X29287D01*
X-1185Y47338D02*
Y146511D01*
X72692Y152760D02*
X78598D01*
X72692Y163390D02*
X78598D01*
X72692Y152760D02*
Y163390D01*
X78598Y152760D02*
Y163390D01*
X255384Y35316D02*
Y97284D01*
X243416D02*
X255384D01*
X243416Y35316D02*
Y97284D01*
Y35316D02*
X255384D01*
X211085Y109553D02*
X221715D01*
X211085Y103647D02*
X221715D01*
X211085D02*
Y109553D01*
X221715Y103647D02*
Y109553D01*
X231647Y113385D02*
Y124015D01*
X237553Y113385D02*
Y124015D01*
X231647Y113385D02*
X237553D01*
X231647Y124015D02*
X237553D01*
X211485Y135053D02*
X222115D01*
X211485Y129147D02*
X222115D01*
X211485D02*
Y135053D01*
X222115Y129147D02*
Y135053D01*
X221708Y174028D02*
Y185997D01*
X159739Y174028D02*
X221708D01*
X159739D02*
Y185997D01*
X221708D01*
X109109Y145170D02*
Y155800D01*
X103204Y145170D02*
Y155800D01*
X109109D01*
X103204Y145170D02*
X109109D01*
X137653Y175485D02*
X143558D01*
X137653Y164855D02*
X143558D01*
Y175485D01*
X137653Y164855D02*
Y175485D01*
X151847Y158115D02*
X157753D01*
X151847Y147485D02*
X157753D01*
Y158115D01*
X151847Y147485D02*
Y158115D01*
X204582Y31784D02*
X210487D01*
X204582Y21154D02*
X210487D01*
Y31784D01*
X204582Y21154D02*
Y31784D01*
X232344Y92307D02*
X237856D01*
Y80693D02*
Y92307D01*
X232344Y80693D02*
X237856D01*
X232344D02*
Y92307D01*
X170747Y37185D02*
X176653D01*
X170747Y47815D02*
X176653D01*
X170747Y37185D02*
Y47815D01*
X176653Y37185D02*
Y47815D01*
X147495Y36902D02*
X153401D01*
X147495Y47532D02*
X153401D01*
X147495Y36902D02*
Y47532D01*
X153401Y36902D02*
Y47532D01*
X53007Y33950D02*
X58913D01*
X53007Y44579D02*
X58913D01*
X53007Y33950D02*
Y44579D01*
X58913Y33950D02*
Y44579D01*
X72102Y56981D02*
Y62887D01*
X61472Y56981D02*
Y62887D01*
Y56981D02*
X72102D01*
X61472Y62887D02*
X72102D01*
X75645Y83162D02*
Y93792D01*
X69739Y83162D02*
Y93792D01*
X75645D01*
X69739Y83162D02*
X75645D01*
X95330Y20170D02*
X101235D01*
X95330Y30800D02*
X101235D01*
X95330Y20170D02*
Y30800D01*
X101235Y20170D02*
Y30800D01*
X124857Y36902D02*
X130763D01*
X124857Y47532D02*
X130763D01*
X124857Y36902D02*
Y47532D01*
X130763Y36902D02*
Y47532D01*
X104853Y77685D02*
Y88315D01*
X98947Y77685D02*
Y88315D01*
X104853D01*
X98947Y77685D02*
X104853D01*
X102585Y96747D02*
Y102653D01*
X113215Y96747D02*
Y102653D01*
X102585D02*
X113215D01*
X102585Y96747D02*
X113215D01*
X125842Y156784D02*
X131747D01*
X125842Y146154D02*
X131747D01*
Y156784D01*
X125842Y146154D02*
Y156784D01*
X171747Y157815D02*
X177653D01*
X171747Y147185D02*
X177653D01*
Y157815D01*
X171747Y147185D02*
Y157815D01*
X102810Y118989D02*
Y124894D01*
X113440Y118989D02*
Y124894D01*
X102810D02*
X113440D01*
X102810Y118989D02*
X113440D01*
X107147Y105385D02*
X113053D01*
X107147Y116015D02*
X113053D01*
X107147Y105385D02*
Y116015D01*
X113053Y105385D02*
Y116015D01*
M02*
