M48
;Layer_Color=9474304
;FILE_FORMAT=2:5
INCH,LZ
;TYPE=PLATED
T1F00S00C0.00984
T2F00S00C0.01100
T3F00S00C0.04016
;TYPE=NON_PLATED
T4F00S00C0.02165
%
T01
X0007126Y0008071
X0022126
X0037126
X0052126
X0067126
X0082126
X0097126
X0112126
X0127126
X0104626Y0023071
X0097126Y0038071
X0082126
X0067126
X0059626Y0053071
X0089626
X0119626
X0127126Y0068071
X0142126
X0134626Y0083071
X0014626
X0007126Y0068071
Y0038071
X0022126
X0029626Y0053071
Y0023071
X0014626
X0059626
X0157126Y0008071
X0172126
X0187126
X0202126
X0217126
X0232126
X0247126
X0262126
X0277126
X0284626Y0023071
X0269626
X0254626
X0239626
X0224626
X0232126Y0038071
X0262126
X0284626Y0053071
X0269626Y0083071
X0239626
X0224626
X0232126Y0068071
X0187126
X0172126
X0157126
X0164626Y0083071
X0179626
X0194626
X0149626
X0157126Y0098071
X0172126
X0187126
X0194626Y0113071
X0209626
X0224626
X0239626
X0254626
X0269626
X0284626
X0277126Y0128071
X0262126
X0247126
X0254626Y0143071
X0269626
X0277126Y0158071
X0262126
X0247126
X0232126
X0239626Y0173071
X0254626
X0269626
X0284626
X0277126Y0098071
X0262126
X0247126
X0209626Y0143071
X0187126Y0128071
X0172126
X0157126
X0164626Y0113071
X0179626
X0149626
X0134626
X0142126Y0128071
X0127126
X0119626Y0143071
X01363Y01488
X01461Y01508
X0127126Y0158071
X0112126
X0097126
Y0128071
X0104626Y0113071
X0097126Y0098071
X0127126
X0142126
X0059626Y0113071
X0044626
X0052126Y0128071
X0059626Y0143071
X0074626
Y0173071
X0059626
X0044626
X0029626
X0014626
X0022126Y0158071
X0037126
X0029626Y0143071
X0007126Y0158071
Y0128071
X0014626Y0113071
X0007126Y0098071
T02
X0015606Y0043202
X0036275Y0054028
X0034306Y0060918
X0037259Y0068792
X0045133Y0069776
X00718Y0076758
X00694Y00531
X00869Y00552
X00929Y00496
X01006Y0051
X01093Y00535
X0116Y00458
X0120921Y0039658
X013383Y0040135
X01373Y00443
X01436Y00457
X01435Y00381
X01344Y00254
X0138637Y0016127
X01093Y00084
X00912Y00211
X0069739Y0022532
X0063Y00372
X01094Y00722
X01093Y00796
X01099Y00852
X01581Y00444
X01619Y00388
X0168197Y0039941
X01619Y00293
X0156Y00307
X01513Y00119
X01811Y00449
X01937Y00325
X0200906Y0032994
X021344Y0047139
X02203Y00578
X02357Y00636
X02366Y00723
X0227Y00745
X02153Y00855
X02596Y00664
X0285896Y0033023
X0285896Y0100936
X0240875Y0108932
X02276Y01087
X02143Y01134
X02214Y01397
Y01479
X02095Y01667
X0194Y01665
X01816Y01555
X01678Y01499
X01633Y01578
X01591Y01663
X0153401Y0171154
X0148895Y0156737
X02488Y01322
X0256956Y0133177
X02687Y01381
X02427Y01253
X0141Y01568
X0146511Y0171154
X01337Y01748
X0112195Y0173953
X0090409Y0167217
X00746Y01487
X0064818Y0146548
X00549Y0148
X0044149Y0148516
X00487Y01278
X00558Y01249
X0064818Y0128832
X00764Y01246
X00731Y01184
X00698Y01028
X00774Y00973
X00845Y00994
X00982Y01017
X0103Y0108
X00986Y0122
X01094Y01294
X0106Y01411
X01217Y01543
X01099Y00928
X00569Y00906
X00474Y00974
X0039Y00984
X0052023Y0104225
X0015192Y0151047
T03
X02494Y00413
Y00513
Y00613
Y00713
Y00813
Y00913
X0215724Y0180013
X0205724
X0195724
X0185724
X0175724
X0165724
T04
X0281435Y0140226
Y0155974
M30
