G04*
G04 #@! TF.GenerationSoftware,Altium Limited,Altium Designer,21.8.1 (53)*
G04*
G04 Layer_Color=16711935*
%FSLAX25Y25*%
%MOIN*%
G70*
G04*
G04 #@! TF.SameCoordinates,C3BC6F45-041D-44BD-81EA-7FCEF9ED4BC6*
G04*
G04*
G04 #@! TF.FilePolarity,Positive*
G04*
G01*
G75*
%ADD10C,0.00787*%
%ADD11C,0.00500*%
%ADD14C,0.00300*%
%ADD59C,0.01000*%
%ADD60C,0.00394*%
%ADD61C,0.00100*%
D10*
X277302Y139832D02*
G03*
X277302Y139832I-394J0D01*
G01*
X82850Y71745D02*
G03*
X82850Y71745I-394J0D01*
G01*
X249794Y33741D02*
G03*
X249794Y33741I-394J0D01*
G01*
X223676Y180013D02*
G03*
X223676Y180013I-394J0D01*
G01*
D11*
X263570Y52621D02*
X265539Y53802D01*
X263570Y54983D02*
X265539Y53802D01*
X263570Y52621D02*
Y54983D01*
X271464Y91302D02*
X291936D01*
X271464Y41498D02*
Y91302D01*
Y41498D02*
X291936D01*
Y91302D01*
X295609Y132155D02*
Y171722D01*
X278679Y132155D02*
X295609D01*
X300845D01*
Y164045D01*
X278679D02*
X300845D01*
X278679Y132155D02*
Y164045D01*
X237972Y97254D02*
Y103946D01*
X234428D02*
X237972D01*
X234428Y97254D02*
Y103946D01*
Y97254D02*
X237972D01*
X204188Y157572D02*
Y161115D01*
X210881D01*
Y157572D02*
Y161115D01*
X204188Y157572D02*
X210881D01*
X77613Y75288D02*
Y87887D01*
X97298D01*
Y75288D02*
Y87887D01*
X77613Y75288D02*
X97298D01*
X30398Y129523D02*
X32366Y130704D01*
X30398Y129523D02*
X32366Y128342D01*
Y130704D01*
X3815Y52338D02*
X24287D01*
Y141511D01*
X3815D02*
X24287D01*
X3815Y52338D02*
Y141511D01*
X233328Y89846D02*
X236872D01*
Y83153D02*
Y89846D01*
X233328Y83153D02*
X236872D01*
X233328D02*
Y89846D01*
X54976Y139657D02*
Y135721D01*
Y139657D02*
X56662D01*
X57225Y139470D01*
X57412Y139283D01*
X57600Y138908D01*
Y138533D01*
X57412Y138158D01*
X57225Y137970D01*
X56662Y137783D01*
X54976D01*
X56288D02*
X57600Y135721D01*
X58855Y139657D02*
X60917D01*
X59793Y138158D01*
X60355D01*
X60730Y137970D01*
X60917Y137783D01*
X61105Y137221D01*
Y136846D01*
X60917Y136284D01*
X60542Y135909D01*
X59980Y135721D01*
X59418D01*
X58855Y135909D01*
X58668Y136096D01*
X58481Y136471D01*
X91393Y66823D02*
Y62887D01*
Y66823D02*
X93080D01*
X93642Y66635D01*
X93830Y66448D01*
X94017Y66073D01*
Y65698D01*
X93830Y65323D01*
X93642Y65136D01*
X93080Y64948D01*
X91393D01*
X92705D02*
X94017Y62887D01*
X97522Y66823D02*
X95648Y62887D01*
X94898Y66823D02*
X97522D01*
X96314Y46154D02*
Y42217D01*
Y46154D02*
X98001D01*
X98563Y45966D01*
X98751Y45779D01*
X98938Y45404D01*
Y45029D01*
X98751Y44654D01*
X98563Y44467D01*
X98001Y44279D01*
X96314D01*
X97626D02*
X98938Y42217D01*
X102256Y44841D02*
X102068Y44279D01*
X101694Y43904D01*
X101131Y43717D01*
X100944D01*
X100382Y43904D01*
X100007Y44279D01*
X99819Y44841D01*
Y45029D01*
X100007Y45591D01*
X100382Y45966D01*
X100944Y46154D01*
X101131D01*
X101694Y45966D01*
X102068Y45591D01*
X102256Y44841D01*
Y43904D01*
X102068Y42967D01*
X101694Y42405D01*
X101131Y42217D01*
X100756D01*
X100194Y42405D01*
X100007Y42780D01*
X65802Y164964D02*
Y161028D01*
Y164964D02*
X67489D01*
X68052Y164776D01*
X68239Y164589D01*
X68427Y164214D01*
Y163839D01*
X68239Y163464D01*
X68052Y163277D01*
X67489Y163089D01*
X65802D01*
X67114D02*
X68427Y161028D01*
X69307Y164214D02*
X69682Y164401D01*
X70245Y164964D01*
Y161028D01*
X96314Y156390D02*
Y152453D01*
Y156390D02*
X98001D01*
X98563Y156202D01*
X98751Y156015D01*
X98938Y155640D01*
Y155265D01*
X98751Y154890D01*
X98563Y154703D01*
X98001Y154515D01*
X96314D01*
X97626D02*
X98938Y152453D01*
X99819Y155640D02*
X100194Y155827D01*
X100756Y156390D01*
Y152453D01*
X105330Y156390D02*
X103455Y152453D01*
X102706Y156390D02*
X105330D01*
X122036Y171000D02*
X118100D01*
X122036D02*
Y169313D01*
X121849Y168751D01*
X121661Y168563D01*
X121286Y168376D01*
X120912D01*
X120537Y168563D01*
X120349Y168751D01*
X120162Y169313D01*
Y171000D01*
Y169688D02*
X118100Y168376D01*
X121099Y167307D02*
X121286D01*
X121661Y167120D01*
X121849Y166933D01*
X122036Y166558D01*
Y165808D01*
X121849Y165433D01*
X121661Y165246D01*
X121286Y165058D01*
X120912D01*
X120537Y165246D01*
X119974Y165621D01*
X118100Y167495D01*
Y164871D01*
X121286Y163990D02*
X121474Y163615D01*
X122036Y163053D01*
X118100D01*
X129800Y171336D02*
Y167400D01*
Y171336D02*
X131487D01*
X132049Y171149D01*
X132237Y170961D01*
X132424Y170586D01*
Y170212D01*
X132237Y169837D01*
X132049Y169649D01*
X131487Y169462D01*
X129800D01*
X131112D02*
X132424Y167400D01*
X133493Y170399D02*
Y170586D01*
X133680Y170961D01*
X133867Y171149D01*
X134242Y171336D01*
X134992D01*
X135367Y171149D01*
X135554Y170961D01*
X135742Y170586D01*
Y170212D01*
X135554Y169837D01*
X135179Y169274D01*
X133305Y167400D01*
X135929D01*
X137935Y171336D02*
X137372Y171149D01*
X136998Y170586D01*
X136810Y169649D01*
Y169087D01*
X136998Y168150D01*
X137372Y167587D01*
X137935Y167400D01*
X138310D01*
X138872Y167587D01*
X139247Y168150D01*
X139434Y169087D01*
Y169649D01*
X139247Y170586D01*
X138872Y171149D01*
X138310Y171336D01*
X137935D01*
X244500Y113064D02*
Y117000D01*
Y113064D02*
X242813D01*
X242251Y113251D01*
X242063Y113439D01*
X241876Y113814D01*
Y114188D01*
X242063Y114563D01*
X242251Y114751D01*
X242813Y114938D01*
X244500D01*
X243188D02*
X241876Y117000D01*
X240995Y113814D02*
X240620Y113626D01*
X240058Y113064D01*
Y117000D01*
X237921Y114001D02*
Y113814D01*
X237734Y113439D01*
X237546Y113251D01*
X237171Y113064D01*
X236421D01*
X236047Y113251D01*
X235859Y113439D01*
X235672Y113814D01*
Y114188D01*
X235859Y114563D01*
X236234Y115126D01*
X238108Y117000D01*
X235484D01*
X258500Y121664D02*
Y125600D01*
Y121664D02*
X256813D01*
X256251Y121851D01*
X256063Y122039D01*
X255876Y122414D01*
Y122788D01*
X256063Y123163D01*
X256251Y123351D01*
X256813Y123538D01*
X258500D01*
X257188D02*
X255876Y125600D01*
X254995Y122414D02*
X254620Y122226D01*
X254058Y121664D01*
Y125600D01*
X249859Y121664D02*
X251734D01*
X251921Y123351D01*
X251734Y123163D01*
X251171Y122976D01*
X250609D01*
X250047Y123163D01*
X249672Y123538D01*
X249484Y124100D01*
Y124475D01*
X249672Y125038D01*
X250047Y125413D01*
X250609Y125600D01*
X251171D01*
X251734Y125413D01*
X251921Y125225D01*
X252108Y124850D01*
X189817Y27454D02*
X185881D01*
X189817D02*
Y25767D01*
X189630Y25204D01*
X189442Y25017D01*
X189067Y24829D01*
X188693D01*
X188318Y25017D01*
X188130Y25204D01*
X187943Y25767D01*
Y27454D01*
Y26142D02*
X185881Y24829D01*
X189817Y23574D02*
Y21512D01*
X188318Y22636D01*
Y22074D01*
X188130Y21699D01*
X187943Y21512D01*
X187381Y21324D01*
X187006D01*
X186443Y21512D01*
X186068Y21887D01*
X185881Y22449D01*
Y23011D01*
X186068Y23574D01*
X186256Y23761D01*
X186631Y23948D01*
X189817Y20069D02*
Y18007D01*
X188318Y19131D01*
Y18569D01*
X188130Y18194D01*
X187943Y18007D01*
X187381Y17819D01*
X187006D01*
X186443Y18007D01*
X186068Y18382D01*
X185881Y18944D01*
Y19506D01*
X186068Y20069D01*
X186256Y20256D01*
X186631Y20443D01*
X196905Y28437D02*
Y24501D01*
Y28437D02*
X198592D01*
X199154Y28249D01*
X199341Y28062D01*
X199529Y27687D01*
Y27312D01*
X199341Y26937D01*
X199154Y26750D01*
X198592Y26563D01*
X196905D01*
X198217D02*
X199529Y24501D01*
X200785Y28437D02*
X202846D01*
X201722Y26937D01*
X202284D01*
X202659Y26750D01*
X202846Y26563D01*
X203034Y26000D01*
Y25625D01*
X202846Y25063D01*
X202472Y24688D01*
X201909Y24501D01*
X201347D01*
X200785Y24688D01*
X200597Y24876D01*
X200410Y25251D01*
X204102Y27500D02*
Y27687D01*
X204290Y28062D01*
X204477Y28249D01*
X204852Y28437D01*
X205602D01*
X205977Y28249D01*
X206164Y28062D01*
X206351Y27687D01*
Y27312D01*
X206164Y26937D01*
X205789Y26375D01*
X203915Y24501D01*
X206539D01*
X53007Y54027D02*
Y50091D01*
Y54027D02*
X54694D01*
X55256Y53840D01*
X55444Y53653D01*
X55631Y53278D01*
Y52903D01*
X55444Y52528D01*
X55256Y52341D01*
X54694Y52153D01*
X53007D01*
X54319D02*
X55631Y50091D01*
X56700Y53090D02*
Y53278D01*
X56887Y53653D01*
X57074Y53840D01*
X57449Y54027D01*
X58199D01*
X58574Y53840D01*
X58761Y53653D01*
X58949Y53278D01*
Y52903D01*
X58761Y52528D01*
X58386Y51966D01*
X56512Y50091D01*
X59136D01*
X61892Y54027D02*
X60017Y51403D01*
X62829D01*
X61892Y54027D02*
Y50091D01*
X72693Y25485D02*
X76629D01*
X72693D02*
Y27172D01*
X72880Y27734D01*
X73068Y27922D01*
X73443Y28109D01*
X73818D01*
X74193Y27922D01*
X74380Y27734D01*
X74567Y27172D01*
Y25485D01*
Y26797D02*
X76629Y28109D01*
X73630Y29177D02*
X73443D01*
X73068Y29365D01*
X72880Y29552D01*
X72693Y29927D01*
Y30677D01*
X72880Y31052D01*
X73068Y31239D01*
X73443Y31427D01*
X73818D01*
X74193Y31239D01*
X74755Y30865D01*
X76629Y28990D01*
Y31614D01*
X72693Y35119D02*
X76629Y33245D01*
X72693Y32495D02*
Y35119D01*
X87456Y32374D02*
Y28438D01*
Y32374D02*
X89143D01*
X89705Y32186D01*
X89893Y31999D01*
X90080Y31624D01*
Y31249D01*
X89893Y30874D01*
X89705Y30687D01*
X89143Y30500D01*
X87456D01*
X88768D02*
X90080Y28438D01*
X91148Y31437D02*
Y31624D01*
X91336Y31999D01*
X91523Y32186D01*
X91898Y32374D01*
X92648D01*
X93023Y32186D01*
X93210Y31999D01*
X93398Y31624D01*
Y31249D01*
X93210Y30874D01*
X92835Y30312D01*
X90961Y28438D01*
X93585D01*
X96715Y31812D02*
X96528Y32186D01*
X95965Y32374D01*
X95591D01*
X95028Y32186D01*
X94653Y31624D01*
X94466Y30687D01*
Y29750D01*
X94653Y29000D01*
X95028Y28625D01*
X95591Y28438D01*
X95778D01*
X96340Y28625D01*
X96715Y29000D01*
X96903Y29562D01*
Y29750D01*
X96715Y30312D01*
X96340Y30687D01*
X95778Y30874D01*
X95591D01*
X95028Y30687D01*
X94653Y30312D01*
X94466Y29750D01*
X75646Y59934D02*
X79582D01*
X75646D02*
Y61621D01*
X75833Y62183D01*
X76021Y62371D01*
X76395Y62558D01*
X76770D01*
X77145Y62371D01*
X77333Y62183D01*
X77520Y61621D01*
Y59934D01*
Y61246D02*
X79582Y62558D01*
X75646Y64376D02*
X75833Y63814D01*
X76208Y63626D01*
X76583D01*
X76958Y63814D01*
X77145Y64189D01*
X77333Y64938D01*
X77520Y65501D01*
X77895Y65876D01*
X78270Y66063D01*
X78832D01*
X79207Y65876D01*
X79394Y65688D01*
X79582Y65126D01*
Y64376D01*
X79394Y63814D01*
X79207Y63626D01*
X78832Y63439D01*
X78270D01*
X77895Y63626D01*
X77520Y64001D01*
X77333Y64564D01*
X77145Y65313D01*
X76958Y65688D01*
X76583Y65876D01*
X76208D01*
X75833Y65688D01*
X75646Y65126D01*
Y64376D01*
X89424Y45170D02*
X85487D01*
X89424D02*
Y43483D01*
X89236Y42921D01*
X89049Y42733D01*
X88674Y42546D01*
X88299D01*
X87924Y42733D01*
X87737Y42921D01*
X87549Y43483D01*
Y45170D01*
Y43858D02*
X85487Y42546D01*
X88674Y41665D02*
X88861Y41290D01*
X89424Y40728D01*
X85487D01*
X89424Y37654D02*
X89236Y38216D01*
X88674Y38591D01*
X87737Y38778D01*
X87174D01*
X86237Y38591D01*
X85675Y38216D01*
X85487Y37654D01*
Y37279D01*
X85675Y36717D01*
X86237Y36342D01*
X87174Y36154D01*
X87737D01*
X88674Y36342D01*
X89236Y36717D01*
X89424Y37279D01*
Y37654D01*
X39228Y79619D02*
X43165D01*
X39228D02*
Y81306D01*
X39416Y81868D01*
X39603Y82056D01*
X39978Y82243D01*
X40353D01*
X40728Y82056D01*
X40915Y81868D01*
X41103Y81306D01*
Y79619D01*
Y80931D02*
X43165Y82243D01*
X40166Y83311D02*
X39978D01*
X39603Y83499D01*
X39416Y83686D01*
X39228Y84061D01*
Y84811D01*
X39416Y85186D01*
X39603Y85373D01*
X39978Y85561D01*
X40353D01*
X40728Y85373D01*
X41290Y84998D01*
X43165Y83124D01*
Y85748D01*
X39228Y88878D02*
Y87004D01*
X40915Y86816D01*
X40728Y87004D01*
X40540Y87566D01*
Y88129D01*
X40728Y88691D01*
X41103Y89066D01*
X41665Y89253D01*
X42040D01*
X42602Y89066D01*
X42977Y88691D01*
X43165Y88129D01*
Y87566D01*
X42977Y87004D01*
X42790Y86816D01*
X42415Y86629D01*
X58912Y78635D02*
X54976D01*
X58912D02*
Y76948D01*
X58724Y76385D01*
X58537Y76198D01*
X58162Y76011D01*
X57787D01*
X57412Y76198D01*
X57225Y76385D01*
X57037Y76948D01*
Y78635D01*
Y77323D02*
X54976Y76011D01*
X57975Y74942D02*
X58162D01*
X58537Y74755D01*
X58724Y74567D01*
X58912Y74192D01*
Y73443D01*
X58724Y73068D01*
X58537Y72880D01*
X58162Y72693D01*
X57787D01*
X57412Y72880D01*
X56850Y73255D01*
X54976Y75130D01*
Y72505D01*
X57975Y71437D02*
X58162D01*
X58537Y71250D01*
X58724Y71062D01*
X58912Y70687D01*
Y69938D01*
X58724Y69563D01*
X58537Y69375D01*
X58162Y69188D01*
X57787D01*
X57412Y69375D01*
X56850Y69750D01*
X54976Y71624D01*
Y69000D01*
X47400Y86564D02*
Y90500D01*
Y86564D02*
X45713D01*
X45151Y86751D01*
X44963Y86939D01*
X44776Y87314D01*
Y87688D01*
X44963Y88063D01*
X45151Y88251D01*
X45713Y88438D01*
X47400D01*
X46088D02*
X44776Y90500D01*
X43707Y87501D02*
Y87314D01*
X43520Y86939D01*
X43333Y86751D01*
X42958Y86564D01*
X42208D01*
X41833Y86751D01*
X41646Y86939D01*
X41458Y87314D01*
Y87688D01*
X41646Y88063D01*
X42021Y88626D01*
X43895Y90500D01*
X41271D01*
X40015Y86564D02*
X37953D01*
X39078Y88063D01*
X38515D01*
X38141Y88251D01*
X37953Y88438D01*
X37766Y89000D01*
Y89375D01*
X37953Y89938D01*
X38328Y90313D01*
X38890Y90500D01*
X39453D01*
X40015Y90313D01*
X40202Y90125D01*
X40390Y89750D01*
X112964Y11000D02*
X116900D01*
X112964D02*
Y12687D01*
X113151Y13249D01*
X113339Y13437D01*
X113714Y13624D01*
X114088D01*
X114463Y13437D01*
X114651Y13249D01*
X114838Y12687D01*
Y11000D01*
Y12312D02*
X116900Y13624D01*
X112964Y14880D02*
Y16942D01*
X114463Y15817D01*
Y16379D01*
X114651Y16754D01*
X114838Y16942D01*
X115401Y17129D01*
X115775D01*
X116338Y16942D01*
X116713Y16567D01*
X116900Y16004D01*
Y15442D01*
X116713Y14880D01*
X116525Y14693D01*
X116150Y14505D01*
X112964Y19135D02*
X113151Y18572D01*
X113714Y18198D01*
X114651Y18010D01*
X115213D01*
X116150Y18198D01*
X116713Y18572D01*
X116900Y19135D01*
Y19510D01*
X116713Y20072D01*
X116150Y20447D01*
X115213Y20634D01*
X114651D01*
X113714Y20447D01*
X113151Y20072D01*
X112964Y19510D01*
Y19135D01*
X46117Y119973D02*
X42180D01*
X46117D02*
Y118286D01*
X45929Y117724D01*
X45742Y117537D01*
X45367Y117349D01*
X44992D01*
X44617Y117537D01*
X44430Y117724D01*
X44242Y118286D01*
Y119973D01*
Y118661D02*
X42180Y117349D01*
X45554Y114219D02*
X45929Y114406D01*
X46117Y114969D01*
Y115344D01*
X45929Y115906D01*
X45367Y116281D01*
X44430Y116468D01*
X43492D01*
X42743Y116281D01*
X42368Y115906D01*
X42180Y115344D01*
Y115156D01*
X42368Y114594D01*
X42743Y114219D01*
X43305Y114032D01*
X43492D01*
X44055Y114219D01*
X44430Y114594D01*
X44617Y115156D01*
Y115344D01*
X44430Y115906D01*
X44055Y116281D01*
X43492Y116468D01*
X53007Y120957D02*
Y117020D01*
Y120957D02*
X54694D01*
X55256Y120769D01*
X55444Y120582D01*
X55631Y120207D01*
Y119832D01*
X55444Y119457D01*
X55256Y119270D01*
X54694Y119082D01*
X53007D01*
X54319D02*
X55631Y117020D01*
X58761Y120957D02*
X56887D01*
X56700Y119270D01*
X56887Y119457D01*
X57449Y119645D01*
X58012D01*
X58574Y119457D01*
X58949Y119082D01*
X59136Y118520D01*
Y118145D01*
X58949Y117583D01*
X58574Y117208D01*
X58012Y117020D01*
X57449D01*
X56887Y117208D01*
X56700Y117395D01*
X56512Y117770D01*
X48085Y138674D02*
X44149D01*
X48085D02*
Y136987D01*
X47898Y136425D01*
X47710Y136237D01*
X47335Y136050D01*
X46960D01*
X46586Y136237D01*
X46398Y136425D01*
X46211Y136987D01*
Y138674D01*
Y137362D02*
X44149Y136050D01*
X48085Y133295D02*
X45461Y135169D01*
Y132357D01*
X48085Y133295D02*
X44149D01*
X71564Y130300D02*
X75500D01*
X71564D02*
Y131987D01*
X71751Y132549D01*
X71939Y132737D01*
X72314Y132924D01*
X72689D01*
X73063Y132737D01*
X73251Y132549D01*
X73438Y131987D01*
Y130300D01*
Y131612D02*
X75500Y132924D01*
X72314Y133805D02*
X72126Y134180D01*
X71564Y134742D01*
X75500D01*
X72876Y139128D02*
X73438Y138941D01*
X73813Y138566D01*
X74001Y138004D01*
Y137816D01*
X73813Y137254D01*
X73438Y136879D01*
X72876Y136692D01*
X72689D01*
X72126Y136879D01*
X71751Y137254D01*
X71564Y137816D01*
Y138004D01*
X71751Y138566D01*
X72126Y138941D01*
X72876Y139128D01*
X73813D01*
X74750Y138941D01*
X75313Y138566D01*
X75500Y138004D01*
Y137629D01*
X75313Y137066D01*
X74938Y136879D01*
X51039Y158075D02*
X54976D01*
X51039D02*
Y159762D01*
X51227Y160324D01*
X51414Y160512D01*
X51789Y160699D01*
X52164D01*
X52539Y160512D01*
X52726Y160324D01*
X52914Y159762D01*
Y158075D01*
Y159387D02*
X54976Y160699D01*
X51977Y161767D02*
X51789D01*
X51414Y161955D01*
X51227Y162142D01*
X51039Y162517D01*
Y163267D01*
X51227Y163642D01*
X51414Y163829D01*
X51789Y164016D01*
X52164D01*
X52539Y163829D01*
X53101Y163454D01*
X54976Y161580D01*
Y164204D01*
D14*
X122759Y134434D02*
X126091Y131102D01*
X122759D02*
X126091Y134434D01*
X122759Y132768D02*
X126091D01*
X124425Y131102D02*
Y134434D01*
D59*
X295116Y169065D02*
X292717D01*
Y170264D01*
X293117Y170664D01*
X293917D01*
X294317Y170264D01*
Y169065D01*
X293117Y173063D02*
X292717Y172663D01*
Y171864D01*
X293117Y171464D01*
X294717D01*
X295116Y171864D01*
Y172663D01*
X294717Y173063D01*
X292717Y173863D02*
X295116D01*
Y175063D01*
X294717Y175462D01*
X294317D01*
X293917Y175063D01*
Y173863D01*
Y175063D01*
X293517Y175462D01*
X293117D01*
X292717Y175063D01*
Y173863D01*
Y180261D02*
Y178661D01*
X295116D01*
Y180261D01*
X293917Y178661D02*
Y179461D01*
X292717Y181061D02*
X295116D01*
Y182260D01*
X294717Y182660D01*
X293117D01*
X292717Y182260D01*
Y181061D01*
X293117Y185059D02*
X292717Y184660D01*
Y183860D01*
X293117Y183460D01*
X294717D01*
X295116Y183860D01*
Y184660D01*
X294717Y185059D01*
X293917D01*
Y184260D01*
X292717Y187459D02*
Y185859D01*
X295116D01*
Y187459D01*
X293917Y185859D02*
Y186659D01*
D60*
X215310Y52552D02*
Y59442D01*
X211570Y52552D02*
Y59442D01*
X215310D01*
X211570Y52552D02*
X215310D01*
X213855Y78970D02*
X220745D01*
X213855Y75230D02*
X220745D01*
X213855D02*
Y78970D01*
X220745Y75230D02*
Y78970D01*
X51531Y133851D02*
X58420D01*
X51531Y137591D02*
X58420D01*
Y133851D02*
Y137591D01*
X51531Y133851D02*
Y137591D01*
X62948Y134245D02*
Y141135D01*
X66688Y134245D02*
Y141135D01*
X62948Y134245D02*
X66688D01*
X62948Y141135D02*
X66688D01*
X60979Y116528D02*
Y123418D01*
X64720Y116528D02*
Y123418D01*
X60979Y116528D02*
X64720D01*
X60979Y123418D02*
X64720D01*
X104090Y57473D02*
Y64363D01*
X100350Y57473D02*
Y64363D01*
X104090D01*
X100350Y57473D02*
X104090D01*
X87948Y61016D02*
X94838D01*
X87948Y64757D02*
X94838D01*
Y61016D02*
Y64757D01*
X87948Y61016D02*
Y64757D01*
X92869Y40347D02*
X99759D01*
X92869Y44087D02*
X99759D01*
Y40347D02*
Y44087D01*
X92869Y40347D02*
Y44087D01*
X105271Y40741D02*
Y47631D01*
X109011Y40741D02*
Y47631D01*
X105271Y40741D02*
X109011D01*
X105271Y47631D02*
X109011D01*
X138145Y12091D02*
X145035D01*
X138145Y8351D02*
X145035D01*
X138145D02*
Y12091D01*
X145035Y8351D02*
Y12091D01*
X62357Y159158D02*
X69247D01*
X62357Y162898D02*
X69247D01*
Y159158D02*
Y162898D01*
X62357Y159158D02*
Y162898D01*
X73775Y154630D02*
X77515D01*
X73775Y161520D02*
X77515D01*
X73775Y154630D02*
Y161520D01*
X77515Y154630D02*
Y161520D01*
X254400Y36300D02*
Y96300D01*
X244400D02*
X254400D01*
X244400Y36300D02*
Y96300D01*
Y36300D02*
X254400D01*
X212955Y108470D02*
X219845D01*
X212955Y104730D02*
X219845D01*
X212955D02*
Y108470D01*
X219845Y104730D02*
Y108470D01*
X232730Y115255D02*
Y122145D01*
X236470Y115255D02*
Y122145D01*
X232730Y115255D02*
X236470D01*
X232730Y122145D02*
X236470D01*
X213355Y133970D02*
X220245D01*
X213355Y130230D02*
X220245D01*
X213355D02*
Y133970D01*
X220245Y130230D02*
Y133970D01*
X220724Y175013D02*
Y185013D01*
X160724Y175013D02*
X220724D01*
X160724D02*
Y185013D01*
X220724D01*
X92869Y150584D02*
X99759D01*
X92869Y154324D02*
X99759D01*
Y150584D02*
Y154324D01*
X92869Y150584D02*
Y154324D01*
X108027Y147040D02*
Y153930D01*
X104287Y147040D02*
Y153930D01*
X108027D01*
X104287Y147040D02*
X108027D01*
X116230Y167555D02*
Y174445D01*
X119970Y167555D02*
Y174445D01*
X116230Y167555D02*
X119970D01*
X116230Y174445D02*
X119970D01*
X126355Y165530D02*
Y169270D01*
X133245Y165530D02*
Y169270D01*
X126355D02*
X133245D01*
X126355Y165530D02*
X133245D01*
X138735Y173615D02*
X142476D01*
X138735Y166725D02*
X142476D01*
Y173615D01*
X138735Y166725D02*
Y173615D01*
X152930Y156245D02*
X156670D01*
X152930Y149355D02*
X156670D01*
Y156245D01*
X152930Y149355D02*
Y156245D01*
X204090Y149599D02*
X210980D01*
X204090Y153339D02*
X210980D01*
Y149599D02*
Y153339D01*
X204090Y149599D02*
Y153339D01*
X205665Y29914D02*
X209405D01*
X205665Y23024D02*
X209405D01*
Y29914D01*
X205665Y23024D02*
Y29914D01*
X228245Y88230D02*
Y91970D01*
X221355Y88230D02*
Y91970D01*
Y88230D02*
X228245D01*
X221355Y91970D02*
X228245D01*
X226745Y96130D02*
Y99870D01*
X219855Y96130D02*
Y99870D01*
Y96130D02*
X226745D01*
X219855Y99870D02*
X226745D01*
X247945Y115130D02*
Y118870D01*
X241055Y115130D02*
Y118870D01*
Y115130D02*
X247945D01*
X241055Y118870D02*
X247945D01*
X250755Y127370D02*
X257645D01*
X250755Y123630D02*
X257645D01*
X250755D02*
Y127370D01*
X257645Y123630D02*
Y127370D01*
X171830Y39055D02*
X175570D01*
X171830Y45945D02*
X175570D01*
X171830Y39055D02*
Y45945D01*
X175570Y39055D02*
Y45945D01*
X184011Y24009D02*
Y30898D01*
X187751Y24009D02*
Y30898D01*
X184011Y24009D02*
X187751D01*
X184011Y30898D02*
X187751D01*
X193460Y22631D02*
Y26371D01*
X200350Y22631D02*
Y26371D01*
X193460D02*
X200350D01*
X193460Y22631D02*
X200350D01*
X148578Y38772D02*
X152318D01*
X148578Y45662D02*
X152318D01*
X148578Y38772D02*
Y45662D01*
X152318Y38772D02*
Y45662D01*
X49562Y48221D02*
Y51961D01*
X56452Y48221D02*
Y51961D01*
X49562D02*
X56452D01*
X49562Y48221D02*
X56452D01*
X54090Y35820D02*
X57830D01*
X54090Y42709D02*
X57830D01*
X54090Y35820D02*
Y42709D01*
X57830Y35820D02*
Y42709D01*
X78499Y22040D02*
Y28930D01*
X74759Y22040D02*
Y28930D01*
X78499D01*
X74759Y22040D02*
X78499D01*
X70231Y58064D02*
Y61804D01*
X63342Y58064D02*
Y61804D01*
Y58064D02*
X70231D01*
X63342Y61804D02*
X70231D01*
X84011Y26568D02*
Y30308D01*
X90901Y26568D02*
Y30308D01*
X84011D02*
X90901D01*
X84011Y26568D02*
X90901D01*
X81452Y56489D02*
Y63379D01*
X77712Y56489D02*
Y63379D01*
X81452D01*
X77712Y56489D02*
X81452D01*
X83617Y41725D02*
Y48615D01*
X87357Y41725D02*
Y48615D01*
X83617Y41725D02*
X87357D01*
X83617Y48615D02*
X87357D01*
X45035Y76174D02*
Y83064D01*
X41295Y76174D02*
Y83064D01*
X45035D01*
X41295Y76174D02*
X45035D01*
X53105Y82079D02*
X56846D01*
X53105Y75190D02*
X56846D01*
Y82079D01*
X53105Y75190D02*
Y82079D01*
X43955Y92370D02*
X50845D01*
X43955Y88630D02*
X50845D01*
X43955D02*
Y92370D01*
X50845Y88630D02*
Y92370D01*
X74562Y85032D02*
Y91922D01*
X70822Y85032D02*
Y91922D01*
X74562D01*
X70822Y85032D02*
X74562D01*
X118770Y7555D02*
Y14445D01*
X115030Y7555D02*
Y14445D01*
X118770D01*
X115030Y7555D02*
X118770D01*
X96413Y22040D02*
X100153D01*
X96413Y28930D02*
X100153D01*
X96413Y22040D02*
Y28930D01*
X100153Y22040D02*
Y28930D01*
X124169Y11304D02*
Y15044D01*
X131058Y11304D02*
Y15044D01*
X124169D02*
X131058D01*
X124169Y11304D02*
X131058D01*
X125940Y38772D02*
X129680D01*
X125940Y45662D02*
X129680D01*
X125940Y38772D02*
Y45662D01*
X129680Y38772D02*
Y45662D01*
X103770Y79555D02*
Y86445D01*
X100030Y79555D02*
Y86445D01*
X103770D01*
X100030Y79555D02*
X103770D01*
X104455Y97830D02*
Y101570D01*
X111345Y97830D02*
Y101570D01*
X104455D02*
X111345D01*
X104455Y97830D02*
X111345D01*
X40310Y116528D02*
Y123418D01*
X44050Y116528D02*
Y123418D01*
X40310Y116528D02*
X44050D01*
X40310Y123418D02*
X44050D01*
X49562Y115150D02*
Y118891D01*
X56452Y115150D02*
Y118891D01*
X49562D02*
X56452D01*
X49562Y115150D02*
X56452D01*
X42279Y135229D02*
Y142119D01*
X46019Y135229D02*
Y142119D01*
X42279Y135229D02*
X46019D01*
X42279Y142119D02*
X46019D01*
X73775Y131292D02*
X77515D01*
X73775Y138182D02*
X77515D01*
X73775Y131292D02*
Y138182D01*
X77515Y131292D02*
Y138182D01*
X56846Y154630D02*
Y161520D01*
X53105Y154630D02*
Y161520D01*
X56846D01*
X53105Y154630D02*
X56846D01*
X126924Y154914D02*
X130665D01*
X126924Y148024D02*
X130665D01*
Y154914D01*
X126924Y148024D02*
Y154914D01*
X172830Y155945D02*
X176570D01*
X172830Y149055D02*
X176570D01*
Y155945D01*
X172830Y149055D02*
Y155945D01*
X104680Y120072D02*
Y123812D01*
X111570Y120072D02*
Y123812D01*
X104680D02*
X111570D01*
X104680Y120072D02*
X111570D01*
X108230Y107255D02*
X111970D01*
X108230Y114145D02*
X111970D01*
X108230Y107255D02*
Y114145D01*
X111970Y107255D02*
Y114145D01*
D61*
X122509Y57585D02*
Y137085D01*
X202009D01*
Y57585D02*
Y137085D01*
X122509Y57585D02*
X202009D01*
X122509Y132085D02*
X127509Y137085D01*
X202009Y132334D02*
X205959D01*
Y131234D02*
Y132334D01*
X202009Y131234D02*
X205959D01*
X202009D02*
Y132334D01*
Y130366D02*
X205959D01*
Y129266D02*
Y130366D01*
X202009Y129266D02*
X205959D01*
X202009D02*
Y130366D01*
Y128397D02*
X205959D01*
Y127297D02*
Y128397D01*
X202009Y127297D02*
X205959D01*
X202009D02*
Y128397D01*
Y126429D02*
X205959D01*
Y125329D02*
Y126429D01*
X202009Y125329D02*
X205959D01*
X202009D02*
Y126429D01*
Y124460D02*
X205959D01*
Y123360D02*
Y124460D01*
X202009Y123360D02*
X205959D01*
X202009D02*
Y124460D01*
Y122492D02*
X205959D01*
Y121392D02*
Y122492D01*
X202009Y121392D02*
X205959D01*
X202009D02*
Y122492D01*
Y120523D02*
X205959D01*
Y119423D02*
Y120523D01*
X202009Y119423D02*
X205959D01*
X202009D02*
Y120523D01*
Y118555D02*
X205959D01*
Y117455D02*
Y118555D01*
X202009Y117455D02*
X205959D01*
X202009D02*
Y118555D01*
Y116586D02*
X205959D01*
Y115486D02*
Y116586D01*
X202009Y115486D02*
X205959D01*
X202009D02*
Y116586D01*
Y114618D02*
X205959D01*
Y113518D02*
Y114618D01*
X202009Y113518D02*
X205959D01*
X202009D02*
Y114618D01*
Y112649D02*
X205959D01*
Y111549D02*
Y112649D01*
X202009Y111549D02*
X205959D01*
X202009D02*
Y112649D01*
Y110681D02*
X205959D01*
Y109581D02*
Y110681D01*
X202009Y109581D02*
X205959D01*
X202009D02*
Y110681D01*
Y108712D02*
X205959D01*
Y107612D02*
Y108712D01*
X202009Y107612D02*
X205959D01*
X202009D02*
Y108712D01*
Y106744D02*
X205959D01*
Y105644D02*
Y106744D01*
X202009Y105644D02*
X205959D01*
X202009D02*
Y106744D01*
Y104775D02*
X205959D01*
Y103675D02*
Y104775D01*
X202009Y103675D02*
X205959D01*
X202009D02*
Y104775D01*
Y102807D02*
X205959D01*
Y101707D02*
Y102807D01*
X202009Y101707D02*
X205959D01*
X202009D02*
Y102807D01*
Y100838D02*
X205959D01*
Y99738D02*
Y100838D01*
X202009Y99738D02*
X205959D01*
X202009D02*
Y100838D01*
Y98870D02*
X205959D01*
Y97770D02*
Y98870D01*
X202009Y97770D02*
X205959D01*
X202009D02*
Y98870D01*
Y96901D02*
X205959D01*
Y95801D02*
Y96901D01*
X202009Y95801D02*
X205959D01*
X202009D02*
Y96901D01*
Y94933D02*
X205959D01*
Y93833D02*
Y94933D01*
X202009Y93833D02*
X205959D01*
X202009D02*
Y94933D01*
Y92964D02*
X205959D01*
Y91864D02*
Y92964D01*
X202009Y91864D02*
X205959D01*
X202009D02*
Y92964D01*
Y90996D02*
X205959D01*
Y89896D02*
Y90996D01*
X202009Y89896D02*
X205959D01*
X202009D02*
Y90996D01*
Y89027D02*
X205959D01*
Y87927D02*
Y89027D01*
X202009Y87927D02*
X205959D01*
X202009D02*
Y89027D01*
Y87059D02*
X205959D01*
Y85959D02*
Y87059D01*
X202009Y85959D02*
X205959D01*
X202009D02*
Y87059D01*
Y85090D02*
X205959D01*
Y83990D02*
Y85090D01*
X202009Y83990D02*
X205959D01*
X202009D02*
Y85090D01*
Y83122D02*
X205959D01*
Y82022D02*
Y83122D01*
X202009Y82022D02*
X205959D01*
X202009D02*
Y83122D01*
Y81153D02*
X205959D01*
Y80053D02*
Y81153D01*
X202009Y80053D02*
X205959D01*
X202009D02*
Y81153D01*
Y79185D02*
X205959D01*
Y78085D02*
Y79185D01*
X202009Y78085D02*
X205959D01*
X202009D02*
Y79185D01*
Y77216D02*
X205959D01*
Y76116D02*
Y77216D01*
X202009Y76116D02*
X205959D01*
X202009D02*
Y77216D01*
Y75248D02*
X205959D01*
Y74148D02*
Y75248D01*
X202009Y74148D02*
X205959D01*
X202009D02*
Y75248D01*
Y73279D02*
X205959D01*
Y72179D02*
Y73279D01*
X202009Y72179D02*
X205959D01*
X202009D02*
Y73279D01*
Y71311D02*
X205959D01*
Y70211D02*
Y71311D01*
X202009Y70211D02*
X205959D01*
X202009D02*
Y71311D01*
Y69342D02*
X205959D01*
Y68242D02*
Y69342D01*
X202009Y68242D02*
X205959D01*
X202009D02*
Y69342D01*
Y67374D02*
X205959D01*
Y66274D02*
Y67374D01*
X202009Y66274D02*
X205959D01*
X202009D02*
Y67374D01*
Y65405D02*
X205959D01*
Y64305D02*
Y65405D01*
X202009Y64305D02*
X205959D01*
X202009D02*
Y65405D01*
Y63437D02*
X205959D01*
Y62337D02*
Y63437D01*
X202009Y62337D02*
X205959D01*
X202009D02*
Y63437D01*
X197258Y53635D02*
Y57585D01*
X196158Y53635D02*
X197258D01*
X196158D02*
Y57585D01*
X197258D01*
X195289Y53635D02*
Y57585D01*
X194189Y53635D02*
X195289D01*
X194189D02*
Y57585D01*
X195289D01*
X193321Y53635D02*
Y57585D01*
X192221Y53635D02*
X193321D01*
X192221D02*
Y57585D01*
X193321D01*
X191352Y53635D02*
Y57585D01*
X190252Y53635D02*
X191352D01*
X190252D02*
Y57585D01*
X191352D01*
X189384Y53635D02*
Y57585D01*
X188284Y53635D02*
X189384D01*
X188284D02*
Y57585D01*
X189384D01*
X187415Y53635D02*
Y57585D01*
X186315Y53635D02*
X187415D01*
X186315D02*
Y57585D01*
X187415D01*
X185447Y53635D02*
Y57585D01*
X184347Y53635D02*
X185447D01*
X184347D02*
Y57585D01*
X185447D01*
X183478Y53635D02*
Y57585D01*
X182378Y53635D02*
X183478D01*
X182378D02*
Y57585D01*
X183478D01*
X181510Y53635D02*
Y57585D01*
X180410Y53635D02*
X181510D01*
X180410D02*
Y57585D01*
X181510D01*
X179541Y53635D02*
Y57585D01*
X178441Y53635D02*
X179541D01*
X178441D02*
Y57585D01*
X179541D01*
X177573Y53635D02*
Y57585D01*
X176473Y53635D02*
X177573D01*
X176473D02*
Y57585D01*
X177573D01*
X175604Y53635D02*
Y57585D01*
X174504Y53635D02*
X175604D01*
X174504D02*
Y57585D01*
X175604D01*
X173636Y53635D02*
Y57585D01*
X172536Y53635D02*
X173636D01*
X172536D02*
Y57585D01*
X173636D01*
X171667Y53635D02*
Y57585D01*
X170567Y53635D02*
X171667D01*
X170567D02*
Y57585D01*
X171667D01*
X169699Y53635D02*
Y57585D01*
X168599Y53635D02*
X169699D01*
X168599D02*
Y57585D01*
X169699D01*
X167730Y53635D02*
Y57585D01*
X166630Y53635D02*
X167730D01*
X166630D02*
Y57585D01*
X167730D01*
X165762Y53635D02*
Y57585D01*
X164662Y53635D02*
X165762D01*
X164662D02*
Y57585D01*
X165762D01*
X163793Y53635D02*
Y57585D01*
X162693Y53635D02*
X163793D01*
X162693D02*
Y57585D01*
X163793D01*
X161825Y53635D02*
Y57585D01*
X160725Y53635D02*
X161825D01*
X160725D02*
Y57585D01*
X161825D01*
X159856Y53635D02*
Y57585D01*
X158756Y53635D02*
X159856D01*
X158756D02*
Y57585D01*
X159856D01*
X157888Y53635D02*
Y57585D01*
X156788Y53635D02*
X157888D01*
X156788D02*
Y57585D01*
X157888D01*
X155919Y53635D02*
Y57585D01*
X154819Y53635D02*
X155919D01*
X154819D02*
Y57585D01*
X155919D01*
X153951Y53635D02*
Y57585D01*
X152851Y53635D02*
X153951D01*
X152851D02*
Y57585D01*
X153951D01*
X151982Y53635D02*
Y57585D01*
X150882Y53635D02*
X151982D01*
X150882D02*
Y57585D01*
X151982D01*
X150014Y53635D02*
Y57585D01*
X148914Y53635D02*
X150014D01*
X148914D02*
Y57585D01*
X150014D01*
X148045Y53635D02*
Y57585D01*
X146945Y53635D02*
X148045D01*
X146945D02*
Y57585D01*
X148045D01*
X146077Y53635D02*
Y57585D01*
X144977Y53635D02*
X146077D01*
X144977D02*
Y57585D01*
X146077D01*
X144108Y53635D02*
Y57585D01*
X143008Y53635D02*
X144108D01*
X143008D02*
Y57585D01*
X144108D01*
X142140Y53635D02*
Y57585D01*
X141040Y53635D02*
X142140D01*
X141040D02*
Y57585D01*
X142140D01*
X140171Y53635D02*
Y57585D01*
X139071Y53635D02*
X140171D01*
X139071D02*
Y57585D01*
X140171D01*
X138203Y53635D02*
Y57585D01*
X137103Y53635D02*
X138203D01*
X137103D02*
Y57585D01*
X138203D01*
X136234Y53635D02*
Y57585D01*
X135134Y53635D02*
X136234D01*
X135134D02*
Y57585D01*
X136234D01*
X134266Y53635D02*
Y57585D01*
X133166Y53635D02*
X134266D01*
X133166D02*
Y57585D01*
X134266D01*
X132297Y53635D02*
Y57585D01*
X131197Y53635D02*
X132297D01*
X131197D02*
Y57585D01*
X132297D01*
X130329Y53635D02*
Y57585D01*
X129229Y53635D02*
X130329D01*
X129229D02*
Y57585D01*
X130329D01*
X128360Y53635D02*
Y57585D01*
X127260Y53635D02*
X128360D01*
X127260D02*
Y57585D01*
X128360D01*
X118559Y62337D02*
X122509D01*
X118559D02*
Y63437D01*
X122509D01*
Y62337D02*
Y63437D01*
X118559Y64305D02*
X122509D01*
X118559D02*
Y65405D01*
X122509D01*
Y64305D02*
Y65405D01*
X118559Y66274D02*
X122509D01*
X118559D02*
Y67374D01*
X122509D01*
Y66274D02*
Y67374D01*
X118559Y68242D02*
X122509D01*
X118559D02*
Y69342D01*
X122509D01*
Y68242D02*
Y69342D01*
X118559Y70211D02*
X122509D01*
X118559D02*
Y71311D01*
X122509D01*
Y70211D02*
Y71311D01*
X118559Y72179D02*
X122509D01*
X118559D02*
Y73279D01*
X122509D01*
Y72179D02*
Y73279D01*
X118559Y74148D02*
X122509D01*
X118559D02*
Y75248D01*
X122509D01*
Y74148D02*
Y75248D01*
X118559Y76116D02*
X122509D01*
X118559D02*
Y77216D01*
X122509D01*
Y76116D02*
Y77216D01*
X118559Y78085D02*
X122509D01*
X118559D02*
Y79185D01*
X122509D01*
Y78085D02*
Y79185D01*
X118559Y80053D02*
X122509D01*
X118559D02*
Y81153D01*
X122509D01*
Y80053D02*
Y81153D01*
X118559Y82022D02*
X122509D01*
X118559D02*
Y83122D01*
X122509D01*
Y82022D02*
Y83122D01*
X118559Y83990D02*
X122509D01*
X118559D02*
Y85090D01*
X122509D01*
Y83990D02*
Y85090D01*
X118559Y85959D02*
X122509D01*
X118559D02*
Y87059D01*
X122509D01*
Y85959D02*
Y87059D01*
X118559Y87927D02*
X122509D01*
X118559D02*
Y89027D01*
X122509D01*
Y87927D02*
Y89027D01*
X118559Y89896D02*
X122509D01*
X118559D02*
Y90996D01*
X122509D01*
Y89896D02*
Y90996D01*
X118559Y91864D02*
X122509D01*
X118559D02*
Y92964D01*
X122509D01*
Y91864D02*
Y92964D01*
X118559Y93833D02*
X122509D01*
X118559D02*
Y94933D01*
X122509D01*
Y93833D02*
Y94933D01*
X118559Y95801D02*
X122509D01*
X118559D02*
Y96901D01*
X122509D01*
Y95801D02*
Y96901D01*
X118559Y97770D02*
X122509D01*
X118559D02*
Y98870D01*
X122509D01*
Y97770D02*
Y98870D01*
X118559Y99738D02*
X122509D01*
X118559D02*
Y100838D01*
X122509D01*
Y99738D02*
Y100838D01*
X118559Y101707D02*
X122509D01*
X118559D02*
Y102807D01*
X122509D01*
Y101707D02*
Y102807D01*
X118559Y103675D02*
X122509D01*
X118559D02*
Y104775D01*
X122509D01*
Y103675D02*
Y104775D01*
X118559Y105644D02*
X122509D01*
X118559D02*
Y106744D01*
X122509D01*
Y105644D02*
Y106744D01*
X118559Y107612D02*
X122509D01*
X118559D02*
Y108712D01*
X122509D01*
Y107612D02*
Y108712D01*
X118559Y109581D02*
X122509D01*
X118559D02*
Y110681D01*
X122509D01*
Y109581D02*
Y110681D01*
X118559Y111549D02*
X122509D01*
X118559D02*
Y112649D01*
X122509D01*
Y111549D02*
Y112649D01*
X118559Y113518D02*
X122509D01*
X118559D02*
Y114618D01*
X122509D01*
Y113518D02*
Y114618D01*
X118559Y115486D02*
X122509D01*
X118559D02*
Y116586D01*
X122509D01*
Y115486D02*
Y116586D01*
X118559Y117455D02*
X122509D01*
X118559D02*
Y118555D01*
X122509D01*
Y117455D02*
Y118555D01*
X118559Y119423D02*
X122509D01*
X118559D02*
Y120523D01*
X122509D01*
Y119423D02*
Y120523D01*
X118559Y121392D02*
X122509D01*
X118559D02*
Y122492D01*
X122509D01*
Y121392D02*
Y122492D01*
X118559Y123360D02*
X122509D01*
X118559D02*
Y124460D01*
X122509D01*
Y123360D02*
Y124460D01*
X118559Y125329D02*
X122509D01*
X118559D02*
Y126429D01*
X122509D01*
Y125329D02*
Y126429D01*
X118559Y127297D02*
X122509D01*
X118559D02*
Y128397D01*
X122509D01*
Y127297D02*
Y128397D01*
X118559Y129266D02*
X122509D01*
X118559D02*
Y130366D01*
X122509D01*
Y129266D02*
Y130366D01*
X118559Y131234D02*
X122509D01*
X118559D02*
Y132334D01*
X122509D01*
Y131234D02*
Y132334D01*
X127260Y137085D02*
Y141035D01*
X128360D01*
Y137085D02*
Y141035D01*
X127260Y137085D02*
X128360D01*
X129229D02*
Y141035D01*
X130329D01*
Y137085D02*
Y141035D01*
X129229Y137085D02*
X130329D01*
X131197D02*
Y141035D01*
X132297D01*
Y137085D02*
Y141035D01*
X131197Y137085D02*
X132297D01*
X133166D02*
Y141035D01*
X134266D01*
Y137085D02*
Y141035D01*
X133166Y137085D02*
X134266D01*
X135134D02*
Y141035D01*
X136234D01*
Y137085D02*
Y141035D01*
X135134Y137085D02*
X136234D01*
X137103D02*
Y141035D01*
X138203D01*
Y137085D02*
Y141035D01*
X137103Y137085D02*
X138203D01*
X139071D02*
Y141035D01*
X140171D01*
Y137085D02*
Y141035D01*
X139071Y137085D02*
X140171D01*
X141040D02*
Y141035D01*
X142140D01*
Y137085D02*
Y141035D01*
X141040Y137085D02*
X142140D01*
X143008D02*
Y141035D01*
X144108D01*
Y137085D02*
Y141035D01*
X143008Y137085D02*
X144108D01*
X144977D02*
Y141035D01*
X146077D01*
Y137085D02*
Y141035D01*
X144977Y137085D02*
X146077D01*
X146945D02*
Y141035D01*
X148045D01*
Y137085D02*
Y141035D01*
X146945Y137085D02*
X148045D01*
X148914D02*
Y141035D01*
X150014D01*
Y137085D02*
Y141035D01*
X148914Y137085D02*
X150014D01*
X150882D02*
Y141035D01*
X151982D01*
Y137085D02*
Y141035D01*
X150882Y137085D02*
X151982D01*
X152851D02*
Y141035D01*
X153951D01*
Y137085D02*
Y141035D01*
X152851Y137085D02*
X153951D01*
X154819D02*
Y141035D01*
X155919D01*
Y137085D02*
Y141035D01*
X154819Y137085D02*
X155919D01*
X156788D02*
Y141035D01*
X157888D01*
Y137085D02*
Y141035D01*
X156788Y137085D02*
X157888D01*
X158756D02*
Y141035D01*
X159856D01*
Y137085D02*
Y141035D01*
X158756Y137085D02*
X159856D01*
X160725D02*
Y141035D01*
X161825D01*
Y137085D02*
Y141035D01*
X160725Y137085D02*
X161825D01*
X162693D02*
Y141035D01*
X163793D01*
Y137085D02*
Y141035D01*
X162693Y137085D02*
X163793D01*
X164662D02*
Y141035D01*
X165762D01*
Y137085D02*
Y141035D01*
X164662Y137085D02*
X165762D01*
X166630D02*
Y141035D01*
X167730D01*
Y137085D02*
Y141035D01*
X166630Y137085D02*
X167730D01*
X168599D02*
Y141035D01*
X169699D01*
Y137085D02*
Y141035D01*
X168599Y137085D02*
X169699D01*
X170567D02*
Y141035D01*
X171667D01*
Y137085D02*
Y141035D01*
X170567Y137085D02*
X171667D01*
X172536D02*
Y141035D01*
X173636D01*
Y137085D02*
Y141035D01*
X172536Y137085D02*
X173636D01*
X174504D02*
Y141035D01*
X175604D01*
Y137085D02*
Y141035D01*
X174504Y137085D02*
X175604D01*
X176473D02*
Y141035D01*
X177573D01*
Y137085D02*
Y141035D01*
X176473Y137085D02*
X177573D01*
X178441D02*
Y141035D01*
X179541D01*
Y137085D02*
Y141035D01*
X178441Y137085D02*
X179541D01*
X180410D02*
Y141035D01*
X181510D01*
Y137085D02*
Y141035D01*
X180410Y137085D02*
X181510D01*
X182378D02*
Y141035D01*
X183478D01*
Y137085D02*
Y141035D01*
X182378Y137085D02*
X183478D01*
X184347D02*
Y141035D01*
X185447D01*
Y137085D02*
Y141035D01*
X184347Y137085D02*
X185447D01*
X186315D02*
Y141035D01*
X187415D01*
Y137085D02*
Y141035D01*
X186315Y137085D02*
X187415D01*
X188284D02*
Y141035D01*
X189384D01*
Y137085D02*
Y141035D01*
X188284Y137085D02*
X189384D01*
X190252D02*
Y141035D01*
X191352D01*
Y137085D02*
Y141035D01*
X190252Y137085D02*
X191352D01*
X192221D02*
Y141035D01*
X193321D01*
Y137085D02*
Y141035D01*
X192221Y137085D02*
X193321D01*
X194189D02*
Y141035D01*
X195289D01*
Y137085D02*
Y141035D01*
X194189Y137085D02*
X195289D01*
X196158D02*
Y141035D01*
X197258D01*
Y137085D02*
Y141035D01*
X196158Y137085D02*
X197258D01*
M02*
