G04*
G04 #@! TF.GenerationSoftware,Altium Limited,Altium Designer,21.8.1 (53)*
G04*
G04 Layer_Color=16711935*
%FSLAX25Y25*%
%MOIN*%
G70*
G04*
G04 #@! TF.SameCoordinates,96160027-D82A-49E8-B93D-671BAC76BFE1*
G04*
G04*
G04 #@! TF.FilePolarity,Negative*
G04*
G01*
G75*
%ADD16C,0.01000*%
%ADD19C,0.00800*%
%ADD46R,0.03943X0.03550*%
%ADD49R,0.03550X0.03943*%
%ADD60R,0.05912X0.07487*%
%ADD62C,0.03947*%
%ADD63C,0.05794*%
%ADD64R,0.05794X0.05794*%
%ADD67C,0.06400*%
%ADD68R,0.03947X0.03947*%
%ADD69R,0.05794X0.05794*%
%ADD70C,0.25400*%
%ADD96R,0.12800X0.11500*%
%ADD104R,0.05512X0.12008*%
%ADD107R,0.05750X0.02100*%
%ADD108C,0.07900*%
%ADD110R,0.09416X0.09416*%
%ADD111R,0.14179X0.06699*%
%ADD112R,0.06699X0.14179*%
G04:AMPARAMS|DCode=113|XSize=95.73mil|YSize=124.87mil|CornerRadius=13.47mil|HoleSize=0mil|Usage=FLASHONLY|Rotation=180.000|XOffset=0mil|YOffset=0mil|HoleType=Round|Shape=RoundedRectangle|*
%AMROUNDEDRECTD113*
21,1,0.09573,0.09793,0,0,180.0*
21,1,0.06880,0.12487,0,0,180.0*
1,1,0.02693,-0.03440,0.04897*
1,1,0.02693,0.03440,0.04897*
1,1,0.02693,0.03440,-0.04897*
1,1,0.02693,-0.03440,-0.04897*
%
%ADD113ROUNDEDRECTD113*%
G04:AMPARAMS|DCode=114|XSize=81.56mil|YSize=27.62mil|CornerRadius=4.95mil|HoleSize=0mil|Usage=FLASHONLY|Rotation=270.000|XOffset=0mil|YOffset=0mil|HoleType=Round|Shape=RoundedRectangle|*
%AMROUNDEDRECTD114*
21,1,0.08156,0.01772,0,0,270.0*
21,1,0.07165,0.02762,0,0,270.0*
1,1,0.00991,-0.00886,-0.03583*
1,1,0.00991,-0.00886,0.03583*
1,1,0.00991,0.00886,0.03583*
1,1,0.00991,0.00886,-0.03583*
%
%ADD114ROUNDEDRECTD114*%
%ADD115R,0.08668X0.12211*%
%ADD116R,0.03550X0.06699*%
%ADD117C,0.09100*%
G36*
X79139Y319198D02*
X75389D01*
Y312298D01*
X79139D01*
Y319198D01*
D02*
G37*
G36*
X71658Y333371D02*
X62791D01*
Y320960D01*
X71658D01*
Y333371D01*
D02*
G37*
G36*
X84060Y319198D02*
X80310D01*
Y312298D01*
X84060D01*
Y319198D01*
D02*
G37*
G36*
X88981D02*
X85232D01*
Y312298D01*
X88981D01*
Y319198D01*
D02*
G37*
G36*
X93902D02*
X90153D01*
Y312298D01*
X93902D01*
Y319198D01*
D02*
G37*
G36*
X98824D02*
X95074D01*
Y312298D01*
X98824D01*
Y319198D01*
D02*
G37*
G36*
X103745D02*
X99995D01*
Y312298D01*
X103745D01*
Y319198D01*
D02*
G37*
G36*
X108666D02*
X104917D01*
Y312298D01*
X108666D01*
Y319198D01*
D02*
G37*
G36*
X113587D02*
X109838D01*
Y312298D01*
X113587D01*
Y319198D01*
D02*
G37*
G36*
X126186Y333371D02*
X117318D01*
Y320960D01*
X126186D01*
Y333371D01*
D02*
G37*
G36*
X145477D02*
X136609D01*
Y320960D01*
X145477D01*
Y333371D01*
D02*
G37*
G36*
X152957Y319198D02*
X149208D01*
Y312298D01*
X152957D01*
Y319198D01*
D02*
G37*
G36*
X157879D02*
X154129D01*
Y312298D01*
X157879D01*
Y319198D01*
D02*
G37*
G36*
X162800D02*
X159050D01*
Y312298D01*
X162800D01*
Y319198D01*
D02*
G37*
G36*
X167721D02*
X163972D01*
Y312298D01*
X167721D01*
Y319198D01*
D02*
G37*
G36*
X172643D02*
X168893D01*
Y312298D01*
X172643D01*
Y319198D01*
D02*
G37*
G36*
X177564D02*
X173814D01*
Y312298D01*
X177564D01*
Y319198D01*
D02*
G37*
G36*
X190162Y333371D02*
X181295D01*
Y320960D01*
X190162D01*
Y333371D01*
D02*
G37*
G36*
X218902Y319198D02*
X215153D01*
Y312298D01*
X218902D01*
Y319198D01*
D02*
G37*
G36*
X211422Y333371D02*
X202554D01*
Y320960D01*
X211422D01*
Y333371D01*
D02*
G37*
G36*
X223824Y319198D02*
X220074D01*
Y312298D01*
X223824D01*
Y319198D01*
D02*
G37*
G36*
X228745D02*
X224995D01*
Y312298D01*
X228745D01*
Y319198D01*
D02*
G37*
G36*
X233666D02*
X229917D01*
Y312298D01*
X233666D01*
Y319198D01*
D02*
G37*
G36*
X238587D02*
X234838D01*
Y312298D01*
X238587D01*
Y319198D01*
D02*
G37*
G36*
X243509D02*
X239759D01*
Y312298D01*
X243509D01*
Y319198D01*
D02*
G37*
G36*
X248430D02*
X244680D01*
Y312298D01*
X248430D01*
Y319198D01*
D02*
G37*
G36*
X253351D02*
X249602D01*
Y312298D01*
X253351D01*
Y319198D01*
D02*
G37*
G36*
X265950Y333371D02*
X257082D01*
Y320960D01*
X265950D01*
Y333371D01*
D02*
G37*
G36*
X287702D02*
X278834D01*
Y320960D01*
X287702D01*
Y333371D01*
D02*
G37*
G36*
X295182Y319198D02*
X291432D01*
Y312298D01*
X295182D01*
Y319198D01*
D02*
G37*
G36*
X300103D02*
X296354D01*
Y312298D01*
X300103D01*
Y319198D01*
D02*
G37*
G36*
X305024D02*
X301275D01*
Y312298D01*
X305024D01*
Y319198D01*
D02*
G37*
G36*
X309946D02*
X306196D01*
Y312298D01*
X309946D01*
Y319198D01*
D02*
G37*
G36*
X314867D02*
X311117D01*
Y312298D01*
X314867D01*
Y319198D01*
D02*
G37*
G36*
X319788D02*
X316039D01*
Y312298D01*
X319788D01*
Y319198D01*
D02*
G37*
G36*
X332387Y333371D02*
X323519D01*
Y320960D01*
X332387D01*
Y333371D01*
D02*
G37*
D16*
X377559Y0D02*
Y59055D01*
X63976Y335039D02*
Y354724D01*
X377559Y59055D02*
X377559Y355000D01*
X0Y354724D02*
X63976D01*
X332677Y355000D02*
X377559Y355000D01*
X63976Y335039D02*
X332677Y335615D01*
Y355000D01*
X0Y0D02*
Y354724D01*
D19*
X157480Y0D02*
X377559D01*
X0D02*
X110236D01*
X157480D02*
Y19685D01*
X110236D02*
X157480D01*
X110236Y0D02*
Y19685D01*
D46*
X332874Y234744D02*
D03*
X144500Y178244D02*
D03*
Y183756D02*
D03*
X150500Y178244D02*
D03*
Y183756D02*
D03*
X332874Y240256D02*
D03*
X355118Y258661D02*
D03*
Y264173D02*
D03*
X106693Y307677D02*
D03*
Y302165D02*
D03*
X138229Y108979D02*
D03*
Y103468D02*
D03*
Y97956D02*
D03*
Y92444D02*
D03*
X144135Y103468D02*
D03*
Y97956D02*
D03*
D49*
X141831Y82677D02*
D03*
X136319D02*
D03*
X361811Y234646D02*
D03*
X367323D02*
D03*
D60*
X334252Y263779D02*
D03*
X344488D02*
D03*
D62*
X154371Y88704D02*
D03*
Y93625D02*
D03*
X92560Y108192D02*
D03*
Y103271D02*
D03*
Y98350D02*
D03*
Y93428D02*
D03*
Y88507D02*
D03*
Y83586D02*
D03*
Y78665D02*
D03*
Y73743D02*
D03*
Y68822D02*
D03*
X154371Y108389D02*
D03*
Y103468D02*
D03*
Y98546D02*
D03*
Y83783D02*
D03*
Y78861D02*
D03*
Y73940D02*
D03*
Y69019D02*
D03*
D63*
X369508Y131791D02*
D03*
X359508D02*
D03*
X349508D02*
D03*
X339508D02*
D03*
X329508D02*
D03*
X297992D02*
D03*
X287992D02*
D03*
X277992D02*
D03*
X267992D02*
D03*
X257992D02*
D03*
X46535Y27905D02*
D03*
X56535D02*
D03*
X66535D02*
D03*
X76535D02*
D03*
X86535D02*
D03*
X46000Y8000D02*
D03*
X56000D02*
D03*
X66000D02*
D03*
X76000D02*
D03*
X86000D02*
D03*
X40000Y255000D02*
D03*
Y245000D02*
D03*
Y225000D02*
D03*
Y235000D02*
D03*
Y205000D02*
D03*
Y195000D02*
D03*
Y185000D02*
D03*
Y165000D02*
D03*
Y175000D02*
D03*
Y145000D02*
D03*
Y125000D02*
D03*
Y155000D02*
D03*
Y135000D02*
D03*
Y215000D02*
D03*
Y265000D02*
D03*
X50000Y105000D02*
D03*
Y135000D02*
D03*
Y125000D02*
D03*
Y115000D02*
D03*
Y145000D02*
D03*
Y165000D02*
D03*
Y65000D02*
D03*
Y85000D02*
D03*
Y95000D02*
D03*
Y75000D02*
D03*
Y155000D02*
D03*
X40000Y305000D02*
D03*
Y275000D02*
D03*
Y295000D02*
D03*
X50000Y285000D02*
D03*
Y295000D02*
D03*
X40000Y285000D02*
D03*
X50000Y305000D02*
D03*
Y275000D02*
D03*
Y255000D02*
D03*
Y245000D02*
D03*
Y235000D02*
D03*
Y225000D02*
D03*
Y215000D02*
D03*
Y205000D02*
D03*
Y185000D02*
D03*
Y175000D02*
D03*
Y265000D02*
D03*
Y195000D02*
D03*
X40000Y95000D02*
D03*
Y105000D02*
D03*
Y75000D02*
D03*
Y115000D02*
D03*
Y55000D02*
D03*
Y85000D02*
D03*
Y65000D02*
D03*
X20000Y255000D02*
D03*
Y245000D02*
D03*
Y225000D02*
D03*
Y235000D02*
D03*
Y205000D02*
D03*
Y195000D02*
D03*
Y185000D02*
D03*
Y165000D02*
D03*
Y175000D02*
D03*
Y145000D02*
D03*
Y125000D02*
D03*
Y155000D02*
D03*
Y135000D02*
D03*
Y215000D02*
D03*
Y265000D02*
D03*
X30000Y105000D02*
D03*
Y135000D02*
D03*
Y125000D02*
D03*
Y115000D02*
D03*
Y145000D02*
D03*
Y165000D02*
D03*
Y65000D02*
D03*
Y85000D02*
D03*
Y95000D02*
D03*
Y75000D02*
D03*
Y155000D02*
D03*
X20000Y305000D02*
D03*
Y275000D02*
D03*
Y295000D02*
D03*
X30000Y285000D02*
D03*
Y295000D02*
D03*
X20000Y285000D02*
D03*
X30000Y305000D02*
D03*
Y275000D02*
D03*
Y255000D02*
D03*
Y245000D02*
D03*
Y235000D02*
D03*
Y225000D02*
D03*
Y215000D02*
D03*
Y205000D02*
D03*
Y185000D02*
D03*
Y175000D02*
D03*
Y265000D02*
D03*
Y195000D02*
D03*
X20000Y95000D02*
D03*
Y105000D02*
D03*
Y75000D02*
D03*
Y115000D02*
D03*
Y55000D02*
D03*
Y85000D02*
D03*
Y65000D02*
D03*
D64*
X319508Y131791D02*
D03*
X247992D02*
D03*
X96535Y27905D02*
D03*
X96000Y8000D02*
D03*
D67*
X335500Y316500D02*
D03*
X303400Y299500D02*
D03*
D68*
X92560Y63901D02*
D03*
X154371Y64098D02*
D03*
D69*
X50000Y55000D02*
D03*
X30000D02*
D03*
D70*
X357559Y334724D02*
D03*
Y20000D02*
D03*
X20000Y35000D02*
D03*
Y324724D02*
D03*
D96*
X308169Y231201D02*
D03*
Y264901D02*
D03*
D104*
X327362Y306299D02*
D03*
X345866D02*
D03*
D107*
X108607Y88074D02*
D03*
Y93074D02*
D03*
Y98074D02*
D03*
Y103074D02*
D03*
Y108074D02*
D03*
Y113074D02*
D03*
Y118074D02*
D03*
X130057D02*
D03*
Y113074D02*
D03*
Y108074D02*
D03*
Y103074D02*
D03*
Y98074D02*
D03*
Y93074D02*
D03*
Y88074D02*
D03*
D108*
X206806Y77048D02*
D03*
X226378Y18504D02*
D03*
X185433D02*
D03*
X265700Y18500D02*
D03*
X328000D02*
D03*
D110*
X347638Y240158D02*
D03*
D111*
X298031Y290551D02*
D03*
X320079D02*
D03*
X281496D02*
D03*
X259449D02*
D03*
D112*
X272441Y267717D02*
D03*
Y245669D02*
D03*
D113*
X302205Y211614D02*
D03*
X328701D02*
D03*
D114*
X340138Y230413D02*
D03*
X345138D02*
D03*
X350138D02*
D03*
X355138D02*
D03*
Y249902D02*
D03*
X350138D02*
D03*
X345138D02*
D03*
X340138D02*
D03*
D115*
X116535Y27953D02*
D03*
X151378D02*
D03*
D116*
X126575Y39370D02*
D03*
X131496D02*
D03*
X141339D02*
D03*
X136417D02*
D03*
D117*
X196806Y87048D02*
D03*
X216806D02*
D03*
X196806Y67048D02*
D03*
X216806D02*
D03*
X216378Y28504D02*
D03*
X236378D02*
D03*
X216378Y8504D02*
D03*
X236378D02*
D03*
X175433Y28504D02*
D03*
X195433D02*
D03*
X175433Y8504D02*
D03*
X195433D02*
D03*
X255700Y8500D02*
D03*
Y28500D02*
D03*
X275700Y8500D02*
D03*
Y28500D02*
D03*
X318000Y8500D02*
D03*
Y28500D02*
D03*
X338000Y8500D02*
D03*
Y28500D02*
D03*
M02*
