G04*
G04 #@! TF.GenerationSoftware,Altium Limited,Altium Designer,21.8.1 (53)*
G04*
G04 Layer_Color=8388736*
%FSLAX25Y25*%
%MOIN*%
G70*
G04*
G04 #@! TF.SameCoordinates,96160027-D82A-49E8-B93D-671BAC76BFE1*
G04*
G04*
G04 #@! TF.FilePolarity,Negative*
G04*
G01*
G75*
%ADD16C,0.01000*%
%ADD19C,0.00800*%
%ADD32R,0.02000X0.04200*%
%ADD38R,0.01200X0.02400*%
%ADD44C,0.01973*%
G04:AMPARAMS|DCode=45|XSize=50.85mil|YSize=19.75mil|CornerRadius=3.97mil|HoleSize=0mil|Usage=FLASHONLY|Rotation=90.000|XOffset=0mil|YOffset=0mil|HoleType=Round|Shape=RoundedRectangle|*
%AMROUNDEDRECTD45*
21,1,0.05085,0.01181,0,0,90.0*
21,1,0.04291,0.01975,0,0,90.0*
1,1,0.00794,0.00591,0.02146*
1,1,0.00794,0.00591,-0.02146*
1,1,0.00794,-0.00591,-0.02146*
1,1,0.00794,-0.00591,0.02146*
%
%ADD45ROUNDEDRECTD45*%
%ADD46R,0.03943X0.03550*%
%ADD47R,0.14179X0.02762*%
%ADD48R,0.03550X0.03550*%
%ADD49R,0.03550X0.03943*%
%ADD50R,0.02565X0.02565*%
%ADD51R,0.03550X0.03550*%
%ADD52R,0.03943X0.01581*%
G04:AMPARAMS|DCode=53|XSize=94.55mil|YSize=43.37mil|CornerRadius=0mil|HoleSize=0mil|Usage=FLASHONLY|Rotation=90.000|XOffset=0mil|YOffset=0mil|HoleType=Round|Shape=RoundedRectangle|*
%AMROUNDEDRECTD53*
21,1,0.09455,0.04337,0,0,90.0*
21,1,0.09455,0.04337,0,0,90.0*
1,1,0.00000,0.02169,0.04728*
1,1,0.00000,0.02169,-0.04728*
1,1,0.00000,-0.02169,-0.04728*
1,1,0.00000,-0.02169,0.04728*
%
%ADD53ROUNDEDRECTD53*%
G04:AMPARAMS|DCode=54|XSize=94.55mil|YSize=43.37mil|CornerRadius=0mil|HoleSize=0mil|Usage=FLASHONLY|Rotation=0.000|XOffset=0mil|YOffset=0mil|HoleType=Round|Shape=RoundedRectangle|*
%AMROUNDEDRECTD54*
21,1,0.09455,0.04337,0,0,0.0*
21,1,0.09455,0.04337,0,0,0.0*
1,1,0.00000,0.04728,-0.02169*
1,1,0.00000,-0.04728,-0.02169*
1,1,0.00000,-0.04728,0.02169*
1,1,0.00000,0.04728,0.02169*
%
%ADD54ROUNDEDRECTD54*%
%ADD55R,0.00991X0.01699*%
%ADD56R,0.02565X0.02565*%
%ADD57R,0.05715X0.01778*%
%ADD58R,0.01778X0.05715*%
%ADD59R,0.07487X0.05912*%
%ADD60R,0.05912X0.07487*%
%ADD61R,0.01778X0.05912*%
%ADD62C,0.03947*%
%ADD63C,0.05794*%
%ADD64R,0.05794X0.05794*%
%ADD65C,0.07087*%
%ADD66C,0.10439*%
%ADD67C,0.06400*%
%ADD68R,0.03947X0.03947*%
%ADD69R,0.05794X0.05794*%
%ADD70C,0.25400*%
G36*
X360965Y230523D02*
X354066D01*
Y234272D01*
X360965D01*
Y230523D01*
D02*
G37*
G36*
X375139Y217924D02*
X362728D01*
Y226792D01*
X375139D01*
Y217924D01*
D02*
G37*
G36*
Y204542D02*
X362728D01*
Y213410D01*
X375139D01*
Y204542D01*
D02*
G37*
G36*
X360965Y197062D02*
X354066D01*
Y200812D01*
X360965D01*
Y197062D01*
D02*
G37*
G36*
Y192141D02*
X354066D01*
Y195891D01*
X360965D01*
Y192141D01*
D02*
G37*
G36*
Y187220D02*
X354066D01*
Y190969D01*
X360965D01*
Y187220D01*
D02*
G37*
G36*
Y182298D02*
X354066D01*
Y186048D01*
X360965D01*
Y182298D01*
D02*
G37*
G36*
Y177377D02*
X354066D01*
Y181127D01*
X360965D01*
Y177377D01*
D02*
G37*
G36*
Y172456D02*
X354066D01*
Y176206D01*
X360965D01*
Y172456D01*
D02*
G37*
G36*
X375139Y159857D02*
X362728D01*
Y168725D01*
X375139D01*
Y159857D01*
D02*
G37*
G36*
X156344Y62124D02*
X152398D01*
Y66071D01*
X156344D01*
Y62124D01*
D02*
G37*
G36*
X94533Y61927D02*
X90587D01*
Y65874D01*
X94533D01*
Y61927D01*
D02*
G37*
G36*
X208169Y44488D02*
X209350D01*
Y43701D01*
X207677D01*
X207087Y43110D01*
Y41437D01*
X206299D01*
Y43110D01*
X205709Y43701D01*
X204035D01*
Y44488D01*
X205217D01*
X206004Y44685D01*
X207382D01*
X208169Y44488D01*
D02*
G37*
G36*
X354066Y235444D02*
Y239194D01*
X360965D01*
Y235444D01*
X354066D01*
D02*
G37*
G36*
Y240365D02*
Y244115D01*
X360965D01*
Y240365D01*
X354066D01*
D02*
G37*
G36*
Y245287D02*
Y249036D01*
X360965D01*
Y245287D01*
X354066D01*
D02*
G37*
G36*
Y250208D02*
Y253958D01*
X360965D01*
Y250208D01*
X354066D01*
D02*
G37*
G36*
Y255129D02*
Y258879D01*
X360965D01*
Y255129D01*
X354066D01*
D02*
G37*
G36*
Y260050D02*
Y263800D01*
X360965D01*
Y260050D01*
X354066D01*
D02*
G37*
G36*
Y264972D02*
Y268721D01*
X360965D01*
Y264972D01*
X354066D01*
D02*
G37*
G36*
Y269893D02*
Y273642D01*
X360965D01*
Y269893D01*
X354066D01*
D02*
G37*
G36*
Y274814D02*
Y278564D01*
X360965D01*
Y274814D01*
X354066D01*
D02*
G37*
G36*
Y279735D02*
Y283485D01*
X360965D01*
Y279735D01*
X354066D01*
D02*
G37*
G36*
Y284657D02*
Y288406D01*
X360965D01*
Y284657D01*
X354066D01*
D02*
G37*
G36*
Y289578D02*
Y293328D01*
X360965D01*
Y289578D01*
X354066D01*
D02*
G37*
G36*
Y294499D02*
Y298249D01*
X360965D01*
Y294499D01*
X354066D01*
D02*
G37*
G36*
X362728Y301979D02*
Y310847D01*
X375139D01*
Y301979D01*
X362728D01*
D02*
G37*
D16*
X377559Y0D02*
Y59055D01*
X63976Y335039D02*
Y354724D01*
X377559Y59055D02*
X377559Y355000D01*
X0Y354724D02*
X63976D01*
X332677Y355000D02*
X377559Y355000D01*
X63976Y335039D02*
X332677Y335615D01*
Y355000D01*
X0Y0D02*
Y354724D01*
D19*
X157480Y0D02*
X377559D01*
X0D02*
X110236D01*
X157480D02*
Y19685D01*
X110236D02*
X157480D01*
X110236Y0D02*
Y19685D01*
D32*
X134442Y138700D02*
D03*
X139758D02*
D03*
Y130700D02*
D03*
X134442D02*
D03*
D38*
X118712Y146379D02*
D03*
X115956D02*
D03*
X113200D02*
D03*
X110444D02*
D03*
X107688D02*
D03*
Y153821D02*
D03*
X110444D02*
D03*
X113200D02*
D03*
X115956D02*
D03*
X118712D02*
D03*
D44*
X93546Y108192D02*
G03*
X93546Y108192I-987J0D01*
G01*
Y103271D02*
G03*
X93546Y103271I-987J0D01*
G01*
Y98350D02*
G03*
X93546Y98350I-987J0D01*
G01*
Y93428D02*
G03*
X93546Y93428I-987J0D01*
G01*
Y88507D02*
G03*
X93546Y88507I-987J0D01*
G01*
Y83586D02*
G03*
X93546Y83586I-987J0D01*
G01*
Y78665D02*
G03*
X93546Y78665I-987J0D01*
G01*
Y73743D02*
G03*
X93546Y73743I-987J0D01*
G01*
Y68822D02*
G03*
X93546Y68822I-987J0D01*
G01*
X155358Y108389D02*
G03*
X155358Y108389I-987J0D01*
G01*
Y103468D02*
G03*
X155358Y103468I-987J0D01*
G01*
Y98546D02*
G03*
X155358Y98546I-987J0D01*
G01*
Y93625D02*
G03*
X155358Y93625I-987J0D01*
G01*
Y88704D02*
G03*
X155358Y88704I-987J0D01*
G01*
Y83783D02*
G03*
X155358Y83783I-987J0D01*
G01*
Y78861D02*
G03*
X155358Y78861I-987J0D01*
G01*
Y73940D02*
G03*
X155358Y73940I-987J0D01*
G01*
Y69019D02*
G03*
X155358Y69019I-987J0D01*
G01*
D45*
X146441Y50759D02*
D03*
X151559D02*
D03*
Y43200D02*
D03*
X149000D02*
D03*
X146441D02*
D03*
D46*
X140200Y44244D02*
D03*
Y49756D02*
D03*
X243110Y225000D02*
D03*
Y230512D02*
D03*
X242913Y268898D02*
D03*
Y274409D02*
D03*
X180300Y218388D02*
D03*
Y223900D02*
D03*
X224803Y56496D02*
D03*
Y50984D02*
D03*
X188484Y50886D02*
D03*
Y56398D02*
D03*
X206693Y59153D02*
D03*
Y53642D02*
D03*
X218504Y285925D02*
D03*
Y280413D02*
D03*
X191634Y268799D02*
D03*
Y274311D02*
D03*
X217421Y310335D02*
D03*
Y304823D02*
D03*
X194390Y56398D02*
D03*
Y50886D02*
D03*
X242831Y298742D02*
D03*
Y293230D02*
D03*
X242110Y243811D02*
D03*
Y238299D02*
D03*
X242831Y287719D02*
D03*
Y282207D02*
D03*
Y317640D02*
D03*
Y312128D02*
D03*
X242110Y249323D02*
D03*
Y254835D02*
D03*
X243110Y186614D02*
D03*
Y181102D02*
D03*
X243110Y199803D02*
D03*
Y194291D02*
D03*
X243110Y166535D02*
D03*
Y161024D02*
D03*
Y155512D02*
D03*
Y150000D02*
D03*
X243110Y210827D02*
D03*
Y205315D02*
D03*
X180600Y205000D02*
D03*
Y199488D02*
D03*
X180200Y179388D02*
D03*
Y184900D02*
D03*
X139764Y144587D02*
D03*
Y150098D02*
D03*
X82100Y200256D02*
D03*
Y194744D02*
D03*
X180100Y245344D02*
D03*
Y250856D02*
D03*
X113620Y270584D02*
D03*
Y265072D02*
D03*
X61024Y255118D02*
D03*
Y249606D02*
D03*
X89500Y253400D02*
D03*
Y258912D02*
D03*
X107700Y270556D02*
D03*
Y265044D02*
D03*
X265800Y50656D02*
D03*
Y45144D02*
D03*
X328100Y50112D02*
D03*
Y44600D02*
D03*
X10000Y281000D02*
D03*
Y275488D02*
D03*
X190847Y293701D02*
D03*
Y299213D02*
D03*
X106733Y64885D02*
D03*
Y70397D02*
D03*
X118544Y110161D02*
D03*
Y115672D02*
D03*
X116670Y46283D02*
D03*
Y51794D02*
D03*
X122580Y46283D02*
D03*
Y51794D02*
D03*
X61024Y264961D02*
D03*
Y270472D02*
D03*
X218898Y56496D02*
D03*
Y50984D02*
D03*
D47*
X290074Y210025D02*
D03*
Y205025D02*
D03*
Y200025D02*
D03*
Y195025D02*
D03*
X254641D02*
D03*
Y200025D02*
D03*
Y205025D02*
D03*
Y210025D02*
D03*
Y215025D02*
D03*
Y230025D02*
D03*
Y225025D02*
D03*
Y220025D02*
D03*
X290074Y215025D02*
D03*
Y220025D02*
D03*
Y225025D02*
D03*
Y230025D02*
D03*
X289748Y254087D02*
D03*
Y249087D02*
D03*
Y244087D02*
D03*
Y239087D02*
D03*
X254315D02*
D03*
Y244087D02*
D03*
Y249087D02*
D03*
Y254087D02*
D03*
Y259087D02*
D03*
Y274087D02*
D03*
Y269087D02*
D03*
Y264087D02*
D03*
X289748Y259087D02*
D03*
Y264087D02*
D03*
Y269087D02*
D03*
Y274087D02*
D03*
X289810Y317832D02*
D03*
Y312832D02*
D03*
Y307832D02*
D03*
Y302832D02*
D03*
X254377Y307832D02*
D03*
Y312832D02*
D03*
Y317832D02*
D03*
Y302832D02*
D03*
Y297832D02*
D03*
Y292832D02*
D03*
Y287832D02*
D03*
Y282832D02*
D03*
X289810D02*
D03*
Y287832D02*
D03*
Y292832D02*
D03*
Y297832D02*
D03*
X290074Y185841D02*
D03*
Y180841D02*
D03*
Y175841D02*
D03*
Y170841D02*
D03*
X254641Y175841D02*
D03*
Y180841D02*
D03*
Y185841D02*
D03*
Y170841D02*
D03*
Y165841D02*
D03*
Y160841D02*
D03*
Y155841D02*
D03*
Y150841D02*
D03*
X290074D02*
D03*
Y155841D02*
D03*
Y160841D02*
D03*
Y165841D02*
D03*
D48*
X10000Y262000D02*
D03*
Y268496D02*
D03*
X6007Y235942D02*
D03*
Y229446D02*
D03*
X6054Y129719D02*
D03*
Y136215D02*
D03*
D49*
X363756Y121000D02*
D03*
X358244D02*
D03*
X83810Y140249D02*
D03*
X78298D02*
D03*
X83810Y153044D02*
D03*
X78298D02*
D03*
X83810Y127453D02*
D03*
X78298D02*
D03*
X185326Y155654D02*
D03*
X190838D02*
D03*
X168405Y260827D02*
D03*
X173917D02*
D03*
X69390Y223721D02*
D03*
X63878D02*
D03*
X80413Y212598D02*
D03*
X74902D02*
D03*
X82284Y221457D02*
D03*
X76772D02*
D03*
X186319Y280020D02*
D03*
X191831D02*
D03*
X191142Y304921D02*
D03*
X185630D02*
D03*
X347949Y289717D02*
D03*
X342437D02*
D03*
X237142Y293411D02*
D03*
X231630D02*
D03*
X237142Y287506D02*
D03*
X231630D02*
D03*
X236417Y243701D02*
D03*
X230906D02*
D03*
X236417Y249606D02*
D03*
X230906D02*
D03*
X237402Y205512D02*
D03*
X231890D02*
D03*
X237417Y161209D02*
D03*
X231906D02*
D03*
X237417Y155303D02*
D03*
X231906D02*
D03*
X237402Y199606D02*
D03*
X231890D02*
D03*
X347949Y295717D02*
D03*
X342437D02*
D03*
X339937Y259717D02*
D03*
X345449D02*
D03*
X342437Y283717D02*
D03*
X347949D02*
D03*
X347949Y271716D02*
D03*
X342437D02*
D03*
X342437Y265717D02*
D03*
X347949D02*
D03*
X347949Y277716D02*
D03*
X342437D02*
D03*
X342437Y247716D02*
D03*
X347949D02*
D03*
X339937Y253716D02*
D03*
X345449D02*
D03*
X332890Y230602D02*
D03*
X338402D02*
D03*
X342933Y179331D02*
D03*
X348445D02*
D03*
X342933Y194134D02*
D03*
X348445D02*
D03*
X342933Y188134D02*
D03*
X348445D02*
D03*
X342933Y200134D02*
D03*
X348445D02*
D03*
X332890Y224602D02*
D03*
X338402D02*
D03*
X193026Y194926D02*
D03*
X198538D02*
D03*
X193026Y189021D02*
D03*
X198538D02*
D03*
X185335Y161614D02*
D03*
X190847D02*
D03*
X158813Y149435D02*
D03*
X164325D02*
D03*
X158844Y161300D02*
D03*
X164356D02*
D03*
X185335Y149705D02*
D03*
X190847D02*
D03*
X185300Y167500D02*
D03*
X190812D02*
D03*
X105756Y160000D02*
D03*
X100244D02*
D03*
X144882Y160827D02*
D03*
X150394D02*
D03*
X158813Y155340D02*
D03*
X164325D02*
D03*
X198512Y183100D02*
D03*
X193000D02*
D03*
X84456Y170800D02*
D03*
X78944D02*
D03*
X127656Y161400D02*
D03*
X122144D02*
D03*
X187195Y235102D02*
D03*
X192706D02*
D03*
X187195Y229196D02*
D03*
X192706D02*
D03*
X187195Y241007D02*
D03*
X192706D02*
D03*
X122444Y258600D02*
D03*
X127956D02*
D03*
X143944Y258900D02*
D03*
X149456D02*
D03*
X100800Y258700D02*
D03*
X95288D02*
D03*
X356744Y37500D02*
D03*
X362256D02*
D03*
X333465Y55807D02*
D03*
X327953D02*
D03*
X265600Y56400D02*
D03*
X271112D02*
D03*
X265600Y39400D02*
D03*
X271112D02*
D03*
X295768Y121063D02*
D03*
X290256D02*
D03*
X333465Y38878D02*
D03*
X327953D02*
D03*
X73130Y247342D02*
D03*
X78642D02*
D03*
Y241437D02*
D03*
X73130D02*
D03*
X78642Y235531D02*
D03*
X73130D02*
D03*
X69390Y229626D02*
D03*
X63878D02*
D03*
X220669Y40157D02*
D03*
X215158D02*
D03*
X82717Y78665D02*
D03*
X77205D02*
D03*
X82717Y98743D02*
D03*
X77205D02*
D03*
X107520Y89294D02*
D03*
X113032D02*
D03*
X113032Y95200D02*
D03*
X107520D02*
D03*
X192323Y40551D02*
D03*
X197835D02*
D03*
X363976Y316929D02*
D03*
X358465D02*
D03*
X13244Y16000D02*
D03*
X18756D02*
D03*
X12008Y341535D02*
D03*
X17520D02*
D03*
X77205Y68822D02*
D03*
X82717D02*
D03*
X77205Y92838D02*
D03*
X82717D02*
D03*
D50*
X12554Y129924D02*
D03*
Y133467D02*
D03*
X12000Y226228D02*
D03*
Y229772D02*
D03*
X129600Y135228D02*
D03*
Y138772D02*
D03*
X123800Y150100D02*
D03*
Y153643D02*
D03*
D51*
X84302Y146154D02*
D03*
X77806D02*
D03*
X84302Y159934D02*
D03*
X77806D02*
D03*
X84302Y133359D02*
D03*
X77806D02*
D03*
D52*
X212024Y277520D02*
D03*
X199307D02*
D03*
X212024Y274961D02*
D03*
X199307D02*
D03*
Y280079D02*
D03*
Y272402D02*
D03*
X212024Y280079D02*
D03*
Y272402D02*
D03*
X211405Y297205D02*
D03*
Y304882D02*
D03*
X198689Y297205D02*
D03*
Y304882D02*
D03*
Y299764D02*
D03*
X211405D02*
D03*
X198689Y302323D02*
D03*
X211405D02*
D03*
D53*
X280300Y65278D02*
D03*
X275379D02*
D03*
X270458D02*
D03*
X285221D02*
D03*
X265536D02*
D03*
X295064D02*
D03*
X290142D02*
D03*
X295064Y112522D02*
D03*
X285221D02*
D03*
X280300D02*
D03*
X275379D02*
D03*
X290142D02*
D03*
X265536D02*
D03*
X270458D02*
D03*
X342800Y65278D02*
D03*
X337879D02*
D03*
X332958D02*
D03*
X347721D02*
D03*
X328036D02*
D03*
X357564D02*
D03*
X352642D02*
D03*
X357564Y112522D02*
D03*
X347721D02*
D03*
X342800D02*
D03*
X337879D02*
D03*
X352642D02*
D03*
X328036D02*
D03*
X332958D02*
D03*
D54*
X256678Y79058D02*
D03*
Y74136D02*
D03*
X303922Y83979D02*
D03*
Y103664D02*
D03*
X256678D02*
D03*
Y98743D02*
D03*
Y93821D02*
D03*
Y88900D02*
D03*
Y83979D02*
D03*
X303922Y88900D02*
D03*
Y93821D02*
D03*
Y98743D02*
D03*
Y74136D02*
D03*
Y79058D02*
D03*
X319178D02*
D03*
Y74136D02*
D03*
X366422Y83979D02*
D03*
Y103664D02*
D03*
X319178D02*
D03*
Y98743D02*
D03*
Y93821D02*
D03*
Y88900D02*
D03*
Y83979D02*
D03*
X366422Y88900D02*
D03*
Y93821D02*
D03*
Y98743D02*
D03*
Y74136D02*
D03*
Y79058D02*
D03*
D55*
X205315Y42185D02*
D03*
X208071D02*
D03*
Y46004D02*
D03*
X206693D02*
D03*
X205315D02*
D03*
D56*
X136713Y155217D02*
D03*
X140256D02*
D03*
D57*
X89355Y175511D02*
D03*
Y177480D02*
D03*
Y179448D02*
D03*
Y181416D02*
D03*
Y183385D02*
D03*
Y185354D02*
D03*
Y187322D02*
D03*
Y189291D02*
D03*
Y191259D02*
D03*
Y193228D02*
D03*
Y195196D02*
D03*
Y197165D02*
D03*
Y199133D02*
D03*
Y201102D02*
D03*
Y203070D02*
D03*
Y205039D02*
D03*
Y207007D02*
D03*
Y208976D02*
D03*
Y210944D02*
D03*
Y212913D02*
D03*
Y214881D02*
D03*
Y216850D02*
D03*
Y218818D02*
D03*
Y220787D02*
D03*
Y222755D02*
D03*
Y224724D02*
D03*
Y226692D02*
D03*
Y228661D02*
D03*
Y230629D02*
D03*
Y232598D02*
D03*
Y234566D02*
D03*
Y236535D02*
D03*
Y238503D02*
D03*
Y240472D02*
D03*
Y242440D02*
D03*
Y244409D02*
D03*
X173017D02*
D03*
Y242440D02*
D03*
Y240472D02*
D03*
Y238503D02*
D03*
Y236535D02*
D03*
Y234566D02*
D03*
Y232598D02*
D03*
Y230629D02*
D03*
Y228661D02*
D03*
Y224724D02*
D03*
Y222755D02*
D03*
Y220787D02*
D03*
Y218818D02*
D03*
Y216850D02*
D03*
Y214881D02*
D03*
Y212913D02*
D03*
Y210944D02*
D03*
Y208976D02*
D03*
Y207007D02*
D03*
Y205039D02*
D03*
Y203070D02*
D03*
Y201102D02*
D03*
Y199133D02*
D03*
Y197165D02*
D03*
Y195196D02*
D03*
Y193228D02*
D03*
Y191259D02*
D03*
Y189291D02*
D03*
Y187322D02*
D03*
Y185354D02*
D03*
Y183385D02*
D03*
Y181416D02*
D03*
Y179448D02*
D03*
Y177480D02*
D03*
Y175511D02*
D03*
Y226692D02*
D03*
D58*
X96737Y251790D02*
D03*
X98706D02*
D03*
X100674D02*
D03*
X102643D02*
D03*
X104611D02*
D03*
X106579D02*
D03*
X108548D02*
D03*
X110517D02*
D03*
X112485D02*
D03*
X114453D02*
D03*
X116422D02*
D03*
X118391D02*
D03*
X120359D02*
D03*
X122328D02*
D03*
X124296D02*
D03*
X126265D02*
D03*
X128233D02*
D03*
X130202D02*
D03*
X132170D02*
D03*
X134139D02*
D03*
X136107D02*
D03*
X138076D02*
D03*
X140044D02*
D03*
X142013D02*
D03*
X143981D02*
D03*
X145950D02*
D03*
X147918D02*
D03*
X149887D02*
D03*
X151855D02*
D03*
X153824D02*
D03*
X155792D02*
D03*
X157761D02*
D03*
X159729D02*
D03*
X161698D02*
D03*
X163666D02*
D03*
X165635D02*
D03*
Y168129D02*
D03*
X163666D02*
D03*
X161698D02*
D03*
X159729D02*
D03*
X157761D02*
D03*
X155792D02*
D03*
X153824D02*
D03*
X151855D02*
D03*
X149887D02*
D03*
X147918D02*
D03*
X145950D02*
D03*
X143981D02*
D03*
X142013D02*
D03*
X138076D02*
D03*
X136107D02*
D03*
X134139D02*
D03*
X132170D02*
D03*
X130202D02*
D03*
X124296D02*
D03*
X122328D02*
D03*
X120359D02*
D03*
X118391D02*
D03*
X116422D02*
D03*
X114453D02*
D03*
X112485D02*
D03*
X110517D02*
D03*
X108548D02*
D03*
X106579D02*
D03*
X104611D02*
D03*
X102643D02*
D03*
X100674D02*
D03*
X98706D02*
D03*
X96737D02*
D03*
X126265D02*
D03*
X128233D02*
D03*
X140044D02*
D03*
D59*
X40000Y329118D02*
D03*
Y318882D02*
D03*
X72000Y284382D02*
D03*
Y294618D02*
D03*
X7874Y195276D02*
D03*
Y185039D02*
D03*
Y164173D02*
D03*
Y174409D02*
D03*
D60*
X133264Y287500D02*
D03*
X143500D02*
D03*
D61*
X116182Y82109D02*
D03*
X118741D02*
D03*
X121300D02*
D03*
X123859D02*
D03*
X126418D02*
D03*
X123859Y59472D02*
D03*
X126418D02*
D03*
X128977D02*
D03*
X121300D02*
D03*
X118741D02*
D03*
X116182D02*
D03*
X113623D02*
D03*
Y82109D02*
D03*
X128977D02*
D03*
D62*
X154371Y88704D02*
D03*
Y93625D02*
D03*
X92560Y108192D02*
D03*
Y103271D02*
D03*
Y98350D02*
D03*
Y93428D02*
D03*
Y88507D02*
D03*
Y83586D02*
D03*
Y78665D02*
D03*
Y73743D02*
D03*
Y68822D02*
D03*
X154371Y108389D02*
D03*
Y103468D02*
D03*
Y98546D02*
D03*
Y83783D02*
D03*
Y78861D02*
D03*
Y73940D02*
D03*
Y69019D02*
D03*
D63*
X369508Y131791D02*
D03*
X359508D02*
D03*
X349508D02*
D03*
X339508D02*
D03*
X329508D02*
D03*
X297992D02*
D03*
X287992D02*
D03*
X277992D02*
D03*
X267992D02*
D03*
X257992D02*
D03*
X46535Y27905D02*
D03*
X56535D02*
D03*
X66535D02*
D03*
X76535D02*
D03*
X86535D02*
D03*
X46000Y8000D02*
D03*
X56000D02*
D03*
X66000D02*
D03*
X76000D02*
D03*
X86000D02*
D03*
X40000Y255000D02*
D03*
Y245000D02*
D03*
Y225000D02*
D03*
Y235000D02*
D03*
Y205000D02*
D03*
Y195000D02*
D03*
Y185000D02*
D03*
Y165000D02*
D03*
Y175000D02*
D03*
Y145000D02*
D03*
Y125000D02*
D03*
Y155000D02*
D03*
Y135000D02*
D03*
Y215000D02*
D03*
Y265000D02*
D03*
X50000Y105000D02*
D03*
Y135000D02*
D03*
Y125000D02*
D03*
Y115000D02*
D03*
Y145000D02*
D03*
Y165000D02*
D03*
Y65000D02*
D03*
Y85000D02*
D03*
Y95000D02*
D03*
Y75000D02*
D03*
Y155000D02*
D03*
X40000Y305000D02*
D03*
Y275000D02*
D03*
Y295000D02*
D03*
X50000Y285000D02*
D03*
Y295000D02*
D03*
X40000Y285000D02*
D03*
X50000Y305000D02*
D03*
Y275000D02*
D03*
Y255000D02*
D03*
Y245000D02*
D03*
Y235000D02*
D03*
Y225000D02*
D03*
Y215000D02*
D03*
Y205000D02*
D03*
Y185000D02*
D03*
Y175000D02*
D03*
Y265000D02*
D03*
Y195000D02*
D03*
X40000Y95000D02*
D03*
Y105000D02*
D03*
Y75000D02*
D03*
Y115000D02*
D03*
Y55000D02*
D03*
Y85000D02*
D03*
Y65000D02*
D03*
X20000Y255000D02*
D03*
Y245000D02*
D03*
Y225000D02*
D03*
Y235000D02*
D03*
Y205000D02*
D03*
Y195000D02*
D03*
Y185000D02*
D03*
Y165000D02*
D03*
Y175000D02*
D03*
Y145000D02*
D03*
Y125000D02*
D03*
Y155000D02*
D03*
Y135000D02*
D03*
Y215000D02*
D03*
Y265000D02*
D03*
X30000Y105000D02*
D03*
Y135000D02*
D03*
Y125000D02*
D03*
Y115000D02*
D03*
Y145000D02*
D03*
Y165000D02*
D03*
Y65000D02*
D03*
Y85000D02*
D03*
Y95000D02*
D03*
Y75000D02*
D03*
Y155000D02*
D03*
X20000Y305000D02*
D03*
Y275000D02*
D03*
Y295000D02*
D03*
X30000Y285000D02*
D03*
Y295000D02*
D03*
X20000Y285000D02*
D03*
X30000Y305000D02*
D03*
Y275000D02*
D03*
Y255000D02*
D03*
Y245000D02*
D03*
Y235000D02*
D03*
Y225000D02*
D03*
Y215000D02*
D03*
Y205000D02*
D03*
Y185000D02*
D03*
Y175000D02*
D03*
Y265000D02*
D03*
Y195000D02*
D03*
X20000Y95000D02*
D03*
Y105000D02*
D03*
Y75000D02*
D03*
Y115000D02*
D03*
Y55000D02*
D03*
Y85000D02*
D03*
Y65000D02*
D03*
D64*
X319508Y131791D02*
D03*
X247992D02*
D03*
X96535Y27905D02*
D03*
X96000Y8000D02*
D03*
D65*
X206806Y77048D02*
D03*
X226378Y18504D02*
D03*
X185433D02*
D03*
X265700Y18500D02*
D03*
X328000D02*
D03*
D66*
X196806Y87048D02*
D03*
X216806D02*
D03*
X196806Y67048D02*
D03*
X216806D02*
D03*
X216378Y28504D02*
D03*
X236378D02*
D03*
X216378Y8504D02*
D03*
X236378D02*
D03*
X175433Y28504D02*
D03*
X195433D02*
D03*
X175433Y8504D02*
D03*
X195433D02*
D03*
X255700Y8500D02*
D03*
Y28500D02*
D03*
X275700Y8500D02*
D03*
Y28500D02*
D03*
X318000Y8500D02*
D03*
Y28500D02*
D03*
X338000Y8500D02*
D03*
Y28500D02*
D03*
D67*
X335500Y316500D02*
D03*
X303400Y299500D02*
D03*
D68*
X92560Y63901D02*
D03*
X154371Y64098D02*
D03*
D69*
X50000Y55000D02*
D03*
X30000D02*
D03*
D70*
X357559Y334724D02*
D03*
Y20000D02*
D03*
X20000Y35000D02*
D03*
Y324724D02*
D03*
M02*
