G04*
G04 #@! TF.GenerationSoftware,Altium Limited,Altium Designer,21.8.1 (53)*
G04*
G04 Layer_Color=32768*
%FSLAX44Y44*%
%MOMM*%
G71*
G04*
G04 #@! TF.SameCoordinates,FBE6A57E-38F0-4EBD-B617-FC09060C68E2*
G04*
G04*
G04 #@! TF.FilePolarity,Positive*
G04*
G01*
G75*
%ADD13C,0.1524*%
%ADD15C,0.2540*%
%ADD52C,0.1000*%
%ADD54C,0.0500*%
G36*
X531219Y123796D02*
X532743D01*
Y86204D01*
X531219D01*
Y51025D01*
X414379D01*
Y86204D01*
X412855D01*
Y123796D01*
X414379D01*
Y158975D01*
X531219D01*
Y123796D01*
D02*
G37*
D13*
X414379Y158975D02*
X531219D01*
X414379Y123796D02*
Y158975D01*
Y51025D02*
Y86204D01*
Y51025D02*
X531219D01*
Y86204D01*
Y123796D02*
Y158975D01*
Y123796D02*
X532743D01*
X412855D02*
X414379D01*
X412855Y86204D02*
Y123796D01*
Y86204D02*
X414379D01*
X531219D02*
X532743D01*
Y123796D01*
D15*
X0Y0D02*
X770000D01*
X0Y200000D02*
X770000D01*
Y0D02*
Y200000D01*
X0Y0D02*
Y200000D01*
D52*
X302000Y3500D02*
Y18500D01*
Y3500D02*
X330000D01*
X316000Y6250D02*
Y15750D01*
X311250Y11000D02*
X320750D01*
X302000Y18500D02*
X330000D01*
Y3500D02*
Y18500D01*
X330000Y3500D02*
Y18500D01*
Y3500D02*
X358000D01*
X344000Y6250D02*
Y15750D01*
X339250Y11000D02*
X348750D01*
X330000Y18500D02*
X358000D01*
Y3500D02*
Y18500D01*
X137500Y110000D02*
X147500D01*
X142500Y105000D02*
Y115000D01*
X330000Y104500D02*
Y119500D01*
X302000D02*
X330000D01*
X316000Y107250D02*
Y116750D01*
X311250Y112000D02*
X320750D01*
X302000Y104500D02*
X330000D01*
X302000D02*
Y119500D01*
X244500Y137500D02*
Y147500D01*
X239500Y142500D02*
X249500D01*
X133500Y132500D02*
Y147500D01*
Y132500D02*
X161500D01*
X147500Y135250D02*
Y144750D01*
X142750Y140000D02*
X152250D01*
X133500Y147500D02*
X161500D01*
Y132500D02*
Y147500D01*
X239500Y58000D02*
X254500D01*
X239500Y30000D02*
Y58000D01*
X242250Y44000D02*
X251750D01*
X247000Y39250D02*
Y48750D01*
X254500Y30000D02*
Y58000D01*
X239500Y30000D02*
X254500D01*
X326500Y30000D02*
Y45000D01*
X298500D02*
X326500D01*
X312500Y32750D02*
Y42250D01*
X307750Y37500D02*
X317250D01*
X298500Y30000D02*
X326500D01*
X298500D02*
Y45000D01*
D54*
X16300Y15750D02*
X173700D01*
Y84250D01*
X16300D02*
X173700D01*
X16300Y15750D02*
Y84250D01*
X84550Y128500D02*
X200350D01*
Y91500D02*
Y128500D01*
X84550Y91500D02*
Y128500D01*
Y91500D02*
X200350D01*
X67500Y134800D02*
Y195200D01*
X-2500Y134800D02*
X67500D01*
X-2500D02*
Y195200D01*
X67500D01*
X715500Y84000D02*
X736500D01*
Y96500D01*
X746750D01*
X761500Y111250D01*
Y167500D01*
X736500D02*
X761500D01*
X736500D02*
Y180000D01*
X715500D02*
X736500D01*
X715500Y167500D02*
Y180000D01*
X690500Y167500D02*
X715500D01*
X690500Y111250D02*
Y167500D01*
Y111250D02*
X705250Y96500D01*
X715500D01*
Y84000D02*
Y96500D01*
X643500Y84000D02*
X664500D01*
Y96500D01*
X674750D01*
X689500Y111250D01*
Y167500D01*
X664500D02*
X689500D01*
X664500D02*
Y180000D01*
X643500D02*
X664500D01*
X643500Y167500D02*
Y180000D01*
X618500Y167500D02*
X643500D01*
X618500Y111250D02*
Y167500D01*
Y111250D02*
X633250Y96500D01*
X643500D01*
Y84000D02*
Y96500D01*
X567500Y84000D02*
X588500D01*
Y96500D01*
X598750D01*
X613500Y111250D01*
Y167500D01*
X588500D02*
X613500D01*
X588500D02*
Y180000D01*
X567500D02*
X588500D01*
X567500Y167500D02*
Y180000D01*
X542500Y167500D02*
X567500D01*
X542500Y111250D02*
Y167500D01*
Y111250D02*
X557250Y96500D01*
X567500D01*
Y84000D02*
Y96500D01*
X539050Y-11700D02*
X690950D01*
X539050D02*
Y65700D01*
X690950Y-11700D02*
Y65700D01*
X539050D02*
X690950D01*
X217500Y156500D02*
X269500D01*
Y128500D02*
Y156500D01*
X217500Y128500D02*
X269500D01*
X217500D02*
Y156500D01*
X340796Y47282D02*
Y102282D01*
X266596Y47282D02*
Y102282D01*
Y47282D02*
X340796D01*
X266596Y102282D02*
X340796D01*
X345000Y19550D02*
X411000D01*
Y115150D01*
X345000D02*
X411000D01*
X345000Y19550D02*
Y115150D01*
M02*
