M48
;Layer_Color=9474304
;FILE_FORMAT=2:5
INCH,LZ
;TYPE=PLATED
T1F00S00C0.00984
T2F00S00C0.03000
T3F00S00C0.04331
T4F00S00C0.09449
%
T01
X0009843Y0004921
X0029528
X003248Y0015748
X003937Y0024606
X0042323Y0023622
X0022638
X0018701Y0026575
X0019685Y0063976
X0059055
X0055118Y0060039
X0049213Y0044291
Y0004921
X0068898
X0088583
X0097244Y0010179
X0080709Y0023622
X0091261Y0040708
X0098425Y0063976
X0101378Y0062008
X011811Y0063976
X0108268Y0044291
X0120472Y003622
X0120079Y0022441
X0121653Y0009449
X0138189Y0008661
X0140551Y001811
X0137795Y0024606
X0135433Y0026772
Y0031496
X0149213Y0020866
X0156693Y0018898
X015748Y0024606
X0158268Y0010236
X0167323Y0007209
X0187008
X0206693
X0211811Y0007874
X0226772
X0226378Y0004921
X0229108Y0014935
X0219291Y0016929
X0216535Y0024606
X019685
X0177165
X0187008Y0044291
X019685Y0063976
X0216535
X0221654Y0060236
X0235039Y006063
X0236221Y0063976
X0228346Y0073228
X0257874
X0251181Y0060236
X0254921Y0012795
X0177165Y0063976
X015748
X0108268Y0004921
X0272441Y0007087
X0285433Y0004921
X0293701Y0006693
X0299606Y0012205
X0287795Y0015748
X0293307Y0025591
X029252Y006063
X0295276Y0063976
X0285827Y0073228
X0275591Y0063976
X0279134Y0060236
X0264567Y006063
T02
X0069982Y0062992
X0114273Y0008268
X020325Y0012205
X0185433Y0070472
X0271654Y0036417
T03
X0012795Y0059961
Y0069961
T04
X0019685Y0043307
X007874Y0011811
X0133858Y0066929
M30
