G04*
G04 #@! TF.GenerationSoftware,Altium Limited,Altium Designer,21.8.1 (53)*
G04*
G04 Layer_Color=16711935*
%FSLAX44Y44*%
%MOMM*%
G71*
G04*
G04 #@! TF.SameCoordinates,FBE6A57E-38F0-4EBD-B617-FC09060C68E2*
G04*
G04*
G04 #@! TF.FilePolarity,Positive*
G04*
G01*
G75*
%ADD10C,0.2000*%
%ADD14C,0.1270*%
%ADD15C,0.2540*%
%ADD51C,0.0000*%
%ADD52C,0.1000*%
%ADD53C,0.0254*%
D10*
X162000Y10650D02*
G03*
X162000Y10650I-1000J0D01*
G01*
X711000Y88500D02*
G03*
X711000Y88500I-1000J0D01*
G01*
X639000D02*
G03*
X639000Y88500I-1000J0D01*
G01*
X563000D02*
G03*
X563000Y88500I-1000J0D01*
G01*
X260246Y99832D02*
G03*
X260246Y99832I-1000J0D01*
G01*
X388000Y16000D02*
G03*
X388000Y16000I-1000J0D01*
G01*
D14*
X65000Y137300D02*
Y192700D01*
X0Y137300D02*
X65000D01*
X0D02*
Y192700D01*
X65000D01*
X693000Y165000D02*
X759000D01*
X693000Y112500D02*
Y165000D01*
Y112500D02*
X706500Y99000D01*
X745500D01*
X759000Y112500D01*
Y165000D01*
X621000D02*
X687000D01*
X621000Y112500D02*
Y165000D01*
Y112500D02*
X634500Y99000D01*
X673500D01*
X687000Y112500D01*
Y165000D01*
X545000D02*
X611000D01*
X545000Y112500D02*
Y165000D01*
Y112500D02*
X558500Y99000D01*
X597500D01*
X611000Y112500D01*
Y165000D01*
X551750Y1000D02*
X678250D01*
X551750D02*
Y53000D01*
X678250D01*
Y1000D02*
Y53000D01*
X580000Y73050D02*
X586000D01*
X583000Y68050D02*
X586000Y73050D01*
X580000D02*
X583000Y68050D01*
X323696Y49782D02*
Y99782D01*
X283696Y49782D02*
Y99782D01*
Y49782D02*
X323696D01*
X283696Y99782D02*
X323696D01*
X408500Y31850D02*
Y102850D01*
X347500D02*
X408500D01*
X347500Y31850D02*
Y102850D01*
Y31850D02*
X408500D01*
X316000Y20998D02*
Y11000D01*
Y20998D02*
X320285D01*
X321713Y20522D01*
X322189Y20046D01*
X322665Y19094D01*
Y18141D01*
X322189Y17189D01*
X321713Y16713D01*
X320285Y16237D01*
X316000D01*
X319333D02*
X322665Y11000D01*
X330616Y19570D02*
X330140Y20522D01*
X328712Y20998D01*
X327759D01*
X326331Y20522D01*
X325379Y19094D01*
X324903Y16713D01*
Y14333D01*
X325379Y12428D01*
X326331Y11476D01*
X327759Y11000D01*
X328236D01*
X329664Y11476D01*
X330616Y12428D01*
X331092Y13857D01*
Y14333D01*
X330616Y15761D01*
X329664Y16713D01*
X328236Y17189D01*
X327759D01*
X326331Y16713D01*
X325379Y15761D01*
X324903Y14333D01*
X344000Y20998D02*
Y11000D01*
Y20998D02*
X348285D01*
X349713Y20522D01*
X350189Y20046D01*
X350665Y19094D01*
Y18141D01*
X350189Y17189D01*
X349713Y16713D01*
X348285Y16237D01*
X344000D01*
X347333D02*
X350665Y11000D01*
X358616Y20998D02*
X353855D01*
X353379Y16713D01*
X353855Y17189D01*
X355283Y17665D01*
X356712D01*
X358140Y17189D01*
X359092Y16237D01*
X359568Y14809D01*
Y13857D01*
X359092Y12428D01*
X358140Y11476D01*
X356712Y11000D01*
X355283D01*
X353855Y11476D01*
X353379Y11952D01*
X352903Y12904D01*
X308859Y104383D02*
X309335Y103430D01*
X310287Y102478D01*
X311239Y102002D01*
X313144D01*
X314096Y102478D01*
X315048Y103430D01*
X315524Y104383D01*
X316000Y105811D01*
Y108191D01*
X315524Y109620D01*
X315048Y110572D01*
X314096Y111524D01*
X313144Y112000D01*
X311239D01*
X310287Y111524D01*
X309335Y110572D01*
X308859Y109620D01*
X306050Y103906D02*
X305098Y103430D01*
X303669Y102002D01*
Y112000D01*
X251640Y150117D02*
X251164Y151069D01*
X250212Y152021D01*
X249260Y152497D01*
X247356D01*
X246404Y152021D01*
X245451Y151069D01*
X244975Y150117D01*
X244499Y148688D01*
Y146308D01*
X244975Y144880D01*
X245451Y143927D01*
X246404Y142975D01*
X247356Y142499D01*
X249260D01*
X250212Y142975D01*
X251164Y143927D01*
X251640Y144880D01*
X260163Y152497D02*
X255402D01*
X254925Y148212D01*
X255402Y148688D01*
X256830Y149164D01*
X258258D01*
X259686Y148688D01*
X260639Y147736D01*
X261115Y146308D01*
Y145356D01*
X260639Y143927D01*
X259686Y142975D01*
X258258Y142499D01*
X256830D01*
X255402Y142975D01*
X254925Y143451D01*
X254449Y144403D01*
X147500Y149998D02*
Y140000D01*
Y149998D02*
X151785D01*
X153213Y149522D01*
X153689Y149046D01*
X154165Y148094D01*
Y147141D01*
X153689Y146189D01*
X153213Y145713D01*
X151785Y145237D01*
X147500D01*
X150833D02*
X154165Y140000D01*
X161164Y149998D02*
X156403Y143333D01*
X163544D01*
X161164Y149998D02*
Y140000D01*
X256998Y44000D02*
X247000D01*
X256998D02*
Y39715D01*
X256522Y38287D01*
X256046Y37811D01*
X255093Y37335D01*
X254141D01*
X253189Y37811D01*
X252713Y38287D01*
X252237Y39715D01*
Y44000D01*
Y40667D02*
X247000Y37335D01*
X255093Y35097D02*
X255570Y34145D01*
X256998Y32717D01*
X247000D01*
X312500Y27502D02*
Y37500D01*
Y27502D02*
X308215D01*
X306787Y27978D01*
X306311Y28454D01*
X305835Y29406D01*
Y30359D01*
X306311Y31311D01*
X306787Y31787D01*
X308215Y32263D01*
X312500D01*
X309167D02*
X305835Y37500D01*
X303121Y29883D02*
Y29406D01*
X302645Y28454D01*
X302169Y27978D01*
X301217Y27502D01*
X299312D01*
X298360Y27978D01*
X297884Y28454D01*
X297408Y29406D01*
Y30359D01*
X297884Y31311D01*
X298836Y32739D01*
X303597Y37500D01*
X296932D01*
D15*
X0Y0D02*
X770000D01*
X0Y200000D02*
X770000D01*
Y0D02*
Y200000D01*
X0Y0D02*
Y200000D01*
D51*
X524361Y105000D02*
G03*
X524361Y105000I-762J0D01*
G01*
D52*
X307250Y6250D02*
X324750D01*
X307250Y15750D02*
X324750D01*
Y6250D02*
Y15750D01*
X307250Y6250D02*
Y15750D01*
X335250Y6250D02*
X352750D01*
X335250Y15750D02*
X352750D01*
Y6250D02*
Y15750D01*
X335250Y6250D02*
Y15750D01*
X18800Y37300D02*
X171200D01*
Y62700D01*
X18800D02*
X171200D01*
X18800Y37300D02*
Y62700D01*
X112500Y92500D02*
Y127500D01*
X172500Y92500D02*
Y127500D01*
X112500D02*
X172500D01*
X112500Y92500D02*
X172500D01*
X307250Y116750D02*
X324750D01*
X307250Y107250D02*
X324750D01*
X307250D02*
Y116750D01*
X324750Y107250D02*
Y116750D01*
X227500Y133500D02*
X261500D01*
Y151500D01*
X227500Y133500D02*
Y151500D01*
X261500D01*
X138750Y135250D02*
X156250D01*
X138750Y144750D02*
X156250D01*
Y135250D02*
Y144750D01*
X138750Y135250D02*
Y144750D01*
X242250Y35250D02*
Y52750D01*
X251750Y35250D02*
Y52750D01*
X242250Y35250D02*
X251750D01*
X242250Y52750D02*
X251750D01*
X303750Y42250D02*
X321250D01*
X303750Y32750D02*
X321250D01*
X303750D02*
Y42250D01*
X321250Y32750D02*
Y42250D01*
D53*
X528679Y53565D02*
Y156435D01*
X416919Y53565D02*
X528679D01*
X416919D02*
Y156435D01*
X528679D01*
M02*
