G04*
G04 #@! TF.GenerationSoftware,Altium Limited,Altium Designer,21.8.1 (53)*
G04*
G04 Layer_Physical_Order=1*
G04 Layer_Color=255*
%FSLAX44Y44*%
%MOMM*%
G71*
G04*
G04 #@! TF.SameCoordinates,FBE6A57E-38F0-4EBD-B617-FC09060C68E2*
G04*
G04*
G04 #@! TF.FilePolarity,Positive*
G04*
G01*
G75*
%ADD15C,0.2540*%
%ADD17R,0.8000X0.9000*%
%ADD18R,1.2700X3.4300*%
%ADD19R,2.2000X1.6000*%
%ADD20R,2.1800X1.6000*%
%ADD21R,1.4000X3.0500*%
%ADD22R,1.6000X3.5000*%
%ADD23R,0.8000X1.6000*%
%ADD24R,2.1000X3.0000*%
%ADD25R,1.4000X1.8000*%
G04:AMPARAMS|DCode=26|XSize=1.97mm|YSize=0.6mm|CornerRadius=0.075mm|HoleSize=0mm|Usage=FLASHONLY|Rotation=0.000|XOffset=0mm|YOffset=0mm|HoleType=Round|Shape=RoundedRectangle|*
%AMROUNDEDRECTD26*
21,1,1.9700,0.4500,0,0,0.0*
21,1,1.8200,0.6000,0,0,0.0*
1,1,0.1500,0.9100,-0.2250*
1,1,0.1500,-0.9100,-0.2250*
1,1,0.1500,-0.9100,0.2250*
1,1,0.1500,0.9100,0.2250*
%
%ADD26ROUNDEDRECTD26*%
%ADD27R,0.9000X0.8000*%
%ADD28R,2.9210X3.2512*%
G04:AMPARAMS|DCode=29|XSize=2.33mm|YSize=3.07mm|CornerRadius=0.2913mm|HoleSize=0mm|Usage=FLASHONLY|Rotation=90.000|XOffset=0mm|YOffset=0mm|HoleType=Round|Shape=RoundedRectangle|*
%AMROUNDEDRECTD29*
21,1,2.3300,2.4875,0,0,90.0*
21,1,1.7475,3.0700,0,0,90.0*
1,1,0.5825,1.2437,0.8738*
1,1,0.5825,1.2437,-0.8738*
1,1,0.5825,-1.2437,-0.8738*
1,1,0.5825,-1.2437,0.8738*
%
%ADD29ROUNDEDRECTD29*%
%ADD44R,2.2900X2.2900*%
%ADD45C,1.2700*%
%ADD46C,4.8000*%
%ADD47C,1.5240*%
%ADD48R,1.6500X1.6500*%
%ADD49C,1.6500*%
%ADD50C,0.5000*%
G36*
X770000Y0D02*
X0D01*
Y200000D01*
X770000D01*
Y0D01*
D02*
G37*
%LPC*%
G36*
X472270Y189081D02*
Y180270D01*
X481081D01*
X480899Y181652D01*
X479875Y184124D01*
X478246Y186246D01*
X476124Y187875D01*
X473652Y188899D01*
X472270Y189081D01*
D02*
G37*
G36*
X469730Y189081D02*
X468348Y188899D01*
X465876Y187875D01*
X463754Y186246D01*
X462125Y184124D01*
X461101Y181652D01*
X460919Y180270D01*
X469730D01*
Y189081D01*
D02*
G37*
G36*
X341270Y196522D02*
Y171270D01*
X366522D01*
X366294Y174165D01*
X365319Y178227D01*
X363721Y182086D01*
X361538Y185648D01*
X358825Y188825D01*
X355648Y191538D01*
X352086Y193720D01*
X348227Y195319D01*
X344165Y196294D01*
X341270Y196522D01*
D02*
G37*
G36*
X338730D02*
X335835Y196294D01*
X331773Y195319D01*
X327914Y193720D01*
X324352Y191538D01*
X321175Y188825D01*
X318462Y185648D01*
X316280Y182086D01*
X314681Y178227D01*
X313706Y174165D01*
X313478Y171270D01*
X338730D01*
Y196522D01*
D02*
G37*
G36*
X481081Y177730D02*
X472270D01*
Y168920D01*
X473652Y169102D01*
X476124Y170125D01*
X478246Y171754D01*
X479875Y173876D01*
X480899Y176348D01*
X481081Y177730D01*
D02*
G37*
G36*
X469730D02*
X460919D01*
X461101Y176348D01*
X462125Y173876D01*
X463754Y171754D01*
X465876Y170125D01*
X468348Y169102D01*
X469730Y168920D01*
Y177730D01*
D02*
G37*
G36*
X736540Y180040D02*
X727270D01*
Y161270D01*
X736540D01*
Y180040D01*
D02*
G37*
G36*
X724730D02*
X715460D01*
Y161270D01*
X724730D01*
Y180040D01*
D02*
G37*
G36*
X655000Y191139D02*
X653034Y190748D01*
X651366Y189634D01*
X650252Y187966D01*
X649861Y186000D01*
X650252Y184034D01*
X651366Y182366D01*
X652947Y181310D01*
X652960Y181217D01*
X652207Y180040D01*
X643460D01*
Y161270D01*
X654000D01*
X664540D01*
Y180040D01*
X657793D01*
X657040Y181217D01*
X657053Y181310D01*
X658634Y182366D01*
X659748Y184034D01*
X660139Y186000D01*
X659748Y187966D01*
X658634Y189634D01*
X656966Y190748D01*
X655000Y191139D01*
D02*
G37*
G36*
X580000D02*
X578033Y190748D01*
X576366Y189634D01*
X575252Y187966D01*
X574861Y186000D01*
X575252Y184034D01*
X576366Y182366D01*
X577947Y181310D01*
X577960Y181217D01*
X577207Y180040D01*
X567460D01*
Y161270D01*
X578000D01*
X588540D01*
Y180040D01*
X582793D01*
X582040Y181217D01*
X582053Y181310D01*
X583634Y182366D01*
X584748Y184034D01*
X585139Y186000D01*
X584748Y187966D01*
X583634Y189634D01*
X581967Y190748D01*
X580000Y191139D01*
D02*
G37*
G36*
X576730Y158730D02*
X567460D01*
Y157509D01*
X566190Y156930D01*
X564967Y157748D01*
X563000Y158139D01*
X561034Y157748D01*
X559366Y156634D01*
X558252Y154966D01*
X557861Y153000D01*
X558252Y151033D01*
X559366Y149366D01*
X561034Y148252D01*
X563000Y147861D01*
X564967Y148252D01*
X566190Y149070D01*
X567460Y148491D01*
Y139960D01*
X576730D01*
Y158730D01*
D02*
G37*
G36*
X652730D02*
X643460D01*
Y156186D01*
X642190Y155801D01*
X641634Y156634D01*
X639967Y157748D01*
X638000Y158139D01*
X636034Y157748D01*
X634366Y156634D01*
X633252Y154966D01*
X632861Y153000D01*
X633252Y151033D01*
X634366Y149366D01*
X636034Y148252D01*
X638000Y147861D01*
X639967Y148252D01*
X641634Y149366D01*
X642190Y150199D01*
X643460Y149814D01*
Y139960D01*
X652730D01*
Y158730D01*
D02*
G37*
G36*
X33770Y163016D02*
Y153570D01*
X43216D01*
X43012Y155117D01*
X41925Y157741D01*
X40195Y159995D01*
X37942Y161725D01*
X35317Y162812D01*
X33770Y163016D01*
D02*
G37*
G36*
X31230D02*
X29683Y162812D01*
X27058Y161725D01*
X24804Y159995D01*
X23075Y157741D01*
X21988Y155117D01*
X21784Y153570D01*
X31230D01*
Y163016D01*
D02*
G37*
G36*
X672000Y159139D02*
X670033Y158748D01*
X668366Y157634D01*
X667253Y155967D01*
X666861Y154000D01*
X667253Y152034D01*
X668366Y150366D01*
X670033Y149252D01*
X672000Y148861D01*
X673967Y149252D01*
X675634Y150366D01*
X676748Y152034D01*
X677139Y154000D01*
X676748Y155967D01*
X675634Y157634D01*
X673967Y158748D01*
X672000Y159139D01*
D02*
G37*
G36*
X597000D02*
X595033Y158748D01*
X593366Y157634D01*
X592253Y155967D01*
X591861Y154000D01*
X592253Y152034D01*
X593366Y150366D01*
X595033Y149252D01*
X597000Y148861D01*
X598966Y149252D01*
X600634Y150366D01*
X601748Y152034D01*
X602139Y154000D01*
X601748Y155967D01*
X600634Y157634D01*
X598966Y158748D01*
X597000Y159139D01*
D02*
G37*
G36*
X267040Y154040D02*
X258770D01*
Y143770D01*
X267040D01*
Y154040D01*
D02*
G37*
G36*
X256230D02*
X247960D01*
Y143770D01*
X256230D01*
Y154040D01*
D02*
G37*
G36*
X366522Y168730D02*
X341270D01*
Y143478D01*
X344165Y143706D01*
X348227Y144681D01*
X352086Y146279D01*
X355648Y148462D01*
X358825Y151175D01*
X361538Y154352D01*
X363721Y157914D01*
X365319Y161773D01*
X366294Y165835D01*
X366522Y168730D01*
D02*
G37*
G36*
X338730D02*
X313478D01*
X313706Y165835D01*
X314681Y161773D01*
X316280Y157914D01*
X318462Y154352D01*
X321175Y151175D01*
X324352Y148462D01*
X327914Y146279D01*
X331773Y144681D01*
X335835Y143706D01*
X338730Y143478D01*
Y168730D01*
D02*
G37*
G36*
X43216Y151030D02*
X33770D01*
Y141584D01*
X35317Y141788D01*
X37942Y142875D01*
X40195Y144605D01*
X41925Y146859D01*
X43012Y149483D01*
X43216Y151030D01*
D02*
G37*
G36*
X31230D02*
X21784D01*
X21988Y149483D01*
X23075Y146859D01*
X24804Y144605D01*
X27058Y142875D01*
X29683Y141788D01*
X31230Y141584D01*
Y151030D01*
D02*
G37*
G36*
X139230Y147040D02*
X133960D01*
Y141270D01*
X139230D01*
Y147040D01*
D02*
G37*
G36*
X736540Y158730D02*
X727270D01*
Y139960D01*
X736540D01*
Y158730D01*
D02*
G37*
G36*
X724730D02*
X715460D01*
Y139960D01*
X724730D01*
Y158730D01*
D02*
G37*
G36*
X664540Y158730D02*
X655270D01*
Y139960D01*
X664540D01*
Y158730D01*
D02*
G37*
G36*
X588540D02*
X579270D01*
Y139960D01*
X588540D01*
Y158730D01*
D02*
G37*
G36*
X139230Y138730D02*
X133960D01*
Y132960D01*
X139230D01*
Y138730D01*
D02*
G37*
G36*
X267040Y141230D02*
X258770D01*
Y130960D01*
X267040D01*
Y141230D01*
D02*
G37*
G36*
X256230D02*
X247960D01*
Y130960D01*
X256230D01*
Y141230D01*
D02*
G37*
G36*
X51270Y136522D02*
Y111270D01*
X76522D01*
X76294Y114165D01*
X75319Y118227D01*
X73720Y122086D01*
X71538Y125648D01*
X68825Y128825D01*
X65648Y131538D01*
X62086Y133721D01*
X58227Y135319D01*
X54165Y136294D01*
X51270Y136522D01*
D02*
G37*
G36*
X48730D02*
X45835Y136294D01*
X41773Y135319D01*
X37914Y133721D01*
X34352Y131538D01*
X31175Y128825D01*
X28462Y125648D01*
X26280Y122086D01*
X24681Y118227D01*
X23706Y114165D01*
X23478Y111270D01*
X48730D01*
Y136522D01*
D02*
G37*
G36*
X76522Y108730D02*
X51270D01*
Y83478D01*
X54165Y83706D01*
X58227Y84681D01*
X62086Y86280D01*
X65648Y88462D01*
X68825Y91175D01*
X71538Y94352D01*
X73720Y97914D01*
X75319Y101773D01*
X76294Y105835D01*
X76522Y108730D01*
D02*
G37*
G36*
X48730D02*
X23478D01*
X23706Y105835D01*
X24681Y101773D01*
X26280Y97914D01*
X28462Y94352D01*
X31175Y91175D01*
X34352Y88462D01*
X37914Y86280D01*
X39651Y85560D01*
X39398Y84290D01*
X39290Y84290D01*
X32770D01*
Y65870D01*
X40390D01*
X40390Y83879D01*
X40659Y84120D01*
X41707Y84708D01*
X41773Y84681D01*
X45835Y83706D01*
X48730Y83478D01*
Y108730D01*
D02*
G37*
G36*
X340900Y79862D02*
X329716D01*
Y75528D01*
X337546D01*
X338830Y75783D01*
X339918Y76510D01*
X340645Y77598D01*
X340900Y78882D01*
Y79862D01*
D02*
G37*
G36*
X43290Y188490D02*
X21710D01*
Y166910D01*
X43290D01*
Y168733D01*
X92665D01*
Y120540D01*
X83010D01*
Y99460D01*
X103546D01*
X124210Y78796D01*
Y44910D01*
X141990D01*
Y84290D01*
X129704D01*
X110090Y103904D01*
Y120540D01*
X100435D01*
Y168733D01*
X170470D01*
X170879Y167531D01*
X170508Y167246D01*
X168879Y165124D01*
X167855Y162652D01*
X167506Y160000D01*
X167855Y157348D01*
X168879Y154876D01*
X170508Y152754D01*
X172630Y151125D01*
X175102Y150101D01*
X177754Y149752D01*
X180406Y150101D01*
X182878Y151125D01*
X185000Y152754D01*
X186629Y154876D01*
X187652Y157348D01*
X188002Y160000D01*
X187652Y162652D01*
X186629Y165124D01*
X185000Y167246D01*
X184629Y167531D01*
X185038Y168733D01*
X194586D01*
X221960Y141359D01*
Y130960D01*
X222533D01*
Y103500D01*
X222839Y101179D01*
X223735Y99017D01*
X225160Y97160D01*
X225274Y97072D01*
X225362Y96957D01*
X247528Y74792D01*
X249098Y73587D01*
X248770Y72317D01*
X226177D01*
X219597Y78897D01*
X218337Y79739D01*
X216850Y80035D01*
X192335D01*
Y99460D01*
X201890D01*
Y120540D01*
X182095D01*
X181720Y120615D01*
X178879D01*
X161040Y138454D01*
Y147040D01*
X148310D01*
X147960Y147040D01*
X147040D01*
X146690Y147040D01*
X141770D01*
Y140000D01*
Y132960D01*
X146690D01*
X147040Y132960D01*
X147960D01*
X148310Y132960D01*
X155546D01*
X174523Y113983D01*
X175010Y113658D01*
Y99460D01*
X184565D01*
Y77759D01*
X161896Y55090D01*
X149610D01*
Y15710D01*
X167390D01*
Y49596D01*
X190059Y72265D01*
X215241D01*
X221821Y65685D01*
X222615Y65155D01*
X222230Y63885D01*
X208258D01*
X206966Y64748D01*
X205000Y65139D01*
X203034Y64748D01*
X201366Y63634D01*
X200252Y61967D01*
X199861Y60000D01*
X200252Y58033D01*
X200474Y57702D01*
X199685Y56597D01*
X195835Y56294D01*
X191773Y55319D01*
X187914Y53720D01*
X184352Y51538D01*
X181175Y48825D01*
X178462Y45648D01*
X176280Y42086D01*
X174681Y38227D01*
X173706Y34165D01*
X173478Y31270D01*
X226522D01*
X226294Y34165D01*
X225319Y38227D01*
X223720Y42086D01*
X221538Y45648D01*
X218825Y48825D01*
X215648Y51538D01*
X212086Y53720D01*
X209370Y54845D01*
X209623Y56115D01*
X235891D01*
X239960Y52046D01*
Y44810D01*
X239960Y44460D01*
Y43540D01*
X239960Y43190D01*
Y30460D01*
X243115D01*
Y29113D01*
X242252Y27821D01*
X241861Y25855D01*
X242252Y23888D01*
X243366Y22221D01*
X245033Y21107D01*
X247000Y20716D01*
X248967Y21107D01*
X250634Y22221D01*
X251748Y23888D01*
X252139Y25855D01*
X251748Y27821D01*
X250885Y29113D01*
Y30460D01*
X254040D01*
Y43190D01*
X254040Y43540D01*
Y44460D01*
X254040Y44810D01*
Y47115D01*
X267364D01*
X268850Y47411D01*
X270111Y48253D01*
X271985Y50128D01*
X288046D01*
X289330Y50383D01*
X290418Y51110D01*
X291145Y52198D01*
X291400Y53482D01*
Y57982D01*
X291145Y59266D01*
X290974Y59522D01*
X291653Y60792D01*
X302426D01*
Y74782D01*
Y88772D01*
X291653D01*
X290974Y90042D01*
X291145Y90298D01*
X291329Y91221D01*
X292606D01*
X294093Y91517D01*
X295353Y92359D01*
X307954Y104960D01*
X311223D01*
X312409Y104420D01*
X312410Y104420D01*
Y91000D01*
X312601Y90042D01*
X312607Y90007D01*
X311906Y88772D01*
X304966D01*
Y74782D01*
Y60792D01*
X315739D01*
X316418Y59522D01*
X316247Y59266D01*
X315991Y57982D01*
Y55243D01*
X315911Y55123D01*
X315615Y53636D01*
Y44540D01*
X313310D01*
X312960Y44540D01*
X312040D01*
X311690Y44540D01*
X298960D01*
Y36454D01*
X293259Y30752D01*
X292906Y30898D01*
X290254Y31248D01*
X287602Y30898D01*
X285130Y29875D01*
X283008Y28246D01*
X281379Y26124D01*
X280355Y23652D01*
X280006Y21000D01*
X280355Y18348D01*
X281379Y15876D01*
X283008Y13754D01*
X285130Y12125D01*
X287602Y11101D01*
X290254Y10752D01*
X292906Y11101D01*
X295378Y12125D01*
X297500Y13754D01*
X299129Y15876D01*
X300152Y18348D01*
X300502Y21000D01*
X300152Y23652D01*
X299272Y25778D01*
X303954Y30460D01*
X311690D01*
X312040Y30460D01*
X312960D01*
X313310Y30460D01*
X319115D01*
Y18040D01*
X316810D01*
X316460Y18040D01*
X315540D01*
X315190Y18040D01*
X310270D01*
Y11000D01*
Y3960D01*
X315190D01*
X315540Y3960D01*
X316460D01*
X316810Y3960D01*
X329540D01*
Y3960D01*
X330460D01*
Y3960D01*
X343190D01*
X343540Y3960D01*
X344460D01*
X344810Y3960D01*
X357540D01*
Y18040D01*
X355943D01*
X355264Y19310D01*
X355747Y20034D01*
X356139Y22000D01*
X355747Y23967D01*
X354634Y25634D01*
X352966Y26748D01*
X351000Y27139D01*
X349034Y26748D01*
X347366Y25634D01*
X346252Y23967D01*
X345861Y22000D01*
X346252Y20034D01*
X346736Y19310D01*
X346057Y18040D01*
X343540Y18040D01*
X343190Y18040D01*
X330460D01*
Y18040D01*
X329540D01*
Y18040D01*
X326885D01*
Y33500D01*
X326589Y34987D01*
X326040Y35808D01*
Y44540D01*
X323385D01*
Y50128D01*
X337546D01*
X338830Y50383D01*
X339918Y51110D01*
X340645Y52198D01*
X340900Y53482D01*
Y57982D01*
X340645Y59266D01*
X339918Y60354D01*
X338830Y61081D01*
X337546Y61336D01*
X319346D01*
X318969Y62031D01*
X319937Y62828D01*
X327176D01*
Y68432D01*
Y74036D01*
X319346D01*
X318969Y74731D01*
X319937Y75528D01*
X327176D01*
Y81132D01*
X328446D01*
Y82402D01*
X340900D01*
Y83382D01*
X340891Y83428D01*
X341697Y84410D01*
X450000D01*
X450991Y84607D01*
X451831Y85169D01*
X452393Y86009D01*
X452590Y87000D01*
Y125000D01*
X452393Y125991D01*
X451831Y126831D01*
X450991Y127393D01*
X450000Y127590D01*
X319000D01*
X318009Y127393D01*
X317169Y126831D01*
X314398Y124060D01*
X314247Y123835D01*
X314058Y123641D01*
X313969Y123419D01*
X313836Y123220D01*
X313783Y122954D01*
X313683Y122703D01*
X313544Y121959D01*
X313373Y121686D01*
X313308Y121515D01*
X313202Y121365D01*
X313130Y121047D01*
X313014Y120742D01*
X313019Y120559D01*
X312978Y120380D01*
X312990Y120310D01*
X312596Y119598D01*
X312227Y119209D01*
X311964Y119040D01*
X302460D01*
Y110454D01*
X290997Y98991D01*
X289615D01*
X289330Y99181D01*
X288046Y99437D01*
X269846D01*
X268562Y99181D01*
X267474Y98454D01*
X266747Y97366D01*
X266492Y96082D01*
Y91582D01*
X266534Y91369D01*
X265492Y90099D01*
X257582D01*
X240467Y107214D01*
Y130960D01*
X241040D01*
Y154040D01*
X234641D01*
X204640Y184040D01*
X202783Y185465D01*
X200621Y186361D01*
X198300Y186667D01*
X43290D01*
Y188490D01*
D02*
G37*
G36*
X337546Y74036D02*
X329716D01*
Y69702D01*
X340900D01*
Y70682D01*
X340645Y71966D01*
X339918Y73054D01*
X338830Y73781D01*
X337546Y74036D01*
D02*
G37*
G36*
X91190Y84290D02*
X83570D01*
Y65870D01*
X91190D01*
Y84290D01*
D02*
G37*
G36*
X81030D02*
X73410D01*
Y65870D01*
X81030D01*
Y84290D01*
D02*
G37*
G36*
X30230D02*
X22610D01*
Y65870D01*
X30230D01*
Y84290D01*
D02*
G37*
G36*
X340900Y67162D02*
X329716D01*
Y62828D01*
X337546D01*
X338830Y63083D01*
X339918Y63810D01*
X340645Y64898D01*
X340900Y66182D01*
Y67162D01*
D02*
G37*
G36*
X91190Y63330D02*
X83570D01*
Y44910D01*
X91190D01*
Y63330D01*
D02*
G37*
G36*
X81030D02*
X73410D01*
Y44910D01*
X81030D01*
Y63330D01*
D02*
G37*
G36*
X40390D02*
X32770D01*
Y44910D01*
X40390D01*
X40390Y63330D01*
D02*
G37*
G36*
X30230D02*
X22610D01*
Y44910D01*
X30230D01*
Y63330D01*
D02*
G37*
G36*
X755540Y60290D02*
X747270D01*
Y43770D01*
X755540D01*
Y60290D01*
D02*
G37*
G36*
X744730D02*
X736460D01*
Y43770D01*
X744730D01*
Y60290D01*
D02*
G37*
G36*
X65790Y55090D02*
X58170D01*
Y36670D01*
X65790D01*
Y55090D01*
D02*
G37*
G36*
X55630D02*
X48010D01*
Y36670D01*
X55630D01*
Y55090D01*
D02*
G37*
G36*
X390438Y47997D02*
X379270D01*
Y34970D01*
X395997D01*
Y42438D01*
X395574Y44565D01*
X394369Y46368D01*
X392565Y47574D01*
X390438Y47997D01*
D02*
G37*
G36*
X376730D02*
X365563D01*
X363435Y47574D01*
X361632Y46368D01*
X360426Y44565D01*
X360003Y42438D01*
Y34970D01*
X376730D01*
Y47997D01*
D02*
G37*
G36*
X517524Y41080D02*
Y32270D01*
X526334D01*
X526152Y33652D01*
X525129Y36124D01*
X523500Y38246D01*
X521378Y39875D01*
X518906Y40898D01*
X517524Y41080D01*
D02*
G37*
G36*
X514984Y41080D02*
X513602Y40898D01*
X511130Y39875D01*
X509008Y38246D01*
X507379Y36124D01*
X506356Y33652D01*
X506174Y32270D01*
X514984D01*
Y41080D01*
D02*
G37*
G36*
X755540Y41230D02*
X747270D01*
Y24710D01*
X755540D01*
Y41230D01*
D02*
G37*
G36*
X744730D02*
X736460D01*
Y24710D01*
X744730D01*
Y41230D01*
D02*
G37*
G36*
X745000Y135090D02*
X492500D01*
X491509Y134893D01*
X490669Y134331D01*
X490107Y133491D01*
X489910Y132500D01*
Y82500D01*
X490107Y81509D01*
X490669Y80669D01*
X491509Y80107D01*
X492500Y79910D01*
X556427D01*
X572410Y63927D01*
Y39902D01*
X571290Y39540D01*
X571140Y39540D01*
X559520D01*
Y23270D01*
X571290D01*
Y36622D01*
X572560Y36747D01*
X572607Y36509D01*
X573169Y35669D01*
X574009Y35107D01*
X575000Y34910D01*
X577693D01*
X577819Y34935D01*
X577881Y34929D01*
X578301Y34301D01*
X579968Y33187D01*
X581934Y32796D01*
X583901Y33187D01*
X585568Y34301D01*
X586342Y35459D01*
X586604Y35319D01*
X586920Y35107D01*
X587046Y35082D01*
X587160Y35022D01*
X587538Y34985D01*
X587911Y34910D01*
X615000D01*
X615991Y35107D01*
X616831Y35669D01*
X617393Y36509D01*
X617590Y37500D01*
Y40460D01*
X643615D01*
Y35758D01*
X642752Y34467D01*
X642361Y32500D01*
X642752Y30533D01*
X643866Y28866D01*
X645534Y27752D01*
X647500Y27361D01*
X649466Y27752D01*
X651134Y28866D01*
X652248Y30533D01*
X652639Y32500D01*
X652248Y34467D01*
X651385Y35758D01*
Y40460D01*
X652790D01*
Y43533D01*
X685286D01*
X689460Y39359D01*
Y24710D01*
X708540D01*
Y60290D01*
X693424D01*
X691321Y61161D01*
X689000Y61467D01*
X652790D01*
Y61540D01*
X617590D01*
Y79910D01*
X745000D01*
X745991Y80107D01*
X746831Y80669D01*
X747393Y81509D01*
X747590Y82500D01*
Y132500D01*
X747393Y133491D01*
X746831Y134331D01*
X745991Y134893D01*
X745000Y135090D01*
D02*
G37*
G36*
X684790Y39540D02*
X673020D01*
Y23270D01*
X684790D01*
Y39540D01*
D02*
G37*
G36*
X670480D02*
X658710D01*
Y23270D01*
X670480D01*
Y39540D01*
D02*
G37*
G36*
X556980D02*
X545210D01*
Y23270D01*
X556980D01*
Y39540D01*
D02*
G37*
G36*
X514984Y29730D02*
X506174D01*
X506356Y28348D01*
X507379Y25876D01*
X509008Y23754D01*
X511130Y22125D01*
X513602Y21102D01*
X514984Y20919D01*
Y29730D01*
D02*
G37*
G36*
X526334D02*
X517524D01*
Y20919D01*
X518906Y21102D01*
X521378Y22125D01*
X523500Y23754D01*
X525129Y25876D01*
X526152Y28348D01*
X526334Y29730D01*
D02*
G37*
G36*
X395997Y32430D02*
X379270D01*
Y19403D01*
X390438D01*
X392565Y19826D01*
X394369Y21031D01*
X395574Y22835D01*
X395997Y24962D01*
Y32430D01*
D02*
G37*
G36*
X376730D02*
X360003D01*
Y24962D01*
X360426Y22835D01*
X361632Y21031D01*
X363435Y19826D01*
X365563Y19403D01*
X376730D01*
Y32430D01*
D02*
G37*
G36*
X107500Y65139D02*
X105534Y64748D01*
X103866Y63634D01*
X102752Y61967D01*
X102361Y60000D01*
X102752Y58033D01*
X103815Y56443D01*
Y55090D01*
X98810D01*
Y15710D01*
X116590D01*
Y55090D01*
X111585D01*
Y57041D01*
X112248Y58033D01*
X112639Y60000D01*
X112248Y61967D01*
X111134Y63634D01*
X109466Y64748D01*
X107500Y65139D01*
D02*
G37*
G36*
X65790Y34130D02*
X58170D01*
Y15710D01*
X65790D01*
Y34130D01*
D02*
G37*
G36*
X55630D02*
X48010D01*
Y15710D01*
X55630D01*
Y34130D01*
D02*
G37*
G36*
X307730Y18040D02*
X302460D01*
Y12270D01*
X307730D01*
Y18040D01*
D02*
G37*
G36*
X684790Y20730D02*
X673020D01*
Y4460D01*
X684790D01*
Y20730D01*
D02*
G37*
G36*
X670480D02*
X658710D01*
Y4460D01*
X670480D01*
Y20730D01*
D02*
G37*
G36*
X571290D02*
X559520D01*
Y4460D01*
X571290D01*
Y20730D01*
D02*
G37*
G36*
X556980D02*
X545210D01*
Y4460D01*
X556980D01*
Y20730D01*
D02*
G37*
G36*
X307730Y9730D02*
X302460D01*
Y3960D01*
X307730D01*
Y9730D01*
D02*
G37*
G36*
X226522Y28730D02*
X201270D01*
Y3478D01*
X204165Y3706D01*
X208227Y4681D01*
X212086Y6280D01*
X215648Y8462D01*
X218825Y11175D01*
X221538Y14352D01*
X223720Y17914D01*
X225319Y21773D01*
X226294Y25835D01*
X226522Y28730D01*
D02*
G37*
G36*
X198730D02*
X173478D01*
X173706Y25835D01*
X174681Y21773D01*
X176280Y17914D01*
X178462Y14352D01*
X181175Y11175D01*
X184352Y8462D01*
X187914Y6280D01*
X191773Y4681D01*
X195835Y3706D01*
X198730Y3478D01*
Y28730D01*
D02*
G37*
%LPD*%
G36*
X450000Y87000D02*
X319000D01*
X317686Y88314D01*
Y88772D01*
X317228D01*
X315000Y91000D01*
Y104420D01*
X315540Y104960D01*
X316460D01*
X316810Y104960D01*
X321730D01*
Y112000D01*
Y119040D01*
X316810D01*
X316054Y119040D01*
X315567Y120310D01*
X316000Y121000D01*
X316000D01*
X316229Y122229D01*
X319000Y125000D01*
X450000D01*
Y87000D01*
D02*
G37*
G36*
X267474Y63810D02*
X268562Y63083D01*
X269846Y62828D01*
X288046D01*
X288422Y62133D01*
X287455Y61336D01*
X269846D01*
X268562Y61081D01*
X267474Y60354D01*
X266747Y59266D01*
X266492Y57982D01*
Y55621D01*
X265755Y54885D01*
X254040D01*
Y57540D01*
X245454D01*
X240247Y62747D01*
X239453Y63277D01*
X239838Y64547D01*
X266981D01*
X267474Y63810D01*
D02*
G37*
%LPC*%
G36*
X324270Y119040D02*
Y113270D01*
X329540D01*
Y119040D01*
X324270D01*
D02*
G37*
G36*
X329540Y110730D02*
X324270D01*
Y104960D01*
X329540D01*
Y110730D01*
D02*
G37*
%LPD*%
G36*
X745000Y82500D02*
X615000D01*
Y61540D01*
X614710D01*
Y40460D01*
X615000D01*
Y37500D01*
X587911D01*
X587233Y38770D01*
X587339Y38929D01*
X587635Y40416D01*
Y51000D01*
X587339Y52487D01*
X586497Y53747D01*
X585237Y54589D01*
X583750Y54885D01*
X582263Y54589D01*
X581003Y53747D01*
X580161Y52487D01*
X579865Y51000D01*
Y42025D01*
X579188Y41347D01*
X578345Y40087D01*
X578050Y38600D01*
Y37934D01*
X577693Y37500D01*
X575000D01*
Y65000D01*
X557500Y82500D01*
X492500D01*
Y132500D01*
X745000D01*
Y82500D01*
D02*
G37*
D15*
X581934Y37934D02*
Y38600D01*
X583750Y40416D02*
Y51000D01*
X581934Y38600D02*
X583750Y40416D01*
X351000Y11000D02*
Y22000D01*
X323000Y11000D02*
X337000D01*
X319500Y37000D02*
X323000Y33500D01*
Y11000D02*
Y33500D01*
X319500Y37000D02*
Y37500D01*
X290254Y21000D02*
Y22254D01*
X302270Y34270D02*
X302770D01*
X305500Y37000D02*
Y37500D01*
X302770Y34270D02*
X305500Y37000D01*
X290254Y22254D02*
X302270Y34270D01*
X177754Y160000D02*
Y177446D01*
X177500Y177700D02*
X177754Y177446D01*
X267364Y51000D02*
X272096Y55732D01*
X278946D01*
X247000Y51000D02*
X267364D01*
X246500D02*
X247000D01*
X237500Y60000D02*
X246500Y51000D01*
X205000Y60000D02*
X237500D01*
X107500D02*
X107700Y59800D01*
Y35400D02*
Y59800D01*
X96550Y110000D02*
X99550D01*
X133100Y64600D02*
Y75400D01*
X106280Y102220D02*
X133100Y75400D01*
X106280Y102220D02*
Y103270D01*
X99550Y110000D02*
X106280Y103270D01*
X646250Y51000D02*
X647500Y49750D01*
Y32500D02*
Y49750D01*
X247000Y25855D02*
Y37000D01*
X321596Y55732D02*
X328446D01*
X319500Y37500D02*
Y53636D01*
X321596Y55732D01*
X292606Y95106D02*
X309000Y111500D01*
X278946Y93832D02*
X280220Y95106D01*
X292606D01*
X309000Y111500D02*
Y112000D01*
X224568Y68432D02*
X278946D01*
X216850Y76150D02*
X224568Y68432D01*
X188450Y76150D02*
X216850D01*
X158500Y46200D02*
X188450Y76150D01*
Y110000D01*
X158500Y35400D02*
Y46200D01*
X177270Y116730D02*
X181720D01*
X188450Y110000D01*
X154500Y139500D02*
Y140000D01*
Y139500D02*
X177270Y116730D01*
X96000Y177700D02*
X96550Y177150D01*
Y110000D02*
Y177150D01*
X0Y0D02*
X770000D01*
X0Y200000D02*
X770000D01*
Y0D02*
Y200000D01*
X0Y0D02*
Y200000D01*
D17*
X323000Y11000D02*
D03*
X309000D02*
D03*
X351000D02*
D03*
X337000D02*
D03*
X309000Y112000D02*
D03*
X323000D02*
D03*
X154500Y140000D02*
D03*
X140500D02*
D03*
X305500Y37500D02*
D03*
X319500D02*
D03*
D18*
X31500Y64600D02*
D03*
X56900Y35400D02*
D03*
X82300Y64600D02*
D03*
X107700Y35400D02*
D03*
X133100Y64600D02*
D03*
X158500Y35400D02*
D03*
D19*
X96550Y110000D02*
D03*
D20*
X188450D02*
D03*
D21*
X746000Y42500D02*
D03*
X699000D02*
D03*
D22*
X726000Y160000D02*
D03*
Y104000D02*
D03*
X654000Y160000D02*
D03*
Y104000D02*
D03*
X578000Y160000D02*
D03*
Y104000D02*
D03*
D23*
X583750Y51000D02*
D03*
X596250D02*
D03*
X621250D02*
D03*
X633750D02*
D03*
X646250D02*
D03*
X608750D02*
D03*
D24*
X671750Y22000D02*
D03*
X558250D02*
D03*
D25*
X231500Y142500D02*
D03*
X257500D02*
D03*
D26*
X328446Y93832D02*
D03*
Y81132D02*
D03*
Y68432D02*
D03*
Y55732D02*
D03*
X278946D02*
D03*
Y68432D02*
D03*
Y81132D02*
D03*
Y93832D02*
D03*
D27*
X247000Y37000D02*
D03*
Y51000D02*
D03*
D28*
X430000Y105000D02*
D03*
X515598D02*
D03*
D29*
X378000Y101000D02*
D03*
Y33700D02*
D03*
D44*
X303696Y74782D02*
D03*
D45*
X177500Y177700D02*
X198300D01*
X96000D02*
X177500D01*
X689000Y52500D02*
X699000Y42500D01*
X647750Y52500D02*
X689000D01*
X646250Y51000D02*
X647750Y52500D01*
X231703Y103297D02*
X253868Y81132D01*
X633750Y51000D02*
X646250D01*
X625000D02*
X633750D01*
X32500Y177700D02*
X96000D01*
X278946Y81132D02*
X283000D01*
X253868D02*
X278946D01*
X231500Y103500D02*
Y142500D01*
Y144500D01*
X198300Y177700D02*
X231500Y144500D01*
D46*
X200000Y30000D02*
D03*
X50000Y110000D02*
D03*
X340000Y170000D02*
D03*
D47*
X690000Y92500D02*
D03*
X177754Y160000D02*
D03*
X290254Y21000D02*
D03*
X516254Y31000D02*
D03*
X471000Y179000D02*
D03*
D48*
X32500Y177700D02*
D03*
D49*
Y152300D02*
D03*
D50*
X581934Y37934D02*
D03*
X538000Y20000D02*
D03*
X575000Y12500D02*
D03*
X425000Y18310D02*
D03*
X475000D02*
D03*
X525000D02*
D03*
X351000Y22000D02*
D03*
X750000Y162500D02*
D03*
X725000Y12500D02*
D03*
X700000Y162500D02*
D03*
X600000D02*
D03*
X550000D02*
D03*
Y62500D02*
D03*
X500000Y162500D02*
D03*
X475000Y112500D02*
D03*
X500000Y62500D02*
D03*
X450000Y162500D02*
D03*
Y62500D02*
D03*
X400000Y162500D02*
D03*
Y62500D02*
D03*
X350000D02*
D03*
X300000Y162500D02*
D03*
X275000Y112500D02*
D03*
Y12500D02*
D03*
X250000Y162500D02*
D03*
X225000Y12500D02*
D03*
X175000D02*
D03*
X150000Y162500D02*
D03*
X125000Y112500D02*
D03*
Y12500D02*
D03*
X100000Y62500D02*
D03*
X75000Y12500D02*
D03*
X50000Y162500D02*
D03*
X25000Y12500D02*
D03*
X205000Y60000D02*
D03*
X107500D02*
D03*
X580000Y186000D02*
D03*
X597000Y154000D02*
D03*
X563000Y153000D02*
D03*
X655000Y186000D02*
D03*
X672000Y154000D02*
D03*
X638000Y153000D02*
D03*
X709000D02*
D03*
X743000Y154000D02*
D03*
X726000Y186000D02*
D03*
X731000Y40000D02*
D03*
X746000Y17000D02*
D03*
X745000Y65000D02*
D03*
X761000Y31000D02*
D03*
X692000Y18000D02*
D03*
X576000Y20000D02*
D03*
X557000Y43000D02*
D03*
X357000Y46000D02*
D03*
X398000Y48000D02*
D03*
X309000Y24000D02*
D03*
X402000Y26000D02*
D03*
X379000Y53000D02*
D03*
X305000Y57000D02*
D03*
X306000Y92000D02*
D03*
X344000Y68000D02*
D03*
Y80000D02*
D03*
X257500Y157500D02*
D03*
X140000Y152500D02*
D03*
X47500Y67500D02*
D03*
X57500Y60000D02*
D03*
X82500Y40000D02*
D03*
X647500Y32500D02*
D03*
X247000Y25855D02*
D03*
X231804Y103398D02*
D03*
M02*
