G04*
G04 #@! TF.GenerationSoftware,Altium Limited,Altium Designer,21.8.1 (53)*
G04*
G04 Layer_Color=8388736*
%FSLAX44Y44*%
%MOMM*%
G71*
G04*
G04 #@! TF.SameCoordinates,FBE6A57E-38F0-4EBD-B617-FC09060C68E2*
G04*
G04*
G04 #@! TF.FilePolarity,Negative*
G04*
G01*
G75*
%ADD15C,0.2540*%
%ADD21R,1.4000X3.0500*%
%ADD28R,2.9210X3.2512*%
%ADD30R,0.9016X1.0016*%
%ADD31R,1.3716X3.5316*%
%ADD32R,2.3016X1.7016*%
%ADD33R,2.2816X1.7016*%
%ADD34R,1.7016X3.6016*%
%ADD35R,1.5016X1.9016*%
%ADD36R,2.3916X2.3916*%
G04:AMPARAMS|DCode=37|XSize=2.0716mm|YSize=0.7016mm|CornerRadius=0.1258mm|HoleSize=0mm|Usage=FLASHONLY|Rotation=0.000|XOffset=0mm|YOffset=0mm|HoleType=Round|Shape=RoundedRectangle|*
%AMROUNDEDRECTD37*
21,1,2.0716,0.4500,0,0,0.0*
21,1,1.8200,0.7016,0,0,0.0*
1,1,0.2516,0.9100,-0.2250*
1,1,0.2516,-0.9100,-0.2250*
1,1,0.2516,-0.9100,0.2250*
1,1,0.2516,0.9100,0.2250*
%
%ADD37ROUNDEDRECTD37*%
%ADD38R,1.0016X0.9016*%
G04:AMPARAMS|DCode=39|XSize=2.4316mm|YSize=3.1716mm|CornerRadius=0.3421mm|HoleSize=0mm|Usage=FLASHONLY|Rotation=90.000|XOffset=0mm|YOffset=0mm|HoleType=Round|Shape=RoundedRectangle|*
%AMROUNDEDRECTD39*
21,1,2.4316,2.4875,0,0,90.0*
21,1,1.7475,3.1716,0,0,90.0*
1,1,0.6841,1.2437,0.8738*
1,1,0.6841,1.2437,-0.8738*
1,1,0.6841,-1.2437,-0.8738*
1,1,0.6841,-1.2437,0.8738*
%
%ADD39ROUNDEDRECTD39*%
%ADD40C,4.9016*%
%ADD41C,1.6256*%
%ADD42R,1.7516X1.7516*%
%ADD43C,1.7516*%
G36*
X569512Y6238D02*
X546988D01*
Y37762D01*
X569512D01*
Y6238D01*
D02*
G37*
G36*
X588512Y42238D02*
X578988D01*
Y59762D01*
X588512D01*
Y42238D01*
D02*
G37*
G36*
X601012D02*
X591488D01*
Y59762D01*
X601012D01*
Y42238D01*
D02*
G37*
G36*
X613512D02*
X603988D01*
Y59762D01*
X613512D01*
Y42238D01*
D02*
G37*
G36*
X626012D02*
X616488D01*
Y59762D01*
X626012D01*
Y42238D01*
D02*
G37*
G36*
X638512D02*
X628988D01*
Y59762D01*
X638512D01*
Y42238D01*
D02*
G37*
G36*
X683012Y6238D02*
X660488D01*
Y37762D01*
X683012D01*
Y6238D01*
D02*
G37*
G36*
X651012Y42238D02*
X641488D01*
Y59762D01*
X651012D01*
Y42238D01*
D02*
G37*
D15*
X0Y0D02*
X770000D01*
X0Y200000D02*
X770000D01*
Y0D02*
Y200000D01*
X0Y0D02*
Y200000D01*
D21*
X746000Y42500D02*
D03*
X699000D02*
D03*
D28*
X430000Y105000D02*
D03*
X515598D02*
D03*
D30*
X323000Y11000D02*
D03*
X309000D02*
D03*
X351000D02*
D03*
X337000D02*
D03*
X309000Y112000D02*
D03*
X323000D02*
D03*
X154500Y140000D02*
D03*
X140500D02*
D03*
X305500Y37500D02*
D03*
X319500D02*
D03*
D31*
X31500Y64600D02*
D03*
X56900Y35400D02*
D03*
X82300Y64600D02*
D03*
X107700Y35400D02*
D03*
X133100Y64600D02*
D03*
X158500Y35400D02*
D03*
D32*
X96550Y110000D02*
D03*
D33*
X188450D02*
D03*
D34*
X726000Y160000D02*
D03*
Y104000D02*
D03*
X654000Y160000D02*
D03*
Y104000D02*
D03*
X578000Y160000D02*
D03*
Y104000D02*
D03*
D35*
X231500Y142500D02*
D03*
X257500D02*
D03*
D36*
X303696Y74782D02*
D03*
D37*
X328446Y93832D02*
D03*
Y81132D02*
D03*
Y68432D02*
D03*
Y55732D02*
D03*
X278946D02*
D03*
Y68432D02*
D03*
Y81132D02*
D03*
Y93832D02*
D03*
D38*
X247000Y37000D02*
D03*
Y51000D02*
D03*
D39*
X378000Y101000D02*
D03*
Y33700D02*
D03*
D40*
X200000Y30000D02*
D03*
X50000Y110000D02*
D03*
X340000Y170000D02*
D03*
D41*
X690000Y92500D02*
D03*
X177754Y160000D02*
D03*
X290254Y21000D02*
D03*
X516254Y31000D02*
D03*
X471000Y179000D02*
D03*
D42*
X32500Y177700D02*
D03*
D43*
Y152300D02*
D03*
M02*
