G04*
G04 #@! TF.GenerationSoftware,Altium Limited,Altium Designer,21.8.1 (53)*
G04*
G04 Layer_Color=65535*
%FSLAX44Y44*%
%MOMM*%
G71*
G04*
G04 #@! TF.SameCoordinates,FBE6A57E-38F0-4EBD-B617-FC09060C68E2*
G04*
G04*
G04 #@! TF.FilePolarity,Positive*
G04*
G01*
G75*
%ADD10C,0.2000*%
%ADD11C,0.2500*%
%ADD12C,0.4000*%
%ADD13C,0.1524*%
%ADD14C,0.1270*%
%ADD15C,0.2540*%
%ADD16R,0.4000X2.2000*%
D10*
X162000Y10650D02*
G03*
X162000Y10650I-1000J0D01*
G01*
X711000Y88500D02*
G03*
X711000Y88500I-1000J0D01*
G01*
X639000D02*
G03*
X639000Y88500I-1000J0D01*
G01*
X563000D02*
G03*
X563000Y88500I-1000J0D01*
G01*
X260246Y99832D02*
G03*
X260246Y99832I-1000J0D01*
G01*
X388000Y16000D02*
G03*
X388000Y16000I-1000J0D01*
G01*
X302000Y3500D02*
X330000D01*
Y18500D01*
X302000D02*
X330000D01*
X302000Y3500D02*
Y18500D01*
X330000Y3500D02*
X358000D01*
Y18500D01*
X330000D02*
X358000D01*
X330000Y3500D02*
Y18500D01*
X18800Y37300D02*
X44200D01*
X18800D02*
Y62700D01*
X171200Y37300D02*
Y62700D01*
X145800D02*
X171200D01*
X112500Y92500D02*
X172500D01*
Y127500D01*
X112500Y92500D02*
Y127500D01*
X172500D01*
X302000Y119500D02*
X330000D01*
X302000Y104500D02*
Y119500D01*
Y104500D02*
X330000D01*
Y119500D01*
X133500Y132500D02*
X161500D01*
Y147500D01*
X133500D02*
X161500D01*
X133500Y132500D02*
Y147500D01*
X239500Y30000D02*
Y58000D01*
Y30000D02*
X254500D01*
Y58000D01*
X239500D02*
X254500D01*
X298500Y45000D02*
X326500D01*
X298500Y30000D02*
Y45000D01*
Y30000D02*
X326500D01*
Y45000D01*
D11*
X81300Y110000D02*
G03*
X81300Y110000I-1250J0D01*
G01*
D12*
X77000Y182500D02*
G03*
X77000Y182500I-2000J0D01*
G01*
D13*
X758262Y42500D02*
G03*
X758262Y42500I-762J0D01*
G01*
X542141Y105000D02*
G03*
X542141Y105000I-762J0D01*
G01*
X709837Y27500D02*
X735500D01*
X709500Y57500D02*
X735163D01*
X529949Y124583D02*
Y157705D01*
Y52295D02*
Y85417D01*
X415649Y52295D02*
X529949D01*
X415649Y124583D02*
Y157705D01*
X529949D01*
X415649Y52295D02*
Y85417D01*
D14*
X65000Y137300D02*
Y192700D01*
X0Y137300D02*
X65000D01*
X0D02*
Y192700D01*
X65000D01*
X737500Y165000D02*
X759000D01*
Y112500D02*
Y165000D01*
X745500Y99000D02*
X759000Y112500D01*
X737500Y99000D02*
X745500D01*
X693000Y165000D02*
X714500D01*
X693000Y112500D02*
Y165000D01*
Y112500D02*
X706500Y99000D01*
X714500D01*
X665500Y165000D02*
X687000D01*
Y112500D02*
Y165000D01*
X673500Y99000D02*
X687000Y112500D01*
X665500Y99000D02*
X673500D01*
X621000Y165000D02*
X642500D01*
X621000Y112500D02*
Y165000D01*
Y112500D02*
X634500Y99000D01*
X642500D01*
X589500Y165000D02*
X611000D01*
Y112500D02*
Y165000D01*
X597500Y99000D02*
X611000Y112500D01*
X589500Y99000D02*
X597500D01*
X545000Y165000D02*
X566500D01*
X545000Y112500D02*
Y165000D01*
Y112500D02*
X558500Y99000D01*
X566500D01*
X653450Y53000D02*
X678250D01*
X551750D02*
X576550D01*
X551750Y1000D02*
X678250D01*
X551750Y40000D02*
Y53000D01*
X678250Y40000D02*
Y53000D01*
X580000Y73050D02*
X586000D01*
X583000Y68050D02*
X586000Y73050D01*
X580000D02*
X583000Y68050D01*
X551750Y1000D02*
Y3500D01*
X678250Y1000D02*
Y3500D01*
X283696Y49532D02*
X323696D01*
X283696Y100032D02*
X323696D01*
X396485Y102850D02*
X408500D01*
Y31850D02*
Y102850D01*
X396485Y31850D02*
X408500D01*
X347500Y102850D02*
X359515D01*
X347500Y31850D02*
Y102850D01*
Y31850D02*
X359515D01*
D15*
X421811Y17697D02*
X418426D01*
X420118D01*
Y9233D01*
X418426Y7540D01*
X416733D01*
X415040Y9233D01*
X426889Y14311D02*
X430275D01*
X431968Y12618D01*
Y7540D01*
X426889D01*
X425197Y9233D01*
X426889Y10926D01*
X431968D01*
X435353Y7540D02*
Y14311D01*
X437046D01*
X438739Y12618D01*
Y7540D01*
Y12618D01*
X440432Y14311D01*
X442125Y12618D01*
Y7540D01*
X450588D02*
X447203D01*
X445510Y9233D01*
Y12618D01*
X447203Y14311D01*
X450588D01*
X452281Y12618D01*
Y10926D01*
X445510D01*
X455667Y7540D02*
X460745D01*
X462438Y9233D01*
X460745Y10926D01*
X457360D01*
X455667Y12618D01*
X457360Y14311D01*
X462438D01*
X482752Y16004D02*
X481059Y17697D01*
X477673D01*
X475980Y16004D01*
Y9233D01*
X477673Y7540D01*
X481059D01*
X482752Y9233D01*
X486137Y17697D02*
Y7540D01*
Y12618D01*
X487830Y14311D01*
X491215D01*
X492908Y12618D01*
Y7540D01*
X501372D02*
X497987D01*
X496294Y9233D01*
Y12618D01*
X497987Y14311D01*
X501372D01*
X503065Y12618D01*
Y10926D01*
X496294D01*
X506451Y7540D02*
Y14311D01*
X511529D01*
X513222Y12618D01*
Y7540D01*
X632540Y67540D02*
X639311D01*
X594540Y67926D02*
X601311D01*
X597926Y71311D02*
Y64540D01*
X280536Y2922D02*
Y13078D01*
X285614D01*
X287307Y11386D01*
Y8000D01*
X285614Y6307D01*
X280536D01*
X283922D02*
X287307Y2922D01*
X297464Y13078D02*
X294078Y11386D01*
X290693Y8000D01*
Y4614D01*
X292386Y2922D01*
X295771D01*
X297464Y4614D01*
Y6307D01*
X295771Y8000D01*
X290693D01*
X361536Y3922D02*
Y14078D01*
X366614D01*
X368307Y12386D01*
Y9000D01*
X366614Y7307D01*
X361536D01*
X364922D02*
X368307Y3922D01*
X378464Y14078D02*
X371693D01*
Y9000D01*
X375078Y10693D01*
X376771D01*
X378464Y9000D01*
Y5614D01*
X376771Y3922D01*
X373386D01*
X371693Y5614D01*
X117382Y62540D02*
Y69311D01*
X113996Y65926D02*
X120767D01*
X122460Y72697D02*
Y76082D01*
Y74390D01*
X112303D01*
X113996Y72697D01*
X122460Y87932D02*
Y81161D01*
X115689Y87932D01*
X113996D01*
X112303Y86239D01*
Y82853D01*
X113996Y81161D01*
X137303Y16811D02*
Y10040D01*
X147460D01*
Y16811D01*
X142382Y10040D02*
Y13426D01*
X147460Y20197D02*
X137303D01*
X147460Y26968D01*
X137303D01*
X77540Y5040D02*
Y15197D01*
X82618D01*
X84311Y13504D01*
Y10118D01*
X82618Y8426D01*
X77540D01*
X94468Y13504D02*
X92775Y15197D01*
X89389D01*
X87697Y13504D01*
Y6733D01*
X89389Y5040D01*
X92775D01*
X94468Y6733D01*
Y10118D01*
X91082D01*
X102932Y15197D02*
X99546D01*
X97853Y13504D01*
Y6733D01*
X99546Y5040D01*
X102932D01*
X104625Y6733D01*
Y13504D01*
X102932Y15197D01*
X113089D02*
X109703D01*
X108010Y13504D01*
Y6733D01*
X109703Y5040D01*
X113089D01*
X114781Y6733D01*
Y13504D01*
X113089Y15197D01*
X118167D02*
Y5040D01*
X123245D01*
X124938Y6733D01*
Y13504D01*
X123245Y15197D01*
X118167D01*
X63996Y66811D02*
X62303Y65118D01*
Y61733D01*
X63996Y60040D01*
X70767D01*
X72460Y61733D01*
Y65118D01*
X70767Y66811D01*
X67382D01*
Y63426D01*
X72460Y70197D02*
X62303D01*
X72460Y76968D01*
X62303D01*
Y80353D02*
X72460D01*
Y85432D01*
X70767Y87125D01*
X63996D01*
X62303Y85432D01*
Y80353D01*
X46811Y13504D02*
X45118Y15197D01*
X41733D01*
X40040Y13504D01*
Y6733D01*
X41733Y5040D01*
X45118D01*
X46811Y6733D01*
Y10118D01*
X43426D01*
X50197Y5040D02*
Y15197D01*
X56968Y5040D01*
Y15197D01*
X60353D02*
Y5040D01*
X65432D01*
X67125Y6733D01*
Y13504D01*
X65432Y15197D01*
X60353D01*
X10996Y75311D02*
X9303Y73618D01*
Y70233D01*
X10996Y68540D01*
X17767D01*
X19460Y70233D01*
Y73618D01*
X17767Y75311D01*
X14382D01*
Y71926D01*
X19460Y78697D02*
X9303D01*
X19460Y85468D01*
X9303D01*
Y88853D02*
X19460D01*
Y93932D01*
X17767Y95625D01*
X10996D01*
X9303Y93932D01*
Y88853D01*
X82697Y155236D02*
X80157Y157775D01*
X75079D01*
X72540Y155236D01*
Y145079D01*
X75079Y142540D01*
X80157D01*
X82697Y145079D01*
Y150157D01*
X77618D01*
X87775Y142540D02*
Y157775D01*
X97932Y142540D01*
Y157775D01*
X103010D02*
Y142540D01*
X110628D01*
X113167Y145079D01*
Y155236D01*
X110628Y157775D01*
X103010D01*
X90040Y185275D02*
Y175118D01*
X95118Y170040D01*
X100197Y175118D01*
Y185275D01*
X105275D02*
X110353D01*
X107814D01*
Y170040D01*
X105275D01*
X110353D01*
X117971D02*
Y185275D01*
X128128Y170040D01*
Y185275D01*
X12461Y27617D02*
X7383D01*
X9922D01*
Y14922D01*
X7383Y12383D01*
X4843D01*
X2304Y14922D01*
X27696Y12383D02*
X17539D01*
X27696Y22539D01*
Y25078D01*
X25157Y27617D01*
X20078D01*
X17539Y25078D01*
X189883Y90078D02*
X187343Y92618D01*
X182265D01*
X179726Y90078D01*
Y87539D01*
X182265Y85000D01*
X187343D01*
X189883Y82461D01*
Y79922D01*
X187343Y77382D01*
X182265D01*
X179726Y79922D01*
X194961Y92618D02*
Y77382D01*
X200039Y82461D01*
X205118Y77382D01*
Y92618D01*
X210196Y77382D02*
X215274D01*
X212735D01*
Y92618D01*
X210196Y90078D01*
X14000Y133617D02*
X8922D01*
X11461D01*
Y120922D01*
X8922Y118383D01*
X6382D01*
X3843Y120922D01*
X19078Y118383D02*
X24157D01*
X21618D01*
Y133617D01*
X19078Y131078D01*
X709804Y7883D02*
Y23117D01*
X717422D01*
X719961Y20578D01*
Y15500D01*
X717422Y12961D01*
X709804D01*
X714883D02*
X719961Y7883D01*
X725039Y20578D02*
X727578Y23117D01*
X732657D01*
X735196Y20578D01*
Y18039D01*
X732657Y15500D01*
X730117D01*
X732657D01*
X735196Y12961D01*
Y10422D01*
X732657Y7883D01*
X727578D01*
X725039Y10422D01*
X313655Y140880D02*
X311115Y143419D01*
X306037D01*
X303498Y140880D01*
Y130723D01*
X306037Y128184D01*
X311115D01*
X313655Y130723D01*
X318733Y128184D02*
X323811D01*
X321272D01*
Y143419D01*
X318733Y140880D01*
X697461Y182578D02*
X694922Y185117D01*
X689843D01*
X687304Y182578D01*
Y172422D01*
X689843Y169883D01*
X694922D01*
X697461Y172422D01*
X712696Y169883D02*
X702539D01*
X712696Y180039D01*
Y182578D01*
X710157Y185117D01*
X705078D01*
X702539Y182578D01*
X624961D02*
X622422Y185117D01*
X617343D01*
X614804Y182578D01*
Y172422D01*
X617343Y169883D01*
X622422D01*
X624961Y172422D01*
X630039Y182578D02*
X632578Y185117D01*
X637657D01*
X640196Y182578D01*
Y180039D01*
X637657Y177500D01*
X635117D01*
X637657D01*
X640196Y174961D01*
Y172422D01*
X637657Y169883D01*
X632578D01*
X630039Y172422D01*
X549961Y182578D02*
X547422Y185117D01*
X542343D01*
X539804Y182578D01*
Y172422D01*
X542343Y169883D01*
X547422D01*
X549961Y172422D01*
X562657Y169883D02*
Y185117D01*
X555039Y177500D01*
X565196D01*
X551399Y96429D02*
X546320D01*
X548859D01*
Y83733D01*
X546320Y81194D01*
X543781D01*
X541242Y83733D01*
X556477Y93890D02*
X559016Y96429D01*
X564095D01*
X566634Y93890D01*
Y91351D01*
X564095Y88812D01*
X561555D01*
X564095D01*
X566634Y86272D01*
Y83733D01*
X564095Y81194D01*
X559016D01*
X556477Y83733D01*
X229835Y176948D02*
X227295Y179487D01*
X222217D01*
X219678Y176948D01*
Y166791D01*
X222217Y164252D01*
X227295D01*
X229835Y166791D01*
X245070Y179487D02*
X234913D01*
Y171870D01*
X239991Y174409D01*
X242531D01*
X245070Y171870D01*
Y166791D01*
X242531Y164252D01*
X237452D01*
X234913Y166791D01*
X259843Y122618D02*
Y109922D01*
X262383Y107382D01*
X267461D01*
X270000Y109922D01*
Y122618D01*
X275078Y107382D02*
X280157D01*
X277618D01*
Y122618D01*
X275078Y120078D01*
X169804Y132382D02*
Y147618D01*
X177422D01*
X179961Y145078D01*
Y140000D01*
X177422Y137461D01*
X169804D01*
X174883D02*
X179961Y132382D01*
X192657D02*
Y147618D01*
X185039Y140000D01*
X195196D01*
X260843Y29383D02*
Y44618D01*
X268461D01*
X271000Y42078D01*
Y37000D01*
X268461Y34461D01*
X260843D01*
X265922D02*
X271000Y29383D01*
X276078D02*
X281157D01*
X278618D01*
Y44618D01*
X276078Y42078D01*
X342078Y28536D02*
X331922D01*
Y33614D01*
X333614Y35307D01*
X337000D01*
X338693Y33614D01*
Y28536D01*
Y31922D02*
X342078Y35307D01*
Y45464D02*
Y38693D01*
X335307Y45464D01*
X333614D01*
X331922Y43771D01*
Y40386D01*
X333614Y38693D01*
X411702Y183043D02*
Y167808D01*
X421859D01*
X426937D02*
X432015D01*
X429476D01*
Y183043D01*
X426937Y180504D01*
X347186Y138339D02*
Y123104D01*
X354804D01*
X357343Y125643D01*
Y135800D01*
X354804Y138339D01*
X347186D01*
X362421Y123104D02*
X367499D01*
X364960D01*
Y138339D01*
X362421Y135800D01*
X0Y0D02*
X770000D01*
X0Y200000D02*
X770000D01*
Y0D02*
Y200000D01*
X0Y0D02*
Y200000D01*
D16*
X219500Y142500D02*
D03*
M02*
