G04*
G04 #@! TF.GenerationSoftware,Altium Limited,Altium Designer,21.8.1 (53)*
G04*
G04 Layer_Physical_Order=2*
G04 Layer_Color=16711680*
%FSLAX44Y44*%
%MOMM*%
G71*
G04*
G04 #@! TF.SameCoordinates,FBE6A57E-38F0-4EBD-B617-FC09060C68E2*
G04*
G04*
G04 #@! TF.FilePolarity,Positive*
G04*
G01*
G75*
%ADD15C,0.2540*%
%ADD46C,4.8000*%
%ADD47C,1.5240*%
%ADD48R,1.6500X1.6500*%
%ADD49C,1.6500*%
%ADD50C,0.5000*%
G36*
X770000Y0D02*
X0D01*
Y200000D01*
X770000D01*
Y0D01*
D02*
G37*
%LPC*%
G36*
X655000Y191139D02*
X653034Y190748D01*
X651366Y189634D01*
X650252Y187966D01*
X649861Y186000D01*
X650252Y184034D01*
X651366Y182366D01*
X653034Y181252D01*
X655000Y180861D01*
X656966Y181252D01*
X658634Y182366D01*
X659748Y184034D01*
X660139Y186000D01*
X659748Y187966D01*
X658634Y189634D01*
X656966Y190748D01*
X655000Y191139D01*
D02*
G37*
G36*
X580000D02*
X578033Y190748D01*
X576366Y189634D01*
X575252Y187966D01*
X574861Y186000D01*
X575252Y184034D01*
X576366Y182366D01*
X578033Y181252D01*
X580000Y180861D01*
X581967Y181252D01*
X583634Y182366D01*
X584748Y184034D01*
X585139Y186000D01*
X584748Y187966D01*
X583634Y189634D01*
X581967Y190748D01*
X580000Y191139D01*
D02*
G37*
G36*
X472270Y189081D02*
Y180270D01*
X481081D01*
X480899Y181652D01*
X479875Y184124D01*
X478246Y186246D01*
X476124Y187875D01*
X473652Y188899D01*
X472270Y189081D01*
D02*
G37*
G36*
X469730Y189081D02*
X468348Y188899D01*
X465876Y187875D01*
X463754Y186246D01*
X462125Y184124D01*
X461101Y181652D01*
X460919Y180270D01*
X469730D01*
Y189081D01*
D02*
G37*
G36*
X341270Y196522D02*
Y171270D01*
X366522D01*
X366294Y174165D01*
X365319Y178227D01*
X363721Y182086D01*
X361538Y185648D01*
X358825Y188825D01*
X355648Y191538D01*
X352086Y193720D01*
X348227Y195319D01*
X344165Y196294D01*
X341270Y196522D01*
D02*
G37*
G36*
X338730D02*
X335835Y196294D01*
X331773Y195319D01*
X327914Y193720D01*
X324352Y191538D01*
X321175Y188825D01*
X318462Y185648D01*
X316280Y182086D01*
X314681Y178227D01*
X313706Y174165D01*
X313478Y171270D01*
X338730D01*
Y196522D01*
D02*
G37*
G36*
X481081Y177730D02*
X472270D01*
Y168920D01*
X473652Y169102D01*
X476124Y170125D01*
X478246Y171754D01*
X479875Y173876D01*
X480899Y176348D01*
X481081Y177730D01*
D02*
G37*
G36*
X469730D02*
X460919D01*
X461101Y176348D01*
X462125Y173876D01*
X463754Y171754D01*
X465876Y170125D01*
X468348Y169102D01*
X469730Y168920D01*
Y177730D01*
D02*
G37*
G36*
X43290Y188490D02*
X21710D01*
Y166910D01*
X43290D01*
Y188490D01*
D02*
G37*
G36*
X33770Y163016D02*
Y153570D01*
X43216D01*
X43012Y155117D01*
X41925Y157741D01*
X40195Y159995D01*
X37942Y161725D01*
X35317Y162812D01*
X33770Y163016D01*
D02*
G37*
G36*
X31230D02*
X29683Y162812D01*
X27058Y161725D01*
X24804Y159995D01*
X23075Y157741D01*
X21988Y155117D01*
X21784Y153570D01*
X31230D01*
Y163016D01*
D02*
G37*
G36*
X177754Y170248D02*
X175102Y169898D01*
X172630Y168875D01*
X170508Y167246D01*
X168879Y165124D01*
X167855Y162652D01*
X167506Y160000D01*
X167855Y157348D01*
X168879Y154876D01*
X170508Y152754D01*
X172630Y151125D01*
X175102Y150101D01*
X177754Y149752D01*
X180406Y150101D01*
X182878Y151125D01*
X185000Y152754D01*
X186629Y154876D01*
X187652Y157348D01*
X188002Y160000D01*
X187652Y162652D01*
X186629Y165124D01*
X185000Y167246D01*
X182878Y168875D01*
X180406Y169898D01*
X177754Y170248D01*
D02*
G37*
G36*
X672000Y159139D02*
X670033Y158748D01*
X668366Y157634D01*
X667253Y155967D01*
X666861Y154000D01*
X667253Y152034D01*
X668366Y150366D01*
X670033Y149252D01*
X672000Y148861D01*
X673967Y149252D01*
X675634Y150366D01*
X676748Y152034D01*
X677139Y154000D01*
X676748Y155967D01*
X675634Y157634D01*
X673967Y158748D01*
X672000Y159139D01*
D02*
G37*
G36*
X597000D02*
X595033Y158748D01*
X593366Y157634D01*
X592253Y155967D01*
X591861Y154000D01*
X592253Y152034D01*
X593366Y150366D01*
X595033Y149252D01*
X597000Y148861D01*
X598966Y149252D01*
X600634Y150366D01*
X601748Y152034D01*
X602139Y154000D01*
X601748Y155967D01*
X600634Y157634D01*
X598966Y158748D01*
X597000Y159139D01*
D02*
G37*
G36*
X638000Y158139D02*
X636034Y157748D01*
X634366Y156634D01*
X633252Y154966D01*
X632861Y153000D01*
X633252Y151033D01*
X634366Y149366D01*
X636034Y148252D01*
X638000Y147861D01*
X639967Y148252D01*
X641634Y149366D01*
X642748Y151033D01*
X643139Y153000D01*
X642748Y154966D01*
X641634Y156634D01*
X639967Y157748D01*
X638000Y158139D01*
D02*
G37*
G36*
X563000D02*
X561034Y157748D01*
X559366Y156634D01*
X558252Y154966D01*
X557861Y153000D01*
X558252Y151033D01*
X559366Y149366D01*
X561034Y148252D01*
X563000Y147861D01*
X564967Y148252D01*
X566634Y149366D01*
X567748Y151033D01*
X568139Y153000D01*
X567748Y154966D01*
X566634Y156634D01*
X564967Y157748D01*
X563000Y158139D01*
D02*
G37*
G36*
X366522Y168730D02*
X341270D01*
Y143478D01*
X344165Y143706D01*
X348227Y144681D01*
X352086Y146279D01*
X355648Y148462D01*
X358825Y151175D01*
X361538Y154352D01*
X363721Y157914D01*
X365319Y161773D01*
X366294Y165835D01*
X366522Y168730D01*
D02*
G37*
G36*
X338730D02*
X313478D01*
X313706Y165835D01*
X314681Y161773D01*
X316280Y157914D01*
X318462Y154352D01*
X321175Y151175D01*
X324352Y148462D01*
X327914Y146279D01*
X331773Y144681D01*
X335835Y143706D01*
X338730Y143478D01*
Y168730D01*
D02*
G37*
G36*
X43216Y151030D02*
X33770D01*
Y141584D01*
X35317Y141788D01*
X37942Y142875D01*
X40195Y144605D01*
X41925Y146859D01*
X43012Y149483D01*
X43216Y151030D01*
D02*
G37*
G36*
X31230D02*
X21784D01*
X21988Y149483D01*
X23075Y146859D01*
X24804Y144605D01*
X27058Y142875D01*
X29683Y141788D01*
X31230Y141584D01*
Y151030D01*
D02*
G37*
G36*
X51270Y136522D02*
Y111270D01*
X76522D01*
X76294Y114165D01*
X75319Y118227D01*
X73720Y122086D01*
X71538Y125648D01*
X68825Y128825D01*
X65648Y131538D01*
X62086Y133721D01*
X58227Y135319D01*
X54165Y136294D01*
X51270Y136522D01*
D02*
G37*
G36*
X48730D02*
X45835Y136294D01*
X41773Y135319D01*
X37914Y133721D01*
X34352Y131538D01*
X31175Y128825D01*
X28462Y125648D01*
X26280Y122086D01*
X24681Y118227D01*
X23706Y114165D01*
X23478Y111270D01*
X48730D01*
Y136522D01*
D02*
G37*
G36*
X76522Y108730D02*
X51270D01*
Y83478D01*
X54165Y83706D01*
X58227Y84681D01*
X62086Y86280D01*
X65648Y88462D01*
X68825Y91175D01*
X71538Y94352D01*
X73720Y97914D01*
X75319Y101773D01*
X76294Y105835D01*
X76522Y108730D01*
D02*
G37*
G36*
X48730D02*
X23478D01*
X23706Y105835D01*
X24681Y101773D01*
X26280Y97914D01*
X28462Y94352D01*
X31175Y91175D01*
X34352Y88462D01*
X37914Y86280D01*
X41773Y84681D01*
X45835Y83706D01*
X48730Y83478D01*
Y108730D01*
D02*
G37*
G36*
X690000Y102748D02*
X687348Y102399D01*
X684876Y101375D01*
X682754Y99746D01*
X681125Y97624D01*
X680101Y95152D01*
X679752Y92500D01*
X680101Y89848D01*
X681125Y87376D01*
X682754Y85254D01*
X684876Y83625D01*
X687348Y82601D01*
X690000Y82252D01*
X692652Y82601D01*
X695124Y83625D01*
X697246Y85254D01*
X698875Y87376D01*
X699899Y89848D01*
X700248Y92500D01*
X699899Y95152D01*
X698875Y97624D01*
X697246Y99746D01*
X695124Y101375D01*
X692652Y102399D01*
X690000Y102748D01*
D02*
G37*
G36*
X205000Y65139D02*
X203034Y64748D01*
X201742Y63885D01*
X110758D01*
X109466Y64748D01*
X107500Y65139D01*
X105534Y64748D01*
X103866Y63634D01*
X102752Y61967D01*
X102361Y60000D01*
X102752Y58033D01*
X103866Y56366D01*
X105534Y55252D01*
X107500Y54861D01*
X109466Y55252D01*
X110758Y56115D01*
X190377D01*
X190630Y54845D01*
X187914Y53720D01*
X184352Y51538D01*
X181175Y48825D01*
X178462Y45648D01*
X176280Y42086D01*
X174681Y38227D01*
X173706Y34165D01*
X173478Y31270D01*
X226522D01*
X226294Y34165D01*
X225319Y38227D01*
X223720Y42086D01*
X221538Y45648D01*
X218825Y48825D01*
X215648Y51538D01*
X212086Y53720D01*
X208922Y55031D01*
X208675Y56176D01*
X208717Y56491D01*
X209748Y58033D01*
X210139Y60000D01*
X209748Y61967D01*
X208634Y63634D01*
X206966Y64748D01*
X205000Y65139D01*
D02*
G37*
G36*
X517524Y41080D02*
Y32270D01*
X526334D01*
X526152Y33652D01*
X525129Y36124D01*
X523500Y38246D01*
X521378Y39875D01*
X518906Y40898D01*
X517524Y41080D01*
D02*
G37*
G36*
X514984Y41080D02*
X513602Y40898D01*
X511130Y39875D01*
X509008Y38246D01*
X507379Y36124D01*
X506356Y33652D01*
X506174Y32270D01*
X514984D01*
Y41080D01*
D02*
G37*
G36*
Y29730D02*
X506174D01*
X506356Y28348D01*
X507379Y25876D01*
X509008Y23754D01*
X511130Y22125D01*
X513602Y21102D01*
X514984Y20919D01*
Y29730D01*
D02*
G37*
G36*
X526334D02*
X517524D01*
Y20919D01*
X518906Y21102D01*
X521378Y22125D01*
X523500Y23754D01*
X525129Y25876D01*
X526152Y28348D01*
X526334Y29730D01*
D02*
G37*
G36*
X231804Y108537D02*
X229837Y108145D01*
X228170Y107031D01*
X227056Y105364D01*
X226665Y103398D01*
X227056Y101431D01*
X227919Y100140D01*
Y41051D01*
X228215Y39564D01*
X229057Y38304D01*
X241949Y25412D01*
X242252Y23888D01*
X243366Y22221D01*
X245033Y21107D01*
X247000Y20716D01*
X248967Y21107D01*
X250634Y22221D01*
X251748Y23888D01*
X252139Y25855D01*
X251748Y27821D01*
X250634Y29488D01*
X248967Y30602D01*
X247443Y30905D01*
X235688Y42660D01*
Y100140D01*
X236551Y101431D01*
X236942Y103398D01*
X236551Y105364D01*
X235437Y107031D01*
X233770Y108145D01*
X231804Y108537D01*
D02*
G37*
G36*
X581934Y43073D02*
X579968Y42682D01*
X578301Y41568D01*
X577187Y39901D01*
X576884Y38377D01*
X554391Y15885D01*
X374609D01*
X365747Y24747D01*
X364487Y25589D01*
X363000Y25885D01*
X354258D01*
X352966Y26748D01*
X351000Y27139D01*
X349034Y26748D01*
X347366Y25634D01*
X346252Y23967D01*
X345861Y22000D01*
X346252Y20034D01*
X347366Y18366D01*
X349034Y17252D01*
X351000Y16861D01*
X352966Y17252D01*
X354258Y18115D01*
X361391D01*
X368448Y11058D01*
X367962Y9885D01*
X302609D01*
X298039Y14455D01*
X299129Y15876D01*
X300152Y18348D01*
X300502Y21000D01*
X300152Y23652D01*
X299129Y26124D01*
X297500Y28246D01*
X295378Y29875D01*
X292906Y30898D01*
X290254Y31248D01*
X287602Y30898D01*
X285130Y29875D01*
X283008Y28246D01*
X281379Y26124D01*
X280355Y23652D01*
X280006Y21000D01*
X280355Y18348D01*
X281379Y15876D01*
X283008Y13754D01*
X285130Y12125D01*
X287602Y11101D01*
X290254Y10752D01*
X290696Y10811D01*
X298253Y3253D01*
X299513Y2411D01*
X301000Y2115D01*
X621000D01*
X622487Y2411D01*
X623747Y3253D01*
X647943Y27449D01*
X649466Y27752D01*
X651134Y28866D01*
X652248Y30533D01*
X652639Y32500D01*
X652248Y34467D01*
X651134Y36134D01*
X649466Y37248D01*
X647500Y37639D01*
X645534Y37248D01*
X643866Y36134D01*
X642752Y34467D01*
X642449Y32943D01*
X619391Y9885D01*
X561038D01*
X560552Y11058D01*
X582378Y32884D01*
X583901Y33187D01*
X585568Y34301D01*
X586682Y35968D01*
X587073Y37934D01*
X586682Y39901D01*
X585568Y41568D01*
X583901Y42682D01*
X581934Y43073D01*
D02*
G37*
G36*
X226522Y28730D02*
X201270D01*
Y3478D01*
X204165Y3706D01*
X208227Y4681D01*
X212086Y6280D01*
X215648Y8462D01*
X218825Y11175D01*
X221538Y14352D01*
X223720Y17914D01*
X225319Y21773D01*
X226294Y25835D01*
X226522Y28730D01*
D02*
G37*
G36*
X198730D02*
X173478D01*
X173706Y25835D01*
X174681Y21773D01*
X176280Y17914D01*
X178462Y14352D01*
X181175Y11175D01*
X184352Y8462D01*
X187914Y6280D01*
X191773Y4681D01*
X195835Y3706D01*
X198730Y3478D01*
Y28730D01*
D02*
G37*
%LPD*%
D15*
X363000Y22000D02*
X373000Y12000D01*
X556000D02*
X581934Y37934D01*
X373000Y12000D02*
X556000D01*
X290254Y16746D02*
X301000Y6000D01*
X621000D01*
X647500Y32500D01*
X351000Y22000D02*
X363000D01*
X290254Y16746D02*
Y21000D01*
X107500Y60000D02*
X205000D01*
X231804Y41051D02*
X247000Y25855D01*
X231804Y41051D02*
Y103398D01*
X0Y0D02*
X770000D01*
X0Y200000D02*
X770000D01*
Y0D02*
Y200000D01*
X0Y0D02*
Y200000D01*
D46*
X200000Y30000D02*
D03*
X50000Y110000D02*
D03*
X340000Y170000D02*
D03*
D47*
X690000Y92500D02*
D03*
X177754Y160000D02*
D03*
X290254Y21000D02*
D03*
X516254Y31000D02*
D03*
X471000Y179000D02*
D03*
D48*
X32500Y177700D02*
D03*
D49*
Y152300D02*
D03*
D50*
X581934Y37934D02*
D03*
X538000Y20000D02*
D03*
X575000Y12500D02*
D03*
X425000Y18310D02*
D03*
X475000D02*
D03*
X525000D02*
D03*
X351000Y22000D02*
D03*
X750000Y162500D02*
D03*
X725000Y12500D02*
D03*
X700000Y162500D02*
D03*
X600000D02*
D03*
X550000D02*
D03*
Y62500D02*
D03*
X500000Y162500D02*
D03*
X475000Y112500D02*
D03*
X500000Y62500D02*
D03*
X450000Y162500D02*
D03*
Y62500D02*
D03*
X400000Y162500D02*
D03*
Y62500D02*
D03*
X350000D02*
D03*
X300000Y162500D02*
D03*
X275000Y112500D02*
D03*
Y12500D02*
D03*
X250000Y162500D02*
D03*
X225000Y12500D02*
D03*
X175000D02*
D03*
X150000Y162500D02*
D03*
X125000Y112500D02*
D03*
Y12500D02*
D03*
X100000Y62500D02*
D03*
X75000Y12500D02*
D03*
X50000Y162500D02*
D03*
X25000Y12500D02*
D03*
X205000Y60000D02*
D03*
X107500D02*
D03*
X580000Y186000D02*
D03*
X597000Y154000D02*
D03*
X563000Y153000D02*
D03*
X655000Y186000D02*
D03*
X672000Y154000D02*
D03*
X638000Y153000D02*
D03*
X709000D02*
D03*
X743000Y154000D02*
D03*
X726000Y186000D02*
D03*
X731000Y40000D02*
D03*
X746000Y17000D02*
D03*
X745000Y65000D02*
D03*
X761000Y31000D02*
D03*
X692000Y18000D02*
D03*
X576000Y20000D02*
D03*
X557000Y43000D02*
D03*
X357000Y46000D02*
D03*
X398000Y48000D02*
D03*
X309000Y24000D02*
D03*
X402000Y26000D02*
D03*
X379000Y53000D02*
D03*
X305000Y57000D02*
D03*
X306000Y92000D02*
D03*
X344000Y68000D02*
D03*
Y80000D02*
D03*
X257500Y157500D02*
D03*
X140000Y152500D02*
D03*
X47500Y67500D02*
D03*
X57500Y60000D02*
D03*
X82500Y40000D02*
D03*
X647500Y32500D02*
D03*
X247000Y25855D02*
D03*
X231804Y103398D02*
D03*
M02*
