G04*
G04 #@! TF.GenerationSoftware,Altium Limited,Altium Designer,21.8.1 (53)*
G04*
G04 Layer_Color=8421504*
%FSLAX44Y44*%
%MOMM*%
G71*
G04*
G04 #@! TF.SameCoordinates,FBE6A57E-38F0-4EBD-B617-FC09060C68E2*
G04*
G04*
G04 #@! TF.FilePolarity,Positive*
G04*
G01*
G75*
%ADD15C,0.2540*%
%ADD17R,0.8000X0.9000*%
%ADD18R,1.2700X3.4300*%
%ADD19R,2.2000X1.6000*%
%ADD20R,2.1800X1.6000*%
%ADD21R,1.4000X3.0500*%
%ADD22R,1.6000X3.5000*%
%ADD23R,0.8000X1.6000*%
%ADD24R,2.1000X3.0000*%
%ADD25R,1.4000X1.8000*%
G04:AMPARAMS|DCode=26|XSize=1.97mm|YSize=0.6mm|CornerRadius=0.075mm|HoleSize=0mm|Usage=FLASHONLY|Rotation=0.000|XOffset=0mm|YOffset=0mm|HoleType=Round|Shape=RoundedRectangle|*
%AMROUNDEDRECTD26*
21,1,1.9700,0.4500,0,0,0.0*
21,1,1.8200,0.6000,0,0,0.0*
1,1,0.1500,0.9100,-0.2250*
1,1,0.1500,-0.9100,-0.2250*
1,1,0.1500,-0.9100,0.2250*
1,1,0.1500,0.9100,0.2250*
%
%ADD26ROUNDEDRECTD26*%
%ADD27R,0.9000X0.8000*%
%ADD28R,2.9210X3.2512*%
G04:AMPARAMS|DCode=29|XSize=2.33mm|YSize=3.07mm|CornerRadius=0.2913mm|HoleSize=0mm|Usage=FLASHONLY|Rotation=90.000|XOffset=0mm|YOffset=0mm|HoleType=Round|Shape=RoundedRectangle|*
%AMROUNDEDRECTD29*
21,1,2.3300,2.4875,0,0,90.0*
21,1,1.7475,3.0700,0,0,90.0*
1,1,0.5825,1.2437,0.8738*
1,1,0.5825,1.2437,-0.8738*
1,1,0.5825,-1.2437,-0.8738*
1,1,0.5825,-1.2437,0.8738*
%
%ADD29ROUNDEDRECTD29*%
G36*
X302596Y65582D02*
X294496D01*
Y73682D01*
X302596D01*
Y65582D01*
D02*
G37*
G36*
Y75882D02*
X294496D01*
Y83982D01*
X302596D01*
Y75882D01*
D02*
G37*
G36*
X312896Y65582D02*
X304796D01*
Y73682D01*
X312896D01*
Y65582D01*
D02*
G37*
G36*
Y75882D02*
X304796D01*
Y83982D01*
X312896D01*
Y75882D01*
D02*
G37*
D15*
X0Y0D02*
X770000D01*
X0Y200000D02*
X770000D01*
Y0D02*
Y200000D01*
X0Y0D02*
Y200000D01*
D17*
X323000Y11000D02*
D03*
X309000D02*
D03*
X351000D02*
D03*
X337000D02*
D03*
X309000Y112000D02*
D03*
X323000D02*
D03*
X154500Y140000D02*
D03*
X140500D02*
D03*
X305500Y37500D02*
D03*
X319500D02*
D03*
D18*
X31500Y64600D02*
D03*
X56900Y35400D02*
D03*
X82300Y64600D02*
D03*
X107700Y35400D02*
D03*
X133100Y64600D02*
D03*
X158500Y35400D02*
D03*
D19*
X96550Y110000D02*
D03*
D20*
X188450D02*
D03*
D21*
X746000Y42500D02*
D03*
X699000D02*
D03*
D22*
X726000Y160000D02*
D03*
Y104000D02*
D03*
X654000Y160000D02*
D03*
Y104000D02*
D03*
X578000Y160000D02*
D03*
Y104000D02*
D03*
D23*
X583750Y51000D02*
D03*
X596250D02*
D03*
X621250D02*
D03*
X633750D02*
D03*
X646250D02*
D03*
X608750D02*
D03*
D24*
X671750Y22000D02*
D03*
X558250D02*
D03*
D25*
X231500Y142500D02*
D03*
X257500D02*
D03*
D26*
X328446Y93832D02*
D03*
Y81132D02*
D03*
Y68432D02*
D03*
Y55732D02*
D03*
X278946D02*
D03*
Y68432D02*
D03*
Y81132D02*
D03*
Y93832D02*
D03*
D27*
X247000Y37000D02*
D03*
Y51000D02*
D03*
D28*
X430000Y105000D02*
D03*
X515598D02*
D03*
D29*
X378000Y101000D02*
D03*
Y33700D02*
D03*
M02*
