M48
;Layer_Color=9474304
;FILE_FORMAT=4:4
METRIC,LZ
;TYPE=PLATED
T01F00S00C0.2500
T02F00S00C0.3810
T03F00S00C0.5000
T04F00S00C0.7620
T05F00S00C1.0200
T06F00S00C1.2000
T07F00S00C1.7000
T08F00S00C3.1800
%
T01
X0002225Y0004
X002286Y0010033
X00243897Y00100387
X00271102Y00154148
X0026925Y00191
X0026289Y0022606
Y002413
X00196102Y00224398
Y00188852
X00185Y001745
X00185579Y00250808
X00301602Y00220924
X00308102Y0022725
X0032125Y0022875
X00334748Y00208558
X0031475Y00197
X00295102Y00197545
X002985Y00165
X0030825
X003175Y0016475
X003275Y0016425
X0035875Y0017225
X00369024Y0018081
X0037225Y00212
X004084Y002181
X004211
X004338
X0042745Y002308
X0041475
X004211Y002435
X004338
X0042745Y002562
X0041475
X0045285
X0046555
X0047825
X0049095
X0050365
X0051635
X0052905
X0054175
X0055445
X0056715
X0057985
X005862Y002435
X005735
X0057985Y002308
X0059255
X0060525
X0061795
X0063065
X00633Y0024325
X006243Y002181
X006116
X005989
X005862
X005735
X005608
X0056715Y002054
X0057985
X0059255
X0060525
X0061795
X0063065
X006243Y001927
X006116
X005989
X005862
X005735
X0057985Y0018
X0059255
X0060525
X0061795
X0063065
X00637Y001673
X006497
X0065605Y001546
X0064335
X0063065
X0061795
X0060525
X0059255
X005989Y001673
X006116
X006243
Y001419
X00637
X006497
X0065605Y001292
X0064335
X0063065
X0061795
X0060525
X0059255
X005989Y001419
X006116
Y001165
X006243
X00637
X006497
X0065605Y001038
X0064335
X0063065
X0061795
X0060525
X0059255
X005989Y001165
X005862
X005735
X0057725Y00125
X005608Y001165
X005481Y001419
X0054175Y001546
X005608Y001673
X005735
X005862
X0055445Y002054
X0054175
X0052905Y002308
X005354Y002435
X005227
X0051Y002181
X0050365Y002054
X0049095
X0047825
X0046555
X0045285
X004592Y002181
X004719
X004846
X0047825Y002308
X0046555
X0045285
X004592Y002435
X004719
X004846
Y001927
X004719
X004592
X0046555Y0018
X0047825
X004846Y001673
X004719
X004592
X0045285Y0018
Y001546
X004592Y001419
Y001165
X004465
X0045285Y001038
X0044015
X0042745
X004338Y000911
X004465
X004211
X004084
X0041475Y000784
X0042745
X004211Y000657
X004084
X0039975Y0006925
X0041475Y00053
X0042745
X0044015
X0045285
X004465Y000403
X004338
X004211
X004084
X0041475Y000276
X0042745
X004211Y000149
X004084
X004719
X0047825Y000276
X0046555
X004973Y000403
X0051
X005227
X005354
X005481
X0055445Y00053
X0054175
X0052905
X0051635
X0050365
X0049095
X005227Y000657
X0052905Y000784
X0051635
Y000276
X0052905
X005227Y000149
X005735
X0057985Y000276
X0056715
X005989Y000403
X006116
X006243
X00637
X006497
X0065605Y00053
X0064335
X0063065
X0061795
X0060525
X006243Y000657
X0063065Y000784
X0061795
X006243Y000911
X00637
X006497
X006116
X005989
X005862
X0061795Y000276
X0063065
X006243Y000149
X0051Y001419
X004973
X0050365Y001546
X0051Y001673
X0047825Y001292
X0044069Y00131826
X0042745Y001292
X0041148Y00128778
X004084Y001165
X00393954Y0010922
X00384Y000905
X003695Y000705
X003115Y0006925
X002815Y0007025
X00296Y0009025
X0029175Y0011175
X0027775Y00104
X0032175Y001125
X00334Y0011275
X00345044Y0012638
X004084Y001419
X004211
X004338
X0042745Y001546
X0041475
X004211Y001673
X004338
X0042745Y0018
X0041475
X004211Y001927
X004338
X0042745Y002054
X0041475
X004084Y001927
Y001673
X0028825Y00165
X00671322Y00188468
X00686308Y00187452
X00699516Y00188722
X007132Y001927
X007259
X007386
X0074495Y002054
X0073225
X0071955
X0070685
X007132Y002181
X007259
X007386
X007513
X0074495Y002308
X0073225
X0071955
X0070685
X007132Y002435
X007259
X007386
X007513
X007894
X008021
X008148
X008275
X0082115Y002562
X0080845
X0079575
Y002308
X0080845
X0082115
X008275Y002181
X008148
X008021
X007894
X0079575Y002054
X0080845
X0082115
X0083385
X0084655
X0085025Y00213
X0084925Y0019675
X008402Y001927
X008275
X008148
X008021
X007894
X0079575Y0018
X0080845
X0082115
X0083385
X00849Y0018
X008529Y001673
X008656
X008783
X00891
X009037
X009164
X0092275Y0018
X0093675Y0018175
X0094815Y0018
X009418Y001927
X009291
X0093545Y002054
X0094815
X009418Y002181
X009291
X0092275Y002308
X00937Y0023025
X0094815Y002308
X009164Y002435
X009037
X00891
X008783
X008656
X008529
X0084925Y0022975
X0085925Y002562
X0087195
X0088465
X0089735
X0091005
X0092275Y002054
X0091005Y001546
X0089735
X0088465
X0087195
X0085925
X0084655
X0083385
X0082115
X0080845
X0079575
X0078305
X0077035
X007767Y001673
X007894
X008021
X008148
X008275
X008402
Y001419
X008529
X008656
X008783
X00891
X009037
X009164
X009291
X009418
X0094815Y001292
X0093545
X0092275
X0091005
X0089735
X0088465
X0087195
X0085925
X0084655
X0083385
X0082115
X0080845
X0079575
X0078305
X0077035
X0075765
X0074495
X0073225
X0071955
X0070685
X006995Y0013225
X007005Y001419
X007132
X007259
X007386
X007513
X00764
X007767
X007894
X008021
X008148
X008275
Y001165
X008402
X008529
X008656
X008783
X00891
X009037
X009164
X009291
X009418
X0094815Y001038
X0093545
X0092075Y001075
X009291Y000911
X009418
X0094815Y000784
X0093545
X0094815Y00053
Y000276
X009418Y000149
X009291
X009164
X00891
X008783
X008656
X008529
X008402
X008275
X008148
X008021
X007894
X007767
X00764
X007513
X007386
X007259
X0073225Y000276
X0074495
X0075765
X0077035
X0078305
X0079575
X0080845
X0082115
X0083385
X0084655
X0085925
X0087195
X008656Y000403
X008529
X008402
X008275
X008148
X008021
X007894
X007767
X00764
X007513
X007386
X007259
X007132
X007005
X0070685Y00053
X0071955
X0073225
X0074495
X0075765
X0077035
X0078305
X0079575
X0080845
X0082115
X0083385
X0084655
X0085925
X008656Y000657
X008529
X008402
X008275
X008148
X008021
X007894
X007767
X00764
X007513
X007386
X007259
X0073225Y000784
X0074495
X0075765
X0077035
X0078305
X0079575
X0080845
X0082115
X0083385
X0084655
X0085925
X0087195
X008783Y000911
X00891
X0089735Y001038
X0088465
X0087195
X0085925
X0084655
X0083385
X0082115
X0080845
X0079575
X0078305
X0077035
X0075765
X0074495
X0073225
X0071955
X0070685
X00700024Y00100076
X007005Y001165
X007132
X007259
X007386
X007513
X00764
X007767
X007894
X008021
X008148
Y000911
X008275
X008402
X008529
X008656
X008021
X007894
X007767
X00764
X007513
X007386
X007259
X007132
X0071955Y000784
Y000276
X0068145
X0066875
X006751Y000149
X0069415Y00053
X0068145Y002054
X0066875
X006751Y002181
X006878
X0068145Y002308
X0066875
X006751Y002435
X006878
X0068145Y002562
X0066875
X0075575Y001885
X00764Y001673
X0075025Y002635
X00737Y0026844
X007259Y002689
X007132
X007005Y003197
X006878
X0069415Y003324
X0071955
X0074495
X00737Y003185
X00764Y003197
X007767
X0078305Y003324
X0079575
X0077035
Y002816
X0078305
X0079575
X0080845
X0082115
X008275Y002689
X008148
X008021
X007894
X008529
X008656
X008783
X00891
X009037
X009164
X009291
X009418
X0094815Y002816
X0093545
X0092275
X0091005
X0089735
X0088465
X0087195
X0085925
X00891Y002943
X009037
X009164
X0091005Y00307
X008965Y0031025
X008783Y003197
X008865Y003285
X0087195Y003324
X0085925
X0084655
X0083385
X0084Y0034125
X008402Y003197
X008529
X008148
X008065Y0039175
X0082375Y00392
X00845Y00404
X00862Y003905
X008865Y0038975
X0090825Y0037
X009375Y0037025
X009385Y00401
Y0043425
X00922149Y004428
X009205Y0046725
X0089409Y0046181
X00861588Y00468398
X0085979Y0044424
X008305Y0042388
X00824459Y00471214
X0083566Y0048514
X0086106Y0050927
X0093722Y00513
X00938Y005475
X0093825Y0062775
X0092725
X0094925Y006275
X0091625Y00611
X0088975Y005845
X0087425Y0058425
X0085025Y005845
X00837
X008115Y00584
X00796
X0070194Y0058125
X0071025Y0057225
X0068156Y005735
X006825Y0054075
X0068475Y0052325
X0067525Y0050825
X00684723Y00472897
X00698207Y00458595
X00673987Y00383136
X0066875Y003324
X0078825Y0038075
X0084525Y0037275
X0091775Y0041675
X0092275Y003324
X0093545
X0094815
X009418Y003197
X009375Y003115
X009291Y003197
X0075925Y0050825
X0071456Y0062025
X0067525Y006025
X0084425Y00643
X005995Y0064775
X0057325Y006315
X00578Y006115
X00592Y005865
X006015Y005855
X0059525Y0057175
X0057775Y005565
X0056925Y0054575
X005695Y0053
X0055825Y0052575
X0054325Y00516
X0051Y0050725
Y0052481
X0051025Y00539
X00511Y005565
X0051275Y0057425
X0051325Y005875
X004715Y0058675
X00471Y00572
Y0055625
X0046625Y00545
X00456
X0045875Y0053069
X0047Y0053075
X00472Y0050475
X004665Y00498
X0045825
X00425833Y0051766
X00417837Y00518663
X004075Y0051725
X004079Y005274
X00406152Y00544402
X00403802Y00553448
X0041Y0055825
X0041431Y0056731
X0042325Y0057125
X0041625Y0059375
X0040725Y00602
X003965Y00597
X00357252Y0059275
X00343501Y00593751
X00351496Y006115
X00341Y0062475
X0031369Y00623062
X003205Y0065175
X00333792Y00651792
X00372059Y00625
X0042525Y0061575
X0045675Y00612
X00458Y0058406
X00458673Y00647412
X004425Y00649077
X0052325Y00648
X0051775Y006295
X00531Y0061475
X0058475Y0052
X0061025Y0052325
X0060425Y0047475
X0061725Y004365
X0060075Y00416
X00587Y0039425
X0059255Y003324
X0060525
X0061795
X006243Y003197
X00637
X006497
X0064335Y003324
X006116Y003197
X005989
X005862
X005735
X005608
X005481
X005354
X005227
X0051
X004973
X004846
X004719
X004592
X0046555Y003324
X0047825
X0049095
X0050365
X0051635
X0052905
X0054175
X0055445
X0056715
X0057985
X00597Y0028956
X0060975Y0028325
X0064335Y002816
X0065605
X0063225Y0025975
X005862Y002689
X005735
X005608
X005481
X005354
X005227
X0051
X004973
X004846
X004719
X004592
X004338
X004211
Y003197
X004338
X0042745Y003324
X0041475
X004084Y003197
X004115Y00365
X0039925Y0036275
X00392596Y00379564
X00393Y0041
X0039375Y00441
X00397Y0045225
X00402Y0046825
X0041975Y0047169
X0041525Y004585
X00425368Y0044839
X0042769Y004095
X004295Y003915
Y0037975
X0048675Y0037175
X00495Y00381
X0049475Y0039925
X0051Y0041575
X005205Y00424
X0052Y0044288
X00518Y0047775
X004735Y00455
X00473666Y0044625
X004735Y00435
X0045825Y0042875
X0045285Y003324
X0036075Y00334
X0036275Y00277
X00301752Y0026797
X002915Y0030281
X002921Y00380263
X0027813Y00381
X0031496Y0037211
X00328934Y0037064
X00329455Y00399559
X0033694Y0039375
X0031496Y0039878
X0030575Y0039975
X00299418Y00451832
X00297Y004685
X00335Y004695
X00328Y0045875
X00365749Y00486422
X0037875Y0048487
X0036775Y0039825
X00665Y004955
X0066825Y0054
X0026606Y0049525
X0025975Y004765
X00261657Y00454697
X00247896Y00450611
X00240384Y0044996
X00254Y004445
X00225298Y00433832
X001901Y00433
X0020025Y0046625
X00195Y0049125
X0019475Y00506
X0024257Y0050038
X00241Y0051575
X002415Y00565
X001905Y005625
X0019075Y005765
X0015617Y00575
X0014355Y0058225
X00155Y0062351
X0017325Y00627
X0017956Y0060875
X0016637Y006477
X0022733Y00632968
X0024384Y0061976
X00254Y0061849
X00250445Y00625642
X0016519Y0054681
X0014986Y00531114
X00151685Y00520366
X0014375Y0041625
X0015125Y0035225
X0017325Y0034425
X001825Y00335
X0018275Y00318
X0015275
X0015575Y0027875
X00187Y0027575
X0018675Y0028875
X0023425Y0029475
X00241086Y0039878
X00268184Y0039751
X0002667Y0040386
X0002032
X0001397
X0001524Y0035306
X0001397Y0050673
X0002032
X0002667
X000295Y005625
X000381Y0066294
X0016637Y006731
X00155Y00698052
X002032Y0074295
Y007493
Y0075565
X00271Y0075614
X002335Y008175
X002215Y008165
X0018825Y0083
X0015425Y008305
X001695Y0081025
X0011557Y0083693
X001016Y0084709
X0008763Y0083693
X000305Y00879
X00227077Y00668077
X00245126Y00667876
X0026469Y00656844
X002835Y0065625
X0030225Y0066925
X0031775Y00692
X0033425Y0069175
X0034925Y0066975
X0036425
X00391Y00704
X0038354Y007239
Y0073025
X0034671Y0074549
X0033655
X0032766
X0029275Y0070493
X0028225Y0069875
X0030875Y0081
X0029275Y0083075
X00327Y0082975
X003395Y008285
X0037375Y008295
X00358Y008105
X00471Y0080969
X00491167Y0080275
X0050181Y008045
X0051525Y0080375
X005255Y0081125
X005095Y0082925
X004875Y0082775
X0045525Y0082725
X005425Y0083
X0057225Y008345
X0057975Y0084081
X00566753Y00788247
X005794Y00772
X0058575
X005921
X0059225Y0078325
X00585Y007595
X0057775Y0074475
X00561913Y00737837
X0055125Y0073825
X0055225Y007595
X0052775Y00758167
X00515Y007595
X0051513Y00768554
X00521978Y00748981
X0050812Y00749
X0051475Y00731
X004905Y0072925
X005185Y00706
X00529122Y00698472
X0052275Y0068375
X0050925Y00686
X00469Y006965
Y0067425
X004255Y00746
X0056656Y0071225
X0058025Y0071625
X006035Y0070475
X0060325Y00696
Y006835
X00648Y008195
X0067225Y008095
X00686Y0081375
X0067979Y00829
X0068075Y00842
X0068024Y00789168
X0067875Y007795
X0067125Y00792
X00762Y007755
X007615Y00731
X0080325Y00709
X008125
X00822
X0083125
X0085907Y007054
X00858986Y0069016
X008445Y0066933
X0084425Y0065625
X0082975Y00661
X0083125Y0075325
X0082225
X00813
X00804
X0085125Y0077825
X00901Y0073375
X0091675Y007245
X0092825Y0070875
X0093875
X009485
X0070425Y007035
X00712Y00684
X006955Y0068375
T02
X0081325Y003365
X0035975Y007045
T03
X00235102Y00162308
Y00174808
Y00187308
Y00199808
Y00212308
Y00224808
Y00237308
Y00249808
X00392102Y00250308
Y00237808
Y00225308
Y00212808
Y00200308
Y00187808
Y00175308
Y00162808
Y00262808
Y00275308
X00235102Y00274808
Y00262308
T04
X00798Y0064775
X008795Y00791746
T05
X0011684Y0002032
X0014224
X0016764
X0019304
X0021844
X0024384
X002452Y0007088
X002198
X001944
X00169
X001436
X001182
X00127Y001397
Y001651
Y001905
Y002159
Y002413
X001016
Y002159
Y001905
Y001651
Y001397
X000762
Y001651
Y001905
Y002159
Y002413
X000508
Y002159
Y001905
Y001651
Y001397
X0016425Y0013455
Y0015995
Y0018535
Y0021075
Y0023615
X006807Y0033475
X007061
X007315
X007569
X006553
X006299
X00127Y003429
X001016
Y003683
Y003937
Y004191
Y004445
Y004699
Y004953
Y005207
Y005461
Y005715
Y005969
Y006223
Y006477
X00127
Y006223
Y005969
Y005715
Y005461
Y005207
Y004953
Y004699
Y004445
Y004191
Y003937
Y003683
Y003175
X001016
Y002921
X00127
Y002667
X001016
X000762
Y002921
Y003175
X000508
Y003429
Y003683
Y003937
Y004191
Y004445
Y004699
Y004953
Y005207
Y005461
Y005715
Y005969
Y006223
Y006477
X000762
Y006223
Y005969
Y005715
Y005461
Y005207
Y004953
Y004699
Y004445
Y004191
Y003937
Y003683
Y003429
X000508Y002921
Y002667
X0016425Y0026155
X00127Y006731
X001016
Y006985
Y007239
Y007493
Y007747
X00127
Y007493
Y007239
Y006985
X000762
X000508
Y006731
X000762
Y007239
Y007493
X000508
Y007747
X000762
X000508Y007239
T06
X00471Y00047
X00575
X0052575Y002075
X00674878Y0004699
T07
X004456Y000216
Y000724
X004964
Y000216
X005496
Y000724
X006004
X00649478Y0007239
Y0002159
X006004Y000216
X0055115Y001821
Y002329
X0050035
Y001821
X00700278Y0007239
Y0002159
T08
X000508Y000889
X009082Y000508
X000508Y008248
X009082Y008502
M30
