G04*
G04 #@! TF.GenerationSoftware,Altium Limited,Altium Designer,21.8.1 (53)*
G04*
G04 Layer_Color=16711935*
%FSLAX25Y25*%
%MOIN*%
G70*
G04*
G04 #@! TF.SameCoordinates,96160027-D82A-49E8-B93D-671BAC76BFE1*
G04*
G04*
G04 #@! TF.FilePolarity,Positive*
G04*
G01*
G75*
%ADD16C,0.01000*%
%ADD19C,0.00800*%
D16*
X377559Y0D02*
Y59055D01*
X63976Y335039D02*
Y354724D01*
X377559Y59055D02*
X377559Y355000D01*
X0Y354724D02*
X63976D01*
X332677Y355000D02*
X377559Y355000D01*
X63976Y335039D02*
X332677Y335615D01*
Y355000D01*
X0Y0D02*
Y354724D01*
X377559Y0D02*
Y59055D01*
X63976Y335039D02*
Y354724D01*
X377559Y59055D02*
X377559Y355000D01*
X0Y354724D02*
X63976D01*
X332677Y355000D02*
X377559Y355000D01*
X63976Y335039D02*
X332677Y335615D01*
Y355000D01*
X0Y0D02*
Y354724D01*
D19*
X157480Y0D02*
X377559D01*
X0D02*
X110236D01*
X157480D02*
Y19685D01*
X110236D02*
X157480D01*
X110236Y0D02*
Y19685D01*
X157480Y0D02*
X377559D01*
X0D02*
X110236D01*
X157480D02*
Y19685D01*
X110236D02*
X157480D01*
X110236Y0D02*
Y19685D01*
M02*
