M48
;Layer_Color=9474304
;FILE_FORMAT=2:5
INCH,LZ
;TYPE=PLATED
T1F00S00C0.00984
T2F00S00C0.01968
T3F00S00C0.03000
T4F00S00C0.04016
T5F00S00C0.04724
T6F00S00C0.06693
T7F00S00C0.12520
%
T01
X0010787Y0005866
X0020787
X0030787
X0040787
X0050787
X0060787
X0070787
X0080787
X0090787
X0100787
X0105787Y0015866
X0095787
X0085787
X0075787
X0065787
X0055787
X0045787
X0035787
X0025787
X000876Y0015748
X0040787Y0025866
X0050787
X0060787
X0070787
X0080787
X0090787
X009Y00395
X0096022Y0039522
X0105787Y0035866
Y0055866
X0106733Y0060688
X0085787Y0055866
X0075787
X0065787
X0070787Y0065866
X0072835Y0068701
X0077205Y0074351
X0065787Y0075866
X0070787Y0085866
X0077205Y0088346
X0080787Y0085866
X0060787
X0065787Y0095866
X0073063Y0098743
X01035Y0095
Y0089
X0080787Y0045866
X0070787
X0060787
X0050787
X0040787
X0030787
X0035787Y0035866
X0045787
X0065787
X0060787Y0065866
X0010787
Y0085866
X0107799Y0075725
X0116182Y0077773
X0123917Y0077559
X0131791Y0082109
X0146555Y0083465
X0145787Y0075866
X0140787Y0065866
X0132579Y0059449
X0135787Y0055866
X0135844Y0049756
X01356Y00451
X0131496Y004439
X0126673Y0044291
X0126969Y0048228
X0112402Y0048425
X0110787Y0045866
X0116535Y0035531
X0110827Y0027657
X0122638Y0027264
X0130787Y0025866
X0140787
X0145472Y0027756
X0145787Y0035866
X0151181Y003563
X0160787Y0035866
X0165787
X0170787
X0168287Y0040866
X0178287
X0180787Y0045866
X0185787
X0175787
X01735Y00519
X0168287Y0050866
X0162Y00507
X0160787Y0045866
X01551Y0043
X0157382Y0027264
X0160787Y0025866
X0165787
X0168287Y0030866
X0163287
Y0020866
X0168287
X0173287
X0178287
X0175787Y0015866
X0170787
X0165787
X0160787
X0163287Y0010866
X0168287
X0165787Y0005866
X0160787
X0185787
X0188287Y0010866
X0183287
X0195787Y0015866
X0200787
X0205787
X0210787
X0215787
X0218287Y0020866
X0213287
X0208287
X0203287
X0198287
X0193287
X0205787Y0025866
X0208287Y0030866
X0203287
X0198168Y00457
X0200787Y0055866
X0193287Y0060866
X0188091Y0061319
X0183287Y0060866
X0178287
X0180787Y0065866
X0185787
X0188287Y0070866
X0183287
X0178287
X0180787Y0075866
X0185787
X0190787
X0195787
X0193287Y0080866
X0188287
X0183287
X0178287
X0180787Y0085866
X0185787
X0188287Y0090866
X0183287
X0178287
X0180787Y0095866
X0185787
X0190787
X0195787
X0200787
X0205787
X0210787
X0215787
X0220787
X0225787
X0230787
X0235787
X0240787
X0243287Y0090866
X0248287
X0249114Y0093799
X0249213Y0098721
X0245787Y0085866
X0240787
X0235787
X0230787
X0225787
X0228287Y0090866
X0233287
X0238287
Y0080866
X0243287
X0248287
X0245787Y0075866
X0240787
X0235787
X0230787
X0225787
X0220787
X0215787
X0213287Y0080866
X0223287
X0228287
X0233287
Y0070866
X0238287
X0243287
X0248287
X0250787Y0065866
X0255787
X0258287Y0060866
X0253287
X0248287
X0243287
X0238287
X0233287
X0228287
X0224803Y0061417
X0225787Y0065866
X0230787
X0235787
X0240787
X0245787
Y0055866
X0250787
X0255787
X0258287Y0050866
X0253287
X0248287
X0243287
X0238287
X0233287
X0229823Y0050886
X0230787Y0055866
X0235787
X0240787
Y0045866
X0245787
X0250787
X0255787
X0258287Y0040866
X0253287
X0248287
X0243287
X0238287
X0233287
X0235787Y0045866
X0230787
Y0035866
X0235787
X0240787
X0245787
X0250787
X0255787
X0248287Y0030866
X0243287
X0245787Y0025866
X0248287Y0020866
X0253287
X0258287
X0255787Y0015866
X0250787
X0245787
X0240787
X0235787
X0238287Y0020866
X0243287
Y0010866
X0248287
X0245787Y0005866
X0225787
X0228287Y0010866
X0223287
X0208287
X0203287
X0205787Y0005866
X02149Y00466
X0220787Y0045866
X0213287Y0060866
X0223287Y0070866
X0228287
X0223287Y0090866
X0208287
X0203287
X0205787Y0085866
X0170787
X0165787
X0160787
X0163287Y0090866
X0168287
X0170787Y0095866
X0165787
X0160787
X0163287Y0080866
X0168287
X0170787Y0075866
X0165787
X0160787
X0163287Y0070866
X0168287
X0170787Y0065866
X0165787
X0160787
X0163287Y0060866
X0168287
X0170787Y0055866
X0165787
X0160787
X0145787
X0123859Y0063808
X0116182Y0063829
X0118741Y0086978
X01213Y0089469
X0180787Y0055866
X0275787
X0275394Y0052067
X0278287Y0050866
X0283287
X0288287
X0293287
X0298287
X0303287
X0308287
X0313287
X0318287
X0320787Y0055866
X0315787
X0310787
X0305787
X0300787
X0295787
X0290787
X0285787
X0280787
Y0045866
X0285787
X0290787
X0295787
X0300787
X0305787
X0310787
X0315787
X0320787
X0318287Y0040866
X0313287
X0308287
X0303287
X0298287
X0293287
X0288287
X0283287
X0278287
X02756Y00394
X0275787Y0035866
X0280787
X0285787
X0290787
X0295787
X0300787
X0305787
X0310787
X0315787
X0320787
X0318287Y0020866
X0313287
X0308287
X0303287
X0298287
X0293287
X0288287
X0283287
X0278287
X0273287
X0275787Y0015866
X0280787
X0285787
X0290787
X0295787
X0300787
X0305787
X0310787
X0315787
X0320787
X0328287Y0010866
X0330787Y0005866
X0325787
X0310787
X0305787
X0300787
X0295787
X0290787
X0285787
X0288287Y0010866
X0293287
X0298287
X0303287
X0308287
X0310787Y0025866
X0305787
X0300787
X0295787
X0290787
X0285787
X0288287Y0030866
X0293287
X0298287
X0303287
X0308287
X0283287
Y0010866
X0268287
X0263287
X0265787Y0005866
X0275787Y0045866
X02754Y00743
X02702Y00738
X02643Y00742
X0263287Y0080866
X0268287
X0270787Y0085866
X0265787
X0268287Y0090866
X0263287
Y0100866
X0268287
X0278287
X0283287
X0288287
X0293287
Y0090866
X0288287
X0283287
X0278287
X0280787Y0085866
X0285787
X0290787
X0295787
X0293287Y0080866
X0288287
X0283287
X0278287
X0280787Y0075866
X0285787
X0290787
X0297539Y0074213
X0300787Y0065866
X0305787
X0310787
X0315787
X0320787
X0318287Y0060866
X0313287
X0308287
X0303287
X0313287Y0070866
X0310787Y0075866
Y0085866
X0325787
X0330787
X0335787
X0340787
X0345787
X0350787
X0353287Y0090866
X0348287
X0343287
X0338287
X0333287
X0328287
X0326279Y0093821
X0326651Y0098743
X0330787Y0095866
X0335787
X0340787
X0345787
X0350787
X0353287Y0080866
X0348287
X0343287
X0338287
X0333287
X0328287
X0330787Y0075866
X03327Y00737
X0335787Y0075866
X03268Y0074
X0357185Y0074213
X0360119Y0073761
X0365787Y0065866
X0370787
X0373287Y0070866
Y0080866
Y0090866
Y0100866
Y0060866
X0368287
X0363287
X0365787Y0055866
X0370787
X0373287Y0050866
X0368287
X0363287
X0358287
X0353287
X0348287
X0343287
X03375Y0051378
X0335787Y0045866
X0337697Y0043012
X0340787Y0045866
X0345787
X0350787
X0355787
X0360787
X0365787
X0370787
X0373287Y0040866
X0368287
X03625Y0042323
X0365787Y0035866
X0370787
X0373287Y0030866
X0368287
X0373287Y0020866
Y0010866
X0370787Y0005866
X0365787
X0360787
X0350787
X0345787
X0340787Y0015866
X0335787
X0338287Y0020866
X0340787Y0035866
X0345787
X0350787
X0353287Y0040866
X0348287
X0343287
X0345787Y0055866
X0350787
X0355787
X0360787
X0340787
X0343Y01055
X0347721Y0105691
X0352559Y0106239
X0355787Y0105866
X0365787Y0115866
Y0125866
Y0135866
X0370787Y0145866
X0360787
X0350787
X0340787
X0330787
X0320787
X0310787
X0300787
X0290787
X0280787
X0270787
X0265349Y0150841
X0275787Y0155866
X0280787Y0165866
X0270787
X0274885Y0180549
X026998Y0185776
X0264604Y0195025
X0280787Y0205866
X0298917Y0200098
X0305787Y0195866
X0315787
X0310787Y0205866
X0340787
X0339Y02005
X0335787Y0195866
X0329Y0191
X032459Y0185518
X0339208Y0184409
X03385Y0174898
X0340787Y0165866
X0350787
X03565Y017
X0361319Y0164075
X0363051Y0174331
X03665Y01785
X0362402Y0183957
X0370787Y0185866
X0369488Y0170965
Y0157874
X0365787Y0155866
X0355787
X0345787
X0335787
X0332677Y0159055
X0325787Y0155866
X0315787
X0305787
X0299016Y015561
X0300787Y0165866
X0310787
X0320787
X0325787Y0135866
X0335787
X0345787
Y0125866
X0340787
X0335787
X0352658Y0125591
X0355787Y0125866
X0373287Y0120866
Y0110866
X0335787Y0105866
X0330787
X0325787
X0323287Y0110866
X0318287
X0313287
X0308287
X0303287
X0305787Y0115866
X0310787
X0315787
X0320787
X0323287Y0120866
X0318287
X0313287Y0130866
X0308287
X0303287
X0305787Y0135866
Y0125866
X0300787
Y0115866
X0295374Y010374
X0290158Y0106239
Y0125394
X0293287Y0130866
X0283287
X0273287
X0275787Y0125866
X0270787
X0263287Y0130866
Y0120866
X0310787Y0105866
X0350787Y0205866
X0360787
X0368984Y0201969
X0369291Y0215551
X0372441Y0228346
X03715Y024
X0363016Y024252
X0362894Y024685
X0350138Y0256201
X0334252Y0257874
X03335Y02535
X0333Y02475
X0340945Y0243701
Y0240551
Y0237008
X0345457Y0224228
X035Y0224803
X0360787Y0225866
X0345787Y0215866
X0315077Y0242923
X0311Y02485
X0315787Y0255866
X0325787
X0300787Y0245866
X0298524Y0243898
X0295787Y0235866
X0285787
X0280709Y0244094
X0277559Y0245669
X0267323
X0264764Y0238681
X0272441Y0237008
X0270084Y0230025
X0274828Y0225025
X0255787Y0235866
X0237961Y02345
X0238189Y0230807
X02386Y02217
X0235787Y0215866
X02389Y02108
X023189Y0210138
X0225243Y0207638
X02179Y02062
X0214Y0205
X0215787Y0195866
X0218406Y0192165
X0221457Y0199508
X0225787Y0195866
X02345Y01867
X0237894Y0186909
X02392Y01905
X02387Y01657
X0221949Y0164787
X021811Y0162303
X0215787Y0155866
X0225787
X0230787Y0145866
X0220787
X0210787
X0200787
X0195075Y0149705
X0195035Y0155654
X0195079Y0161614
X0205787Y0155866
X0210787Y0165866
X0202687Y0172413
X0204312Y0177382
X0202615Y0189315
X0202689Y0194926
X018061Y0194984
X0185Y0202516
X018002Y0213984
X01848Y02239
X0167323Y0222835
X0167126Y0226772
X0162713Y022272
X015994Y0221659
X0158957Y0217913
X0159902Y0214332
X0160236Y0210925
X0160591Y0207638
X0160433Y0203642
X0164503Y0204198
X0167651Y0203803
X0163976Y0198835
X0166142Y0195768
X0155787Y0195866
X0150514Y0188484
X01445Y0191
X014461Y0174579
X015Y0174
X015502Y0173622
X0154724Y0161417
X0154565Y0149435
X0150787Y0145866
X0144882Y0156825
X0132776Y015502
X0129707Y0157307
X0124Y0157
X0121033Y0157101
X0124Y01465
X0130787Y0145866
X01296Y0142575
X0129626Y0131496
X0142323Y0130709
X0163287Y0130866
X0168287
X0170787Y0125866
X0165787
X0168287Y0120866
X0178287
X0183287
X0188287
X0193287
X0198287
X0203287
X0208287
X0213287
X0218287
X0223287
X0228287
X0233287
X0238287
X0243287
X0248287
X0253287
X0258287
X0260787Y0115866
X0255787
X0250787
X0245787
X0240787
X0235787
X0230787
X0225787
X0220787
X0215787
X0210787
X0205787
X0200787
X0195787
X0190787
X0185787
X0180787
Y0125866
X0185787
X0190787
X0195787
X0200787
X0205787
X0210787
X0215787
X0220787
X0225787
X0230787
X0235787
X0240787
X0245787
X0250787
X0255787
X0253287Y0130866
X0243287
X0238287
X0233287
X0228287
X0223287
X0218287
X0213287
X0208287
X0203287
X0198287
X0193287
X0188287
X0183287
X0178287
X0180787Y0145866
X0190787
X0170787
X0168602Y0149213
Y0154307
Y0161221
X0167468Y0176532
X0168Y01815
X0185039Y0184941
X0189Y0183
X01846Y01774
X0125787Y0175866
X01075Y01895
X0120787Y0205866
X0130787
X0140787
X0150787
X0155787Y0215866
X0145787
X0140787Y0225866
X0150787
X0155787Y0235866
X0165787
X0167421Y0242421
X0184344Y0245344
X018058Y0254887
X0174213Y0255542
X0150787Y0245866
X0146063Y0246063
X0140787Y0245866
X0134252Y0245965
X0138384Y0240748
X0145787Y0235866
X0130787Y0225866
X0120787
X0125787Y0215866
X01235Y02453
X0120787Y0245866
X0196236Y0235102
X0205787Y0235866
X0205709Y0241043
X0208661Y0229134
X0210787Y0225866
X0230787
X0226575Y0218012
X0222835Y0215354
X0226378Y0243701
X0226547Y0249606
X0225787Y0255866
X02377Y02539
X02432Y01457
X0260787Y0145866
X0258287Y0110866
X0253287
X0142621Y0108979
X01188Y01055
X0114764Y0115574
X0115Y01495
X01095Y015
X0105584Y01565
X0094916Y0157
X00887Y01708
X0094638Y0177162
X0097597Y0177406
X01Y0175
X0103015Y0179015
X01015Y0185
X01035Y01875
X00955Y0197
X0094882Y0203051
X0095079Y0222441
X0095768Y0236024
X0095079Y0240748
X0096Y0244
X01Y02435
X00986Y0246316
X00895Y02492
X0085787Y0255866
X0070965Y0252264
X00655Y0255
X0061024Y0245476
X0068209Y0241634
X0073622Y0230591
X0071875Y0218602
X0079232Y0217126
X0077744Y0200256
X0082382Y0190354
X0080787Y0185866
X0074843Y0170472
X0055787Y0175866
X0056595Y0163878
X0059169Y0134957
X0060827Y0129626
X0060787Y0125866
X0064764Y0125984
X0070374Y0120768
X0065787Y0115866
X0073622Y0111417
X0070787Y0105866
X0080787
X0060787
X0070769Y0140075
X0006Y0139
X0010787Y0125866
Y0105866
X00105Y0159
X0008
X00055
Y01995
X0008
X00105
X0025787Y0195866
X005985Y0205
X0059Y02091
X0065551Y0212402
X0061484Y0223721
X0056516Y0229232
X0055787Y0235866
X0010787Y0245866
X0015Y0261
X0010787Y0285866
Y0305866
X0012008Y0346063
X0020787Y0345866
X0030787
X0040787
X0050787
X0060787
X0055787Y0335866
X0045787
X00455Y03295
X0050787Y0325866
X0060728Y0326969
X0074114Y0326772
X0080787Y0325866
X0090787
X0087205Y0321457
X0091987Y0311984
X0080787Y0305866
X008Y02975
Y0295
Y02925
X0085787Y0295866
X0095787
X0106693Y0297693
X0100787Y0285866
X0090787
Y0265866
X0089665Y0263287
X0096752Y0263189
X0100787Y0265866
X0104209Y02586
X00655Y0265
X0065787Y0275866
X0061024Y0274824
X0055787Y0275866
X0060787Y0285866
X0065787Y0295866
X0055787
X0060787Y0305866
X0070787
X0065787Y0315866
X0066732Y0318996
X0055787Y0315866
X0045787
X004Y03335
X0035787Y0335866
X00345Y03295
X0100787Y0325866
X0075787Y0275866
X011111Y0275215
X0115256Y0277532
X0110787Y0285866
X0120787
X0125787Y0295866
X0129Y02935
X01325
X01365
X0135787Y0295866
X0145787
X0155787
X0165787
X0170787Y0285866
X0180787
X01932Y02894
X0200047Y0294882
X0205341Y0296898
X02081Y02998
X0202749Y0302323
X0202854Y0316437
X0197563Y0316732
X0193373Y0316043
X0185433Y0318776
X0191929Y0325886
X0199803Y0327854
X0200197Y0323031
X0213243Y0323757
X0212697Y032687
X021624Y0330217
X02195Y03225
X02225
X0225
X0231791Y0321457
X0236811
X0242323Y0321949
X0246752Y0321654
X0254338Y0322811
X02428Y03079
X0236713Y0311024
X0231791
X0226969Y0310827
X02315Y0304
X0234
X02365
X0238458Y0298742
X02385Y02833
X02384Y02752
X0235787Y0275866
X02386Y02706
X0225787Y0275866
X0222835Y0280413
X0227596Y0287356
X0227362Y0293406
X0215787Y0295866
X0217421Y0299016
X0213681Y0286319
X0210787Y0285866
X0208186Y0275
X0205666Y0272324
X0200699Y0270861
X0202658Y0277461
X0184499Y0268799
X0180787Y0265866
X0170787
X0150787
X0140787
X01397Y02589
X0132677Y0258661
X0130787Y0265866
X0120787
X01182Y02586
X0153937Y025876
X0151Y0285
Y02875
X016Y0285
X0181Y03025
X0179035Y0326969
X0170787Y0325866
X0160787
X0150787
X0147146Y0326575
X0140945Y0319094
X0133661Y0326181
X012874Y0326673
X0115256Y0327067
X0110787Y0325866
X0121555Y0318898
X0115787Y0295866
X0212598Y0310925
X026666Y0316266
X0272093Y0317861
X0274885Y0312832
X0276378Y0327559
X0270787Y0325866
X0267717Y0330512
X0290748Y0326772
X0300787Y0325866
X0310787
X0321358Y0327461
X0334941
X0340787Y0325866
X0341142Y0309941
X034124Y0306299
X0341043Y0301575
X0351083Y0302165
Y0306693
X0351181Y0310335
X0345669Y0314075
X0364173Y0312402
X0371752
X0370787Y0325866
Y0345866
X0369094Y0299902
X0365787Y0295866
X0362697Y029626
X0360787Y0305866
X0370787Y0285866
X03645Y027175
Y026925
Y026675
X03655Y02585
X0338183Y0271716
X0338216Y0277716
X03385Y0281
X0335787Y0275866
X0334252Y0269291
X0329528Y0263516
X0325Y0261
X03215Y0265012
X0320079Y0285433
X0310787Y0285866
X0315787Y0295866
X0320079Y0295669
X0325787Y0295866
X032874Y0290551
X0330787Y0285866
X0335501Y0287015
X0338Y0292
X0332677Y0297638
X0325787Y0315866
X0327854Y0318701
X0281004Y0284842
X0280755Y0272748
X0270177Y0278642
X0265453Y0282579
X0263779Y0285827
X026811Y0290158
X0264173Y0295669
T02
X009256Y0063901
Y0068822
Y0073743
Y0078665
Y0083586
Y0088507
Y0093428
Y009835
X0154371Y0098546
Y0093625
Y0088704
Y0083783
Y0078861
Y007394
Y0069019
Y0064098
Y0103468
Y0108389
X009256Y0108192
Y0103271
T03
X03034Y02995
X03355Y03165
T04
X0046Y0008
X0056
X0066
X0076
X0086
X0096
X0096535Y0027905
X0086535
X0076535
X0066535
X0056535
X0046535
X005Y0055
Y0065
Y0075
Y0085
Y0095
X004
Y0085
Y0075
Y0065
Y0055
X003
Y0065
Y0075
Y0085
Y0095
X002
Y0085
Y0075
Y0065
Y0055
X0267992Y0131791
X0277992
X0287992
X0297992
X0319508
X0329508
X0339508
X0349508
X0359508
X0369508
X0257992
X0247992
X005Y0135
X004
Y0145
Y0155
Y0165
Y0175
Y0185
Y0195
Y0205
Y0215
Y0225
Y0235
Y0245
Y0255
X005
Y0245
Y0235
Y0225
Y0215
Y0205
Y0195
Y0185
Y0175
Y0165
Y0155
Y0145
Y0125
X004
Y0115
X005
Y0105
X004
X003
Y0115
Y0125
X002
Y0135
Y0145
Y0155
Y0165
Y0175
Y0185
Y0195
Y0205
Y0215
Y0225
Y0235
Y0245
Y0255
X003
Y0245
Y0235
Y0225
Y0215
Y0205
Y0195
Y0185
Y0175
Y0165
Y0155
Y0145
Y0135
X002Y0115
Y0105
Y0265
Y0275
Y0285
Y0295
Y0305
X003
Y0295
Y0285
Y0275
Y0265
X004
Y0275
Y0285
Y0295
Y0305
X005
Y0295
Y0285
Y0275
Y0265
T05
X0185433Y0018504
X0226378
X0206806Y0077048
X02657Y00185
X0328
T06
X0175433Y0008504
Y0028504
X0195433
Y0008504
X0216378
Y0028504
X0236378
X02557Y00285
Y00085
X0236378Y0008504
X0216806Y0067048
Y0087048
X0196806
Y0067048
X02757Y00285
Y00085
X0318
Y00285
X0338
Y00085
T07
X002Y0035
X0357559Y002
X002Y0324724
X0357559Y0334724
M30
