G04*
G04 #@! TF.GenerationSoftware,Altium Limited,Altium Designer,24.2.2 (26)*
G04*
G04 Layer_Color=8388736*
%FSLAX44Y44*%
%MOMM*%
G71*
G04*
G04 #@! TF.SameCoordinates,42CE85E0-05AB-4C44-8BEE-A586E2542FC5*
G04*
G04*
G04 #@! TF.FilePolarity,Negative*
G04*
G01*
G75*
%ADD32R,0.9000X0.8000*%
%ADD36R,0.4572X1.7272*%
%ADD38R,0.3048X0.6096*%
%ADD48C,0.5012*%
G04:AMPARAMS|DCode=49|XSize=2.4016mm|YSize=1.1016mm|CornerRadius=0mm|HoleSize=0mm|Usage=FLASHONLY|Rotation=180.000|XOffset=0mm|YOffset=0mm|HoleType=Round|Shape=RoundedRectangle|*
%AMROUNDEDRECTD49*
21,1,2.4016,1.1016,0,0,180.0*
21,1,2.4016,1.1016,0,0,180.0*
1,1,0.0000,-1.2008,0.5508*
1,1,0.0000,1.2008,0.5508*
1,1,0.0000,1.2008,-0.5508*
1,1,0.0000,-1.2008,-0.5508*
%
%ADD49ROUNDEDRECTD49*%
G04:AMPARAMS|DCode=50|XSize=2.4016mm|YSize=1.1016mm|CornerRadius=0mm|HoleSize=0mm|Usage=FLASHONLY|Rotation=270.000|XOffset=0mm|YOffset=0mm|HoleType=Round|Shape=RoundedRectangle|*
%AMROUNDEDRECTD50*
21,1,2.4016,1.1016,0,0,270.0*
21,1,2.4016,1.1016,0,0,270.0*
1,1,0.0000,-0.5508,-1.2008*
1,1,0.0000,-0.5508,1.2008*
1,1,0.0000,0.5508,1.2008*
1,1,0.0000,0.5508,-1.2008*
%
%ADD50ROUNDEDRECTD50*%
%ADD51R,3.6016X0.7016*%
%ADD52R,0.9016X1.0016*%
%ADD53R,0.4516X1.5016*%
%ADD54R,1.7016X0.9016*%
%ADD55R,3.1016X2.2016*%
%ADD56R,1.0016X0.9016*%
%ADD57R,0.6516X0.6516*%
%ADD58R,1.9016X0.7016*%
%ADD59R,1.0016X0.4016*%
%ADD60R,1.1016X1.1016*%
%ADD61R,0.9016X0.9016*%
%ADD62R,0.4516X1.4516*%
%ADD63R,1.4516X0.4516*%
%ADD64R,0.6516X0.6516*%
%ADD65R,1.9016X1.5016*%
G04:AMPARAMS|DCode=66|XSize=1.3116mm|YSize=0.6816mm|CornerRadius=0.1233mm|HoleSize=0mm|Usage=FLASHONLY|Rotation=90.000|XOffset=0mm|YOffset=0mm|HoleType=Round|Shape=RoundedRectangle|*
%AMROUNDEDRECTD66*
21,1,1.3116,0.4350,0,0,90.0*
21,1,1.0650,0.6816,0,0,90.0*
1,1,0.2466,0.2175,0.5325*
1,1,0.2466,0.2175,-0.5325*
1,1,0.2466,-0.2175,-0.5325*
1,1,0.2466,-0.2175,0.5325*
%
%ADD66ROUNDEDRECTD66*%
%ADD67R,0.9016X0.9016*%
G04:AMPARAMS|DCode=68|XSize=1.2916mm|YSize=0.5016mm|CornerRadius=0.1008mm|HoleSize=0mm|Usage=FLASHONLY|Rotation=90.000|XOffset=0mm|YOffset=0mm|HoleType=Round|Shape=RoundedRectangle|*
%AMROUNDEDRECTD68*
21,1,1.2916,0.3000,0,0,90.0*
21,1,1.0900,0.5016,0,0,90.0*
1,1,0.2016,0.1500,0.5450*
1,1,0.2016,0.1500,-0.5450*
1,1,0.2016,-0.1500,-0.5450*
1,1,0.2016,-0.1500,0.5450*
%
%ADD68ROUNDEDRECTD68*%
%ADD69R,1.5016X1.9016*%
%ADD70C,1.6256*%
%ADD71C,1.4716*%
%ADD72R,1.4716X1.4716*%
%ADD73C,1.8000*%
%ADD74C,2.6516*%
%ADD75C,1.0024*%
%ADD76R,1.0024X1.0024*%
%ADD77R,1.4716X1.4716*%
%ADD78C,6.4516*%
G36*
X952852Y729528D02*
X921328D01*
Y752052D01*
X952852D01*
Y729528D01*
D02*
G37*
G36*
X916852Y710528D02*
X899328D01*
Y720052D01*
X916852D01*
Y710528D01*
D02*
G37*
G36*
Y698028D02*
X899328D01*
Y707552D01*
X916852D01*
Y698028D01*
D02*
G37*
G36*
Y685528D02*
X899328D01*
Y695052D01*
X916852D01*
Y685528D01*
D02*
G37*
G36*
Y673028D02*
X899328D01*
Y682552D01*
X916852D01*
Y673028D01*
D02*
G37*
G36*
Y660528D02*
X899328D01*
Y670052D01*
X916852D01*
Y660528D01*
D02*
G37*
G36*
Y648028D02*
X899328D01*
Y657552D01*
X916852D01*
Y648028D01*
D02*
G37*
G36*
Y635528D02*
X899328D01*
Y645052D01*
X916852D01*
Y635528D01*
D02*
G37*
G36*
Y623028D02*
X899328D01*
Y632552D01*
X916852D01*
Y623028D01*
D02*
G37*
G36*
X952852Y591028D02*
X921328D01*
Y613552D01*
X952852D01*
Y591028D01*
D02*
G37*
G36*
Y519538D02*
X921328D01*
Y542062D01*
X952852D01*
Y519538D01*
D02*
G37*
G36*
X916852Y500538D02*
X899328D01*
Y510062D01*
X916852D01*
Y500538D01*
D02*
G37*
G36*
Y488038D02*
X899328D01*
Y497562D01*
X916852D01*
Y488038D01*
D02*
G37*
G36*
Y475538D02*
X899328D01*
Y485062D01*
X916852D01*
Y475538D01*
D02*
G37*
G36*
Y463038D02*
X899328D01*
Y472562D01*
X916852D01*
Y463038D01*
D02*
G37*
G36*
Y450538D02*
X899328D01*
Y460062D01*
X916852D01*
Y450538D01*
D02*
G37*
G36*
Y438038D02*
X899328D01*
Y447562D01*
X916852D01*
Y438038D01*
D02*
G37*
G36*
X952852Y406038D02*
X921328D01*
Y428562D01*
X952852D01*
Y406038D01*
D02*
G37*
G36*
X397114Y157796D02*
X387090D01*
Y167820D01*
X397114D01*
Y157796D01*
D02*
G37*
G36*
X240114Y157296D02*
X230090D01*
Y167320D01*
X240114D01*
Y157296D01*
D02*
G37*
D32*
X342250Y365250D02*
D03*
Y379750D02*
D03*
X360750Y365250D02*
D03*
Y379750D02*
D03*
D36*
X225750Y715767D02*
D03*
X232250D02*
D03*
X238750D02*
D03*
X245250D02*
D03*
Y761233D02*
D03*
X238750D02*
D03*
X232250D02*
D03*
X225750D02*
D03*
D38*
X301528Y390706D02*
D03*
X294528D02*
D03*
X287528D02*
D03*
X280528D02*
D03*
X273528D02*
D03*
Y371802D02*
D03*
X280528D02*
D03*
X287528D02*
D03*
X294528D02*
D03*
X301528D02*
D03*
D48*
X394608Y275308D02*
G03*
X394608Y275308I-2506J0D01*
G01*
Y262808D02*
G03*
X394608Y262808I-2506J0D01*
G01*
Y250308D02*
G03*
X394608Y250308I-2506J0D01*
G01*
Y237808D02*
G03*
X394608Y237808I-2506J0D01*
G01*
Y225308D02*
G03*
X394608Y225308I-2506J0D01*
G01*
Y212808D02*
G03*
X394608Y212808I-2506J0D01*
G01*
Y200308D02*
G03*
X394608Y200308I-2506J0D01*
G01*
Y187808D02*
G03*
X394608Y187808I-2506J0D01*
G01*
Y175308D02*
G03*
X394608Y175308I-2506J0D01*
G01*
X237608Y174808D02*
G03*
X237608Y174808I-2506J0D01*
G01*
Y187308D02*
G03*
X237608Y187308I-2506J0D01*
G01*
Y199808D02*
G03*
X237608Y199808I-2506J0D01*
G01*
Y212308D02*
G03*
X237608Y212308I-2506J0D01*
G01*
Y224808D02*
G03*
X237608Y224808I-2506J0D01*
G01*
Y237308D02*
G03*
X237608Y237308I-2506J0D01*
G01*
Y249808D02*
G03*
X237608Y249808I-2506J0D01*
G01*
Y262308D02*
G03*
X237608Y262308I-2506J0D01*
G01*
Y274808D02*
G03*
X237608Y274808I-2506J0D01*
G01*
D49*
X771962Y200806D02*
D03*
Y188306D02*
D03*
Y250806D02*
D03*
Y238306D02*
D03*
Y225806D02*
D03*
X651962Y213306D02*
D03*
Y225806D02*
D03*
Y238306D02*
D03*
Y250806D02*
D03*
Y263306D02*
D03*
X771962D02*
D03*
Y213306D02*
D03*
X651962Y188306D02*
D03*
Y200806D02*
D03*
D50*
X686962Y285806D02*
D03*
X674462D02*
D03*
X736962D02*
D03*
X699462D02*
D03*
X711962D02*
D03*
X724462D02*
D03*
X749462D02*
D03*
X736962Y165806D02*
D03*
X749462D02*
D03*
X674462D02*
D03*
X724462D02*
D03*
X686962D02*
D03*
X699462D02*
D03*
X711962D02*
D03*
D51*
X736118Y807293D02*
D03*
Y794593D02*
D03*
Y781893D02*
D03*
Y769193D02*
D03*
X646118Y781893D02*
D03*
Y794593D02*
D03*
Y807293D02*
D03*
Y769193D02*
D03*
Y756493D02*
D03*
Y743793D02*
D03*
Y731093D02*
D03*
Y718393D02*
D03*
X736118D02*
D03*
Y731093D02*
D03*
Y743793D02*
D03*
Y756493D02*
D03*
X736500Y696450D02*
D03*
Y683750D02*
D03*
Y671050D02*
D03*
Y658350D02*
D03*
X646500Y671050D02*
D03*
Y683750D02*
D03*
Y696450D02*
D03*
Y658350D02*
D03*
Y645650D02*
D03*
Y632950D02*
D03*
Y620250D02*
D03*
Y607550D02*
D03*
X736500D02*
D03*
Y620250D02*
D03*
Y632950D02*
D03*
Y645650D02*
D03*
D52*
X876000Y624750D02*
D03*
X862000D02*
D03*
X884250Y658750D02*
D03*
X870250D02*
D03*
X313250Y132750D02*
D03*
X327250D02*
D03*
X297000Y132500D02*
D03*
X283000D02*
D03*
X879750Y179500D02*
D03*
X865750D02*
D03*
X879750Y196250D02*
D03*
X865750D02*
D03*
X879750Y213000D02*
D03*
X865750D02*
D03*
X879750Y229750D02*
D03*
X865750D02*
D03*
X643750Y360500D02*
D03*
X657750D02*
D03*
X404500Y690250D02*
D03*
X390500D02*
D03*
X500750Y435250D02*
D03*
X486750D02*
D03*
X484250Y538750D02*
D03*
X498250D02*
D03*
X484250Y556000D02*
D03*
X498250D02*
D03*
X484250Y523000D02*
D03*
X498250D02*
D03*
X613500Y507500D02*
D03*
X599500D02*
D03*
X499000Y588250D02*
D03*
X485000D02*
D03*
X616500Y395000D02*
D03*
X602500D02*
D03*
X498500Y622250D02*
D03*
X484500D02*
D03*
X500750Y468500D02*
D03*
X486750D02*
D03*
X498750Y572000D02*
D03*
X484750D02*
D03*
X852250Y352750D02*
D03*
X866250D02*
D03*
X360500Y690250D02*
D03*
X374500D02*
D03*
X222500Y780750D02*
D03*
X236500D02*
D03*
X441750Y662500D02*
D03*
X427750D02*
D03*
X191250Y546500D02*
D03*
X205250D02*
D03*
X205000Y591750D02*
D03*
X191000D02*
D03*
Y529500D02*
D03*
X205000D02*
D03*
X190750Y609000D02*
D03*
X204750D02*
D03*
X190500Y626250D02*
D03*
X204500D02*
D03*
X196102Y250808D02*
D03*
X210102D02*
D03*
X196102Y199808D02*
D03*
X210102D02*
D03*
X472000Y364750D02*
D03*
X458000D02*
D03*
X471750Y381750D02*
D03*
X457750D02*
D03*
X471750Y398750D02*
D03*
X457750D02*
D03*
X484250Y505250D02*
D03*
X498250D02*
D03*
X500750Y452000D02*
D03*
X486750D02*
D03*
X210102Y174808D02*
D03*
X196102D02*
D03*
X210102Y235808D02*
D03*
X196102D02*
D03*
X498750Y605250D02*
D03*
X484750D02*
D03*
X457750Y416000D02*
D03*
X471750D02*
D03*
X498250Y639000D02*
D03*
X484250D02*
D03*
X198878Y323732D02*
D03*
X212878D02*
D03*
X198878Y356232D02*
D03*
X212878D02*
D03*
X198878Y388732D02*
D03*
X212878D02*
D03*
X382000Y408500D02*
D03*
X368000D02*
D03*
X200518Y433832D02*
D03*
X214518D02*
D03*
X242032Y657098D02*
D03*
X256032D02*
D03*
X294250Y657000D02*
D03*
X308250D02*
D03*
X350500Y656500D02*
D03*
X364500D02*
D03*
X310246Y409956D02*
D03*
X324246D02*
D03*
X254620Y406400D02*
D03*
X268620D02*
D03*
X417386Y379564D02*
D03*
X403386D02*
D03*
X417386Y394564D02*
D03*
X403386D02*
D03*
X417464Y409702D02*
D03*
X403464D02*
D03*
X486000Y103500D02*
D03*
X472000D02*
D03*
X569750Y102000D02*
D03*
X555750D02*
D03*
X869790Y674920D02*
D03*
X883790D02*
D03*
X871050Y493100D02*
D03*
X885050D02*
D03*
X871050Y508340D02*
D03*
X885050D02*
D03*
X871050Y455500D02*
D03*
X885050D02*
D03*
X871050Y477860D02*
D03*
X885050D02*
D03*
X870250Y641750D02*
D03*
X884250D02*
D03*
X883790Y705400D02*
D03*
X869790D02*
D03*
X883790Y690160D02*
D03*
X869790D02*
D03*
X906130Y95250D02*
D03*
X920130D02*
D03*
X33640Y40640D02*
D03*
X47640D02*
D03*
X924500Y805000D02*
D03*
X910500D02*
D03*
X30500Y867500D02*
D03*
X44500D02*
D03*
X751250Y307500D02*
D03*
X737250D02*
D03*
X674624Y100076D02*
D03*
X688624D02*
D03*
X674624Y143256D02*
D03*
X688624D02*
D03*
X273102Y226808D02*
D03*
X287102D02*
D03*
X287102Y241808D02*
D03*
X273102D02*
D03*
D53*
X295102Y208558D02*
D03*
X301602D02*
D03*
X308102D02*
D03*
X314602D02*
D03*
X321102D02*
D03*
X314602Y151058D02*
D03*
X321102D02*
D03*
X327602D02*
D03*
X308102D02*
D03*
X301602D02*
D03*
X295102D02*
D03*
X288602D02*
D03*
Y208558D02*
D03*
X327602D02*
D03*
D54*
X908000Y198500D02*
D03*
Y186000D02*
D03*
Y211000D02*
D03*
Y223500D02*
D03*
X908500Y335000D02*
D03*
Y322500D02*
D03*
Y347500D02*
D03*
Y360000D02*
D03*
D55*
X937000Y160500D02*
D03*
Y249000D02*
D03*
X937500Y297000D02*
D03*
Y385500D02*
D03*
D56*
X614750Y615500D02*
D03*
Y601500D02*
D03*
X616750Y727000D02*
D03*
Y713000D02*
D03*
X458250Y521750D02*
D03*
Y507750D02*
D03*
X290250Y674500D02*
D03*
Y688500D02*
D03*
X457962Y554706D02*
D03*
Y568706D02*
D03*
X484750Y759250D02*
D03*
Y745250D02*
D03*
X471500Y138750D02*
D03*
Y152750D02*
D03*
X487250D02*
D03*
Y138750D02*
D03*
X198250Y303000D02*
D03*
Y289000D02*
D03*
X155750D02*
D03*
Y303000D02*
D03*
X175000Y303000D02*
D03*
Y289000D02*
D03*
X217000Y303250D02*
D03*
Y289250D02*
D03*
X326500Y363500D02*
D03*
Y349500D02*
D03*
X227330Y657636D02*
D03*
Y643636D02*
D03*
X314452Y392754D02*
D03*
Y378754D02*
D03*
X273000Y688250D02*
D03*
Y674250D02*
D03*
X155000Y634250D02*
D03*
Y648250D02*
D03*
Y673000D02*
D03*
Y687000D02*
D03*
X208250Y491500D02*
D03*
Y505500D02*
D03*
X204750Y562250D02*
D03*
Y576250D02*
D03*
X457454Y637174D02*
D03*
Y623174D02*
D03*
X458500Y440500D02*
D03*
Y454500D02*
D03*
X29578Y327500D02*
D03*
Y341500D02*
D03*
Y584500D02*
D03*
Y570500D02*
D03*
X617000Y697000D02*
D03*
Y683000D02*
D03*
X616791Y744805D02*
D03*
Y758805D02*
D03*
X592250Y714250D02*
D03*
Y728250D02*
D03*
X616791Y792805D02*
D03*
Y806805D02*
D03*
X554000Y712000D02*
D03*
Y726000D02*
D03*
X356108Y112380D02*
D03*
Y126380D02*
D03*
X577000Y151500D02*
D03*
Y137500D02*
D03*
X675132Y128666D02*
D03*
Y114666D02*
D03*
X25400Y713740D02*
D03*
Y699740D02*
D03*
X301102Y279808D02*
D03*
Y293808D02*
D03*
X486750Y682750D02*
D03*
Y696750D02*
D03*
X614960Y633280D02*
D03*
Y647280D02*
D03*
X592250Y615250D02*
D03*
Y601250D02*
D03*
X561750Y151500D02*
D03*
Y137500D02*
D03*
X525250Y151000D02*
D03*
Y137000D02*
D03*
X271102Y164808D02*
D03*
Y178808D02*
D03*
X552250Y788250D02*
D03*
Y774250D02*
D03*
X617250Y459000D02*
D03*
Y473000D02*
D03*
X615000Y585750D02*
D03*
Y571750D02*
D03*
D57*
X209750Y474250D02*
D03*
Y465250D02*
D03*
D58*
X738788Y383136D02*
D03*
Y395836D02*
D03*
Y408536D02*
D03*
Y421236D02*
D03*
Y433936D02*
D03*
Y446636D02*
D03*
Y459336D02*
D03*
Y472036D02*
D03*
X644788Y383136D02*
D03*
Y395836D02*
D03*
Y408536D02*
D03*
Y421236D02*
D03*
Y433936D02*
D03*
Y446636D02*
D03*
Y459336D02*
D03*
Y472036D02*
D03*
X738788Y495364D02*
D03*
Y508064D02*
D03*
Y520764D02*
D03*
Y533464D02*
D03*
Y546164D02*
D03*
Y558864D02*
D03*
Y571564D02*
D03*
Y584264D02*
D03*
X644788Y495364D02*
D03*
Y508064D02*
D03*
Y520764D02*
D03*
Y533464D02*
D03*
Y546164D02*
D03*
Y558864D02*
D03*
Y571564D02*
D03*
Y584264D02*
D03*
D59*
X536970Y767900D02*
D03*
X504670D02*
D03*
X536970Y761400D02*
D03*
X504670D02*
D03*
Y774400D02*
D03*
Y754900D02*
D03*
X536970Y774400D02*
D03*
Y754900D02*
D03*
X538540Y691900D02*
D03*
Y711400D02*
D03*
X506240Y691900D02*
D03*
Y711400D02*
D03*
Y698400D02*
D03*
X538540D02*
D03*
X506240Y704900D02*
D03*
X538540D02*
D03*
D60*
X776250Y417500D02*
D03*
X866250Y372500D02*
D03*
X776250D02*
D03*
X866250Y417500D02*
D03*
D61*
X197628Y338732D02*
D03*
X214128D02*
D03*
X197628Y371232D02*
D03*
X214128D02*
D03*
X197628Y406232D02*
D03*
X214128D02*
D03*
D62*
X355712Y427048D02*
D03*
X325712D02*
D03*
X320712D02*
D03*
X245712D02*
D03*
X250712D02*
D03*
X255712D02*
D03*
X260712D02*
D03*
X265712D02*
D03*
X270712D02*
D03*
X275712D02*
D03*
X280712D02*
D03*
X285712D02*
D03*
X290712D02*
D03*
X295712D02*
D03*
X300712D02*
D03*
X305712D02*
D03*
X310712D02*
D03*
X315712D02*
D03*
X330712D02*
D03*
X335712D02*
D03*
X340712D02*
D03*
X345712D02*
D03*
X350712D02*
D03*
X360712D02*
D03*
X365712D02*
D03*
X370712D02*
D03*
X375712D02*
D03*
X380712D02*
D03*
X385712D02*
D03*
X390712D02*
D03*
X395712D02*
D03*
X400712D02*
D03*
X405712D02*
D03*
X410712D02*
D03*
X415712D02*
D03*
X420712D02*
D03*
Y639548D02*
D03*
X415712D02*
D03*
X410712D02*
D03*
X405712D02*
D03*
X400712D02*
D03*
X395712D02*
D03*
X390712D02*
D03*
X385712D02*
D03*
X380712D02*
D03*
X375712D02*
D03*
X370712D02*
D03*
X365712D02*
D03*
X360712D02*
D03*
X355712D02*
D03*
X350712D02*
D03*
X345712D02*
D03*
X340712D02*
D03*
X335712D02*
D03*
X330712D02*
D03*
X325712D02*
D03*
X320712D02*
D03*
X315712D02*
D03*
X310712D02*
D03*
X305712D02*
D03*
X300712D02*
D03*
X295712D02*
D03*
X290712D02*
D03*
X285712D02*
D03*
X280712D02*
D03*
X275712D02*
D03*
X270712D02*
D03*
X265712D02*
D03*
X260712D02*
D03*
X255712D02*
D03*
X250712D02*
D03*
X245712D02*
D03*
D63*
X439462Y575798D02*
D03*
Y445798D02*
D03*
Y450798D02*
D03*
Y455798D02*
D03*
Y460798D02*
D03*
Y465798D02*
D03*
Y470798D02*
D03*
Y475798D02*
D03*
Y480798D02*
D03*
Y485798D02*
D03*
Y490798D02*
D03*
Y495798D02*
D03*
Y500798D02*
D03*
Y505798D02*
D03*
Y510798D02*
D03*
Y515798D02*
D03*
Y520798D02*
D03*
Y525798D02*
D03*
Y530798D02*
D03*
Y535798D02*
D03*
Y540798D02*
D03*
Y545798D02*
D03*
Y550798D02*
D03*
Y555798D02*
D03*
Y560798D02*
D03*
Y565798D02*
D03*
Y570798D02*
D03*
Y580798D02*
D03*
Y585798D02*
D03*
Y590798D02*
D03*
Y595798D02*
D03*
Y600798D02*
D03*
Y605798D02*
D03*
Y610798D02*
D03*
Y615798D02*
D03*
Y620798D02*
D03*
X226962D02*
D03*
Y615798D02*
D03*
Y610798D02*
D03*
Y605798D02*
D03*
Y600798D02*
D03*
Y595798D02*
D03*
Y590798D02*
D03*
Y585798D02*
D03*
Y580798D02*
D03*
Y575798D02*
D03*
Y570798D02*
D03*
Y565798D02*
D03*
Y560798D02*
D03*
Y555798D02*
D03*
Y550798D02*
D03*
Y545798D02*
D03*
Y540798D02*
D03*
Y535798D02*
D03*
Y530798D02*
D03*
Y525798D02*
D03*
Y520798D02*
D03*
Y515798D02*
D03*
Y510798D02*
D03*
Y505798D02*
D03*
Y500798D02*
D03*
Y495798D02*
D03*
Y490798D02*
D03*
Y485798D02*
D03*
Y480798D02*
D03*
Y475798D02*
D03*
Y470798D02*
D03*
Y465798D02*
D03*
Y460798D02*
D03*
Y455798D02*
D03*
Y450798D02*
D03*
Y445798D02*
D03*
D64*
X356250Y394250D02*
D03*
X347250D02*
D03*
D65*
X20000Y470000D02*
D03*
Y496000D02*
D03*
X101600Y835960D02*
D03*
Y809960D02*
D03*
X182880Y722330D02*
D03*
Y748330D02*
D03*
X20000Y417000D02*
D03*
Y443000D02*
D03*
D66*
X513000Y95450D02*
D03*
X522500D02*
D03*
X532000D02*
D03*
X513000Y120550D02*
D03*
X522500D02*
D03*
X532000D02*
D03*
D67*
X25400Y665480D02*
D03*
Y681980D02*
D03*
X13825Y329486D02*
D03*
Y345986D02*
D03*
Y599292D02*
D03*
Y582792D02*
D03*
D68*
X371960Y128928D02*
D03*
X384960D02*
D03*
Y109728D02*
D03*
X378460D02*
D03*
X371960D02*
D03*
D69*
X338490Y730250D02*
D03*
X364490D02*
D03*
D70*
X879500Y791746D02*
D03*
X798000Y647750D02*
D03*
D71*
X164250Y261550D02*
D03*
Y236150D02*
D03*
Y210750D02*
D03*
Y185350D02*
D03*
Y159950D02*
D03*
X219800Y70880D02*
D03*
X194400D02*
D03*
X169000D02*
D03*
X143600D02*
D03*
X118200D02*
D03*
X218440Y20320D02*
D03*
X193040D02*
D03*
X167640D02*
D03*
X142240D02*
D03*
X116840D02*
D03*
X50800Y647700D02*
D03*
Y622300D02*
D03*
Y571500D02*
D03*
Y596900D02*
D03*
Y520700D02*
D03*
Y495300D02*
D03*
Y469900D02*
D03*
Y419100D02*
D03*
Y444500D02*
D03*
Y368300D02*
D03*
Y317500D02*
D03*
Y393700D02*
D03*
Y342900D02*
D03*
Y546100D02*
D03*
Y673100D02*
D03*
X76200Y266700D02*
D03*
Y342900D02*
D03*
Y317500D02*
D03*
Y292100D02*
D03*
Y368300D02*
D03*
Y419100D02*
D03*
Y165100D02*
D03*
Y215900D02*
D03*
Y241300D02*
D03*
Y190500D02*
D03*
Y393700D02*
D03*
X50800Y774700D02*
D03*
Y698500D02*
D03*
Y749300D02*
D03*
X76200Y723900D02*
D03*
Y749300D02*
D03*
X50800Y723900D02*
D03*
X76200Y774700D02*
D03*
Y698500D02*
D03*
Y647700D02*
D03*
Y622300D02*
D03*
Y596900D02*
D03*
Y571500D02*
D03*
Y546100D02*
D03*
Y520700D02*
D03*
Y469900D02*
D03*
Y444500D02*
D03*
Y673100D02*
D03*
Y495300D02*
D03*
X50800Y241300D02*
D03*
Y266700D02*
D03*
Y190500D02*
D03*
Y292100D02*
D03*
Y139700D02*
D03*
Y215900D02*
D03*
Y165100D02*
D03*
X101600Y647700D02*
D03*
Y622300D02*
D03*
Y571500D02*
D03*
Y596900D02*
D03*
Y520700D02*
D03*
Y495300D02*
D03*
Y469900D02*
D03*
Y419100D02*
D03*
Y444500D02*
D03*
Y368300D02*
D03*
Y317500D02*
D03*
Y393700D02*
D03*
Y342900D02*
D03*
Y546100D02*
D03*
Y673100D02*
D03*
X127000Y266700D02*
D03*
Y342900D02*
D03*
Y317500D02*
D03*
Y292100D02*
D03*
Y368300D02*
D03*
Y419100D02*
D03*
Y165100D02*
D03*
Y215900D02*
D03*
Y241300D02*
D03*
Y190500D02*
D03*
Y393700D02*
D03*
X101600Y774700D02*
D03*
Y698500D02*
D03*
Y749300D02*
D03*
X127000Y723900D02*
D03*
Y749300D02*
D03*
X101600Y723900D02*
D03*
X127000Y774700D02*
D03*
Y698500D02*
D03*
Y647700D02*
D03*
Y622300D02*
D03*
Y596900D02*
D03*
Y571500D02*
D03*
Y546100D02*
D03*
Y520700D02*
D03*
Y469900D02*
D03*
Y444500D02*
D03*
Y673100D02*
D03*
Y495300D02*
D03*
X101600Y241300D02*
D03*
Y266700D02*
D03*
Y190500D02*
D03*
Y292100D02*
D03*
Y139700D02*
D03*
Y215900D02*
D03*
Y165100D02*
D03*
X756900Y334750D02*
D03*
X731500D02*
D03*
X706100D02*
D03*
X680700D02*
D03*
X655300D02*
D03*
D72*
X164250Y134550D02*
D03*
X76200Y139700D02*
D03*
X127000D02*
D03*
D73*
X525750Y207500D02*
D03*
X674878Y46990D02*
D03*
X471000Y47000D02*
D03*
X575000D02*
D03*
D74*
X500350Y232900D02*
D03*
X551150D02*
D03*
X500350Y182100D02*
D03*
X551150D02*
D03*
X700278Y72390D02*
D03*
Y21590D02*
D03*
X649478Y72390D02*
D03*
Y21590D02*
D03*
X445600Y72400D02*
D03*
X496400D02*
D03*
X445600Y21600D02*
D03*
X496400D02*
D03*
X549600Y72400D02*
D03*
X600400D02*
D03*
X549600Y21600D02*
D03*
X600400D02*
D03*
D75*
X392102Y225308D02*
D03*
Y237808D02*
D03*
Y275308D02*
D03*
Y262808D02*
D03*
Y250308D02*
D03*
Y212808D02*
D03*
Y200308D02*
D03*
Y187808D02*
D03*
Y175308D02*
D03*
X235102Y174808D02*
D03*
Y187308D02*
D03*
Y199808D02*
D03*
Y212308D02*
D03*
Y224808D02*
D03*
Y237308D02*
D03*
Y249808D02*
D03*
Y262308D02*
D03*
Y274808D02*
D03*
D76*
X392102Y162808D02*
D03*
X235102Y162308D02*
D03*
D77*
X245200Y70880D02*
D03*
X243840Y20320D02*
D03*
X629900Y334750D02*
D03*
D78*
X908200Y50800D02*
D03*
X50800Y88900D02*
D03*
X908200Y850200D02*
D03*
X50800Y824800D02*
D03*
M02*
