G04*
G04 #@! TF.GenerationSoftware,Altium Limited,Altium Designer,24.2.2 (26)*
G04*
G04 Layer_Color=16711935*
%FSLAX44Y44*%
%MOMM*%
G71*
G04*
G04 #@! TF.SameCoordinates,42CE85E0-05AB-4C44-8BEE-A586E2542FC5*
G04*
G04*
G04 #@! TF.FilePolarity,Negative*
G04*
G01*
G75*
%ADD52R,0.9016X1.0016*%
%ADD56R,1.0016X0.9016*%
%ADD65R,1.9016X1.5016*%
%ADD70C,1.6256*%
%ADD71C,1.4716*%
%ADD72R,1.4716X1.4716*%
%ADD75C,1.0024*%
%ADD76R,1.0024X1.0024*%
%ADD77R,1.4716X1.4716*%
%ADD78C,6.4516*%
%ADD106C,2.0066*%
%ADD111R,2.0500X1.1000*%
%ADD112R,2.9210X3.2512*%
%ADD117R,1.4605X0.5334*%
%ADD121R,1.5916X3.5216*%
G04:AMPARAMS|DCode=122|XSize=2.4316mm|YSize=3.1716mm|CornerRadius=0.3421mm|HoleSize=0mm|Usage=FLASHONLY|Rotation=180.000|XOffset=0mm|YOffset=0mm|HoleType=Round|Shape=RoundedRectangle|*
%AMROUNDEDRECTD122*
21,1,2.4316,2.4875,0,0,180.0*
21,1,1.7475,3.1716,0,0,180.0*
1,1,0.6841,-0.8738,1.2437*
1,1,0.6841,0.8738,1.2437*
1,1,0.6841,0.8738,-1.2437*
1,1,0.6841,-0.8738,-1.2437*
%
%ADD122ROUNDEDRECTD122*%
%ADD123R,0.9016X1.7016*%
%ADD124R,2.2016X3.1016*%
%ADD125R,2.3916X2.3916*%
G04:AMPARAMS|DCode=126|XSize=2.0716mm|YSize=0.7016mm|CornerRadius=0.1258mm|HoleSize=0mm|Usage=FLASHONLY|Rotation=0.000|XOffset=0mm|YOffset=0mm|HoleType=Round|Shape=RoundedRectangle|*
%AMROUNDEDRECTD126*
21,1,2.0716,0.4500,0,0,0.0*
21,1,1.8200,0.7016,0,0,0.0*
1,1,0.2516,0.9100,-0.2250*
1,1,0.2516,-0.9100,-0.2250*
1,1,0.2516,-0.9100,0.2250*
1,1,0.2516,0.9100,0.2250*
%
%ADD126ROUNDEDRECTD126*%
%ADD127C,2.3114*%
G36*
X201012Y810762D02*
X191488D01*
Y793238D01*
X201012D01*
Y810762D01*
D02*
G37*
G36*
X182012Y846762D02*
X159488D01*
Y815238D01*
X182012D01*
Y846762D01*
D02*
G37*
G36*
X213512Y810762D02*
X203988D01*
Y793238D01*
X213512D01*
Y810762D01*
D02*
G37*
G36*
X226012D02*
X216488D01*
Y793238D01*
X226012D01*
Y810762D01*
D02*
G37*
G36*
X238512D02*
X228988D01*
Y793238D01*
X238512D01*
Y810762D01*
D02*
G37*
G36*
X251012D02*
X241488D01*
Y793238D01*
X251012D01*
Y810762D01*
D02*
G37*
G36*
X263512D02*
X253988D01*
Y793238D01*
X263512D01*
Y810762D01*
D02*
G37*
G36*
X276012D02*
X266488D01*
Y793238D01*
X276012D01*
Y810762D01*
D02*
G37*
G36*
X288512D02*
X278988D01*
Y793238D01*
X288512D01*
Y810762D01*
D02*
G37*
G36*
X320512Y846762D02*
X297988D01*
Y815238D01*
X320512D01*
Y846762D01*
D02*
G37*
G36*
X369512D02*
X346988D01*
Y815238D01*
X369512D01*
Y846762D01*
D02*
G37*
G36*
X388512Y810762D02*
X378988D01*
Y793238D01*
X388512D01*
Y810762D01*
D02*
G37*
G36*
X401012D02*
X391488D01*
Y793238D01*
X401012D01*
Y810762D01*
D02*
G37*
G36*
X413512D02*
X403988D01*
Y793238D01*
X413512D01*
Y810762D01*
D02*
G37*
G36*
X426012D02*
X416488D01*
Y793238D01*
X426012D01*
Y810762D01*
D02*
G37*
G36*
X438512D02*
X428988D01*
Y793238D01*
X438512D01*
Y810762D01*
D02*
G37*
G36*
X451012D02*
X441488D01*
Y793238D01*
X451012D01*
Y810762D01*
D02*
G37*
G36*
X483012Y846762D02*
X460488D01*
Y815238D01*
X483012D01*
Y846762D01*
D02*
G37*
G36*
X556012Y810762D02*
X546488D01*
Y793238D01*
X556012D01*
Y810762D01*
D02*
G37*
G36*
X537012Y846762D02*
X514488D01*
Y815238D01*
X537012D01*
Y846762D01*
D02*
G37*
G36*
X568512Y810762D02*
X558988D01*
Y793238D01*
X568512D01*
Y810762D01*
D02*
G37*
G36*
X581012D02*
X571488D01*
Y793238D01*
X581012D01*
Y810762D01*
D02*
G37*
G36*
X593512D02*
X583988D01*
Y793238D01*
X593512D01*
Y810762D01*
D02*
G37*
G36*
X606012D02*
X596488D01*
Y793238D01*
X606012D01*
Y810762D01*
D02*
G37*
G36*
X618512D02*
X608988D01*
Y793238D01*
X618512D01*
Y810762D01*
D02*
G37*
G36*
X631012D02*
X621488D01*
Y793238D01*
X631012D01*
Y810762D01*
D02*
G37*
G36*
X643512D02*
X633988D01*
Y793238D01*
X643512D01*
Y810762D01*
D02*
G37*
G36*
X675512Y815238D02*
X652988D01*
Y846762D01*
X675512D01*
Y815238D01*
D02*
G37*
G36*
X954012Y713738D02*
X922488D01*
Y736262D01*
X954012D01*
Y713738D01*
D02*
G37*
G36*
X918012Y694738D02*
X900488D01*
Y704262D01*
X918012D01*
Y694738D01*
D02*
G37*
G36*
Y682238D02*
X900488D01*
Y691762D01*
X918012D01*
Y682238D01*
D02*
G37*
G36*
Y669738D02*
X900488D01*
Y679262D01*
X918012D01*
Y669738D01*
D02*
G37*
G36*
Y657238D02*
X900488D01*
Y666762D01*
X918012D01*
Y657238D01*
D02*
G37*
G36*
Y644738D02*
X900488D01*
Y654262D01*
X918012D01*
Y644738D01*
D02*
G37*
G36*
Y632238D02*
X900488D01*
Y641762D01*
X918012D01*
Y632238D01*
D02*
G37*
G36*
X954012Y600238D02*
X922488D01*
Y622762D01*
X954012D01*
Y600238D01*
D02*
G37*
D52*
X296750Y132750D02*
D03*
X282750D02*
D03*
X327250Y132500D02*
D03*
X313250D02*
D03*
X604750Y260500D02*
D03*
X618750D02*
D03*
X618750Y243250D02*
D03*
X604750D02*
D03*
X190500Y625750D02*
D03*
X204500D02*
D03*
X204500Y608000D02*
D03*
X190500D02*
D03*
X473250Y468500D02*
D03*
X459250D02*
D03*
Y486000D02*
D03*
X473250D02*
D03*
X458250Y517750D02*
D03*
X472250D02*
D03*
X346250Y210000D02*
D03*
X360250D02*
D03*
X748500Y775750D02*
D03*
X734500D02*
D03*
X665500Y776250D02*
D03*
X651500D02*
D03*
X677000Y698750D02*
D03*
X663000D02*
D03*
D56*
X532500Y773750D02*
D03*
Y787750D02*
D03*
X702250Y788500D02*
D03*
Y774500D02*
D03*
X861750Y358500D02*
D03*
Y372500D02*
D03*
X806500Y358250D02*
D03*
Y372250D02*
D03*
X882000Y372750D02*
D03*
Y358750D02*
D03*
X827500Y372500D02*
D03*
Y358500D02*
D03*
X533250Y715250D02*
D03*
Y729250D02*
D03*
X704000Y493750D02*
D03*
Y507750D02*
D03*
X399500Y664000D02*
D03*
Y678000D02*
D03*
X382500Y664250D02*
D03*
Y678250D02*
D03*
X797250Y686750D02*
D03*
Y672750D02*
D03*
X334250Y678000D02*
D03*
Y664000D02*
D03*
X317500Y663750D02*
D03*
Y677750D02*
D03*
X366102Y248808D02*
D03*
Y262808D02*
D03*
X351102Y276808D02*
D03*
Y262808D02*
D03*
Y248808D02*
D03*
Y234808D02*
D03*
D65*
X618000Y731000D02*
D03*
Y705000D02*
D03*
D70*
X879500Y791746D02*
D03*
X798000Y647750D02*
D03*
D71*
X164250Y261550D02*
D03*
Y236150D02*
D03*
Y210750D02*
D03*
Y185350D02*
D03*
Y159950D02*
D03*
X219800Y70880D02*
D03*
X194400D02*
D03*
X169000D02*
D03*
X143600D02*
D03*
X118200D02*
D03*
X218440Y20320D02*
D03*
X193040D02*
D03*
X167640D02*
D03*
X142240D02*
D03*
X116840D02*
D03*
X50800Y647700D02*
D03*
Y622300D02*
D03*
Y571500D02*
D03*
Y596900D02*
D03*
Y520700D02*
D03*
Y495300D02*
D03*
Y469900D02*
D03*
Y419100D02*
D03*
Y444500D02*
D03*
Y368300D02*
D03*
Y317500D02*
D03*
Y393700D02*
D03*
Y342900D02*
D03*
Y546100D02*
D03*
Y673100D02*
D03*
X76200Y266700D02*
D03*
Y342900D02*
D03*
Y317500D02*
D03*
Y292100D02*
D03*
Y368300D02*
D03*
Y419100D02*
D03*
Y165100D02*
D03*
Y215900D02*
D03*
Y241300D02*
D03*
Y190500D02*
D03*
Y393700D02*
D03*
X50800Y774700D02*
D03*
Y698500D02*
D03*
Y749300D02*
D03*
X76200Y723900D02*
D03*
Y749300D02*
D03*
X50800Y723900D02*
D03*
X76200Y774700D02*
D03*
Y698500D02*
D03*
Y647700D02*
D03*
Y622300D02*
D03*
Y596900D02*
D03*
Y571500D02*
D03*
Y546100D02*
D03*
Y520700D02*
D03*
Y469900D02*
D03*
Y444500D02*
D03*
Y673100D02*
D03*
Y495300D02*
D03*
X50800Y241300D02*
D03*
Y266700D02*
D03*
Y190500D02*
D03*
Y292100D02*
D03*
Y139700D02*
D03*
Y215900D02*
D03*
Y165100D02*
D03*
X101600Y647700D02*
D03*
Y622300D02*
D03*
Y571500D02*
D03*
Y596900D02*
D03*
Y520700D02*
D03*
Y495300D02*
D03*
Y469900D02*
D03*
Y419100D02*
D03*
Y444500D02*
D03*
Y368300D02*
D03*
Y317500D02*
D03*
Y393700D02*
D03*
Y342900D02*
D03*
Y546100D02*
D03*
Y673100D02*
D03*
X127000Y266700D02*
D03*
Y342900D02*
D03*
Y317500D02*
D03*
Y292100D02*
D03*
Y368300D02*
D03*
Y419100D02*
D03*
Y165100D02*
D03*
Y215900D02*
D03*
Y241300D02*
D03*
Y190500D02*
D03*
Y393700D02*
D03*
X101600Y774700D02*
D03*
Y698500D02*
D03*
Y749300D02*
D03*
X127000Y723900D02*
D03*
Y749300D02*
D03*
X101600Y723900D02*
D03*
X127000Y774700D02*
D03*
Y698500D02*
D03*
Y647700D02*
D03*
Y622300D02*
D03*
Y596900D02*
D03*
Y571500D02*
D03*
Y546100D02*
D03*
Y520700D02*
D03*
Y469900D02*
D03*
Y444500D02*
D03*
Y673100D02*
D03*
Y495300D02*
D03*
X101600Y241300D02*
D03*
Y266700D02*
D03*
Y190500D02*
D03*
Y292100D02*
D03*
Y139700D02*
D03*
Y215900D02*
D03*
Y165100D02*
D03*
X756900Y334750D02*
D03*
X731500D02*
D03*
X706100D02*
D03*
X680700D02*
D03*
X655300D02*
D03*
D72*
X164250Y134550D02*
D03*
X76200Y139700D02*
D03*
X127000D02*
D03*
D75*
X392102Y225308D02*
D03*
Y237808D02*
D03*
Y275308D02*
D03*
Y262808D02*
D03*
Y250308D02*
D03*
Y212808D02*
D03*
Y200308D02*
D03*
Y187808D02*
D03*
Y175308D02*
D03*
X235102Y174808D02*
D03*
Y187308D02*
D03*
Y199808D02*
D03*
Y212308D02*
D03*
Y224808D02*
D03*
Y237308D02*
D03*
Y249808D02*
D03*
Y262308D02*
D03*
Y274808D02*
D03*
D76*
X392102Y162808D02*
D03*
X235102Y162308D02*
D03*
D77*
X245200Y70880D02*
D03*
X243840Y20320D02*
D03*
X629900Y334750D02*
D03*
D78*
X908200Y50800D02*
D03*
X50800Y88900D02*
D03*
X908200Y850200D02*
D03*
X50800Y824800D02*
D03*
D106*
X525750Y207500D02*
D03*
X674878Y46990D02*
D03*
X471000Y47000D02*
D03*
X575000D02*
D03*
D111*
X804000Y628250D02*
D03*
Y595250D02*
D03*
X842750Y628750D02*
D03*
Y595750D02*
D03*
X881750Y628000D02*
D03*
Y595000D02*
D03*
D112*
X679500Y628750D02*
D03*
X765098D02*
D03*
D117*
X330344Y223708D02*
D03*
Y236408D02*
D03*
Y249108D02*
D03*
Y261808D02*
D03*
Y274508D02*
D03*
Y287208D02*
D03*
Y299908D02*
D03*
X275861D02*
D03*
Y287208D02*
D03*
Y274508D02*
D03*
Y261808D02*
D03*
Y249108D02*
D03*
Y236408D02*
D03*
Y223708D02*
D03*
D121*
X880140Y731250D02*
D03*
X821860D02*
D03*
D122*
X796900Y732000D02*
D03*
X729600D02*
D03*
D123*
X346500Y100000D02*
D03*
X359000D02*
D03*
X334000D02*
D03*
X321500D02*
D03*
D124*
X384500Y71000D02*
D03*
X296000D02*
D03*
D125*
X670500Y737500D02*
D03*
D126*
X695250Y718450D02*
D03*
Y731150D02*
D03*
Y743850D02*
D03*
Y756550D02*
D03*
X645750D02*
D03*
Y743850D02*
D03*
Y731150D02*
D03*
Y718450D02*
D03*
D127*
X500350Y232900D02*
D03*
X551150D02*
D03*
X500350Y182100D02*
D03*
X551150D02*
D03*
X700278Y72390D02*
D03*
Y21590D02*
D03*
X649478Y72390D02*
D03*
Y21590D02*
D03*
X445600Y72400D02*
D03*
X496400D02*
D03*
X445600Y21600D02*
D03*
X496400D02*
D03*
X549600Y72400D02*
D03*
X600400D02*
D03*
X549600Y21600D02*
D03*
X600400D02*
D03*
M02*
