G04*
G04 #@! TF.GenerationSoftware,Altium Limited,Altium Designer,24.2.2 (26)*
G04*
G04 Layer_Color=8421504*
%FSLAX44Y44*%
%MOMM*%
G71*
G04*
G04 #@! TF.SameCoordinates,AC5FE853-4F07-4D9B-8A54-167A7522BE5B*
G04*
G04*
G04 #@! TF.FilePolarity,Positive*
G04*
G01*
G75*
G04:AMPARAMS|DCode=23|XSize=2.3mm|YSize=1mm|CornerRadius=0mm|HoleSize=0mm|Usage=FLASHONLY|Rotation=180.000|XOffset=0mm|YOffset=0mm|HoleType=Round|Shape=RoundedRectangle|*
%AMROUNDEDRECTD23*
21,1,2.3000,1.0000,0,0,180.0*
21,1,2.3000,1.0000,0,0,180.0*
1,1,0.0000,-1.1500,0.5000*
1,1,0.0000,1.1500,0.5000*
1,1,0.0000,1.1500,-0.5000*
1,1,0.0000,-1.1500,-0.5000*
%
%ADD23ROUNDEDRECTD23*%
G04:AMPARAMS|DCode=24|XSize=2.3mm|YSize=1mm|CornerRadius=0mm|HoleSize=0mm|Usage=FLASHONLY|Rotation=270.000|XOffset=0mm|YOffset=0mm|HoleType=Round|Shape=RoundedRectangle|*
%AMROUNDEDRECTD24*
21,1,2.3000,1.0000,0,0,270.0*
21,1,2.3000,1.0000,0,0,270.0*
1,1,0.0000,-0.5000,-1.1500*
1,1,0.0000,-0.5000,1.1500*
1,1,0.0000,0.5000,1.1500*
1,1,0.0000,0.5000,-1.1500*
%
%ADD24ROUNDEDRECTD24*%
%ADD25R,3.5000X0.6000*%
%ADD26R,3.0000X2.1000*%
%ADD27R,1.6000X0.8000*%
%ADD28R,0.8000X0.9000*%
%ADD29R,0.3500X1.4000*%
%ADD30R,1.6000X0.8000*%
%ADD31R,3.0000X2.1000*%
%ADD32R,0.9000X0.8000*%
%ADD33R,0.5500X0.5500*%
%ADD34R,1.8000X0.6000*%
%ADD35R,0.9000X0.3000*%
%ADD36R,0.4572X1.7272*%
%ADD37R,1.0000X1.0000*%
%ADD38R,0.3048X0.6096*%
%ADD39R,0.8000X0.8000*%
%ADD40R,0.3500X1.3500*%
%ADD41R,1.3500X0.3500*%
%ADD42R,0.5500X0.5500*%
%ADD43R,1.8000X1.4000*%
G04:AMPARAMS|DCode=44|XSize=1.21mm|YSize=0.58mm|CornerRadius=0.0725mm|HoleSize=0mm|Usage=FLASHONLY|Rotation=90.000|XOffset=0mm|YOffset=0mm|HoleType=Round|Shape=RoundedRectangle|*
%AMROUNDEDRECTD44*
21,1,1.2100,0.4350,0,0,90.0*
21,1,1.0650,0.5800,0,0,90.0*
1,1,0.1450,0.2175,0.5325*
1,1,0.1450,0.2175,-0.5325*
1,1,0.1450,-0.2175,-0.5325*
1,1,0.1450,-0.2175,0.5325*
%
%ADD44ROUNDEDRECTD44*%
%ADD45R,0.8000X0.8000*%
G04:AMPARAMS|DCode=46|XSize=1.19mm|YSize=0.4mm|CornerRadius=0.05mm|HoleSize=0mm|Usage=FLASHONLY|Rotation=90.000|XOffset=0mm|YOffset=0mm|HoleType=Round|Shape=RoundedRectangle|*
%AMROUNDEDRECTD46*
21,1,1.1900,0.3000,0,0,90.0*
21,1,1.0900,0.4000,0,0,90.0*
1,1,0.1000,0.1500,0.5450*
1,1,0.1000,0.1500,-0.5450*
1,1,0.1000,-0.1500,-0.5450*
1,1,0.1000,-0.1500,0.5450*
%
%ADD46ROUNDEDRECTD46*%
%ADD47R,1.4000X1.8000*%
D23*
X771962Y200806D02*
D03*
Y188306D02*
D03*
Y250806D02*
D03*
Y238306D02*
D03*
Y225806D02*
D03*
X651962Y213306D02*
D03*
Y225806D02*
D03*
Y238306D02*
D03*
Y250806D02*
D03*
Y263306D02*
D03*
X771962D02*
D03*
Y213306D02*
D03*
X651962Y188306D02*
D03*
Y200806D02*
D03*
D24*
X686962Y285806D02*
D03*
X674462D02*
D03*
X736962D02*
D03*
X699462D02*
D03*
X711962D02*
D03*
X724462D02*
D03*
X749462D02*
D03*
X736962Y165806D02*
D03*
X749462D02*
D03*
X674462D02*
D03*
X724462D02*
D03*
X686962D02*
D03*
X699462D02*
D03*
X711962D02*
D03*
D25*
X736118Y807293D02*
D03*
Y794593D02*
D03*
Y781893D02*
D03*
Y769193D02*
D03*
X646118Y781893D02*
D03*
Y794593D02*
D03*
Y807293D02*
D03*
Y769193D02*
D03*
Y756493D02*
D03*
Y743793D02*
D03*
Y731093D02*
D03*
Y718393D02*
D03*
X736118D02*
D03*
Y731093D02*
D03*
Y743793D02*
D03*
Y756493D02*
D03*
X736500Y696450D02*
D03*
Y683750D02*
D03*
Y671050D02*
D03*
Y658350D02*
D03*
X646500Y671050D02*
D03*
Y683750D02*
D03*
Y696450D02*
D03*
Y658350D02*
D03*
Y645650D02*
D03*
Y632950D02*
D03*
Y620250D02*
D03*
Y607550D02*
D03*
X736500D02*
D03*
Y620250D02*
D03*
Y632950D02*
D03*
Y645650D02*
D03*
D26*
X937090Y602290D02*
D03*
Y740790D02*
D03*
Y530800D02*
D03*
Y417300D02*
D03*
D27*
X908090Y715290D02*
D03*
Y702790D02*
D03*
Y690290D02*
D03*
Y677790D02*
D03*
Y665290D02*
D03*
Y652790D02*
D03*
Y640290D02*
D03*
Y627790D02*
D03*
Y442800D02*
D03*
Y455300D02*
D03*
Y480300D02*
D03*
Y492800D02*
D03*
Y505300D02*
D03*
Y467800D02*
D03*
D28*
X876000Y624750D02*
D03*
X862000D02*
D03*
X884250Y658750D02*
D03*
X870250D02*
D03*
X313250Y132750D02*
D03*
X327250D02*
D03*
X297000Y132500D02*
D03*
X283000D02*
D03*
X879750Y179500D02*
D03*
X865750D02*
D03*
X879750Y196250D02*
D03*
X865750D02*
D03*
X879750Y213000D02*
D03*
X865750D02*
D03*
X879750Y229750D02*
D03*
X865750D02*
D03*
X643750Y360500D02*
D03*
X657750D02*
D03*
X404500Y690250D02*
D03*
X390500D02*
D03*
X500750Y435250D02*
D03*
X486750D02*
D03*
X484250Y538750D02*
D03*
X498250D02*
D03*
X484250Y556000D02*
D03*
X498250D02*
D03*
X484250Y523000D02*
D03*
X498250D02*
D03*
X613500Y507500D02*
D03*
X599500D02*
D03*
X499000Y588250D02*
D03*
X485000D02*
D03*
X616500Y395000D02*
D03*
X602500D02*
D03*
X498500Y622250D02*
D03*
X484500D02*
D03*
X500750Y468500D02*
D03*
X486750D02*
D03*
X498750Y572000D02*
D03*
X484750D02*
D03*
X852250Y352750D02*
D03*
X866250D02*
D03*
X360500Y690250D02*
D03*
X374500D02*
D03*
X222500Y780750D02*
D03*
X236500D02*
D03*
X441750Y662500D02*
D03*
X427750D02*
D03*
X191250Y546500D02*
D03*
X205250D02*
D03*
X205000Y591750D02*
D03*
X191000D02*
D03*
Y529500D02*
D03*
X205000D02*
D03*
X190750Y609000D02*
D03*
X204750D02*
D03*
X190500Y626250D02*
D03*
X204500D02*
D03*
X196102Y250808D02*
D03*
X210102D02*
D03*
X196102Y199808D02*
D03*
X210102D02*
D03*
X472000Y364750D02*
D03*
X458000D02*
D03*
X471750Y381750D02*
D03*
X457750D02*
D03*
X471750Y398750D02*
D03*
X457750D02*
D03*
X484250Y505250D02*
D03*
X498250D02*
D03*
X500750Y452000D02*
D03*
X486750D02*
D03*
X210102Y174808D02*
D03*
X196102D02*
D03*
X210102Y235808D02*
D03*
X196102D02*
D03*
X498750Y605250D02*
D03*
X484750D02*
D03*
X457750Y416000D02*
D03*
X471750D02*
D03*
X498250Y639000D02*
D03*
X484250D02*
D03*
X198878Y323732D02*
D03*
X212878D02*
D03*
X198878Y356232D02*
D03*
X212878D02*
D03*
X198878Y388732D02*
D03*
X212878D02*
D03*
X382000Y408500D02*
D03*
X368000D02*
D03*
X200518Y433832D02*
D03*
X214518D02*
D03*
X242032Y657098D02*
D03*
X256032D02*
D03*
X294250Y657000D02*
D03*
X308250D02*
D03*
X350500Y656500D02*
D03*
X364500D02*
D03*
X310246Y409956D02*
D03*
X324246D02*
D03*
X254620Y406400D02*
D03*
X268620D02*
D03*
X417386Y379564D02*
D03*
X403386D02*
D03*
X417386Y394564D02*
D03*
X403386D02*
D03*
X417464Y409702D02*
D03*
X403464D02*
D03*
X486000Y103500D02*
D03*
X472000D02*
D03*
X569750Y102000D02*
D03*
X555750D02*
D03*
X869790Y674920D02*
D03*
X883790D02*
D03*
X871050Y493100D02*
D03*
X885050D02*
D03*
X871050Y508340D02*
D03*
X885050D02*
D03*
X871050Y455500D02*
D03*
X885050D02*
D03*
X871050Y477860D02*
D03*
X885050D02*
D03*
X870250Y641750D02*
D03*
X884250D02*
D03*
X883790Y705400D02*
D03*
X869790D02*
D03*
X883790Y690160D02*
D03*
X869790D02*
D03*
X906130Y95250D02*
D03*
X920130D02*
D03*
X33640Y40640D02*
D03*
X47640D02*
D03*
X924500Y805000D02*
D03*
X910500D02*
D03*
X30500Y867500D02*
D03*
X44500D02*
D03*
X751250Y307500D02*
D03*
X737250D02*
D03*
X674624Y100076D02*
D03*
X688624D02*
D03*
X674624Y143256D02*
D03*
X688624D02*
D03*
X273102Y226808D02*
D03*
X287102D02*
D03*
X287102Y241808D02*
D03*
X273102D02*
D03*
D29*
X295102Y208558D02*
D03*
X301602D02*
D03*
X308102D02*
D03*
X314602D02*
D03*
X321102D02*
D03*
X314602Y151058D02*
D03*
X321102D02*
D03*
X327602D02*
D03*
X308102D02*
D03*
X301602D02*
D03*
X295102D02*
D03*
X288602D02*
D03*
Y208558D02*
D03*
X327602D02*
D03*
D30*
X908000Y198500D02*
D03*
Y186000D02*
D03*
Y211000D02*
D03*
Y223500D02*
D03*
X908500Y335000D02*
D03*
Y322500D02*
D03*
Y347500D02*
D03*
Y360000D02*
D03*
D31*
X937000Y160500D02*
D03*
Y249000D02*
D03*
X937500Y297000D02*
D03*
Y385500D02*
D03*
D32*
X614750Y615500D02*
D03*
Y601500D02*
D03*
X616750Y727000D02*
D03*
Y713000D02*
D03*
X458250Y521750D02*
D03*
Y507750D02*
D03*
X290250Y674500D02*
D03*
Y688500D02*
D03*
X457962Y554706D02*
D03*
Y568706D02*
D03*
X484750Y759250D02*
D03*
Y745250D02*
D03*
X471500Y138750D02*
D03*
Y152750D02*
D03*
X487250D02*
D03*
Y138750D02*
D03*
X198250Y303000D02*
D03*
Y289000D02*
D03*
X155750D02*
D03*
Y303000D02*
D03*
X175000Y303000D02*
D03*
Y289000D02*
D03*
X217000Y303250D02*
D03*
Y289250D02*
D03*
X326500Y363500D02*
D03*
Y349500D02*
D03*
X227330Y657636D02*
D03*
Y643636D02*
D03*
X314452Y392754D02*
D03*
Y378754D02*
D03*
X342250Y365250D02*
D03*
Y379750D02*
D03*
X360750Y365250D02*
D03*
Y379750D02*
D03*
X273000Y688250D02*
D03*
Y674250D02*
D03*
X155000Y634250D02*
D03*
Y648250D02*
D03*
Y673000D02*
D03*
Y687000D02*
D03*
X208250Y491500D02*
D03*
Y505500D02*
D03*
X204750Y562250D02*
D03*
Y576250D02*
D03*
X457454Y637174D02*
D03*
Y623174D02*
D03*
X458500Y440500D02*
D03*
Y454500D02*
D03*
X29578Y327500D02*
D03*
Y341500D02*
D03*
Y584500D02*
D03*
Y570500D02*
D03*
X617000Y697000D02*
D03*
Y683000D02*
D03*
X616791Y744805D02*
D03*
Y758805D02*
D03*
X592250Y714250D02*
D03*
Y728250D02*
D03*
X616791Y792805D02*
D03*
Y806805D02*
D03*
X554000Y712000D02*
D03*
Y726000D02*
D03*
X356108Y112380D02*
D03*
Y126380D02*
D03*
X577000Y151500D02*
D03*
Y137500D02*
D03*
X675132Y128666D02*
D03*
Y114666D02*
D03*
X25400Y713740D02*
D03*
Y699740D02*
D03*
X301102Y279808D02*
D03*
Y293808D02*
D03*
X486750Y682750D02*
D03*
Y696750D02*
D03*
X614960Y633280D02*
D03*
Y647280D02*
D03*
X592250Y615250D02*
D03*
Y601250D02*
D03*
X561750Y151500D02*
D03*
Y137500D02*
D03*
X525250Y151000D02*
D03*
Y137000D02*
D03*
X271102Y164808D02*
D03*
Y178808D02*
D03*
X552250Y788250D02*
D03*
Y774250D02*
D03*
X617250Y459000D02*
D03*
Y473000D02*
D03*
X615000Y585750D02*
D03*
Y571750D02*
D03*
D33*
X209750Y474250D02*
D03*
Y465250D02*
D03*
D34*
X738788Y383136D02*
D03*
Y395836D02*
D03*
Y408536D02*
D03*
Y421236D02*
D03*
Y433936D02*
D03*
Y446636D02*
D03*
Y459336D02*
D03*
Y472036D02*
D03*
X644788Y383136D02*
D03*
Y395836D02*
D03*
Y408536D02*
D03*
Y421236D02*
D03*
Y433936D02*
D03*
Y446636D02*
D03*
Y459336D02*
D03*
Y472036D02*
D03*
X738788Y495364D02*
D03*
Y508064D02*
D03*
Y520764D02*
D03*
Y533464D02*
D03*
Y546164D02*
D03*
Y558864D02*
D03*
Y571564D02*
D03*
Y584264D02*
D03*
X644788Y495364D02*
D03*
Y508064D02*
D03*
Y520764D02*
D03*
Y533464D02*
D03*
Y546164D02*
D03*
Y558864D02*
D03*
Y571564D02*
D03*
Y584264D02*
D03*
D35*
X536970Y767900D02*
D03*
X504670D02*
D03*
X536970Y761400D02*
D03*
X504670D02*
D03*
Y774400D02*
D03*
Y754900D02*
D03*
X536970Y774400D02*
D03*
Y754900D02*
D03*
X538540Y691900D02*
D03*
Y711400D02*
D03*
X506240Y691900D02*
D03*
Y711400D02*
D03*
Y698400D02*
D03*
X538540D02*
D03*
X506240Y704900D02*
D03*
X538540D02*
D03*
D36*
X225750Y715767D02*
D03*
X232250D02*
D03*
X238750D02*
D03*
X245250D02*
D03*
Y761233D02*
D03*
X238750D02*
D03*
X232250D02*
D03*
X225750D02*
D03*
D37*
X776250Y417500D02*
D03*
X866250Y372500D02*
D03*
X776250D02*
D03*
X866250Y417500D02*
D03*
D38*
X301528Y390706D02*
D03*
X294528D02*
D03*
X287528D02*
D03*
X280528D02*
D03*
X273528D02*
D03*
Y371802D02*
D03*
X280528D02*
D03*
X287528D02*
D03*
X294528D02*
D03*
X301528D02*
D03*
D39*
X197628Y338732D02*
D03*
X214128D02*
D03*
X197628Y371232D02*
D03*
X214128D02*
D03*
X197628Y406232D02*
D03*
X214128D02*
D03*
D40*
X355712Y427048D02*
D03*
X325712D02*
D03*
X320712D02*
D03*
X245712D02*
D03*
X250712D02*
D03*
X255712D02*
D03*
X260712D02*
D03*
X265712D02*
D03*
X270712D02*
D03*
X275712D02*
D03*
X280712D02*
D03*
X285712D02*
D03*
X290712D02*
D03*
X295712D02*
D03*
X300712D02*
D03*
X305712D02*
D03*
X310712D02*
D03*
X315712D02*
D03*
X330712D02*
D03*
X335712D02*
D03*
X340712D02*
D03*
X345712D02*
D03*
X350712D02*
D03*
X360712D02*
D03*
X365712D02*
D03*
X370712D02*
D03*
X375712D02*
D03*
X380712D02*
D03*
X385712D02*
D03*
X390712D02*
D03*
X395712D02*
D03*
X400712D02*
D03*
X405712D02*
D03*
X410712D02*
D03*
X415712D02*
D03*
X420712D02*
D03*
Y639548D02*
D03*
X415712D02*
D03*
X410712D02*
D03*
X405712D02*
D03*
X400712D02*
D03*
X395712D02*
D03*
X390712D02*
D03*
X385712D02*
D03*
X380712D02*
D03*
X375712D02*
D03*
X370712D02*
D03*
X365712D02*
D03*
X360712D02*
D03*
X355712D02*
D03*
X350712D02*
D03*
X345712D02*
D03*
X340712D02*
D03*
X335712D02*
D03*
X330712D02*
D03*
X325712D02*
D03*
X320712D02*
D03*
X315712D02*
D03*
X310712D02*
D03*
X305712D02*
D03*
X300712D02*
D03*
X295712D02*
D03*
X290712D02*
D03*
X285712D02*
D03*
X280712D02*
D03*
X275712D02*
D03*
X270712D02*
D03*
X265712D02*
D03*
X260712D02*
D03*
X255712D02*
D03*
X250712D02*
D03*
X245712D02*
D03*
D41*
X439462Y575798D02*
D03*
Y445798D02*
D03*
Y450798D02*
D03*
Y455798D02*
D03*
Y460798D02*
D03*
Y465798D02*
D03*
Y470798D02*
D03*
Y475798D02*
D03*
Y480798D02*
D03*
Y485798D02*
D03*
Y490798D02*
D03*
Y495798D02*
D03*
Y500798D02*
D03*
Y505798D02*
D03*
Y510798D02*
D03*
Y515798D02*
D03*
Y520798D02*
D03*
Y525798D02*
D03*
Y530798D02*
D03*
Y535798D02*
D03*
Y540798D02*
D03*
Y545798D02*
D03*
Y550798D02*
D03*
Y555798D02*
D03*
Y560798D02*
D03*
Y565798D02*
D03*
Y570798D02*
D03*
Y580798D02*
D03*
Y585798D02*
D03*
Y590798D02*
D03*
Y595798D02*
D03*
Y600798D02*
D03*
Y605798D02*
D03*
Y610798D02*
D03*
Y615798D02*
D03*
Y620798D02*
D03*
X226962D02*
D03*
Y615798D02*
D03*
Y610798D02*
D03*
Y605798D02*
D03*
Y600798D02*
D03*
Y595798D02*
D03*
Y590798D02*
D03*
Y585798D02*
D03*
Y580798D02*
D03*
Y575798D02*
D03*
Y570798D02*
D03*
Y565798D02*
D03*
Y560798D02*
D03*
Y555798D02*
D03*
Y550798D02*
D03*
Y545798D02*
D03*
Y540798D02*
D03*
Y535798D02*
D03*
Y530798D02*
D03*
Y525798D02*
D03*
Y520798D02*
D03*
Y515798D02*
D03*
Y510798D02*
D03*
Y505798D02*
D03*
Y500798D02*
D03*
Y495798D02*
D03*
Y490798D02*
D03*
Y485798D02*
D03*
Y480798D02*
D03*
Y475798D02*
D03*
Y470798D02*
D03*
Y465798D02*
D03*
Y460798D02*
D03*
Y455798D02*
D03*
Y450798D02*
D03*
Y445798D02*
D03*
D42*
X356250Y394250D02*
D03*
X347250D02*
D03*
D43*
X20000Y470000D02*
D03*
Y496000D02*
D03*
X101600Y835960D02*
D03*
Y809960D02*
D03*
X182880Y722330D02*
D03*
Y748330D02*
D03*
X20000Y417000D02*
D03*
Y443000D02*
D03*
D44*
X513000Y95450D02*
D03*
X522500D02*
D03*
X532000D02*
D03*
X513000Y120550D02*
D03*
X522500D02*
D03*
X532000D02*
D03*
D45*
X25400Y665480D02*
D03*
Y681980D02*
D03*
X13825Y329486D02*
D03*
Y345986D02*
D03*
Y599292D02*
D03*
Y582792D02*
D03*
D46*
X371960Y128928D02*
D03*
X384960D02*
D03*
Y109728D02*
D03*
X378460D02*
D03*
X371960D02*
D03*
D47*
X338490Y730250D02*
D03*
X364490D02*
D03*
M02*
