G04*
G04 #@! TF.GenerationSoftware,Altium Limited,Altium Designer,24.2.2 (26)*
G04*
G04 Layer_Physical_Order=5*
G04 Layer_Color=128*
%FSLAX44Y44*%
%MOMM*%
G71*
G04*
G04 #@! TF.SameCoordinates,141F1B0E-D353-456E-9C8B-26D142171627*
G04*
G04*
G04 #@! TF.FilePolarity,Negative*
G04*
G01*
G75*
%ADD83C,1.0160*%
%ADD95C,1.7780*%
G04:AMPARAMS|DCode=96|XSize=2.544mm|YSize=2.544mm|CornerRadius=0mm|HoleSize=0mm|Usage=FLASHONLY|Rotation=0.000|XOffset=0mm|YOffset=0mm|HoleType=Round|Shape=Relief|Width=0.254mm|Gap=0.254mm|Entries=4|*
%AMTHD96*
7,0,0,2.5440,2.0360,0.2540,45*
%
%ADD96THD96*%
%ADD97C,2.0360*%
%ADD98C,2.2160*%
G04:AMPARAMS|DCode=99|XSize=3.224mm|YSize=3.224mm|CornerRadius=0mm|HoleSize=0mm|Usage=FLASHONLY|Rotation=0.000|XOffset=0mm|YOffset=0mm|HoleType=Round|Shape=Relief|Width=0.254mm|Gap=0.254mm|Entries=4|*
%AMTHD99*
7,0,0,3.2240,2.7160,0.2540,45*
%
%ADD99THD99*%
%ADD100C,1.5160*%
G04:AMPARAMS|DCode=101|XSize=2.024mm|YSize=2.024mm|CornerRadius=0mm|HoleSize=0mm|Usage=FLASHONLY|Rotation=0.000|XOffset=0mm|YOffset=0mm|HoleType=Round|Shape=Relief|Width=0.254mm|Gap=0.254mm|Entries=4|*
%AMTHD101*
7,0,0,2.0240,1.5160,0.2540,45*
%
%ADD101THD101*%
%ADD102C,4.1960*%
%ADD103C,1.2660*%
%ADD104C,1.2660*%
%ADD105C,1.3970*%
D83*
X0Y0D02*
X280000D01*
Y50000D01*
X400000D01*
Y0D02*
Y50000D01*
Y0D02*
X959000D01*
X162500Y851000D02*
X862500Y852500D01*
X162500Y851000D02*
Y901000D01*
X0D02*
X162500D01*
X862500Y901700D02*
X959000Y901700D01*
X862500Y852500D02*
Y901700D01*
X959000Y150000D02*
X959000Y0D01*
X959000Y150000D02*
X959000Y901700D01*
X0Y0D02*
Y901000D01*
D95*
X879500Y791746D02*
D03*
X798000Y647750D02*
D03*
D96*
X164250Y261550D02*
D03*
Y236150D02*
D03*
X194400Y70880D02*
D03*
X218440Y20320D02*
D03*
X142240D02*
D03*
X50800Y520700D02*
D03*
Y495300D02*
D03*
X76200Y520700D02*
D03*
Y495300D02*
D03*
X680700Y334750D02*
D03*
D97*
X164250Y210750D02*
D03*
Y185350D02*
D03*
Y159950D02*
D03*
Y134550D02*
D03*
X245200Y70880D02*
D03*
X219800D02*
D03*
X169000D02*
D03*
X143600D02*
D03*
X118200D02*
D03*
X243840Y20320D02*
D03*
X193040D02*
D03*
X167640D02*
D03*
X116840D02*
D03*
X50800Y647700D02*
D03*
Y622300D02*
D03*
Y571500D02*
D03*
Y596900D02*
D03*
Y469900D02*
D03*
Y419100D02*
D03*
Y444500D02*
D03*
Y368300D02*
D03*
Y317500D02*
D03*
Y393700D02*
D03*
Y342900D02*
D03*
Y546100D02*
D03*
Y673100D02*
D03*
X76200Y266700D02*
D03*
Y342900D02*
D03*
Y317500D02*
D03*
Y292100D02*
D03*
Y368300D02*
D03*
Y419100D02*
D03*
Y139700D02*
D03*
Y165100D02*
D03*
Y215900D02*
D03*
Y241300D02*
D03*
Y190500D02*
D03*
Y393700D02*
D03*
X50800Y774700D02*
D03*
Y698500D02*
D03*
Y749300D02*
D03*
X76200Y723900D02*
D03*
Y749300D02*
D03*
X50800Y723900D02*
D03*
X76200Y774700D02*
D03*
Y698500D02*
D03*
Y647700D02*
D03*
Y622300D02*
D03*
Y596900D02*
D03*
Y571500D02*
D03*
Y546100D02*
D03*
Y469900D02*
D03*
Y444500D02*
D03*
Y673100D02*
D03*
X50800Y241300D02*
D03*
Y266700D02*
D03*
Y190500D02*
D03*
Y292100D02*
D03*
Y139700D02*
D03*
Y215900D02*
D03*
Y165100D02*
D03*
X101600Y647700D02*
D03*
Y622300D02*
D03*
Y571500D02*
D03*
Y596900D02*
D03*
Y520700D02*
D03*
Y495300D02*
D03*
Y469900D02*
D03*
Y419100D02*
D03*
Y444500D02*
D03*
Y368300D02*
D03*
Y317500D02*
D03*
Y393700D02*
D03*
Y342900D02*
D03*
Y546100D02*
D03*
Y673100D02*
D03*
X127000Y266700D02*
D03*
Y342900D02*
D03*
Y317500D02*
D03*
Y292100D02*
D03*
Y368300D02*
D03*
Y419100D02*
D03*
Y139700D02*
D03*
Y165100D02*
D03*
Y215900D02*
D03*
Y241300D02*
D03*
Y190500D02*
D03*
Y393700D02*
D03*
X101600Y774700D02*
D03*
Y698500D02*
D03*
Y749300D02*
D03*
X127000Y723900D02*
D03*
Y749300D02*
D03*
X101600Y723900D02*
D03*
X127000Y774700D02*
D03*
Y698500D02*
D03*
Y647700D02*
D03*
Y622300D02*
D03*
Y596900D02*
D03*
Y571500D02*
D03*
Y546100D02*
D03*
Y520700D02*
D03*
Y469900D02*
D03*
Y444500D02*
D03*
Y673100D02*
D03*
Y495300D02*
D03*
X101600Y241300D02*
D03*
Y266700D02*
D03*
Y190500D02*
D03*
Y292100D02*
D03*
Y139700D02*
D03*
Y215900D02*
D03*
Y165100D02*
D03*
X756900Y334750D02*
D03*
X731500D02*
D03*
X706100D02*
D03*
X655300D02*
D03*
X629900D02*
D03*
D98*
X525750Y207500D02*
D03*
X674878Y46990D02*
D03*
X471000Y47000D02*
D03*
X575000D02*
D03*
D99*
X500350Y232900D02*
D03*
X551150D02*
D03*
X500350Y182100D02*
D03*
X551150D02*
D03*
X700278Y72390D02*
D03*
Y21590D02*
D03*
X649478Y72390D02*
D03*
Y21590D02*
D03*
X445600Y72400D02*
D03*
X496400D02*
D03*
X445600Y21600D02*
D03*
X496400D02*
D03*
X549600Y72400D02*
D03*
X600400D02*
D03*
X549600Y21600D02*
D03*
X600400D02*
D03*
D100*
X392102Y225308D02*
D03*
Y237808D02*
D03*
Y275308D02*
D03*
Y262808D02*
D03*
Y250308D02*
D03*
Y200308D02*
D03*
Y175308D02*
D03*
Y162808D02*
D03*
X235102Y162308D02*
D03*
Y174808D02*
D03*
Y199808D02*
D03*
Y224808D02*
D03*
Y237308D02*
D03*
Y249808D02*
D03*
Y274808D02*
D03*
D101*
X392102Y212808D02*
D03*
Y187808D02*
D03*
X235102Y187308D02*
D03*
Y212308D02*
D03*
Y262308D02*
D03*
D102*
X908200Y50800D02*
D03*
X50800Y88900D02*
D03*
X908200Y850200D02*
D03*
X50800Y824800D02*
D03*
D103*
X829750Y661000D02*
D03*
X844250Y656250D02*
D03*
X844500Y669330D02*
D03*
X844250Y643000D02*
D03*
X686000Y813750D02*
D03*
X679790Y829000D02*
D03*
X672250Y809500D02*
D03*
X603250Y683500D02*
D03*
X515000Y759500D02*
D03*
X704250Y703500D02*
D03*
X701940Y581250D02*
D03*
X572250Y834500D02*
D03*
X579750Y840810D02*
D03*
X308250Y165000D02*
D03*
X288250D02*
D03*
X173250Y344250D02*
D03*
X378750Y484870D02*
D03*
X407500Y517250D02*
D03*
X486750Y371750D02*
D03*
X495000Y381000D02*
D03*
X592000Y586500D02*
D03*
X580250Y716250D02*
D03*
X529122Y698472D02*
D03*
X522750Y683750D02*
D03*
X566560Y712250D02*
D03*
X558250Y525750D02*
D03*
X569250Y545750D02*
D03*
X514750Y731000D02*
D03*
X521978Y748981D02*
D03*
X675250Y508250D02*
D03*
X473500Y455000D02*
D03*
X271000Y756140D02*
D03*
X543250Y516000D02*
D03*
X561913Y737837D02*
D03*
X577750Y744750D02*
D03*
X391000Y704000D02*
D03*
X341000Y624750D02*
D03*
X264690Y656844D02*
D03*
X282250Y698750D02*
D03*
X261657Y454697D02*
D03*
X254000Y444500D02*
D03*
X302250Y669250D02*
D03*
X179560Y608750D02*
D03*
X173250Y627000D02*
D03*
X165190Y546810D02*
D03*
X151685Y520366D02*
D03*
X194750Y506000D02*
D03*
X518000Y477750D02*
D03*
X684723Y472897D02*
D03*
X573250Y631500D02*
D03*
X494750Y399250D02*
D03*
X417837Y518663D02*
D03*
X469000Y674250D02*
D03*
X414310Y567310D02*
D03*
X458000Y584060D02*
D03*
X410000Y558250D02*
D03*
X531000Y614750D02*
D03*
X456750Y612000D02*
D03*
X523250Y648000D02*
D03*
X517750Y629500D02*
D03*
X587000Y394250D02*
D03*
X527750Y758167D02*
D03*
X233500Y817500D02*
D03*
X490500Y729250D02*
D03*
X403802Y553448D02*
D03*
X861060Y509270D02*
D03*
X710250Y572250D02*
D03*
X595250Y571750D02*
D03*
X599500Y647750D02*
D03*
X592250Y783250D02*
D03*
X585750Y772000D02*
D03*
X592100D02*
D03*
X579400D02*
D03*
X585000Y759500D02*
D03*
X151250Y352250D02*
D03*
X152750Y318000D02*
D03*
X182500Y335000D02*
D03*
X360750Y334000D02*
D03*
X291500Y302810D02*
D03*
X334748Y208558D02*
D03*
X329455Y399559D02*
D03*
X266060Y495250D02*
D03*
X259750Y476500D02*
D03*
X242570Y500380D02*
D03*
X577250Y125000D02*
D03*
X896500Y310250D02*
D03*
X886500Y328500D02*
D03*
X367750Y398250D02*
D03*
X440690Y131826D02*
D03*
X227330Y632968D02*
D03*
X228600Y100330D02*
D03*
X243897Y100387D02*
D03*
X314960Y398780D02*
D03*
X156170Y575000D02*
D03*
X143550Y582250D02*
D03*
X365749Y486422D02*
D03*
X254000Y618490D02*
D03*
X166370Y647700D02*
D03*
Y673100D02*
D03*
X29500Y562500D02*
D03*
X358750Y172250D02*
D03*
X369024Y180810D02*
D03*
X411480Y128778D02*
D03*
X407900Y527400D02*
D03*
X345044Y126380D02*
D03*
X155000Y698052D02*
D03*
Y623510D02*
D03*
X858986Y690160D02*
D03*
X922149Y442800D02*
D03*
X699516Y188722D02*
D03*
X351496Y611500D02*
D03*
X328934Y370640D02*
D03*
X268184Y397510D02*
D03*
X824459Y471214D02*
D03*
X247896Y450611D02*
D03*
X292750Y704930D02*
D03*
X203200Y749300D02*
D03*
Y755650D02*
D03*
Y742950D02*
D03*
X383540Y730250D02*
D03*
Y723900D02*
D03*
X442500Y649077D02*
D03*
X859790Y444240D02*
D03*
X861588Y468398D02*
D03*
X243840Y619760D02*
D03*
X149860Y531114D02*
D03*
X698207Y458595D02*
D03*
X835660Y485140D02*
D03*
X859070Y705400D02*
D03*
X295102Y197545D02*
D03*
X552250Y759500D02*
D03*
X225298Y433832D02*
D03*
X406152Y544402D02*
D03*
X491167Y802750D02*
D03*
X501810Y804500D02*
D03*
X221500Y816500D02*
D03*
X143750Y416250D02*
D03*
X845000Y404000D02*
D03*
X185579Y250808D02*
D03*
X515250Y803750D02*
D03*
X673987Y383136D02*
D03*
X750250Y263500D02*
D03*
X314750Y197000D02*
D03*
X308102Y227250D02*
D03*
X301602Y220924D02*
D03*
X271102Y154148D02*
D03*
X196102Y224398D02*
D03*
Y188852D02*
D03*
X185000Y174500D02*
D03*
X392596Y379564D02*
D03*
X364250Y669750D02*
D03*
D104*
X680240Y789168D02*
D03*
X671250Y792000D02*
D03*
X901000Y733750D02*
D03*
X851250Y778250D02*
D03*
X678750Y779500D02*
D03*
X515130Y768554D02*
D03*
X695500Y683750D02*
D03*
X298500Y165000D02*
D03*
X317500Y164750D02*
D03*
X291750Y111750D02*
D03*
X277750Y104000D02*
D03*
X633000Y243250D02*
D03*
X632250Y259750D02*
D03*
X609750Y283250D02*
D03*
X597000Y289560D02*
D03*
X335000Y469500D02*
D03*
X190500Y562500D02*
D03*
X397000Y452250D02*
D03*
X411500Y365000D02*
D03*
X399250Y362750D02*
D03*
X407250Y602000D02*
D03*
X396500Y597000D02*
D03*
X788250Y380750D02*
D03*
X845250Y372750D02*
D03*
X886500Y389750D02*
D03*
X823750Y392000D02*
D03*
X849000Y180000D02*
D03*
X850250Y213000D02*
D03*
X849250Y229750D02*
D03*
X578000Y611500D02*
D03*
X675250Y602500D02*
D03*
X518500Y706000D02*
D03*
X577750Y556500D02*
D03*
X665000Y495500D02*
D03*
X415250Y458500D02*
D03*
X328000Y458750D02*
D03*
X402000Y468250D02*
D03*
X473666Y446250D02*
D03*
X473500Y435000D02*
D03*
X466250Y545000D02*
D03*
X470000Y530750D02*
D03*
X466500Y498000D02*
D03*
X458750Y530690D02*
D03*
X343501Y593751D02*
D03*
X357252Y592750D02*
D03*
X334250Y691750D02*
D03*
X317750Y692000D02*
D03*
X333792Y651792D02*
D03*
X320500Y651750D02*
D03*
X520000Y442880D02*
D03*
X617250Y436500D02*
D03*
X520500Y424000D02*
D03*
X419750Y471690D02*
D03*
X510250Y539000D02*
D03*
X510000Y524810D02*
D03*
X830500Y423880D02*
D03*
X510000Y415750D02*
D03*
X600750Y416000D02*
D03*
X510000Y507250D02*
D03*
X469000Y696500D02*
D03*
X512750Y574250D02*
D03*
X471000Y572000D02*
D03*
X511000Y556500D02*
D03*
X513250Y587500D02*
D03*
X471500Y586750D02*
D03*
X416250Y593750D02*
D03*
X569500Y530000D02*
D03*
X472000Y504750D02*
D03*
X584750Y520000D02*
D03*
X425500Y746000D02*
D03*
X471000Y556250D02*
D03*
X610250Y523250D02*
D03*
X894090Y461810D02*
D03*
X712000Y684000D02*
D03*
X234250Y294750D02*
D03*
X187000Y275750D02*
D03*
X186750Y288750D02*
D03*
X155750Y278750D02*
D03*
X182750Y318000D02*
D03*
X297000Y468500D02*
D03*
X299418Y451832D02*
D03*
X321250Y228750D02*
D03*
D105*
X359750Y704500D02*
D03*
X813250Y336500D02*
D03*
M02*
