G04*
G04 #@! TF.GenerationSoftware,Altium Limited,Altium Designer,24.2.2 (26)*
G04*
G04 Layer_Color=32896*
%FSLAX44Y44*%
%MOMM*%
G71*
G04*
G04 #@! TF.SameCoordinates,65AE983B-3A35-48A2-B31D-578204411B82*
G04*
G04*
G04 #@! TF.FilePolarity,Positive*
G04*
G01*
G75*
%ADD11C,0.2000*%
%ADD14C,0.1524*%
%ADD15C,0.1270*%
%ADD16C,0.2540*%
%ADD17C,0.2032*%
%ADD19C,0.3556*%
%ADD20R,2.2000X0.4000*%
D11*
X798500Y767250D02*
G03*
X798500Y767250I-1000J0D01*
G01*
X276102Y213808D02*
G03*
X276102Y213808I-1000J0D01*
G01*
X359750Y113700D02*
G03*
X359750Y113700I-1000J0D01*
G01*
X525000Y766750D02*
X540000D01*
Y794750D01*
X525000D02*
X540000D01*
X525000Y766750D02*
Y794750D01*
X790500Y604500D02*
Y619000D01*
X817500Y604500D02*
Y619000D01*
X829250Y605000D02*
Y619500D01*
X856250Y605000D02*
Y619500D01*
X868250Y604250D02*
Y618750D01*
X895250Y604250D02*
Y618750D01*
X694750Y767500D02*
Y795500D01*
X709750D01*
Y767500D02*
Y795500D01*
X694750Y767500D02*
X709750D01*
X275750Y140250D02*
X303750D01*
Y125250D02*
Y140250D01*
X275750Y125250D02*
X303750D01*
X275750D02*
Y140250D01*
X306250Y140000D02*
X334250D01*
Y125000D02*
Y140000D01*
X306250Y125000D02*
X334250D01*
X306250D02*
Y140000D01*
X597750Y253000D02*
X625750D01*
X597750D02*
Y268000D01*
X625750D01*
Y253000D02*
Y268000D01*
X597750Y250750D02*
X625750D01*
Y235750D02*
Y250750D01*
X597750Y235750D02*
X625750D01*
X597750D02*
Y250750D01*
X183500Y618250D02*
X211500D01*
X183500D02*
Y633250D01*
X211500D01*
Y618250D02*
Y633250D01*
X183500Y615500D02*
X211500D01*
Y600500D02*
Y615500D01*
X183500Y600500D02*
X211500D01*
X183500D02*
Y615500D01*
X869250Y351500D02*
Y379500D01*
X854250Y351500D02*
X869250D01*
X854250D02*
Y379500D01*
X869250D01*
X814000Y351250D02*
Y379250D01*
X799000Y351250D02*
X814000D01*
X799000D02*
Y379250D01*
X814000D01*
X874500Y351750D02*
Y379750D01*
X889500D01*
Y351750D02*
Y379750D01*
X874500Y351750D02*
X889500D01*
X820000Y351500D02*
Y379500D01*
X835000D01*
Y351500D02*
Y379500D01*
X820000Y351500D02*
X835000D01*
X540750Y708250D02*
Y736250D01*
X525750Y708250D02*
X540750D01*
X525750D02*
Y736250D01*
X540750D01*
X711500Y486750D02*
Y514750D01*
X696500Y486750D02*
X711500D01*
X696500D02*
Y514750D01*
X711500D01*
X452250Y476000D02*
X480250D01*
Y461000D02*
Y476000D01*
X452250Y461000D02*
X480250D01*
X452250D02*
Y476000D01*
Y493500D02*
X480250D01*
Y478500D02*
Y493500D01*
X452250Y478500D02*
X480250D01*
X452250D02*
Y493500D01*
X451250Y525250D02*
X479250D01*
Y510250D02*
Y525250D01*
X451250Y510250D02*
X479250D01*
X451250D02*
Y525250D01*
X392000Y657000D02*
Y685000D01*
X407000D01*
Y657000D02*
Y685000D01*
X392000Y657000D02*
X407000D01*
X375000Y657250D02*
Y685250D01*
X390000D01*
Y657250D02*
Y685250D01*
X375000Y657250D02*
X390000D01*
X789750Y665750D02*
Y693750D01*
X804750D01*
Y665750D02*
Y693750D01*
X789750Y665750D02*
X804750D01*
X684000Y691250D02*
Y706250D01*
X656000D02*
X684000D01*
X656000Y691250D02*
Y706250D01*
Y691250D02*
X684000D01*
X339250Y202500D02*
Y217500D01*
Y202500D02*
X367250D01*
Y217500D01*
X339250D02*
X367250D01*
X358602Y269808D02*
X373602D01*
X358602Y241808D02*
Y269808D01*
Y241808D02*
X373602D01*
Y269808D01*
X343602Y255808D02*
X358602D01*
X343602Y227808D02*
Y255808D01*
Y227808D02*
X358602D01*
Y255808D01*
X343602Y283808D02*
X358602D01*
X343602Y255808D02*
Y283808D01*
Y255808D02*
X358602D01*
Y283808D01*
X310000Y684750D02*
X325000D01*
X310000Y656750D02*
Y684750D01*
Y656750D02*
X325000D01*
Y684750D01*
X326750Y685000D02*
X341750D01*
X326750Y657000D02*
Y685000D01*
Y657000D02*
X341750D01*
Y685000D01*
X672500Y768750D02*
Y783750D01*
X644500D02*
X672500D01*
X644500Y768750D02*
Y783750D01*
Y768750D02*
X672500D01*
X727500Y768250D02*
Y783250D01*
Y768250D02*
X755500D01*
Y783250D01*
X727500D02*
X755500D01*
D14*
X779449Y576045D02*
Y609167D01*
Y648333D02*
Y681455D01*
X665149D02*
X779449D01*
X665149Y576045D02*
Y609167D01*
Y576045D02*
X779449D01*
X665149Y648333D02*
Y681455D01*
X281893Y306766D02*
X324311D01*
X281893Y216850D02*
X324311D01*
X73274Y117813D02*
X78352D01*
X75813Y120352D02*
Y115274D01*
X125774Y117813D02*
X130852D01*
X128313Y120352D02*
Y115274D01*
D15*
X832500Y748250D02*
X869500D01*
X832500Y714250D02*
X869500D01*
X798750Y750485D02*
Y762500D01*
X727750D02*
X798750D01*
X727750Y750485D02*
Y762500D01*
X798750Y701500D02*
Y713515D01*
X727750Y701500D02*
X798750D01*
X727750D02*
Y713515D01*
X645950Y800000D02*
X670750D01*
X519250D02*
X544050D01*
X519250Y852000D02*
X670750D01*
X519250Y800000D02*
Y813000D01*
X670750Y800000D02*
Y813000D01*
X547300Y780150D02*
X553300D01*
X550300Y785150D02*
X553300Y780150D01*
X547300D02*
X550300Y785150D01*
X519250Y849500D02*
Y852000D01*
X670750Y849500D02*
Y852000D01*
X956750Y605000D02*
X959250D01*
X956750Y731500D02*
X959250D01*
X887200Y703250D02*
X892200Y700250D01*
X887200Y697250D02*
X892200Y700250D01*
X887200Y697250D02*
Y703250D01*
X907250Y605000D02*
X920250D01*
X907250Y731500D02*
X920250D01*
X959250Y605000D02*
Y731500D01*
X907250Y706700D02*
Y731500D01*
Y605000D02*
Y629800D01*
X380602Y147808D02*
Y290308D01*
Y147808D02*
X412602D01*
Y290308D01*
X380602D02*
X412602D01*
X389102Y139808D02*
X395102D01*
X392102Y144808D02*
X395102Y139808D01*
X389102D02*
X392102Y144808D01*
X650500Y712250D02*
X690500D01*
X650500Y762750D02*
X690500D01*
X374000Y89300D02*
Y92000D01*
X365250D02*
X374000D01*
X306500D02*
X315250D01*
X306500Y89300D02*
Y92000D01*
Y50000D02*
Y52000D01*
Y50000D02*
X374000D01*
Y52500D01*
X478250Y849500D02*
Y852000D01*
X351750Y849500D02*
Y852000D01*
X380000Y779950D02*
X383000Y784950D01*
X386000Y779950D01*
X380000D02*
X386000D01*
X478250Y800000D02*
Y813000D01*
X351750Y800000D02*
Y813000D01*
Y852000D02*
X478250D01*
X351750Y800000D02*
X376550D01*
X453450D02*
X478250D01*
X223602Y147308D02*
Y289808D01*
Y147308D02*
X255602D01*
Y289808D01*
X223602D02*
X255602D01*
X232102Y139308D02*
X238102D01*
X235102Y144308D02*
X238102Y139308D01*
X232102D02*
X235102Y144308D01*
X290950Y800000D02*
X315750D01*
X164250D02*
X189050D01*
X164250Y852000D02*
X315750D01*
X164250Y800000D02*
Y813000D01*
X315750Y800000D02*
Y813000D01*
X192300Y780150D02*
X198300D01*
X195300Y785150D02*
X198300Y780150D01*
X192300D02*
X195300Y785150D01*
X164250Y849500D02*
Y852000D01*
X315750Y849500D02*
Y852000D01*
D16*
X33250Y355000D02*
X144750D01*
X33250Y381000D02*
X144750D01*
Y355000D02*
Y381000D01*
X33250Y355000D02*
Y381000D01*
X32000Y480750D02*
X143500D01*
X32000Y506750D02*
X143500D01*
Y480750D02*
Y506750D01*
X32000Y480750D02*
Y506750D01*
X31500Y609250D02*
X143000D01*
X31500Y635250D02*
X143000D01*
Y609250D02*
Y635250D01*
X31500Y609250D02*
Y635250D01*
X31000Y736250D02*
X142500D01*
X31000Y762250D02*
X142500D01*
Y736250D02*
Y762250D01*
X31000Y736250D02*
Y762250D01*
X34000Y228750D02*
X145500D01*
X34000Y254750D02*
X145500D01*
Y228750D02*
Y254750D01*
X34000Y228750D02*
Y254750D01*
X156590Y7820D02*
X156840Y46320D01*
X204340Y7570D02*
X204567Y46740D01*
X190757Y100580D02*
X193297Y103119D01*
X198375D01*
X200914Y100580D01*
Y98041D01*
X198375Y95501D01*
X193297D01*
X190757Y92962D01*
Y90423D01*
X193297Y87884D01*
X198375D01*
X200914Y90423D01*
X185679Y103119D02*
Y87884D01*
X180601Y92962D01*
X175522Y87884D01*
Y103119D01*
X170444D02*
Y87884D01*
X162826D01*
X160287Y90423D01*
Y100580D01*
X162826Y103119D01*
X170444D01*
X333806Y145210D02*
X333778Y155366D01*
X328700Y155352D01*
X327012Y153654D01*
X327021Y150269D01*
X328719Y148581D01*
X333797Y148595D01*
X330411Y148586D02*
X327035Y145191D01*
X323626Y153645D02*
X321929Y155333D01*
X318543Y155324D01*
X316855Y153626D01*
X316860Y151933D01*
X318557Y150245D01*
X316869Y148548D01*
X316874Y146855D01*
X318571Y145167D01*
X321957Y145176D01*
X323645Y146874D01*
X323640Y148567D01*
X321943Y150255D01*
X323631Y151952D01*
X323626Y153645D01*
X321943Y150255D02*
X318557Y150245D01*
X313469Y153617D02*
X311772Y155305D01*
X308386Y155295D01*
X306698Y153598D01*
X306703Y151905D01*
X308400Y150217D01*
X306712Y148519D01*
X306717Y146827D01*
X308415Y145139D01*
X311800Y145148D01*
X313488Y146846D01*
X313484Y148538D01*
X311786Y150226D01*
X313474Y151924D01*
X313469Y153617D01*
X311786Y150226D02*
X308400Y150217D01*
X301266Y145103D02*
X301318Y155260D01*
X296239Y155286D01*
X294538Y153601D01*
X294521Y150216D01*
X296205Y148514D01*
X301284Y148489D01*
X297898Y148506D02*
X294495Y145138D01*
X291153Y153618D02*
X289468Y155320D01*
X286083Y155337D01*
X284382Y153653D01*
X284373Y151960D01*
X286057Y150259D01*
X284356Y148574D01*
X284347Y146882D01*
X286032Y145180D01*
X289417Y145163D01*
X291118Y146847D01*
X291127Y148540D01*
X289443Y150241D01*
X291144Y151926D01*
X291153Y153618D01*
X289443Y150241D02*
X286057Y150259D01*
X281005Y155363D02*
X274233Y155397D01*
X274225Y153704D01*
X280962Y146899D01*
X280953Y145206D01*
X658310Y238969D02*
X658274Y249126D01*
X653196Y249108D01*
X651509Y247409D01*
X651521Y244024D01*
X653220Y242337D01*
X658298Y242355D01*
X654913Y242343D02*
X651539Y238946D01*
X648124Y247397D02*
X646425Y249084D01*
X643039Y249072D01*
X641352Y247374D01*
X641358Y245681D01*
X643057Y243994D01*
X641370Y242295D01*
X641376Y240602D01*
X643075Y238916D01*
X646461Y238928D01*
X648148Y240626D01*
X648141Y242319D01*
X646443Y244006D01*
X648130Y245705D01*
X648124Y247397D01*
X646443Y244006D02*
X643057Y243994D01*
X631190Y249031D02*
X634581Y247350D01*
X637979Y243976D01*
X637991Y240591D01*
X636304Y238892D01*
X632919Y238880D01*
X631220Y240567D01*
X631214Y242260D01*
X632901Y243958D01*
X637979Y243976D01*
X658292Y255922D02*
Y266078D01*
X653214D01*
X651521Y264386D01*
Y261000D01*
X653214Y259307D01*
X658292D01*
X654907D02*
X651521Y255922D01*
X648136Y264386D02*
X646443Y266078D01*
X643057D01*
X641365Y264386D01*
Y262693D01*
X643057Y261000D01*
X641365Y259307D01*
Y257614D01*
X643057Y255922D01*
X646443D01*
X648136Y257614D01*
Y259307D01*
X646443Y261000D01*
X648136Y262693D01*
Y264386D01*
X646443Y261000D02*
X643057D01*
X631208Y266078D02*
X637979D01*
Y261000D01*
X634593Y262693D01*
X632901D01*
X631208Y261000D01*
Y257614D01*
X632901Y255922D01*
X636286D01*
X637979Y257614D01*
X211019Y585109D02*
X211066Y595265D01*
X205987Y595289D01*
X204287Y593604D01*
X204271Y590219D01*
X205956Y588518D01*
X211034Y588494D01*
X207649Y588510D02*
X204247Y585140D01*
X200901Y593620D02*
X199216Y595321D01*
X195831Y595336D01*
X194130Y593651D01*
X194122Y591959D01*
X195807Y590258D01*
X194107Y588573D01*
X194099Y586880D01*
X195784Y585180D01*
X199169Y585164D01*
X200870Y586849D01*
X200878Y588541D01*
X199193Y590242D01*
X200893Y591927D01*
X200901Y593620D01*
X199193Y590242D02*
X195807Y590258D01*
X185627Y585227D02*
X185674Y595383D01*
X190729Y590281D01*
X183958Y590313D01*
X210792Y638172D02*
Y648328D01*
X205714D01*
X204021Y646636D01*
Y643250D01*
X205714Y641557D01*
X210792D01*
X207407D02*
X204021Y638172D01*
X200636Y646636D02*
X198943Y648328D01*
X195557D01*
X193864Y646636D01*
Y644943D01*
X195557Y643250D01*
X193864Y641557D01*
Y639865D01*
X195557Y638172D01*
X198943D01*
X200636Y639865D01*
Y641557D01*
X198943Y643250D01*
X200636Y644943D01*
Y646636D01*
X198943Y643250D02*
X195557D01*
X190479Y646636D02*
X188786Y648328D01*
X185401D01*
X183708Y646636D01*
Y644943D01*
X185401Y643250D01*
X187093D01*
X185401D01*
X183708Y641557D01*
Y639865D01*
X185401Y638172D01*
X188786D01*
X190479Y639865D01*
X856922Y385208D02*
X867078Y385208D01*
X867078Y390286D01*
X865386Y391979D01*
X862000Y391979D01*
X860307Y390286D01*
X860307Y385208D01*
X860307Y388593D02*
X856922Y391979D01*
X865386Y395364D02*
X867078Y397057D01*
X867078Y400443D01*
X865386Y402136D01*
X863693Y402136D01*
X862000Y400443D01*
X860307Y402136D01*
X858614D01*
X856922Y400443D01*
X856922Y397057D01*
X858615Y395364D01*
X860307D01*
X862000Y397057D01*
X863693Y395364D01*
X865386Y395364D01*
X862000Y397057D02*
X862000Y400443D01*
X856922Y412292D02*
X856922Y405521D01*
X863693Y412292D01*
X865386Y412292D01*
X867078Y410600D01*
X867078Y407214D01*
X865386Y405521D01*
X801099Y385432D02*
X811256Y385370D01*
X811287Y390448D01*
X809604Y392151D01*
X806219Y392172D01*
X804516Y390489D01*
X804485Y385411D01*
X804505Y388797D02*
X801141Y392203D01*
X809625Y395536D02*
X811328Y397219D01*
X811349Y400604D01*
X809667Y402308D01*
X807974Y402318D01*
X806271Y400635D01*
X804588Y402339D01*
X802896Y402349D01*
X801192Y400667D01*
X801172Y397281D01*
X802854Y395578D01*
X804547Y395568D01*
X806250Y397250D01*
X807932Y395547D01*
X809625Y395536D01*
X806250Y397250D02*
X806271Y400635D01*
X801224Y405745D02*
X801244Y409130D01*
X801234Y407438D01*
X811391Y407375D01*
X809688Y405693D01*
X877312Y385249D02*
X887468Y385167D01*
X887510Y390245D01*
X885831Y391952D01*
X882445Y391979D01*
X880739Y390300D01*
X880698Y385222D01*
X880725Y388607D02*
X877367Y392020D01*
X885858Y395337D02*
X887564Y397016D01*
X887592Y400402D01*
X885913Y402108D01*
X884220Y402122D01*
X882514Y400443D01*
X880835Y402149D01*
X879142Y402163D01*
X877436Y400484D01*
X877408Y397098D01*
X879087Y395392D01*
X880780Y395378D01*
X882486Y397057D01*
X884165Y395351D01*
X885858Y395337D01*
X882486Y397057D02*
X882514Y400443D01*
X885940Y405494D02*
X887647Y407173D01*
X887674Y410558D01*
X885995Y412264D01*
X879224Y412319D01*
X877518Y410640D01*
X877490Y407255D01*
X879169Y405548D01*
X885940Y405494D01*
X823115Y384979D02*
X833272Y384937D01*
X833293Y390015D01*
X831607Y391715D01*
X828222Y391729D01*
X826522Y390043D01*
X826501Y384965D01*
X826515Y388350D02*
X823144Y391750D01*
X833314Y395093D02*
X833343Y401864D01*
X831650Y401871D01*
X824850Y395129D01*
X823158Y395136D01*
X824893Y405285D02*
X823207Y406985D01*
X823221Y410371D01*
X824921Y412056D01*
X831692Y412028D01*
X833378Y410328D01*
X833364Y406943D01*
X831664Y405257D01*
X829971Y405264D01*
X828285Y406964D01*
X828306Y412042D01*
X540292Y693172D02*
Y703328D01*
X535214D01*
X533521Y701636D01*
Y698250D01*
X535214Y696557D01*
X540292D01*
X536907D02*
X533521Y693172D01*
X523364Y703328D02*
X526750Y701636D01*
X530136Y698250D01*
Y694864D01*
X528443Y693172D01*
X525057D01*
X523364Y694864D01*
Y696557D01*
X525057Y698250D01*
X530136D01*
X513208Y693172D02*
X519979D01*
X513208Y699943D01*
Y701636D01*
X514901Y703328D01*
X518286D01*
X519979Y701636D01*
X539524Y751872D02*
X539561Y762029D01*
X534483Y762047D01*
X532784Y760361D01*
X532771Y756975D01*
X534458Y755276D01*
X539536Y755257D01*
X536150Y755270D02*
X532752Y751897D01*
X524289Y751928D02*
X524326Y762085D01*
X529386Y756988D01*
X522615Y757012D01*
X519241Y760411D02*
X517555Y762110D01*
X514169Y762122D01*
X512470Y760435D01*
X512464Y758743D01*
X514151Y757044D01*
X512452Y755357D01*
X512445Y753664D01*
X514132Y751965D01*
X517518Y751953D01*
X519216Y753639D01*
X519223Y755332D01*
X517536Y757031D01*
X519235Y758718D01*
X519241Y760411D01*
X517536Y757031D02*
X514151Y757044D01*
X745946Y497172D02*
Y507328D01*
X740868D01*
X739175Y505636D01*
Y502250D01*
X740868Y500557D01*
X745946D01*
X742560D02*
X739175Y497172D01*
X735789D02*
X732404D01*
X734096D01*
Y507328D01*
X735789Y505636D01*
X727325D02*
X725632Y507328D01*
X722247D01*
X720554Y505636D01*
Y503943D01*
X722247Y502250D01*
X723940D01*
X722247D01*
X720554Y500557D01*
Y498865D01*
X722247Y497172D01*
X725632D01*
X727325Y498865D01*
X871064Y688633D02*
Y703868D01*
X863446D01*
X860907Y701328D01*
Y696250D01*
X863446Y693711D01*
X871064D01*
X865985D02*
X860907Y688633D01*
X855828Y701328D02*
X853289Y703868D01*
X848211D01*
X845672Y701328D01*
Y698789D01*
X848211Y696250D01*
X850750D01*
X848211D01*
X845672Y693711D01*
Y691172D01*
X848211Y688633D01*
X853289D01*
X855828Y691172D01*
X840593Y701328D02*
X838054Y703868D01*
X832976D01*
X830437Y701328D01*
Y698789D01*
X832976Y696250D01*
X835515D01*
X832976D01*
X830437Y693711D01*
Y691172D01*
X832976Y688633D01*
X838054D01*
X840593Y691172D01*
X753988Y787780D02*
X754095Y797936D01*
X749017Y797990D01*
X747306Y796315D01*
X747271Y792929D01*
X748946Y791219D01*
X754024Y791166D01*
X750639Y791201D02*
X747218Y787851D01*
X737168Y798114D02*
X740536Y796385D01*
X743885Y792965D01*
X743850Y789579D01*
X742140Y787904D01*
X738754Y787940D01*
X737079Y789650D01*
X737097Y791343D01*
X738807Y793018D01*
X743885Y792965D01*
X733694Y789686D02*
X731983Y788010D01*
X728598Y788046D01*
X726923Y789756D01*
X726994Y796527D01*
X728704Y798202D01*
X732090Y798167D01*
X733765Y796456D01*
X733747Y794764D01*
X732037Y793089D01*
X726958Y793142D01*
X839042Y666172D02*
Y676328D01*
X833964D01*
X832271Y674636D01*
Y671250D01*
X833964Y669557D01*
X839042D01*
X835657D02*
X832271Y666172D01*
X822114Y676328D02*
X825500Y674636D01*
X828886Y671250D01*
Y667865D01*
X827193Y666172D01*
X823807D01*
X822114Y667865D01*
Y669557D01*
X823807Y671250D01*
X828886D01*
X818729Y674636D02*
X817036Y676328D01*
X813651D01*
X811958Y674636D01*
Y672943D01*
X813651Y671250D01*
X811958Y669557D01*
Y667865D01*
X813651Y666172D01*
X817036D01*
X818729Y667865D01*
Y669557D01*
X817036Y671250D01*
X818729Y672943D01*
Y674636D01*
X817036Y671250D02*
X813651D01*
X246368Y305363D02*
Y300285D01*
Y302824D01*
X233672D01*
X231133Y300285D01*
Y297745D01*
X233672Y295206D01*
X231133Y310441D02*
Y315520D01*
Y312980D01*
X246368D01*
X243828Y310441D01*
Y323137D02*
X246368Y325676D01*
Y330755D01*
X243828Y333294D01*
X241289D01*
X238750Y330755D01*
Y328215D01*
Y330755D01*
X236211Y333294D01*
X233672D01*
X231133Y330755D01*
Y325676D01*
X233672Y323137D01*
X403096Y304041D02*
Y298962D01*
Y301502D01*
X390400D01*
X387860Y298962D01*
Y296423D01*
X390400Y293884D01*
X387860Y309119D02*
Y314198D01*
Y311658D01*
X403096D01*
X400556Y309119D01*
Y321815D02*
X403096Y324354D01*
Y329433D01*
X400556Y331972D01*
X390400D01*
X387860Y329433D01*
Y324354D01*
X390400Y321815D01*
X400556D01*
D17*
X160140Y745532D02*
Y755689D01*
X165218Y750610D01*
X158447D01*
X155061Y747225D02*
X153369Y745532D01*
X149983D01*
X148290Y747225D01*
Y753996D01*
X149983Y755689D01*
X153369D01*
X155061Y753996D01*
Y752303D01*
X153369Y750610D01*
X148290D01*
X166218Y625496D02*
X164525Y627189D01*
X161140D01*
X159447Y625496D01*
Y623803D01*
X161140Y622110D01*
X162832D01*
X161140D01*
X159447Y620418D01*
Y618725D01*
X161140Y617032D01*
X164525D01*
X166218Y618725D01*
X156061D02*
X154368Y617032D01*
X150983D01*
X149290Y618725D01*
Y625496D01*
X150983Y627189D01*
X154368D01*
X156061Y625496D01*
Y623803D01*
X154368Y622110D01*
X149290D01*
X160447Y488782D02*
X167218D01*
X160447Y495553D01*
Y497246D01*
X162140Y498939D01*
X165525D01*
X167218Y497246D01*
X157061Y490475D02*
X155368Y488782D01*
X151983D01*
X150290Y490475D01*
Y497246D01*
X151983Y498939D01*
X155368D01*
X157061Y497246D01*
Y495553D01*
X155368Y493860D01*
X150290D01*
X165218Y362782D02*
X161832D01*
X163525D01*
Y372939D01*
X165218Y371246D01*
X156754Y364475D02*
X155061Y362782D01*
X151676D01*
X149983Y364475D01*
Y371246D01*
X151676Y372939D01*
X155061D01*
X156754Y371246D01*
Y369553D01*
X155061Y367860D01*
X149983D01*
X149218Y213725D02*
X147525Y212032D01*
X144140D01*
X142447Y213725D01*
Y220496D01*
X144140Y222189D01*
X147525D01*
X149218Y220496D01*
Y218803D01*
X147525Y217110D01*
X142447D01*
X19197Y755939D02*
X25968D01*
Y750860D01*
X22582Y752553D01*
X20890D01*
X19197Y750860D01*
Y747475D01*
X20890Y745782D01*
X24275D01*
X25968Y747475D01*
X15811Y754246D02*
X14118Y755939D01*
X10733D01*
X9040Y754246D01*
Y747475D01*
X10733Y745782D01*
X14118D01*
X15811Y747475D01*
Y754246D01*
X22140Y616782D02*
Y626939D01*
X27218Y621860D01*
X20447D01*
X17061Y625246D02*
X15368Y626939D01*
X11983D01*
X10290Y625246D01*
Y618475D01*
X11983Y616782D01*
X15368D01*
X17061Y618475D01*
Y625246D01*
X25968Y498496D02*
X24275Y500189D01*
X20890D01*
X19197Y498496D01*
Y496803D01*
X20890Y495110D01*
X22582D01*
X20890D01*
X19197Y493418D01*
Y491725D01*
X20890Y490032D01*
X24275D01*
X25968Y491725D01*
X15811Y498496D02*
X14118Y500189D01*
X10733D01*
X9040Y498496D01*
Y491725D01*
X10733Y490032D01*
X14118D01*
X15811Y491725D01*
Y498496D01*
X21447Y363032D02*
X28218D01*
X21447Y369803D01*
Y371496D01*
X23140Y373189D01*
X26525D01*
X28218Y371496D01*
X18061D02*
X16368Y373189D01*
X12983D01*
X11290Y371496D01*
Y364725D01*
X12983Y363032D01*
X16368D01*
X18061Y364725D01*
Y371496D01*
X28218Y237032D02*
X24832D01*
X26525D01*
Y247189D01*
X28218Y245496D01*
X19754D02*
X18061Y247189D01*
X14676D01*
X12983Y245496D01*
Y238725D01*
X14676Y237032D01*
X18061D01*
X19754Y238725D01*
Y245496D01*
X114697Y119439D02*
X118082D01*
X116390D01*
Y110975D01*
X118082Y109282D01*
X119775D01*
X121468Y110975D01*
X104540Y119439D02*
X107926Y117746D01*
X111311Y114360D01*
Y110975D01*
X109619Y109282D01*
X106233D01*
X104540Y110975D01*
Y112668D01*
X106233Y114360D01*
X111311D01*
X27197Y134939D02*
X30582D01*
X28890D01*
Y126475D01*
X30582Y124782D01*
X32275D01*
X33968Y126475D01*
X17040Y134939D02*
X23811D01*
Y129860D01*
X20426Y131553D01*
X18733D01*
X17040Y129860D01*
Y126475D01*
X18733Y124782D01*
X22118D01*
X23811Y126475D01*
X298365Y108202D02*
X301750D01*
X300058D01*
Y99738D01*
X301750Y98046D01*
X303443D01*
X305136Y99738D01*
X289901Y98046D02*
Y108202D01*
X294979Y103124D01*
X288208D01*
X655628Y586932D02*
X655411Y576778D01*
X648641Y576923D01*
X645256Y576995D02*
X641872Y577068D01*
X643564Y577032D01*
X643782Y587186D01*
X645438Y585457D01*
X680012Y770220D02*
X690168Y770083D01*
X690237Y775161D01*
X688567Y776876D01*
X685182Y776922D01*
X683466Y775252D01*
X683398Y770174D01*
X683443Y773560D02*
X680104Y776991D01*
X690396Y787009D02*
X688658Y783647D01*
X685227Y780307D01*
X681842Y780353D01*
X680172Y782069D01*
X680218Y785454D01*
X681933Y787124D01*
X683626Y787101D01*
X685296Y785385D01*
X685227Y780307D01*
X680286Y790532D02*
X680332Y793917D01*
X680309Y792224D01*
X690465Y792087D01*
X688749Y790417D01*
X638292Y770922D02*
Y781078D01*
X633214D01*
X631521Y779386D01*
Y776000D01*
X633214Y774307D01*
X638292D01*
X634907D02*
X631521Y770922D01*
X621364Y781078D02*
X624750Y779386D01*
X628136Y776000D01*
Y772615D01*
X626443Y770922D01*
X623057D01*
X621364Y772615D01*
Y774307D01*
X623057Y776000D01*
X628136D01*
X617979Y779386D02*
X616286Y781078D01*
X612901D01*
X611208Y779386D01*
Y772615D01*
X612901Y770922D01*
X616286D01*
X617979Y772615D01*
Y779386D01*
X935193Y596828D02*
X938578D01*
X936886D01*
Y588364D01*
X938578Y586672D01*
X940271D01*
X941964Y588364D01*
X931807D02*
X930114Y586672D01*
X926729D01*
X925036Y588364D01*
Y595136D01*
X926729Y596828D01*
X930114D01*
X931807Y595136D01*
Y593443D01*
X930114Y591750D01*
X925036D01*
X782964Y779328D02*
Y769172D01*
X777886D01*
X776193Y770864D01*
Y777636D01*
X777886Y779328D01*
X782964D01*
X772807D02*
X766036D01*
Y777636D01*
X772807Y770864D01*
Y769172D01*
X811535Y580608D02*
X813235Y582294D01*
X816620Y582280D01*
X818306Y580580D01*
X818278Y573809D01*
X816579Y572123D01*
X813193Y572137D01*
X811507Y573837D01*
X808149Y580622D02*
X806464Y582321D01*
X803078Y582335D01*
X801378Y580649D01*
X801371Y578957D01*
X803057Y577257D01*
X804750Y577250D01*
X803057Y577257D01*
X801358Y575571D01*
X801351Y573878D01*
X803036Y572179D01*
X806422Y572165D01*
X808122Y573851D01*
X791229Y582384D02*
X794607Y580677D01*
X797979Y577278D01*
X797965Y573892D01*
X796265Y572206D01*
X792880Y572220D01*
X791194Y573920D01*
X791201Y575613D01*
X792901Y577299D01*
X797979Y577278D01*
X849550Y578078D02*
X851257Y579756D01*
X854642Y579728D01*
X856320Y578021D01*
X856263Y571250D01*
X854556Y569571D01*
X851171Y569600D01*
X849492Y571307D01*
X846164Y578107D02*
X844486Y579814D01*
X841100Y579843D01*
X839393Y578164D01*
X839379Y576471D01*
X841057Y574764D01*
X842750Y574750D01*
X841057Y574764D01*
X839350Y573086D01*
X839336Y571393D01*
X841014Y569686D01*
X844400Y569658D01*
X846107Y571336D01*
X829251Y579943D02*
X836022Y579886D01*
X835979Y574808D01*
X832608Y576529D01*
X830915Y576543D01*
X829208Y574865D01*
X829180Y571479D01*
X830858Y569772D01*
X834243Y569744D01*
X835950Y571422D01*
X888271Y579386D02*
X889964Y581078D01*
X893350D01*
X895042Y579386D01*
Y572615D01*
X893350Y570922D01*
X889964D01*
X888271Y572615D01*
X884886Y579386D02*
X883193Y581078D01*
X879807D01*
X878114Y579386D01*
Y577693D01*
X879807Y576000D01*
X881500D01*
X879807D01*
X878114Y574307D01*
Y572615D01*
X879807Y570922D01*
X883193D01*
X884886Y572615D01*
X869650Y570922D02*
Y581078D01*
X874729Y576000D01*
X867958D01*
X592864Y728521D02*
X591172Y730214D01*
Y733599D01*
X592864Y735292D01*
X599636D01*
X601328Y733599D01*
Y730214D01*
X599636Y728521D01*
X592864Y725136D02*
X591172Y723443D01*
Y720057D01*
X592864Y718364D01*
X594557D01*
X596250Y720057D01*
Y721750D01*
Y720057D01*
X597943Y718364D01*
X599636D01*
X601328Y720057D01*
Y723443D01*
X599636Y725136D01*
X592864Y714979D02*
X591172Y713286D01*
Y709901D01*
X592864Y708208D01*
X594557D01*
X596250Y709901D01*
Y711593D01*
Y709901D01*
X597943Y708208D01*
X599636D01*
X601328Y709901D01*
Y713286D01*
X599636Y714979D01*
X511777Y462632D02*
X511807Y472789D01*
X506729Y472804D01*
X505031Y471116D01*
X505021Y467730D01*
X506709Y466033D01*
X511787Y466018D01*
X508402Y466028D02*
X505006Y462652D01*
X501645Y471126D02*
X499958Y472823D01*
X496572Y472833D01*
X494874Y471145D01*
X494869Y469453D01*
X496557Y467755D01*
X498250Y467750D01*
X496557Y467755D01*
X494860Y466067D01*
X494855Y464374D01*
X496542Y462677D01*
X499928Y462667D01*
X501626Y464355D01*
X491489Y471155D02*
X489801Y472853D01*
X486415Y472863D01*
X484718Y471175D01*
X484698Y464404D01*
X486386Y462706D01*
X489771Y462696D01*
X491469Y464384D01*
X491489Y471155D01*
X345422Y657900D02*
X355578D01*
Y662979D01*
X353886Y664672D01*
X350500D01*
X348807Y662979D01*
Y657900D01*
Y661286D02*
X345422Y664672D01*
Y674828D02*
Y668057D01*
X352193Y674828D01*
X353886D01*
X355578Y673136D01*
Y669750D01*
X353886Y668057D01*
X345422Y678214D02*
Y681600D01*
Y679907D01*
X355578D01*
X353886Y678214D01*
X295922Y658054D02*
X306078D01*
Y663132D01*
X304386Y664825D01*
X301000D01*
X299307Y663132D01*
Y658054D01*
Y661440D02*
X295922Y664825D01*
Y668211D02*
Y671596D01*
Y669904D01*
X306078D01*
X304386Y668211D01*
Y676675D02*
X306078Y678368D01*
Y681753D01*
X304386Y683446D01*
X302693D01*
X301000Y681753D01*
X299307Y683446D01*
X297614D01*
X295922Y681753D01*
Y678368D01*
X297614Y676675D01*
X299307D01*
X301000Y678368D01*
X302693Y676675D01*
X304386D01*
X301000Y678368D02*
Y681753D01*
X510663Y480340D02*
X510728Y490497D01*
X505650Y490529D01*
X503946Y488848D01*
X503925Y485462D01*
X505606Y483758D01*
X510685Y483726D01*
X507299Y483747D02*
X503892Y480384D01*
X500507Y480406D02*
X497121Y480427D01*
X498814Y480416D01*
X498879Y490573D01*
X500561Y488869D01*
X485337Y490660D02*
X488712Y488945D01*
X492075Y485538D01*
X492054Y482153D01*
X490350Y480471D01*
X486964Y480492D01*
X485283Y482196D01*
X485294Y483889D01*
X486997Y485571D01*
X492075Y485538D01*
X510476Y512747D02*
X510416Y522903D01*
X505337Y522873D01*
X503655Y521171D01*
X503675Y517785D01*
X505377Y516102D01*
X510456Y516132D01*
X507070Y516112D02*
X503705Y512707D01*
X500319Y512687D02*
X496934Y512667D01*
X498626Y512677D01*
X498566Y522833D01*
X500269Y521151D01*
X485024Y522753D02*
X491795Y522793D01*
X491825Y517715D01*
X488430Y519388D01*
X486737Y519378D01*
X485054Y517675D01*
X485074Y514290D01*
X486777Y512607D01*
X490163Y512627D01*
X491845Y514330D01*
X345024Y288805D02*
X355180D01*
Y293883D01*
X353488Y295576D01*
X350102D01*
X348409Y293883D01*
Y288805D01*
Y292190D02*
X345024Y295576D01*
Y298962D02*
Y302347D01*
Y300654D01*
X355180D01*
X353488Y298962D01*
X345024Y307425D02*
Y310811D01*
Y309118D01*
X355180D01*
X353488Y307425D01*
X361922Y220786D02*
X372078D01*
Y225864D01*
X370386Y227557D01*
X367000D01*
X365307Y225864D01*
Y220786D01*
Y224172D02*
X361922Y227557D01*
X370386Y230943D02*
X372078Y232636D01*
Y236021D01*
X370386Y237714D01*
X368693D01*
X367000Y236021D01*
X365307Y237714D01*
X363614D01*
X361922Y236021D01*
Y232636D01*
X363614Y230943D01*
X365307D01*
X367000Y232636D01*
X368693Y230943D01*
X370386D01*
X367000Y232636D02*
Y236021D01*
X167555Y794002D02*
X170940D01*
X169248D01*
Y785538D01*
X170940Y783846D01*
X172633D01*
X174326Y785538D01*
X164169Y792310D02*
X162476Y794002D01*
X159091D01*
X157398Y792310D01*
Y790617D01*
X159091Y788924D01*
X160784D01*
X159091D01*
X157398Y787231D01*
Y785538D01*
X159091Y783846D01*
X162476D01*
X164169Y785538D01*
X313940Y321816D02*
Y313352D01*
X312247Y311660D01*
X308862D01*
X307169Y313352D01*
Y321816D01*
X303783Y311660D02*
X300398D01*
X302090D01*
Y321816D01*
X303783Y320124D01*
X295319D02*
X293626Y321816D01*
X290241D01*
X288548Y320124D01*
Y313352D01*
X290241Y311660D01*
X293626D01*
X295319Y313352D01*
Y320124D01*
X648964Y703828D02*
Y695364D01*
X647271Y693672D01*
X643886D01*
X642193Y695364D01*
Y703828D01*
X633729Y693672D02*
Y703828D01*
X638807Y698750D01*
X632036D01*
X362024Y273034D02*
X372180D01*
Y278112D01*
X370488Y279805D01*
X367102D01*
X365409Y278112D01*
Y273034D01*
Y276419D02*
X362024Y279805D01*
Y283190D02*
Y286576D01*
Y284883D01*
X372180D01*
X370488Y283190D01*
Y291654D02*
X372180Y293347D01*
Y296733D01*
X370488Y298426D01*
X368795D01*
X367102Y296733D01*
Y295040D01*
Y296733D01*
X365409Y298426D01*
X363717D01*
X362024Y296733D01*
Y293347D01*
X363717Y291654D01*
X370488Y301811D02*
X372180Y303504D01*
Y306889D01*
X370488Y308582D01*
X363717D01*
X362024Y306889D01*
Y303504D01*
X363717Y301811D01*
X370488D01*
X360672Y657708D02*
X370828D01*
Y662786D01*
X369136Y664479D01*
X365750D01*
X364057Y662786D01*
Y657708D01*
Y661093D02*
X360672Y664479D01*
Y672943D02*
X370828D01*
X365750Y667865D01*
Y674636D01*
X370828Y684792D02*
X369136Y681407D01*
X365750Y678021D01*
X362365D01*
X360672Y679714D01*
Y683100D01*
X362365Y684792D01*
X364057D01*
X365750Y683100D01*
Y678021D01*
X410922Y657458D02*
X421078D01*
Y662536D01*
X419386Y664229D01*
X416000D01*
X414307Y662536D01*
Y657458D01*
Y660843D02*
X410922Y664229D01*
Y672693D02*
X421078D01*
X416000Y667614D01*
Y674386D01*
X419386Y677771D02*
X421078Y679464D01*
Y682850D01*
X419386Y684542D01*
X417693D01*
X416000Y682850D01*
Y681157D01*
Y682850D01*
X414307Y684542D01*
X412614D01*
X410922Y682850D01*
Y679464D01*
X412614Y677771D01*
X509443Y794078D02*
X512828D01*
X511136D01*
Y785614D01*
X512828Y783922D01*
X514521D01*
X516214Y785614D01*
X506057Y792386D02*
X504364Y794078D01*
X500979D01*
X499286Y792386D01*
Y790693D01*
X500979Y789000D01*
X499286Y787307D01*
Y785614D01*
X500979Y783922D01*
X504364D01*
X506057Y785614D01*
Y787307D01*
X504364Y789000D01*
X506057Y790693D01*
Y792386D01*
X504364Y789000D02*
X500979D01*
X366693Y794078D02*
X370078D01*
X368386D01*
Y785614D01*
X370078Y783922D01*
X371771D01*
X373464Y785614D01*
X363307Y794078D02*
X356536D01*
Y792386D01*
X363307Y785614D01*
Y783922D01*
X358913Y198514D02*
X360606Y200207D01*
X363992D01*
X365684Y198514D01*
Y191743D01*
X363992Y190050D01*
X360606D01*
X358913Y191743D01*
X355528Y198514D02*
X353835Y200207D01*
X350449D01*
X348756Y198514D01*
Y196821D01*
X350449Y195128D01*
X352142D01*
X350449D01*
X348756Y193436D01*
Y191743D01*
X350449Y190050D01*
X353835D01*
X355528Y191743D01*
X338600Y190050D02*
X345371D01*
X338600Y196821D01*
Y198514D01*
X340293Y200207D01*
X343678D01*
X345371Y198514D01*
X707759Y702456D02*
X709452Y704148D01*
X712838D01*
X714530Y702456D01*
Y695684D01*
X712838Y693992D01*
X709452D01*
X707759Y695684D01*
X697602Y693992D02*
X704374D01*
X697602Y700763D01*
Y702456D01*
X699295Y704148D01*
X702681D01*
X704374Y702456D01*
X689138Y693992D02*
Y704148D01*
X694217Y699070D01*
X687446D01*
D19*
X141944Y809291D02*
Y794056D01*
Y801674D01*
X131787D01*
Y809291D01*
Y794056D01*
X126709D02*
X121631D01*
X124170D01*
Y809291D01*
X126709Y806752D01*
X34444Y791291D02*
Y776056D01*
Y783674D01*
X24287D01*
Y791291D01*
Y776056D01*
X9052D02*
X19209D01*
X9052Y786213D01*
Y788752D01*
X11591Y791291D01*
X16670D01*
X19209Y788752D01*
X804194Y837541D02*
Y822306D01*
X796577D01*
X794037Y824845D01*
Y827384D01*
X796577Y829924D01*
X804194D01*
X796577D01*
X794037Y832463D01*
Y835002D01*
X796577Y837541D01*
X804194D01*
X786420Y822306D02*
X781341D01*
X778802Y824845D01*
Y829924D01*
X781341Y832463D01*
X786420D01*
X788959Y829924D01*
Y824845D01*
X786420Y822306D01*
X771185D02*
X766106D01*
X763567Y824845D01*
Y829924D01*
X766106Y832463D01*
X771185D01*
X773724Y829924D01*
Y824845D01*
X771185Y822306D01*
X758489D02*
Y832463D01*
X755950D01*
X753410Y829924D01*
Y822306D01*
Y829924D01*
X750871Y832463D01*
X748332Y829924D01*
Y822306D01*
X728019D02*
Y837541D01*
X720401D01*
X717862Y835002D01*
Y829924D01*
X720401Y827384D01*
X728019D01*
X712784Y837541D02*
Y822306D01*
X707705Y827384D01*
X702627Y822306D01*
Y837541D01*
X697549Y822306D02*
Y837541D01*
X689931D01*
X687392Y835002D01*
Y829924D01*
X689931Y827384D01*
X697549D01*
X692470D02*
X687392Y822306D01*
X944619Y415056D02*
X929384D01*
Y422674D01*
X931924Y425213D01*
X934463D01*
X937002Y422674D01*
Y415056D01*
Y422674D01*
X939541Y425213D01*
X942080D01*
X944619Y422674D01*
Y415056D01*
X929384Y432830D02*
Y437909D01*
X931924Y440448D01*
X937002D01*
X939541Y437909D01*
Y432830D01*
X937002Y430291D01*
X931924D01*
X929384Y432830D01*
Y448065D02*
Y453144D01*
X931924Y455683D01*
X937002D01*
X939541Y453144D01*
Y448065D01*
X937002Y445526D01*
X931924D01*
X929384Y448065D01*
Y460761D02*
X939541D01*
Y463300D01*
X937002Y465840D01*
X929384D01*
X937002D01*
X939541Y468379D01*
X937002Y470918D01*
X929384D01*
X944619Y491231D02*
X929384D01*
Y498849D01*
X931924Y501388D01*
X942080D01*
X944619Y498849D01*
Y491231D01*
X929384Y514084D02*
Y509006D01*
X931924Y506466D01*
X937002D01*
X939541Y509006D01*
Y514084D01*
X937002Y516623D01*
X934463D01*
Y506466D01*
X924306Y521702D02*
X939541D01*
Y529319D01*
X937002Y531858D01*
X931924D01*
X929384Y529319D01*
Y521702D01*
Y536937D02*
Y542015D01*
Y539476D01*
X944619D01*
Y536937D01*
X929384Y552172D02*
Y557250D01*
X931924Y559789D01*
X937002D01*
X939541Y557250D01*
Y552172D01*
X937002Y549632D01*
X931924D01*
X929384Y552172D01*
X939541Y564868D02*
X931924D01*
X929384Y567407D01*
Y575024D01*
X926845D01*
X924306Y572485D01*
Y569946D01*
X929384Y575024D02*
X939541D01*
X240795Y781300D02*
X243335Y783839D01*
X248413D01*
X250952Y781300D01*
Y771143D01*
X248413Y768604D01*
X243335D01*
X240795Y771143D01*
Y776221D01*
X245874D01*
X235717Y768604D02*
Y783839D01*
X228099D01*
X225560Y781300D01*
Y776221D01*
X228099Y773682D01*
X235717D01*
X210325Y781300D02*
X212864Y783839D01*
X217943D01*
X220482Y781300D01*
Y778761D01*
X217943Y776221D01*
X212864D01*
X210325Y773682D01*
Y771143D01*
X212864Y768604D01*
X217943D01*
X220482Y771143D01*
X435105Y775204D02*
X437645Y777743D01*
X442723D01*
X445262Y775204D01*
Y765047D01*
X442723Y762508D01*
X437645D01*
X435105Y765047D01*
X427488Y772665D02*
X422409D01*
X419870Y770126D01*
Y762508D01*
X427488D01*
X430027Y765047D01*
X427488Y767586D01*
X419870D01*
X414792Y762508D02*
Y772665D01*
X412253D01*
X409714Y770126D01*
Y762508D01*
Y770126D01*
X407174Y772665D01*
X404635Y770126D01*
Y762508D01*
X391939D02*
X397018D01*
X399557Y765047D01*
Y770126D01*
X397018Y772665D01*
X391939D01*
X389400Y770126D01*
Y767586D01*
X399557D01*
X384322Y772665D02*
Y762508D01*
Y767586D01*
X381782Y770126D01*
X379243Y772665D01*
X376704D01*
X366548D02*
X361469D01*
X358930Y770126D01*
Y762508D01*
X366548D01*
X369087Y765047D01*
X366548Y767586D01*
X358930D01*
X203708Y166370D02*
X213865D01*
X218943Y171448D01*
X213865Y176527D01*
X203708D01*
X211326D01*
Y166370D01*
X203708Y181605D02*
X213865D01*
Y189223D01*
X211326Y191762D01*
X203708D01*
X216404Y199379D02*
X213865D01*
Y196840D01*
Y201919D01*
Y199379D01*
X206247D01*
X203708Y201919D01*
Y217153D02*
Y212075D01*
X206247Y209536D01*
X211326D01*
X213865Y212075D01*
Y217153D01*
X211326Y219693D01*
X208786D01*
Y209536D01*
X203708Y224771D02*
X213865D01*
Y232389D01*
X211326Y234928D01*
X203708D01*
Y240006D02*
X213865D01*
Y247624D01*
X211326Y250163D01*
X203708D01*
X213865Y257780D02*
Y262859D01*
X211326Y265398D01*
X203708D01*
Y257780D01*
X206247Y255241D01*
X208786Y257780D01*
Y265398D01*
X419862Y197866D02*
X435097D01*
X430019Y202944D01*
X435097Y208023D01*
X419862D01*
Y213101D02*
X435097D01*
Y220719D01*
X432558Y223258D01*
X427480D01*
X424940Y220719D01*
Y213101D01*
X435097Y228336D02*
Y233414D01*
Y230875D01*
X419862D01*
Y228336D01*
Y233414D01*
D20*
X617987Y743013D02*
D03*
M02*
